<?xml version="1.0" encoding="utf-8" standalone="no"?>
<!DOCTYPE svg PUBLIC "-//W3C//DTD SVG 1.1//EN"
  "http://www.w3.org/Graphics/SVG/1.1/DTD/svg11.dtd">
<!-- Created with matplotlib (http://matplotlib.org/) -->
<svg height="720pt" version="1.1" viewBox="0 0 2160 720" width="2160pt" xmlns="http://www.w3.org/2000/svg" xmlns:xlink="http://www.w3.org/1999/xlink">
 <defs>
  <style type="text/css">
*{stroke-linecap:butt;stroke-linejoin:round;stroke-miterlimit:100000;}
  </style>
 </defs>
 <g id="figure_1">
  <g id="patch_1">
   <path d="M 0 720 
L 2160 720 
L 2160 0 
L 0 0 
z
" style="fill:#ffffff;"/>
  </g>
  <g id="axes_1">
   <g id="patch_2">
    <path d="M 270 648 
L 1944 648 
L 1944 72 
L 270 72 
z
" style="fill:#ffffff;"/>
   </g>
   <g id="line2d_1">
    <path clip-path="url(#paf9babe2a0)" d="M 270 648 
L 432.83358 648 
L 433.187566 645.673738 
L 433.541552 646.055942 
L 433.895538 648 
L 472.126031 648 
L 472.480017 628.064736 
L 472.834003 509.44128 
L 473.187989 599.067456 
L 473.541975 616.96896 
L 473.895961 647.964611 
L 475.311905 648 
L 478.143794 648 
L 478.49778 628.801632 
L 478.851766 599.596704 
L 479.205752 510.52128 
L 479.559738 618.553632 
L 479.913724 646.361078 
L 480.26771 648 
L 483.099598 647.980339 
L 483.453584 607.418496 
L 483.80757 483.77184 
L 484.161556 646.729123 
L 484.515542 618.24144 
L 484.869528 647.991349 
L 485.931487 648 
L 486.285473 628.794528 
L 486.639459 524.87232 
L 486.993445 585.715392 
L 487.701417 647.079875 
L 488.055403 648 
L 488.409389 648 
L 488.763375 647.15144 
L 489.117361 648 
L 491.241277 648 
L 491.949249 604.28064 
L 492.303235 506.05248 
L 492.657221 618.40416 
L 493.011207 646.087402 
L 493.365193 648 
L 498.320998 648 
L 498.674984 628.86528 
L 499.02897 599.673792 
L 499.382956 510.61824 
L 499.736942 618.707808 
L 500.090928 646.191206 
L 500.444914 648 
L 501.152886 648 
L 501.506872 646.811702 
L 501.860859 604.1352 
L 502.214845 488.25312 
L 502.568831 619.103328 
L 502.922817 645.768106 
L 503.276803 648 
L 504.692747 648 
L 505.046733 628.684416 
L 505.400719 510.71712 
L 505.754705 599.60928 
L 506.108691 616.843968 
L 506.462677 647.976407 
L 508.232607 648 
L 573.366039 648 
L 573.720025 628.575168 
L 574.074011 508.71552 
L 574.427997 601.636704 
L 574.781983 616.458528 
L 575.13597 647.954387 
L 576.197928 648 
L 583.985621 648 
L 584.339607 647.073583 
L 584.693593 647.991349 
L 589.295411 648 
L 590.003383 648 
L 590.357369 646.657565 
L 590.711355 600.0984 
L 591.065342 489.9744 
L 591.419328 618.376704 
L 591.773314 645.919891 
L 592.1273 648 
L 594.605202 648 
L 595.313174 607.820448 
L 595.66716 502.152 
L 596.021146 618.407328 
L 596.375132 645.92303 
L 596.729118 648 
L 598.145062 648 
L 598.499048 628.71984 
L 598.853034 463.3248 
L 599.20702 647.165596 
L 599.561007 616.668576 
L 599.914993 647.976407 
L 601.684923 648 
L 681.331783 648 
L 681.685769 628.698624 
L 682.039755 599.653344 
L 682.393741 510.72 
L 682.747727 617.999232 
L 683.101713 645.897082 
L 683.455699 648 
L 684.871643 648 
L 685.225629 617.865504 
L 685.579615 473.23488 
L 685.933601 646.713398 
L 686.287587 617.942592 
L 686.641573 647.975621 
L 688.057517 648 
L 688.76549 604.346688 
L 689.119476 505.76256 
L 689.473462 618.381408 
L 689.827448 645.788554 
L 690.181434 648 
L 692.30535 648 
L 692.659336 628.138656 
L 693.013322 509.4192 
L 693.367308 598.976928 
L 693.721294 616.565568 
L 694.07528 647.946523 
L 695.137238 648 
L 696.199196 648 
L 696.553182 647.112118 
L 696.907169 648 
L 697.261155 648 
L 697.615141 647.147508 
L 697.969127 647.991349 
L 699.739057 648 
L 700.093043 647.121556 
L 700.447029 629.108352 
L 700.801015 604.307424 
L 701.155001 505.77408 
L 701.508987 618.26976 
L 701.862973 645.720922 
L 702.216959 628.83312 
L 702.570945 603.40224 
L 702.924931 506.25888 
L 703.278917 618.743904 
L 703.632903 645.713059 
L 703.986889 648 
L 704.340875 647.126274 
L 704.694861 627.894048 
L 705.048848 463.42464 
L 705.402834 646.982362 
L 705.75682 616.413792 
L 706.110806 647.977193 
L 707.880736 648 
L 708.234722 628.851936 
L 708.588708 603.104928 
L 708.942694 507.3216 
L 709.29668 618.326304 
L 709.650666 645.646992 
L 710.004652 648 
L 718.146331 648 
L 718.500317 628.816608 
L 718.854303 599.64624 
L 719.208289 510.15648 
L 719.562275 618.294912 
L 719.916261 645.604531 
L 720.270247 648 
L 741.50941 648 
L 741.863396 613.251456 
L 742.217382 477.8592 
L 742.571368 622.263264 
L 742.925354 642.134794 
L 743.27934 647.976407 
L 745.04927 648 
L 746.111229 648 
L 746.819201 606.04224 
L 747.173187 503.92128 
L 747.527173 618.794304 
L 747.881159 645.535325 
L 748.235145 648 
L 778.677945 648 
L 779.031931 628.766976 
L 779.385917 509.09856 
L 779.739903 601.120032 
L 780.093889 618.066816 
L 780.447875 645.728784 
L 780.801861 648 
L 784.695707 647.995281 
L 785.049693 646.907645 
L 785.403679 648 
L 785.757665 648 
L 786.111652 628.688352 
L 786.465638 510.54816 
L 786.819624 599.728032 
L 787.17361 616.58832 
L 787.527596 646.939891 
L 787.881582 648 
L 789.651512 648 
L 790.005498 647.086953 
L 790.359484 648 
L 802.041023 648 
L 802.39501 647.01696 
L 802.748996 647.991349 
L 807.350814 648 
L 814.784521 648 
L 815.138507 647.097963 
L 815.492493 647.990563 
L 819.740326 648 
L 828.235991 648 
L 828.589977 647.108972 
L 828.943963 648 
L 844.519349 648 
L 844.873335 647.084593 
L 845.227321 648 
L 849.829139 648 
L 850.183125 617.007456 
L 850.537111 471.39456 
L 850.891097 622.179072 
L 851.245084 641.930314 
L 851.59907 647.973261 
L 853.369 648 
L 853.722986 647.087739 
L 854.076972 648 
L 881.687883 648 
L 882.041869 613.217664 
L 882.395855 477.50592 
L 882.749841 646.477469 
L 883.103827 616.177056 
L 883.457813 647.970116 
L 884.873758 648 
L 885.227744 648 
L 885.58173 627.275904 
L 885.935716 633.275616 
L 886.289702 595.531584 
L 886.643688 511.46016 
L 886.997674 618.12816 
L 887.35166 645.349728 
L 887.705646 648 
L 888.413618 648 
L 888.767604 647.075156 
L 889.12159 648 
L 889.475576 647.07437 
L 889.829562 648 
L 891.953479 648 
L 892.661451 604.231872 
L 893.015437 505.75104 
L 893.369423 618.198912 
L 893.723409 645.209741 
L 894.077395 648 
L 895.493339 648 
L 895.847325 647.04999 
L 896.201311 617.900928 
L 896.555297 473.0256 
L 896.909283 622.404768 
L 897.263269 641.651923 
L 897.617255 647.973261 
L 899.387185 648 
L 899.741171 647.366136 
L 900.095158 603.509184 
L 900.449144 488.28384 
L 900.80313 618.951552 
L 901.157116 644.987962 
L 901.511102 647.975621 
L 903.281032 648 
L 903.635018 628.73952 
L 903.989004 504.43488 
L 904.34299 605.627808 
L 904.696976 618.47184 
L 905.050962 645.341069 
L 905.404948 648 
L 905.758934 648 
L 906.11292 647.058641 
L 906.466906 648 
L 907.174878 648 
L 907.528864 628.671072 
L 907.88285 463.19712 
L 908.236837 647.149081 
L 908.590823 615.539232 
L 908.944809 647.955173 
L 910.006767 648 
L 914.254599 648 
L 914.608585 628.699392 
L 914.962571 599.547168 
L 915.316557 510.74976 
L 915.670543 618.657408 
L 916.024529 645.203443 
L 916.378516 648 
L 918.148446 648 
L 918.502432 628.598688 
L 918.856418 463.21632 
L 919.210404 647.16009 
L 919.56439 615.933984 
L 919.918376 647.930794 
L 920.626348 648 
L 921.688306 648 
L 922.042292 628.792224 
L 922.396278 599.556576 
L 922.750264 510.86208 
L 923.10425 618.225696 
L 923.458236 645.175133 
L 923.812222 648 
L 926.290125 648 
L 926.644111 628.752864 
L 926.998097 508.81152 
L 927.352083 601.36848 
L 927.706069 618.550464 
L 928.060055 645.237264 
L 928.414041 648 
L 1005.229012 648 
L 1005.582999 628.000992 
L 1005.936985 484.93344 
L 1006.290971 623.622144 
L 1006.644957 618.151008 
L 1006.998943 645.142109 
L 1007.352929 648 
L 1146.469444 648 
L 1146.82343 645.689462 
L 1147.177416 645.76417 
L 1147.531402 648 
L 1167.000634 648 
L 1167.35462 628.27632 
L 1167.708606 598.93056 
L 1168.062593 509.25024 
L 1168.416579 618.236736 
L 1168.770565 645.823939 
L 1169.124551 648 
L 1178.682174 648 
L 1179.03616 628.808736 
L 1179.390146 491.94432 
L 1179.744132 618.259488 
L 1180.098118 616.143168 
L 1180.452104 647.959892 
L 1181.514062 648 
L 1182.930006 648 
L 1183.637978 605.975424 
L 1183.991964 503.80992 
L 1184.345951 618.87216 
L 1184.699937 645.573072 
L 1185.053923 648 
L 1186.823853 648 
L 1187.177839 628.664736 
L 1187.531825 463.2576 
L 1187.885811 647.147508 
L 1188.239797 616.82112 
L 1188.593783 647.060214 
L 1188.947769 648 
L 1192.841616 648 
L 1193.195602 532.824 
L 1193.549588 609.328032 
L 1193.903574 497.66688 
L 1194.25756 501.48576 
L 1194.611546 628.9392 
L 1194.965532 520.34592 
L 1195.319518 588.90672 
L 1195.673504 628.97856 
L 1196.735462 461.33952 
L 1197.089448 648 
L 1200.629309 647.993709 
L 1200.983295 507.27072 
L 1201.337281 497.424 
L 1201.691267 647.970116 
L 1202.045253 624.613056 
L 1202.399239 647.91192 
L 1202.753225 238.04928 
L 1203.107211 599.406336 
L 1203.461197 604.06992 
L 1203.815183 231.47136 
L 1204.169169 613.013952 
L 1204.523155 645.619469 
L 1204.877141 647.996854 
L 1205.231127 647.906415 
L 1205.939099 648 
L 1206.647071 648 
L 1207.001057 646.78968 
L 1207.355043 600.015072 
L 1207.709029 216.97248 
L 1208.063015 613.960032 
L 1208.417001 644.748106 
L 1208.770988 647.979553 
L 1210.894904 648 
L 1216.55868 648 
L 1216.912667 628.822848 
L 1217.266653 599.218368 
L 1217.620639 237.22656 
L 1217.974625 613.076928 
L 1218.328611 645.573072 
L 1218.682597 648 
L 1220.452527 648 
L 1220.806513 628.845696 
L 1221.160499 531.07776 
L 1221.514485 305.1792 
L 1221.868471 613.120992 
L 1222.222457 645.529814 
L 1222.576443 648 
L 1247.355466 648 
L 1247.709452 646.879334 
L 1248.063438 647.990563 
L 1252.311271 648 
L 1293.373652 648 
L 1293.727638 624.842688 
L 1294.081624 647.377146 
L 1294.43561 648 
L 1294.789596 646.34928 
L 1295.143582 648 
L 1302.577289 648 
L 1302.931275 602.20368 
L 1303.285261 212.89056 
L 1303.639247 614.460288 
L 1303.993233 643.599917 
L 1304.347219 647.974048 
L 1306.117149 648 
L 1344.347642 648 
L 1344.701628 628.76544 
L 1345.055614 510.61536 
L 1345.4096 325.02624 
L 1345.763586 613.457568 
L 1346.117572 645.476342 
L 1346.471558 648 
L 1388.949884 648 
L 1389.30387 628.764672 
L 1389.657856 510.24096 
L 1390.011842 325.71648 
L 1390.365828 613.457568 
L 1390.719814 645.419712 
L 1391.0738 648 
L 1394.61366 648 
L 1394.967646 646.87776 
L 1395.321632 647.991349 
L 1399.923451 648 
L 1401.693381 648 
L 1402.047367 602.925696 
L 1402.401353 214.39296 
L 1402.755339 613.822464 
L 1403.109325 644.254224 
L 1403.463311 647.972475 
L 1404.52527 648 
L 1404.879256 646.519939 
L 1405.233242 647.928435 
L 1405.587228 645.568349 
L 1405.941214 600.405888 
L 1406.2952 215.40672 
L 1406.649186 612.689184 
L 1407.003172 644.330506 
L 1407.357158 647.974048 
L 1407.711144 646.746432 
L 1408.06513 647.991349 
L 1411.958977 648 
L 1412.312963 615.608448 
L 1412.666949 297.5568 
L 1413.020935 548.67936 
L 1413.374921 613.609344 
L 1413.728907 647.963038 
L 1414.436879 648 
L 1414.790865 646.841587 
L 1415.144851 648 
L 1415.498837 648 
L 1416.206809 603.932256 
L 1416.560795 232.1088 
L 1416.914781 612.914112 
L 1417.268767 645.27265 
L 1417.622753 648 
L 1419.392683 648 
L 1419.746669 628.74576 
L 1420.100656 393.8304 
L 1420.454642 441.8208 
L 1420.808628 612.929088 
L 1421.162614 645.38039 
L 1421.5166 648 
L 1428.596321 648 
L 1428.950307 628.757568 
L 1429.304293 504.77376 
L 1429.658279 331.24992 
L 1430.012265 613.447296 
L 1430.366251 645.216816 
L 1430.720237 648 
L 1441.339818 648 
L 1441.693804 646.873834 
L 1442.04779 647.983485 
L 1444.525693 648 
L 1484.526115 648 
L 1484.880101 607.444512 
L 1485.234088 210.504 
L 1485.588074 614.014368 
L 1485.94206 643.463856 
L 1486.296046 647.976407 
L 1488.065976 648 
L 1494.437725 648 
L 1494.791711 602.98224 
L 1495.145697 215.11008 
L 1495.499683 613.944384 
L 1495.853669 643.455994 
L 1496.207655 647.980339 
L 1498.331571 648 
L 1516.030873 648 
L 1516.384859 628.216512 
L 1516.738845 598.741056 
L 1517.092831 234.5952 
L 1517.446818 612.789888 
L 1517.800804 644.981674 
L 1518.15479 647.992922 
L 1523.46458 648 
L 1523.818566 602.918592 
L 1524.172552 214.15968 
L 1524.526538 616.089696 
L 1524.880524 641.806848 
L 1525.23451 647.978766 
L 1527.358427 648 
L 1527.712413 607.480704 
L 1528.066399 210.25728 
L 1528.420385 615.882912 
L 1528.774371 641.804486 
L 1529.128357 647.97798 
L 1531.252273 648 
L 1541.517868 648 
L 1541.871854 613.283712 
L 1542.225841 300.96096 
L 1542.579827 546.624 
L 1542.933813 614.4288 
L 1543.287799 646.784179 
L 1543.641785 648 
L 1556.385282 648 
L 1556.739268 628.818144 
L 1557.093254 599.20896 
L 1557.44724 236.79648 
L 1557.801226 613.06752 
L 1558.155213 645.015494 
L 1558.509199 647.992136 
L 1563.818989 648 
L 1567.35885 648 
L 1567.712836 603.244128 
L 1568.066822 214.64064 
L 1568.420808 613.952256 
L 1568.774794 643.231075 
L 1569.12878 647.97798 
L 1571.252696 648 
L 1588.598012 648 
L 1588.951998 628.780416 
L 1589.65997 347.19648 
L 1590.013956 613.43712 
L 1590.367942 644.910106 
L 1590.721929 648 
L 1592.491859 648 
L 1592.845845 628.818144 
L 1593.199831 599.206656 
L 1593.553817 236.99616 
L 1593.907803 613.018752 
L 1594.261789 644.922691 
L 1594.615775 647.97798 
L 1596.739691 648 
L 1598.509621 648 
L 1598.863608 602.983872 
L 1599.217594 268.44192 
L 1599.57158 561.477504 
L 1599.925566 641.606304 
L 1600.279552 647.976407 
L 1602.049482 648 
L 1602.403468 647.075156 
L 1602.757454 603.901632 
L 1603.11144 214.24224 
L 1603.465426 613.84368 
L 1603.819412 643.968749 
L 1604.173398 647.977193 
L 1605.943328 648 
L 1614.085007 648 
L 1614.438993 628.77408 
L 1614.792979 510.02208 
L 1615.146966 326.12544 
L 1615.500952 613.32384 
L 1615.854938 644.838547 
L 1616.208924 648 
L 1617.978854 648 
L 1618.33284 628.7592 
L 1618.686826 596.774976 
L 1619.040812 237.76416 
L 1619.394798 612.958944 
L 1619.748784 643.820112 
L 1620.10277 647.946523 
L 1621.164728 648 
L 1621.8727 648 
L 1622.226686 646.759795 
L 1622.580672 600.55296 
L 1622.934658 215.91264 
L 1623.288645 613.32384 
L 1623.642631 643.874381 
L 1623.996617 647.975621 
L 1625.766547 648 
L 1626.120533 646.813277 
L 1626.474519 604.140672 
L 1626.828505 213.1008 
L 1627.182491 613.923936 
L 1627.536477 643.873594 
L 1627.890463 647.978766 
L 1630.014379 648 
L 1721.342779 648 
L 1721.696765 647.691325 
L 1722.050751 647.931187 
L 1722.758723 648 
L 1724.882639 648 
L 1725.236625 646.145002 
L 1725.590611 615.625536 
L 1725.944597 200.00064 
L 1726.298583 644.125843 
L 1726.652569 645.669216 
L 1727.006555 647.958712 
L 1728.068513 648 
L 1819.750899 648 
L 1820.104885 645.3684 
L 1820.458871 647.992136 
L 1825.768661 648 
L 1826.476634 648 
L 1826.83062 645.386093 
L 1827.184606 647.937085 
L 1827.892578 648 
L 1832.14041 648 
L 1832.494396 647.565496 
L 1832.848382 647.541903 
L 1833.202368 648 
L 1860.105308 648 
L 1860.459294 646.193174 
L 1860.81328 644.968301 
L 1861.167266 648 
L 1862.937196 648 
L 1863.291182 618.531456 
L 1863.645168 122.44128 
L 1863.999154 606.269952 
L 1864.35314 644.499398 
L 1864.707126 647.97739 
L 1866.477056 648 
L 1866.831042 624.035424 
L 1867.185029 476.23584 
L 1867.539015 477.88032 
L 1867.893001 606.500928 
L 1868.246987 647.953797 
L 1869.308945 648 
L 1906.831465 648 
L 1907.185451 646.543133 
L 1907.539438 648 
L 1911.079298 648 
L 1911.433284 615.364032 
L 1911.78727 126.01536 
L 1912.141256 606.525504 
L 1912.495242 644.638982 
L 1912.849228 647.99017 
L 1914.973144 648 
L 1915.32713 623.91744 
L 1915.681117 587.059392 
L 1916.035103 269.448 
L 1916.389089 604.292064 
L 1916.743075 644.766778 
L 1917.097061 648 
L 1925.946712 648 
L 1926.300698 646.498896 
L 1926.654684 648 
L 1928.7786 648 
L 1929.132586 623.939136 
L 1929.486572 376.87008 
L 1929.840558 554.717376 
L 1930.194544 641.74393 
L 1930.54853 647.965594 
L 1931.964474 648 
L 1944 648 
L 1944 648 
" style="fill:none;stroke:#0000ff;stroke-linecap:square;"/>
   </g>
   <g id="line2d_2">
    <defs>
     <path d="M 0 3 
C 0.795609 3 1.55874 2.683901 2.12132 2.12132 
C 2.683901 1.55874 3 0.795609 3 0 
C 3 -0.795609 2.683901 -1.55874 2.12132 -2.12132 
C 1.55874 -2.683901 0.795609 -3 0 -3 
C -0.795609 -3 -1.55874 -2.683901 -2.12132 -2.12132 
C -2.683901 -1.55874 -3 -0.795609 -3 0 
C -3 0.795609 -2.683901 1.55874 -2.12132 2.12132 
C -1.55874 2.683901 -0.795609 3 0 3 
z
" id="mac2786c170" style="stroke:#000000;stroke-width:0.5;"/>
    </defs>
    <g clip-path="url(#paf9babe2a0)">
     <use style="fill:#ff0000;stroke:#000000;stroke-width:0.5;" x="472.834002942" xlink:href="#mac2786c170" y="509.44128"/>
     <use style="fill:#ff0000;stroke:#000000;stroke-width:0.5;" x="1193.90357369" xlink:href="#mac2786c170" y="497.66688"/>
     <use style="fill:#ff0000;stroke:#000000;stroke-width:0.5;" x="1194.25755973" xlink:href="#mac2786c170" y="501.48576"/>
     <use style="fill:#ff0000;stroke:#000000;stroke-width:0.5;" x="1196.73546202" xlink:href="#mac2786c170" y="461.33952"/>
     <use style="fill:#ff0000;stroke:#000000;stroke-width:0.5;" x="1202.75322478" xlink:href="#mac2786c170" y="238.04928"/>
     <use style="fill:#ff0000;stroke:#000000;stroke-width:0.5;" x="1412.6669486" xlink:href="#mac2786c170" y="297.5568"/>
     <use style="fill:#ff0000;stroke:#000000;stroke-width:0.5;" x="1420.10065553" xlink:href="#mac2786c170" y="393.8304"/>
     <use style="fill:#ff0000;stroke:#000000;stroke-width:0.5;" x="1420.45464157" xlink:href="#mac2786c170" y="441.8208"/>
     <use style="fill:#ff0000;stroke:#000000;stroke-width:0.5;" x="1589.65997039" xlink:href="#mac2786c170" y="347.19648"/>
     <use style="fill:#ff0000;stroke:#000000;stroke-width:0.5;" x="1863.6451681" xlink:href="#mac2786c170" y="122.44128"/>
    </g>
   </g>
   <g id="patch_3">
    <path d="M 270 72 
L 1944 72 
" style="fill:none;stroke:#000000;stroke-linecap:square;stroke-linejoin:miter;"/>
   </g>
   <g id="patch_4">
    <path d="M 1944 648 
L 1944 72 
" style="fill:none;stroke:#000000;stroke-linecap:square;stroke-linejoin:miter;"/>
   </g>
   <g id="patch_5">
    <path d="M 270 648 
L 1944 648 
" style="fill:none;stroke:#000000;stroke-linecap:square;stroke-linejoin:miter;"/>
   </g>
   <g id="patch_6">
    <path d="M 270 648 
L 270 72 
" style="fill:none;stroke:#000000;stroke-linecap:square;stroke-linejoin:miter;"/>
   </g>
   <g id="matplotlib.axis_1">
    <g id="xtick_1">
     <g id="line2d_3">
      <defs>
       <path d="M 0 0 
L 0 -4 
" id="m5e76774967" style="stroke:#000000;stroke-width:0.5;"/>
      </defs>
      <g>
       <use style="stroke:#000000;stroke-width:0.5;" x="399.275703102" xlink:href="#m5e76774967" y="648.0"/>
      </g>
     </g>
     <g id="line2d_4">
      <defs>
       <path d="M 0 0 
L 0 4 
" id="m24b011d19f" style="stroke:#000000;stroke-width:0.5;"/>
      </defs>
      <g>
       <use style="stroke:#000000;stroke-width:0.5;" x="399.275703102" xlink:href="#m24b011d19f" y="72.0"/>
      </g>
     </g>
     <g id="text_1">
      <!-- Mar 03 2014 -->
      <defs>
       <path d="M 19.1875 8.296875 
L 53.609375 8.296875 
L 53.609375 0 
L 7.328125 0 
L 7.328125 8.296875 
Q 12.9375 14.109375 22.625 23.890625 
Q 32.328125 33.6875 34.8125 36.53125 
Q 39.546875 41.84375 41.421875 45.53125 
Q 43.3125 49.21875 43.3125 52.78125 
Q 43.3125 58.59375 39.234375 62.25 
Q 35.15625 65.921875 28.609375 65.921875 
Q 23.96875 65.921875 18.8125 64.3125 
Q 13.671875 62.703125 7.8125 59.421875 
L 7.8125 69.390625 
Q 13.765625 71.78125 18.9375 73 
Q 24.125 74.21875 28.421875 74.21875 
Q 39.75 74.21875 46.484375 68.546875 
Q 53.21875 62.890625 53.21875 53.421875 
Q 53.21875 48.921875 51.53125 44.890625 
Q 49.859375 40.875 45.40625 35.40625 
Q 44.1875 33.984375 37.640625 27.21875 
Q 31.109375 20.453125 19.1875 8.296875 
" id="BitstreamVeraSans-Roman-32"/>
       <path d="M 40.578125 39.3125 
Q 47.65625 37.796875 51.625 33 
Q 55.609375 28.21875 55.609375 21.1875 
Q 55.609375 10.40625 48.1875 4.484375 
Q 40.765625 -1.421875 27.09375 -1.421875 
Q 22.515625 -1.421875 17.65625 -0.515625 
Q 12.796875 0.390625 7.625 2.203125 
L 7.625 11.71875 
Q 11.71875 9.328125 16.59375 8.109375 
Q 21.484375 6.890625 26.8125 6.890625 
Q 36.078125 6.890625 40.9375 10.546875 
Q 45.796875 14.203125 45.796875 21.1875 
Q 45.796875 27.640625 41.28125 31.265625 
Q 36.765625 34.90625 28.71875 34.90625 
L 20.21875 34.90625 
L 20.21875 43.015625 
L 29.109375 43.015625 
Q 36.375 43.015625 40.234375 45.921875 
Q 44.09375 48.828125 44.09375 54.296875 
Q 44.09375 59.90625 40.109375 62.90625 
Q 36.140625 65.921875 28.71875 65.921875 
Q 24.65625 65.921875 20.015625 65.03125 
Q 15.375 64.15625 9.8125 62.3125 
L 9.8125 71.09375 
Q 15.4375 72.65625 20.34375 73.4375 
Q 25.25 74.21875 29.59375 74.21875 
Q 40.828125 74.21875 47.359375 69.109375 
Q 53.90625 64.015625 53.90625 55.328125 
Q 53.90625 49.265625 50.4375 45.09375 
Q 46.96875 40.921875 40.578125 39.3125 
" id="BitstreamVeraSans-Roman-33"/>
       <path d="M 31.78125 66.40625 
Q 24.171875 66.40625 20.328125 58.90625 
Q 16.5 51.421875 16.5 36.375 
Q 16.5 21.390625 20.328125 13.890625 
Q 24.171875 6.390625 31.78125 6.390625 
Q 39.453125 6.390625 43.28125 13.890625 
Q 47.125 21.390625 47.125 36.375 
Q 47.125 51.421875 43.28125 58.90625 
Q 39.453125 66.40625 31.78125 66.40625 
M 31.78125 74.21875 
Q 44.046875 74.21875 50.515625 64.515625 
Q 56.984375 54.828125 56.984375 36.375 
Q 56.984375 17.96875 50.515625 8.265625 
Q 44.046875 -1.421875 31.78125 -1.421875 
Q 19.53125 -1.421875 13.0625 8.265625 
Q 6.59375 17.96875 6.59375 36.375 
Q 6.59375 54.828125 13.0625 64.515625 
Q 19.53125 74.21875 31.78125 74.21875 
" id="BitstreamVeraSans-Roman-30"/>
       <path d="M 9.8125 72.90625 
L 24.515625 72.90625 
L 43.109375 23.296875 
L 61.8125 72.90625 
L 76.515625 72.90625 
L 76.515625 0 
L 66.890625 0 
L 66.890625 64.015625 
L 48.09375 14.015625 
L 38.1875 14.015625 
L 19.390625 64.015625 
L 19.390625 0 
L 9.8125 0 
z
" id="BitstreamVeraSans-Roman-4d"/>
       <path d="M 37.796875 64.3125 
L 12.890625 25.390625 
L 37.796875 25.390625 
z
M 35.203125 72.90625 
L 47.609375 72.90625 
L 47.609375 25.390625 
L 58.015625 25.390625 
L 58.015625 17.1875 
L 47.609375 17.1875 
L 47.609375 0 
L 37.796875 0 
L 37.796875 17.1875 
L 4.890625 17.1875 
L 4.890625 26.703125 
z
" id="BitstreamVeraSans-Roman-34"/>
       <path id="BitstreamVeraSans-Roman-20"/>
       <path d="M 34.28125 27.484375 
Q 23.390625 27.484375 19.1875 25 
Q 14.984375 22.515625 14.984375 16.5 
Q 14.984375 11.71875 18.140625 8.90625 
Q 21.296875 6.109375 26.703125 6.109375 
Q 34.1875 6.109375 38.703125 11.40625 
Q 43.21875 16.703125 43.21875 25.484375 
L 43.21875 27.484375 
z
M 52.203125 31.203125 
L 52.203125 0 
L 43.21875 0 
L 43.21875 8.296875 
Q 40.140625 3.328125 35.546875 0.953125 
Q 30.953125 -1.421875 24.3125 -1.421875 
Q 15.921875 -1.421875 10.953125 3.296875 
Q 6 8.015625 6 15.921875 
Q 6 25.140625 12.171875 29.828125 
Q 18.359375 34.515625 30.609375 34.515625 
L 43.21875 34.515625 
L 43.21875 35.40625 
Q 43.21875 41.609375 39.140625 45 
Q 35.0625 48.390625 27.6875 48.390625 
Q 23 48.390625 18.546875 47.265625 
Q 14.109375 46.140625 10.015625 43.890625 
L 10.015625 52.203125 
Q 14.9375 54.109375 19.578125 55.046875 
Q 24.21875 56 28.609375 56 
Q 40.484375 56 46.34375 49.84375 
Q 52.203125 43.703125 52.203125 31.203125 
" id="BitstreamVeraSans-Roman-61"/>
       <path d="M 12.40625 8.296875 
L 28.515625 8.296875 
L 28.515625 63.921875 
L 10.984375 60.40625 
L 10.984375 69.390625 
L 28.421875 72.90625 
L 38.28125 72.90625 
L 38.28125 8.296875 
L 54.390625 8.296875 
L 54.390625 0 
L 12.40625 0 
z
" id="BitstreamVeraSans-Roman-31"/>
       <path d="M 41.109375 46.296875 
Q 39.59375 47.171875 37.8125 47.578125 
Q 36.03125 48 33.890625 48 
Q 26.265625 48 22.1875 43.046875 
Q 18.109375 38.09375 18.109375 28.8125 
L 18.109375 0 
L 9.078125 0 
L 9.078125 54.6875 
L 18.109375 54.6875 
L 18.109375 46.1875 
Q 20.953125 51.171875 25.484375 53.578125 
Q 30.03125 56 36.53125 56 
Q 37.453125 56 38.578125 55.875 
Q 39.703125 55.765625 41.0625 55.515625 
z
" id="BitstreamVeraSans-Roman-72"/>
      </defs>
      <g transform="translate(361.236640602 661.118125)scale(0.12 -0.12)">
       <use xlink:href="#BitstreamVeraSans-Roman-4d"/>
       <use x="86.279296875" xlink:href="#BitstreamVeraSans-Roman-61"/>
       <use x="147.55859375" xlink:href="#BitstreamVeraSans-Roman-72"/>
       <use x="188.671875" xlink:href="#BitstreamVeraSans-Roman-20"/>
       <use x="220.458984375" xlink:href="#BitstreamVeraSans-Roman-30"/>
       <use x="284.08203125" xlink:href="#BitstreamVeraSans-Roman-33"/>
       <use x="347.705078125" xlink:href="#BitstreamVeraSans-Roman-20"/>
       <use x="379.4921875" xlink:href="#BitstreamVeraSans-Roman-32"/>
       <use x="443.115234375" xlink:href="#BitstreamVeraSans-Roman-30"/>
       <use x="506.73828125" xlink:href="#BitstreamVeraSans-Roman-31"/>
       <use x="570.361328125" xlink:href="#BitstreamVeraSans-Roman-34"/>
      </g>
     </g>
    </g>
    <g id="xtick_2">
     <g id="line2d_5">
      <g>
       <use style="stroke:#000000;stroke-width:0.5;" x="603.171664193" xlink:href="#m5e76774967" y="648.0"/>
      </g>
     </g>
     <g id="line2d_6">
      <g>
       <use style="stroke:#000000;stroke-width:0.5;" x="603.171664193" xlink:href="#m24b011d19f" y="72.0"/>
      </g>
     </g>
     <g id="text_2">
      <!-- Mar 05 2014 -->
      <defs>
       <path d="M 10.796875 72.90625 
L 49.515625 72.90625 
L 49.515625 64.59375 
L 19.828125 64.59375 
L 19.828125 46.734375 
Q 21.96875 47.46875 24.109375 47.828125 
Q 26.265625 48.1875 28.421875 48.1875 
Q 40.625 48.1875 47.75 41.5 
Q 54.890625 34.8125 54.890625 23.390625 
Q 54.890625 11.625 47.5625 5.09375 
Q 40.234375 -1.421875 26.90625 -1.421875 
Q 22.3125 -1.421875 17.546875 -0.640625 
Q 12.796875 0.140625 7.71875 1.703125 
L 7.71875 11.625 
Q 12.109375 9.234375 16.796875 8.0625 
Q 21.484375 6.890625 26.703125 6.890625 
Q 35.15625 6.890625 40.078125 11.328125 
Q 45.015625 15.765625 45.015625 23.390625 
Q 45.015625 31 40.078125 35.4375 
Q 35.15625 39.890625 26.703125 39.890625 
Q 22.75 39.890625 18.8125 39.015625 
Q 14.890625 38.140625 10.796875 36.28125 
z
" id="BitstreamVeraSans-Roman-35"/>
      </defs>
      <g transform="translate(565.132601693 661.118125)scale(0.12 -0.12)">
       <use xlink:href="#BitstreamVeraSans-Roman-4d"/>
       <use x="86.279296875" xlink:href="#BitstreamVeraSans-Roman-61"/>
       <use x="147.55859375" xlink:href="#BitstreamVeraSans-Roman-72"/>
       <use x="188.671875" xlink:href="#BitstreamVeraSans-Roman-20"/>
       <use x="220.458984375" xlink:href="#BitstreamVeraSans-Roman-30"/>
       <use x="284.08203125" xlink:href="#BitstreamVeraSans-Roman-35"/>
       <use x="347.705078125" xlink:href="#BitstreamVeraSans-Roman-20"/>
       <use x="379.4921875" xlink:href="#BitstreamVeraSans-Roman-32"/>
       <use x="443.115234375" xlink:href="#BitstreamVeraSans-Roman-30"/>
       <use x="506.73828125" xlink:href="#BitstreamVeraSans-Roman-31"/>
       <use x="570.361328125" xlink:href="#BitstreamVeraSans-Roman-34"/>
      </g>
     </g>
    </g>
    <g id="xtick_3">
     <g id="line2d_7">
      <g>
       <use style="stroke:#000000;stroke-width:0.5;" x="807.067625284" xlink:href="#m5e76774967" y="648.0"/>
      </g>
     </g>
     <g id="line2d_8">
      <g>
       <use style="stroke:#000000;stroke-width:0.5;" x="807.067625284" xlink:href="#m24b011d19f" y="72.0"/>
      </g>
     </g>
     <g id="text_3">
      <!-- Mar 07 2014 -->
      <defs>
       <path d="M 8.203125 72.90625 
L 55.078125 72.90625 
L 55.078125 68.703125 
L 28.609375 0 
L 18.3125 0 
L 43.21875 64.59375 
L 8.203125 64.59375 
z
" id="BitstreamVeraSans-Roman-37"/>
      </defs>
      <g transform="translate(769.028562784 661.118125)scale(0.12 -0.12)">
       <use xlink:href="#BitstreamVeraSans-Roman-4d"/>
       <use x="86.279296875" xlink:href="#BitstreamVeraSans-Roman-61"/>
       <use x="147.55859375" xlink:href="#BitstreamVeraSans-Roman-72"/>
       <use x="188.671875" xlink:href="#BitstreamVeraSans-Roman-20"/>
       <use x="220.458984375" xlink:href="#BitstreamVeraSans-Roman-30"/>
       <use x="284.08203125" xlink:href="#BitstreamVeraSans-Roman-37"/>
       <use x="347.705078125" xlink:href="#BitstreamVeraSans-Roman-20"/>
       <use x="379.4921875" xlink:href="#BitstreamVeraSans-Roman-32"/>
       <use x="443.115234375" xlink:href="#BitstreamVeraSans-Roman-30"/>
       <use x="506.73828125" xlink:href="#BitstreamVeraSans-Roman-31"/>
       <use x="570.361328125" xlink:href="#BitstreamVeraSans-Roman-34"/>
      </g>
     </g>
    </g>
    <g id="xtick_4">
     <g id="line2d_9">
      <g>
       <use style="stroke:#000000;stroke-width:0.5;" x="1010.96358638" xlink:href="#m5e76774967" y="648.0"/>
      </g>
     </g>
     <g id="line2d_10">
      <g>
       <use style="stroke:#000000;stroke-width:0.5;" x="1010.96358638" xlink:href="#m24b011d19f" y="72.0"/>
      </g>
     </g>
     <g id="text_4">
      <!-- Mar 09 2014 -->
      <defs>
       <path d="M 10.984375 1.515625 
L 10.984375 10.5 
Q 14.703125 8.734375 18.5 7.8125 
Q 22.3125 6.890625 25.984375 6.890625 
Q 35.75 6.890625 40.890625 13.453125 
Q 46.046875 20.015625 46.78125 33.40625 
Q 43.953125 29.203125 39.59375 26.953125 
Q 35.25 24.703125 29.984375 24.703125 
Q 19.046875 24.703125 12.671875 31.3125 
Q 6.296875 37.9375 6.296875 49.421875 
Q 6.296875 60.640625 12.9375 67.421875 
Q 19.578125 74.21875 30.609375 74.21875 
Q 43.265625 74.21875 49.921875 64.515625 
Q 56.59375 54.828125 56.59375 36.375 
Q 56.59375 19.140625 48.40625 8.859375 
Q 40.234375 -1.421875 26.421875 -1.421875 
Q 22.703125 -1.421875 18.890625 -0.6875 
Q 15.09375 0.046875 10.984375 1.515625 
M 30.609375 32.421875 
Q 37.25 32.421875 41.125 36.953125 
Q 45.015625 41.5 45.015625 49.421875 
Q 45.015625 57.28125 41.125 61.84375 
Q 37.25 66.40625 30.609375 66.40625 
Q 23.96875 66.40625 20.09375 61.84375 
Q 16.21875 57.28125 16.21875 49.421875 
Q 16.21875 41.5 20.09375 36.953125 
Q 23.96875 32.421875 30.609375 32.421875 
" id="BitstreamVeraSans-Roman-39"/>
      </defs>
      <g transform="translate(972.924523875 661.118125)scale(0.12 -0.12)">
       <use xlink:href="#BitstreamVeraSans-Roman-4d"/>
       <use x="86.279296875" xlink:href="#BitstreamVeraSans-Roman-61"/>
       <use x="147.55859375" xlink:href="#BitstreamVeraSans-Roman-72"/>
       <use x="188.671875" xlink:href="#BitstreamVeraSans-Roman-20"/>
       <use x="220.458984375" xlink:href="#BitstreamVeraSans-Roman-30"/>
       <use x="284.08203125" xlink:href="#BitstreamVeraSans-Roman-39"/>
       <use x="347.705078125" xlink:href="#BitstreamVeraSans-Roman-20"/>
       <use x="379.4921875" xlink:href="#BitstreamVeraSans-Roman-32"/>
       <use x="443.115234375" xlink:href="#BitstreamVeraSans-Roman-30"/>
       <use x="506.73828125" xlink:href="#BitstreamVeraSans-Roman-31"/>
       <use x="570.361328125" xlink:href="#BitstreamVeraSans-Roman-34"/>
      </g>
     </g>
    </g>
    <g id="xtick_5">
     <g id="line2d_11">
      <g>
       <use style="stroke:#000000;stroke-width:0.5;" x="1214.85954747" xlink:href="#m5e76774967" y="648.0"/>
      </g>
     </g>
     <g id="line2d_12">
      <g>
       <use style="stroke:#000000;stroke-width:0.5;" x="1214.85954747" xlink:href="#m24b011d19f" y="72.0"/>
      </g>
     </g>
     <g id="text_5">
      <!-- Mar 11 2014 -->
      <g transform="translate(1176.82048497 661.118125)scale(0.12 -0.12)">
       <use xlink:href="#BitstreamVeraSans-Roman-4d"/>
       <use x="86.279296875" xlink:href="#BitstreamVeraSans-Roman-61"/>
       <use x="147.55859375" xlink:href="#BitstreamVeraSans-Roman-72"/>
       <use x="188.671875" xlink:href="#BitstreamVeraSans-Roman-20"/>
       <use x="220.458984375" xlink:href="#BitstreamVeraSans-Roman-31"/>
       <use x="284.08203125" xlink:href="#BitstreamVeraSans-Roman-31"/>
       <use x="347.705078125" xlink:href="#BitstreamVeraSans-Roman-20"/>
       <use x="379.4921875" xlink:href="#BitstreamVeraSans-Roman-32"/>
       <use x="443.115234375" xlink:href="#BitstreamVeraSans-Roman-30"/>
       <use x="506.73828125" xlink:href="#BitstreamVeraSans-Roman-31"/>
       <use x="570.361328125" xlink:href="#BitstreamVeraSans-Roman-34"/>
      </g>
     </g>
    </g>
    <g id="xtick_6">
     <g id="line2d_13">
      <g>
       <use style="stroke:#000000;stroke-width:0.5;" x="1418.75550856" xlink:href="#m5e76774967" y="648.0"/>
      </g>
     </g>
     <g id="line2d_14">
      <g>
       <use style="stroke:#000000;stroke-width:0.5;" x="1418.75550856" xlink:href="#m24b011d19f" y="72.0"/>
      </g>
     </g>
     <g id="text_6">
      <!-- Mar 13 2014 -->
      <g transform="translate(1380.71644606 661.118125)scale(0.12 -0.12)">
       <use xlink:href="#BitstreamVeraSans-Roman-4d"/>
       <use x="86.279296875" xlink:href="#BitstreamVeraSans-Roman-61"/>
       <use x="147.55859375" xlink:href="#BitstreamVeraSans-Roman-72"/>
       <use x="188.671875" xlink:href="#BitstreamVeraSans-Roman-20"/>
       <use x="220.458984375" xlink:href="#BitstreamVeraSans-Roman-31"/>
       <use x="284.08203125" xlink:href="#BitstreamVeraSans-Roman-33"/>
       <use x="347.705078125" xlink:href="#BitstreamVeraSans-Roman-20"/>
       <use x="379.4921875" xlink:href="#BitstreamVeraSans-Roman-32"/>
       <use x="443.115234375" xlink:href="#BitstreamVeraSans-Roman-30"/>
       <use x="506.73828125" xlink:href="#BitstreamVeraSans-Roman-31"/>
       <use x="570.361328125" xlink:href="#BitstreamVeraSans-Roman-34"/>
      </g>
     </g>
    </g>
    <g id="xtick_7">
     <g id="line2d_15">
      <g>
       <use style="stroke:#000000;stroke-width:0.5;" x="1622.65146965" xlink:href="#m5e76774967" y="648.0"/>
      </g>
     </g>
     <g id="line2d_16">
      <g>
       <use style="stroke:#000000;stroke-width:0.5;" x="1622.65146965" xlink:href="#m24b011d19f" y="72.0"/>
      </g>
     </g>
     <g id="text_7">
      <!-- Mar 15 2014 -->
      <g transform="translate(1584.61240715 661.118125)scale(0.12 -0.12)">
       <use xlink:href="#BitstreamVeraSans-Roman-4d"/>
       <use x="86.279296875" xlink:href="#BitstreamVeraSans-Roman-61"/>
       <use x="147.55859375" xlink:href="#BitstreamVeraSans-Roman-72"/>
       <use x="188.671875" xlink:href="#BitstreamVeraSans-Roman-20"/>
       <use x="220.458984375" xlink:href="#BitstreamVeraSans-Roman-31"/>
       <use x="284.08203125" xlink:href="#BitstreamVeraSans-Roman-35"/>
       <use x="347.705078125" xlink:href="#BitstreamVeraSans-Roman-20"/>
       <use x="379.4921875" xlink:href="#BitstreamVeraSans-Roman-32"/>
       <use x="443.115234375" xlink:href="#BitstreamVeraSans-Roman-30"/>
       <use x="506.73828125" xlink:href="#BitstreamVeraSans-Roman-31"/>
       <use x="570.361328125" xlink:href="#BitstreamVeraSans-Roman-34"/>
      </g>
     </g>
    </g>
    <g id="xtick_8">
     <g id="line2d_17">
      <g>
       <use style="stroke:#000000;stroke-width:0.5;" x="1826.54743074" xlink:href="#m5e76774967" y="648.0"/>
      </g>
     </g>
     <g id="line2d_18">
      <g>
       <use style="stroke:#000000;stroke-width:0.5;" x="1826.54743074" xlink:href="#m24b011d19f" y="72.0"/>
      </g>
     </g>
     <g id="text_8">
      <!-- Mar 17 2014 -->
      <g transform="translate(1788.50836824 661.118125)scale(0.12 -0.12)">
       <use xlink:href="#BitstreamVeraSans-Roman-4d"/>
       <use x="86.279296875" xlink:href="#BitstreamVeraSans-Roman-61"/>
       <use x="147.55859375" xlink:href="#BitstreamVeraSans-Roman-72"/>
       <use x="188.671875" xlink:href="#BitstreamVeraSans-Roman-20"/>
       <use x="220.458984375" xlink:href="#BitstreamVeraSans-Roman-31"/>
       <use x="284.08203125" xlink:href="#BitstreamVeraSans-Roman-37"/>
       <use x="347.705078125" xlink:href="#BitstreamVeraSans-Roman-20"/>
       <use x="379.4921875" xlink:href="#BitstreamVeraSans-Roman-32"/>
       <use x="443.115234375" xlink:href="#BitstreamVeraSans-Roman-30"/>
       <use x="506.73828125" xlink:href="#BitstreamVeraSans-Roman-31"/>
       <use x="570.361328125" xlink:href="#BitstreamVeraSans-Roman-34"/>
      </g>
     </g>
    </g>
   </g>
   <g id="matplotlib.axis_2">
    <g id="ytick_1">
     <g id="line2d_19">
      <defs>
       <path d="M 0 0 
L 4 0 
" id="m755076f5e5" style="stroke:#000000;stroke-width:0.5;"/>
      </defs>
      <g>
       <use style="stroke:#000000;stroke-width:0.5;" x="270.0" xlink:href="#m755076f5e5" y="648.0"/>
      </g>
     </g>
     <g id="line2d_20">
      <defs>
       <path d="M 0 0 
L -4 0 
" id="m5e9d47ad24" style="stroke:#000000;stroke-width:0.5;"/>
      </defs>
      <g>
       <use style="stroke:#000000;stroke-width:0.5;" x="1944.0" xlink:href="#m5e9d47ad24" y="648.0"/>
      </g>
     </g>
     <g id="text_9">
      <!-- 0 -->
      <g transform="translate(258.365 651.31125)scale(0.12 -0.12)">
       <use xlink:href="#BitstreamVeraSans-Roman-30"/>
      </g>
     </g>
    </g>
    <g id="ytick_2">
     <g id="line2d_21">
      <g>
       <use style="stroke:#000000;stroke-width:0.5;" x="270.0" xlink:href="#m755076f5e5" y="552.0"/>
      </g>
     </g>
     <g id="line2d_22">
      <g>
       <use style="stroke:#000000;stroke-width:0.5;" x="1944.0" xlink:href="#m5e9d47ad24" y="552.0"/>
      </g>
     </g>
     <g id="text_10">
      <!-- 1 -->
      <g transform="translate(258.365 555.31125)scale(0.12 -0.12)">
       <use xlink:href="#BitstreamVeraSans-Roman-31"/>
      </g>
     </g>
    </g>
    <g id="ytick_3">
     <g id="line2d_23">
      <g>
       <use style="stroke:#000000;stroke-width:0.5;" x="270.0" xlink:href="#m755076f5e5" y="456.0"/>
      </g>
     </g>
     <g id="line2d_24">
      <g>
       <use style="stroke:#000000;stroke-width:0.5;" x="1944.0" xlink:href="#m5e9d47ad24" y="456.0"/>
      </g>
     </g>
     <g id="text_11">
      <!-- 2 -->
      <g transform="translate(258.365 459.31125)scale(0.12 -0.12)">
       <use xlink:href="#BitstreamVeraSans-Roman-32"/>
      </g>
     </g>
    </g>
    <g id="ytick_4">
     <g id="line2d_25">
      <g>
       <use style="stroke:#000000;stroke-width:0.5;" x="270.0" xlink:href="#m755076f5e5" y="360.0"/>
      </g>
     </g>
     <g id="line2d_26">
      <g>
       <use style="stroke:#000000;stroke-width:0.5;" x="1944.0" xlink:href="#m5e9d47ad24" y="360.0"/>
      </g>
     </g>
     <g id="text_12">
      <!-- 3 -->
      <g transform="translate(258.365 363.31125)scale(0.12 -0.12)">
       <use xlink:href="#BitstreamVeraSans-Roman-33"/>
      </g>
     </g>
    </g>
    <g id="ytick_5">
     <g id="line2d_27">
      <g>
       <use style="stroke:#000000;stroke-width:0.5;" x="270.0" xlink:href="#m755076f5e5" y="264.0"/>
      </g>
     </g>
     <g id="line2d_28">
      <g>
       <use style="stroke:#000000;stroke-width:0.5;" x="1944.0" xlink:href="#m5e9d47ad24" y="264.0"/>
      </g>
     </g>
     <g id="text_13">
      <!-- 4 -->
      <g transform="translate(258.365 267.31125)scale(0.12 -0.12)">
       <use xlink:href="#BitstreamVeraSans-Roman-34"/>
      </g>
     </g>
    </g>
    <g id="ytick_6">
     <g id="line2d_29">
      <g>
       <use style="stroke:#000000;stroke-width:0.5;" x="270.0" xlink:href="#m755076f5e5" y="168.0"/>
      </g>
     </g>
     <g id="line2d_30">
      <g>
       <use style="stroke:#000000;stroke-width:0.5;" x="1944.0" xlink:href="#m5e9d47ad24" y="168.0"/>
      </g>
     </g>
     <g id="text_14">
      <!-- 5 -->
      <g transform="translate(258.365 171.31125)scale(0.12 -0.12)">
       <use xlink:href="#BitstreamVeraSans-Roman-35"/>
      </g>
     </g>
    </g>
    <g id="ytick_7">
     <g id="line2d_31">
      <g>
       <use style="stroke:#000000;stroke-width:0.5;" x="270.0" xlink:href="#m755076f5e5" y="72.0"/>
      </g>
     </g>
     <g id="line2d_32">
      <g>
       <use style="stroke:#000000;stroke-width:0.5;" x="1944.0" xlink:href="#m5e9d47ad24" y="72.0"/>
      </g>
     </g>
     <g id="text_15">
      <!-- 6 -->
      <defs>
       <path d="M 33.015625 40.375 
Q 26.375 40.375 22.484375 35.828125 
Q 18.609375 31.296875 18.609375 23.390625 
Q 18.609375 15.53125 22.484375 10.953125 
Q 26.375 6.390625 33.015625 6.390625 
Q 39.65625 6.390625 43.53125 10.953125 
Q 47.40625 15.53125 47.40625 23.390625 
Q 47.40625 31.296875 43.53125 35.828125 
Q 39.65625 40.375 33.015625 40.375 
M 52.59375 71.296875 
L 52.59375 62.3125 
Q 48.875 64.0625 45.09375 64.984375 
Q 41.3125 65.921875 37.59375 65.921875 
Q 27.828125 65.921875 22.671875 59.328125 
Q 17.53125 52.734375 16.796875 39.40625 
Q 19.671875 43.65625 24.015625 45.921875 
Q 28.375 48.1875 33.59375 48.1875 
Q 44.578125 48.1875 50.953125 41.515625 
Q 57.328125 34.859375 57.328125 23.390625 
Q 57.328125 12.15625 50.6875 5.359375 
Q 44.046875 -1.421875 33.015625 -1.421875 
Q 20.359375 -1.421875 13.671875 8.265625 
Q 6.984375 17.96875 6.984375 36.375 
Q 6.984375 53.65625 15.1875 63.9375 
Q 23.390625 74.21875 37.203125 74.21875 
Q 40.921875 74.21875 44.703125 73.484375 
Q 48.484375 72.75 52.59375 71.296875 
" id="BitstreamVeraSans-Roman-36"/>
      </defs>
      <g transform="translate(258.365 75.31125)scale(0.12 -0.12)">
       <use xlink:href="#BitstreamVeraSans-Roman-36"/>
      </g>
     </g>
    </g>
    <g id="text_16">
     <!-- 1e8 -->
     <defs>
      <path d="M 56.203125 29.59375 
L 56.203125 25.203125 
L 14.890625 25.203125 
Q 15.484375 15.921875 20.484375 11.0625 
Q 25.484375 6.203125 34.421875 6.203125 
Q 39.59375 6.203125 44.453125 7.46875 
Q 49.3125 8.734375 54.109375 11.28125 
L 54.109375 2.78125 
Q 49.265625 0.734375 44.1875 -0.34375 
Q 39.109375 -1.421875 33.890625 -1.421875 
Q 20.796875 -1.421875 13.15625 6.1875 
Q 5.515625 13.8125 5.515625 26.8125 
Q 5.515625 40.234375 12.765625 48.109375 
Q 20.015625 56 32.328125 56 
Q 43.359375 56 49.78125 48.890625 
Q 56.203125 41.796875 56.203125 29.59375 
M 47.21875 32.234375 
Q 47.125 39.59375 43.09375 43.984375 
Q 39.0625 48.390625 32.421875 48.390625 
Q 24.90625 48.390625 20.390625 44.140625 
Q 15.875 39.890625 15.1875 32.171875 
z
" id="BitstreamVeraSans-Roman-65"/>
      <path d="M 31.78125 34.625 
Q 24.75 34.625 20.71875 30.859375 
Q 16.703125 27.09375 16.703125 20.515625 
Q 16.703125 13.921875 20.71875 10.15625 
Q 24.75 6.390625 31.78125 6.390625 
Q 38.8125 6.390625 42.859375 10.171875 
Q 46.921875 13.96875 46.921875 20.515625 
Q 46.921875 27.09375 42.890625 30.859375 
Q 38.875 34.625 31.78125 34.625 
M 21.921875 38.8125 
Q 15.578125 40.375 12.03125 44.71875 
Q 8.5 49.078125 8.5 55.328125 
Q 8.5 64.0625 14.71875 69.140625 
Q 20.953125 74.21875 31.78125 74.21875 
Q 42.671875 74.21875 48.875 69.140625 
Q 55.078125 64.0625 55.078125 55.328125 
Q 55.078125 49.078125 51.53125 44.71875 
Q 48 40.375 41.703125 38.8125 
Q 48.828125 37.15625 52.796875 32.3125 
Q 56.78125 27.484375 56.78125 20.515625 
Q 56.78125 9.90625 50.3125 4.234375 
Q 43.84375 -1.421875 31.78125 -1.421875 
Q 19.734375 -1.421875 13.25 4.234375 
Q 6.78125 9.90625 6.78125 20.515625 
Q 6.78125 27.484375 10.78125 32.3125 
Q 14.796875 37.15625 21.921875 38.8125 
M 18.3125 54.390625 
Q 18.3125 48.734375 21.84375 45.5625 
Q 25.390625 42.390625 31.78125 42.390625 
Q 38.140625 42.390625 41.71875 45.5625 
Q 45.3125 48.734375 45.3125 54.390625 
Q 45.3125 60.0625 41.71875 63.234375 
Q 38.140625 66.40625 31.78125 66.40625 
Q 25.390625 66.40625 21.84375 63.234375 
Q 18.3125 60.0625 18.3125 54.390625 
" id="BitstreamVeraSans-Roman-38"/>
     </defs>
     <g transform="translate(270.0 69.0)scale(0.12 -0.12)">
      <use xlink:href="#BitstreamVeraSans-Roman-31"/>
      <use x="63.623046875" xlink:href="#BitstreamVeraSans-Roman-65"/>
      <use x="125.146484375" xlink:href="#BitstreamVeraSans-Roman-38"/>
     </g>
    </g>
   </g>
  </g>
 </g>
 <defs>
  <clipPath id="paf9babe2a0">
   <rect height="576.0" width="1674.0" x="270.0" y="72.0"/>
  </clipPath>
 </defs>
</svg>
