<?xml version="1.0" encoding="utf-8" standalone="no"?>
<!DOCTYPE svg PUBLIC "-//W3C//DTD SVG 1.1//EN"
  "http://www.w3.org/Graphics/SVG/1.1/DTD/svg11.dtd">
<!-- Created with matplotlib (http://matplotlib.org/) -->
<svg height="720pt" version="1.1" viewBox="0 0 2160 720" width="2160pt" xmlns="http://www.w3.org/2000/svg" xmlns:xlink="http://www.w3.org/1999/xlink">
 <defs>
  <style type="text/css">
*{stroke-linecap:butt;stroke-linejoin:round;stroke-miterlimit:100000;}
  </style>
 </defs>
 <g id="figure_1">
  <g id="patch_1">
   <path d="M 0 720 
L 2160 720 
L 2160 0 
L 0 0 
z
" style="fill:#ffffff;"/>
  </g>
  <g id="axes_1">
   <g id="patch_2">
    <path d="M 270 648 
L 1944 648 
L 1944 72 
L 270 72 
z
" style="fill:#ffffff;"/>
   </g>
   <g id="line2d_1">
    <path clip-path="url(#pc4749205f4)" d="M 270 626.88 
L 270.415282 626.88 
L 270.830563 626.24 
L 271.245845 605.12 
L 271.661126 626.88 
L 272.076408 626.88 
L 272.491689 605.12 
L 272.906971 626.88 
L 273.322253 626.24 
L 273.737534 626.88 
L 274.152816 626.88 
L 274.568097 605.12 
L 274.983379 626.88 
L 275.39866 626.24 
L 275.813942 626.88 
L 276.229224 605.76 
L 276.644505 626.88 
L 277.059787 626.24 
L 277.475068 605.76 
L 277.89035 626.88 
L 279.136194 626.88 
L 279.551476 605.12 
L 279.966758 626.88 
L 281.212602 626.88 
L 281.627884 605.76 
L 282.043165 626.24 
L 282.458447 605.12 
L 282.873729 626.88 
L 283.28901 626.88 
L 283.704292 626.24 
L 284.119573 626.88 
L 284.534855 605.12 
L 284.950136 626.88 
L 285.365418 626.24 
L 285.7807 626.24 
L 286.195981 605.12 
L 286.611263 626.88 
L 287.026544 584 
L 287.441826 626.88 
L 287.857107 626.24 
L 288.272389 626.24 
L 288.687671 605.76 
L 289.102952 626.88 
L 289.933515 626.88 
L 290.348797 605.12 
L 290.764078 626.24 
L 291.17936 626.88 
L 291.594642 626.88 
L 292.009923 605.76 
L 292.425205 626.88 
L 292.840486 626.88 
L 293.255768 605.12 
L 293.671049 626.88 
L 294.086331 626.88 
L 294.501612 626.24 
L 294.916894 605.76 
L 295.332176 626.88 
L 296.57802 626.88 
L 296.993302 605.12 
L 297.408583 626.88 
L 297.823865 626.88 
L 298.239147 605.76 
L 298.654428 626.88 
L 299.06971 626.24 
L 299.484991 626.24 
L 299.900273 605.76 
L 300.315554 626.88 
L 301.146118 626.88 
L 301.561399 605.12 
L 301.976681 626.88 
L 302.391962 626.88 
L 302.807244 605.76 
L 303.222525 626.88 
L 304.46837 626.88 
L 304.883652 605.12 
L 305.298933 626.24 
L 305.714215 626.88 
L 306.129496 626.88 
L 306.544778 605.12 
L 306.96006 626.88 
L 307.375341 626.88 
L 307.790623 605.12 
L 308.205904 626.88 
L 309.036467 626.88 
L 309.451749 605.12 
L 309.867031 626.88 
L 310.697594 626.88 
L 311.112875 605.12 
L 311.528157 626.24 
L 311.943438 626.88 
L 312.35872 605.12 
L 312.774001 626.88 
L 314.019846 626.88 
L 314.435128 605.12 
L 314.850409 626.88 
L 316.096254 626.88 
L 316.511536 605.12 
L 316.926817 628.16 
L 317.342099 605.76 
L 317.75738 626.88 
L 318.172662 626.24 
L 318.587943 626.88 
L 319.003225 626.88 
L 319.418507 605.12 
L 319.833788 626.24 
L 320.24907 626.88 
L 321.079633 626.88 
L 321.494914 605.12 
L 321.910196 626.24 
L 322.325478 626.24 
L 322.740759 605.12 
L 323.156041 626.88 
L 323.571322 626.24 
L 323.986604 626.88 
L 324.401885 626.88 
L 324.817167 605.12 
L 325.232449 626.88 
L 325.64773 626.88 
L 326.063012 626.24 
L 326.478293 605.12 
L 326.893575 626.88 
L 327.308856 626.88 
L 327.724138 604.48 
L 328.139419 626.24 
L 328.554701 626.88 
L 328.969983 626.88 
L 329.385264 626.24 
L 329.800546 605.12 
L 330.215827 626.88 
L 331.04639 626.88 
L 331.461672 605.76 
L 331.876954 626.88 
L 332.292235 605.12 
L 332.707517 626.88 
L 333.122798 200 
L 333.53808 626.24 
L 333.953361 626.88 
L 334.368643 626.88 
L 334.783925 605.76 
L 335.199206 626.88 
L 335.614488 626.88 
L 336.029769 626.24 
L 336.445051 626.88 
L 336.860332 605.76 
L 337.275614 626.88 
L 337.690896 626.24 
L 338.106177 626.88 
L 338.521459 605.12 
L 338.93674 626.88 
L 339.352022 605.12 
L 339.767303 626.88 
L 340.182585 605.76 
L 340.597867 626.88 
L 341.42843 626.88 
L 341.843711 605.12 
L 342.258993 626.88 
L 342.674274 626.88 
L 343.089556 626.24 
L 343.504838 626.88 
L 343.920119 605.12 
L 344.335401 626.88 
L 345.581245 626.88 
L 345.996527 605.12 
L 346.411808 626.88 
L 346.82709 626.24 
L 347.242372 605.12 
L 347.657653 626.24 
L 348.072935 626.88 
L 349.318779 626.88 
L 349.734061 605.12 
L 350.149343 626.24 
L 350.564624 626.88 
L 350.979906 626.88 
L 351.395187 626.24 
L 351.810469 605.12 
L 352.22575 626.24 
L 352.641032 626.88 
L 353.056314 605.76 
L 353.471595 626.88 
L 353.886877 626.88 
L 354.302158 626.24 
L 354.71744 626.88 
L 355.132721 605.12 
L 355.548003 626.24 
L 355.963285 626.88 
L 356.793848 626.88 
L 357.209129 605.76 
L 357.624411 626.88 
L 358.039692 626.24 
L 358.454974 605.76 
L 358.870256 626.88 
L 360.1161 626.88 
L 360.531382 605.12 
L 360.946663 626.88 
L 361.777226 626.88 
L 362.192508 605.12 
L 362.60779 626.88 
L 363.438353 626.88 
L 363.853634 605.12 
L 364.268916 626.88 
L 364.684197 626.88 
L 365.099479 626.24 
L 365.514761 626.24 
L 365.930042 605.76 
L 366.345324 626.88 
L 366.760605 626.88 
L 367.175887 605.12 
L 367.591168 626.88 
L 368.00645 626.88 
L 368.421732 626.24 
L 368.837013 626.88 
L 369.252295 626.88 
L 369.667576 605.12 
L 370.082858 626.88 
L 370.913421 626.88 
L 371.328703 605.12 
L 371.743984 626.88 
L 372.159266 626.88 
L 372.574547 605.12 
L 372.989829 626.88 
L 373.820392 626.88 
L 374.235674 626.24 
L 374.650955 605.12 
L 375.066237 626.88 
L 375.481518 626.24 
L 375.8968 626.88 
L 376.312081 605.12 
L 376.727363 626.88 
L 377.142645 626.88 
L 377.557926 605.76 
L 377.973208 626.88 
L 378.388489 626.24 
L 378.803771 626.88 
L 379.219052 626.88 
L 379.634334 605.12 
L 380.049615 626.88 
L 380.880179 626.88 
L 381.29546 604.48 
L 381.710742 626.88 
L 382.126023 626.88 
L 382.541305 605.12 
L 382.956586 626.88 
L 383.371868 626.88 
L 383.78715 626.24 
L 384.202431 605.12 
L 384.617713 626.24 
L 385.032994 626.88 
L 385.448276 626.88 
L 385.863557 605.76 
L 386.278839 626.88 
L 386.694121 626.88 
L 387.109402 605.12 
L 387.524684 626.24 
L 387.939965 626.24 
L 388.355247 626.88 
L 388.770528 626.88 
L 389.18581 605.76 
L 389.601092 626.88 
L 390.016373 626.88 
L 390.431655 626.24 
L 390.846936 583.36 
L 391.262218 626.88 
L 391.677499 626.88 
L 392.092781 605.12 
L 392.508063 626.88 
L 392.923344 626.24 
L 393.338626 626.88 
L 393.753907 605.12 
L 394.169189 626.88 
L 394.999752 626.88 
L 395.415033 605.12 
L 395.830315 626.24 
L 396.245597 626.24 
L 396.660878 626.88 
L 397.07616 605.76 
L 397.491441 626.88 
L 398.322004 626.88 
L 398.737286 605.76 
L 399.152568 626.88 
L 399.567849 626.24 
L 399.983131 626.88 
L 400.398412 605.12 
L 400.813694 626.24 
L 401.228975 626.88 
L 401.644257 626.88 
L 402.059539 605.12 
L 402.47482 626.88 
L 403.305383 626.88 
L 403.720665 605.12 
L 404.135946 626.88 
L 404.96651 626.88 
L 405.381791 605.12 
L 405.797073 626.24 
L 406.212354 626.88 
L 406.627636 626.88 
L 407.042917 604.48 
L 407.458199 626.24 
L 407.873481 626.88 
L 408.288762 605.12 
L 408.704044 626.88 
L 409.534607 626.88 
L 409.949888 605.76 
L 410.36517 626.88 
L 411.611015 626.88 
L 412.026296 605.12 
L 412.441578 626.88 
L 413.272141 626.88 
L 413.687422 605.12 
L 414.102704 626.24 
L 414.517986 626.88 
L 414.933267 626.88 
L 415.348549 605.12 
L 415.76383 626.24 
L 416.179112 626.88 
L 416.594393 626.88 
L 417.009675 605.12 
L 417.424957 626.24 
L 417.840238 626.88 
L 418.25552 626.88 
L 418.670801 605.12 
L 419.086083 626.88 
L 419.501364 626.88 
L 419.916646 626.24 
L 420.331928 605.12 
L 420.747209 626.88 
L 421.162491 626.24 
L 421.577772 626.24 
L 421.993054 604.48 
L 422.408335 626.88 
L 422.823617 626.24 
L 423.238899 626.24 
L 423.65418 605.76 
L 424.069462 626.88 
L 424.484743 626.88 
L 424.900025 626.24 
L 425.315306 626.24 
L 425.730588 605.76 
L 426.14587 626.88 
L 426.561151 626.88 
L 426.976433 605.12 
L 427.391714 626.88 
L 428.637559 626.88 
L 429.05284 605.12 
L 429.468122 626.88 
L 429.883404 626.88 
L 430.298685 626.24 
L 430.713967 626.88 
L 431.129248 605.12 
L 431.54453 626.24 
L 431.959811 626.88 
L 432.375093 605.12 
L 432.790375 626.88 
L 434.036219 626.88 
L 434.451501 605.12 
L 434.866782 626.88 
L 435.282064 626.24 
L 435.697346 626.88 
L 436.112627 605.76 
L 436.527909 624.96 
L 436.94319 626.88 
L 437.358472 605.12 
L 437.773753 626.88 
L 439.019598 626.88 
L 439.43488 605.76 
L 439.850161 626.88 
L 441.096006 626.88 
L 441.511288 605.12 
L 441.926569 626.88 
L 442.341851 605.76 
L 442.757132 626.88 
L 443.172414 605.12 
L 443.587695 626.88 
L 444.002977 605.12 
L 444.418259 626.88 
L 444.83354 626.24 
L 445.248822 626.24 
L 445.664103 626.88 
L 446.079385 605.12 
L 446.494666 626.88 
L 446.909948 626.24 
L 447.325229 605.12 
L 447.740511 626.88 
L 448.155793 626.88 
L 448.571074 626.24 
L 448.986356 605.12 
L 449.401637 626.88 
L 449.816919 626.24 
L 450.2322 626.88 
L 450.647482 626.88 
L 451.062764 605.76 
L 451.478045 626.88 
L 451.893327 626.88 
L 452.308608 605.76 
L 452.72389 626.88 
L 453.969735 626.88 
L 454.385016 605.12 
L 454.800298 626.88 
L 455.630861 626.88 
L 456.046142 605.76 
L 456.461424 626.88 
L 456.876706 626.24 
L 457.291987 605.12 
L 457.707269 626.88 
L 458.12255 626.24 
L 458.537832 626.88 
L 458.953113 626.88 
L 459.368395 178.88 
L 459.783677 626.88 
L 460.198958 605.12 
L 460.61424 626.88 
L 461.444803 626.88 
L 461.860084 605.12 
L 462.275366 626.88 
L 463.105929 626.88 
L 463.521211 605.12 
L 463.936492 626.88 
L 464.767055 626.88 
L 465.182337 604.48 
L 465.597618 626.88 
L 466.428182 626.88 
L 466.843463 605.76 
L 467.258745 626.88 
L 467.674026 626.24 
L 468.089308 626.24 
L 468.504589 605.12 
L 468.919871 626.24 
L 469.335153 626.88 
L 470.165716 626.88 
L 470.580997 605.12 
L 470.996279 626.88 
L 471.41156 626.88 
L 471.826842 605.12 
L 472.242124 626.88 
L 472.657405 626.88 
L 473.072687 626.24 
L 473.487968 605.12 
L 473.90325 626.88 
L 474.318531 626.24 
L 474.733813 626.88 
L 475.149095 626.88 
L 475.564376 605.12 
L 475.979658 626.88 
L 476.394939 626.88 
L 476.810221 605.76 
L 477.225502 626.88 
L 478.471347 626.88 
L 478.886629 605.12 
L 479.30191 626.88 
L 479.717192 626.24 
L 480.132473 626.88 
L 480.547755 604.48 
L 480.963036 626.88 
L 481.378318 626.88 
L 481.7936 626.24 
L 482.208881 605.76 
L 482.624163 626.24 
L 483.039444 626.88 
L 483.870007 626.88 
L 484.285289 605.76 
L 484.700571 626.24 
L 485.115852 626.88 
L 485.531134 626.24 
L 485.946415 626.88 
L 486.361697 605.12 
L 486.776978 626.24 
L 487.19226 626.88 
L 487.607542 605.76 
L 488.022823 626.88 
L 488.853386 626.88 
L 489.268668 605.12 
L 489.683949 626.24 
L 490.099231 626.24 
L 490.514513 626.88 
L 491.345076 626.88 
L 491.760357 605.12 
L 492.175639 626.88 
L 492.59092 626.88 
L 493.006202 605.76 
L 493.421484 626.24 
L 494.252047 626.24 
L 494.667328 604.48 
L 495.08261 626.88 
L 495.497891 626.88 
L 495.913173 626.24 
L 496.328454 626.88 
L 496.743736 605.76 
L 497.159018 626.24 
L 497.574299 626.88 
L 497.989581 605.12 
L 498.404862 626.88 
L 499.650707 626.88 
L 500.065989 605.12 
L 500.48127 626.88 
L 500.896552 626.88 
L 501.311833 605.12 
L 501.727115 626.88 
L 502.142396 605.76 
L 502.557678 626.24 
L 502.97296 605.12 
L 503.388241 626.88 
L 503.803523 626.24 
L 504.218804 626.88 
L 504.634086 626.88 
L 505.049367 605.12 
L 505.464649 626.24 
L 505.879931 626.88 
L 506.295212 626.88 
L 506.710494 605.12 
L 507.125775 626.24 
L 507.541057 626.88 
L 507.956338 605.12 
L 508.37162 626.88 
L 508.786902 626.88 
L 509.202183 626.24 
L 509.617465 626.88 
L 510.032746 605.76 
L 510.448028 626.88 
L 510.863309 626.88 
L 511.278591 626.24 
L 511.693872 605.76 
L 512.109154 626.88 
L 512.524436 626.88 
L 512.939717 605.12 
L 513.354999 626.88 
L 513.77028 626.88 
L 514.185562 626.24 
L 514.600843 626.88 
L 515.016125 605.12 
L 515.431407 626.88 
L 516.26197 626.88 
L 516.677251 605.76 
L 517.092533 626.88 
L 517.923096 626.88 
L 518.338378 605.12 
L 518.753659 627.52 
L 519.168941 626.24 
L 519.584222 626.88 
L 519.999504 605.12 
L 520.414785 626.24 
L 520.830067 626.24 
L 521.245349 626.88 
L 521.66063 604.48 
L 522.075912 626.88 
L 523.321756 626.88 
L 523.737038 605.12 
L 524.15232 626.88 
L 525.398164 626.88 
L 525.813446 605.12 
L 526.228727 626.88 
L 526.644009 605.12 
L 527.05929 626.88 
L 527.474572 626.24 
L 527.889854 626.88 
L 528.305135 626.88 
L 528.720417 605.12 
L 529.135698 626.88 
L 530.381543 626.88 
L 530.796825 605.12 
L 531.212106 626.88 
L 531.627388 605.76 
L 532.042669 626.88 
L 532.457951 626.88 
L 532.873232 626.24 
L 533.288514 626.88 
L 533.703796 604.48 
L 534.119077 626.88 
L 534.534359 626.24 
L 534.94964 626.88 
L 535.364922 626.88 
L 535.780203 605.12 
L 536.195485 626.88 
L 536.610767 626.88 
L 537.026048 605.12 
L 537.44133 626.88 
L 537.856611 626.24 
L 538.271893 626.88 
L 538.687174 626.88 
L 539.102456 605.76 
L 539.517738 626.88 
L 540.348301 626.88 
L 540.763582 605.12 
L 541.178864 626.88 
L 542.009427 626.88 
L 542.424709 605.76 
L 542.83999 626.24 
L 543.255272 626.88 
L 543.670553 626.88 
L 544.085835 605.12 
L 544.501116 626.88 
L 545.746961 626.88 
L 546.162243 605.12 
L 546.577524 626.88 
L 546.992806 605.12 
L 547.408087 626.88 
L 548.23865 626.88 
L 548.653932 626.24 
L 549.069214 605.76 
L 549.484495 626.88 
L 550.73034 626.88 
L 551.145621 584 
L 551.560903 626.88 
L 551.976185 605.12 
L 552.391466 626.88 
L 552.806748 626.24 
L 553.222029 626.88 
L 553.637311 626.24 
L 554.052592 605.76 
L 554.467874 626.88 
L 555.713719 626.88 
L 556.129 603.2 
L 556.544282 626.88 
L 556.959563 605.76 
L 557.374845 626.88 
L 558.62069 626.88 
L 559.035971 605.12 
L 559.451253 626.88 
L 559.866534 626.88 
L 560.281816 626.24 
L 560.697097 626.88 
L 561.112379 605.12 
L 561.527661 626.88 
L 561.942942 605.12 
L 562.358224 626.88 
L 562.773505 626.88 
L 563.188787 626.24 
L 563.604068 626.88 
L 564.01935 605.76 
L 564.434632 626.88 
L 564.849913 626.24 
L 565.265195 626.88 
L 565.680476 626.88 
L 566.095758 605.12 
L 566.511039 626.24 
L 566.926321 626.88 
L 567.341603 605.12 
L 567.756884 626.24 
L 568.172166 626.88 
L 568.587447 626.24 
L 569.002729 605.12 
L 569.41801 626.88 
L 571.079137 626.88 
L 571.494418 605.12 
L 571.9097 626.88 
L 572.324981 604.48 
L 572.740263 626.88 
L 573.155545 626.88 
L 573.570826 221.12 
L 573.986108 605.12 
L 574.401389 626.24 
L 574.816671 626.88 
L 575.647234 626.88 
L 576.062515 605.76 
L 576.477797 626.88 
L 577.30836 626.88 
L 577.723642 605.12 
L 578.138923 626.88 
L 578.969486 626.88 
L 579.384768 626.24 
L 579.80005 605.12 
L 580.215331 626.88 
L 580.630613 626.88 
L 581.045894 605.76 
L 581.461176 626.88 
L 582.291739 626.88 
L 582.707021 626.24 
L 583.122302 626.88 
L 583.537584 604.48 
L 583.952865 626.88 
L 585.19871 626.88 
L 585.613992 626.24 
L 586.029273 605.12 
L 586.444555 626.88 
L 586.859836 626.88 
L 587.275118 605.12 
L 587.690399 626.88 
L 588.105681 626.88 
L 588.520963 626.24 
L 588.936244 626.88 
L 589.351526 605.12 
L 589.766807 626.88 
L 590.182089 626.88 
L 590.59737 626.24 
L 591.012652 626.88 
L 591.427934 605.12 
L 591.843215 626.88 
L 592.673778 626.88 
L 593.08906 605.12 
L 593.504341 626.88 
L 593.919623 626.88 
L 594.334904 626.24 
L 594.750186 605.12 
L 595.165468 626.24 
L 595.580749 626.88 
L 595.996031 626.88 
L 596.411312 605.12 
L 596.826594 626.88 
L 597.241875 626.24 
L 597.657157 626.88 
L 598.072439 584.64 
L 598.48772 626.88 
L 598.903002 626.88 
L 599.318283 605.12 
L 599.733565 626.24 
L 600.148846 626.88 
L 600.97941 626.88 
L 601.394691 605.12 
L 601.809973 626.88 
L 602.225254 626.24 
L 602.640536 605.12 
L 603.055817 626.88 
L 603.471099 626.88 
L 603.886381 626.24 
L 604.301662 605.12 
L 604.716944 626.88 
L 605.962788 626.88 
L 606.37807 605.76 
L 606.793352 626.88 
L 607.208633 626.88 
L 607.623915 605.76 
L 608.039196 626.24 
L 608.869759 626.24 
L 609.285041 626.88 
L 609.700322 605.12 
L 610.115604 626.88 
L 610.946167 626.88 
L 611.361449 605.12 
L 611.77673 626.88 
L 612.607293 626.88 
L 613.022575 605.12 
L 613.437857 626.88 
L 613.853138 626.24 
L 614.26842 626.88 
L 614.683701 605.12 
L 615.098983 626.24 
L 615.514264 626.24 
L 615.929546 626.88 
L 616.344828 605.76 
L 616.760109 626.24 
L 617.590672 626.24 
L 618.005954 605.12 
L 618.421235 626.24 
L 619.251799 626.24 
L 619.66708 626.88 
L 620.082362 605.76 
L 620.497643 626.88 
L 620.912925 626.88 
L 621.328206 604.48 
L 621.743488 626.88 
L 622.574051 626.88 
L 622.989333 605.12 
L 623.404614 626.88 
L 624.235177 626.88 
L 624.650459 605.12 
L 625.065741 626.88 
L 625.481022 626.88 
L 625.896304 626.24 
L 626.311585 605.12 
L 626.726867 626.24 
L 627.142148 626.24 
L 627.55743 626.88 
L 627.972711 605.12 
L 628.387993 626.88 
L 628.803275 626.88 
L 629.218556 626.24 
L 629.633838 626.88 
L 630.049119 604.48 
L 630.464401 626.24 
L 630.879682 626.88 
L 631.294964 605.12 
L 631.710246 626.88 
L 632.540809 626.88 
L 632.95609 605.12 
L 633.371372 626.88 
L 634.201935 626.88 
L 634.617217 604.48 
L 635.032498 626.88 
L 635.44778 626.88 
L 635.863061 605.12 
L 636.278343 626.24 
L 636.693624 626.24 
L 637.108906 626.88 
L 637.524188 626.88 
L 637.939469 605.12 
L 638.354751 626.24 
L 638.770032 626.24 
L 639.185314 626.88 
L 639.600595 605.76 
L 640.015877 626.24 
L 640.84644 626.24 
L 641.261722 605.76 
L 641.677003 626.88 
L 642.092285 626.88 
L 642.507566 626.24 
L 642.922848 605.76 
L 643.338129 626.24 
L 643.753411 626.88 
L 644.168693 626.88 
L 644.583974 583.36 
L 644.999256 626.88 
L 645.829819 626.88 
L 646.2451 605.76 
L 646.660382 626.88 
L 647.075664 626.88 
L 647.490945 605.12 
L 647.906227 626.88 
L 648.321508 626.24 
L 648.73679 626.24 
L 649.152071 626.88 
L 649.567353 605.12 
L 649.982635 626.88 
L 650.397916 626.24 
L 650.813198 626.88 
L 651.228479 605.76 
L 651.643761 626.88 
L 652.059042 626.24 
L 652.474324 626.88 
L 652.889606 605.12 
L 653.304887 626.88 
L 654.550732 626.88 
L 654.966013 605.76 
L 655.381295 626.88 
L 655.796577 626.88 
L 656.211858 605.12 
L 656.62714 626.88 
L 657.872984 626.88 
L 658.288266 604.48 
L 658.703548 626.88 
L 659.949392 626.88 
L 660.364674 605.12 
L 660.779955 626.88 
L 661.195237 626.88 
L 661.610518 605.76 
L 662.0258 626.88 
L 662.441082 626.24 
L 662.856363 626.24 
L 663.271645 626.88 
L 663.686926 605.12 
L 664.102208 626.88 
L 664.932771 626.88 
L 665.348053 605.12 
L 665.763334 626.24 
L 666.178616 626.24 
L 666.593897 605.12 
L 667.009179 626.24 
L 667.42446 626.88 
L 667.839742 626.88 
L 668.255024 605.12 
L 668.670305 626.88 
L 669.500868 626.88 
L 669.91615 626.24 
L 670.331431 605.12 
L 670.746713 626.88 
L 671.161995 604.48 
L 671.577276 626.88 
L 672.823121 626.88 
L 673.238402 605.76 
L 673.653684 626.24 
L 674.068966 626.88 
L 674.484247 626.24 
L 674.899529 605.12 
L 675.31481 626.88 
L 675.730092 628.16 
L 676.145373 605.12 
L 676.560655 626.88 
L 676.975936 626.24 
L 677.391218 626.24 
L 677.8065 626.88 
L 678.221781 605.12 
L 678.637063 626.88 
L 679.467626 626.88 
L 679.882907 605.76 
L 680.298189 626.24 
L 680.713471 626.88 
L 681.128752 605.12 
L 681.544034 626.88 
L 681.959315 626.88 
L 682.374597 605.12 
L 682.789878 626.24 
L 683.20516 626.24 
L 683.620442 626.88 
L 684.035723 605.12 
L 684.451005 626.88 
L 685.281568 626.88 
L 685.696849 605.76 
L 686.112131 626.88 
L 686.527413 626.24 
L 686.942694 605.12 
L 687.357976 626.24 
L 687.773257 626.88 
L 688.188539 626.88 
L 688.60382 604.48 
L 689.019102 626.88 
L 690.264947 626.88 
L 690.680228 626.24 
L 691.09551 605.12 
L 691.510791 626.88 
L 691.926073 626.88 
L 692.341355 605.76 
L 692.756636 626.24 
L 693.171918 626.24 
L 693.587199 626.88 
L 694.002481 626.88 
L 694.417762 605.12 
L 694.833044 178.24 
L 695.248325 583.36 
L 695.663607 626.24 
L 696.078889 626.88 
L 696.49417 605.76 
L 696.909452 626.88 
L 698.155296 626.88 
L 698.570578 605.12 
L 698.98586 626.88 
L 699.401141 626.24 
L 699.816423 626.88 
L 700.231704 626.24 
L 700.646986 626.88 
L 701.062267 605.76 
L 701.477549 626.88 
L 701.892831 626.24 
L 702.308112 605.12 
L 702.723394 626.88 
L 703.138675 626.88 
L 703.553957 626.24 
L 703.969238 626.88 
L 704.38452 605.76 
L 704.799802 626.24 
L 705.215083 626.24 
L 705.630365 626.88 
L 706.045646 605.12 
L 706.460928 626.88 
L 706.876209 626.24 
L 707.291491 626.88 
L 707.706773 605.12 
L 708.122054 626.88 
L 709.367899 626.88 
L 709.78318 605.12 
L 710.198462 626.24 
L 710.613743 626.88 
L 711.029025 605.76 
L 711.444307 626.88 
L 712.690151 626.88 
L 713.105433 605.12 
L 713.520714 626.24 
L 713.935996 626.88 
L 714.351278 626.88 
L 714.766559 626.24 
L 715.181841 605.12 
L 715.597122 626.88 
L 716.012404 626.88 
L 716.427685 605.76 
L 716.842967 626.88 
L 717.258249 626.88 
L 717.67353 626.24 
L 718.088812 626.88 
L 718.504093 605.76 
L 718.919375 626.24 
L 719.334656 626.88 
L 719.749938 626.24 
L 720.16522 626.88 
L 720.580501 605.12 
L 720.995783 626.88 
L 721.411064 626.88 
L 721.826346 605.76 
L 722.241627 626.24 
L 722.656909 626.24 
L 723.072191 626.88 
L 723.487472 626.88 
L 723.902754 605.76 
L 724.318035 626.88 
L 725.148598 626.88 
L 725.56388 626.24 
L 725.979162 605.76 
L 726.394443 626.88 
L 726.809725 626.24 
L 727.225006 605.76 
L 727.640288 626.24 
L 728.055569 626.24 
L 728.470851 626.88 
L 728.886132 626.88 
L 729.301414 605.12 
L 729.716696 626.88 
L 730.131977 626.24 
L 730.547259 626.88 
L 730.96254 605.12 
L 731.377822 626.88 
L 732.208385 626.88 
L 732.623667 604.48 
L 733.038948 626.88 
L 733.45423 626.88 
L 733.869511 626.24 
L 734.284793 626.88 
L 734.700074 626.88 
L 735.115356 605.12 
L 735.530638 626.88 
L 735.945919 626.24 
L 736.361201 605.12 
L 736.776482 626.24 
L 737.191764 626.88 
L 737.607045 626.88 
L 738.022327 605.12 
L 738.437609 626.24 
L 738.85289 626.24 
L 739.268172 626.88 
L 739.683453 626.88 
L 740.098735 605.76 
L 740.514016 626.24 
L 740.929298 626.24 
L 741.34458 605.12 
L 741.759861 626.88 
L 742.590424 626.88 
L 743.005706 626.24 
L 743.420987 604.48 
L 743.836269 626.88 
L 744.666832 626.88 
L 745.082114 626.24 
L 745.497395 605.76 
L 745.912677 626.88 
L 746.327958 626.24 
L 746.74324 626.88 
L 747.158521 605.12 
L 747.573803 605.12 
L 747.989085 626.88 
L 748.404366 626.24 
L 748.819648 604.48 
L 749.234929 626.24 
L 749.650211 626.24 
L 750.065492 626.88 
L 750.480774 605.12 
L 750.896056 626.88 
L 751.311337 626.24 
L 751.726619 626.24 
L 752.1419 605.12 
L 752.557182 626.24 
L 752.972463 626.24 
L 753.387745 626.88 
L 753.803027 626.88 
L 754.218308 605.76 
L 754.63359 626.88 
L 755.048871 626.88 
L 755.464153 626.24 
L 755.879434 605.12 
L 756.294716 626.88 
L 757.125279 626.88 
L 757.540561 605.12 
L 757.955842 626.24 
L 758.371124 626.88 
L 759.201687 626.88 
L 759.616968 605.12 
L 760.03225 626.24 
L 760.447532 626.88 
L 760.862813 605.12 
L 761.278095 626.24 
L 761.693376 626.88 
L 762.523939 626.88 
L 762.939221 605.76 
L 763.354503 626.24 
L 763.769784 626.88 
L 764.185066 626.88 
L 764.600347 605.12 
L 765.015629 626.88 
L 765.43091 626.24 
L 765.846192 605.12 
L 766.261474 626.24 
L 766.676755 626.88 
L 767.9226 626.88 
L 768.337881 605.12 
L 768.753163 626.88 
L 769.999008 626.88 
L 770.414289 605.12 
L 770.829571 626.24 
L 771.244852 626.88 
L 771.660134 605.12 
L 772.075416 626.24 
L 772.490697 626.88 
L 772.905979 626.24 
L 773.32126 605.76 
L 773.736542 626.88 
L 775.397668 626.88 
L 775.81295 605.12 
L 776.228231 626.24 
L 776.643513 605.76 
L 777.058794 626.88 
L 778.304639 626.88 
L 778.719921 605.76 
L 779.135202 626.88 
L 779.965765 626.88 
L 780.381047 626.24 
L 780.796328 605.12 
L 781.21161 626.88 
L 782.042173 626.88 
L 782.457455 605.76 
L 782.872736 626.88 
L 783.703299 626.88 
L 784.118581 605.12 
L 784.533863 626.88 
L 785.364426 626.88 
L 785.779707 604.48 
L 786.194989 626.88 
L 787.025552 626.88 
L 787.440834 605.12 
L 787.856115 626.24 
L 788.271397 626.88 
L 788.686678 626.24 
L 789.10196 626.88 
L 789.517241 604.48 
L 789.932523 626.88 
L 790.347805 626.24 
L 790.763086 605.76 
L 791.178368 626.88 
L 792.008931 626.88 
L 792.424212 605.12 
L 792.839494 626.88 
L 793.670057 626.88 
L 794.085339 605.76 
L 794.50062 626.88 
L 795.331183 626.88 
L 795.746465 605.12 
L 796.161746 626.88 
L 796.577028 626.24 
L 796.99231 583.36 
L 797.407591 626.88 
L 798.238154 626.88 
L 798.653436 626.24 
L 799.068717 605.12 
L 799.483999 626.88 
L 800.314562 626.88 
L 800.729844 605.76 
L 801.145125 626.88 
L 801.560407 626.88 
L 801.975688 605.76 
L 802.39097 626.88 
L 802.806252 626.88 
L 803.221533 626.24 
L 803.636815 626.88 
L 804.052096 605.12 
L 804.467378 626.88 
L 804.882659 626.88 
L 805.297941 626.24 
L 805.713223 605.76 
L 806.128504 626.88 
L 806.543786 626.88 
L 806.959067 604.48 
L 807.374349 626.88 
L 807.78963 626.88 
L 808.204912 626.24 
L 808.620193 626.88 
L 809.035475 605.12 
L 809.450757 626.24 
L 809.866038 626.88 
L 810.28132 626.88 
L 810.696601 605.76 
L 811.111883 626.88 
L 811.527164 626.88 
L 811.942446 199.36 
L 812.357728 626.88 
L 812.773009 626.88 
L 813.188291 605.12 
L 813.603572 626.88 
L 814.434135 626.88 
L 814.849417 605.76 
L 815.264699 626.88 
L 815.67998 626.88 
L 816.095262 604.48 
L 816.510543 626.88 
L 817.756388 626.88 
L 818.17167 605.12 
L 818.586951 626.88 
L 819.832796 626.88 
L 820.248077 605.12 
L 820.663359 626.88 
L 821.078641 626.88 
L 821.493922 605.12 
L 821.909204 626.88 
L 822.324485 626.24 
L 822.739767 626.88 
L 823.155048 626.88 
L 823.57033 605.12 
L 823.985612 626.24 
L 824.400893 626.88 
L 824.816175 626.24 
L 825.231456 626.88 
L 825.646738 605.12 
L 826.062019 626.88 
L 826.477301 626.88 
L 826.892582 626.24 
L 827.307864 605.12 
L 827.723146 626.88 
L 828.138427 626.24 
L 828.553709 626.88 
L 828.96899 626.88 
L 829.384272 605.76 
L 829.799553 626.88 
L 830.214835 626.24 
L 830.630117 605.12 
L 831.045398 626.24 
L 831.46068 626.88 
L 831.875961 626.24 
L 832.291243 626.88 
L 832.706524 605.12 
L 833.121806 626.88 
L 833.537088 626.24 
L 833.952369 626.88 
L 834.367651 626.88 
L 834.782932 605.76 
L 835.198214 626.88 
L 835.613495 626.24 
L 836.028777 605.12 
L 836.444059 626.88 
L 836.85934 626.24 
L 837.274622 626.88 
L 837.689903 626.88 
L 838.105185 605.76 
L 838.520466 626.88 
L 838.935748 626.88 
L 839.35103 626.24 
L 839.766311 626.88 
L 840.181593 605.76 
L 840.596874 626.24 
L 841.427437 626.24 
L 841.842719 605.76 
L 842.258 626.88 
L 842.673282 626.88 
L 843.088564 626.24 
L 843.503845 584.64 
L 843.919127 626.88 
L 844.334408 626.24 
L 844.74969 626.88 
L 845.164971 626.24 
L 845.580253 605.12 
L 845.995535 626.88 
L 846.826098 626.88 
L 847.241379 605.76 
L 847.656661 626.88 
L 848.071942 626.88 
L 848.487224 626.24 
L 848.902506 626.88 
L 849.317787 605.76 
L 849.733069 626.24 
L 850.14835 626.24 
L 850.563632 605.76 
L 850.978913 626.88 
L 851.809477 626.88 
L 852.224758 626.24 
L 852.64004 605.76 
L 853.055321 626.88 
L 853.885884 626.88 
L 854.301166 626.24 
L 854.716448 604.48 
L 855.131729 626.88 
L 855.547011 626.88 
L 855.962292 605.12 
L 856.377574 626.88 
L 856.792855 626.88 
L 857.208137 626.24 
L 857.623419 626.88 
L 858.0387 605.12 
L 858.453982 626.88 
L 859.284545 626.88 
L 859.699826 626.24 
L 860.115108 605.12 
L 860.530389 626.24 
L 860.945671 605.76 
L 861.360953 626.88 
L 861.776234 626.88 
L 862.191516 626.24 
L 862.606797 626.88 
L 863.022079 605.12 
L 863.43736 626.88 
L 864.683205 626.88 
L 865.098487 605.12 
L 865.513768 626.88 
L 865.92905 605.12 
L 866.344331 626.88 
L 866.759613 626.24 
L 867.174895 626.88 
L 867.590176 626.88 
L 868.005458 605.12 
L 868.420739 626.88 
L 868.836021 626.24 
L 869.251302 626.24 
L 869.666584 605.12 
L 870.081866 626.24 
L 870.497147 626.24 
L 870.912429 605.12 
L 871.32771 626.24 
L 871.742992 626.24 
L 872.158273 626.88 
L 872.573555 626.88 
L 872.988837 605.12 
L 873.404118 626.88 
L 874.649963 626.88 
L 875.065244 604.48 
L 875.480526 626.88 
L 875.895807 626.88 
L 876.311089 605.12 
L 876.726371 626.88 
L 877.141652 626.24 
L 877.556934 626.24 
L 877.972215 626.88 
L 878.387497 604.48 
L 878.802778 626.88 
L 880.048623 626.88 
L 880.463905 605.12 
L 880.879186 626.88 
L 881.294468 626.24 
L 881.709749 605.12 
L 882.125031 626.88 
L 882.540313 626.88 
L 882.955594 626.24 
L 883.370876 626.88 
L 883.786157 605.12 
L 884.201439 626.88 
L 884.61672 626.88 
L 885.032002 605.76 
L 885.447284 626.24 
L 885.862565 626.88 
L 886.277847 626.24 
L 886.693128 605.12 
L 887.10841 626.88 
L 887.523691 626.24 
L 887.938973 626.88 
L 888.354255 626.88 
L 888.769536 605.12 
L 889.184818 626.88 
L 889.600099 626.88 
L 890.015381 605.12 
L 890.430662 605.12 
L 890.845944 626.88 
L 891.261226 605.76 
L 891.676507 626.88 
L 892.091789 626.88 
L 892.50707 626.24 
L 892.922352 626.88 
L 893.337633 605.12 
L 893.752915 626.24 
L 894.168196 626.88 
L 894.583478 626.88 
L 894.99876 605.76 
L 895.414041 626.24 
L 896.244604 626.24 
L 896.659886 605.12 
L 897.075167 626.88 
L 897.490449 626.88 
L 897.905731 626.24 
L 898.321012 604.48 
L 898.736294 626.88 
L 899.151575 626.24 
L 899.566857 626.88 
L 899.982138 626.24 
L 900.39742 605.12 
L 900.812702 626.88 
L 901.227983 626.24 
L 901.643265 605.76 
L 902.058546 626.88 
L 902.473828 626.88 
L 902.889109 626.24 
L 903.304391 626.88 
L 903.719673 605.12 
L 904.134954 626.88 
L 904.550236 626.88 
L 904.965517 626.24 
L 905.380799 605.76 
L 905.79608 626.88 
L 906.211362 626.88 
L 906.626644 626.24 
L 907.041925 626.88 
L 907.457207 605.76 
L 907.872488 626.88 
L 908.28777 626.24 
L 908.703051 626.88 
L 909.118333 605.12 
L 909.533614 626.24 
L 909.948896 626.88 
L 910.364178 605.12 
L 910.779459 626.88 
L 912.025304 626.88 
L 912.440585 605.12 
L 912.855867 626.88 
L 913.271149 626.24 
L 913.68643 626.24 
L 914.101712 626.88 
L 914.516993 605.76 
L 914.932275 627.52 
L 915.347556 626.88 
L 915.762838 605.12 
L 916.17812 626.88 
L 917.008683 626.88 
L 917.423964 604.48 
L 917.839246 626.24 
L 918.254527 626.88 
L 918.669809 626.24 
L 919.085091 626.88 
L 919.500372 626.88 
L 919.915654 605.76 
L 920.330935 626.88 
L 920.746217 605.76 
L 921.161498 626.88 
L 921.57678 626.88 
L 921.992062 626.24 
L 922.407343 626.88 
L 922.822625 605.12 
L 923.237906 626.88 
L 924.483751 626.88 
L 924.899033 605.76 
L 925.314314 626.24 
L 925.729596 626.88 
L 926.144877 605.12 
L 926.560159 626.88 
L 926.97544 626.88 
L 927.390722 626.24 
L 927.806003 605.76 
L 928.221285 626.24 
L 928.636567 626.88 
L 929.46713 626.88 
L 929.882411 605.12 
L 930.297693 626.24 
L 930.712974 604.48 
L 931.128256 626.88 
L 931.543538 626.88 
L 931.958819 626.24 
L 932.374101 626.88 
L 932.789382 157.12 
L 933.204664 626.88 
L 933.619945 626.88 
L 934.035227 626.24 
L 934.450509 626.88 
L 934.86579 605.12 
L 935.281072 626.24 
L 935.696353 626.88 
L 936.111635 605.12 
L 936.526916 626.24 
L 936.942198 604.48 
L 937.35748 626.88 
L 937.772761 605.12 
L 938.188043 626.88 
L 938.603324 626.24 
L 939.018606 626.88 
L 939.433887 626.88 
L 939.849169 626.24 
L 940.264451 605.12 
L 940.679732 626.88 
L 941.095014 626.24 
L 941.510295 605.12 
L 941.925577 626.88 
L 943.171421 626.88 
L 943.586703 605.12 
L 944.001985 626.24 
L 944.417266 626.24 
L 944.832548 626.88 
L 945.247829 605.12 
L 945.663111 626.88 
L 946.078392 626.24 
L 946.493674 605.12 
L 946.908956 626.88 
L 947.739519 626.88 
L 948.1548 605.12 
L 948.570082 626.88 
L 949.400645 626.88 
L 949.815927 626.24 
L 950.231208 605.12 
L 950.64649 626.24 
L 951.061771 626.88 
L 951.477053 626.88 
L 951.892334 605.12 
L 952.307616 626.88 
L 953.553461 626.88 
L 953.968742 605.12 
L 954.384024 626.88 
L 954.799305 626.88 
L 955.214587 605.12 
L 955.629869 626.88 
L 957.290995 626.88 
L 957.706276 605.12 
L 958.121558 626.88 
L 958.952121 626.88 
L 959.367403 605.12 
L 959.782684 626.88 
L 960.197966 626.88 
L 960.613247 605.12 
L 961.028529 626.24 
L 961.859092 626.24 
L 962.274374 626.88 
L 962.689655 605.12 
L 963.104937 626.88 
L 964.350781 626.88 
L 964.766063 626.24 
L 965.181345 604.48 
L 965.596626 626.88 
L 966.011908 626.24 
L 966.427189 605.12 
L 966.842471 626.24 
L 967.257752 626.88 
L 968.088316 626.88 
L 968.503597 605.12 
L 968.918879 626.24 
L 969.33416 626.24 
L 969.749442 626.88 
L 970.164723 605.12 
L 970.580005 626.88 
L 970.995287 626.88 
L 971.410568 626.24 
L 971.82585 626.88 
L 972.241131 605.76 
L 972.656413 626.88 
L 973.071694 626.24 
L 973.486976 626.88 
L 973.902258 626.88 
L 974.317539 605.76 
L 974.732821 626.88 
L 975.148102 626.88 
L 975.563384 605.12 
L 975.978665 626.88 
L 976.809228 626.88 
L 977.22451 626.24 
L 977.639792 605.12 
L 978.055073 626.88 
L 978.470355 626.24 
L 978.885636 626.88 
L 979.300918 626.88 
L 979.716199 605.76 
L 980.131481 626.88 
L 980.546763 626.88 
L 980.962044 605.12 
L 981.377326 626.24 
L 981.792607 626.88 
L 982.207889 626.88 
L 982.62317 605.12 
L 983.038452 626.24 
L 983.453734 626.24 
L 983.869015 626.88 
L 984.284297 626.88 
L 984.699578 605.12 
L 985.11486 626.24 
L 985.530141 605.76 
L 985.945423 626.88 
L 986.360705 626.88 
L 986.775986 626.24 
L 987.191268 626.24 
L 987.606549 605.12 
L 988.021831 626.88 
L 988.852394 626.88 
L 989.267676 605.12 
L 989.682957 626.88 
L 990.098239 605.76 
L 990.51352 626.88 
L 991.759365 626.88 
L 992.174646 626.24 
L 992.589928 605.76 
L 993.00521 626.24 
L 993.420491 605.12 
L 993.835773 626.24 
L 994.251054 626.24 
L 994.666336 605.76 
L 995.081617 626.24 
L 995.496899 626.88 
L 995.912181 605.12 
L 996.327462 626.88 
L 996.742744 626.88 
L 997.158025 626.24 
L 997.573307 626.88 
L 997.988588 626.88 
L 998.40387 605.12 
L 998.819152 626.88 
L 999.649715 626.88 
L 1000.064996 605.76 
L 1000.480278 626.24 
L 1000.895559 626.24 
L 1001.310841 626.88 
L 1002.141404 626.88 
L 1002.556686 605.12 
L 1002.971967 626.88 
L 1003.387249 626.24 
L 1003.80253 626.88 
L 1004.217812 626.24 
L 1004.633094 626.24 
L 1005.048375 605.76 
L 1005.463657 626.88 
L 1005.878938 626.88 
L 1006.29422 605.76 
L 1006.709501 626.88 
L 1008.370628 626.88 
L 1008.785909 605.12 
L 1009.201191 626.88 
L 1009.616472 626.24 
L 1010.031754 605.12 
L 1010.447035 626.88 
L 1012.108162 626.88 
L 1012.523443 605.12 
L 1012.938725 626.88 
L 1013.769288 626.88 
L 1014.18457 626.24 
L 1014.599851 626.88 
L 1015.015133 605.76 
L 1015.430414 626.24 
L 1015.845696 626.88 
L 1016.260977 605.12 
L 1016.676259 626.88 
L 1017.506822 626.88 
L 1017.922104 626.24 
L 1018.337385 605.12 
L 1018.752667 626.88 
L 1019.58323 626.88 
L 1019.998512 605.12 
L 1020.413793 626.24 
L 1020.829075 626.88 
L 1022.074919 626.88 
L 1022.490201 605.76 
L 1022.905483 626.88 
L 1024.151327 626.88 
L 1024.566609 605.12 
L 1024.98189 626.88 
L 1025.397172 626.24 
L 1025.812453 626.88 
L 1026.227735 605.12 
L 1026.643017 626.88 
L 1027.058298 626.24 
L 1027.47358 626.88 
L 1027.888861 626.88 
L 1028.304143 605.12 
L 1028.719424 626.88 
L 1029.549988 626.88 
L 1029.965269 605.12 
L 1030.380551 626.24 
L 1030.795832 626.88 
L 1031.211114 626.24 
L 1031.626395 626.88 
L 1032.041677 626.88 
L 1032.456959 605.76 
L 1032.87224 626.88 
L 1034.118085 626.88 
L 1034.533366 603.84 
L 1034.948648 626.88 
L 1035.36393 626.88 
L 1035.779211 626.24 
L 1036.194493 605.12 
L 1036.609774 626.24 
L 1037.025056 626.88 
L 1037.440337 626.88 
L 1037.855619 626.24 
L 1038.270901 626.88 
L 1038.686182 605.12 
L 1039.101464 626.88 
L 1039.516745 626.88 
L 1039.932027 605.76 
L 1040.347308 626.24 
L 1040.76259 626.88 
L 1042.008435 626.88 
L 1042.423716 605.12 
L 1042.838998 626.88 
L 1044.084842 626.88 
L 1044.500124 605.12 
L 1044.915406 626.24 
L 1045.330687 626.88 
L 1045.745969 605.76 
L 1046.16125 626.88 
L 1046.576532 626.24 
L 1046.991813 626.24 
L 1047.407095 626.88 
L 1047.822377 626.88 
L 1048.237658 583.36 
L 1048.65294 626.88 
L 1049.068221 626.88 
L 1049.483503 605.12 
L 1049.898784 626.88 
L 1051.144629 626.88 
L 1051.559911 605.12 
L 1051.975192 626.24 
L 1052.390474 626.88 
L 1052.805755 626.24 
L 1053.221037 200 
L 1053.636319 626.88 
L 1054.0516 605.12 
L 1054.466882 626.88 
L 1055.297445 626.88 
L 1055.712726 605.76 
L 1056.128008 626.24 
L 1056.543289 626.88 
L 1057.373853 626.88 
L 1057.789134 605.12 
L 1058.204416 626.88 
L 1059.45026 626.88 
L 1059.865542 605.76 
L 1060.280824 626.88 
L 1061.526668 626.88 
L 1061.94195 605.12 
L 1062.357231 626.88 
L 1064.018358 626.88 
L 1064.433639 605.12 
L 1064.848921 626.24 
L 1065.264202 626.88 
L 1065.679484 605.12 
L 1066.094766 626.88 
L 1067.34061 626.88 
L 1067.755892 605.12 
L 1068.171173 626.88 
L 1069.417018 626.88 
L 1069.8323 605.12 
L 1070.247581 626.88 
L 1071.493426 626.88 
L 1071.908708 605.12 
L 1072.323989 626.88 
L 1072.739271 626.24 
L 1073.154552 626.88 
L 1073.985115 626.88 
L 1074.400397 605.12 
L 1074.815678 626.88 
L 1075.23096 626.24 
L 1075.646242 605.76 
L 1076.061523 626.88 
L 1077.722649 626.88 
L 1078.137931 605.76 
L 1078.553213 626.88 
L 1079.383776 626.88 
L 1079.799057 605.12 
L 1080.214339 626.24 
L 1081.044902 626.24 
L 1081.460184 626.88 
L 1081.875465 626.24 
L 1082.290747 605.76 
L 1082.706028 626.24 
L 1083.12131 626.88 
L 1083.536591 626.24 
L 1083.951873 626.88 
L 1084.367155 626.88 
L 1084.782436 605.12 
L 1085.197718 626.88 
L 1086.028281 626.88 
L 1086.443562 605.12 
L 1086.858844 626.88 
L 1088.104689 626.88 
L 1088.51997 604.48 
L 1088.935252 626.24 
L 1089.350533 626.88 
L 1089.765815 605.76 
L 1090.181096 626.88 
L 1090.596378 626.88 
L 1091.01166 626.24 
L 1091.842223 626.24 
L 1092.257504 605.76 
L 1092.672786 626.88 
L 1093.503349 626.88 
L 1093.918631 626.24 
L 1094.333912 626.24 
L 1094.749194 605.12 
L 1095.164475 626.88 
L 1095.579757 626.24 
L 1095.995038 605.12 
L 1096.41032 626.88 
L 1097.656165 626.88 
L 1098.071446 605.12 
L 1098.486728 626.24 
L 1098.902009 626.24 
L 1099.317291 626.88 
L 1099.732573 605.12 
L 1100.147854 626.24 
L 1100.563136 626.88 
L 1100.978417 626.88 
L 1101.393699 626.24 
L 1101.80898 605.12 
L 1102.224262 626.88 
L 1103.054825 626.88 
L 1103.470107 626.24 
L 1103.885388 605.12 
L 1104.30067 626.88 
L 1104.715951 626.88 
L 1105.131233 605.12 
L 1105.546515 626.88 
L 1106.377078 626.88 
L 1106.792359 584 
L 1107.207641 626.88 
L 1108.868767 626.88 
L 1109.284049 605.12 
L 1109.69933 626.88 
L 1110.114612 626.24 
L 1110.529893 605.12 
L 1110.945175 626.88 
L 1111.360456 626.24 
L 1111.775738 626.88 
L 1112.19102 626.24 
L 1112.606301 605.76 
L 1113.021583 626.88 
L 1113.436864 626.24 
L 1114.267427 626.24 
L 1114.682709 605.12 
L 1115.097991 626.24 
L 1115.513272 626.88 
L 1115.928554 626.24 
L 1116.343835 605.12 
L 1116.759117 626.88 
L 1117.174398 626.88 
L 1117.58968 626.24 
L 1118.004962 626.88 
L 1118.420243 605.12 
L 1118.835525 626.88 
L 1119.250806 626.24 
L 1119.666088 605.12 
L 1120.081369 626.88 
L 1121.327214 626.88 
L 1121.742496 626.24 
L 1122.157777 605.12 
L 1122.573059 626.88 
L 1122.98834 626.24 
L 1123.403622 626.24 
L 1123.818903 626.88 
L 1124.234185 605.12 
L 1124.649467 626.88 
L 1125.064748 626.24 
L 1125.48003 605.12 
L 1125.895311 626.24 
L 1126.310593 626.24 
L 1126.725874 626.88 
L 1127.141156 626.88 
L 1127.556438 605.12 
L 1127.971719 626.88 
L 1128.387001 626.88 
L 1128.802282 626.24 
L 1129.217564 626.24 
L 1129.632845 605.12 
L 1130.048127 626.88 
L 1130.87869 626.88 
L 1131.293972 605.12 
L 1131.709253 626.88 
L 1132.539816 626.88 
L 1132.955098 626.24 
L 1133.37038 626.24 
L 1133.785661 605.12 
L 1134.200943 626.88 
L 1135.031506 626.88 
L 1135.446787 605.12 
L 1135.862069 626.88 
L 1136.692632 626.88 
L 1137.107914 605.12 
L 1137.523195 626.88 
L 1139.184322 626.88 
L 1139.599603 605.76 
L 1140.014885 626.88 
L 1140.845448 626.88 
L 1141.260729 605.12 
L 1141.676011 626.88 
L 1142.921856 626.88 
L 1143.337137 605.12 
L 1143.752419 626.88 
L 1144.582982 626.88 
L 1144.998263 605.76 
L 1145.413545 626.88 
L 1146.65939 626.88 
L 1147.074671 605.76 
L 1147.489953 626.88 
L 1147.905234 626.88 
L 1148.320516 626.24 
L 1148.735798 626.88 
L 1149.151079 605.76 
L 1149.566361 626.88 
L 1150.396924 626.88 
L 1150.812205 605.76 
L 1151.227487 626.88 
L 1151.642769 626.24 
L 1152.05805 626.88 
L 1152.473332 605.12 
L 1152.888613 626.24 
L 1153.303895 626.88 
L 1153.719176 626.88 
L 1154.134458 626.24 
L 1154.54974 605.12 
L 1154.965021 626.88 
L 1156.210866 626.88 
L 1156.626147 605.12 
L 1157.041429 626.88 
L 1157.45671 626.24 
L 1157.871992 626.24 
L 1158.287274 584.64 
L 1158.702555 626.88 
L 1159.117837 626.24 
L 1159.533118 605.76 
L 1159.9484 626.88 
L 1161.609526 626.88 
L 1162.024808 605.76 
L 1162.440089 626.88 
L 1162.855371 626.88 
L 1163.270652 626.24 
L 1163.685934 626.88 
L 1164.101216 626.88 
L 1164.516497 605.12 
L 1164.931779 626.88 
L 1165.34706 626.88 
L 1165.762342 605.12 
L 1166.177623 626.24 
L 1166.592905 626.88 
L 1167.008187 626.88 
L 1167.423468 626.24 
L 1167.83875 604.48 
L 1168.254031 626.88 
L 1169.084594 626.88 
L 1169.499876 605.76 
L 1169.915158 626.88 
L 1170.745721 626.88 
L 1171.161002 626.24 
L 1171.576284 626.88 
L 1171.991565 605.76 
L 1172.406847 199.36 
L 1172.822129 626.24 
L 1173.23741 626.88 
L 1173.652692 605.12 
L 1174.067973 626.88 
L 1174.898536 626.88 
L 1175.313818 605.76 
L 1175.729099 626.88 
L 1176.559663 626.88 
L 1176.974944 626.24 
L 1177.390226 626.24 
L 1177.805507 605.76 
L 1178.220789 626.88 
L 1178.63607 626.24 
L 1179.051352 626.88 
L 1179.466634 605.12 
L 1179.881915 626.88 
L 1181.12776 626.88 
L 1181.543041 626.24 
L 1181.958323 626.88 
L 1182.373605 605.76 
L 1182.788886 626.88 
L 1183.619449 626.88 
L 1184.034731 605.12 
L 1184.450012 626.88 
L 1186.52642 626.88 
L 1186.941702 605.12 
L 1187.356983 626.88 
L 1188.187547 626.88 
L 1188.602828 626.24 
L 1189.01811 605.76 
L 1189.433391 626.88 
L 1189.848673 626.24 
L 1190.263954 626.88 
L 1190.679236 626.88 
L 1191.094517 605.12 
L 1191.509799 626.88 
L 1191.925081 626.24 
L 1192.340362 626.88 
L 1192.755644 626.24 
L 1193.170925 626.88 
L 1193.586207 605.76 
L 1194.001488 626.24 
L 1194.41677 626.88 
L 1194.832052 605.12 
L 1195.247333 626.88 
L 1196.908459 626.88 
L 1197.323741 605.12 
L 1197.739023 626.88 
L 1198.154304 626.24 
L 1198.569586 626.88 
L 1198.984867 605.76 
L 1199.400149 626.24 
L 1199.81543 626.88 
L 1200.230712 626.24 
L 1200.645994 626.88 
L 1201.061275 626.88 
L 1201.476557 605.12 
L 1201.891838 626.88 
L 1203.552965 626.88 
L 1203.968246 605.12 
L 1204.383528 626.88 
L 1204.798809 626.24 
L 1205.214091 626.88 
L 1205.629372 605.12 
L 1206.044654 626.24 
L 1206.459936 626.88 
L 1207.290499 626.88 
L 1207.70578 582.72 
L 1208.121062 626.88 
L 1208.951625 626.88 
L 1209.366906 605.12 
L 1209.782188 626.88 
L 1211.443314 626.88 
L 1211.858596 605.12 
L 1212.273877 626.24 
L 1212.689159 626.88 
L 1213.519722 626.88 
L 1213.935004 626.24 
L 1214.350285 605.12 
L 1214.765567 626.88 
L 1215.180848 626.88 
L 1215.59613 605.12 
L 1216.011412 626.88 
L 1217.257256 626.88 
L 1217.672538 605.12 
L 1218.087819 626.88 
L 1218.918383 626.88 
L 1219.333664 605.12 
L 1219.748946 626.88 
L 1220.164227 626.24 
L 1220.579509 626.88 
L 1220.99479 626.88 
L 1221.410072 605.12 
L 1221.825354 626.88 
L 1223.48648 626.88 
L 1223.901761 605.12 
L 1224.317043 626.88 
L 1224.732324 626.88 
L 1225.147606 605.12 
L 1225.562888 626.88 
L 1226.393451 626.88 
L 1226.808732 605.12 
L 1227.224014 626.88 
L 1228.469859 626.88 
L 1228.88514 626.24 
L 1229.300422 605.12 
L 1229.715703 626.88 
L 1230.130985 626.24 
L 1230.546266 605.12 
L 1230.961548 626.88 
L 1232.207393 626.88 
L 1232.622674 605.12 
L 1233.037956 626.24 
L 1233.453237 626.88 
L 1233.868519 626.88 
L 1234.283801 605.12 
L 1234.699082 626.88 
L 1235.529645 626.88 
L 1235.944927 626.24 
L 1236.360208 626.24 
L 1236.77549 605.12 
L 1237.190772 626.24 
L 1237.606053 626.24 
L 1238.021335 626.88 
L 1238.436616 626.24 
L 1238.851898 605.76 
L 1239.267179 626.24 
L 1239.682461 626.88 
L 1240.097742 626.88 
L 1240.513024 605.12 
L 1240.928306 626.24 
L 1241.343587 626.88 
L 1241.758869 626.88 
L 1242.17415 626.24 
L 1242.589432 626.88 
L 1243.004713 605.12 
L 1243.419995 626.88 
L 1243.835277 626.88 
L 1244.250558 605.12 
L 1244.66584 626.88 
L 1245.911684 626.88 
L 1246.326966 626.24 
L 1246.742248 605.76 
L 1247.157529 626.88 
L 1247.988092 626.88 
L 1248.403374 626.24 
L 1248.818655 626.88 
L 1249.233937 605.76 
L 1249.649219 626.88 
L 1250.0645 626.24 
L 1250.479782 626.88 
L 1250.895063 605.12 
L 1251.310345 626.88 
L 1251.725626 626.24 
L 1252.140908 626.88 
L 1252.55619 605.76 
L 1252.971471 626.88 
L 1253.386753 626.24 
L 1253.802034 626.88 
L 1254.217316 605.12 
L 1254.632597 626.24 
L 1255.047879 626.88 
L 1255.878442 626.88 
L 1256.293724 605.12 
L 1256.709005 626.24 
L 1257.124287 626.88 
L 1257.95485 626.88 
L 1258.370131 605.12 
L 1258.785413 626.88 
L 1259.615976 626.88 
L 1260.031258 605.12 
L 1260.446539 626.88 
L 1261.692384 626.88 
L 1262.107666 605.12 
L 1262.522947 626.88 
L 1262.938229 626.24 
L 1263.35351 626.88 
L 1263.768792 605.12 
L 1264.184073 605.76 
L 1264.599355 626.88 
L 1265.429918 626.88 
L 1265.8452 605.76 
L 1266.260481 626.88 
L 1267.091044 626.88 
L 1267.506326 626.24 
L 1267.921608 605.12 
L 1268.336889 626.24 
L 1268.752171 626.24 
L 1269.167452 605.76 
L 1269.582734 626.88 
L 1269.998015 626.88 
L 1270.413297 626.24 
L 1270.828579 626.88 
L 1271.24386 626.88 
L 1271.659142 605.12 
L 1272.074423 626.88 
L 1272.489705 626.88 
L 1272.904986 626.24 
L 1273.320268 605.12 
L 1273.735549 624.96 
L 1274.150831 626.24 
L 1274.566113 605.76 
L 1274.981394 626.88 
L 1275.396676 626.24 
L 1275.811957 626.88 
L 1276.227239 626.88 
L 1276.64252 605.12 
L 1277.057802 626.24 
L 1277.473084 626.88 
L 1278.303647 626.88 
L 1278.718928 626.24 
L 1279.13421 605.76 
L 1279.549491 626.88 
L 1279.964773 626.88 
L 1280.380055 605.12 
L 1280.795336 626.88 
L 1281.625899 626.88 
L 1282.041181 626.24 
L 1282.456462 605.12 
L 1282.871744 626.24 
L 1283.287026 626.88 
L 1283.702307 626.88 
L 1284.117589 605.76 
L 1284.53287 626.88 
L 1284.948152 626.24 
L 1285.363433 626.88 
L 1285.778715 626.88 
L 1286.193997 605.12 
L 1286.609278 626.24 
L 1287.02456 626.24 
L 1287.439841 626.88 
L 1287.855123 626.24 
L 1288.270404 626.88 
L 1288.685686 605.12 
L 1289.100968 626.88 
L 1289.516249 626.24 
L 1289.931531 605.12 
L 1290.346812 626.88 
L 1291.592657 626.88 
L 1292.007938 171.2 
L 1292.42322 626.88 
L 1293.253783 626.88 
L 1293.669065 605.12 
L 1294.084346 626.88 
L 1294.499628 626.24 
L 1294.914909 626.88 
L 1295.330191 605.12 
L 1295.745473 626.88 
L 1296.160754 626.88 
L 1296.576036 626.24 
L 1296.991317 626.24 
L 1297.406599 626.88 
L 1297.82188 605.12 
L 1298.237162 626.88 
L 1298.652444 626.24 
L 1299.067725 626.88 
L 1299.483007 605.76 
L 1299.898288 626.88 
L 1300.31357 626.24 
L 1301.144133 626.24 
L 1301.559415 605.76 
L 1301.974696 626.88 
L 1303.220541 626.88 
L 1303.635822 626.24 
L 1304.051104 605.12 
L 1304.466385 626.88 
L 1304.881667 626.24 
L 1305.296949 626.88 
L 1305.71223 605.76 
L 1306.127512 626.88 
L 1306.542793 626.24 
L 1306.958075 626.88 
L 1307.373356 626.88 
L 1307.788638 605.12 
L 1308.20392 626.24 
L 1308.619201 626.88 
L 1309.034483 605.12 
L 1309.449764 626.24 
L 1309.865046 626.88 
L 1311.110891 626.88 
L 1311.526172 605.76 
L 1311.941454 626.88 
L 1313.60258 626.88 
L 1314.017862 605.12 
L 1314.433143 626.24 
L 1314.848425 626.24 
L 1315.263706 605.76 
L 1315.678988 626.88 
L 1316.924833 626.88 
L 1317.340114 584 
L 1317.755396 626.88 
L 1318.585959 626.88 
L 1319.00124 605.12 
L 1319.416522 626.24 
L 1319.831804 626.24 
L 1320.247085 626.88 
L 1320.662367 626.24 
L 1321.077648 604.48 
L 1321.49293 626.88 
L 1321.908211 626.24 
L 1322.323493 626.24 
L 1322.738775 626.88 
L 1323.154056 626.88 
L 1323.569338 605.12 
L 1323.984619 626.88 
L 1324.399901 626.88 
L 1324.815182 605.12 
L 1325.230464 626.24 
L 1325.645745 626.88 
L 1326.061027 626.24 
L 1326.89159 626.24 
L 1327.306872 626.88 
L 1327.722153 605.12 
L 1328.137435 626.88 
L 1328.552716 626.88 
L 1328.967998 605.76 
L 1329.38328 626.88 
L 1331.044406 626.88 
L 1331.459687 604.48 
L 1331.874969 626.88 
L 1333.536095 626.88 
L 1333.951377 605.76 
L 1334.366658 626.88 
L 1334.78194 626.88 
L 1335.197222 605.12 
L 1335.612503 626.24 
L 1336.027785 626.88 
L 1337.273629 626.88 
L 1337.688911 605.12 
L 1338.104192 626.24 
L 1338.934756 626.24 
L 1339.350037 605.12 
L 1339.765319 626.88 
L 1341.011163 626.88 
L 1341.426445 605.76 
L 1341.841727 626.88 
L 1342.67229 626.88 
L 1343.087571 626.24 
L 1343.502853 626.88 
L 1343.918134 604.48 
L 1344.333416 626.88 
L 1344.748698 626.24 
L 1345.163979 605.76 
L 1345.579261 626.88 
L 1345.994542 626.88 
L 1346.409824 626.24 
L 1346.825105 626.88 
L 1347.240387 605.12 
L 1347.655669 626.24 
L 1348.07095 626.88 
L 1348.486232 626.88 
L 1348.901513 605.12 
L 1349.316795 626.88 
L 1349.732076 626.24 
L 1350.147358 626.88 
L 1350.56264 605.12 
L 1350.977921 626.88 
L 1351.393203 626.88 
L 1351.808484 626.24 
L 1352.223766 626.24 
L 1352.639047 605.76 
L 1353.054329 626.24 
L 1353.469611 626.88 
L 1353.884892 626.88 
L 1354.300174 604.48 
L 1354.715455 626.88 
L 1355.130737 626.24 
L 1355.546018 626.88 
L 1355.9613 626.88 
L 1356.376582 605.12 
L 1356.791863 626.88 
L 1357.622426 626.88 
L 1358.037708 626.24 
L 1358.452989 626.88 
L 1358.868271 605.12 
L 1359.283552 626.24 
L 1359.698834 626.88 
L 1360.114116 626.88 
L 1360.529397 605.12 
L 1360.944679 626.24 
L 1361.35996 626.24 
L 1361.775242 626.88 
L 1362.605805 626.88 
L 1363.021087 604.48 
L 1363.436368 626.24 
L 1363.85165 626.24 
L 1364.266931 605.12 
L 1364.682213 626.88 
L 1365.097494 626.88 
L 1365.512776 626.24 
L 1365.928058 626.24 
L 1366.343339 605.12 
L 1366.758621 626.88 
L 1368.004465 626.88 
L 1368.419747 605.12 
L 1368.835029 626.88 
L 1369.25031 626.88 
L 1369.665592 605.76 
L 1370.080873 626.88 
L 1371.326718 626.88 
L 1371.741999 605.76 
L 1372.157281 605.76 
L 1372.572563 626.24 
L 1372.987844 626.88 
L 1373.403126 605.12 
L 1373.818407 626.88 
L 1374.233689 626.88 
L 1374.64897 605.12 
L 1375.064252 626.24 
L 1375.479534 626.88 
L 1375.894815 626.88 
L 1376.310097 626.24 
L 1376.725378 626.88 
L 1377.14066 605.12 
L 1377.555941 626.24 
L 1377.971223 626.88 
L 1378.386505 626.88 
L 1378.801786 605.12 
L 1379.217068 626.88 
L 1379.632349 626.88 
L 1380.047631 626.24 
L 1380.462912 605.76 
L 1380.878194 626.88 
L 1381.293476 626.24 
L 1381.708757 626.88 
L 1382.124039 626.88 
L 1382.53932 605.76 
L 1382.954602 626.88 
L 1383.369883 626.88 
L 1383.785165 605.12 
L 1384.200447 626.88 
L 1385.446291 626.88 
L 1385.861573 605.12 
L 1386.276854 626.88 
L 1387.522699 626.88 
L 1387.937981 605.12 
L 1388.353262 626.24 
L 1388.768544 626.88 
L 1389.183825 605.12 
L 1389.599107 626.88 
L 1390.844952 626.88 
L 1391.260233 605.12 
L 1391.675515 626.88 
L 1392.921359 626.88 
L 1393.336641 603.2 
L 1393.751923 626.24 
L 1394.167204 605.76 
L 1394.582486 626.88 
L 1395.82833 626.88 
L 1396.243612 605.12 
L 1396.658894 626.24 
L 1397.074175 626.88 
L 1397.489457 626.88 
L 1397.904738 626.24 
L 1398.32002 605.12 
L 1398.735301 626.88 
L 1399.150583 626.88 
L 1399.565865 605.12 
L 1399.981146 626.88 
L 1400.811709 626.88 
L 1401.226991 605.12 
L 1401.642272 626.88 
L 1402.472836 626.88 
L 1402.888117 626.24 
L 1403.303399 604.48 
L 1403.71868 626.24 
L 1404.133962 605.76 
L 1404.549243 626.88 
L 1405.795088 626.88 
L 1406.21037 605.12 
L 1406.625651 626.88 
L 1407.040933 626.24 
L 1407.456214 626.24 
L 1407.871496 626.88 
L 1408.286777 605.76 
L 1408.702059 626.24 
L 1409.117341 178.88 
L 1409.532622 626.24 
L 1409.947904 605.76 
L 1410.363185 626.88 
L 1410.778467 626.88 
L 1411.193748 626.24 
L 1411.60903 626.88 
L 1412.024312 605.12 
L 1412.439593 626.88 
L 1412.854875 626.88 
L 1413.270156 626.24 
L 1413.685438 605.12 
L 1414.100719 626.24 
L 1414.516001 626.88 
L 1414.931283 626.88 
L 1415.346564 605.12 
L 1415.761846 626.88 
L 1416.177127 626.24 
L 1416.592409 626.88 
L 1417.00769 626.88 
L 1417.422972 605.12 
L 1417.838254 626.24 
L 1418.253535 626.88 
L 1418.668817 605.12 
L 1419.084098 626.88 
L 1420.329943 626.88 
L 1420.745225 605.76 
L 1421.160506 626.88 
L 1421.575788 626.88 
L 1421.991069 626.24 
L 1422.406351 626.24 
L 1422.821632 605.76 
L 1423.236914 626.88 
L 1423.652195 626.88 
L 1424.067477 605.12 
L 1424.482759 626.24 
L 1424.89804 626.88 
L 1425.728603 626.88 
L 1426.143885 605.12 
L 1426.559166 626.88 
L 1428.220293 626.88 
L 1428.635574 605.12 
L 1429.050856 626.88 
L 1429.466137 626.24 
L 1429.881419 584.64 
L 1430.296701 626.24 
L 1430.711982 626.88 
L 1431.542545 626.88 
L 1431.957827 605.76 
L 1432.373108 626.88 
L 1432.78839 626.24 
L 1433.203672 605.76 
L 1433.618953 626.24 
L 1434.034235 626.88 
L 1434.864798 626.88 
L 1435.280079 605.12 
L 1435.695361 626.88 
L 1436.110643 626.24 
L 1436.525924 626.88 
L 1436.941206 626.88 
L 1437.356487 605.76 
L 1437.771769 626.88 
L 1438.18705 626.88 
L 1438.602332 626.24 
L 1439.017613 605.12 
L 1439.432895 626.88 
L 1439.848177 626.24 
L 1440.263458 626.24 
L 1440.67874 626.88 
L 1441.094021 605.76 
L 1441.509303 626.88 
L 1442.339866 626.88 
L 1442.755148 605.12 
L 1443.170429 626.88 
L 1443.585711 626.88 
L 1444.000992 605.76 
L 1444.416274 626.88 
L 1444.831555 626.24 
L 1445.246837 626.88 
L 1445.662119 626.88 
L 1446.0774 604.48 
L 1446.492682 626.88 
L 1446.907963 626.24 
L 1447.323245 626.24 
L 1447.738526 626.88 
L 1448.153808 605.76 
L 1448.56909 626.88 
L 1448.984371 626.88 
L 1449.399653 605.12 
L 1449.814934 626.88 
L 1451.060779 626.88 
L 1451.476061 605.12 
L 1451.891342 626.88 
L 1452.306624 626.24 
L 1452.721905 626.88 
L 1453.137187 626.88 
L 1453.552468 605.76 
L 1453.96775 626.88 
L 1454.798313 626.88 
L 1455.213595 605.12 
L 1455.628876 626.24 
L 1456.044158 626.88 
L 1456.459439 626.88 
L 1456.874721 626.24 
L 1457.290002 626.88 
L 1457.705284 605.12 
L 1458.120566 626.88 
L 1458.535847 626.88 
L 1458.951129 605.76 
L 1459.36641 626.88 
L 1460.612255 626.88 
L 1461.027537 605.12 
L 1461.442818 626.88 
L 1462.688663 626.88 
L 1463.103944 605.76 
L 1463.519226 626.88 
L 1463.934508 626.88 
L 1464.349789 605.12 
L 1464.765071 626.88 
L 1466.010915 626.88 
L 1466.426197 626.24 
L 1466.841479 605.12 
L 1467.25676 626.88 
L 1467.672042 626.88 
L 1468.087323 626.24 
L 1468.502605 605.12 
L 1468.917886 626.88 
L 1470.163731 626.88 
L 1470.579013 605.12 
L 1470.994294 626.24 
L 1471.409576 626.24 
L 1471.824857 626.88 
L 1472.65542 626.88 
L 1473.070702 605.76 
L 1473.485984 626.24 
L 1473.901265 626.88 
L 1474.316547 626.88 
L 1474.731828 605.76 
L 1475.14711 626.88 
L 1475.977673 626.88 
L 1476.392955 626.24 
L 1476.808236 626.88 
L 1477.223518 605.12 
L 1477.638799 626.88 
L 1478.054081 626.24 
L 1478.469362 626.88 
L 1478.884644 605.12 
L 1479.299926 626.88 
L 1479.715207 626.24 
L 1480.130489 626.88 
L 1480.961052 626.88 
L 1481.376333 605.76 
L 1481.791615 626.88 
L 1482.206897 605.12 
L 1482.622178 626.24 
L 1483.03746 605.12 
L 1483.452741 626.88 
L 1483.868023 626.88 
L 1484.283304 626.24 
L 1484.698586 605.12 
L 1485.113868 626.88 
L 1486.774994 626.88 
L 1487.190275 605.76 
L 1487.605557 626.88 
L 1488.020838 626.88 
L 1488.43612 605.12 
L 1488.851402 626.88 
L 1489.681965 626.88 
L 1490.097246 626.24 
L 1490.512528 626.88 
L 1490.927809 605.12 
L 1491.343091 626.24 
L 1491.758373 626.24 
L 1492.173654 626.88 
L 1492.588936 626.88 
L 1493.004217 626.24 
L 1493.419499 605.12 
L 1493.83478 626.88 
L 1494.250062 626.24 
L 1494.665344 605.12 
L 1495.080625 626.24 
L 1495.495907 626.24 
L 1495.911188 626.88 
L 1496.32647 626.24 
L 1496.741751 626.24 
L 1497.157033 605.12 
L 1497.572315 626.88 
L 1497.987596 626.24 
L 1498.402878 605.76 
L 1498.818159 626.88 
L 1500.479286 626.88 
L 1500.894567 605.12 
L 1501.309849 626.88 
L 1502.140412 626.88 
L 1502.555693 626.24 
L 1502.970975 626.24 
L 1503.386257 604.48 
L 1503.801538 626.88 
L 1504.21682 626.88 
L 1504.632101 605.12 
L 1505.047383 626.24 
L 1505.462664 626.88 
L 1505.877946 626.24 
L 1506.293227 626.88 
L 1506.708509 626.88 
L 1507.123791 604.48 
L 1507.539072 626.88 
L 1508.369635 626.88 
L 1508.784917 605.76 
L 1509.200198 626.88 
L 1509.61548 626.88 
L 1510.030762 626.24 
L 1510.446043 626.88 
L 1510.861325 626.88 
L 1511.276606 605.76 
L 1511.691888 626.88 
L 1512.107169 626.88 
L 1512.522451 626.24 
L 1512.937733 626.88 
L 1513.353014 605.12 
L 1513.768296 626.24 
L 1514.183577 626.88 
L 1514.598859 626.24 
L 1515.01414 604.48 
L 1515.429422 626.88 
L 1517.090548 626.88 
L 1517.50583 605.12 
L 1517.921111 626.88 
L 1518.336393 605.12 
L 1518.751675 626.88 
L 1519.582238 626.88 
L 1519.997519 626.24 
L 1520.412801 605.12 
L 1520.828082 626.24 
L 1521.243364 626.88 
L 1521.658645 626.24 
L 1522.073927 626.88 
L 1522.489209 626.88 
L 1522.90449 604.48 
L 1523.319772 626.88 
L 1523.735053 626.24 
L 1524.150335 605.12 
L 1524.565616 626.88 
L 1525.811461 626.88 
L 1526.226743 605.12 
L 1526.642024 626.88 
L 1527.057306 626.24 
L 1527.472587 626.88 
L 1527.887869 626.24 
L 1528.303151 605.12 
L 1528.718432 626.88 
L 1529.548995 626.88 
L 1529.964277 605.12 
L 1530.379558 626.88 
L 1530.79484 605.12 
L 1531.210122 605.12 
L 1531.625403 626.24 
L 1532.040685 626.88 
L 1532.455966 626.88 
L 1532.871248 626.24 
L 1533.286529 605.76 
L 1533.701811 626.88 
L 1534.117093 192.96 
L 1534.532374 626.24 
L 1534.947656 626.24 
L 1535.362937 605.12 
L 1535.778219 626.24 
L 1536.1935 626.88 
L 1536.608782 626.88 
L 1537.024064 626.24 
L 1537.439345 626.88 
L 1537.854627 605.12 
L 1538.269908 626.88 
L 1539.100471 626.88 
L 1539.515753 605.12 
L 1539.931034 626.88 
L 1540.346316 626.24 
L 1540.761598 626.88 
L 1541.592161 626.88 
L 1542.007442 605.12 
L 1542.422724 626.24 
L 1542.838005 626.88 
L 1543.253287 626.88 
L 1543.668569 605.76 
L 1544.08385 626.24 
L 1544.499132 626.88 
L 1545.329695 626.88 
L 1545.744976 605.12 
L 1546.160258 626.88 
L 1546.57554 626.88 
L 1546.990821 626.24 
L 1547.406103 626.88 
L 1547.821384 626.24 
L 1548.236666 605.12 
L 1548.651947 626.88 
L 1549.067229 626.88 
L 1549.482511 605.12 
L 1549.897792 626.88 
L 1550.313074 626.24 
L 1550.728355 626.88 
L 1551.558918 626.88 
L 1551.9742 605.12 
L 1552.389482 626.88 
L 1552.804763 626.88 
L 1553.220045 604.48 
L 1553.635326 626.88 
L 1555.296452 626.88 
L 1555.711734 605.12 
L 1556.127016 626.24 
L 1556.542297 626.24 
L 1556.957579 626.88 
L 1557.788142 626.88 
L 1558.203423 605.76 
L 1558.618705 626.88 
L 1559.033987 626.88 
L 1559.449268 626.24 
L 1559.86455 605.76 
L 1560.279831 626.24 
L 1560.695113 626.88 
L 1561.525676 626.88 
L 1561.940958 605.12 
L 1562.356239 626.88 
L 1562.771521 626.24 
L 1563.186802 626.88 
L 1563.602084 605.12 
L 1564.017365 626.88 
L 1564.432647 626.88 
L 1564.847929 626.24 
L 1565.26321 626.24 
L 1565.678492 605.12 
L 1566.093773 626.24 
L 1566.509055 626.88 
L 1567.339618 626.88 
L 1567.7549 626.24 
L 1568.170181 605.12 
L 1568.585463 626.24 
L 1569.000744 626.88 
L 1569.416026 626.88 
L 1569.831307 604.48 
L 1570.246589 626.24 
L 1570.661871 626.24 
L 1571.077152 626.88 
L 1571.492434 626.24 
L 1571.907715 626.88 
L 1572.322997 605.12 
L 1572.738278 626.24 
L 1573.15356 626.24 
L 1573.568841 605.12 
L 1573.984123 626.88 
L 1574.399405 626.88 
L 1574.814686 626.24 
L 1575.229968 626.88 
L 1575.645249 605.12 
L 1576.060531 626.88 
L 1577.721657 626.88 
L 1578.136939 605.12 
L 1578.55222 626.88 
L 1578.967502 626.24 
L 1579.382783 584 
L 1579.798065 626.88 
L 1580.213347 626.88 
L 1580.628628 605.76 
L 1581.04391 626.88 
L 1581.459191 626.88 
L 1581.874473 626.24 
L 1582.289754 626.24 
L 1582.705036 626.88 
L 1583.120318 605.76 
L 1583.535599 626.88 
L 1583.950881 626.24 
L 1584.366162 605.12 
L 1584.781444 626.88 
L 1585.196725 626.24 
L 1585.612007 626.24 
L 1586.027289 626.88 
L 1586.44257 626.24 
L 1586.857852 604.48 
L 1587.273133 626.88 
L 1587.688415 626.88 
L 1588.103696 605.12 
L 1588.518978 626.88 
L 1590.180104 626.88 
L 1590.595386 605.12 
L 1591.010667 626.88 
L 1591.425949 626.24 
L 1591.84123 626.24 
L 1592.256512 626.88 
L 1592.671794 605.12 
L 1593.087075 626.88 
L 1593.502357 626.24 
L 1593.917638 626.88 
L 1594.33292 605.76 
L 1594.748201 626.24 
L 1595.163483 626.88 
L 1595.578765 626.24 
L 1595.994046 626.88 
L 1596.409328 605.76 
L 1596.824609 626.24 
L 1597.655172 626.24 
L 1598.070454 605.12 
L 1598.485736 626.24 
L 1598.901017 626.24 
L 1599.316299 626.88 
L 1599.73158 626.88 
L 1600.146862 604.48 
L 1600.562143 626.88 
L 1602.22327 626.88 
L 1602.638551 605.12 
L 1603.053833 626.88 
L 1603.469114 626.88 
L 1603.884396 605.12 
L 1604.299678 626.88 
L 1605.130241 626.88 
L 1605.545522 626.24 
L 1605.960804 605.76 
L 1606.376085 626.24 
L 1606.791367 626.88 
L 1607.62193 626.88 
L 1608.037212 605.12 
L 1608.452493 626.24 
L 1608.867775 626.88 
L 1609.283056 626.24 
L 1609.698338 605.76 
L 1610.113619 626.88 
L 1611.774746 626.88 
L 1612.190027 605.12 
L 1612.605309 626.88 
L 1613.435872 626.88 
L 1613.851154 605.76 
L 1614.266435 626.88 
L 1615.096998 626.88 
L 1615.51228 626.24 
L 1615.927561 626.88 
L 1616.342843 605.76 
L 1616.758125 626.88 
L 1617.173406 626.24 
L 1617.588688 626.88 
L 1618.003969 605.76 
L 1618.419251 626.88 
L 1618.834532 626.88 
L 1619.249814 626.24 
L 1619.665096 626.88 
L 1620.080377 605.12 
L 1620.495659 626.88 
L 1620.91094 626.88 
L 1621.326222 626.24 
L 1621.741503 626.24 
L 1622.156785 605.12 
L 1622.572066 626.88 
L 1622.987348 626.24 
L 1623.40263 626.88 
L 1623.817911 605.12 
L 1624.233193 626.88 
L 1625.894319 626.88 
L 1626.309601 605.12 
L 1626.724882 626.88 
L 1627.140164 626.24 
L 1627.555445 605.76 
L 1627.970727 626.88 
L 1629.631853 626.88 
L 1630.047135 626.24 
L 1630.462416 605.12 
L 1630.877698 626.88 
L 1631.292979 626.24 
L 1631.708261 626.88 
L 1632.123543 626.88 
L 1632.538824 584 
L 1632.954106 626.24 
L 1633.369387 605.12 
L 1633.784669 626.88 
L 1635.445795 626.88 
L 1635.861077 605.12 
L 1636.276358 626.24 
L 1636.69164 626.24 
L 1637.106921 626.88 
L 1637.522203 626.88 
L 1637.937485 605.12 
L 1638.352766 626.88 
L 1638.768048 626.24 
L 1639.183329 605.76 
L 1639.598611 626.88 
L 1640.844455 626.88 
L 1641.259737 605.12 
L 1641.675019 626.24 
L 1642.0903 626.88 
L 1642.505582 626.88 
L 1642.920863 605.76 
L 1643.336145 626.88 
L 1643.751426 626.88 
L 1644.166708 626.24 
L 1644.58199 626.24 
L 1644.997271 605.12 
L 1645.412553 626.88 
L 1647.073679 626.88 
L 1647.488961 605.12 
L 1647.904242 626.88 
L 1648.319524 626.88 
L 1648.734805 605.12 
L 1649.150087 626.88 
L 1649.565368 192.96 
L 1649.98065 626.24 
L 1650.395932 626.88 
L 1650.811213 605.12 
L 1651.226495 626.88 
L 1652.472339 626.88 
L 1652.887621 605.12 
L 1653.302903 626.88 
L 1653.718184 626.24 
L 1654.133466 626.24 
L 1654.548747 605.76 
L 1654.964029 626.24 
L 1655.37931 626.88 
L 1655.794592 626.24 
L 1656.209873 626.88 
L 1656.625155 626.88 
L 1657.040437 604.48 
L 1657.455718 626.24 
L 1657.871 626.88 
L 1658.286281 605.12 
L 1658.701563 626.24 
L 1659.532126 626.24 
L 1659.947408 626.88 
L 1660.362689 626.24 
L 1660.777971 605.12 
L 1661.193252 626.88 
L 1661.608534 626.24 
L 1662.439097 626.24 
L 1662.854379 605.12 
L 1663.26966 626.24 
L 1663.684942 626.88 
L 1664.100223 626.24 
L 1664.515505 605.12 
L 1664.930786 626.88 
L 1665.346068 626.88 
L 1665.76135 626.24 
L 1666.176631 626.88 
L 1666.591913 626.88 
L 1667.007194 605.12 
L 1667.422476 626.88 
L 1667.837757 626.88 
L 1668.253039 604.48 
L 1668.668321 626.88 
L 1669.083602 626.24 
L 1669.914165 626.24 
L 1670.329447 626.88 
L 1670.744728 605.12 
L 1671.16001 626.88 
L 1671.575291 626.24 
L 1671.990573 626.88 
L 1672.405855 605.12 
L 1672.821136 626.24 
L 1673.236418 626.88 
L 1674.482262 626.88 
L 1674.897544 605.76 
L 1675.312826 626.88 
L 1675.728107 626.24 
L 1676.143389 626.88 
L 1676.55867 626.88 
L 1676.973952 604.48 
L 1677.389233 626.88 
L 1677.804515 626.24 
L 1678.219797 605.12 
L 1678.635078 626.24 
L 1679.05036 626.24 
L 1679.465641 626.88 
L 1680.296204 626.88 
L 1680.711486 605.76 
L 1681.126768 626.88 
L 1681.542049 626.24 
L 1681.957331 626.24 
L 1682.372612 626.88 
L 1682.787894 605.12 
L 1683.203175 626.88 
L 1683.618457 626.88 
L 1684.033739 626.24 
L 1684.44902 626.88 
L 1684.864302 605.12 
L 1685.279583 626.88 
L 1685.694865 626.24 
L 1686.110146 605.76 
L 1686.525428 605.12 
L 1686.94071 626.88 
L 1687.355991 626.88 
L 1687.771273 605.12 
L 1688.186554 626.88 
L 1689.017117 626.88 
L 1689.432399 626.24 
L 1689.84768 626.88 
L 1690.262962 605.12 
L 1690.678244 626.24 
L 1691.093525 626.88 
L 1691.924088 626.88 
L 1692.33937 605.76 
L 1692.754651 626.88 
L 1693.585215 626.88 
L 1694.000496 605.12 
L 1694.415778 626.88 
L 1694.831059 626.88 
L 1695.246341 626.24 
L 1695.661622 626.88 
L 1696.076904 605.12 
L 1696.492186 626.88 
L 1696.907467 626.88 
L 1697.322749 626.24 
L 1697.73803 604.48 
L 1698.153312 626.24 
L 1698.568593 626.88 
L 1698.983875 626.24 
L 1699.399157 605.12 
L 1699.814438 626.88 
L 1700.22972 626.24 
L 1700.645001 626.24 
L 1701.060283 626.88 
L 1701.475564 605.12 
L 1701.890846 626.88 
L 1702.306128 626.88 
L 1702.721409 604.48 
L 1703.136691 626.88 
L 1704.382535 626.88 
L 1704.797817 605.76 
L 1705.213098 626.24 
L 1705.62838 626.88 
L 1706.043662 626.88 
L 1706.458943 626.24 
L 1706.874225 605.12 
L 1707.289506 626.24 
L 1707.704788 626.88 
L 1708.120069 626.88 
L 1708.535351 605.76 
L 1708.950633 626.88 
L 1709.365914 626.24 
L 1709.781196 626.88 
L 1710.196477 626.88 
L 1710.611759 604.48 
L 1711.02704 626.88 
L 1711.442322 626.88 
L 1711.857604 626.24 
L 1712.272885 626.24 
L 1712.688167 605.12 
L 1713.103448 626.88 
L 1713.51873 626.88 
L 1713.934011 605.12 
L 1714.349293 626.88 
L 1715.595138 626.88 
L 1716.010419 626.24 
L 1716.425701 605.76 
L 1716.840982 626.88 
L 1717.256264 626.88 
L 1717.671546 605.76 
L 1718.086827 626.24 
L 1718.502109 626.88 
L 1719.747953 626.88 
L 1720.163235 605.12 
L 1720.578516 626.24 
L 1720.993798 626.88 
L 1721.824361 626.88 
L 1722.239643 604.48 
L 1722.654924 626.88 
L 1723.070206 626.88 
L 1723.485487 605.76 
L 1723.900769 626.88 
L 1724.731332 626.88 
L 1725.146614 626.24 
L 1725.561895 605.12 
L 1725.977177 626.24 
L 1726.392458 626.88 
L 1726.80774 626.88 
L 1727.223022 605.12 
L 1727.638303 626.24 
L 1728.053585 626.88 
L 1728.884148 626.88 
L 1729.299429 605.76 
L 1729.714711 626.24 
L 1730.129993 626.88 
L 1730.545274 626.24 
L 1730.960556 626.88 
L 1731.375837 605.76 
L 1731.791119 626.24 
L 1732.2064 626.24 
L 1732.621682 626.88 
L 1733.036964 605.12 
L 1733.452245 626.88 
L 1733.867527 626.88 
L 1734.282808 626.24 
L 1734.69809 626.24 
L 1735.113371 605.12 
L 1735.528653 626.88 
L 1735.943935 626.24 
L 1736.359216 626.88 
L 1737.189779 626.88 
L 1737.605061 604.48 
L 1738.435624 605.76 
L 1738.850905 626.88 
L 1739.681469 626.88 
L 1740.09675 626.24 
L 1740.512032 605.76 
L 1740.927313 626.88 
L 1741.757876 626.88 
L 1742.173158 626.24 
L 1742.58844 605.12 
L 1743.003721 626.88 
L 1743.834284 626.88 
L 1744.249566 605.12 
L 1744.664847 626.88 
L 1745.910692 626.88 
L 1746.325974 605.12 
L 1746.741255 626.88 
L 1747.156537 626.88 
L 1747.571818 626.24 
L 1747.9871 605.12 
L 1748.402382 626.24 
L 1748.817663 626.88 
L 1749.648226 626.88 
L 1750.063508 605.76 
L 1750.478789 626.24 
L 1750.894071 626.88 
L 1751.309353 626.24 
L 1751.724634 626.88 
L 1752.139916 626.88 
L 1752.555197 605.76 
L 1752.970479 626.24 
L 1753.38576 626.88 
L 1753.801042 626.88 
L 1754.216323 605.76 
L 1754.631605 626.24 
L 1755.046887 626.88 
L 1755.462168 626.24 
L 1755.87745 626.88 
L 1756.292731 605.76 
L 1756.708013 626.24 
L 1757.123294 626.88 
L 1757.538576 605.76 
L 1757.953858 626.88 
L 1758.784421 626.88 
L 1759.199702 626.24 
L 1759.614984 626.88 
L 1760.030265 605.76 
L 1760.445547 626.88 
L 1761.27611 626.88 
L 1761.691392 626.24 
L 1762.106673 605.76 
L 1762.521955 626.88 
L 1762.937236 626.88 
L 1763.352518 605.12 
L 1763.7678 626.88 
L 1764.183081 626.24 
L 1764.598363 626.88 
L 1765.013644 626.24 
L 1765.428926 626.88 
L 1765.844207 605.12 
L 1766.259489 626.88 
L 1766.674771 626.88 
L 1767.090052 605.76 
L 1767.505334 626.88 
L 1767.920615 626.88 
L 1768.335897 626.24 
L 1768.751178 626.88 
L 1769.16646 135.36 
L 1769.581742 626.88 
L 1770.412305 626.88 
L 1770.827586 605.12 
L 1771.242868 626.88 
L 1771.658149 626.88 
L 1772.073431 626.24 
L 1772.488712 605.76 
L 1772.903994 626.88 
L 1773.319276 626.24 
L 1773.734557 626.88 
L 1774.56512 626.88 
L 1774.980402 605.12 
L 1775.395683 626.88 
L 1775.810965 626.88 
L 1776.226247 626.24 
L 1776.641528 626.24 
L 1777.05681 626.88 
L 1777.472091 605.12 
L 1777.887373 626.88 
L 1778.302654 626.88 
L 1778.717936 626.24 
L 1779.133218 605.12 
L 1779.548499 626.88 
L 1779.963781 626.24 
L 1780.379062 626.88 
L 1780.794344 626.24 
L 1781.209625 626.88 
L 1781.624907 605.76 
L 1782.040189 626.88 
L 1782.45547 626.88 
L 1782.870752 605.12 
L 1783.286033 626.88 
L 1784.94716 626.88 
L 1785.362441 605.76 
L 1785.777723 626.24 
L 1786.608286 626.24 
L 1787.023567 626.88 
L 1787.438849 605.76 
L 1787.85413 626.88 
L 1789.099975 626.88 
L 1789.515257 584 
L 1789.930538 626.88 
L 1790.34582 626.24 
L 1790.761101 626.88 
L 1791.176383 626.24 
L 1791.591665 605.12 
L 1792.006946 626.88 
L 1792.422228 626.24 
L 1792.837509 626.24 
L 1793.252791 605.76 
L 1793.668072 626.88 
L 1794.913917 626.88 
L 1795.329199 626.24 
L 1795.74448 605.76 
L 1796.159762 626.88 
L 1796.575043 626.88 
L 1796.990325 626.24 
L 1797.405607 605.76 
L 1797.820888 626.88 
L 1798.651451 626.88 
L 1799.066733 626.24 
L 1799.482014 626.24 
L 1799.897296 605.76 
L 1800.312578 626.24 
L 1800.727859 626.88 
L 1801.143141 626.88 
L 1801.558422 626.24 
L 1801.973704 626.24 
L 1802.388985 605.12 
L 1802.804267 626.88 
L 1803.219549 626.88 
L 1803.63483 605.12 
L 1804.050112 626.24 
L 1804.465393 626.88 
L 1804.880675 626.88 
L 1805.295956 626.24 
L 1805.711238 626.24 
L 1806.126519 605.12 
L 1806.541801 626.88 
L 1807.372364 626.88 
L 1807.787646 605.76 
L 1808.202927 626.88 
L 1809.03349 626.88 
L 1809.448772 626.24 
L 1809.864054 605.76 
L 1810.279335 626.88 
L 1811.109898 626.88 
L 1811.52518 626.24 
L 1811.940461 626.88 
L 1812.355743 605.12 
L 1812.771025 626.88 
L 1813.601588 626.88 
L 1814.016869 605.12 
L 1814.432151 626.88 
L 1815.677996 626.88 
L 1816.093277 605.76 
L 1816.508559 626.24 
L 1816.92384 626.88 
L 1817.339122 605.12 
L 1817.754403 626.88 
L 1818.169685 626.88 
L 1818.584967 626.24 
L 1819.000248 626.88 
L 1819.41553 626.88 
L 1819.830811 605.12 
L 1820.246093 626.88 
L 1821.491937 626.88 
L 1821.907219 626.24 
L 1822.322501 605.12 
L 1822.737782 626.88 
L 1823.153064 626.88 
L 1823.568345 626.24 
L 1823.983627 604.48 
L 1824.398908 626.88 
L 1825.644753 626.88 
L 1826.060035 605.12 
L 1826.475316 626.24 
L 1826.890598 626.88 
L 1827.305879 626.88 
L 1827.721161 605.76 
L 1828.136443 626.24 
L 1828.551724 626.88 
L 1829.382287 626.88 
L 1829.797569 605.12 
L 1830.21285 626.88 
L 1830.628132 626.24 
L 1831.043414 626.24 
L 1831.458695 626.88 
L 1831.873977 626.88 
L 1832.289258 605.76 
L 1832.70454 626.88 
L 1833.950385 626.88 
L 1834.365666 605.76 
L 1834.780948 626.24 
L 1835.196229 626.88 
L 1835.611511 626.24 
L 1836.026792 626.88 
L 1836.442074 626.24 
L 1836.857356 605.12 
L 1837.272637 626.24 
L 1837.687919 626.24 
L 1838.1032 605.12 
L 1838.518482 626.88 
L 1838.933763 626.24 
L 1839.349045 626.88 
L 1840.179608 626.88 
L 1840.59489 605.12 
L 1841.010171 626.88 
L 1841.840734 626.88 
L 1842.256016 605.12 
L 1842.671297 626.88 
L 1843.501861 626.88 
L 1843.917142 626.24 
L 1844.332424 605.76 
L 1844.747705 626.88 
L 1846.408832 626.88 
L 1846.824113 605.12 
L 1847.239395 626.24 
L 1847.654676 584 
L 1848.069958 626.88 
L 1849.315803 626.88 
L 1849.731084 605.12 
L 1850.146366 626.88 
L 1850.561647 626.24 
L 1851.39221 626.24 
L 1851.807492 626.88 
L 1852.222774 605.76 
L 1852.638055 626.88 
L 1853.468618 626.88 
L 1853.8839 605.12 
L 1854.299181 626.88 
L 1854.714463 626.88 
L 1855.129744 626.24 
L 1855.545026 626.88 
L 1855.960308 605.12 
L 1856.375589 626.88 
L 1856.790871 626.24 
L 1857.206152 626.88 
L 1857.621434 604.48 
L 1858.036715 626.24 
L 1858.867279 626.24 
L 1859.28256 626.88 
L 1859.697842 626.88 
L 1860.113123 605.76 
L 1860.528405 626.88 
L 1860.943686 626.88 
L 1861.358968 626.24 
L 1861.77425 605.12 
L 1862.189531 626.88 
L 1863.850657 626.88 
L 1864.265939 605.12 
L 1864.681221 626.24 
L 1865.096502 626.88 
L 1865.927065 626.88 
L 1866.342347 605.76 
L 1866.757628 626.88 
L 1867.17291 626.24 
L 1867.588192 626.88 
L 1868.003473 605.12 
L 1868.418755 626.88 
L 1868.834036 626.24 
L 1869.249318 626.88 
L 1869.664599 626.24 
L 1870.079881 605.12 
L 1870.495163 626.24 
L 1870.910444 626.88 
L 1871.325726 626.24 
L 1871.741007 605.12 
L 1872.156289 626.88 
L 1872.57157 626.24 
L 1872.986852 626.88 
L 1873.402133 626.88 
L 1873.817415 626.24 
L 1874.232697 605.76 
L 1874.647978 626.88 
L 1875.893823 626.88 
L 1876.309104 605.12 
L 1876.724386 626.88 
L 1877.139668 626.88 
L 1877.554949 626.24 
L 1877.970231 605.76 
L 1878.385512 626.88 
L 1879.631357 626.88 
L 1880.046639 605.12 
L 1880.46192 626.88 
L 1881.292483 626.88 
L 1881.707765 626.24 
L 1882.123046 605.76 
L 1882.538328 626.24 
L 1882.95361 626.88 
L 1883.784173 626.88 
L 1884.199454 605.76 
L 1884.614736 626.24 
L 1885.030017 626.88 
L 1885.860581 626.88 
L 1886.275862 605.76 
L 1886.691144 626.88 
L 1887.106425 626.88 
L 1887.521707 605.12 
L 1887.936988 626.24 
L 1888.35227 626.24 
L 1888.767551 206.4 
L 1889.182833 605.12 
L 1889.598115 626.88 
L 1890.843959 626.88 
L 1891.259241 605.12 
L 1891.674522 626.88 
L 1892.089804 626.24 
L 1892.505086 626.88 
L 1892.920367 605.12 
L 1893.335649 626.24 
L 1893.75093 626.24 
L 1894.166212 626.88 
L 1894.996775 626.88 
L 1895.412057 583.36 
L 1895.827338 626.88 
L 1896.657901 626.88 
L 1897.073183 604.48 
L 1897.488464 626.88 
L 1897.903746 626.88 
L 1898.319028 626.24 
L 1898.734309 604.48 
L 1899.149591 626.88 
L 1899.564872 626.88 
L 1899.980154 626.24 
L 1900.395435 626.88 
L 1900.810717 626.88 
L 1901.225999 605.12 
L 1901.64128 626.88 
L 1902.056562 626.88 
L 1902.471843 605.76 
L 1902.887125 626.24 
L 1903.302406 626.88 
L 1903.717688 626.24 
L 1904.132969 626.24 
L 1904.548251 626.88 
L 1904.963533 605.76 
L 1905.378814 626.88 
L 1905.794096 626.24 
L 1906.209377 626.88 
L 1906.624659 626.88 
L 1907.03994 605.12 
L 1907.455222 626.88 
L 1907.870504 626.88 
L 1908.285785 626.24 
L 1908.701067 626.88 
L 1909.116348 605.76 
L 1909.53163 626.88 
L 1910.362193 626.88 
L 1910.777475 626.24 
L 1911.192756 626.24 
L 1911.608038 605.12 
L 1912.023319 626.24 
L 1912.438601 626.88 
L 1912.853882 626.24 
L 1913.269164 605.76 
L 1913.684446 626.88 
L 1914.099727 626.24 
L 1914.515009 626.88 
L 1914.93029 626.24 
L 1915.345572 605.12 
L 1915.760853 626.24 
L 1916.176135 626.88 
L 1916.591417 626.88 
L 1917.006698 605.76 
L 1917.42198 626.88 
L 1917.837261 626.88 
L 1918.252543 626.24 
L 1918.667824 626.88 
L 1919.083106 626.24 
L 1919.498387 605.12 
L 1919.913669 626.88 
L 1921.159514 626.88 
L 1921.574795 605.12 
L 1921.990077 626.88 
L 1922.82064 626.88 
L 1923.235922 605.12 
L 1923.651203 626.24 
L 1924.066485 626.88 
L 1924.481766 626.24 
L 1925.312329 626.24 
L 1925.727611 605.76 
L 1926.142893 626.88 
L 1926.973456 626.88 
L 1927.388737 605.12 
L 1927.804019 626.24 
L 1928.2193 626.88 
L 1928.634582 626.24 
L 1929.049864 626.88 
L 1929.465145 605.12 
L 1929.880427 626.88 
L 1930.71099 626.88 
L 1931.126271 626.24 
L 1931.541553 626.88 
L 1931.956835 605.12 
L 1932.372116 626.24 
L 1932.787398 626.88 
L 1933.202679 605.12 
L 1933.617961 626.88 
L 1934.033242 626.88 
L 1934.448524 626.24 
L 1934.863806 626.88 
L 1935.279087 626.24 
L 1935.694369 605.76 
L 1936.10965 626.24 
L 1936.524932 626.88 
L 1936.940213 605.12 
L 1937.355495 626.88 
L 1937.770776 626.88 
L 1938.186058 626.24 
L 1939.016621 626.24 
L 1939.431903 605.12 
L 1939.847184 626.24 
L 1940.262466 626.88 
L 1941.508311 626.88 
L 1941.923592 605.12 
L 1942.338874 626.88 
L 1942.754155 626.24 
L 1943.169437 605.12 
L 1943.584718 626.24 
L 1944 626.24 
L 1944 626.24 
" style="fill:none;stroke:#0000ff;stroke-linecap:square;"/>
   </g>
   <g id="line2d_2">
    <defs>
     <path d="M 0 3 
C 0.795609 3 1.55874 2.683901 2.12132 2.12132 
C 2.683901 1.55874 3 0.795609 3 0 
C 3 -0.795609 2.683901 -1.55874 2.12132 -2.12132 
C 1.55874 -2.683901 0.795609 -3 0 -3 
C -0.795609 -3 -1.55874 -2.683901 -2.12132 -2.12132 
C -2.683901 -1.55874 -3 -0.795609 -3 0 
C -3 0.795609 -2.683901 1.55874 -2.12132 2.12132 
C -1.55874 2.683901 -0.795609 3 0 3 
z
" id="m76d5268a78" style="stroke:#000000;stroke-width:0.5;"/>
    </defs>
    <g clip-path="url(#pc4749205f4)">
     <use style="fill:#ff0000;stroke:#000000;stroke-width:0.5;" x="333.122798309" xlink:href="#m76d5268a78" y="200.0"/>
     <use style="fill:#ff0000;stroke:#000000;stroke-width:0.5;" x="573.570826098" xlink:href="#m76d5268a78" y="221.12"/>
     <use style="fill:#ff0000;stroke:#000000;stroke-width:0.5;" x="1769.16645993" xlink:href="#m76d5268a78" y="135.36"/>
    </g>
   </g>
   <g id="patch_3">
    <path d="M 270 72 
L 1944 72 
" style="fill:none;stroke:#000000;stroke-linecap:square;stroke-linejoin:miter;"/>
   </g>
   <g id="patch_4">
    <path d="M 1944 648 
L 1944 72 
" style="fill:none;stroke:#000000;stroke-linecap:square;stroke-linejoin:miter;"/>
   </g>
   <g id="patch_5">
    <path d="M 270 648 
L 1944 648 
" style="fill:none;stroke:#000000;stroke-linecap:square;stroke-linejoin:miter;"/>
   </g>
   <g id="patch_6">
    <path d="M 270 648 
L 270 72 
" style="fill:none;stroke:#000000;stroke-linecap:square;stroke-linejoin:miter;"/>
   </g>
   <g id="matplotlib.axis_1">
    <g id="xtick_1">
     <g id="line2d_3">
      <defs>
       <path d="M 0 0 
L 0 -4 
" id="m013c716675" style="stroke:#000000;stroke-width:0.5;"/>
      </defs>
      <g>
       <use style="stroke:#000000;stroke-width:0.5;" x="437.026246592" xlink:href="#m013c716675" y="648.0"/>
      </g>
     </g>
     <g id="line2d_4">
      <defs>
       <path d="M 0 0 
L 0 4 
" id="mb1c2e3397f" style="stroke:#000000;stroke-width:0.5;"/>
      </defs>
      <g>
       <use style="stroke:#000000;stroke-width:0.5;" x="437.026246592" xlink:href="#mb1c2e3397f" y="72.0"/>
      </g>
     </g>
     <g id="text_1">
      <!-- Apr 04 2014 -->
      <defs>
       <path d="M 19.1875 8.296875 
L 53.609375 8.296875 
L 53.609375 0 
L 7.328125 0 
L 7.328125 8.296875 
Q 12.9375 14.109375 22.625 23.890625 
Q 32.328125 33.6875 34.8125 36.53125 
Q 39.546875 41.84375 41.421875 45.53125 
Q 43.3125 49.21875 43.3125 52.78125 
Q 43.3125 58.59375 39.234375 62.25 
Q 35.15625 65.921875 28.609375 65.921875 
Q 23.96875 65.921875 18.8125 64.3125 
Q 13.671875 62.703125 7.8125 59.421875 
L 7.8125 69.390625 
Q 13.765625 71.78125 18.9375 73 
Q 24.125 74.21875 28.421875 74.21875 
Q 39.75 74.21875 46.484375 68.546875 
Q 53.21875 62.890625 53.21875 53.421875 
Q 53.21875 48.921875 51.53125 44.890625 
Q 49.859375 40.875 45.40625 35.40625 
Q 44.1875 33.984375 37.640625 27.21875 
Q 31.109375 20.453125 19.1875 8.296875 
" id="BitstreamVeraSans-Roman-32"/>
       <path id="BitstreamVeraSans-Roman-20"/>
       <path d="M 31.78125 66.40625 
Q 24.171875 66.40625 20.328125 58.90625 
Q 16.5 51.421875 16.5 36.375 
Q 16.5 21.390625 20.328125 13.890625 
Q 24.171875 6.390625 31.78125 6.390625 
Q 39.453125 6.390625 43.28125 13.890625 
Q 47.125 21.390625 47.125 36.375 
Q 47.125 51.421875 43.28125 58.90625 
Q 39.453125 66.40625 31.78125 66.40625 
M 31.78125 74.21875 
Q 44.046875 74.21875 50.515625 64.515625 
Q 56.984375 54.828125 56.984375 36.375 
Q 56.984375 17.96875 50.515625 8.265625 
Q 44.046875 -1.421875 31.78125 -1.421875 
Q 19.53125 -1.421875 13.0625 8.265625 
Q 6.59375 17.96875 6.59375 36.375 
Q 6.59375 54.828125 13.0625 64.515625 
Q 19.53125 74.21875 31.78125 74.21875 
" id="BitstreamVeraSans-Roman-30"/>
       <path d="M 12.40625 8.296875 
L 28.515625 8.296875 
L 28.515625 63.921875 
L 10.984375 60.40625 
L 10.984375 69.390625 
L 28.421875 72.90625 
L 38.28125 72.90625 
L 38.28125 8.296875 
L 54.390625 8.296875 
L 54.390625 0 
L 12.40625 0 
z
" id="BitstreamVeraSans-Roman-31"/>
       <path d="M 37.796875 64.3125 
L 12.890625 25.390625 
L 37.796875 25.390625 
z
M 35.203125 72.90625 
L 47.609375 72.90625 
L 47.609375 25.390625 
L 58.015625 25.390625 
L 58.015625 17.1875 
L 47.609375 17.1875 
L 47.609375 0 
L 37.796875 0 
L 37.796875 17.1875 
L 4.890625 17.1875 
L 4.890625 26.703125 
z
" id="BitstreamVeraSans-Roman-34"/>
       <path d="M 34.1875 63.1875 
L 20.796875 26.90625 
L 47.609375 26.90625 
z
M 28.609375 72.90625 
L 39.796875 72.90625 
L 67.578125 0 
L 57.328125 0 
L 50.6875 18.703125 
L 17.828125 18.703125 
L 11.1875 0 
L 0.78125 0 
z
" id="BitstreamVeraSans-Roman-41"/>
       <path d="M 41.109375 46.296875 
Q 39.59375 47.171875 37.8125 47.578125 
Q 36.03125 48 33.890625 48 
Q 26.265625 48 22.1875 43.046875 
Q 18.109375 38.09375 18.109375 28.8125 
L 18.109375 0 
L 9.078125 0 
L 9.078125 54.6875 
L 18.109375 54.6875 
L 18.109375 46.1875 
Q 20.953125 51.171875 25.484375 53.578125 
Q 30.03125 56 36.53125 56 
Q 37.453125 56 38.578125 55.875 
Q 39.703125 55.765625 41.0625 55.515625 
z
" id="BitstreamVeraSans-Roman-72"/>
       <path d="M 18.109375 8.203125 
L 18.109375 -20.796875 
L 9.078125 -20.796875 
L 9.078125 54.6875 
L 18.109375 54.6875 
L 18.109375 46.390625 
Q 20.953125 51.265625 25.265625 53.625 
Q 29.59375 56 35.59375 56 
Q 45.5625 56 51.78125 48.09375 
Q 58.015625 40.1875 58.015625 27.296875 
Q 58.015625 14.40625 51.78125 6.484375 
Q 45.5625 -1.421875 35.59375 -1.421875 
Q 29.59375 -1.421875 25.265625 0.953125 
Q 20.953125 3.328125 18.109375 8.203125 
M 48.6875 27.296875 
Q 48.6875 37.203125 44.609375 42.84375 
Q 40.53125 48.484375 33.40625 48.484375 
Q 26.265625 48.484375 22.1875 42.84375 
Q 18.109375 37.203125 18.109375 27.296875 
Q 18.109375 17.390625 22.1875 11.75 
Q 26.265625 6.109375 33.40625 6.109375 
Q 40.53125 6.109375 44.609375 11.75 
Q 48.6875 17.390625 48.6875 27.296875 
" id="BitstreamVeraSans-Roman-70"/>
      </defs>
      <g transform="translate(399.927496592 661.118125)scale(0.12 -0.12)">
       <use xlink:href="#BitstreamVeraSans-Roman-41"/>
       <use x="68.408203125" xlink:href="#BitstreamVeraSans-Roman-70"/>
       <use x="131.884765625" xlink:href="#BitstreamVeraSans-Roman-72"/>
       <use x="172.998046875" xlink:href="#BitstreamVeraSans-Roman-20"/>
       <use x="204.78515625" xlink:href="#BitstreamVeraSans-Roman-30"/>
       <use x="268.408203125" xlink:href="#BitstreamVeraSans-Roman-34"/>
       <use x="332.03125" xlink:href="#BitstreamVeraSans-Roman-20"/>
       <use x="363.818359375" xlink:href="#BitstreamVeraSans-Roman-32"/>
       <use x="427.44140625" xlink:href="#BitstreamVeraSans-Roman-30"/>
       <use x="491.064453125" xlink:href="#BitstreamVeraSans-Roman-31"/>
       <use x="554.6875" xlink:href="#BitstreamVeraSans-Roman-34"/>
      </g>
     </g>
    </g>
    <g id="xtick_2">
     <g id="line2d_5">
      <g>
       <use style="stroke:#000000;stroke-width:0.5;" x="676.228429675" xlink:href="#m013c716675" y="648.0"/>
      </g>
     </g>
     <g id="line2d_6">
      <g>
       <use style="stroke:#000000;stroke-width:0.5;" x="676.228429675" xlink:href="#mb1c2e3397f" y="72.0"/>
      </g>
     </g>
     <g id="text_2">
      <!-- Apr 06 2014 -->
      <defs>
       <path d="M 33.015625 40.375 
Q 26.375 40.375 22.484375 35.828125 
Q 18.609375 31.296875 18.609375 23.390625 
Q 18.609375 15.53125 22.484375 10.953125 
Q 26.375 6.390625 33.015625 6.390625 
Q 39.65625 6.390625 43.53125 10.953125 
Q 47.40625 15.53125 47.40625 23.390625 
Q 47.40625 31.296875 43.53125 35.828125 
Q 39.65625 40.375 33.015625 40.375 
M 52.59375 71.296875 
L 52.59375 62.3125 
Q 48.875 64.0625 45.09375 64.984375 
Q 41.3125 65.921875 37.59375 65.921875 
Q 27.828125 65.921875 22.671875 59.328125 
Q 17.53125 52.734375 16.796875 39.40625 
Q 19.671875 43.65625 24.015625 45.921875 
Q 28.375 48.1875 33.59375 48.1875 
Q 44.578125 48.1875 50.953125 41.515625 
Q 57.328125 34.859375 57.328125 23.390625 
Q 57.328125 12.15625 50.6875 5.359375 
Q 44.046875 -1.421875 33.015625 -1.421875 
Q 20.359375 -1.421875 13.671875 8.265625 
Q 6.984375 17.96875 6.984375 36.375 
Q 6.984375 53.65625 15.1875 63.9375 
Q 23.390625 74.21875 37.203125 74.21875 
Q 40.921875 74.21875 44.703125 73.484375 
Q 48.484375 72.75 52.59375 71.296875 
" id="BitstreamVeraSans-Roman-36"/>
      </defs>
      <g transform="translate(639.129679675 661.118125)scale(0.12 -0.12)">
       <use xlink:href="#BitstreamVeraSans-Roman-41"/>
       <use x="68.408203125" xlink:href="#BitstreamVeraSans-Roman-70"/>
       <use x="131.884765625" xlink:href="#BitstreamVeraSans-Roman-72"/>
       <use x="172.998046875" xlink:href="#BitstreamVeraSans-Roman-20"/>
       <use x="204.78515625" xlink:href="#BitstreamVeraSans-Roman-30"/>
       <use x="268.408203125" xlink:href="#BitstreamVeraSans-Roman-36"/>
       <use x="332.03125" xlink:href="#BitstreamVeraSans-Roman-20"/>
       <use x="363.818359375" xlink:href="#BitstreamVeraSans-Roman-32"/>
       <use x="427.44140625" xlink:href="#BitstreamVeraSans-Roman-30"/>
       <use x="491.064453125" xlink:href="#BitstreamVeraSans-Roman-31"/>
       <use x="554.6875" xlink:href="#BitstreamVeraSans-Roman-34"/>
      </g>
     </g>
    </g>
    <g id="xtick_3">
     <g id="line2d_7">
      <g>
       <use style="stroke:#000000;stroke-width:0.5;" x="915.430612743" xlink:href="#m013c716675" y="648.0"/>
      </g>
     </g>
     <g id="line2d_8">
      <g>
       <use style="stroke:#000000;stroke-width:0.5;" x="915.430612743" xlink:href="#mb1c2e3397f" y="72.0"/>
      </g>
     </g>
     <g id="text_3">
      <!-- Apr 08 2014 -->
      <defs>
       <path d="M 31.78125 34.625 
Q 24.75 34.625 20.71875 30.859375 
Q 16.703125 27.09375 16.703125 20.515625 
Q 16.703125 13.921875 20.71875 10.15625 
Q 24.75 6.390625 31.78125 6.390625 
Q 38.8125 6.390625 42.859375 10.171875 
Q 46.921875 13.96875 46.921875 20.515625 
Q 46.921875 27.09375 42.890625 30.859375 
Q 38.875 34.625 31.78125 34.625 
M 21.921875 38.8125 
Q 15.578125 40.375 12.03125 44.71875 
Q 8.5 49.078125 8.5 55.328125 
Q 8.5 64.0625 14.71875 69.140625 
Q 20.953125 74.21875 31.78125 74.21875 
Q 42.671875 74.21875 48.875 69.140625 
Q 55.078125 64.0625 55.078125 55.328125 
Q 55.078125 49.078125 51.53125 44.71875 
Q 48 40.375 41.703125 38.8125 
Q 48.828125 37.15625 52.796875 32.3125 
Q 56.78125 27.484375 56.78125 20.515625 
Q 56.78125 9.90625 50.3125 4.234375 
Q 43.84375 -1.421875 31.78125 -1.421875 
Q 19.734375 -1.421875 13.25 4.234375 
Q 6.78125 9.90625 6.78125 20.515625 
Q 6.78125 27.484375 10.78125 32.3125 
Q 14.796875 37.15625 21.921875 38.8125 
M 18.3125 54.390625 
Q 18.3125 48.734375 21.84375 45.5625 
Q 25.390625 42.390625 31.78125 42.390625 
Q 38.140625 42.390625 41.71875 45.5625 
Q 45.3125 48.734375 45.3125 54.390625 
Q 45.3125 60.0625 41.71875 63.234375 
Q 38.140625 66.40625 31.78125 66.40625 
Q 25.390625 66.40625 21.84375 63.234375 
Q 18.3125 60.0625 18.3125 54.390625 
" id="BitstreamVeraSans-Roman-38"/>
      </defs>
      <g transform="translate(878.331862743 661.118125)scale(0.12 -0.12)">
       <use xlink:href="#BitstreamVeraSans-Roman-41"/>
       <use x="68.408203125" xlink:href="#BitstreamVeraSans-Roman-70"/>
       <use x="131.884765625" xlink:href="#BitstreamVeraSans-Roman-72"/>
       <use x="172.998046875" xlink:href="#BitstreamVeraSans-Roman-20"/>
       <use x="204.78515625" xlink:href="#BitstreamVeraSans-Roman-30"/>
       <use x="268.408203125" xlink:href="#BitstreamVeraSans-Roman-38"/>
       <use x="332.03125" xlink:href="#BitstreamVeraSans-Roman-20"/>
       <use x="363.818359375" xlink:href="#BitstreamVeraSans-Roman-32"/>
       <use x="427.44140625" xlink:href="#BitstreamVeraSans-Roman-30"/>
       <use x="491.064453125" xlink:href="#BitstreamVeraSans-Roman-31"/>
       <use x="554.6875" xlink:href="#BitstreamVeraSans-Roman-34"/>
      </g>
     </g>
    </g>
    <g id="xtick_4">
     <g id="line2d_9">
      <g>
       <use style="stroke:#000000;stroke-width:0.5;" x="1154.63279583" xlink:href="#m013c716675" y="648.0"/>
      </g>
     </g>
     <g id="line2d_10">
      <g>
       <use style="stroke:#000000;stroke-width:0.5;" x="1154.63279583" xlink:href="#mb1c2e3397f" y="72.0"/>
      </g>
     </g>
     <g id="text_4">
      <!-- Apr 10 2014 -->
      <g transform="translate(1117.53404583 661.118125)scale(0.12 -0.12)">
       <use xlink:href="#BitstreamVeraSans-Roman-41"/>
       <use x="68.408203125" xlink:href="#BitstreamVeraSans-Roman-70"/>
       <use x="131.884765625" xlink:href="#BitstreamVeraSans-Roman-72"/>
       <use x="172.998046875" xlink:href="#BitstreamVeraSans-Roman-20"/>
       <use x="204.78515625" xlink:href="#BitstreamVeraSans-Roman-31"/>
       <use x="268.408203125" xlink:href="#BitstreamVeraSans-Roman-30"/>
       <use x="332.03125" xlink:href="#BitstreamVeraSans-Roman-20"/>
       <use x="363.818359375" xlink:href="#BitstreamVeraSans-Roman-32"/>
       <use x="427.44140625" xlink:href="#BitstreamVeraSans-Roman-30"/>
       <use x="491.064453125" xlink:href="#BitstreamVeraSans-Roman-31"/>
       <use x="554.6875" xlink:href="#BitstreamVeraSans-Roman-34"/>
      </g>
     </g>
    </g>
    <g id="xtick_5">
     <g id="line2d_11">
      <g>
       <use style="stroke:#000000;stroke-width:0.5;" x="1393.83497891" xlink:href="#m013c716675" y="648.0"/>
      </g>
     </g>
     <g id="line2d_12">
      <g>
       <use style="stroke:#000000;stroke-width:0.5;" x="1393.83497891" xlink:href="#mb1c2e3397f" y="72.0"/>
      </g>
     </g>
     <g id="text_5">
      <!-- Apr 12 2014 -->
      <g transform="translate(1356.73622891 661.118125)scale(0.12 -0.12)">
       <use xlink:href="#BitstreamVeraSans-Roman-41"/>
       <use x="68.408203125" xlink:href="#BitstreamVeraSans-Roman-70"/>
       <use x="131.884765625" xlink:href="#BitstreamVeraSans-Roman-72"/>
       <use x="172.998046875" xlink:href="#BitstreamVeraSans-Roman-20"/>
       <use x="204.78515625" xlink:href="#BitstreamVeraSans-Roman-31"/>
       <use x="268.408203125" xlink:href="#BitstreamVeraSans-Roman-32"/>
       <use x="332.03125" xlink:href="#BitstreamVeraSans-Roman-20"/>
       <use x="363.818359375" xlink:href="#BitstreamVeraSans-Roman-32"/>
       <use x="427.44140625" xlink:href="#BitstreamVeraSans-Roman-30"/>
       <use x="491.064453125" xlink:href="#BitstreamVeraSans-Roman-31"/>
       <use x="554.6875" xlink:href="#BitstreamVeraSans-Roman-34"/>
      </g>
     </g>
    </g>
    <g id="xtick_6">
     <g id="line2d_13">
      <g>
       <use style="stroke:#000000;stroke-width:0.5;" x="1633.03716199" xlink:href="#m013c716675" y="648.0"/>
      </g>
     </g>
     <g id="line2d_14">
      <g>
       <use style="stroke:#000000;stroke-width:0.5;" x="1633.03716199" xlink:href="#mb1c2e3397f" y="72.0"/>
      </g>
     </g>
     <g id="text_6">
      <!-- Apr 14 2014 -->
      <g transform="translate(1595.93841199 661.118125)scale(0.12 -0.12)">
       <use xlink:href="#BitstreamVeraSans-Roman-41"/>
       <use x="68.408203125" xlink:href="#BitstreamVeraSans-Roman-70"/>
       <use x="131.884765625" xlink:href="#BitstreamVeraSans-Roman-72"/>
       <use x="172.998046875" xlink:href="#BitstreamVeraSans-Roman-20"/>
       <use x="204.78515625" xlink:href="#BitstreamVeraSans-Roman-31"/>
       <use x="268.408203125" xlink:href="#BitstreamVeraSans-Roman-34"/>
       <use x="332.03125" xlink:href="#BitstreamVeraSans-Roman-20"/>
       <use x="363.818359375" xlink:href="#BitstreamVeraSans-Roman-32"/>
       <use x="427.44140625" xlink:href="#BitstreamVeraSans-Roman-30"/>
       <use x="491.064453125" xlink:href="#BitstreamVeraSans-Roman-31"/>
       <use x="554.6875" xlink:href="#BitstreamVeraSans-Roman-34"/>
      </g>
     </g>
    </g>
    <g id="xtick_7">
     <g id="line2d_15">
      <g>
       <use style="stroke:#000000;stroke-width:0.5;" x="1872.23934507" xlink:href="#m013c716675" y="648.0"/>
      </g>
     </g>
     <g id="line2d_16">
      <g>
       <use style="stroke:#000000;stroke-width:0.5;" x="1872.23934507" xlink:href="#mb1c2e3397f" y="72.0"/>
      </g>
     </g>
     <g id="text_7">
      <!-- Apr 16 2014 -->
      <g transform="translate(1835.14059507 661.118125)scale(0.12 -0.12)">
       <use xlink:href="#BitstreamVeraSans-Roman-41"/>
       <use x="68.408203125" xlink:href="#BitstreamVeraSans-Roman-70"/>
       <use x="131.884765625" xlink:href="#BitstreamVeraSans-Roman-72"/>
       <use x="172.998046875" xlink:href="#BitstreamVeraSans-Roman-20"/>
       <use x="204.78515625" xlink:href="#BitstreamVeraSans-Roman-31"/>
       <use x="268.408203125" xlink:href="#BitstreamVeraSans-Roman-36"/>
       <use x="332.03125" xlink:href="#BitstreamVeraSans-Roman-20"/>
       <use x="363.818359375" xlink:href="#BitstreamVeraSans-Roman-32"/>
       <use x="427.44140625" xlink:href="#BitstreamVeraSans-Roman-30"/>
       <use x="491.064453125" xlink:href="#BitstreamVeraSans-Roman-31"/>
       <use x="554.6875" xlink:href="#BitstreamVeraSans-Roman-34"/>
      </g>
     </g>
    </g>
   </g>
   <g id="matplotlib.axis_2">
    <g id="ytick_1">
     <g id="line2d_17">
      <defs>
       <path d="M 0 0 
L 4 0 
" id="m50ae079399" style="stroke:#000000;stroke-width:0.5;"/>
      </defs>
      <g>
       <use style="stroke:#000000;stroke-width:0.5;" x="270.0" xlink:href="#m50ae079399" y="648.0"/>
      </g>
     </g>
     <g id="line2d_18">
      <defs>
       <path d="M 0 0 
L -4 0 
" id="m23c842bf88" style="stroke:#000000;stroke-width:0.5;"/>
      </defs>
      <g>
       <use style="stroke:#000000;stroke-width:0.5;" x="1944.0" xlink:href="#m23c842bf88" y="648.0"/>
      </g>
     </g>
     <g id="text_8">
      <!-- 0.0 -->
      <defs>
       <path d="M 10.6875 12.40625 
L 21 12.40625 
L 21 0 
L 10.6875 0 
z
" id="BitstreamVeraSans-Roman-2e"/>
      </defs>
      <g transform="translate(246.91625 651.31125)scale(0.12 -0.12)">
       <use xlink:href="#BitstreamVeraSans-Roman-30"/>
       <use x="63.623046875" xlink:href="#BitstreamVeraSans-Roman-2e"/>
       <use x="95.41015625" xlink:href="#BitstreamVeraSans-Roman-30"/>
      </g>
     </g>
    </g>
    <g id="ytick_2">
     <g id="line2d_19">
      <g>
       <use style="stroke:#000000;stroke-width:0.5;" x="270.0" xlink:href="#m50ae079399" y="584.0"/>
      </g>
     </g>
     <g id="line2d_20">
      <g>
       <use style="stroke:#000000;stroke-width:0.5;" x="1944.0" xlink:href="#m23c842bf88" y="584.0"/>
      </g>
     </g>
     <g id="text_9">
      <!-- 0.2 -->
      <g transform="translate(246.91625 587.31125)scale(0.12 -0.12)">
       <use xlink:href="#BitstreamVeraSans-Roman-30"/>
       <use x="63.623046875" xlink:href="#BitstreamVeraSans-Roman-2e"/>
       <use x="95.41015625" xlink:href="#BitstreamVeraSans-Roman-32"/>
      </g>
     </g>
    </g>
    <g id="ytick_3">
     <g id="line2d_21">
      <g>
       <use style="stroke:#000000;stroke-width:0.5;" x="270.0" xlink:href="#m50ae079399" y="520.0"/>
      </g>
     </g>
     <g id="line2d_22">
      <g>
       <use style="stroke:#000000;stroke-width:0.5;" x="1944.0" xlink:href="#m23c842bf88" y="520.0"/>
      </g>
     </g>
     <g id="text_10">
      <!-- 0.4 -->
      <g transform="translate(246.91625 523.31125)scale(0.12 -0.12)">
       <use xlink:href="#BitstreamVeraSans-Roman-30"/>
       <use x="63.623046875" xlink:href="#BitstreamVeraSans-Roman-2e"/>
       <use x="95.41015625" xlink:href="#BitstreamVeraSans-Roman-34"/>
      </g>
     </g>
    </g>
    <g id="ytick_4">
     <g id="line2d_23">
      <g>
       <use style="stroke:#000000;stroke-width:0.5;" x="270.0" xlink:href="#m50ae079399" y="456.0"/>
      </g>
     </g>
     <g id="line2d_24">
      <g>
       <use style="stroke:#000000;stroke-width:0.5;" x="1944.0" xlink:href="#m23c842bf88" y="456.0"/>
      </g>
     </g>
     <g id="text_11">
      <!-- 0.6 -->
      <g transform="translate(246.91625 459.31125)scale(0.12 -0.12)">
       <use xlink:href="#BitstreamVeraSans-Roman-30"/>
       <use x="63.623046875" xlink:href="#BitstreamVeraSans-Roman-2e"/>
       <use x="95.41015625" xlink:href="#BitstreamVeraSans-Roman-36"/>
      </g>
     </g>
    </g>
    <g id="ytick_5">
     <g id="line2d_25">
      <g>
       <use style="stroke:#000000;stroke-width:0.5;" x="270.0" xlink:href="#m50ae079399" y="392.0"/>
      </g>
     </g>
     <g id="line2d_26">
      <g>
       <use style="stroke:#000000;stroke-width:0.5;" x="1944.0" xlink:href="#m23c842bf88" y="392.0"/>
      </g>
     </g>
     <g id="text_12">
      <!-- 0.8 -->
      <g transform="translate(246.91625 395.31125)scale(0.12 -0.12)">
       <use xlink:href="#BitstreamVeraSans-Roman-30"/>
       <use x="63.623046875" xlink:href="#BitstreamVeraSans-Roman-2e"/>
       <use x="95.41015625" xlink:href="#BitstreamVeraSans-Roman-38"/>
      </g>
     </g>
    </g>
    <g id="ytick_6">
     <g id="line2d_27">
      <g>
       <use style="stroke:#000000;stroke-width:0.5;" x="270.0" xlink:href="#m50ae079399" y="328.0"/>
      </g>
     </g>
     <g id="line2d_28">
      <g>
       <use style="stroke:#000000;stroke-width:0.5;" x="1944.0" xlink:href="#m23c842bf88" y="328.0"/>
      </g>
     </g>
     <g id="text_13">
      <!-- 1.0 -->
      <g transform="translate(246.91625 331.31125)scale(0.12 -0.12)">
       <use xlink:href="#BitstreamVeraSans-Roman-31"/>
       <use x="63.623046875" xlink:href="#BitstreamVeraSans-Roman-2e"/>
       <use x="95.41015625" xlink:href="#BitstreamVeraSans-Roman-30"/>
      </g>
     </g>
    </g>
    <g id="ytick_7">
     <g id="line2d_29">
      <g>
       <use style="stroke:#000000;stroke-width:0.5;" x="270.0" xlink:href="#m50ae079399" y="264.0"/>
      </g>
     </g>
     <g id="line2d_30">
      <g>
       <use style="stroke:#000000;stroke-width:0.5;" x="1944.0" xlink:href="#m23c842bf88" y="264.0"/>
      </g>
     </g>
     <g id="text_14">
      <!-- 1.2 -->
      <g transform="translate(246.91625 267.31125)scale(0.12 -0.12)">
       <use xlink:href="#BitstreamVeraSans-Roman-31"/>
       <use x="63.623046875" xlink:href="#BitstreamVeraSans-Roman-2e"/>
       <use x="95.41015625" xlink:href="#BitstreamVeraSans-Roman-32"/>
      </g>
     </g>
    </g>
    <g id="ytick_8">
     <g id="line2d_31">
      <g>
       <use style="stroke:#000000;stroke-width:0.5;" x="270.0" xlink:href="#m50ae079399" y="200.0"/>
      </g>
     </g>
     <g id="line2d_32">
      <g>
       <use style="stroke:#000000;stroke-width:0.5;" x="1944.0" xlink:href="#m23c842bf88" y="200.0"/>
      </g>
     </g>
     <g id="text_15">
      <!-- 1.4 -->
      <g transform="translate(246.91625 203.31125)scale(0.12 -0.12)">
       <use xlink:href="#BitstreamVeraSans-Roman-31"/>
       <use x="63.623046875" xlink:href="#BitstreamVeraSans-Roman-2e"/>
       <use x="95.41015625" xlink:href="#BitstreamVeraSans-Roman-34"/>
      </g>
     </g>
    </g>
    <g id="ytick_9">
     <g id="line2d_33">
      <g>
       <use style="stroke:#000000;stroke-width:0.5;" x="270.0" xlink:href="#m50ae079399" y="136.0"/>
      </g>
     </g>
     <g id="line2d_34">
      <g>
       <use style="stroke:#000000;stroke-width:0.5;" x="1944.0" xlink:href="#m23c842bf88" y="136.0"/>
      </g>
     </g>
     <g id="text_16">
      <!-- 1.6 -->
      <g transform="translate(246.91625 139.31125)scale(0.12 -0.12)">
       <use xlink:href="#BitstreamVeraSans-Roman-31"/>
       <use x="63.623046875" xlink:href="#BitstreamVeraSans-Roman-2e"/>
       <use x="95.41015625" xlink:href="#BitstreamVeraSans-Roman-36"/>
      </g>
     </g>
    </g>
    <g id="ytick_10">
     <g id="line2d_35">
      <g>
       <use style="stroke:#000000;stroke-width:0.5;" x="270.0" xlink:href="#m50ae079399" y="72.0"/>
      </g>
     </g>
     <g id="line2d_36">
      <g>
       <use style="stroke:#000000;stroke-width:0.5;" x="1944.0" xlink:href="#m23c842bf88" y="72.0"/>
      </g>
     </g>
     <g id="text_17">
      <!-- 1.8 -->
      <g transform="translate(246.91625 75.31125)scale(0.12 -0.12)">
       <use xlink:href="#BitstreamVeraSans-Roman-31"/>
       <use x="63.623046875" xlink:href="#BitstreamVeraSans-Roman-2e"/>
       <use x="95.41015625" xlink:href="#BitstreamVeraSans-Roman-38"/>
      </g>
     </g>
    </g>
   </g>
  </g>
 </g>
 <defs>
  <clipPath id="pc4749205f4">
   <rect height="576.0" width="1674.0" x="270.0" y="72.0"/>
  </clipPath>
 </defs>
</svg>
