<?xml version="1.0" encoding="utf-8" standalone="no"?>
<!DOCTYPE svg PUBLIC "-//W3C//DTD SVG 1.1//EN"
  "http://www.w3.org/Graphics/SVG/1.1/DTD/svg11.dtd">
<!-- Created with matplotlib (http://matplotlib.org/) -->
<svg height="720pt" version="1.1" viewBox="0 0 2160 720" width="2160pt" xmlns="http://www.w3.org/2000/svg" xmlns:xlink="http://www.w3.org/1999/xlink">
 <defs>
  <style type="text/css">
*{stroke-linecap:butt;stroke-linejoin:round;stroke-miterlimit:100000;}
  </style>
 </defs>
 <g id="figure_1">
  <g id="patch_1">
   <path d="M 0 720 
L 2160 720 
L 2160 0 
L 0 0 
z
" style="fill:#ffffff;"/>
  </g>
  <g id="axes_1">
   <g id="patch_2">
    <path d="M 270 648 
L 1944 648 
L 1944 72 
L 270 72 
z
" style="fill:#ffffff;"/>
   </g>
   <g id="line2d_1">
    <path clip-path="url(#p9113df60cc)" d="M 270 648 
L 272.491689 648 
L 272.906971 635.232512 
L 273.322253 616.671168 
L 273.737534 372.03264 
L 274.152816 624.681792 
L 274.568097 647.002278 
L 274.983379 648 
L 282.873729 648 
L 283.28901 625.873472 
L 283.704292 440.76352 
L 284.119573 556.25664 
L 284.534855 625.590336 
L 284.950136 647.993709 
L 285.7807 648 
L 286.195981 647.19417 
L 286.611263 616.166784 
L 287.026544 640.151424 
L 287.441826 648 
L 288.687671 648 
L 289.102952 620.088448 
L 289.518234 635.695488 
L 289.933515 624.95808 
L 290.348797 400.96576 
L 290.764078 578.98304 
L 291.17936 643.713946 
L 291.594642 648 
L 293.255768 648 
L 293.671049 647.119194 
L 294.086331 647.987417 
L 297.823865 648 
L 304.46837 648 
L 304.883652 634.871808 
L 305.298933 615.021248 
L 305.714215 372.57728 
L 306.129496 624.520832 
L 306.544778 647.076205 
L 306.96006 648 
L 307.375341 647.997903 
L 307.790623 647.572705 
L 308.205904 618.400256 
L 308.621186 358.36992 
L 309.036467 625.76544 
L 309.451749 645.860902 
L 309.867031 648 
L 310.282312 635.136576 
L 310.697594 435.45344 
L 311.112875 554.0064 
L 311.528157 623.527296 
L 311.943438 647.98165 
L 314.850409 648 
L 318.587943 648 
L 319.003225 647.012243 
L 319.418507 648 
L 320.664351 648 
L 321.079633 635.14496 
L 321.494914 496.92672 
L 321.910196 492.23168 
L 322.325478 623.5168 
L 322.740759 647.983223 
L 325.64773 648 
L 343.089556 648 
L 343.504838 645.467162 
L 343.920119 645.532698 
L 344.335401 647.998427 
L 347.242372 648 
L 348.072935 619.894464 
L 348.488216 369.35488 
L 348.903498 624.633536 
L 349.318779 646.863341 
L 349.734061 648 
L 350.149343 648 
L 350.564624 635.210496 
L 350.979906 563.02016 
L 351.395187 426.43136 
L 351.810469 624.756224 
L 352.22575 647.014336 
L 352.641032 648 
L 357.209129 648 
L 357.624411 620.983424 
L 358.039692 388.51008 
L 358.454974 593.935936 
L 358.870256 644.09353 
L 359.285537 648 
L 361.361945 648 
L 361.777226 621.013312 
L 362.192508 407.64672 
L 362.60779 575.28192 
L 363.023071 643.755891 
L 363.438353 647.994757 
L 372.574547 648 
L 399.983131 648 
L 400.398412 635.077376 
L 400.813694 402.80256 
L 401.228975 584.799168 
L 401.644257 624.677568 
L 402.059539 647.982174 
L 402.47482 648 
L 402.890102 621.0144 
L 403.305383 403.19936 
L 403.720665 579.72096 
L 404.135946 644.075706 
L 404.551228 648 
L 411.611015 648 
L 412.026296 624.83328 
L 412.441578 439.91552 
L 412.856859 557.7536 
L 413.272141 625.54368 
L 413.687422 647.983747 
L 416.594393 648 
L 417.840238 648 
L 418.25552 635.215744 
L 418.670801 615.341568 
L 419.086083 374.03328 
L 419.501364 575.44512 
L 419.916646 646.768448 
L 420.331928 648 
L 424.069462 648 
L 424.484743 635.100416 
L 424.900025 523.64544 
L 425.315306 465.06048 
L 425.730588 623.341184 
L 426.14587 635.05376 
L 426.561151 470.64832 
L 426.976433 517.43808 
L 427.391714 623.68352 
L 427.806996 647.982174 
L 431.959811 648 
L 432.375093 647.38868 
L 432.790375 618.59008 
L 433.205656 358.35264 
L 433.620938 625.277376 
L 434.036219 646.372608 
L 434.451501 648 
L 438.189035 648 
L 438.604317 635.177984 
L 439.019598 553.2032 
L 439.43488 436.1728 
L 439.850161 624.483584 
L 440.265443 646.912102 
L 440.680724 648 
L 466.843463 648 
L 467.258745 646.957715 
L 467.674026 647.985844 
L 468.089308 648 
L 468.504589 622.505984 
L 468.919871 405.98464 
L 469.335153 590.550592 
L 469.750434 625.709888 
L 470.165716 647.982698 
L 473.072687 648 
L 490.929794 648 
L 491.345076 619.979456 
L 491.760357 356.41984 
L 492.175639 625.641216 
L 492.59092 645.548954 
L 493.006202 647.997903 
L 515.016125 648 
L 524.15232 648 
L 524.567601 647.295878 
L 524.982883 647.992136 
L 525.398164 647.817023 
L 525.813446 648 
L 529.135698 648 
L 529.55098 647.104518 
L 529.966261 647.993184 
L 530.381543 647.997903 
L 530.796825 617.975616 
L 531.212106 358.38144 
L 531.627388 624.947584 
L 532.042669 646.230528 
L 532.457951 648 
L 534.534359 648 
L 534.94964 620.980288 
L 535.364922 355.6064 
L 535.780203 626.853376 
L 536.195485 644.172698 
L 536.610767 647.994233 
L 537.44133 648 
L 537.856611 647.101894 
L 538.271893 648 
L 538.687174 647.268096 
L 539.102456 648 
L 540.763582 648 
L 541.178864 635.454336 
L 541.594145 626.291328 
L 542.009427 409.40544 
L 542.424709 599.60928 
L 542.83999 618.517184 
L 543.255272 646.120429 
L 543.670553 647.982698 
L 546.577524 647.997903 
L 546.992806 647.034784 
L 547.408087 647.263898 
L 547.823369 648 
L 552.391466 648 
L 552.806748 635.206336 
L 553.222029 618.161728 
L 553.637311 369.29984 
L 554.052592 624.667584 
L 554.467874 646.60487 
L 554.883156 648 
L 583.537584 648 
L 583.952865 647.178963 
L 584.368147 616.100224 
L 584.783428 360.95552 
L 585.19871 624.963328 
L 585.613992 646.262509 
L 586.029273 648 
L 640.015877 648 
L 640.431159 624.46784 
L 640.84644 411.39328 
L 641.261722 585.644864 
L 641.677003 625.110656 
L 642.092285 647.983223 
L 644.999256 648 
L 666.178616 648 
L 666.593897 635.168064 
L 667.009179 524.19904 
L 667.42446 465.21536 
L 667.839742 623.211136 
L 668.255024 647.958057 
L 669.500868 648 
L 671.161995 648 
L 671.577276 635.212096 
L 671.992558 615.289664 
L 672.407839 373.86688 
L 672.823121 624.662912 
L 673.238402 646.560832 
L 673.653684 648 
L 678.637063 648 
L 679.052344 634.772736 
L 679.467626 523.24864 
L 679.882907 464.36736 
L 680.298189 624.453696 
L 680.713471 646.703437 
L 681.128752 648 
L 704.799802 648 
L 705.215083 624.781888 
L 705.630365 415.86688 
L 706.045646 581.4464 
L 706.460928 625.287872 
L 706.876209 647.982698 
L 709.78318 648 
L 815.67998 648 
L 816.095262 635.136064 
L 816.510543 618.229376 
L 816.925825 369.8848 
L 817.341106 624.699072 
L 817.756388 646.379949 
L 818.17167 648 
L 835.613495 648 
L 836.028777 646.401446 
L 836.444059 646.778406 
L 836.85934 648 
L 873.8194 648 
L 874.234681 624.570112 
L 874.649963 407.69984 
L 875.065244 571.57376 
L 875.480526 643.558758 
L 875.895807 647.982698 
L 878.802778 648 
L 883.786157 648 
L 884.201439 635.3888 
L 884.61672 618.59424 
L 885.032002 370.37824 
L 885.447284 624.89568 
L 885.862565 646.542477 
L 886.277847 648 
L 890.430662 648 
L 890.845944 640.669376 
L 891.261226 622.654848 
L 891.676507 361.53344 
L 892.091789 625.10016 
L 892.50707 646.30288 
L 892.922352 648 
L 909.948896 647.997903 
L 910.364178 647.237683 
L 910.779459 648 
L 932.374101 648 
L 1004.217812 648 
L 1004.633094 634.782144 
L 1005.048375 571.59424 
L 1005.463657 416.1632 
L 1005.878938 624.602624 
L 1006.29422 646.472749 
L 1006.709501 648 
L 1011.69288 647.998427 
L 1012.108162 582.86336 
L 1012.523443 648 
L 1013.769288 648 
L 1014.599851 625.429952 
L 1015.015133 360.97984 
L 1015.430414 624.822784 
L 1015.845696 646.253075 
L 1016.260977 648 
L 1022.905483 648 
L 1023.320764 635.164352 
L 1023.736046 615.34944 
L 1024.151327 373.95904 
L 1024.566609 624.659776 
L 1024.98189 646.475898 
L 1025.397172 647.009094 
L 1025.812453 635.212608 
L 1026.227735 615.294912 
L 1026.643017 373.95776 
L 1027.058298 624.654528 
L 1027.47358 646.452301 
L 1027.888861 648 
L 1028.304143 624.817536 
L 1028.719424 412.72448 
L 1029.134706 584.959616 
L 1029.549988 624.7824 
L 1029.965269 647.975883 
L 1030.795832 623.681408 
L 1031.211114 360.4 
L 1031.626395 625.002112 
L 1032.041677 646.05856 
L 1032.456959 647.987417 
L 1036.194493 648 
L 1041.177872 648 
L 1041.593153 621.445312 
L 1042.008435 579.24096 
L 1042.423716 507.74144 
L 1042.838998 269.2928 
L 1043.254279 648 
L 1043.669561 586.324352 
L 1044.084842 646.153984 
L 1044.500124 647.98899 
L 1045.330687 648 
L 1045.745969 644.073082 
L 1046.16125 579.62752 
L 1046.576532 466.34176 
L 1046.991813 311.90336 
L 1047.407095 648 
L 1047.822377 586.321216 
L 1048.237658 646.131437 
L 1048.65294 647.986893 
L 1049.898784 648 
L 1050.314066 612.963904 
L 1050.729348 599.669568 
L 1051.144629 351.90656 
L 1051.559911 438.43072 
L 1051.975192 648 
L 1052.390474 586.099392 
L 1052.805755 646.285056 
L 1053.221037 648 
L 1054.466882 648 
L 1054.882163 610.81696 
L 1055.297445 599.150016 
L 1055.712726 216.64448 
L 1056.128008 576.14528 
L 1056.54329 593.960064 
L 1056.958571 638.427008 
L 1057.373853 647.95596 
L 1058.619697 648 
L 1085.612999 647.976407 
L 1086.028281 646.599104 
L 1086.443562 646.598579 
L 1086.858844 647.993184 
L 1091.01166 648 
L 1091.426941 647.412797 
L 1091.842223 647.187354 
L 1092.257504 648 
L 1092.672786 646.960339 
L 1093.088067 646.48009 
L 1093.503349 647.6136 
L 1093.918631 646.768448 
L 1094.333912 648 
L 1117.174398 648 
L 1117.58968 646.708154 
L 1118.004962 577.36832 
L 1118.420243 466.74304 
L 1118.835525 312.35264 
L 1119.250806 648 
L 1119.666088 586.092096 
L 1120.081369 646.029203 
L 1120.496651 647.98532 
L 1123.818904 648 
L 1138.353758 648 
L 1138.76904 579.31584 
L 1139.184322 617.677248 
L 1139.599603 156.72768 
L 1140.014885 647.389729 
L 1140.430166 588.415744 
L 1140.845448 643.498989 
L 1141.260729 647.982698 
L 1142.506574 648 
L 1142.921856 611.771712 
L 1143.337137 600.313408 
L 1143.752419 228.17088 
L 1144.1677 561.93856 
L 1144.582982 605.337664 
L 1144.998263 588.473408 
L 1145.413545 631.396352 
L 1145.828827 646.141926 
L 1146.244108 647.983747 
L 1147.074671 648 
L 1147.489953 647.424856 
L 1148.320516 509.2864 
L 1148.735798 230.7392 
L 1149.151079 619.131136 
L 1149.566361 639.636544 
L 1149.981642 647.994233 
L 1150.396924 585.684672 
L 1150.812205 646.08425 
L 1151.227487 648 
L 1182.373605 648 
L 1182.788886 609.744256 
L 1183.204168 590.94016 
L 1183.619449 220.01536 
L 1184.034731 580.9984 
L 1184.450012 591.34912 
L 1184.865294 642.646496 
L 1185.280576 646.21952 
L 1185.695857 648 
L 1195.662615 648 
L 1196.077896 647.828558 
L 1196.493178 647.994233 
L 1198.154304 647.931318 
L 1198.569586 647.815451 
L 1198.984867 646.753766 
L 1199.81543 646.609062 
L 1200.230712 648 
L 1201.061275 647.95596 
L 1201.476557 646.601722 
L 1201.891838 648 
L 1207.70578 647.997903 
L 1208.121062 646.569216 
L 1208.536343 646.535661 
L 1208.951625 647.971688 
L 1209.366906 647.940231 
L 1209.782188 641.196288 
L 1210.19747 641.138624 
L 1210.612751 646.92416 
L 1211.028033 647.322093 
L 1211.443314 646.59648 
L 1211.858596 647.988466 
L 1212.273877 647.932367 
L 1212.689159 646.620595 
L 1213.519722 646.608013 
L 1213.935004 647.979553 
L 1216.011412 648 
L 1216.426693 647.141741 
L 1216.841975 647.494586 
L 1217.257256 646.658874 
L 1217.672538 646.860723 
L 1218.087819 647.778751 
L 1218.503101 609.90208 
L 1218.918383 601.683328 
L 1219.748946 440.87808 
L 1220.164227 646.60487 
L 1220.579509 647.06729 
L 1220.99479 642.931181 
L 1221.410072 581.184 
L 1221.825354 622.024704 
L 1222.240635 566.51648 
L 1222.655917 382.12352 
L 1223.071198 648 
L 1223.48648 647.9633 
L 1223.901761 547.91168 
L 1224.317043 184.78656 
L 1224.732324 644.68912 
L 1225.147606 648 
L 1225.978169 648 
L 1226.393451 647.473091 
L 1226.808732 578.8864 
L 1227.224014 620.341696 
L 1227.639295 95.06304 
L 1228.054577 565.8816 
L 1228.469859 648 
L 1228.88514 567.47904 
L 1229.300422 645.674784 
L 1229.715703 647.983223 
L 1232.622674 648 
L 1236.77549 648 
L 1237.190772 643.379974 
L 1237.606053 579.49504 
L 1238.021335 619.77024 
L 1238.436616 647.979553 
L 1238.851898 648 
L 1239.267179 647.402312 
L 1239.682461 578.6272 
L 1240.097742 617.464448 
L 1240.513024 291.55776 
L 1240.928306 581.77536 
L 1241.343587 648 
L 1241.758869 570.4672 
L 1242.17415 646.012947 
L 1242.589432 647.983223 
L 1245.911684 648 
L 1246.326966 642.950579 
L 1246.742248 579.9968 
L 1247.157529 619.602496 
L 1247.572811 252.6496 
L 1247.988092 621.631488 
L 1248.403374 648 
L 1248.818655 570.5152 
L 1249.233937 646.009805 
L 1249.649219 647.245549 
L 1250.0645 648 
L 1252.55619 648 
L 1252.971471 647.095603 
L 1253.386753 648 
L 1253.802034 648 
L 1254.217316 645.522739 
L 1254.632597 577.41056 
L 1255.047879 620.183872 
L 1255.463161 270.05888 
L 1255.878442 603.508416 
L 1256.293724 648 
L 1256.709005 570.50048 
L 1257.124287 646.016096 
L 1257.539568 647.987941 
L 1257.95485 648 
L 1258.370131 642.266912 
L 1258.785413 580.37184 
L 1259.200695 618.283328 
L 1259.615976 227.28192 
L 1260.031258 646.950899 
L 1260.446539 647.335725 
L 1260.861821 569.47456 
L 1261.277102 645.869818 
L 1261.692384 647.494586 
L 1262.522947 648 
L 1267.091044 648 
L 1267.506326 647.397069 
L 1267.921608 578.59648 
L 1268.336889 620.366848 
L 1268.752171 299.17824 
L 1269.167452 570.8896 
L 1269.582734 648 
L 1269.998015 570.70336 
L 1270.413297 645.744512 
L 1270.828579 647.983223 
L 1271.24386 647.237683 
L 1271.659142 647.997903 
L 1274.981394 648 
L 1275.396676 607.503488 
L 1275.811957 603.375232 
L 1276.227239 548.09856 
L 1276.64252 309.67552 
L 1277.057802 648 
L 1277.473084 573.888 
L 1277.888365 644.457389 
L 1278.718928 648 
L 1282.871744 648 
L 1283.287026 579.39136 
L 1283.702307 628.837248 
L 1284.117589 429.97824 
L 1284.53287 430.61568 
L 1284.948152 648 
L 1285.363433 572.7936 
L 1285.778715 643.639494 
L 1286.193997 647.976407 
L 1288.270404 648 
L 1297.82188 648 
L 1298.237162 609.382528 
L 1298.652444 601.593152 
L 1299.067725 425.70688 
L 1299.483007 432.54592 
L 1299.898288 648 
L 1300.31357 573.12256 
L 1300.728851 643.336461 
L 1301.144133 647.942328 
L 1301.974696 648 
L 1321.49293 647.977456 
L 1321.908211 646.559782 
L 1322.323493 646.614829 
L 1322.738775 647.961203 
L 1323.154056 645.624973 
L 1323.569338 647.969591 
L 1323.984619 647.976407 
L 1324.399901 592.372544 
L 1324.815182 647.986369 
L 1325.230464 648 
L 1325.645745 636.785984 
L 1326.061027 647.691194 
L 1326.476309 611.775872 
L 1326.89159 598.918784 
L 1327.306872 630.402304 
L 1327.722153 226.5984 
L 1328.137435 648 
L 1328.552716 575.9872 
L 1328.967998 642.445696 
L 1329.38328 645.912806 
L 1330.213843 647.340448 
L 1330.629124 645.899181 
L 1331.044406 646.631085 
L 1331.459687 648 
L 1331.874969 646.642618 
L 1332.290251 648 
L 1333.536095 648 
L 1333.951377 646.628461 
L 1334.366658 647.930269 
L 1334.78194 646.689805 
L 1335.197222 648 
L 1335.612503 647.803392 
L 1336.027785 648 
L 1336.443066 647.991611 
L 1336.858348 646.637376 
L 1337.273629 638.229376 
L 1337.688911 582.04352 
L 1338.104193 617.713984 
L 1338.519474 461.76064 
L 1338.934756 408.24704 
L 1339.350037 647.724749 
L 1339.765319 647.825412 
L 1340.1806 569.21344 
L 1340.595882 647.988466 
L 1343.918134 648 
L 1344.333416 642.95792 
L 1344.748698 579.3952 
L 1345.163979 619.629696 
L 1345.579261 240.58176 
L 1345.994542 633.72576 
L 1346.409824 648 
L 1346.825105 570.4832 
L 1347.240387 648 
L 1361.775242 647.98532 
L 1362.605805 288.4288 
L 1363.021087 298.13184 
L 1363.85165 647.990563 
L 1364.266931 648 
L 1365.097494 210.94912 
L 1365.512776 223.39904 
L 1365.928058 279.91808 
L 1366.343339 250.78464 
L 1366.758621 247.50336 
L 1367.173902 242.65664 
L 1367.589184 242.688 
L 1368.004465 273.83424 
L 1368.419747 210.70336 
L 1368.835029 391.58208 
L 1369.25031 414.06016 
L 1369.665592 648 
L 1375.479534 648 
L 1375.894815 430.46848 
L 1376.310097 647.178963 
L 1376.725378 642.971027 
L 1377.14066 579.60896 
L 1377.555941 620.172864 
L 1377.971223 277.31072 
L 1378.386505 596.67904 
L 1378.801786 648 
L 1379.217068 570.2208 
L 1379.632349 647.70535 
L 1380.047631 648 
L 1382.124039 647.96697 
L 1383.785165 648 
L 1385.861573 648 
L 1386.276854 645.72983 
L 1386.692136 576.97728 
L 1387.107418 619.847296 
L 1387.522699 284.94784 
L 1387.937981 587.457856 
L 1388.353262 647.330483 
L 1388.768544 570.07808 
L 1389.183825 647.625658 
L 1389.599107 648 
L 1394.167204 648 
L 1394.582486 646.81616 
L 1394.997767 579.17696 
L 1395.413049 617.4272 
L 1395.82833 309.632 
L 1396.243612 563.6608 
L 1396.658894 648 
L 1397.074175 571.21984 
L 1397.489457 646.79833 
L 1397.904738 648 
L 1402.057554 648 
L 1402.472836 608.014656 
L 1402.888117 602.87456 
L 1403.303399 463.54944 
L 1403.71868 394.5536 
L 1404.133962 648 
L 1404.549243 572.79616 
L 1404.964525 645.216557 
L 1405.379807 648 
L 1610.113619 647.993184 
L 1610.528901 647.120243 
L 1610.944183 648 
L 1613.02059 647.99266 
L 1613.435872 647.245024 
L 1613.851154 648 
L 1614.266435 647.249222 
L 1614.681717 648 
L 1615.096998 642.299418 
L 1615.51228 580.06592 
L 1615.927561 617.939968 
L 1616.342843 226.91456 
L 1616.758125 647.055232 
L 1617.173406 648 
L 1617.588688 569.856 
L 1618.003969 647.98532 
L 1619.665096 648 
L 1620.080377 647.236115 
L 1620.495659 648 
L 1622.156785 648 
L 1622.572067 579.04192 
L 1622.987348 629.2048 
L 1623.40263 297.72032 
L 1623.817911 563.16096 
L 1624.233193 648 
L 1624.648474 571.58912 
L 1625.063756 646.331194 
L 1625.479037 648 
L 1631.292979 648 
L 1631.708261 647.25079 
L 1632.123543 648 
L 1632.538824 647.241357 
L 1632.954106 647.995806 
L 1633.784669 648 
L 1634.19995 646.486381 
L 1634.615232 646.922061 
L 1635.030514 648 
L 1636.69164 648 
L 1637.522203 647.583191 
L 1637.937485 648 
L 1659.947408 648 
L 1660.362689 646.604346 
L 1660.777971 647.997903 
L 1661.608534 647.922405 
L 1662.023815 646.711302 
L 1662.439097 646.640518 
L 1662.854379 647.990563 
L 1663.26966 647.862637 
L 1663.684942 646.774739 
L 1664.100223 646.646291 
L 1664.515505 647.997903 
L 1664.930786 648 
L 1665.346068 646.640518 
L 1665.76135 646.64 
L 1666.176631 648 
L 1666.591913 646.6552 
L 1667.007194 646.648384 
L 1667.422476 647.673893 
L 1667.837757 646.959814 
L 1668.253039 648 
L 1668.668321 646.648909 
L 1669.083602 647.98899 
L 1672.821136 648 
L 1673.236418 646.082682 
L 1673.651699 648 
L 1681.126768 648 
L 1681.542049 646.623744 
L 1681.957331 647.997903 
L 1683.618457 648 
L 1684.033739 646.625318 
L 1684.44902 648 
L 1686.110146 648 
L 1686.525428 646.615878 
L 1686.94071 648 
L 1687.355991 648 
L 1687.771273 646.980787 
L 1688.186554 647.634047 
L 1688.601836 646.617978 
L 1689.017117 648 
L 1696.076904 648 
L 1696.492186 646.86439 
L 1696.907467 647.761449 
L 1697.322749 648 
L 1697.73803 648 
L 1698.153312 647.662883 
L 1698.568593 646.948275 
L 1698.983875 648 
L 1703.967254 648 
L 1704.382535 646.83975 
L 1704.797817 647.768265 
L 1705.213098 648 
L 1706.043662 648 
L 1706.458943 646.616928 
L 1706.874225 648 
L 1707.704788 648 
L 1708.120069 646.644192 
L 1708.535351 647.98899 
L 1713.103448 648 
L 1719.747953 648 
L 1720.163235 646.367891 
L 1720.578516 621.288064 
L 1720.993798 646.944083 
L 1721.40908 601.490432 
L 1721.824361 648 
L 1723.485487 648 
L 1723.900769 647.253939 
L 1724.316051 610.228224 
L 1724.731332 600.693504 
L 1725.146614 537.75424 
L 1725.561895 320.24128 
L 1725.977177 647.225101 
L 1726.392458 576.6432 
L 1726.80774 640.150336 
L 1727.223022 648 
L 1748.402382 647.998427 
L 1748.817663 647.748866 
L 1749.232945 648 
L 1750.894071 648 
L 1751.309353 647.037408 
L 1751.724634 648 
L 1775.810965 648 
L 1776.226247 647.226675 
L 1776.641528 648 
L 1782.870752 648 
L 1783.286033 609.671424 
L 1783.701315 600.640512 
L 1784.116596 515.18976 
L 1784.531878 341.04064 
L 1784.94716 648 
L 1785.362441 573.86048 
L 1785.777723 643.768998 
L 1786.193004 648 
L 1789.930538 648 
L 1790.34582 646.510496 
L 1790.761101 647.983747 
L 1792.006946 648 
L 1792.422228 646.83241 
L 1792.837509 647.608881 
L 1793.252791 648 
L 1793.668072 648 
L 1794.083354 611.953088 
L 1794.498636 647.705875 
L 1794.913917 648 
L 1806.541801 648 
L 1806.957083 612.11776 
L 1807.787646 586.064832 
L 1808.202927 271.98976 
L 1808.618209 647.976407 
L 1809.03349 576.60672 
L 1809.448772 641.099328 
L 1809.864054 646.533568 
L 1810.279335 647.999476 
L 1822.322501 648 
L 1822.737782 646.548768 
L 1823.153064 647.98899 
L 1827.721161 648 
L 1833.119821 648 
L 1833.535103 646.559258 
L 1833.950385 647.994233 
L 1836.857356 648 
L 1837.272637 647.247648 
L 1837.687919 648 
L 1839.764326 648 
L 1840.179608 646.545626 
L 1840.59489 647.997903 
L 1841.425453 648 
L 1841.840734 647.497732 
L 1842.256016 642.712557 
L 1842.671297 626.330624 
L 1843.086579 579.728 
L 1843.501861 619.974208 
L 1843.917142 305.4784 
L 1844.332424 564.10496 
L 1844.747705 648 
L 1845.162987 570.64832 
L 1845.578268 646.969248 
L 1845.99355 648 
L 1846.408832 648 
L 1846.824113 608.718784 
L 1847.239395 597.979264 
L 1847.654676 631.433024 
L 1848.069958 226.6592 
L 1848.485239 647.93394 
L 1848.900521 648 
L 1849.315803 569.57824 
L 1849.731084 647.972737 
L 1851.807492 648 
L 1853.053337 648 
L 1853.468618 647.766168 
L 1853.8839 646.712346 
L 1854.299181 648 
L 1858.451997 648 
L 1858.867279 647.462081 
L 1859.28256 646.104698 
L 1859.697842 648 
L 1861.77425 648 
L 1862.189531 647.608881 
L 1862.604813 648 
L 1867.588192 648 
L 1868.003473 647.097178 
L 1868.418755 648 
L 1868.834036 647.991087 
L 1869.249318 646.539334 
L 1869.664599 579.40992 
L 1870.079881 617.448192 
L 1870.495163 280.8736 
L 1870.910444 592.708096 
L 1871.325726 648 
L 1871.741007 570.16704 
L 1872.156289 647.172147 
L 1872.57157 648 
L 1875.478541 648 
L 1875.893823 643.340653 
L 1876.309104 579.5648 
L 1876.724386 638.754688 
L 1877.139668 648 
L 1883.784173 648 
L 1884.199454 578.40576 
L 1884.614736 620.348544 
L 1885.030017 299.28704 
L 1885.445299 571.072 
L 1885.860581 648 
L 1886.275862 570.67776 
L 1886.691144 646.93465 
L 1887.106425 648 
L 1889.598115 648 
L 1890.013396 647.39235 
L 1890.428678 578.58432 
L 1890.843959 620.538304 
L 1891.259241 294.89664 
L 1891.674522 575.66272 
L 1892.089804 648 
L 1892.505086 570.6112 
L 1892.920367 646.921542 
L 1893.335649 648 
L 1894.581493 648 
L 1894.996775 607.280128 
L 1895.412057 603.557696 
L 1895.827338 380.97728 
L 1896.24262 477.42208 
L 1896.657901 648 
L 1897.073183 571.65184 
L 1897.488464 645.830496 
L 1897.903746 648 
L 1901.64128 648 
L 1902.056562 571.4912 
L 1902.471843 646.492672 
L 1902.887125 647.079347 
L 1903.302406 648 
L 1904.132969 648 
L 1904.548251 584.441088 
L 1905.378814 611.62592 
L 1905.794096 647.991611 
L 1909.53163 648 
L 1909.946911 646.99127 
L 1910.362193 647.404409 
L 1910.777475 648 
L 1912.023319 648 
L 1912.438601 646.527277 
L 1912.853882 647.986893 
L 1914.515009 648 
L 1914.93029 647.28487 
L 1915.345572 646.92311 
L 1915.760853 648 
L 1916.176135 646.954573 
L 1916.591417 647.238208 
L 1917.006698 648 
L 1918.667824 647.992136 
L 1919.083106 646.180723 
L 1919.498388 647.763546 
L 1919.913669 648 
L 1920.328951 647.800771 
L 1920.744232 646.752192 
L 1921.159514 648 
L 1921.990077 648 
L 1922.405358 646.540384 
L 1922.82064 647.94862 
L 1923.235922 647.950193 
L 1923.651203 646.571315 
L 1924.066485 648 
L 1933.202679 648 
L 1933.617961 646.793088 
L 1934.033242 647.743623 
L 1934.448524 648 
L 1944 648 
L 1944 648 
" style="fill:none;stroke:#0000ff;stroke-linecap:square;"/>
   </g>
   <g id="line2d_2">
    <defs>
     <path d="M 0 3 
C 0.795609 3 1.55874 2.683901 2.12132 2.12132 
C 2.683901 1.55874 3 0.795609 3 0 
C 3 -0.795609 2.683901 -1.55874 2.12132 -2.12132 
C 1.55874 -2.683901 0.795609 -3 0 -3 
C -0.795609 -3 -1.55874 -2.683901 -2.12132 -2.12132 
C -2.683901 -1.55874 -3 -0.795609 -3 0 
C -3 0.795609 -2.683901 1.55874 -2.12132 2.12132 
C -1.55874 2.683901 -0.795609 3 0 3 
z
" id="ma6828cc830" style="stroke:#000000;stroke-width:0.5;"/>
    </defs>
    <g clip-path="url(#p9113df60cc)">
     <use style="fill:#ff0000;stroke:#000000;stroke-width:0.5;" x="1042.83899778" xlink:href="#ma6828cc830" y="269.2928"/>
     <use style="fill:#ff0000;stroke:#000000;stroke-width:0.5;" x="1139.59960309" xlink:href="#ma6828cc830" y="156.72768"/>
     <use style="fill:#ff0000;stroke:#000000;stroke-width:0.5;" x="1222.65591666" xlink:href="#ma6828cc830" y="382.12352"/>
     <use style="fill:#ff0000;stroke:#000000;stroke-width:0.5;" x="1284.53287026" xlink:href="#ma6828cc830" y="430.61568"/>
     <use style="fill:#ff0000;stroke:#000000;stroke-width:0.5;" x="1338.93475565" xlink:href="#ma6828cc830" y="408.24704"/>
     <use style="fill:#ff0000;stroke:#000000;stroke-width:0.5;" x="1363.02108659" xlink:href="#ma6828cc830" y="298.13184"/>
     <use style="fill:#ff0000;stroke:#000000;stroke-width:0.5;" x="1363.43636815" xlink:href="#ma6828cc830" y="466.37248"/>
    </g>
   </g>
   <g id="patch_3">
    <path d="M 270 72 
L 1944 72 
" style="fill:none;stroke:#000000;stroke-linecap:square;stroke-linejoin:miter;"/>
   </g>
   <g id="patch_4">
    <path d="M 1944 648 
L 1944 72 
" style="fill:none;stroke:#000000;stroke-linecap:square;stroke-linejoin:miter;"/>
   </g>
   <g id="patch_5">
    <path d="M 270 648 
L 1944 648 
" style="fill:none;stroke:#000000;stroke-linecap:square;stroke-linejoin:miter;"/>
   </g>
   <g id="patch_6">
    <path d="M 270 648 
L 270 72 
" style="fill:none;stroke:#000000;stroke-linecap:square;stroke-linejoin:miter;"/>
   </g>
   <g id="matplotlib.axis_1">
    <g id="xtick_1">
     <g id="line2d_3">
      <defs>
       <path d="M 0 0 
L 0 -4 
" id="m88e7ccb070" style="stroke:#000000;stroke-width:0.5;"/>
      </defs>
      <g>
       <use style="stroke:#000000;stroke-width:0.5;" x="437.358471856" xlink:href="#m88e7ccb070" y="648.0"/>
      </g>
     </g>
     <g id="line2d_4">
      <defs>
       <path d="M 0 0 
L 0 4 
" id="mf05425f4ef" style="stroke:#000000;stroke-width:0.5;"/>
      </defs>
      <g>
       <use style="stroke:#000000;stroke-width:0.5;" x="437.358471856" xlink:href="#mf05425f4ef" y="72.0"/>
      </g>
     </g>
     <g id="text_1">
      <!-- Apr 04 2014 -->
      <defs>
       <path d="M 19.1875 8.296875 
L 53.609375 8.296875 
L 53.609375 0 
L 7.328125 0 
L 7.328125 8.296875 
Q 12.9375 14.109375 22.625 23.890625 
Q 32.328125 33.6875 34.8125 36.53125 
Q 39.546875 41.84375 41.421875 45.53125 
Q 43.3125 49.21875 43.3125 52.78125 
Q 43.3125 58.59375 39.234375 62.25 
Q 35.15625 65.921875 28.609375 65.921875 
Q 23.96875 65.921875 18.8125 64.3125 
Q 13.671875 62.703125 7.8125 59.421875 
L 7.8125 69.390625 
Q 13.765625 71.78125 18.9375 73 
Q 24.125 74.21875 28.421875 74.21875 
Q 39.75 74.21875 46.484375 68.546875 
Q 53.21875 62.890625 53.21875 53.421875 
Q 53.21875 48.921875 51.53125 44.890625 
Q 49.859375 40.875 45.40625 35.40625 
Q 44.1875 33.984375 37.640625 27.21875 
Q 31.109375 20.453125 19.1875 8.296875 
" id="BitstreamVeraSans-Roman-32"/>
       <path id="BitstreamVeraSans-Roman-20"/>
       <path d="M 31.78125 66.40625 
Q 24.171875 66.40625 20.328125 58.90625 
Q 16.5 51.421875 16.5 36.375 
Q 16.5 21.390625 20.328125 13.890625 
Q 24.171875 6.390625 31.78125 6.390625 
Q 39.453125 6.390625 43.28125 13.890625 
Q 47.125 21.390625 47.125 36.375 
Q 47.125 51.421875 43.28125 58.90625 
Q 39.453125 66.40625 31.78125 66.40625 
M 31.78125 74.21875 
Q 44.046875 74.21875 50.515625 64.515625 
Q 56.984375 54.828125 56.984375 36.375 
Q 56.984375 17.96875 50.515625 8.265625 
Q 44.046875 -1.421875 31.78125 -1.421875 
Q 19.53125 -1.421875 13.0625 8.265625 
Q 6.59375 17.96875 6.59375 36.375 
Q 6.59375 54.828125 13.0625 64.515625 
Q 19.53125 74.21875 31.78125 74.21875 
" id="BitstreamVeraSans-Roman-30"/>
       <path d="M 12.40625 8.296875 
L 28.515625 8.296875 
L 28.515625 63.921875 
L 10.984375 60.40625 
L 10.984375 69.390625 
L 28.421875 72.90625 
L 38.28125 72.90625 
L 38.28125 8.296875 
L 54.390625 8.296875 
L 54.390625 0 
L 12.40625 0 
z
" id="BitstreamVeraSans-Roman-31"/>
       <path d="M 37.796875 64.3125 
L 12.890625 25.390625 
L 37.796875 25.390625 
z
M 35.203125 72.90625 
L 47.609375 72.90625 
L 47.609375 25.390625 
L 58.015625 25.390625 
L 58.015625 17.1875 
L 47.609375 17.1875 
L 47.609375 0 
L 37.796875 0 
L 37.796875 17.1875 
L 4.890625 17.1875 
L 4.890625 26.703125 
z
" id="BitstreamVeraSans-Roman-34"/>
       <path d="M 34.1875 63.1875 
L 20.796875 26.90625 
L 47.609375 26.90625 
z
M 28.609375 72.90625 
L 39.796875 72.90625 
L 67.578125 0 
L 57.328125 0 
L 50.6875 18.703125 
L 17.828125 18.703125 
L 11.1875 0 
L 0.78125 0 
z
" id="BitstreamVeraSans-Roman-41"/>
       <path d="M 41.109375 46.296875 
Q 39.59375 47.171875 37.8125 47.578125 
Q 36.03125 48 33.890625 48 
Q 26.265625 48 22.1875 43.046875 
Q 18.109375 38.09375 18.109375 28.8125 
L 18.109375 0 
L 9.078125 0 
L 9.078125 54.6875 
L 18.109375 54.6875 
L 18.109375 46.1875 
Q 20.953125 51.171875 25.484375 53.578125 
Q 30.03125 56 36.53125 56 
Q 37.453125 56 38.578125 55.875 
Q 39.703125 55.765625 41.0625 55.515625 
z
" id="BitstreamVeraSans-Roman-72"/>
       <path d="M 18.109375 8.203125 
L 18.109375 -20.796875 
L 9.078125 -20.796875 
L 9.078125 54.6875 
L 18.109375 54.6875 
L 18.109375 46.390625 
Q 20.953125 51.265625 25.265625 53.625 
Q 29.59375 56 35.59375 56 
Q 45.5625 56 51.78125 48.09375 
Q 58.015625 40.1875 58.015625 27.296875 
Q 58.015625 14.40625 51.78125 6.484375 
Q 45.5625 -1.421875 35.59375 -1.421875 
Q 29.59375 -1.421875 25.265625 0.953125 
Q 20.953125 3.328125 18.109375 8.203125 
M 48.6875 27.296875 
Q 48.6875 37.203125 44.609375 42.84375 
Q 40.53125 48.484375 33.40625 48.484375 
Q 26.265625 48.484375 22.1875 42.84375 
Q 18.109375 37.203125 18.109375 27.296875 
Q 18.109375 17.390625 22.1875 11.75 
Q 26.265625 6.109375 33.40625 6.109375 
Q 40.53125 6.109375 44.609375 11.75 
Q 48.6875 17.390625 48.6875 27.296875 
" id="BitstreamVeraSans-Roman-70"/>
      </defs>
      <g transform="translate(400.259721856 661.118125)scale(0.12 -0.12)">
       <use xlink:href="#BitstreamVeraSans-Roman-41"/>
       <use x="68.408203125" xlink:href="#BitstreamVeraSans-Roman-70"/>
       <use x="131.884765625" xlink:href="#BitstreamVeraSans-Roman-72"/>
       <use x="172.998046875" xlink:href="#BitstreamVeraSans-Roman-20"/>
       <use x="204.78515625" xlink:href="#BitstreamVeraSans-Roman-30"/>
       <use x="268.408203125" xlink:href="#BitstreamVeraSans-Roman-34"/>
       <use x="332.03125" xlink:href="#BitstreamVeraSans-Roman-20"/>
       <use x="363.818359375" xlink:href="#BitstreamVeraSans-Roman-32"/>
       <use x="427.44140625" xlink:href="#BitstreamVeraSans-Roman-30"/>
       <use x="491.064453125" xlink:href="#BitstreamVeraSans-Roman-31"/>
       <use x="554.6875" xlink:href="#BitstreamVeraSans-Roman-34"/>
      </g>
     </g>
    </g>
    <g id="xtick_2">
     <g id="line2d_5">
      <g>
       <use style="stroke:#000000;stroke-width:0.5;" x="676.560654938" xlink:href="#m88e7ccb070" y="648.0"/>
      </g>
     </g>
     <g id="line2d_6">
      <g>
       <use style="stroke:#000000;stroke-width:0.5;" x="676.560654938" xlink:href="#mf05425f4ef" y="72.0"/>
      </g>
     </g>
     <g id="text_2">
      <!-- Apr 06 2014 -->
      <defs>
       <path d="M 33.015625 40.375 
Q 26.375 40.375 22.484375 35.828125 
Q 18.609375 31.296875 18.609375 23.390625 
Q 18.609375 15.53125 22.484375 10.953125 
Q 26.375 6.390625 33.015625 6.390625 
Q 39.65625 6.390625 43.53125 10.953125 
Q 47.40625 15.53125 47.40625 23.390625 
Q 47.40625 31.296875 43.53125 35.828125 
Q 39.65625 40.375 33.015625 40.375 
M 52.59375 71.296875 
L 52.59375 62.3125 
Q 48.875 64.0625 45.09375 64.984375 
Q 41.3125 65.921875 37.59375 65.921875 
Q 27.828125 65.921875 22.671875 59.328125 
Q 17.53125 52.734375 16.796875 39.40625 
Q 19.671875 43.65625 24.015625 45.921875 
Q 28.375 48.1875 33.59375 48.1875 
Q 44.578125 48.1875 50.953125 41.515625 
Q 57.328125 34.859375 57.328125 23.390625 
Q 57.328125 12.15625 50.6875 5.359375 
Q 44.046875 -1.421875 33.015625 -1.421875 
Q 20.359375 -1.421875 13.671875 8.265625 
Q 6.984375 17.96875 6.984375 36.375 
Q 6.984375 53.65625 15.1875 63.9375 
Q 23.390625 74.21875 37.203125 74.21875 
Q 40.921875 74.21875 44.703125 73.484375 
Q 48.484375 72.75 52.59375 71.296875 
" id="BitstreamVeraSans-Roman-36"/>
      </defs>
      <g transform="translate(639.461904938 661.118125)scale(0.12 -0.12)">
       <use xlink:href="#BitstreamVeraSans-Roman-41"/>
       <use x="68.408203125" xlink:href="#BitstreamVeraSans-Roman-70"/>
       <use x="131.884765625" xlink:href="#BitstreamVeraSans-Roman-72"/>
       <use x="172.998046875" xlink:href="#BitstreamVeraSans-Roman-20"/>
       <use x="204.78515625" xlink:href="#BitstreamVeraSans-Roman-30"/>
       <use x="268.408203125" xlink:href="#BitstreamVeraSans-Roman-36"/>
       <use x="332.03125" xlink:href="#BitstreamVeraSans-Roman-20"/>
       <use x="363.818359375" xlink:href="#BitstreamVeraSans-Roman-32"/>
       <use x="427.44140625" xlink:href="#BitstreamVeraSans-Roman-30"/>
       <use x="491.064453125" xlink:href="#BitstreamVeraSans-Roman-31"/>
       <use x="554.6875" xlink:href="#BitstreamVeraSans-Roman-34"/>
      </g>
     </g>
    </g>
    <g id="xtick_3">
     <g id="line2d_7">
      <g>
       <use style="stroke:#000000;stroke-width:0.5;" x="915.762838006" xlink:href="#m88e7ccb070" y="648.0"/>
      </g>
     </g>
     <g id="line2d_8">
      <g>
       <use style="stroke:#000000;stroke-width:0.5;" x="915.762838006" xlink:href="#mf05425f4ef" y="72.0"/>
      </g>
     </g>
     <g id="text_3">
      <!-- Apr 08 2014 -->
      <defs>
       <path d="M 31.78125 34.625 
Q 24.75 34.625 20.71875 30.859375 
Q 16.703125 27.09375 16.703125 20.515625 
Q 16.703125 13.921875 20.71875 10.15625 
Q 24.75 6.390625 31.78125 6.390625 
Q 38.8125 6.390625 42.859375 10.171875 
Q 46.921875 13.96875 46.921875 20.515625 
Q 46.921875 27.09375 42.890625 30.859375 
Q 38.875 34.625 31.78125 34.625 
M 21.921875 38.8125 
Q 15.578125 40.375 12.03125 44.71875 
Q 8.5 49.078125 8.5 55.328125 
Q 8.5 64.0625 14.71875 69.140625 
Q 20.953125 74.21875 31.78125 74.21875 
Q 42.671875 74.21875 48.875 69.140625 
Q 55.078125 64.0625 55.078125 55.328125 
Q 55.078125 49.078125 51.53125 44.71875 
Q 48 40.375 41.703125 38.8125 
Q 48.828125 37.15625 52.796875 32.3125 
Q 56.78125 27.484375 56.78125 20.515625 
Q 56.78125 9.90625 50.3125 4.234375 
Q 43.84375 -1.421875 31.78125 -1.421875 
Q 19.734375 -1.421875 13.25 4.234375 
Q 6.78125 9.90625 6.78125 20.515625 
Q 6.78125 27.484375 10.78125 32.3125 
Q 14.796875 37.15625 21.921875 38.8125 
M 18.3125 54.390625 
Q 18.3125 48.734375 21.84375 45.5625 
Q 25.390625 42.390625 31.78125 42.390625 
Q 38.140625 42.390625 41.71875 45.5625 
Q 45.3125 48.734375 45.3125 54.390625 
Q 45.3125 60.0625 41.71875 63.234375 
Q 38.140625 66.40625 31.78125 66.40625 
Q 25.390625 66.40625 21.84375 63.234375 
Q 18.3125 60.0625 18.3125 54.390625 
" id="BitstreamVeraSans-Roman-38"/>
      </defs>
      <g transform="translate(878.664088006 661.118125)scale(0.12 -0.12)">
       <use xlink:href="#BitstreamVeraSans-Roman-41"/>
       <use x="68.408203125" xlink:href="#BitstreamVeraSans-Roman-70"/>
       <use x="131.884765625" xlink:href="#BitstreamVeraSans-Roman-72"/>
       <use x="172.998046875" xlink:href="#BitstreamVeraSans-Roman-20"/>
       <use x="204.78515625" xlink:href="#BitstreamVeraSans-Roman-30"/>
       <use x="268.408203125" xlink:href="#BitstreamVeraSans-Roman-38"/>
       <use x="332.03125" xlink:href="#BitstreamVeraSans-Roman-20"/>
       <use x="363.818359375" xlink:href="#BitstreamVeraSans-Roman-32"/>
       <use x="427.44140625" xlink:href="#BitstreamVeraSans-Roman-30"/>
       <use x="491.064453125" xlink:href="#BitstreamVeraSans-Roman-31"/>
       <use x="554.6875" xlink:href="#BitstreamVeraSans-Roman-34"/>
      </g>
     </g>
    </g>
    <g id="xtick_4">
     <g id="line2d_9">
      <g>
       <use style="stroke:#000000;stroke-width:0.5;" x="1154.96502109" xlink:href="#m88e7ccb070" y="648.0"/>
      </g>
     </g>
     <g id="line2d_10">
      <g>
       <use style="stroke:#000000;stroke-width:0.5;" x="1154.96502109" xlink:href="#mf05425f4ef" y="72.0"/>
      </g>
     </g>
     <g id="text_4">
      <!-- Apr 10 2014 -->
      <g transform="translate(1117.86627109 661.118125)scale(0.12 -0.12)">
       <use xlink:href="#BitstreamVeraSans-Roman-41"/>
       <use x="68.408203125" xlink:href="#BitstreamVeraSans-Roman-70"/>
       <use x="131.884765625" xlink:href="#BitstreamVeraSans-Roman-72"/>
       <use x="172.998046875" xlink:href="#BitstreamVeraSans-Roman-20"/>
       <use x="204.78515625" xlink:href="#BitstreamVeraSans-Roman-31"/>
       <use x="268.408203125" xlink:href="#BitstreamVeraSans-Roman-30"/>
       <use x="332.03125" xlink:href="#BitstreamVeraSans-Roman-20"/>
       <use x="363.818359375" xlink:href="#BitstreamVeraSans-Roman-32"/>
       <use x="427.44140625" xlink:href="#BitstreamVeraSans-Roman-30"/>
       <use x="491.064453125" xlink:href="#BitstreamVeraSans-Roman-31"/>
       <use x="554.6875" xlink:href="#BitstreamVeraSans-Roman-34"/>
      </g>
     </g>
    </g>
    <g id="xtick_5">
     <g id="line2d_11">
      <g>
       <use style="stroke:#000000;stroke-width:0.5;" x="1394.16720417" xlink:href="#m88e7ccb070" y="648.0"/>
      </g>
     </g>
     <g id="line2d_12">
      <g>
       <use style="stroke:#000000;stroke-width:0.5;" x="1394.16720417" xlink:href="#mf05425f4ef" y="72.0"/>
      </g>
     </g>
     <g id="text_5">
      <!-- Apr 12 2014 -->
      <g transform="translate(1357.06845417 661.118125)scale(0.12 -0.12)">
       <use xlink:href="#BitstreamVeraSans-Roman-41"/>
       <use x="68.408203125" xlink:href="#BitstreamVeraSans-Roman-70"/>
       <use x="131.884765625" xlink:href="#BitstreamVeraSans-Roman-72"/>
       <use x="172.998046875" xlink:href="#BitstreamVeraSans-Roman-20"/>
       <use x="204.78515625" xlink:href="#BitstreamVeraSans-Roman-31"/>
       <use x="268.408203125" xlink:href="#BitstreamVeraSans-Roman-32"/>
       <use x="332.03125" xlink:href="#BitstreamVeraSans-Roman-20"/>
       <use x="363.818359375" xlink:href="#BitstreamVeraSans-Roman-32"/>
       <use x="427.44140625" xlink:href="#BitstreamVeraSans-Roman-30"/>
       <use x="491.064453125" xlink:href="#BitstreamVeraSans-Roman-31"/>
       <use x="554.6875" xlink:href="#BitstreamVeraSans-Roman-34"/>
      </g>
     </g>
    </g>
    <g id="xtick_6">
     <g id="line2d_13">
      <g>
       <use style="stroke:#000000;stroke-width:0.5;" x="1633.36938725" xlink:href="#m88e7ccb070" y="648.0"/>
      </g>
     </g>
     <g id="line2d_14">
      <g>
       <use style="stroke:#000000;stroke-width:0.5;" x="1633.36938725" xlink:href="#mf05425f4ef" y="72.0"/>
      </g>
     </g>
     <g id="text_6">
      <!-- Apr 14 2014 -->
      <g transform="translate(1596.27063725 661.118125)scale(0.12 -0.12)">
       <use xlink:href="#BitstreamVeraSans-Roman-41"/>
       <use x="68.408203125" xlink:href="#BitstreamVeraSans-Roman-70"/>
       <use x="131.884765625" xlink:href="#BitstreamVeraSans-Roman-72"/>
       <use x="172.998046875" xlink:href="#BitstreamVeraSans-Roman-20"/>
       <use x="204.78515625" xlink:href="#BitstreamVeraSans-Roman-31"/>
       <use x="268.408203125" xlink:href="#BitstreamVeraSans-Roman-34"/>
       <use x="332.03125" xlink:href="#BitstreamVeraSans-Roman-20"/>
       <use x="363.818359375" xlink:href="#BitstreamVeraSans-Roman-32"/>
       <use x="427.44140625" xlink:href="#BitstreamVeraSans-Roman-30"/>
       <use x="491.064453125" xlink:href="#BitstreamVeraSans-Roman-31"/>
       <use x="554.6875" xlink:href="#BitstreamVeraSans-Roman-34"/>
      </g>
     </g>
    </g>
    <g id="xtick_7">
     <g id="line2d_15">
      <g>
       <use style="stroke:#000000;stroke-width:0.5;" x="1872.57157034" xlink:href="#m88e7ccb070" y="648.0"/>
      </g>
     </g>
     <g id="line2d_16">
      <g>
       <use style="stroke:#000000;stroke-width:0.5;" x="1872.57157034" xlink:href="#mf05425f4ef" y="72.0"/>
      </g>
     </g>
     <g id="text_7">
      <!-- Apr 16 2014 -->
      <g transform="translate(1835.47282034 661.118125)scale(0.12 -0.12)">
       <use xlink:href="#BitstreamVeraSans-Roman-41"/>
       <use x="68.408203125" xlink:href="#BitstreamVeraSans-Roman-70"/>
       <use x="131.884765625" xlink:href="#BitstreamVeraSans-Roman-72"/>
       <use x="172.998046875" xlink:href="#BitstreamVeraSans-Roman-20"/>
       <use x="204.78515625" xlink:href="#BitstreamVeraSans-Roman-31"/>
       <use x="268.408203125" xlink:href="#BitstreamVeraSans-Roman-36"/>
       <use x="332.03125" xlink:href="#BitstreamVeraSans-Roman-20"/>
       <use x="363.818359375" xlink:href="#BitstreamVeraSans-Roman-32"/>
       <use x="427.44140625" xlink:href="#BitstreamVeraSans-Roman-30"/>
       <use x="491.064453125" xlink:href="#BitstreamVeraSans-Roman-31"/>
       <use x="554.6875" xlink:href="#BitstreamVeraSans-Roman-34"/>
      </g>
     </g>
    </g>
   </g>
   <g id="matplotlib.axis_2">
    <g id="ytick_1">
     <g id="line2d_17">
      <defs>
       <path d="M 0 0 
L 4 0 
" id="m800b2f3ab6" style="stroke:#000000;stroke-width:0.5;"/>
      </defs>
      <g>
       <use style="stroke:#000000;stroke-width:0.5;" x="270.0" xlink:href="#m800b2f3ab6" y="648.0"/>
      </g>
     </g>
     <g id="line2d_18">
      <defs>
       <path d="M 0 0 
L -4 0 
" id="m9033d546c2" style="stroke:#000000;stroke-width:0.5;"/>
      </defs>
      <g>
       <use style="stroke:#000000;stroke-width:0.5;" x="1944.0" xlink:href="#m9033d546c2" y="648.0"/>
      </g>
     </g>
     <g id="text_8">
      <!-- 0 -->
      <g transform="translate(258.365 651.31125)scale(0.12 -0.12)">
       <use xlink:href="#BitstreamVeraSans-Roman-30"/>
      </g>
     </g>
    </g>
    <g id="ytick_2">
     <g id="line2d_19">
      <g>
       <use style="stroke:#000000;stroke-width:0.5;" x="270.0" xlink:href="#m800b2f3ab6" y="584.0"/>
      </g>
     </g>
     <g id="line2d_20">
      <g>
       <use style="stroke:#000000;stroke-width:0.5;" x="1944.0" xlink:href="#m9033d546c2" y="584.0"/>
      </g>
     </g>
     <g id="text_9">
      <!-- 1 -->
      <g transform="translate(258.365 587.31125)scale(0.12 -0.12)">
       <use xlink:href="#BitstreamVeraSans-Roman-31"/>
      </g>
     </g>
    </g>
    <g id="ytick_3">
     <g id="line2d_21">
      <g>
       <use style="stroke:#000000;stroke-width:0.5;" x="270.0" xlink:href="#m800b2f3ab6" y="520.0"/>
      </g>
     </g>
     <g id="line2d_22">
      <g>
       <use style="stroke:#000000;stroke-width:0.5;" x="1944.0" xlink:href="#m9033d546c2" y="520.0"/>
      </g>
     </g>
     <g id="text_10">
      <!-- 2 -->
      <g transform="translate(258.365 523.31125)scale(0.12 -0.12)">
       <use xlink:href="#BitstreamVeraSans-Roman-32"/>
      </g>
     </g>
    </g>
    <g id="ytick_4">
     <g id="line2d_23">
      <g>
       <use style="stroke:#000000;stroke-width:0.5;" x="270.0" xlink:href="#m800b2f3ab6" y="456.0"/>
      </g>
     </g>
     <g id="line2d_24">
      <g>
       <use style="stroke:#000000;stroke-width:0.5;" x="1944.0" xlink:href="#m9033d546c2" y="456.0"/>
      </g>
     </g>
     <g id="text_11">
      <!-- 3 -->
      <defs>
       <path d="M 40.578125 39.3125 
Q 47.65625 37.796875 51.625 33 
Q 55.609375 28.21875 55.609375 21.1875 
Q 55.609375 10.40625 48.1875 4.484375 
Q 40.765625 -1.421875 27.09375 -1.421875 
Q 22.515625 -1.421875 17.65625 -0.515625 
Q 12.796875 0.390625 7.625 2.203125 
L 7.625 11.71875 
Q 11.71875 9.328125 16.59375 8.109375 
Q 21.484375 6.890625 26.8125 6.890625 
Q 36.078125 6.890625 40.9375 10.546875 
Q 45.796875 14.203125 45.796875 21.1875 
Q 45.796875 27.640625 41.28125 31.265625 
Q 36.765625 34.90625 28.71875 34.90625 
L 20.21875 34.90625 
L 20.21875 43.015625 
L 29.109375 43.015625 
Q 36.375 43.015625 40.234375 45.921875 
Q 44.09375 48.828125 44.09375 54.296875 
Q 44.09375 59.90625 40.109375 62.90625 
Q 36.140625 65.921875 28.71875 65.921875 
Q 24.65625 65.921875 20.015625 65.03125 
Q 15.375 64.15625 9.8125 62.3125 
L 9.8125 71.09375 
Q 15.4375 72.65625 20.34375 73.4375 
Q 25.25 74.21875 29.59375 74.21875 
Q 40.828125 74.21875 47.359375 69.109375 
Q 53.90625 64.015625 53.90625 55.328125 
Q 53.90625 49.265625 50.4375 45.09375 
Q 46.96875 40.921875 40.578125 39.3125 
" id="BitstreamVeraSans-Roman-33"/>
      </defs>
      <g transform="translate(258.365 459.31125)scale(0.12 -0.12)">
       <use xlink:href="#BitstreamVeraSans-Roman-33"/>
      </g>
     </g>
    </g>
    <g id="ytick_5">
     <g id="line2d_25">
      <g>
       <use style="stroke:#000000;stroke-width:0.5;" x="270.0" xlink:href="#m800b2f3ab6" y="392.0"/>
      </g>
     </g>
     <g id="line2d_26">
      <g>
       <use style="stroke:#000000;stroke-width:0.5;" x="1944.0" xlink:href="#m9033d546c2" y="392.0"/>
      </g>
     </g>
     <g id="text_12">
      <!-- 4 -->
      <g transform="translate(258.365 395.31125)scale(0.12 -0.12)">
       <use xlink:href="#BitstreamVeraSans-Roman-34"/>
      </g>
     </g>
    </g>
    <g id="ytick_6">
     <g id="line2d_27">
      <g>
       <use style="stroke:#000000;stroke-width:0.5;" x="270.0" xlink:href="#m800b2f3ab6" y="328.0"/>
      </g>
     </g>
     <g id="line2d_28">
      <g>
       <use style="stroke:#000000;stroke-width:0.5;" x="1944.0" xlink:href="#m9033d546c2" y="328.0"/>
      </g>
     </g>
     <g id="text_13">
      <!-- 5 -->
      <defs>
       <path d="M 10.796875 72.90625 
L 49.515625 72.90625 
L 49.515625 64.59375 
L 19.828125 64.59375 
L 19.828125 46.734375 
Q 21.96875 47.46875 24.109375 47.828125 
Q 26.265625 48.1875 28.421875 48.1875 
Q 40.625 48.1875 47.75 41.5 
Q 54.890625 34.8125 54.890625 23.390625 
Q 54.890625 11.625 47.5625 5.09375 
Q 40.234375 -1.421875 26.90625 -1.421875 
Q 22.3125 -1.421875 17.546875 -0.640625 
Q 12.796875 0.140625 7.71875 1.703125 
L 7.71875 11.625 
Q 12.109375 9.234375 16.796875 8.0625 
Q 21.484375 6.890625 26.703125 6.890625 
Q 35.15625 6.890625 40.078125 11.328125 
Q 45.015625 15.765625 45.015625 23.390625 
Q 45.015625 31 40.078125 35.4375 
Q 35.15625 39.890625 26.703125 39.890625 
Q 22.75 39.890625 18.8125 39.015625 
Q 14.890625 38.140625 10.796875 36.28125 
z
" id="BitstreamVeraSans-Roman-35"/>
      </defs>
      <g transform="translate(258.365 331.31125)scale(0.12 -0.12)">
       <use xlink:href="#BitstreamVeraSans-Roman-35"/>
      </g>
     </g>
    </g>
    <g id="ytick_7">
     <g id="line2d_29">
      <g>
       <use style="stroke:#000000;stroke-width:0.5;" x="270.0" xlink:href="#m800b2f3ab6" y="264.0"/>
      </g>
     </g>
     <g id="line2d_30">
      <g>
       <use style="stroke:#000000;stroke-width:0.5;" x="1944.0" xlink:href="#m9033d546c2" y="264.0"/>
      </g>
     </g>
     <g id="text_14">
      <!-- 6 -->
      <g transform="translate(258.365 267.31125)scale(0.12 -0.12)">
       <use xlink:href="#BitstreamVeraSans-Roman-36"/>
      </g>
     </g>
    </g>
    <g id="ytick_8">
     <g id="line2d_31">
      <g>
       <use style="stroke:#000000;stroke-width:0.5;" x="270.0" xlink:href="#m800b2f3ab6" y="200.0"/>
      </g>
     </g>
     <g id="line2d_32">
      <g>
       <use style="stroke:#000000;stroke-width:0.5;" x="1944.0" xlink:href="#m9033d546c2" y="200.0"/>
      </g>
     </g>
     <g id="text_15">
      <!-- 7 -->
      <defs>
       <path d="M 8.203125 72.90625 
L 55.078125 72.90625 
L 55.078125 68.703125 
L 28.609375 0 
L 18.3125 0 
L 43.21875 64.59375 
L 8.203125 64.59375 
z
" id="BitstreamVeraSans-Roman-37"/>
      </defs>
      <g transform="translate(258.365 203.31125)scale(0.12 -0.12)">
       <use xlink:href="#BitstreamVeraSans-Roman-37"/>
      </g>
     </g>
    </g>
    <g id="ytick_9">
     <g id="line2d_33">
      <g>
       <use style="stroke:#000000;stroke-width:0.5;" x="270.0" xlink:href="#m800b2f3ab6" y="136.0"/>
      </g>
     </g>
     <g id="line2d_34">
      <g>
       <use style="stroke:#000000;stroke-width:0.5;" x="1944.0" xlink:href="#m9033d546c2" y="136.0"/>
      </g>
     </g>
     <g id="text_16">
      <!-- 8 -->
      <g transform="translate(258.365 139.31125)scale(0.12 -0.12)">
       <use xlink:href="#BitstreamVeraSans-Roman-38"/>
      </g>
     </g>
    </g>
    <g id="ytick_10">
     <g id="line2d_35">
      <g>
       <use style="stroke:#000000;stroke-width:0.5;" x="270.0" xlink:href="#m800b2f3ab6" y="72.0"/>
      </g>
     </g>
     <g id="line2d_36">
      <g>
       <use style="stroke:#000000;stroke-width:0.5;" x="1944.0" xlink:href="#m9033d546c2" y="72.0"/>
      </g>
     </g>
     <g id="text_17">
      <!-- 9 -->
      <defs>
       <path d="M 10.984375 1.515625 
L 10.984375 10.5 
Q 14.703125 8.734375 18.5 7.8125 
Q 22.3125 6.890625 25.984375 6.890625 
Q 35.75 6.890625 40.890625 13.453125 
Q 46.046875 20.015625 46.78125 33.40625 
Q 43.953125 29.203125 39.59375 26.953125 
Q 35.25 24.703125 29.984375 24.703125 
Q 19.046875 24.703125 12.671875 31.3125 
Q 6.296875 37.9375 6.296875 49.421875 
Q 6.296875 60.640625 12.9375 67.421875 
Q 19.578125 74.21875 30.609375 74.21875 
Q 43.265625 74.21875 49.921875 64.515625 
Q 56.59375 54.828125 56.59375 36.375 
Q 56.59375 19.140625 48.40625 8.859375 
Q 40.234375 -1.421875 26.421875 -1.421875 
Q 22.703125 -1.421875 18.890625 -0.6875 
Q 15.09375 0.046875 10.984375 1.515625 
M 30.609375 32.421875 
Q 37.25 32.421875 41.125 36.953125 
Q 45.015625 41.5 45.015625 49.421875 
Q 45.015625 57.28125 41.125 61.84375 
Q 37.25 66.40625 30.609375 66.40625 
Q 23.96875 66.40625 20.09375 61.84375 
Q 16.21875 57.28125 16.21875 49.421875 
Q 16.21875 41.5 20.09375 36.953125 
Q 23.96875 32.421875 30.609375 32.421875 
" id="BitstreamVeraSans-Roman-39"/>
      </defs>
      <g transform="translate(258.365 75.31125)scale(0.12 -0.12)">
       <use xlink:href="#BitstreamVeraSans-Roman-39"/>
      </g>
     </g>
    </g>
    <g id="text_18">
     <!-- 1e8 -->
     <defs>
      <path d="M 56.203125 29.59375 
L 56.203125 25.203125 
L 14.890625 25.203125 
Q 15.484375 15.921875 20.484375 11.0625 
Q 25.484375 6.203125 34.421875 6.203125 
Q 39.59375 6.203125 44.453125 7.46875 
Q 49.3125 8.734375 54.109375 11.28125 
L 54.109375 2.78125 
Q 49.265625 0.734375 44.1875 -0.34375 
Q 39.109375 -1.421875 33.890625 -1.421875 
Q 20.796875 -1.421875 13.15625 6.1875 
Q 5.515625 13.8125 5.515625 26.8125 
Q 5.515625 40.234375 12.765625 48.109375 
Q 20.015625 56 32.328125 56 
Q 43.359375 56 49.78125 48.890625 
Q 56.203125 41.796875 56.203125 29.59375 
M 47.21875 32.234375 
Q 47.125 39.59375 43.09375 43.984375 
Q 39.0625 48.390625 32.421875 48.390625 
Q 24.90625 48.390625 20.390625 44.140625 
Q 15.875 39.890625 15.1875 32.171875 
z
" id="BitstreamVeraSans-Roman-65"/>
     </defs>
     <g transform="translate(270.0 69.0)scale(0.12 -0.12)">
      <use xlink:href="#BitstreamVeraSans-Roman-31"/>
      <use x="63.623046875" xlink:href="#BitstreamVeraSans-Roman-65"/>
      <use x="125.146484375" xlink:href="#BitstreamVeraSans-Roman-38"/>
     </g>
    </g>
   </g>
  </g>
 </g>
 <defs>
  <clipPath id="p9113df60cc">
   <rect height="576.0" width="1674.0" x="270.0" y="72.0"/>
  </clipPath>
 </defs>
</svg>
