<?xml version="1.0" encoding="utf-8" standalone="no"?>
<!DOCTYPE svg PUBLIC "-//W3C//DTD SVG 1.1//EN"
  "http://www.w3.org/Graphics/SVG/1.1/DTD/svg11.dtd">
<!-- Created with matplotlib (http://matplotlib.org/) -->
<svg height="720pt" version="1.1" viewBox="0 0 2160 720" width="2160pt" xmlns="http://www.w3.org/2000/svg" xmlns:xlink="http://www.w3.org/1999/xlink">
 <defs>
  <style type="text/css">
*{stroke-linecap:butt;stroke-linejoin:round;stroke-miterlimit:100000;}
  </style>
 </defs>
 <g id="figure_1">
  <g id="patch_1">
   <path d="M 0 720 
L 2160 720 
L 2160 0 
L 0 0 
z
" style="fill:#ffffff;"/>
  </g>
  <g id="axes_1">
   <g id="patch_2">
    <path d="M 270 648 
L 1944 648 
L 1944 72 
L 270 72 
z
" style="fill:#ffffff;"/>
   </g>
   <g id="line2d_1">
    <path clip-path="url(#p0018b0bd6a)" d="M 270 566.318641 
L 271.347826 230.436387 
L 272.695652 141.783248 
L 274.043478 187.229615 
L 275.391304 311.640784 
L 276.73913 421.064731 
L 278.086957 470.621318 
L 279.434783 504.490056 
L 280.782609 519.85338 
L 282.130435 509.256431 
L 283.478261 520.636982 
L 284.826087 535.444033 
L 286.173913 553.377075 
L 287.521739 548.235131 
L 288.869565 573.50853 
L 290.217391 580.500064 
L 291.565217 579.628775 
L 292.913043 588.028988 
L 294.26087 581.766779 
L 295.608696 586.739638 
L 296.956522 590.777236 
L 298.304348 588.49883 
L 299.652174 581.840921 
L 301 581.83397 
L 302.347826 576.978155 
L 303.695652 558.545951 
L 306.391304 538.408802 
L 307.73913 535.54016 
L 309.086957 530.340036 
L 310.434783 543.667474 
L 311.782609 533.688646 
L 313.130435 531.605378 
L 314.478261 536.870302 
L 315.826087 544.295077 
L 317.173913 545.67398 
L 318.521739 547.663759 
L 319.869565 553.023459 
L 321.217391 553.923001 
L 322.565217 546.093157 
L 323.913043 553.090838 
L 325.26087 531.23013 
L 326.608696 562.792857 
L 327.956522 552.064848 
L 329.304348 556.340241 
L 330.652174 581.487488 
L 332 577.240641 
L 333.347826 571.695345 
L 334.695652 564.913447 
L 336.043478 589.54494 
L 337.391304 591.343463 
L 338.73913 570.256312 
L 340.086957 572.69347 
L 341.434783 584.275641 
L 342.782609 575.738415 
L 344.130435 580.666033 
L 345.478261 579.675471 
L 346.826087 590.138057 
L 348.173913 580.641831 
L 349.521739 581.694978 
L 350.869565 585.188533 
L 352.217391 591.078892 
L 353.565217 591.467106 
L 354.913043 587.975488 
L 356.26087 601.825452 
L 357.608696 598.032145 
L 358.956522 604.511179 
L 360.304348 597.245042 
L 361.652174 598.759259 
L 363 603.740009 
L 364.347826 609.741558 
L 365.695652 608.622561 
L 367.043478 618.812948 
L 368.391304 615.073312 
L 369.73913 618.332254 
L 371.086957 617.634975 
L 372.434783 620.416538 
L 373.782609 620.829371 
L 375.130435 621.100231 
L 376.478261 620.920986 
L 377.826087 635.560271 
L 379.173913 636.800246 
L 380.521739 637.190019 
L 381.869565 630.327342 
L 383.217391 631.552203 
L 384.565217 635.375969 
L 385.913043 639.951824 
L 387.26087 639.9814 
L 388.608696 638.781992 
L 389.956522 639.430919 
L 391.304348 637.172411 
L 392.652174 634.314051 
L 394 640.749241 
L 395.347826 640.888278 
L 396.695652 641.15611 
L 398.043478 639.558435 
L 399.391304 639.307842 
L 400.73913 636.951981 
L 402.086957 640.583412 
L 403.434783 639.81871 
L 404.782609 639.809772 
L 406.130435 639.422621 
L 408.826087 632.573285 
L 410.173913 639.208161 
L 411.521739 639.793034 
L 412.869565 638.24559 
L 414.217391 637.685482 
L 415.565217 639.610066 
L 416.913043 635.92858 
L 418.26087 640.679822 
L 419.608696 641.203457 
L 420.956522 640.227089 
L 422.304348 639.652957 
L 423.652174 639.886685 
L 425 635.195133 
L 426.347826 640.438567 
L 427.695652 640.213994 
L 429.043478 638.098465 
L 430.391304 641.263122 
L 431.73913 637.534398 
L 433.086957 637.719009 
L 434.434783 640.10252 
L 435.782609 640.636065 
L 437.130435 639.483169 
L 438.478261 637.376258 
L 439.826087 639.222479 
L 441.173913 625.035458 
L 442.521739 627.702002 
L 443.869565 621.930307 
L 445.217391 636.787895 
L 446.565217 638.094355 
L 447.913043 640.6526 
L 449.26087 636.291056 
L 450.608696 637.526279 
L 451.956522 636.613713 
L 453.304348 639.987458 
L 454.652174 637.788544 
L 456 639.587976 
L 457.347826 633.235186 
L 458.695652 637.623288 
L 460.043478 637.627603 
L 461.391304 639.242682 
L 462.73913 639.541573 
L 464.086957 640.106837 
L 465.434783 640.137681 
L 466.782609 637.963393 
L 468.130435 640.231412 
L 469.478261 641.501231 
L 470.826087 635.605984 
L 472.173913 639.692159 
L 473.521739 632.283162 
L 474.869565 639.736051 
L 476.217391 641.416137 
L 477.565217 636.361946 
L 478.913043 638.830363 
L 480.26087 637.937008 
L 481.608696 638.312449 
L 482.956522 640.296156 
L 484.304348 639.062827 
L 485.652174 640.881341 
L 487 639.28876 
L 488.347826 639.753443 
L 489.695652 635.758448 
L 491.043478 639.510683 
L 492.391304 641.240587 
L 493.73913 640.605103 
L 495.086957 640.424507 
L 496.434783 637.626645 
L 499.130435 641.481556 
L 500.478261 640.293838 
L 501.826087 638.219551 
L 503.173913 638.40491 
L 504.521739 640.395288 
L 505.869565 633.986759 
L 507.217391 624.452254 
L 508.565217 638.562623 
L 509.913044 639.344644 
L 511.26087 638.151771 
L 512.608696 636.152837 
L 513.956522 639.077219 
L 515.304348 637.901915 
L 516.652174 640.172269 
L 518 640.513868 
L 519.347826 634.225531 
L 520.695652 637.798428 
L 522.043478 634.637406 
L 523.391304 632.366769 
L 524.73913 639.262332 
L 526.086957 638.372749 
L 527.434783 637.22667 
L 530.130435 635.831638 
L 531.478261 638.496694 
L 532.826087 638.788373 
L 534.173913 637.175081 
L 535.521739 637.168639 
L 536.869565 637.690615 
L 538.217391 634.741142 
L 539.565217 632.5768 
L 540.913044 584.35712 
L 543.608696 366.258252 
L 544.956522 321.17862 
L 546.304348 305.573887 
L 547.652174 268.321391 
L 549 346.564701 
L 550.347826 459.695181 
L 551.695652 498.277126 
L 553.043478 526.824767 
L 554.391304 540.855153 
L 555.73913 547.616678 
L 559.782609 581.27392 
L 561.130435 574.553414 
L 562.478261 584.100304 
L 563.826087 596.103745 
L 565.173913 591.122671 
L 566.521739 578.08041 
L 567.869565 569.248594 
L 569.217391 559.407418 
L 570.565217 551.493494 
L 571.913043 547.363895 
L 573.26087 543.620213 
L 574.608696 537.355271 
L 575.956522 532.84048 
L 577.304348 531.005926 
L 578.652174 537.178265 
L 580 537.236549 
L 581.347826 534.364778 
L 582.695652 532.725787 
L 584.043478 540.337177 
L 585.391304 543.418443 
L 586.73913 542.551924 
L 588.086957 550.266303 
L 589.434783 551.757985 
L 590.782609 549.28197 
L 592.130435 549.279691 
L 593.478261 554.388027 
L 594.826087 555.757637 
L 596.173913 570.000272 
L 597.521739 575.81742 
L 598.869565 588.490504 
L 600.217391 606.660956 
L 601.565217 609.936789 
L 602.913043 615.07037 
L 604.26087 618.453023 
L 605.608696 619.533914 
L 606.956522 614.172075 
L 608.304348 611.620684 
L 609.652174 611.3415 
L 611 586.354657 
L 612.347826 593.236449 
L 613.695652 603.207358 
L 615.043478 597.350195 
L 616.391304 594.574491 
L 617.73913 590.811067 
L 619.086957 591.70441 
L 620.434783 594.643655 
L 621.782609 596.783002 
L 623.130435 592.909017 
L 624.478261 594.343074 
L 625.826087 613.69438 
L 627.173913 615.613366 
L 628.521739 616.142263 
L 629.869565 615.066861 
L 631.217391 615.520296 
L 632.565217 612.174021 
L 633.913043 612.174572 
L 635.26087 606.034738 
L 636.608696 600.512644 
L 637.956522 591.690355 
L 639.304348 604.561072 
L 640.652174 594.546919 
L 642 611.161662 
L 643.347826 586.285711 
L 644.695652 610.56526 
L 647.391304 605.660659 
L 648.73913 604.915361 
L 650.086957 610.080291 
L 651.434783 609.749642 
L 652.782609 605.022813 
L 654.130435 606.701496 
L 655.478261 597.217919 
L 656.826087 605.191023 
L 658.173913 620.647718 
L 659.521739 606.184187 
L 660.869565 613.036186 
L 662.217391 613.441493 
L 663.565217 605.051019 
L 664.913043 609.369077 
L 666.26087 597.370207 
L 667.608696 602.323926 
L 668.956522 607.709656 
L 670.304348 601.342241 
L 671.652174 608.08546 
L 673 610.379873 
L 674.347826 610.671277 
L 675.695652 611.482857 
L 677.043478 603.769345 
L 678.391304 612.510853 
L 679.73913 615.222244 
L 681.086957 612.610168 
L 682.434783 611.742972 
L 683.782609 612.001672 
L 685.130435 615.609509 
L 686.478261 616.348764 
L 687.826087 617.618837 
L 689.173913 621.528217 
L 690.521739 616.560037 
L 691.869565 609.174732 
L 693.217391 619.893193 
L 694.565217 613.413004 
L 695.913043 617.92207 
L 697.26087 620.550531 
L 698.608696 622.183984 
L 699.956522 618.073456 
L 702.652174 620.918796 
L 704 618.524739 
L 705.347826 621.852949 
L 706.695652 621.806311 
L 708.043478 625.766467 
L 709.391304 625.321489 
L 710.73913 619.820475 
L 712.086957 625.64437 
L 713.434783 626.642113 
L 714.782609 621.28447 
L 716.130435 624.957749 
L 717.478261 627.55799 
L 718.826087 629.671578 
L 720.173913 625.908239 
L 721.521739 618.698526 
L 724.217391 611.939897 
L 725.565217 594.418956 
L 726.913043 534.799457 
L 728.26087 572.265797 
L 729.608696 603.689623 
L 730.956522 617.424261 
L 732.304348 622.681453 
L 733.652174 623.463848 
L 735 627.360235 
L 736.347826 624.359092 
L 737.695652 625.478978 
L 739.043478 624.526975 
L 740.391304 626.625762 
L 741.73913 629.075887 
L 743.086957 630.52246 
L 744.434783 632.832827 
L 745.782609 627.293192 
L 747.130435 626.311352 
L 748.478261 623.855984 
L 749.826087 621.953599 
L 751.173913 626.638342 
L 752.521739 628.536168 
L 753.869565 628.164268 
L 755.217391 628.159456 
L 756.565217 624.814873 
L 757.913043 628.08582 
L 759.26087 630.820877 
L 760.608696 631.837185 
L 761.956522 631.454216 
L 763.304348 633.342456 
L 764.652174 624.963933 
L 766 628.754663 
L 767.347826 632.011336 
L 768.695652 627.278509 
L 770.043478 620.35438 
L 771.391304 630.556915 
L 772.73913 629.759912 
L 774.086957 632.180975 
L 775.434783 630.462113 
L 776.782609 630.109616 
L 778.130435 631.103922 
L 779.478261 627.422825 
L 780.826087 628.701607 
L 782.173913 630.24929 
L 783.521739 627.768484 
L 784.869565 627.828057 
L 786.217391 630.933454 
L 787.565217 624.764904 
L 788.913044 622.687527 
L 790.26087 625.506418 
L 791.608696 626.378749 
L 792.956522 626.83714 
L 794.304348 625.2641 
L 795.652174 620.243106 
L 797 626.63248 
L 798.347826 626.82215 
L 799.695652 626.724364 
L 801.043478 623.922705 
L 802.391304 625.601876 
L 803.73913 624.74531 
L 805.086957 621.869916 
L 806.434783 625.099331 
L 807.782609 626.222446 
L 809.130435 629.488818 
L 810.478261 628.410625 
L 811.826087 620.408219 
L 813.173913 625.856607 
L 814.521739 624.828725 
L 815.869565 628.348289 
L 817.217391 626.543916 
L 818.565217 629.418189 
L 819.913044 630.556268 
L 821.26087 629.61057 
L 822.608696 631.302476 
L 823.956522 631.356569 
L 825.304348 627.616734 
L 826.652174 628.887342 
L 828 627.824147 
L 829.347826 617.126443 
L 830.695652 616.436447 
L 832.043478 610.106311 
L 833.391304 626.620526 
L 834.73913 625.605306 
L 836.086957 628.234048 
L 837.434783 626.822573 
L 838.782609 632.615019 
L 840.130435 629.935473 
L 841.478261 630.069069 
L 842.826087 629.69329 
L 844.173913 631.121824 
L 845.521739 630.916839 
L 846.869565 628.757593 
L 848.217391 628.890224 
L 849.565217 629.781972 
L 850.913043 631.864994 
L 852.26087 630.534046 
L 853.608696 631.125288 
L 854.956522 634.315504 
L 856.304348 632.036761 
L 857.652174 633.701009 
L 859 631.362151 
L 860.347826 631.50333 
L 861.695652 630.175971 
L 863.043478 632.747441 
L 865.73913 630.674256 
L 867.086957 633.505758 
L 868.434783 630.281801 
L 869.782609 633.346167 
L 871.130435 631.199732 
L 872.478261 633.031213 
L 873.826087 632.427463 
L 875.173913 630.456735 
L 876.521739 631.232591 
L 877.869565 631.384959 
L 879.217391 633.195028 
L 880.565217 633.140349 
L 881.913043 633.451152 
L 883.26087 627.441615 
L 884.608696 629.584274 
L 885.956522 630.232452 
L 887.304348 626.27892 
L 888.652174 630.128339 
L 891.347826 624.622337 
L 892.695652 623.68405 
L 894.043478 623.318925 
L 895.391304 618.260977 
L 896.73913 622.17193 
L 898.086957 623.77603 
L 899.434783 622.829885 
L 900.782609 619.316054 
L 902.130435 623.029557 
L 903.478261 621.421762 
L 904.826087 621.585948 
L 906.173913 621.103018 
L 907.521739 614.418947 
L 908.869565 613.876977 
L 910.217391 618.381027 
L 911.565217 616.899097 
L 912.913043 617.268789 
L 914.26087 616.370456 
L 915.608696 618.149924 
L 916.956522 621.282337 
L 919.652174 623.128129 
L 921 621.870744 
L 923.695652 625.735354 
L 925.043478 629.227862 
L 926.391304 625.604899 
L 927.73913 627.214133 
L 929.086957 632.009722 
L 930.434783 630.594393 
L 931.782609 633.878828 
L 933.130435 634.098656 
L 934.478261 634.716984 
L 935.826087 634.947012 
L 937.173913 631.995017 
L 938.521739 636.319587 
L 939.869565 631.109496 
L 941.217391 635.626151 
L 942.565217 636.2694 
L 943.913043 635.12853 
L 945.26087 636.109219 
L 946.608696 636.460864 
L 947.956522 634.58704 
L 949.304348 637.17254 
L 950.652174 636.481549 
L 952 634.397255 
L 953.347826 637.158237 
L 954.695652 637.028576 
L 956.043478 634.448715 
L 957.391304 636.180294 
L 958.73913 636.090466 
L 960.086957 634.725501 
L 961.434783 634.321562 
L 962.782609 635.279943 
L 964.130435 628.154341 
L 965.478261 628.315559 
L 966.826087 630.711381 
L 968.173913 635.750239 
L 969.521739 631.508992 
L 970.869565 634.083654 
L 972.217391 631.053674 
L 973.565217 630.217624 
L 976.26087 622.997018 
L 977.608696 623.151347 
L 978.956522 623.179474 
L 980.304348 619.291247 
L 981.652174 618.052884 
L 983 612.709556 
L 984.347826 610.903637 
L 985.695652 616.104031 
L 987.043478 618.204649 
L 988.391304 610.011095 
L 989.73913 614.192101 
L 991.086957 612.166336 
L 992.434783 614.375009 
L 993.782609 613.832095 
L 995.130435 614.596373 
L 996.478261 610.940065 
L 997.826087 612.979434 
L 999.173913 610.518186 
L 1000.521739 615.393688 
L 1001.869565 610.589575 
L 1003.217391 614.16212 
L 1004.565217 615.390094 
L 1005.913043 612.905437 
L 1007.26087 609.228724 
L 1008.608696 615.015347 
L 1009.956522 616.017613 
L 1011.304348 612.120073 
L 1012.652174 616.919751 
L 1014 611.398998 
L 1015.347826 612.19979 
L 1016.695652 615.081959 
L 1018.043478 617.079012 
L 1019.391304 617.434205 
L 1020.73913 616.714331 
L 1022.086957 613.68439 
L 1023.434783 605.80929 
L 1024.782609 599.628293 
L 1026.130435 589.28606 
L 1027.478261 598.970343 
L 1030.173913 611.520312 
L 1031.521739 608.045301 
L 1032.869565 607.475181 
L 1034.217391 608.593404 
L 1035.565217 609.349046 
L 1036.913043 609.467624 
L 1038.26087 614.10517 
L 1039.608696 605.603938 
L 1040.956522 599.937935 
L 1042.304348 608.076887 
L 1043.652174 605.65116 
L 1045 610.775829 
L 1046.347826 603.27752 
L 1047.695652 607.088055 
L 1049.043478 601.624045 
L 1050.391304 605.846627 
L 1051.73913 606.311268 
L 1053.086957 606.101587 
L 1054.434783 604.495724 
L 1055.782609 610.005771 
L 1057.130435 606.240525 
L 1058.478261 607.300498 
L 1059.826087 598.0294 
L 1061.173913 602.74433 
L 1062.521739 601.785713 
L 1063.869565 597.761217 
L 1065.217391 605.58582 
L 1066.565217 607.858706 
L 1067.913044 603.064165 
L 1069.26087 603.309356 
L 1070.608696 593.110426 
L 1071.956522 597.839792 
L 1073.304348 590.757602 
L 1074.652174 596.985074 
L 1076 600.977847 
L 1077.347826 594.86007 
L 1078.695652 600.658155 
L 1080.043478 598.235022 
L 1081.391304 593.207913 
L 1082.73913 599.902157 
L 1084.086957 595.807032 
L 1085.434783 597.864804 
L 1086.782609 594.550324 
L 1088.130435 591.648658 
L 1089.478261 590.215767 
L 1092.173913 605.240475 
L 1093.521739 596.608263 
L 1094.869565 598.106469 
L 1096.217391 600.667847 
L 1097.565217 590.712923 
L 1098.913044 600.630076 
L 1100.26087 595.008263 
L 1101.608696 598.386484 
L 1102.956522 602.528049 
L 1104.304348 601.232524 
L 1105.652174 601.590235 
L 1107 601.586004 
L 1108.347826 602.184763 
L 1109.695652 606.220144 
L 1111.043478 600.567099 
L 1112.391304 591.145469 
L 1113.73913 587.609802 
L 1115.086957 562.319493 
L 1116.434783 587.403796 
L 1117.782609 605.295505 
L 1119.130435 617.357676 
L 1120.478261 593.497351 
L 1121.826087 611.673546 
L 1123.173913 571.414107 
L 1124.521739 615.425413 
L 1125.869565 610.969804 
L 1127.217391 608.422339 
L 1128.565217 613.268225 
L 1129.913043 609.504523 
L 1131.26087 614.894089 
L 1132.608696 614.874024 
L 1133.956522 607.68273 
L 1135.304348 610.967741 
L 1136.652174 603.358978 
L 1138 609.026667 
L 1139.347826 615.932299 
L 1140.695652 613.639796 
L 1142.043478 616.987523 
L 1143.391304 618.099911 
L 1144.73913 622.192672 
L 1146.086957 618.37186 
L 1147.434783 619.3575 
L 1148.782609 621.815035 
L 1150.130435 620.036355 
L 1151.478261 619.789942 
L 1152.826087 615.562303 
L 1154.173913 618.290926 
L 1155.521739 626.55149 
L 1156.869565 627.164701 
L 1158.217391 616.771125 
L 1159.565217 614.830495 
L 1160.913043 622.597375 
L 1162.26087 626.228136 
L 1163.608696 623.963834 
L 1164.956522 624.398862 
L 1166.304348 617.732747 
L 1167.652174 615.138631 
L 1169 622.036242 
L 1171.695652 631.288395 
L 1173.043478 625.852366 
L 1174.391304 630.648031 
L 1175.73913 626.584745 
L 1177.086957 627.685833 
L 1178.434783 627.368055 
L 1179.782609 629.389326 
L 1181.130435 627.778136 
L 1182.478261 628.097393 
L 1183.826087 622.400684 
L 1185.173913 618.448132 
L 1186.521739 622.971842 
L 1187.869565 628.119238 
L 1189.217391 628.285264 
L 1190.565217 625.715839 
L 1191.913043 624.074005 
L 1193.26087 623.566536 
L 1194.608696 626.045354 
L 1195.956522 623.190446 
L 1197.304348 625.476374 
L 1198.652174 620.655749 
L 1200 618.84941 
L 1201.347826 618.891401 
L 1202.695652 621.880159 
L 1204.043478 622.876868 
L 1205.391304 625.680467 
L 1206.73913 621.312088 
L 1208.086957 623.553724 
L 1209.434783 618.358612 
L 1210.782609 616.99668 
L 1212.130435 621.528482 
L 1213.478261 618.185341 
L 1214.826087 619.496783 
L 1216.173913 619.414414 
L 1217.521739 612.390625 
L 1218.869565 607.242503 
L 1220.217391 598.546105 
L 1221.565217 616.795322 
L 1222.913043 606.301754 
L 1224.26087 613.617133 
L 1225.608696 617.371748 
L 1226.956522 598.620555 
L 1228.304348 617.914482 
L 1229.652174 615.522645 
L 1231 616.133078 
L 1232.347826 615.46318 
L 1233.695652 616.150781 
L 1235.043478 616.630224 
L 1236.391304 616.787923 
L 1237.73913 618.290572 
L 1239.086957 613.707012 
L 1240.434783 616.364907 
L 1241.782609 614.304058 
L 1243.130435 613.381875 
L 1244.478261 614.937911 
L 1247.173913 611.815789 
L 1248.521739 616.55144 
L 1249.869565 619.746708 
L 1251.217391 618.769358 
L 1252.565217 623.334665 
L 1253.913043 613.780421 
L 1255.26087 619.155125 
L 1256.608696 618.405095 
L 1257.956522 619.540632 
L 1259.304348 614.23537 
L 1262 620.760814 
L 1263.347826 621.83222 
L 1264.695652 625.264291 
L 1266.043478 619.349465 
L 1267.391304 622.360084 
L 1268.73913 617.076118 
L 1270.086957 622.11184 
L 1271.434783 617.733358 
L 1272.782609 620.577576 
L 1274.130435 620.215761 
L 1275.478261 623.86939 
L 1276.826087 616.164052 
L 1278.173913 613.604387 
L 1279.521739 624.039345 
L 1280.869565 622.937801 
L 1282.217391 615.960525 
L 1283.565217 619.209089 
L 1284.913043 627.555211 
L 1286.26087 622.052266 
L 1287.608696 623.612308 
L 1288.956522 621.601379 
L 1290.304348 616.383602 
L 1291.652174 625.680354 
L 1293 627.222377 
L 1295.695652 625.170382 
L 1297.043478 622.277581 
L 1298.391304 626.371328 
L 1299.73913 625.365925 
L 1301.086957 630.544996 
L 1302.434783 628.061176 
L 1303.782609 627.490572 
L 1305.130435 629.851537 
L 1307.826087 629.161277 
L 1309.173913 628.780763 
L 1310.521739 631.65682 
L 1311.869565 631.74931 
L 1313.217391 632.105454 
L 1314.565217 629.428748 
L 1315.913043 635.137046 
L 1317.26087 634.171438 
L 1318.608696 636.191603 
L 1319.956522 636.105022 
L 1321.304348 637.874504 
L 1322.652174 637.364812 
L 1324 636.664019 
L 1325.347826 633.067575 
L 1326.695652 634.452679 
L 1328.043478 634.918118 
L 1329.391304 624.065125 
L 1330.73913 629.82066 
L 1332.086957 629.12695 
L 1333.434783 627.276218 
L 1334.782609 628.50713 
L 1336.130435 628.102914 
L 1337.478261 626.813634 
L 1338.826087 626.928936 
L 1340.173913 623.325847 
L 1341.521739 627.721551 
L 1342.869565 625.819626 
L 1344.217391 624.290346 
L 1345.565217 624.036504 
L 1346.913044 622.087483 
L 1348.26087 620.873757 
L 1349.608696 617.584845 
L 1350.956522 623.929126 
L 1352.304348 618.142227 
L 1355 627.636387 
L 1356.347826 625.504865 
L 1357.695652 624.329533 
L 1359.043478 628.033905 
L 1360.391304 624.319149 
L 1361.73913 629.594517 
L 1363.086957 628.046573 
L 1364.434783 631.243691 
L 1365.782609 621.065847 
L 1367.130435 629.686784 
L 1368.478261 625.177618 
L 1369.826087 621.075499 
L 1371.173913 626.906026 
L 1372.521739 620.719483 
L 1373.869565 627.508951 
L 1375.217391 625.900843 
L 1376.565217 625.099492 
L 1377.913044 627.471205 
L 1379.26087 624.010612 
L 1380.608696 630.713049 
L 1381.956522 623.867374 
L 1383.304348 622.376872 
L 1384.652174 625.954956 
L 1386 623.468229 
L 1387.347826 618.962061 
L 1388.695652 617.43662 
L 1390.043478 627.376662 
L 1391.391304 623.502862 
L 1392.73913 626.157471 
L 1394.086957 625.38988 
L 1395.434783 619.813438 
L 1396.782609 624.461444 
L 1398.130435 626.584315 
L 1399.478261 622.783029 
L 1400.826087 625.958649 
L 1402.173913 624.869096 
L 1403.521739 623.428087 
L 1404.869565 623.063329 
L 1406.217391 631.601163 
L 1407.565217 629.011431 
L 1408.913043 624.001676 
L 1410.26087 621.514753 
L 1411.608696 613.175325 
L 1412.956522 612.671137 
L 1414.304348 600.840058 
L 1415.652174 620.584706 
L 1417 616.04362 
L 1418.347826 621.081527 
L 1419.695652 623.784605 
L 1421.043478 617.597519 
L 1422.391304 618.030503 
L 1423.73913 617.268516 
L 1425.086957 620.068685 
L 1426.434783 618.959163 
L 1427.782609 617.426177 
L 1429.130435 617.168871 
L 1430.478261 613.371199 
L 1431.826087 615.053608 
L 1433.173913 616.532595 
L 1434.521739 620.227536 
L 1435.869565 618.863147 
L 1437.217391 622.105318 
L 1438.565217 613.699472 
L 1439.913043 620.435847 
L 1441.26087 621.769447 
L 1442.608696 621.521645 
L 1443.956522 621.622013 
L 1445.304348 629.77913 
L 1446.652174 631.030474 
L 1448 627.016787 
L 1449.347826 630.777722 
L 1450.695652 622.07671 
L 1452.043478 630.534781 
L 1453.391304 625.051698 
L 1454.73913 628.898522 
L 1456.086957 624.21239 
L 1457.434783 614.796911 
L 1458.782609 619.223833 
L 1460.130435 621.915024 
L 1461.478261 623.277622 
L 1462.826087 619.477749 
L 1464.173913 620.583406 
L 1465.521739 623.773532 
L 1466.869565 619.26975 
L 1468.217391 613.758395 
L 1469.565217 624.760487 
L 1470.913043 621.349558 
L 1472.26087 620.456274 
L 1473.608696 622.453719 
L 1474.956522 622.95017 
L 1476.304348 619.680812 
L 1477.652174 615.918284 
L 1479 620.619875 
L 1480.347826 616.981431 
L 1481.695652 613.887552 
L 1483.043478 611.288767 
L 1484.391304 620.134721 
L 1485.73913 589.0002 
L 1487.086957 616.435713 
L 1488.434783 616.323481 
L 1489.782609 609.091718 
L 1491.130435 617.940194 
L 1492.478261 619.829688 
L 1493.826087 620.685864 
L 1495.173913 619.803612 
L 1496.521739 620.962606 
L 1497.869565 616.319608 
L 1499.217391 617.670684 
L 1500.565217 620.191719 
L 1501.913043 618.651291 
L 1503.26087 618.45525 
L 1504.608696 620.000159 
L 1505.956522 618.80149 
L 1507.304348 618.215777 
L 1508.652174 617.151403 
L 1510 618.709492 
L 1512.695652 591.857359 
L 1514.043478 617.943446 
L 1515.391304 615.717553 
L 1516.73913 619.539465 
L 1518.086957 607.226871 
L 1519.434783 612.92306 
L 1520.782609 621.267131 
L 1522.130435 625.676926 
L 1523.478261 611.064602 
L 1524.826087 616.892819 
L 1526.173913 616.715648 
L 1527.521739 619.940404 
L 1528.869565 614.972158 
L 1530.217391 616.421253 
L 1531.565217 617.424778 
L 1532.913043 622.023532 
L 1534.26087 619.633029 
L 1535.608696 615.830211 
L 1536.956522 614.398734 
L 1538.304348 619.932591 
L 1539.652174 618.12578 
L 1542.347826 619.047286 
L 1543.695652 618.250619 
L 1545.043478 618.542784 
L 1546.391304 615.786991 
L 1547.73913 623.096805 
L 1549.086957 617.708341 
L 1550.434783 617.92235 
L 1551.782609 622.345136 
L 1553.130435 619.488923 
L 1554.478261 619.281088 
L 1555.826087 618.945676 
L 1557.173913 618.899267 
L 1558.521739 619.703837 
L 1559.869565 626.665883 
L 1561.217391 631.869036 
L 1562.565217 631.335523 
L 1563.913043 633.874671 
L 1565.26087 633.276551 
L 1566.608696 632.427585 
L 1567.956522 633.79057 
L 1569.304348 632.540227 
L 1570.652174 633.252382 
L 1572 636.001309 
L 1573.347826 633.676067 
L 1574.695652 633.130915 
L 1576.043478 629.016054 
L 1577.391304 622.41786 
L 1578.73913 619.606218 
L 1580.086957 617.844043 
L 1581.434783 614.114177 
L 1582.782609 614.647768 
L 1584.130435 613.425218 
L 1585.478261 612.582466 
L 1586.826087 610.77249 
L 1589.521739 613.495879 
L 1590.869565 611.118735 
L 1592.217391 609.782953 
L 1593.565217 611.498126 
L 1594.913043 611.649068 
L 1596.26087 611.080214 
L 1597.608696 610.653509 
L 1598.956522 611.288538 
L 1600.304348 611.226638 
L 1601.652174 610.047806 
L 1603 611.097067 
L 1604.347826 609.801694 
L 1605.695652 607.73615 
L 1608.391304 597.147983 
L 1609.73913 605.989823 
L 1611.086957 611.368321 
L 1612.434783 611.126562 
L 1613.782609 609.37485 
L 1615.130435 611.540744 
L 1616.478261 610.956515 
L 1617.826087 609.837201 
L 1619.173913 607.730158 
L 1620.521739 610.308551 
L 1621.869565 609.891149 
L 1623.217391 610.888898 
L 1624.565217 610.708675 
L 1625.913044 607.259741 
L 1627.26087 608.960986 
L 1628.608696 607.969029 
L 1629.956522 609.481022 
L 1631.304348 612.056787 
L 1634 606.846084 
L 1635.347826 609.996657 
L 1636.695652 610.276136 
L 1638.043478 608.872544 
L 1639.391304 608.07194 
L 1640.73913 608.535872 
L 1642.086957 608.231915 
L 1643.434783 609.407725 
L 1644.782609 609.086302 
L 1646.130435 609.10873 
L 1647.478261 611.548615 
L 1648.826087 610.004542 
L 1650.173913 607.24694 
L 1651.521739 612.971709 
L 1652.869565 609.537967 
L 1654.217391 611.461104 
L 1655.565217 609.862214 
L 1656.913044 613.37851 
L 1658.26087 614.559864 
L 1659.608696 613.179084 
L 1660.956522 611.436894 
L 1662.304348 610.398903 
L 1663.652174 613.172871 
L 1665 610.718568 
L 1666.347826 605.304186 
L 1667.695652 616.592409 
L 1669.043478 614.673886 
L 1670.391304 609.879867 
L 1671.73913 612.360696 
L 1673.086957 612.972482 
L 1674.434783 610.851579 
L 1675.782609 613.179625 
L 1677.130435 615.11816 
L 1678.478261 616.552483 
L 1679.826087 617.608308 
L 1681.173913 614.517127 
L 1682.521739 614.248648 
L 1683.869565 613.393329 
L 1685.217391 615.17406 
L 1686.565217 616.493936 
L 1687.913043 618.034122 
L 1689.26087 620.646076 
L 1690.608696 618.503869 
L 1691.956522 620.00813 
L 1694.652174 623.816461 
L 1696 625.983007 
L 1697.347826 631.35403 
L 1698.695652 626.495404 
L 1700.043478 622.697837 
L 1701.391304 619.575169 
L 1702.73913 615.471982 
L 1704.086957 612.231414 
L 1705.434783 609.403933 
L 1706.782609 610.135231 
L 1708.130435 635.801067 
L 1709.478261 613.853163 
L 1710.826087 606.098251 
L 1712.173913 607.503902 
L 1713.521739 610.889113 
L 1714.869565 608.027573 
L 1716.217391 609.857762 
L 1717.565217 608.890838 
L 1718.913043 610.144322 
L 1720.26087 611.2388 
L 1721.608696 610.141822 
L 1722.956522 611.245106 
L 1724.304348 608.368271 
L 1725.652174 611.688786 
L 1727 612.703862 
L 1728.347826 608.445976 
L 1729.695652 610.635007 
L 1731.043478 615.305988 
L 1732.391304 613.840633 
L 1733.73913 611.723528 
L 1735.086957 611.6917 
L 1736.434783 614.964659 
L 1737.782609 611.336272 
L 1739.130435 610.821953 
L 1740.478261 605.050532 
L 1741.826087 610.732741 
L 1743.173913 606.738095 
L 1744.521739 606.102445 
L 1745.869565 607.225281 
L 1747.217391 605.789522 
L 1748.565217 602.557418 
L 1749.913043 603.022053 
L 1751.26087 605.365894 
L 1752.608696 607.095195 
L 1753.956522 603.423242 
L 1755.304348 603.721068 
L 1756.652174 601.519175 
L 1758 604.904741 
L 1759.347826 610.418497 
L 1760.695652 606.766648 
L 1762.043478 608.485653 
L 1763.391304 602.643751 
L 1764.73913 603.850694 
L 1766.086957 603.902158 
L 1767.434783 605.154084 
L 1768.782609 603.221459 
L 1770.130435 606.7422 
L 1771.478261 606.138881 
L 1772.826087 607.76807 
L 1774.173913 605.919364 
L 1775.521739 603.724285 
L 1776.869565 605.740012 
L 1778.217391 600.879384 
L 1779.565217 605.600818 
L 1780.913043 605.383065 
L 1782.26087 604.279349 
L 1783.608696 606.938869 
L 1784.956522 605.740575 
L 1786.304348 608.421254 
L 1787.652174 608.194291 
L 1789 606.188785 
L 1790.347826 608.121552 
L 1791.695652 606.955828 
L 1793.043478 610.160162 
L 1794.391304 611.241094 
L 1795.73913 612.935977 
L 1797.086957 604.689484 
L 1798.434783 608.986345 
L 1799.782609 604.646345 
L 1801.130435 595.702319 
L 1802.478261 594.114168 
L 1803.826087 605.947632 
L 1805.173913 604.01772 
L 1806.521739 609.009665 
L 1807.869565 605.97651 
L 1809.217391 604.919657 
L 1810.565217 604.934787 
L 1811.913043 606.613725 
L 1813.26087 610.85428 
L 1814.608696 607.591882 
L 1815.956522 609.226359 
L 1817.304348 603.394088 
L 1818.652174 602.932804 
L 1820 605.825938 
L 1821.347826 606.843324 
L 1822.695652 607.015365 
L 1824.043478 602.387965 
L 1825.391304 605.385887 
L 1826.73913 603.772195 
L 1828.086957 607.138879 
L 1829.434783 609.937857 
L 1830.782609 605.576817 
L 1832.130435 608.840489 
L 1833.478261 608.119129 
L 1834.826087 607.129885 
L 1836.173913 608.508107 
L 1837.521739 605.06481 
L 1838.869565 608.120191 
L 1840.217391 608.029056 
L 1841.565217 604.339659 
L 1844.26087 605.813829 
L 1845.608696 609.189607 
L 1846.956522 605.258535 
L 1848.304348 610.191488 
L 1849.652174 604.280015 
L 1851 603.981641 
L 1852.347826 601.39324 
L 1853.695652 605.49406 
L 1855.043478 600.224839 
L 1856.391304 600.884679 
L 1857.73913 600.123275 
L 1859.086957 598.305979 
L 1860.434783 597.426338 
L 1861.782609 594.342786 
L 1863.130435 595.220626 
L 1864.478261 589.401973 
L 1865.826087 584.360285 
L 1868.521739 593.918192 
L 1869.869565 593.123433 
L 1871.217391 594.176893 
L 1872.565217 581.86711 
L 1873.913043 592.206336 
L 1875.26087 589.533456 
L 1876.608696 593.315625 
L 1877.956522 589.337945 
L 1879.304348 591.337674 
L 1880.652174 589.82178 
L 1882 589.476657 
L 1883.347826 592.569407 
L 1884.695652 591.340565 
L 1886.043478 591.802427 
L 1887.391304 593.114255 
L 1888.73913 590.487652 
L 1890.086957 589.66387 
L 1891.434783 589.361288 
L 1892.782609 588.915992 
L 1894.130435 588.329713 
L 1895.478261 589.257644 
L 1896.826087 587.447937 
L 1898.173913 592.942013 
L 1899.521739 586.948409 
L 1900.869565 587.555445 
L 1902.217391 589.524635 
L 1903.565217 586.784853 
L 1904.913044 589.179991 
L 1906.26087 589.747068 
L 1907.608696 587.822489 
L 1908.956522 587.354983 
L 1910.304348 589.193659 
L 1911.652174 587.270717 
L 1913 586.739222 
L 1914.347826 590.728213 
L 1915.695652 584.006627 
L 1917.043478 586.624271 
L 1918.391304 588.810075 
L 1919.73913 588.575459 
L 1921.086957 584.776923 
L 1922.434783 587.545512 
L 1923.782609 584.406858 
L 1925.130435 591.259106 
L 1926.478261 593.385342 
L 1927.826087 590.307631 
L 1929.173913 594.016329 
L 1930.521739 593.371974 
L 1931.869565 582.82128 
L 1933.217391 581.145413 
L 1934.565217 587.548374 
L 1935.913044 581.253436 
L 1937.26087 585.663154 
L 1938.608696 588.765598 
L 1939.956522 582.465514 
L 1941.304348 585.893508 
L 1942.652174 582.264607 
L 1944 583.914877 
L 1944 583.914877 
" style="fill:none;stroke:#0000ff;stroke-linecap:square;"/>
   </g>
   <g id="line2d_2">
    <defs>
     <path d="M 0 3 
C 0.795609 3 1.55874 2.683901 2.12132 2.12132 
C 2.683901 1.55874 3 0.795609 3 0 
C 3 -0.795609 2.683901 -1.55874 2.12132 -2.12132 
C 1.55874 -2.683901 0.795609 -3 0 -3 
C -0.795609 -3 -1.55874 -2.683901 -2.12132 -2.12132 
C -2.683901 -1.55874 -3 -0.795609 -3 0 
C -3 0.795609 -2.683901 1.55874 -2.12132 2.12132 
C -1.55874 2.683901 -0.795609 3 0 3 
z
" id="m22cca882c7" style="stroke:#000000;stroke-width:0.5;"/>
    </defs>
    <g clip-path="url(#p0018b0bd6a)">
     <use style="fill:#ff0000;stroke:#000000;stroke-width:0.5;" x="542.260869563" xlink:href="#m22cca882c7" y="472.512749349"/>
    </g>
   </g>
   <g id="patch_3">
    <path d="M 270 72 
L 1944 72 
" style="fill:none;stroke:#000000;stroke-linecap:square;stroke-linejoin:miter;"/>
   </g>
   <g id="patch_4">
    <path d="M 1944 648 
L 1944 72 
" style="fill:none;stroke:#000000;stroke-linecap:square;stroke-linejoin:miter;"/>
   </g>
   <g id="patch_5">
    <path d="M 270 648 
L 1944 648 
" style="fill:none;stroke:#000000;stroke-linecap:square;stroke-linejoin:miter;"/>
   </g>
   <g id="patch_6">
    <path d="M 270 648 
L 270 72 
" style="fill:none;stroke:#000000;stroke-linecap:square;stroke-linejoin:miter;"/>
   </g>
   <g id="matplotlib.axis_1">
    <g id="xtick_1">
     <g id="line2d_3">
      <defs>
       <path d="M 0 0 
L 0 -4 
" id="mfcc5b17df1" style="stroke:#000000;stroke-width:0.5;"/>
      </defs>
      <g>
       <use style="stroke:#000000;stroke-width:0.5;" x="327.956521809" xlink:href="#mfcc5b17df1" y="648.0"/>
      </g>
     </g>
     <g id="line2d_4">
      <defs>
       <path d="M 0 0 
L 0 4 
" id="mf47c050da4" style="stroke:#000000;stroke-width:0.5;"/>
      </defs>
      <g>
       <use style="stroke:#000000;stroke-width:0.5;" x="327.956521809" xlink:href="#mf47c050da4" y="72.0"/>
      </g>
     </g>
     <g id="text_1">
      <!-- 20:00:00 -->
      <defs>
       <path d="M 19.1875 8.296875 
L 53.609375 8.296875 
L 53.609375 0 
L 7.328125 0 
L 7.328125 8.296875 
Q 12.9375 14.109375 22.625 23.890625 
Q 32.328125 33.6875 34.8125 36.53125 
Q 39.546875 41.84375 41.421875 45.53125 
Q 43.3125 49.21875 43.3125 52.78125 
Q 43.3125 58.59375 39.234375 62.25 
Q 35.15625 65.921875 28.609375 65.921875 
Q 23.96875 65.921875 18.8125 64.3125 
Q 13.671875 62.703125 7.8125 59.421875 
L 7.8125 69.390625 
Q 13.765625 71.78125 18.9375 73 
Q 24.125 74.21875 28.421875 74.21875 
Q 39.75 74.21875 46.484375 68.546875 
Q 53.21875 62.890625 53.21875 53.421875 
Q 53.21875 48.921875 51.53125 44.890625 
Q 49.859375 40.875 45.40625 35.40625 
Q 44.1875 33.984375 37.640625 27.21875 
Q 31.109375 20.453125 19.1875 8.296875 
" id="BitstreamVeraSans-Roman-32"/>
       <path d="M 31.78125 66.40625 
Q 24.171875 66.40625 20.328125 58.90625 
Q 16.5 51.421875 16.5 36.375 
Q 16.5 21.390625 20.328125 13.890625 
Q 24.171875 6.390625 31.78125 6.390625 
Q 39.453125 6.390625 43.28125 13.890625 
Q 47.125 21.390625 47.125 36.375 
Q 47.125 51.421875 43.28125 58.90625 
Q 39.453125 66.40625 31.78125 66.40625 
M 31.78125 74.21875 
Q 44.046875 74.21875 50.515625 64.515625 
Q 56.984375 54.828125 56.984375 36.375 
Q 56.984375 17.96875 50.515625 8.265625 
Q 44.046875 -1.421875 31.78125 -1.421875 
Q 19.53125 -1.421875 13.0625 8.265625 
Q 6.59375 17.96875 6.59375 36.375 
Q 6.59375 54.828125 13.0625 64.515625 
Q 19.53125 74.21875 31.78125 74.21875 
" id="BitstreamVeraSans-Roman-30"/>
       <path d="M 11.71875 12.40625 
L 22.015625 12.40625 
L 22.015625 0 
L 11.71875 0 
z
M 11.71875 51.703125 
L 22.015625 51.703125 
L 22.015625 39.3125 
L 11.71875 39.3125 
z
" id="BitstreamVeraSans-Roman-3a"/>
      </defs>
      <g transform="translate(301.009021809 661.118125)scale(0.12 -0.12)">
       <use xlink:href="#BitstreamVeraSans-Roman-32"/>
       <use x="63.623046875" xlink:href="#BitstreamVeraSans-Roman-30"/>
       <use x="127.24609375" xlink:href="#BitstreamVeraSans-Roman-3a"/>
       <use x="160.9375" xlink:href="#BitstreamVeraSans-Roman-30"/>
       <use x="224.560546875" xlink:href="#BitstreamVeraSans-Roman-30"/>
       <use x="288.18359375" xlink:href="#BitstreamVeraSans-Roman-3a"/>
       <use x="321.875" xlink:href="#BitstreamVeraSans-Roman-30"/>
       <use x="385.498046875" xlink:href="#BitstreamVeraSans-Roman-30"/>
      </g>
     </g>
    </g>
    <g id="xtick_2">
     <g id="line2d_5">
      <g>
       <use style="stroke:#000000;stroke-width:0.5;" x="522.04347831" xlink:href="#mfcc5b17df1" y="648.0"/>
      </g>
     </g>
     <g id="line2d_6">
      <g>
       <use style="stroke:#000000;stroke-width:0.5;" x="522.04347831" xlink:href="#mf47c050da4" y="72.0"/>
      </g>
     </g>
     <g id="text_2">
      <!-- 08:00:00 -->
      <defs>
       <path d="M 31.78125 34.625 
Q 24.75 34.625 20.71875 30.859375 
Q 16.703125 27.09375 16.703125 20.515625 
Q 16.703125 13.921875 20.71875 10.15625 
Q 24.75 6.390625 31.78125 6.390625 
Q 38.8125 6.390625 42.859375 10.171875 
Q 46.921875 13.96875 46.921875 20.515625 
Q 46.921875 27.09375 42.890625 30.859375 
Q 38.875 34.625 31.78125 34.625 
M 21.921875 38.8125 
Q 15.578125 40.375 12.03125 44.71875 
Q 8.5 49.078125 8.5 55.328125 
Q 8.5 64.0625 14.71875 69.140625 
Q 20.953125 74.21875 31.78125 74.21875 
Q 42.671875 74.21875 48.875 69.140625 
Q 55.078125 64.0625 55.078125 55.328125 
Q 55.078125 49.078125 51.53125 44.71875 
Q 48 40.375 41.703125 38.8125 
Q 48.828125 37.15625 52.796875 32.3125 
Q 56.78125 27.484375 56.78125 20.515625 
Q 56.78125 9.90625 50.3125 4.234375 
Q 43.84375 -1.421875 31.78125 -1.421875 
Q 19.734375 -1.421875 13.25 4.234375 
Q 6.78125 9.90625 6.78125 20.515625 
Q 6.78125 27.484375 10.78125 32.3125 
Q 14.796875 37.15625 21.921875 38.8125 
M 18.3125 54.390625 
Q 18.3125 48.734375 21.84375 45.5625 
Q 25.390625 42.390625 31.78125 42.390625 
Q 38.140625 42.390625 41.71875 45.5625 
Q 45.3125 48.734375 45.3125 54.390625 
Q 45.3125 60.0625 41.71875 63.234375 
Q 38.140625 66.40625 31.78125 66.40625 
Q 25.390625 66.40625 21.84375 63.234375 
Q 18.3125 60.0625 18.3125 54.390625 
" id="BitstreamVeraSans-Roman-38"/>
      </defs>
      <g transform="translate(495.09597831 661.118125)scale(0.12 -0.12)">
       <use xlink:href="#BitstreamVeraSans-Roman-30"/>
       <use x="63.623046875" xlink:href="#BitstreamVeraSans-Roman-38"/>
       <use x="127.24609375" xlink:href="#BitstreamVeraSans-Roman-3a"/>
       <use x="160.9375" xlink:href="#BitstreamVeraSans-Roman-30"/>
       <use x="224.560546875" xlink:href="#BitstreamVeraSans-Roman-30"/>
       <use x="288.18359375" xlink:href="#BitstreamVeraSans-Roman-3a"/>
       <use x="321.875" xlink:href="#BitstreamVeraSans-Roman-30"/>
       <use x="385.498046875" xlink:href="#BitstreamVeraSans-Roman-30"/>
      </g>
     </g>
    </g>
    <g id="xtick_3">
     <g id="line2d_7">
      <g>
       <use style="stroke:#000000;stroke-width:0.5;" x="716.130434811" xlink:href="#mfcc5b17df1" y="648.0"/>
      </g>
     </g>
     <g id="line2d_8">
      <g>
       <use style="stroke:#000000;stroke-width:0.5;" x="716.130434811" xlink:href="#mf47c050da4" y="72.0"/>
      </g>
     </g>
     <g id="text_3">
      <!-- 20:00:00 -->
      <g transform="translate(689.182934811 661.118125)scale(0.12 -0.12)">
       <use xlink:href="#BitstreamVeraSans-Roman-32"/>
       <use x="63.623046875" xlink:href="#BitstreamVeraSans-Roman-30"/>
       <use x="127.24609375" xlink:href="#BitstreamVeraSans-Roman-3a"/>
       <use x="160.9375" xlink:href="#BitstreamVeraSans-Roman-30"/>
       <use x="224.560546875" xlink:href="#BitstreamVeraSans-Roman-30"/>
       <use x="288.18359375" xlink:href="#BitstreamVeraSans-Roman-3a"/>
       <use x="321.875" xlink:href="#BitstreamVeraSans-Roman-30"/>
       <use x="385.498046875" xlink:href="#BitstreamVeraSans-Roman-30"/>
      </g>
     </g>
    </g>
    <g id="xtick_4">
     <g id="line2d_9">
      <g>
       <use style="stroke:#000000;stroke-width:0.5;" x="910.217391372" xlink:href="#mfcc5b17df1" y="648.0"/>
      </g>
     </g>
     <g id="line2d_10">
      <g>
       <use style="stroke:#000000;stroke-width:0.5;" x="910.217391372" xlink:href="#mf47c050da4" y="72.0"/>
      </g>
     </g>
     <g id="text_4">
      <!-- 08:00:00 -->
      <g transform="translate(883.269891372 661.118125)scale(0.12 -0.12)">
       <use xlink:href="#BitstreamVeraSans-Roman-30"/>
       <use x="63.623046875" xlink:href="#BitstreamVeraSans-Roman-38"/>
       <use x="127.24609375" xlink:href="#BitstreamVeraSans-Roman-3a"/>
       <use x="160.9375" xlink:href="#BitstreamVeraSans-Roman-30"/>
       <use x="224.560546875" xlink:href="#BitstreamVeraSans-Roman-30"/>
       <use x="288.18359375" xlink:href="#BitstreamVeraSans-Roman-3a"/>
       <use x="321.875" xlink:href="#BitstreamVeraSans-Roman-30"/>
       <use x="385.498046875" xlink:href="#BitstreamVeraSans-Roman-30"/>
      </g>
     </g>
    </g>
    <g id="xtick_5">
     <g id="line2d_11">
      <g>
       <use style="stroke:#000000;stroke-width:0.5;" x="1104.30434787" xlink:href="#mfcc5b17df1" y="648.0"/>
      </g>
     </g>
     <g id="line2d_12">
      <g>
       <use style="stroke:#000000;stroke-width:0.5;" x="1104.30434787" xlink:href="#mf47c050da4" y="72.0"/>
      </g>
     </g>
     <g id="text_5">
      <!-- 20:00:00 -->
      <g transform="translate(1077.35684787 661.118125)scale(0.12 -0.12)">
       <use xlink:href="#BitstreamVeraSans-Roman-32"/>
       <use x="63.623046875" xlink:href="#BitstreamVeraSans-Roman-30"/>
       <use x="127.24609375" xlink:href="#BitstreamVeraSans-Roman-3a"/>
       <use x="160.9375" xlink:href="#BitstreamVeraSans-Roman-30"/>
       <use x="224.560546875" xlink:href="#BitstreamVeraSans-Roman-30"/>
       <use x="288.18359375" xlink:href="#BitstreamVeraSans-Roman-3a"/>
       <use x="321.875" xlink:href="#BitstreamVeraSans-Roman-30"/>
       <use x="385.498046875" xlink:href="#BitstreamVeraSans-Roman-30"/>
      </g>
     </g>
    </g>
    <g id="xtick_6">
     <g id="line2d_13">
      <g>
       <use style="stroke:#000000;stroke-width:0.5;" x="1298.39130437" xlink:href="#mfcc5b17df1" y="648.0"/>
      </g>
     </g>
     <g id="line2d_14">
      <g>
       <use style="stroke:#000000;stroke-width:0.5;" x="1298.39130437" xlink:href="#mf47c050da4" y="72.0"/>
      </g>
     </g>
     <g id="text_6">
      <!-- 08:00:00 -->
      <g transform="translate(1271.44380437 661.118125)scale(0.12 -0.12)">
       <use xlink:href="#BitstreamVeraSans-Roman-30"/>
       <use x="63.623046875" xlink:href="#BitstreamVeraSans-Roman-38"/>
       <use x="127.24609375" xlink:href="#BitstreamVeraSans-Roman-3a"/>
       <use x="160.9375" xlink:href="#BitstreamVeraSans-Roman-30"/>
       <use x="224.560546875" xlink:href="#BitstreamVeraSans-Roman-30"/>
       <use x="288.18359375" xlink:href="#BitstreamVeraSans-Roman-3a"/>
       <use x="321.875" xlink:href="#BitstreamVeraSans-Roman-30"/>
       <use x="385.498046875" xlink:href="#BitstreamVeraSans-Roman-30"/>
      </g>
     </g>
    </g>
    <g id="xtick_7">
     <g id="line2d_15">
      <g>
       <use style="stroke:#000000;stroke-width:0.5;" x="1492.47826093" xlink:href="#mfcc5b17df1" y="648.0"/>
      </g>
     </g>
     <g id="line2d_16">
      <g>
       <use style="stroke:#000000;stroke-width:0.5;" x="1492.47826093" xlink:href="#mf47c050da4" y="72.0"/>
      </g>
     </g>
     <g id="text_7">
      <!-- 20:00:00 -->
      <g transform="translate(1465.53076093 661.118125)scale(0.12 -0.12)">
       <use xlink:href="#BitstreamVeraSans-Roman-32"/>
       <use x="63.623046875" xlink:href="#BitstreamVeraSans-Roman-30"/>
       <use x="127.24609375" xlink:href="#BitstreamVeraSans-Roman-3a"/>
       <use x="160.9375" xlink:href="#BitstreamVeraSans-Roman-30"/>
       <use x="224.560546875" xlink:href="#BitstreamVeraSans-Roman-30"/>
       <use x="288.18359375" xlink:href="#BitstreamVeraSans-Roman-3a"/>
       <use x="321.875" xlink:href="#BitstreamVeraSans-Roman-30"/>
       <use x="385.498046875" xlink:href="#BitstreamVeraSans-Roman-30"/>
      </g>
     </g>
    </g>
    <g id="xtick_8">
     <g id="line2d_17">
      <g>
       <use style="stroke:#000000;stroke-width:0.5;" x="1686.56521744" xlink:href="#mfcc5b17df1" y="648.0"/>
      </g>
     </g>
     <g id="line2d_18">
      <g>
       <use style="stroke:#000000;stroke-width:0.5;" x="1686.56521744" xlink:href="#mf47c050da4" y="72.0"/>
      </g>
     </g>
     <g id="text_8">
      <!-- 08:00:00 -->
      <g transform="translate(1659.61771744 661.118125)scale(0.12 -0.12)">
       <use xlink:href="#BitstreamVeraSans-Roman-30"/>
       <use x="63.623046875" xlink:href="#BitstreamVeraSans-Roman-38"/>
       <use x="127.24609375" xlink:href="#BitstreamVeraSans-Roman-3a"/>
       <use x="160.9375" xlink:href="#BitstreamVeraSans-Roman-30"/>
       <use x="224.560546875" xlink:href="#BitstreamVeraSans-Roman-30"/>
       <use x="288.18359375" xlink:href="#BitstreamVeraSans-Roman-3a"/>
       <use x="321.875" xlink:href="#BitstreamVeraSans-Roman-30"/>
       <use x="385.498046875" xlink:href="#BitstreamVeraSans-Roman-30"/>
      </g>
     </g>
    </g>
    <g id="xtick_9">
     <g id="line2d_19">
      <g>
       <use style="stroke:#000000;stroke-width:0.5;" x="1880.652174" xlink:href="#mfcc5b17df1" y="648.0"/>
      </g>
     </g>
     <g id="line2d_20">
      <g>
       <use style="stroke:#000000;stroke-width:0.5;" x="1880.652174" xlink:href="#mf47c050da4" y="72.0"/>
      </g>
     </g>
     <g id="text_9">
      <!-- 20:00:00 -->
      <g transform="translate(1853.704674 661.118125)scale(0.12 -0.12)">
       <use xlink:href="#BitstreamVeraSans-Roman-32"/>
       <use x="63.623046875" xlink:href="#BitstreamVeraSans-Roman-30"/>
       <use x="127.24609375" xlink:href="#BitstreamVeraSans-Roman-3a"/>
       <use x="160.9375" xlink:href="#BitstreamVeraSans-Roman-30"/>
       <use x="224.560546875" xlink:href="#BitstreamVeraSans-Roman-30"/>
       <use x="288.18359375" xlink:href="#BitstreamVeraSans-Roman-3a"/>
       <use x="321.875" xlink:href="#BitstreamVeraSans-Roman-30"/>
       <use x="385.498046875" xlink:href="#BitstreamVeraSans-Roman-30"/>
      </g>
     </g>
    </g>
   </g>
   <g id="matplotlib.axis_2">
    <g id="ytick_1">
     <g id="line2d_21">
      <defs>
       <path d="M 0 0 
L 4 0 
" id="m3d725af6ab" style="stroke:#000000;stroke-width:0.5;"/>
      </defs>
      <g>
       <use style="stroke:#000000;stroke-width:0.5;" x="270.0" xlink:href="#m3d725af6ab" y="648.0"/>
      </g>
     </g>
     <g id="line2d_22">
      <defs>
       <path d="M 0 0 
L -4 0 
" id="m8033593a6f" style="stroke:#000000;stroke-width:0.5;"/>
      </defs>
      <g>
       <use style="stroke:#000000;stroke-width:0.5;" x="1944.0" xlink:href="#m8033593a6f" y="648.0"/>
      </g>
     </g>
     <g id="text_10">
      <!-- 0 -->
      <g transform="translate(258.365 651.31125)scale(0.12 -0.12)">
       <use xlink:href="#BitstreamVeraSans-Roman-30"/>
      </g>
     </g>
    </g>
    <g id="ytick_2">
     <g id="line2d_23">
      <g>
       <use style="stroke:#000000;stroke-width:0.5;" x="270.0" xlink:href="#m3d725af6ab" y="565.714285714"/>
      </g>
     </g>
     <g id="line2d_24">
      <g>
       <use style="stroke:#000000;stroke-width:0.5;" x="1944.0" xlink:href="#m8033593a6f" y="565.714285714"/>
      </g>
     </g>
     <g id="text_11">
      <!-- 1 -->
      <defs>
       <path d="M 12.40625 8.296875 
L 28.515625 8.296875 
L 28.515625 63.921875 
L 10.984375 60.40625 
L 10.984375 69.390625 
L 28.421875 72.90625 
L 38.28125 72.90625 
L 38.28125 8.296875 
L 54.390625 8.296875 
L 54.390625 0 
L 12.40625 0 
z
" id="BitstreamVeraSans-Roman-31"/>
      </defs>
      <g transform="translate(258.365 569.025535714)scale(0.12 -0.12)">
       <use xlink:href="#BitstreamVeraSans-Roman-31"/>
      </g>
     </g>
    </g>
    <g id="ytick_3">
     <g id="line2d_25">
      <g>
       <use style="stroke:#000000;stroke-width:0.5;" x="270.0" xlink:href="#m3d725af6ab" y="483.428571429"/>
      </g>
     </g>
     <g id="line2d_26">
      <g>
       <use style="stroke:#000000;stroke-width:0.5;" x="1944.0" xlink:href="#m8033593a6f" y="483.428571429"/>
      </g>
     </g>
     <g id="text_12">
      <!-- 2 -->
      <g transform="translate(258.365 486.739821429)scale(0.12 -0.12)">
       <use xlink:href="#BitstreamVeraSans-Roman-32"/>
      </g>
     </g>
    </g>
    <g id="ytick_4">
     <g id="line2d_27">
      <g>
       <use style="stroke:#000000;stroke-width:0.5;" x="270.0" xlink:href="#m3d725af6ab" y="401.142857143"/>
      </g>
     </g>
     <g id="line2d_28">
      <g>
       <use style="stroke:#000000;stroke-width:0.5;" x="1944.0" xlink:href="#m8033593a6f" y="401.142857143"/>
      </g>
     </g>
     <g id="text_13">
      <!-- 3 -->
      <defs>
       <path d="M 40.578125 39.3125 
Q 47.65625 37.796875 51.625 33 
Q 55.609375 28.21875 55.609375 21.1875 
Q 55.609375 10.40625 48.1875 4.484375 
Q 40.765625 -1.421875 27.09375 -1.421875 
Q 22.515625 -1.421875 17.65625 -0.515625 
Q 12.796875 0.390625 7.625 2.203125 
L 7.625 11.71875 
Q 11.71875 9.328125 16.59375 8.109375 
Q 21.484375 6.890625 26.8125 6.890625 
Q 36.078125 6.890625 40.9375 10.546875 
Q 45.796875 14.203125 45.796875 21.1875 
Q 45.796875 27.640625 41.28125 31.265625 
Q 36.765625 34.90625 28.71875 34.90625 
L 20.21875 34.90625 
L 20.21875 43.015625 
L 29.109375 43.015625 
Q 36.375 43.015625 40.234375 45.921875 
Q 44.09375 48.828125 44.09375 54.296875 
Q 44.09375 59.90625 40.109375 62.90625 
Q 36.140625 65.921875 28.71875 65.921875 
Q 24.65625 65.921875 20.015625 65.03125 
Q 15.375 64.15625 9.8125 62.3125 
L 9.8125 71.09375 
Q 15.4375 72.65625 20.34375 73.4375 
Q 25.25 74.21875 29.59375 74.21875 
Q 40.828125 74.21875 47.359375 69.109375 
Q 53.90625 64.015625 53.90625 55.328125 
Q 53.90625 49.265625 50.4375 45.09375 
Q 46.96875 40.921875 40.578125 39.3125 
" id="BitstreamVeraSans-Roman-33"/>
      </defs>
      <g transform="translate(258.365 404.454107143)scale(0.12 -0.12)">
       <use xlink:href="#BitstreamVeraSans-Roman-33"/>
      </g>
     </g>
    </g>
    <g id="ytick_5">
     <g id="line2d_29">
      <g>
       <use style="stroke:#000000;stroke-width:0.5;" x="270.0" xlink:href="#m3d725af6ab" y="318.857142857"/>
      </g>
     </g>
     <g id="line2d_30">
      <g>
       <use style="stroke:#000000;stroke-width:0.5;" x="1944.0" xlink:href="#m8033593a6f" y="318.857142857"/>
      </g>
     </g>
     <g id="text_14">
      <!-- 4 -->
      <defs>
       <path d="M 37.796875 64.3125 
L 12.890625 25.390625 
L 37.796875 25.390625 
z
M 35.203125 72.90625 
L 47.609375 72.90625 
L 47.609375 25.390625 
L 58.015625 25.390625 
L 58.015625 17.1875 
L 47.609375 17.1875 
L 47.609375 0 
L 37.796875 0 
L 37.796875 17.1875 
L 4.890625 17.1875 
L 4.890625 26.703125 
z
" id="BitstreamVeraSans-Roman-34"/>
      </defs>
      <g transform="translate(258.365 322.168392857)scale(0.12 -0.12)">
       <use xlink:href="#BitstreamVeraSans-Roman-34"/>
      </g>
     </g>
    </g>
    <g id="ytick_6">
     <g id="line2d_31">
      <g>
       <use style="stroke:#000000;stroke-width:0.5;" x="270.0" xlink:href="#m3d725af6ab" y="236.571428571"/>
      </g>
     </g>
     <g id="line2d_32">
      <g>
       <use style="stroke:#000000;stroke-width:0.5;" x="1944.0" xlink:href="#m8033593a6f" y="236.571428571"/>
      </g>
     </g>
     <g id="text_15">
      <!-- 5 -->
      <defs>
       <path d="M 10.796875 72.90625 
L 49.515625 72.90625 
L 49.515625 64.59375 
L 19.828125 64.59375 
L 19.828125 46.734375 
Q 21.96875 47.46875 24.109375 47.828125 
Q 26.265625 48.1875 28.421875 48.1875 
Q 40.625 48.1875 47.75 41.5 
Q 54.890625 34.8125 54.890625 23.390625 
Q 54.890625 11.625 47.5625 5.09375 
Q 40.234375 -1.421875 26.90625 -1.421875 
Q 22.3125 -1.421875 17.546875 -0.640625 
Q 12.796875 0.140625 7.71875 1.703125 
L 7.71875 11.625 
Q 12.109375 9.234375 16.796875 8.0625 
Q 21.484375 6.890625 26.703125 6.890625 
Q 35.15625 6.890625 40.078125 11.328125 
Q 45.015625 15.765625 45.015625 23.390625 
Q 45.015625 31 40.078125 35.4375 
Q 35.15625 39.890625 26.703125 39.890625 
Q 22.75 39.890625 18.8125 39.015625 
Q 14.890625 38.140625 10.796875 36.28125 
z
" id="BitstreamVeraSans-Roman-35"/>
      </defs>
      <g transform="translate(258.365 239.882678571)scale(0.12 -0.12)">
       <use xlink:href="#BitstreamVeraSans-Roman-35"/>
      </g>
     </g>
    </g>
    <g id="ytick_7">
     <g id="line2d_33">
      <g>
       <use style="stroke:#000000;stroke-width:0.5;" x="270.0" xlink:href="#m3d725af6ab" y="154.285714286"/>
      </g>
     </g>
     <g id="line2d_34">
      <g>
       <use style="stroke:#000000;stroke-width:0.5;" x="1944.0" xlink:href="#m8033593a6f" y="154.285714286"/>
      </g>
     </g>
     <g id="text_16">
      <!-- 6 -->
      <defs>
       <path d="M 33.015625 40.375 
Q 26.375 40.375 22.484375 35.828125 
Q 18.609375 31.296875 18.609375 23.390625 
Q 18.609375 15.53125 22.484375 10.953125 
Q 26.375 6.390625 33.015625 6.390625 
Q 39.65625 6.390625 43.53125 10.953125 
Q 47.40625 15.53125 47.40625 23.390625 
Q 47.40625 31.296875 43.53125 35.828125 
Q 39.65625 40.375 33.015625 40.375 
M 52.59375 71.296875 
L 52.59375 62.3125 
Q 48.875 64.0625 45.09375 64.984375 
Q 41.3125 65.921875 37.59375 65.921875 
Q 27.828125 65.921875 22.671875 59.328125 
Q 17.53125 52.734375 16.796875 39.40625 
Q 19.671875 43.65625 24.015625 45.921875 
Q 28.375 48.1875 33.59375 48.1875 
Q 44.578125 48.1875 50.953125 41.515625 
Q 57.328125 34.859375 57.328125 23.390625 
Q 57.328125 12.15625 50.6875 5.359375 
Q 44.046875 -1.421875 33.015625 -1.421875 
Q 20.359375 -1.421875 13.671875 8.265625 
Q 6.984375 17.96875 6.984375 36.375 
Q 6.984375 53.65625 15.1875 63.9375 
Q 23.390625 74.21875 37.203125 74.21875 
Q 40.921875 74.21875 44.703125 73.484375 
Q 48.484375 72.75 52.59375 71.296875 
" id="BitstreamVeraSans-Roman-36"/>
      </defs>
      <g transform="translate(258.365 157.596964286)scale(0.12 -0.12)">
       <use xlink:href="#BitstreamVeraSans-Roman-36"/>
      </g>
     </g>
    </g>
    <g id="ytick_8">
     <g id="line2d_35">
      <g>
       <use style="stroke:#000000;stroke-width:0.5;" x="270.0" xlink:href="#m3d725af6ab" y="72.0"/>
      </g>
     </g>
     <g id="line2d_36">
      <g>
       <use style="stroke:#000000;stroke-width:0.5;" x="1944.0" xlink:href="#m8033593a6f" y="72.0"/>
      </g>
     </g>
     <g id="text_17">
      <!-- 7 -->
      <defs>
       <path d="M 8.203125 72.90625 
L 55.078125 72.90625 
L 55.078125 68.703125 
L 28.609375 0 
L 18.3125 0 
L 43.21875 64.59375 
L 8.203125 64.59375 
z
" id="BitstreamVeraSans-Roman-37"/>
      </defs>
      <g transform="translate(258.365 75.31125)scale(0.12 -0.12)">
       <use xlink:href="#BitstreamVeraSans-Roman-37"/>
      </g>
     </g>
    </g>
    <g id="text_18">
     <!-- 1e7 -->
     <defs>
      <path d="M 56.203125 29.59375 
L 56.203125 25.203125 
L 14.890625 25.203125 
Q 15.484375 15.921875 20.484375 11.0625 
Q 25.484375 6.203125 34.421875 6.203125 
Q 39.59375 6.203125 44.453125 7.46875 
Q 49.3125 8.734375 54.109375 11.28125 
L 54.109375 2.78125 
Q 49.265625 0.734375 44.1875 -0.34375 
Q 39.109375 -1.421875 33.890625 -1.421875 
Q 20.796875 -1.421875 13.15625 6.1875 
Q 5.515625 13.8125 5.515625 26.8125 
Q 5.515625 40.234375 12.765625 48.109375 
Q 20.015625 56 32.328125 56 
Q 43.359375 56 49.78125 48.890625 
Q 56.203125 41.796875 56.203125 29.59375 
M 47.21875 32.234375 
Q 47.125 39.59375 43.09375 43.984375 
Q 39.0625 48.390625 32.421875 48.390625 
Q 24.90625 48.390625 20.390625 44.140625 
Q 15.875 39.890625 15.1875 32.171875 
z
" id="BitstreamVeraSans-Roman-65"/>
     </defs>
     <g transform="translate(270.0 69.0)scale(0.12 -0.12)">
      <use xlink:href="#BitstreamVeraSans-Roman-31"/>
      <use x="63.623046875" xlink:href="#BitstreamVeraSans-Roman-65"/>
      <use x="125.146484375" xlink:href="#BitstreamVeraSans-Roman-37"/>
     </g>
    </g>
   </g>
  </g>
 </g>
 <defs>
  <clipPath id="p0018b0bd6a">
   <rect height="576.0" width="1674.0" x="270.0" y="72.0"/>
  </clipPath>
 </defs>
</svg>
