<?xml version="1.0" encoding="utf-8" standalone="no"?>
<!DOCTYPE svg PUBLIC "-//W3C//DTD SVG 1.1//EN"
  "http://www.w3.org/Graphics/SVG/1.1/DTD/svg11.dtd">
<!-- Created with matplotlib (http://matplotlib.org/) -->
<svg height="720pt" version="1.1" viewBox="0 0 2160 720" width="2160pt" xmlns="http://www.w3.org/2000/svg" xmlns:xlink="http://www.w3.org/1999/xlink">
 <defs>
  <style type="text/css">
*{stroke-linecap:butt;stroke-linejoin:round;stroke-miterlimit:100000;}
  </style>
 </defs>
 <g id="figure_1">
  <g id="patch_1">
   <path d="M 0 720 
L 2160 720 
L 2160 0 
L 0 0 
z
" style="fill:#ffffff;"/>
  </g>
  <g id="axes_1">
   <g id="patch_2">
    <path d="M 270 648 
L 1944 648 
L 1944 72 
L 270 72 
z
" style="fill:#ffffff;"/>
   </g>
   <g id="line2d_1">
    <path clip-path="url(#p9556ae2e0a)" d="M 270 598.699712 
L 271.017011 615.34141 
L 272.034022 610.562836 
L 273.051033 610.712568 
L 275.085055 610.445423 
L 276.102066 611.309937 
L 277.119077 608.947007 
L 278.136087 612.447761 
L 279.153098 605.679208 
L 280.170109 599.869831 
L 281.18712 577.993846 
L 282.204131 576.597235 
L 283.221142 585.958621 
L 284.238153 583.731488 
L 285.255164 605.293373 
L 286.272175 599.340458 
L 287.289186 607.310242 
L 288.306197 610.961933 
L 289.323208 602.975231 
L 290.340219 562.097861 
L 291.35723 619.961587 
L 293.391252 366.948377 
L 294.408262 388.508979 
L 295.425273 572.478228 
L 296.442284 593.8277 
L 297.459295 582.806431 
L 298.476306 580.206974 
L 299.493317 583.713858 
L 300.510328 580.541421 
L 301.527339 569.290877 
L 302.54435 583.616381 
L 303.561361 573.13195 
L 304.578372 573.354667 
L 305.595383 543.721739 
L 306.612394 473.240816 
L 307.629405 502.119588 
L 308.646416 566.70137 
L 309.663426 547.129412 
L 310.680437 579.470367 
L 311.697448 584.476688 
L 312.714459 543.538507 
L 313.73147 587.599671 
L 314.748481 589.859919 
L 315.765492 577.635888 
L 316.782503 582.592824 
L 317.799514 510.110236 
L 318.816525 522.004152 
L 319.833536 562.808824 
L 320.850547 569.157214 
L 321.867558 602.688652 
L 322.884569 577.269136 
L 323.90158 577.060628 
L 324.918591 571.592785 
L 325.935601 562.073077 
L 326.952612 572.130533 
L 327.969623 569.042017 
L 328.986634 547.114286 
L 330.003645 474.475978 
L 331.020656 457.803636 
L 332.037667 498.816 
L 333.054678 569.564211 
L 334.071689 536.242857 
L 335.0887 575.984772 
L 336.105711 574.447368 
L 337.122722 585.803596 
L 338.139733 571.341093 
L 339.156744 588.195573 
L 341.190765 557.574558 
L 342.207776 566.299701 
L 343.224787 518.508 
L 344.241798 562.761687 
L 345.258809 598.019417 
L 346.27582 581.334031 
L 347.292831 573.064531 
L 348.309842 576.321487 
L 349.326853 581.074855 
L 350.343864 568.64 
L 351.360875 567.888946 
L 352.377886 576.606228 
L 353.394897 548.917895 
L 354.411908 442.343662 
L 355.428919 440.325 
L 356.44593 471.419178 
L 357.46294 516.832653 
L 358.479951 543.992488 
L 359.496962 594.231854 
L 360.513973 599.193862 
L 361.530984 603.558586 
L 362.547995 605.016216 
L 363.565006 592.32518 
L 364.582017 607.86969 
L 365.599028 585.670711 
L 366.616039 550.316129 
L 367.63305 543.557895 
L 368.650061 593.182555 
L 369.667072 599.416886 
L 370.684083 607.644203 
L 371.701094 600.440144 
L 372.718104 602.789565 
L 373.735115 598.092669 
L 374.752126 597.755943 
L 375.769137 601.223698 
L 376.786148 603.886505 
L 377.803159 572.322078 
L 378.82017 567.811765 
L 379.837181 534.969492 
L 380.854192 546.151536 
L 381.871203 593.883429 
L 382.888214 577.089438 
L 383.905225 590.513732 
L 384.922236 606.348902 
L 385.939247 586.770934 
L 386.956258 601.056169 
L 387.973269 593.198336 
L 388.990279 597.122128 
L 390.00729 606.77027 
L 391.024301 570.8 
L 392.041312 555.764534 
L 393.058323 596.221584 
L 394.075334 608.032825 
L 396.109356 600.201807 
L 397.126367 603.230412 
L 398.143378 599.236177 
L 399.160389 603.786749 
L 400.1774 587.00564 
L 401.194411 582.192976 
L 402.211422 591.157895 
L 403.228433 578.717355 
L 404.245443 610.42139 
L 405.262454 542.255422 
L 407.296476 595.937737 
L 408.313487 598.686251 
L 409.330498 598.578889 
L 410.347509 588.858602 
L 411.36452 593.750644 
L 412.381531 607.558187 
L 413.398542 594.967718 
L 414.415553 593.541631 
L 415.432564 591.91954 
L 416.449575 601.312352 
L 417.466586 597.514007 
L 418.483597 598.754386 
L 421.534629 596.357999 
L 422.55164 604.624592 
L 423.568651 586.805714 
L 424.585662 600.678219 
L 425.602673 582.506667 
L 426.619684 580.518621 
L 427.636695 557.564331 
L 428.653706 512.135065 
L 429.670717 527.393103 
L 431.704739 580.652887 
L 432.72175 584.583425 
L 433.738761 591.596864 
L 434.755772 589.392956 
L 435.772783 565.04219 
L 436.789793 547.860361 
L 437.806804 581.215298 
L 438.823815 562.532642 
L 439.840826 595.386006 
L 440.857837 606.26014 
L 441.874848 583.261538 
L 442.891859 589.613204 
L 446.959903 584.375327 
L 450.010936 579.003995 
L 451.027947 591.674871 
L 455.09599 556.936323 
L 457.130012 358.1625 
L 458.147023 563.748459 
L 459.164034 585.678224 
L 461.198056 534.020601 
L 462.215067 548.777674 
L 463.232078 586.554074 
L 464.249089 546.279872 
L 474.419198 482.025 
L 480.521264 583.719326 
L 482.555286 575.828282 
L 483.572296 550.506305 
L 484.589307 585.562299 
L 485.606318 567.532584 
L 486.623329 593.603471 
L 487.64034 548.647328 
L 488.657351 530.29434 
L 489.674362 542.881784 
L 490.691373 563.791617 
L 491.708384 571.211334 
L 492.725395 598.633086 
L 493.742406 583.906591 
L 494.759417 585.216817 
L 495.776428 579.667925 
L 496.793439 591.078312 
L 497.81045 534.368872 
L 498.827461 525.138462 
L 499.844471 551.641791 
L 500.861482 523.493878 
L 501.878493 498.425806 
L 502.895504 495.435294 
L 503.912515 533.103158 
L 504.929526 520.979439 
L 505.946537 532.426667 
L 506.963548 538.293976 
L 507.980559 572.1792 
L 508.99757 578.983987 
L 510.014581 576.954745 
L 511.031592 570.765336 
L 512.048603 578.233067 
L 513.065614 573.146341 
L 514.082625 582.577215 
L 515.099635 569.204751 
L 516.116646 588.408611 
L 517.133657 579.867675 
L 518.150668 582.482824 
L 519.167679 577.496988 
L 520.18469 579.697959 
L 521.201701 572.294891 
L 522.218712 581.531942 
L 523.235723 582.638298 
L 524.252734 515.952941 
L 525.269745 440.4 
L 526.286756 487.972881 
L 528.320778 503.274419 
L 529.337789 554.308014 
L 530.3548 571.51145 
L 531.37181 578.305694 
L 532.388821 602.698305 
L 533.405832 603.063276 
L 534.422843 602.155234 
L 535.439854 605.992874 
L 536.456865 599.094085 
L 537.473876 603.229641 
L 538.490887 609.51025 
L 539.507898 596.43686 
L 540.524909 589.377814 
L 541.54192 591.063194 
L 542.558931 589.692649 
L 543.575942 589.325131 
L 544.592953 585.560522 
L 545.609964 590.7022 
L 546.626974 555.661126 
L 547.643985 573.99403 
L 548.660996 573.052941 
L 549.678007 574.314894 
L 550.695018 544.007656 
L 551.712029 586.021192 
L 552.72904 538.179118 
L 553.746051 570.714534 
L 554.763062 574.74262 
L 555.780073 574.570213 
L 556.797084 584.277005 
L 557.814095 585.617048 
L 558.831106 574.297914 
L 559.848117 567.594064 
L 560.865128 573.836006 
L 561.882139 593.994146 
L 562.899149 576.953191 
L 563.91616 566.519084 
L 564.933171 575.864879 
L 565.950182 583.742657 
L 566.967193 584.558537 
L 567.984204 585.849823 
L 569.001215 581.218605 
L 570.018226 575.51316 
L 571.035237 563.754235 
L 572.052248 563.53985 
L 573.069259 566.757966 
L 574.08627 538.26383 
L 575.103281 524.077157 
L 576.120292 545.552432 
L 577.137303 597.188571 
L 578.154313 572.143677 
L 579.171324 580.34955 
L 580.188335 575.910816 
L 581.205346 584.231199 
L 582.222357 581.58435 
L 583.239368 575.275064 
L 584.256379 571.51811 
L 585.27339 589.519071 
L 586.290401 578.179298 
L 587.307412 585.04197 
L 588.324423 590.328358 
L 589.341434 597.949203 
L 590.358445 600.858271 
L 591.375456 601.474943 
L 592.392467 601.056287 
L 593.409478 602.748387 
L 594.426488 582.185111 
L 595.443499 594.981436 
L 596.46051 584.360063 
L 597.477521 213.415385 
L 598.494532 202.068293 
L 599.511543 609.298204 
L 600.528554 535.510088 
L 601.545565 542.640729 
L 602.562576 595.582822 
L 603.579587 580.080836 
L 604.596598 580.323861 
L 605.613609 595.284744 
L 606.63062 597.42439 
L 607.647631 592.348174 
L 608.664642 599.628283 
L 609.681652 591.694775 
L 610.698663 604.114985 
L 611.715674 600.011331 
L 612.732685 588.383791 
L 613.749696 597.109969 
L 614.766707 598.644886 
L 615.783718 600.410346 
L 616.800729 602.931827 
L 617.81774 594.26334 
L 618.834751 601.17521 
L 619.851762 593.323059 
L 620.868773 583.397294 
L 621.885784 577.627746 
L 622.902795 572.874419 
L 623.919806 544.966038 
L 624.936817 540.442553 
L 625.953827 573.911209 
L 626.970838 595.219743 
L 627.987849 582.090874 
L 629.00486 595.629727 
L 630.021871 600.825178 
L 631.038882 591.578149 
L 632.055893 605.284241 
L 633.072904 593.808458 
L 634.089915 599.326372 
L 635.106926 615.934517 
L 636.123937 589.549606 
L 637.140948 584.771588 
L 638.157959 583.700744 
L 639.17497 591.58916 
L 640.191981 593.918243 
L 641.208991 601.302675 
L 642.226002 600.948209 
L 643.243013 603.887837 
L 644.260024 592.042655 
L 645.277035 586.176431 
L 646.294046 567.164602 
L 647.311057 560.363636 
L 648.328068 557.140157 
L 649.345079 533.702211 
L 650.36209 592.516232 
L 651.379101 596.579439 
L 652.396112 580.183538 
L 653.413123 602.563465 
L 654.430134 602.766412 
L 655.447145 586.896882 
L 658.498177 598.659822 
L 659.515188 593.757697 
L 660.532199 610.986561 
L 661.54921 590.008094 
L 662.566221 589.173648 
L 663.583232 593.047371 
L 664.600243 593.132362 
L 665.617254 600.299799 
L 666.634265 600.377637 
L 667.651276 600.628551 
L 668.668287 583.013236 
L 669.685298 589.515655 
L 670.702309 567.685193 
L 671.71932 566.4 
L 672.73633 559.72437 
L 673.753341 584.350929 
L 674.770352 570.701484 
L 675.787363 562.562015 
L 676.804374 602.279051 
L 677.821385 586.586551 
L 678.838396 606.973279 
L 679.855407 593.245311 
L 680.872418 593.679043 
L 681.889429 606.948558 
L 682.90644 595.844885 
L 683.923451 599.954717 
L 684.940462 611.972519 
L 685.957473 593.736213 
L 686.974484 595.832225 
L 687.991495 596.385285 
L 689.008505 600.959131 
L 690.025516 603.628404 
L 691.042527 601.150814 
L 692.059538 599.644572 
L 693.076549 579.883562 
L 694.09356 583.903498 
L 695.110571 579.096429 
L 696.127582 566.770588 
L 697.144593 531.038202 
L 698.161604 557.270159 
L 699.178615 597.438245 
L 700.195626 568.547698 
L 701.212637 592.79424 
L 702.229648 577.665172 
L 703.246659 599.253208 
L 704.263669 599.342794 
L 705.28068 589.697443 
L 706.297691 594.70535 
L 707.314702 607.110574 
L 708.331713 598.295313 
L 709.348724 603.398309 
L 710.365735 588.996546 
L 711.382746 592.886935 
L 712.399757 598.422647 
L 713.416768 598.245172 
L 714.433779 606.833104 
L 715.45079 605.008696 
L 716.467801 601.885287 
L 717.484812 586.929091 
L 718.501823 583.644944 
L 719.518834 565.0375 
L 720.535844 557.331064 
L 721.552855 544.81875 
L 722.569866 606.662752 
L 723.586877 553.623529 
L 724.603888 568.194112 
L 725.620899 594.649412 
L 726.63791 613.17823 
L 727.654921 589.68067 
L 728.671932 607.289714 
L 729.688943 594.511698 
L 730.705954 620.786946 
L 731.722965 598.801965 
L 732.739976 600.953458 
L 733.756987 613.596172 
L 734.773998 594.4704 
L 735.791009 596.494382 
L 736.808019 597.35628 
L 737.82503 600.998519 
L 738.842041 605.447214 
L 739.859052 600.211786 
L 740.876063 598.799137 
L 741.893074 601.194479 
L 742.910085 586.112621 
L 743.927096 173.244444 
L 744.944107 151.68 
L 745.961118 613.4306 
L 746.978129 540.299267 
L 747.99514 567.181679 
L 749.012151 575.537401 
L 750.029162 601.319682 
L 751.046173 603.450054 
L 752.063183 590.205124 
L 753.080194 607.982155 
L 754.097205 597.85207 
L 755.114216 605.764921 
L 756.131227 604.441379 
L 757.148238 599.809406 
L 758.165249 623.118408 
L 759.18226 597.306454 
L 760.199271 596.848786 
L 761.216282 601.531531 
L 762.233293 604.357842 
L 763.250304 603.70329 
L 764.267315 602.612815 
L 765.284326 604.260999 
L 766.301337 602.027743 
L 767.318348 588.026301 
L 768.335358 583.095082 
L 769.352369 581.933858 
L 770.36938 580.552174 
L 771.386391 561.52019 
L 772.403402 552.064171 
L 773.420413 599.52 
L 774.437424 586.898983 
L 775.454435 601.950612 
L 776.471446 579.755102 
L 780.53949 603.192943 
L 782.573512 610.547783 
L 783.590522 601.165259 
L 784.607533 602.313924 
L 785.624544 603.029923 
L 786.641555 606.454919 
L 787.658566 604.892126 
L 788.675577 600.187371 
L 789.692588 594.551351 
L 790.709599 600.914436 
L 791.72661 593.303762 
L 792.743621 596.367568 
L 793.760632 583.658427 
L 794.777643 555.654545 
L 795.794654 552.502857 
L 796.811665 591.786369 
L 797.828676 588.344932 
L 798.845687 595.095714 
L 799.862697 602.727442 
L 800.879708 604.401353 
L 801.896719 588.699631 
L 802.91373 597.767915 
L 803.930741 604.096825 
L 804.947752 613.11604 
L 805.964763 609.577358 
L 810.032807 600.521739 
L 812.066829 604.44598 
L 813.08384 604.15622 
L 814.100851 601.376572 
L 815.117861 608.660403 
L 818.168894 575.496085 
L 819.185905 599.306828 
L 820.202916 540.512542 
L 821.219927 557.8275 
L 822.236938 595.678271 
L 823.253949 578.901608 
L 824.27096 587.540611 
L 825.287971 600.579855 
L 826.304982 595.126557 
L 827.321993 604.96269 
L 828.339004 602.788042 
L 829.356015 609.052424 
L 830.373026 603.987248 
L 831.390036 617.303743 
L 832.407047 570.896106 
L 833.424058 587.776107 
L 834.441069 601.207059 
L 835.45808 607.591274 
L 836.475091 607.967284 
L 837.492102 603.132059 
L 838.509113 603.128518 
L 839.526124 599.670823 
L 840.543135 589.889202 
L 841.560146 591.214177 
L 842.577157 577.272727 
L 843.594168 551.606557 
L 844.611179 561.403774 
L 845.62819 562.538182 
L 846.6452 594.681818 
L 847.662211 599.989857 
L 848.679222 600.586178 
L 849.696233 607.251064 
L 850.713244 602.515566 
L 851.730255 606.557282 
L 852.747266 604.450431 
L 853.764277 603.719693 
L 854.781288 608.395819 
L 855.798299 607.154893 
L 856.81531 577.744482 
L 857.832321 596.291899 
L 858.849332 592.891571 
L 859.866343 604.02001 
L 860.883354 607.83821 
L 862.917375 597.408834 
L 863.934386 599.456317 
L 864.951397 582.152556 
L 865.968408 573.066015 
L 866.985419 560.944578 
L 868.00243 540.253659 
L 869.019441 532.439678 
L 870.036452 593.885622 
L 871.053463 571.008534 
L 872.070474 598.296095 
L 873.087485 602.445719 
L 874.104496 598.747676 
L 875.121507 607.809231 
L 876.138518 615.359519 
L 878.172539 606.138713 
L 879.18955 614.262934 
L 880.206561 612.757895 
L 881.223572 604.254514 
L 882.240583 599.079026 
L 883.257594 605.343544 
L 884.274605 597.454457 
L 885.291616 610.371229 
L 886.308627 601.603314 
L 887.325638 603.81055 
L 888.342649 598.543362 
L 889.35966 588.316751 
L 890.376671 570.155556 
L 891.393682 558.798513 
L 892.410693 554.656827 
L 893.427704 552.883293 
L 894.444714 552.138894 
L 895.461725 620.127761 
L 896.478736 579.288204 
L 897.495747 603.985757 
L 899.529769 605.474611 
L 900.54678 596.743938 
L 901.563791 606.115692 
L 902.580802 611.401765 
L 903.597813 614.112377 
L 904.614824 611.369477 
L 905.631835 599.023363 
L 906.648846 602.744751 
L 909.699878 604.91405 
L 910.716889 604.186929 
L 911.7339 602.450209 
L 912.750911 596.091113 
L 913.767922 591.524706 
L 914.784933 589.036364 
L 915.801944 593.023256 
L 916.818955 543.61875 
L 917.835966 546.755344 
L 918.852977 589.195867 
L 919.869988 582.344923 
L 920.886999 596.798038 
L 921.90401 597.674904 
L 922.921021 606.220892 
L 923.938032 597.034847 
L 924.955043 619.231475 
L 925.972053 597.41932 
L 926.989064 609.629225 
L 928.006075 610.887645 
L 929.023086 611.597408 
L 930.040097 599.336075 
L 931.057108 601.115298 
L 932.074119 600.561832 
L 933.09113 604.332882 
L 934.108141 608.728055 
L 935.125152 608.137072 
L 936.142163 567.79661 
L 937.159174 600.604149 
L 938.176185 579.974936 
L 939.193196 629.328553 
L 940.210207 545.457778 
L 941.227217 533.238519 
L 942.244228 572.724706 
L 943.261239 556.489069 
L 944.27825 601.617012 
L 945.295261 601.765005 
L 946.312272 597.365805 
L 947.329283 608.428968 
L 948.346294 600.977835 
L 949.363305 609.070848 
L 950.380316 607.437929 
L 951.397327 613.517279 
L 952.414338 608.583562 
L 953.431349 617.383219 
L 954.44836 604.657938 
L 955.465371 605.289969 
L 956.482382 609.269159 
L 957.499392 607.288475 
L 958.516403 608.625338 
L 959.533414 604.610017 
L 960.550425 607.233455 
L 961.567436 595.92 
L 962.584447 573.622857 
L 963.601458 567.975573 
L 964.618469 542.123894 
L 965.63548 539.562667 
L 966.652491 611.319168 
L 967.669502 561.02246 
L 968.686513 617.06772 
L 969.703524 592.473348 
L 970.720535 597.964664 
L 971.737546 604.993812 
L 972.754556 587.284567 
L 973.771567 606.603036 
L 974.788578 603.747848 
L 975.805589 606.613681 
L 976.8226 612.89916 
L 977.839611 610.28726 
L 978.856622 600.301829 
L 979.873633 603.872494 
L 980.890644 599.18979 
L 981.907655 611.566577 
L 982.924666 605.409096 
L 983.941677 604.477523 
L 985.975699 600.176033 
L 986.99271 584.652852 
L 988.009721 606.862136 
L 989.026731 576.518593 
L 990.043742 567.235714 
L 991.060753 571.629851 
L 992.077764 578.008211 
L 993.094775 599.626692 
L 994.111786 597.333333 
L 995.128797 608.71479 
L 998.17983 605.782664 
L 999.196841 607.206916 
L 1000.213852 615.305538 
L 1001.230863 610.726926 
L 1002.247874 617.861151 
L 1003.264885 600.23056 
L 1004.281896 603.543633 
L 1006.315917 605.092863 
L 1007.332928 607.223047 
L 1008.349939 605.912864 
L 1009.36695 602.217749 
L 1010.383961 604.383381 
L 1011.400972 591.694118 
L 1012.417983 596.044221 
L 1013.434994 577.549091 
L 1014.452005 580.017778 
L 1015.469016 546.42989 
L 1016.486027 575.117601 
L 1017.503038 594.004318 
L 1018.520049 606.457423 
L 1019.53706 597.239275 
L 1020.55407 617.115062 
L 1021.571081 604.003819 
L 1022.588092 613.866667 
L 1025.639125 608.494207 
L 1026.656136 611.697601 
L 1029.707169 603.822639 
L 1031.741191 605.780056 
L 1032.758202 607.431114 
L 1033.775213 608.161378 
L 1034.792224 587.102244 
L 1035.809235 583.99797 
L 1036.826245 586.397444 
L 1037.843256 575.930935 
L 1038.860267 548.954245 
L 1039.877278 622.819587 
L 1040.894289 569.986009 
L 1041.9113 597.409788 
L 1042.928311 586.867142 
L 1043.945322 602.728396 
L 1044.962333 602.02888 
L 1046.996355 607.339834 
L 1048.013366 605.337336 
L 1051.064399 614.430019 
L 1052.081409 600.511111 
L 1053.09842 604.178804 
L 1054.115431 610.299676 
L 1056.149453 610.983075 
L 1057.166464 608.190304 
L 1058.183475 607.167238 
L 1059.200486 588.4224 
L 1060.217497 593.920253 
L 1061.234508 579.122467 
L 1062.251519 542.022335 
L 1063.26853 587.499013 
L 1064.285541 569.731148 
L 1065.302552 567.920525 
L 1066.319563 585.524979 
L 1067.336574 600.759341 
L 1069.370595 605.39742 
L 1070.387606 601.42775 
L 1071.404617 604.006799 
L 1072.421628 607.483416 
L 1073.438639 592.261047 
L 1075.472661 627.914693 
L 1076.489672 595.224861 
L 1077.506683 592.368 
L 1078.523694 602.636422 
L 1079.540705 610.774701 
L 1080.557716 606.459318 
L 1081.574727 603.23625 
L 1083.608748 594.747099 
L 1084.625759 581.953946 
L 1085.64277 582.387097 
L 1086.659781 553.319239 
L 1087.676792 547.680728 
L 1088.693803 548.456988 
L 1089.710814 593.566932 
L 1090.727825 600.076888 
L 1092.761847 587.395703 
L 1093.778858 607.317203 
L 1094.795869 596.530598 
L 1095.81288 600.266889 
L 1096.829891 598.027527 
L 1098.863913 577.766755 
L 1099.880923 592.639545 
L 1100.897934 594.066306 
L 1101.914945 598.986454 
L 1102.931956 584.350305 
L 1103.948967 600.584836 
L 1104.965978 609.385052 
L 1105.982989 599.393069 
L 1107 594.496575 
L 1108.017011 599.037249 
L 1109.034022 589.654505 
L 1110.051033 577.73617 
L 1111.068044 570.718931 
L 1112.085055 554.898701 
L 1113.102066 595.385263 
L 1114.119077 567.853176 
L 1116.153098 599.281067 
L 1117.170109 581.142633 
L 1118.18712 604.237058 
L 1119.204131 601.797809 
L 1120.221142 545.823252 
L 1121.238153 609.751862 
L 1122.255164 602.424093 
L 1123.272175 610.801195 
L 1124.289186 604.721577 
L 1125.306197 606.876094 
L 1126.323208 598.792982 
L 1127.340219 591.716981 
L 1128.35723 603.887924 
L 1129.374241 599.065574 
L 1130.391252 601.585855 
L 1131.408262 598.555752 
L 1132.425273 581.940958 
L 1133.442284 588.100089 
L 1134.459295 582.251852 
L 1135.476306 563.01745 
L 1136.493317 561.766234 
L 1137.510328 598.356164 
L 1138.527339 568.74093 
L 1139.54435 583.597122 
L 1141.578372 606.987505 
L 1143.612394 592.158242 
L 1144.629405 582.918987 
L 1145.646416 606.648637 
L 1146.663426 606.405265 
L 1147.680437 616.227342 
L 1148.697448 607.518987 
L 1149.714459 604.832037 
L 1150.73147 596.500326 
L 1151.748481 597.768525 
L 1152.765492 596.157263 
L 1153.782503 603.5464 
L 1154.799514 602.291748 
L 1155.816525 602.426771 
L 1156.833536 595.474906 
L 1157.850547 592.215228 
L 1158.867558 591.04594 
L 1159.884569 573.813181 
L 1160.90158 569.6 
L 1161.918591 572.086507 
L 1163.952612 603.491155 
L 1164.969623 594.279143 
L 1165.986634 606.260827 
L 1167.003645 611.40313 
L 1168.020656 602.837908 
L 1169.037667 621.612455 
L 1170.054678 605.08 
L 1171.071689 614.129128 
L 1172.0887 611.092907 
L 1173.105711 602.720424 
L 1174.122722 600.30493 
L 1175.139733 604.52492 
L 1176.156744 604.661871 
L 1177.173755 602.602319 
L 1178.190765 601.094064 
L 1179.207776 603.365517 
L 1180.224787 600.992281 
L 1181.241798 596.608447 
L 1182.258809 597.666341 
L 1183.27582 584.124907 
L 1184.292831 576.895281 
L 1185.309842 573.312 
L 1186.326853 533.35 
L 1187.343864 587.582788 
L 1188.360875 604.468876 
L 1189.377886 594.963547 
L 1190.394897 606.42488 
L 1191.411908 606.147206 
L 1192.428919 608.07873 
L 1193.44593 608.195923 
L 1194.46294 605.024493 
L 1195.479951 607.734736 
L 1196.496962 623.117647 
L 1197.513973 605.080463 
L 1198.530984 602.80313 
L 1199.547995 603.257948 
L 1200.565006 604.48406 
L 1201.582017 602.720101 
L 1202.599028 604.062331 
L 1203.616039 604.699924 
L 1204.63305 597.947519 
L 1205.650061 602.446131 
L 1206.667072 596.21374 
L 1207.684083 589.186977 
L 1208.701094 580.058182 
L 1209.718104 578.028025 
L 1210.735115 579.699668 
L 1211.752126 603.005542 
L 1213.786148 592.336364 
L 1214.803159 608.552456 
L 1215.82017 603.734216 
L 1216.837181 604.940104 
L 1217.854192 607.104373 
L 1218.871203 608.743972 
L 1219.888214 605.897711 
L 1220.905225 619.532276 
L 1221.922236 608.884768 
L 1222.939247 604.10818 
L 1223.956258 602.741011 
L 1224.973269 601.679218 
L 1225.990279 607.082715 
L 1229.041312 599.578409 
L 1230.058323 599.360789 
L 1231.075334 584.314286 
L 1232.092345 584.0117 
L 1233.109356 577.649642 
L 1234.126367 545.448649 
L 1236.160389 581.415264 
L 1237.1774 592.779337 
L 1238.194411 601.483491 
L 1239.211422 605.067534 
L 1240.228433 602.501053 
L 1241.245443 605.240455 
L 1242.262454 610.784118 
L 1243.279465 599.474622 
L 1244.296476 617.509227 
L 1245.313487 601.938226 
L 1246.330498 608.041897 
L 1247.347509 604.304022 
L 1248.36452 604.326739 
L 1249.381531 597.723536 
L 1250.398542 605.060386 
L 1251.415553 606.151674 
L 1252.432564 603.162162 
L 1253.449575 607.301742 
L 1254.466586 585.706058 
L 1255.483597 597.050398 
L 1256.500608 581.282226 
L 1257.517618 569.447948 
L 1258.534629 554.394748 
L 1259.55164 609.233073 
L 1261.585662 583.022111 
L 1263.619684 590.951492 
L 1264.636695 600.967667 
L 1265.653706 599.76683 
L 1266.670717 591.928759 
L 1267.687728 605.418127 
L 1269.72175 603.2783 
L 1270.738761 606.827723 
L 1271.755772 597.319449 
L 1272.772783 606.502876 
L 1273.789793 600.40441 
L 1274.806804 601.420408 
L 1275.823815 603.04316 
L 1276.840826 602.761788 
L 1277.857837 593.869985 
L 1278.874848 595.810192 
L 1279.891859 586.406214 
L 1280.90887 570.536585 
L 1281.925881 576.408276 
L 1282.942892 566.774144 
L 1284.976914 589.453632 
L 1285.993925 597.044914 
L 1287.010936 569.661926 
L 1288.027947 592.930685 
L 1289.044957 611.519296 
L 1290.061968 597.367933 
L 1291.078979 602.411591 
L 1292.09599 616.630786 
L 1293.113001 603.474264 
L 1294.130012 600.136817 
L 1296.164034 608.446855 
L 1297.181045 598.242497 
L 1298.198056 552.070588 
L 1299.215067 585.211976 
L 1300.232078 578.887404 
L 1301.249089 557.994937 
L 1302.2661 558.141176 
L 1303.283111 533.882707 
L 1304.300122 526.941176 
L 1305.317132 449.942857 
L 1306.334143 487.783784 
L 1308.368165 543.36 
L 1309.385176 499.82069 
L 1310.402187 532.149593 
L 1311.419198 546.217323 
L 1312.436209 563.631461 
L 1313.45322 583.297462 
L 1314.470231 569.805941 
L 1316.504253 570.875396 
L 1317.521264 595.332766 
L 1318.538275 589.604908 
L 1319.555286 584.83682 
L 1320.572296 555.194052 
L 1321.589307 561.84 
L 1322.606318 560.082902 
L 1323.623329 574.613333 
L 1324.64034 578.330709 
L 1325.657351 573.110972 
L 1326.674362 560.656769 
L 1327.691373 545.28 
L 1328.708384 245.169231 
L 1329.725395 488.4 
L 1330.742406 460.32 
L 1331.759417 372.292683 
L 1332.776428 491.138122 
L 1334.81045 558.688525 
L 1336.844471 550.111111 
L 1337.861482 531.887324 
L 1338.878493 583.825907 
L 1339.895504 571.244965 
L 1340.912515 577.186909 
L 1342.946537 599.522642 
L 1343.963548 605.407004 
L 1344.980559 595.789804 
L 1345.99757 598.965659 
L 1347.014581 595.054692 
L 1348.031592 602.521151 
L 1349.048603 602.010501 
L 1350.065614 598.027664 
L 1351.082625 595.14015 
L 1352.099635 593.301718 
L 1353.116646 584.817902 
L 1354.133657 573.034749 
L 1355.150668 558.652235 
L 1356.167679 546.927445 
L 1357.18469 560.120621 
L 1358.201701 559.554286 
L 1359.218712 601.233285 
L 1360.235723 588.16 
L 1361.252734 595.030578 
L 1362.269745 600.419219 
L 1363.286756 601.215881 
L 1364.303767 598.491168 
L 1365.320778 594.379023 
L 1366.337789 604.75809 
L 1367.3548 606.285609 
L 1369.388821 601.818464 
L 1370.405832 597.720729 
L 1371.422843 590.487397 
L 1372.439854 599.83441 
L 1373.456865 598.829136 
L 1374.473876 599.98163 
L 1375.490887 587.161846 
L 1376.507898 590.487273 
L 1378.54192 569.307527 
L 1379.558931 562.909091 
L 1380.575942 564.732824 
L 1382.609964 592.609272 
L 1383.626974 599.446787 
L 1384.643985 588.695093 
L 1385.660996 601.970861 
L 1386.678007 602.585224 
L 1387.695018 594.986794 
L 1388.712029 606.709835 
L 1389.72904 601.694245 
L 1390.746051 610.612043 
L 1391.763062 602.925232 
L 1392.780073 606.80812 
L 1393.797084 598.457047 
L 1394.814095 597.384341 
L 1395.831106 595.347426 
L 1396.848117 597.487722 
L 1397.865128 599.054173 
L 1398.882139 592.029442 
L 1399.899149 593.621549 
L 1400.91616 582.991754 
L 1401.933171 576.779802 
L 1402.950182 559.617814 
L 1403.967193 559.677454 
L 1404.984204 560.335385 
L 1406.001215 563.47563 
L 1407.018226 613.24666 
L 1408.035237 587.389289 
L 1409.052248 579.563405 
L 1410.069259 608.098633 
L 1411.08627 585.605684 
L 1412.103281 602.562832 
L 1413.120292 593.376819 
L 1414.137303 604.114842 
L 1415.154313 599.00274 
L 1416.171324 603.2614 
L 1417.188335 604.68509 
L 1418.205346 595.207555 
L 1419.222357 598.359545 
L 1420.239368 602.478223 
L 1421.256379 603.388295 
L 1422.27339 601.678494 
L 1423.290401 600.573865 
L 1424.307412 582.169925 
L 1425.324423 581.525973 
L 1426.341434 579.425684 
L 1427.358445 560.202037 
L 1428.375456 547.561809 
L 1429.392467 604.977167 
L 1430.409478 571.152534 
L 1431.426488 566.481139 
L 1432.443499 594.673973 
L 1433.46051 598.432897 
L 1435.494532 596.917757 
L 1436.511543 594.683524 
L 1437.528554 603.201817 
L 1438.545565 604.724892 
L 1439.562576 604.134152 
L 1440.579587 608.362145 
L 1441.596598 607.983606 
L 1442.613609 592.784788 
L 1443.63062 593.973145 
L 1444.647631 601.402361 
L 1445.664642 605.047244 
L 1446.681652 602.176035 
L 1447.698663 603.317254 
L 1448.715674 583.446805 
L 1449.732685 590.629117 
L 1450.749696 572.853952 
L 1451.766707 569.827306 
L 1452.783718 572.745205 
L 1453.800729 571.2384 
L 1454.81774 602.793931 
L 1455.834751 576.561337 
L 1456.851762 614.298822 
L 1457.868773 587.4 
L 1459.902795 597.258159 
L 1461.936817 598.199729 
L 1462.953827 589.266228 
L 1463.970838 581.819198 
L 1464.987849 591.427427 
L 1466.00486 590.17681 
L 1468.038882 596.471121 
L 1469.055893 595.420134 
L 1470.072904 597.229412 
L 1472.106926 594.161928 
L 1473.123937 591.376189 
L 1474.140948 586.661947 
L 1475.157959 573.493548 
L 1476.17497 572.905466 
L 1477.191981 565.592727 
L 1478.208991 563.626966 
L 1479.226002 578.219145 
L 1480.243013 598.960169 
L 1481.260024 595.697494 
L 1482.277035 589.933772 
L 1484.311057 245.740541 
L 1485.328068 581.341987 
L 1486.345079 593.431428 
L 1487.36209 593.21385 
L 1488.379101 600.637551 
L 1489.396112 596.87352 
L 1490.413123 597.368056 
L 1491.430134 588.093303 
L 1492.447145 594.079931 
L 1493.464156 595.903725 
L 1494.481166 595.575671 
L 1495.498177 595.48604 
L 1496.515188 595.011151 
L 1497.532199 582.465924 
L 1498.54921 588.508143 
L 1499.566221 572.564327 
L 1500.583232 554.26242 
L 1501.600243 531.115789 
L 1502.617254 522.320611 
L 1504.651276 594.005987 
L 1505.668287 573.615686 
L 1506.685298 580.821122 
L 1507.702309 590.412694 
L 1508.71932 592.425488 
L 1509.73633 603.366902 
L 1510.753341 592.126329 
L 1511.770352 593.712324 
L 1512.787363 594.984812 
L 1513.804374 607.038323 
L 1514.821385 595.075217 
L 1515.838396 591.521839 
L 1517.872418 591.293109 
L 1518.889429 596.568712 
L 1519.90644 595.949189 
L 1520.923451 593.251334 
L 1521.940462 584.266997 
L 1522.957473 590.89848 
L 1523.974484 592.566633 
L 1524.991495 561.885315 
L 1526.008505 545.123926 
L 1527.025516 549.590661 
L 1528.042527 545.702696 
L 1530.076549 590.667337 
L 1531.09356 588.639744 
L 1532.110571 588.559943 
L 1533.127582 599.851482 
L 1534.144593 593.357406 
L 1535.161604 596.667273 
L 1536.178615 593.186294 
L 1537.195626 593.506706 
L 1538.212637 594.817188 
L 1539.229648 601.945794 
L 1540.246659 594.11761 
L 1541.26367 596.196226 
L 1542.28068 596.807705 
L 1543.297691 598.062729 
L 1544.314702 599.55623 
L 1545.331713 597.888947 
L 1546.348724 585.183831 
L 1547.365735 584.722909 
L 1548.382746 577.408 
L 1549.399757 564.704192 
L 1550.416768 574.893913 
L 1551.433779 569.711332 
L 1552.45079 568.508298 
L 1554.484812 575.34053 
L 1555.501823 594.496594 
L 1556.518834 574.388845 
L 1557.535844 594.197052 
L 1558.552855 584.454989 
L 1559.569866 598.022412 
L 1560.586877 594.824564 
L 1561.603888 583.148192 
L 1562.620899 584.626431 
L 1563.63791 599.317127 
L 1564.654921 592.14433 
L 1565.671932 594.476005 
L 1566.688943 596.141071 
L 1567.705954 596.649977 
L 1568.722965 596.620096 
L 1569.739976 583.41653 
L 1570.756987 596.432309 
L 1571.773998 573.120859 
L 1572.791009 541.145455 
L 1573.808019 554.792357 
L 1574.82503 563.560761 
L 1575.842041 549.810747 
L 1576.859052 572.072346 
L 1577.876063 554.555766 
L 1579.910085 583.661279 
L 1580.927096 589.321334 
L 1581.944107 587.42625 
L 1582.961118 590.263552 
L 1583.978129 594.627471 
L 1584.99514 586.054064 
L 1586.012151 610.2224 
L 1587.029162 587.011608 
L 1588.046173 589.513752 
L 1589.063183 595.018209 
L 1590.080194 592.9359 
L 1591.097205 596.902968 
L 1592.114216 595.340534 
L 1593.131227 591.975049 
L 1594.148238 595.409873 
L 1595.165249 582.987395 
L 1596.18226 577.576355 
L 1597.199271 547.718621 
L 1598.216282 536.43871 
L 1599.233293 493.639193 
L 1600.250304 525.870199 
L 1601.267315 522.024 
L 1603.301337 569.921022 
L 1604.318348 574.551682 
L 1605.335358 543.892308 
L 1606.352369 582.851101 
L 1607.36938 587.390417 
L 1608.386391 593.942492 
L 1609.403402 590.08336 
L 1610.420413 601.648333 
L 1611.437424 590.438782 
L 1612.454435 596.47617 
L 1613.471446 587.585219 
L 1614.488457 592.176991 
L 1615.505468 591.500513 
L 1616.522479 587.225401 
L 1618.556501 582.47388 
L 1619.573512 581.253162 
L 1620.590522 571.987629 
L 1621.607533 541.024934 
L 1622.624544 553.991061 
L 1623.641555 564.848177 
L 1624.658566 562.810714 
L 1625.675577 577.939272 
L 1627.709599 583.838057 
L 1628.72661 574.880341 
L 1629.743621 567.307707 
L 1630.760632 570.590927 
L 1631.777643 585.676573 
L 1632.794654 576.415362 
L 1633.811665 584.729306 
L 1634.828676 582.351716 
L 1635.845687 589.748783 
L 1636.862697 598.106261 
L 1638.896719 589.989189 
L 1639.91373 592.156658 
L 1640.930741 588.98255 
L 1641.947752 589.012452 
L 1642.964763 577.715081 
L 1643.981774 576.77764 
L 1644.998785 572.294812 
L 1647.032807 551.326218 
L 1648.049818 579.269189 
L 1649.066829 576.536117 
L 1650.08384 552.994475 
L 1651.100851 587.51796 
L 1652.117861 567.99644 
L 1653.134872 565.02995 
L 1654.151883 608.662167 
L 1655.168894 578.336424 
L 1656.185905 592.443073 
L 1657.202916 590.175812 
L 1658.219927 586.892597 
L 1659.236938 596.567132 
L 1660.253949 590.283491 
L 1661.27096 596.571294 
L 1662.287971 586.297925 
L 1663.304982 590.065321 
L 1664.321993 592.210526 
L 1665.339004 584.166975 
L 1666.356015 592.236176 
L 1667.373026 585.952874 
L 1668.390036 573.373252 
L 1669.407047 586.031206 
L 1670.424058 537.881818 
L 1671.441069 555.021818 
L 1672.45808 530.166606 
L 1673.475091 531.34929 
L 1674.492102 579.005964 
L 1675.509113 577.838349 
L 1676.526124 560.11396 
L 1677.543135 586.476412 
L 1678.560146 609.009531 
L 1679.577157 590.77034 
L 1680.594168 588.638542 
L 1681.611179 600.885463 
L 1682.62819 593.508214 
L 1683.6452 591.590128 
L 1684.662211 598.043597 
L 1685.679222 610.011763 
L 1686.696233 609.196865 
L 1702.968408 586.472998 
L 1703.985419 595.399435 
L 1705.00243 590.281147 
L 1706.019441 584.58206 
L 1707.036452 597.39326 
L 1708.053463 599.679609 
L 1709.070474 596.775935 
L 1710.087485 602.821396 
L 1711.104496 590.916445 
L 1712.121507 591.611845 
L 1713.138518 580.340922 
L 1714.155529 591.250708 
L 1715.172539 584.916033 
L 1716.18955 583.141537 
L 1717.206561 578.605846 
L 1718.223572 563.910301 
L 1719.240583 552.797203 
L 1720.257594 534.771671 
L 1721.274605 552.32126 
L 1722.291616 526.676364 
L 1723.308627 584.969832 
L 1724.325638 572.144288 
L 1725.342649 581.616783 
L 1726.35966 585.710699 
L 1727.376671 561.549782 
L 1728.393682 589.625464 
L 1729.410693 562.749197 
L 1730.427704 592.294888 
L 1732.461725 590.358451 
L 1733.478736 596.997309 
L 1734.495747 596.167658 
L 1735.512758 589.543399 
L 1736.529769 592.17492 
L 1737.54678 585.987851 
L 1738.563791 591.819633 
L 1739.580802 589.183023 
L 1740.597813 584.828342 
L 1741.614824 575.530807 
L 1742.631835 559.903759 
L 1743.648846 553.577143 
L 1744.665857 534.468293 
L 1745.682868 569.465169 
L 1746.699878 508.852893 
L 1747.716889 549.58759 
L 1749.750911 583.958854 
L 1750.767922 578.269304 
L 1751.784933 587.843753 
L 1752.801944 553.654621 
L 1753.818955 584.391391 
L 1756.869988 597.908959 
L 1757.886999 584.542936 
L 1758.90401 576.722914 
L 1759.921021 574.683384 
L 1760.938032 583.363858 
L 1761.955043 582.10438 
L 1762.972053 585.270672 
L 1763.989064 582.50363 
L 1765.006075 582.226325 
L 1766.023086 570.491103 
L 1767.040097 550.719187 
L 1768.057108 514.924138 
L 1769.074119 532.952036 
L 1770.09113 534.992354 
L 1771.108141 583.824256 
L 1772.125152 543.996975 
L 1773.142163 578.565182 
L 1774.159174 545.336842 
L 1775.176185 582.786559 
L 1776.193196 577.946497 
L 1778.227217 581.866221 
L 1779.244228 596.978537 
L 1780.261239 589.704288 
L 1781.27825 598.599726 
L 1782.295261 572.432318 
L 1783.312272 612.078225 
L 1784.329283 589.451823 
L 1785.346294 594.831593 
L 1786.363305 593.506549 
L 1787.380316 590.991991 
L 1788.397327 590.585711 
L 1789.414338 576.373755 
L 1790.431349 574.093766 
L 1791.44836 563.265882 
L 1792.465371 547.507965 
L 1793.482382 516.462651 
L 1796.533414 571.826212 
L 1801.618469 572.326191 
L 1802.63548 584.069333 
L 1803.652491 592.001826 
L 1804.669502 583.783927 
L 1805.686513 588.667707 
L 1806.703524 599.359292 
L 1807.720535 601.881736 
L 1808.737546 595.206634 
L 1809.754556 593.712253 
L 1810.771567 589.280089 
L 1811.788578 599.100505 
L 1812.805589 592.27103 
L 1813.8226 556.796141 
L 1814.839611 585.519421 
L 1815.856622 564.449661 
L 1816.873633 594.122353 
L 1817.890644 511.538824 
L 1818.907655 544.118738 
L 1819.924666 535.37892 
L 1820.941677 583.364444 
L 1821.958688 557.709172 
L 1822.975699 590.123968 
L 1823.99271 544.570771 
L 1825.009721 586.742072 
L 1826.026731 613.570957 
L 1827.043742 501.590156 
L 1828.060753 581.485714 
L 1829.077764 573.544463 
L 1830.094775 597.052632 
L 1831.111786 581.374141 
L 1832.128797 530.462143 
L 1833.145808 581.247244 
L 1834.162819 564.969028 
L 1835.17983 587.667784 
L 1836.196841 590.766903 
L 1837.213852 583.635038 
L 1838.230863 577.503495 
L 1839.247874 569.191049 
L 1840.264885 544.456274 
L 1841.281896 568.045806 
L 1842.298906 499.592883 
L 1843.315917 505.535664 
L 1844.332928 486.117256 
L 1845.349939 501.04186 
L 1846.36695 575.044344 
L 1847.383961 556.501477 
L 1848.400972 586.276381 
L 1849.417983 583.597893 
L 1850.434994 594.597628 
L 1851.452005 587.673827 
L 1852.469016 610.585968 
L 1853.486027 566.450133 
L 1854.503038 570.070506 
L 1855.520049 586.4 
L 1856.53706 620.784724 
L 1857.55407 586.179432 
L 1858.571081 580.426158 
L 1859.588092 593.930591 
L 1860.605103 596.455055 
L 1861.622114 589.964384 
L 1862.639125 590.706407 
L 1863.656136 581.87488 
L 1864.673147 566.563459 
L 1865.690158 546.345143 
L 1866.707169 529.979381 
L 1867.72418 476.362105 
L 1868.741191 516.146008 
L 1869.758202 546.106241 
L 1870.775213 539.851256 
L 1871.792224 594.34166 
L 1872.809235 592.756136 
L 1873.826245 594.971664 
L 1875.860267 601.509076 
L 1877.894289 602.437923 
L 1878.9113 596.8777 
L 1879.928311 600.919956 
L 1880.945322 615.480659 
L 1881.962333 603.762849 
L 1882.979344 596.617195 
L 1883.996355 581.736304 
L 1885.013366 599.489395 
L 1886.030377 595.811974 
L 1887.047388 585.437895 
L 1888.064399 588.400572 
L 1889.081409 578.071638 
L 1890.09842 557.209479 
L 1891.115431 521.761074 
L 1892.132442 512.597802 
L 1893.149453 484.405479 
L 1894.166464 568.533952 
L 1896.200486 588.235801 
L 1898.234508 589.039001 
L 1899.251519 602.952597 
L 1900.26853 599.309763 
L 1901.285541 598.637701 
L 1902.302552 608.285965 
L 1903.319563 607.847496 
L 1904.336574 604.145119 
L 1906.370595 603.837857 
L 1907.387606 596.147575 
L 1908.404617 594.311837 
L 1909.421628 596.623661 
L 1910.438639 583.334228 
L 1911.45565 589.998931 
L 1912.472661 571.847667 
L 1913.489672 538.936148 
L 1914.506683 527.62445 
L 1915.523694 508.326316 
L 1916.540705 587.18342 
L 1917.557716 548.472414 
L 1919.591738 573.369935 
L 1920.608748 561.375862 
L 1921.625759 583.229675 
L 1922.64277 564.318456 
L 1923.659781 573.827203 
L 1924.676792 591.940378 
L 1925.693803 579.668281 
L 1926.710814 574.977364 
L 1927.727825 594.876346 
L 1928.744836 603.429718 
L 1929.761847 607.006597 
L 1930.778858 585.892139 
L 1931.795869 592.94853 
L 1932.81288 591.601794 
L 1933.829891 591.544936 
L 1934.846902 579.194953 
L 1935.863913 575.010972 
L 1936.880923 554.121976 
L 1937.897934 551.944093 
L 1938.914945 512.015534 
L 1939.931956 507.777947 
L 1940.948967 483.264777 
L 1941.965978 574.455621 
L 1942.982989 575.240223 
L 1944 557.709004 
L 1944 557.709004 
" style="fill:none;stroke:#0000ff;stroke-linecap:square;"/>
   </g>
   <g id="line2d_2">
    <defs>
     <path d="M 0 3 
C 0.795609 3 1.55874 2.683901 2.12132 2.12132 
C 2.683901 1.55874 3 0.795609 3 0 
C 3 -0.795609 2.683901 -1.55874 2.12132 -2.12132 
C 1.55874 -2.683901 0.795609 -3 0 -3 
C -0.795609 -3 -1.55874 -2.683901 -2.12132 -2.12132 
C -2.683901 -1.55874 -3 -0.795609 -3 0 
C -3 0.795609 -2.683901 1.55874 -2.12132 2.12132 
C -1.55874 2.683901 -0.795609 3 0 3 
z
" id="mbc4bdcc54a" style="stroke:#000000;stroke-width:0.5;"/>
    </defs>
    <g clip-path="url(#p9556ae2e0a)">
     <use style="fill:#ff0000;stroke:#000000;stroke-width:0.5;" x="457.130012147" xlink:href="#mbc4bdcc54a" y="358.1625"/>
     <use style="fill:#ff0000;stroke:#000000;stroke-width:0.5;" x="597.477521263" xlink:href="#mbc4bdcc54a" y="213.415384615"/>
     <use style="fill:#ff0000;stroke:#000000;stroke-width:0.5;" x="744.944106925" xlink:href="#mbc4bdcc54a" y="151.68"/>
     <use style="fill:#ff0000;stroke:#000000;stroke-width:0.5;" x="1328.70838396" xlink:href="#mbc4bdcc54a" y="245.169230769"/>
     <use style="fill:#ff0000;stroke:#000000;stroke-width:0.5;" x="1484.31105711" xlink:href="#mbc4bdcc54a" y="245.74054054"/>
    </g>
   </g>
   <g id="patch_3">
    <path d="M 270 72 
L 1944 72 
" style="fill:none;stroke:#000000;stroke-linecap:square;stroke-linejoin:miter;"/>
   </g>
   <g id="patch_4">
    <path d="M 1944 648 
L 1944 72 
" style="fill:none;stroke:#000000;stroke-linecap:square;stroke-linejoin:miter;"/>
   </g>
   <g id="patch_5">
    <path d="M 270 648 
L 1944 648 
" style="fill:none;stroke:#000000;stroke-linecap:square;stroke-linejoin:miter;"/>
   </g>
   <g id="patch_6">
    <path d="M 270 648 
L 270 72 
" style="fill:none;stroke:#000000;stroke-linecap:square;stroke-linejoin:miter;"/>
   </g>
   <g id="matplotlib.axis_1">
    <g id="xtick_1">
     <g id="line2d_3">
      <defs>
       <path d="M 0 0 
L 0 -4 
" id="m278f057360" style="stroke:#000000;stroke-width:0.5;"/>
      </defs>
      <g>
       <use style="stroke:#000000;stroke-width:0.5;" x="318.561989672" xlink:href="#m278f057360" y="648.0"/>
      </g>
     </g>
     <g id="line2d_4">
      <defs>
       <path d="M 0 0 
L 0 4 
" id="m751a7c1334" style="stroke:#000000;stroke-width:0.5;"/>
      </defs>
      <g>
       <use style="stroke:#000000;stroke-width:0.5;" x="318.561989672" xlink:href="#m751a7c1334" y="72.0"/>
      </g>
     </g>
     <g id="text_1">
      <!-- Jul 03 2011 -->
      <defs>
       <path d="M 19.1875 8.296875 
L 53.609375 8.296875 
L 53.609375 0 
L 7.328125 0 
L 7.328125 8.296875 
Q 12.9375 14.109375 22.625 23.890625 
Q 32.328125 33.6875 34.8125 36.53125 
Q 39.546875 41.84375 41.421875 45.53125 
Q 43.3125 49.21875 43.3125 52.78125 
Q 43.3125 58.59375 39.234375 62.25 
Q 35.15625 65.921875 28.609375 65.921875 
Q 23.96875 65.921875 18.8125 64.3125 
Q 13.671875 62.703125 7.8125 59.421875 
L 7.8125 69.390625 
Q 13.765625 71.78125 18.9375 73 
Q 24.125 74.21875 28.421875 74.21875 
Q 39.75 74.21875 46.484375 68.546875 
Q 53.21875 62.890625 53.21875 53.421875 
Q 53.21875 48.921875 51.53125 44.890625 
Q 49.859375 40.875 45.40625 35.40625 
Q 44.1875 33.984375 37.640625 27.21875 
Q 31.109375 20.453125 19.1875 8.296875 
" id="BitstreamVeraSans-Roman-32"/>
       <path id="BitstreamVeraSans-Roman-20"/>
       <path d="M 31.78125 66.40625 
Q 24.171875 66.40625 20.328125 58.90625 
Q 16.5 51.421875 16.5 36.375 
Q 16.5 21.390625 20.328125 13.890625 
Q 24.171875 6.390625 31.78125 6.390625 
Q 39.453125 6.390625 43.28125 13.890625 
Q 47.125 21.390625 47.125 36.375 
Q 47.125 51.421875 43.28125 58.90625 
Q 39.453125 66.40625 31.78125 66.40625 
M 31.78125 74.21875 
Q 44.046875 74.21875 50.515625 64.515625 
Q 56.984375 54.828125 56.984375 36.375 
Q 56.984375 17.96875 50.515625 8.265625 
Q 44.046875 -1.421875 31.78125 -1.421875 
Q 19.53125 -1.421875 13.0625 8.265625 
Q 6.59375 17.96875 6.59375 36.375 
Q 6.59375 54.828125 13.0625 64.515625 
Q 19.53125 74.21875 31.78125 74.21875 
" id="BitstreamVeraSans-Roman-30"/>
       <path d="M 12.40625 8.296875 
L 28.515625 8.296875 
L 28.515625 63.921875 
L 10.984375 60.40625 
L 10.984375 69.390625 
L 28.421875 72.90625 
L 38.28125 72.90625 
L 38.28125 8.296875 
L 54.390625 8.296875 
L 54.390625 0 
L 12.40625 0 
z
" id="BitstreamVeraSans-Roman-31"/>
       <path d="M 9.8125 72.90625 
L 19.671875 72.90625 
L 19.671875 5.078125 
Q 19.671875 -8.109375 14.671875 -14.0625 
Q 9.671875 -20.015625 -1.421875 -20.015625 
L -5.171875 -20.015625 
L -5.171875 -11.71875 
L -2.09375 -11.71875 
Q 4.4375 -11.71875 7.125 -8.046875 
Q 9.8125 -4.390625 9.8125 5.078125 
z
" id="BitstreamVeraSans-Roman-4a"/>
       <path d="M 40.578125 39.3125 
Q 47.65625 37.796875 51.625 33 
Q 55.609375 28.21875 55.609375 21.1875 
Q 55.609375 10.40625 48.1875 4.484375 
Q 40.765625 -1.421875 27.09375 -1.421875 
Q 22.515625 -1.421875 17.65625 -0.515625 
Q 12.796875 0.390625 7.625 2.203125 
L 7.625 11.71875 
Q 11.71875 9.328125 16.59375 8.109375 
Q 21.484375 6.890625 26.8125 6.890625 
Q 36.078125 6.890625 40.9375 10.546875 
Q 45.796875 14.203125 45.796875 21.1875 
Q 45.796875 27.640625 41.28125 31.265625 
Q 36.765625 34.90625 28.71875 34.90625 
L 20.21875 34.90625 
L 20.21875 43.015625 
L 29.109375 43.015625 
Q 36.375 43.015625 40.234375 45.921875 
Q 44.09375 48.828125 44.09375 54.296875 
Q 44.09375 59.90625 40.109375 62.90625 
Q 36.140625 65.921875 28.71875 65.921875 
Q 24.65625 65.921875 20.015625 65.03125 
Q 15.375 64.15625 9.8125 62.3125 
L 9.8125 71.09375 
Q 15.4375 72.65625 20.34375 73.4375 
Q 25.25 74.21875 29.59375 74.21875 
Q 40.828125 74.21875 47.359375 69.109375 
Q 53.90625 64.015625 53.90625 55.328125 
Q 53.90625 49.265625 50.4375 45.09375 
Q 46.96875 40.921875 40.578125 39.3125 
" id="BitstreamVeraSans-Roman-33"/>
       <path d="M 9.421875 75.984375 
L 18.40625 75.984375 
L 18.40625 0 
L 9.421875 0 
z
" id="BitstreamVeraSans-Roman-6c"/>
       <path d="M 8.5 21.578125 
L 8.5 54.6875 
L 17.484375 54.6875 
L 17.484375 21.921875 
Q 17.484375 14.15625 20.5 10.265625 
Q 23.53125 6.390625 29.59375 6.390625 
Q 36.859375 6.390625 41.078125 11.03125 
Q 45.3125 15.671875 45.3125 23.6875 
L 45.3125 54.6875 
L 54.296875 54.6875 
L 54.296875 0 
L 45.3125 0 
L 45.3125 8.40625 
Q 42.046875 3.421875 37.71875 1 
Q 33.40625 -1.421875 27.6875 -1.421875 
Q 18.265625 -1.421875 13.375 4.4375 
Q 8.5 10.296875 8.5 21.578125 
" id="BitstreamVeraSans-Roman-75"/>
      </defs>
      <g transform="translate(284.603864672 661.118125)scale(0.12 -0.12)">
       <use xlink:href="#BitstreamVeraSans-Roman-4a"/>
       <use x="29.4921875" xlink:href="#BitstreamVeraSans-Roman-75"/>
       <use x="92.87109375" xlink:href="#BitstreamVeraSans-Roman-6c"/>
       <use x="120.654296875" xlink:href="#BitstreamVeraSans-Roman-20"/>
       <use x="152.44140625" xlink:href="#BitstreamVeraSans-Roman-30"/>
       <use x="216.064453125" xlink:href="#BitstreamVeraSans-Roman-33"/>
       <use x="279.6875" xlink:href="#BitstreamVeraSans-Roman-20"/>
       <use x="311.474609375" xlink:href="#BitstreamVeraSans-Roman-32"/>
       <use x="375.09765625" xlink:href="#BitstreamVeraSans-Roman-30"/>
       <use x="438.720703125" xlink:href="#BitstreamVeraSans-Roman-31"/>
       <use x="502.34375" xlink:href="#BitstreamVeraSans-Roman-31"/>
      </g>
     </g>
    </g>
    <g id="xtick_2">
     <g id="line2d_5">
      <g>
       <use style="stroke:#000000;stroke-width:0.5;" x="489.41982685" xlink:href="#m278f057360" y="648.0"/>
      </g>
     </g>
     <g id="line2d_6">
      <g>
       <use style="stroke:#000000;stroke-width:0.5;" x="489.41982685" xlink:href="#m751a7c1334" y="72.0"/>
      </g>
     </g>
     <g id="text_2">
      <!-- Jul 10 2011 -->
      <g transform="translate(455.46170185 661.118125)scale(0.12 -0.12)">
       <use xlink:href="#BitstreamVeraSans-Roman-4a"/>
       <use x="29.4921875" xlink:href="#BitstreamVeraSans-Roman-75"/>
       <use x="92.87109375" xlink:href="#BitstreamVeraSans-Roman-6c"/>
       <use x="120.654296875" xlink:href="#BitstreamVeraSans-Roman-20"/>
       <use x="152.44140625" xlink:href="#BitstreamVeraSans-Roman-31"/>
       <use x="216.064453125" xlink:href="#BitstreamVeraSans-Roman-30"/>
       <use x="279.6875" xlink:href="#BitstreamVeraSans-Roman-20"/>
       <use x="311.474609375" xlink:href="#BitstreamVeraSans-Roman-32"/>
       <use x="375.09765625" xlink:href="#BitstreamVeraSans-Roman-30"/>
       <use x="438.720703125" xlink:href="#BitstreamVeraSans-Roman-31"/>
       <use x="502.34375" xlink:href="#BitstreamVeraSans-Roman-31"/>
      </g>
     </g>
    </g>
    <g id="xtick_3">
     <g id="line2d_7">
      <g>
       <use style="stroke:#000000;stroke-width:0.5;" x="660.277664032" xlink:href="#m278f057360" y="648.0"/>
      </g>
     </g>
     <g id="line2d_8">
      <g>
       <use style="stroke:#000000;stroke-width:0.5;" x="660.277664032" xlink:href="#m751a7c1334" y="72.0"/>
      </g>
     </g>
     <g id="text_3">
      <!-- Jul 17 2011 -->
      <defs>
       <path d="M 8.203125 72.90625 
L 55.078125 72.90625 
L 55.078125 68.703125 
L 28.609375 0 
L 18.3125 0 
L 43.21875 64.59375 
L 8.203125 64.59375 
z
" id="BitstreamVeraSans-Roman-37"/>
      </defs>
      <g transform="translate(626.319539032 661.118125)scale(0.12 -0.12)">
       <use xlink:href="#BitstreamVeraSans-Roman-4a"/>
       <use x="29.4921875" xlink:href="#BitstreamVeraSans-Roman-75"/>
       <use x="92.87109375" xlink:href="#BitstreamVeraSans-Roman-6c"/>
       <use x="120.654296875" xlink:href="#BitstreamVeraSans-Roman-20"/>
       <use x="152.44140625" xlink:href="#BitstreamVeraSans-Roman-31"/>
       <use x="216.064453125" xlink:href="#BitstreamVeraSans-Roman-37"/>
       <use x="279.6875" xlink:href="#BitstreamVeraSans-Roman-20"/>
       <use x="311.474609375" xlink:href="#BitstreamVeraSans-Roman-32"/>
       <use x="375.09765625" xlink:href="#BitstreamVeraSans-Roman-30"/>
       <use x="438.720703125" xlink:href="#BitstreamVeraSans-Roman-31"/>
       <use x="502.34375" xlink:href="#BitstreamVeraSans-Roman-31"/>
      </g>
     </g>
    </g>
    <g id="xtick_4">
     <g id="line2d_9">
      <g>
       <use style="stroke:#000000;stroke-width:0.5;" x="831.135501213" xlink:href="#m278f057360" y="648.0"/>
      </g>
     </g>
     <g id="line2d_10">
      <g>
       <use style="stroke:#000000;stroke-width:0.5;" x="831.135501213" xlink:href="#m751a7c1334" y="72.0"/>
      </g>
     </g>
     <g id="text_4">
      <!-- Jul 24 2011 -->
      <defs>
       <path d="M 37.796875 64.3125 
L 12.890625 25.390625 
L 37.796875 25.390625 
z
M 35.203125 72.90625 
L 47.609375 72.90625 
L 47.609375 25.390625 
L 58.015625 25.390625 
L 58.015625 17.1875 
L 47.609375 17.1875 
L 47.609375 0 
L 37.796875 0 
L 37.796875 17.1875 
L 4.890625 17.1875 
L 4.890625 26.703125 
z
" id="BitstreamVeraSans-Roman-34"/>
      </defs>
      <g transform="translate(797.177376213 661.118125)scale(0.12 -0.12)">
       <use xlink:href="#BitstreamVeraSans-Roman-4a"/>
       <use x="29.4921875" xlink:href="#BitstreamVeraSans-Roman-75"/>
       <use x="92.87109375" xlink:href="#BitstreamVeraSans-Roman-6c"/>
       <use x="120.654296875" xlink:href="#BitstreamVeraSans-Roman-20"/>
       <use x="152.44140625" xlink:href="#BitstreamVeraSans-Roman-32"/>
       <use x="216.064453125" xlink:href="#BitstreamVeraSans-Roman-34"/>
       <use x="279.6875" xlink:href="#BitstreamVeraSans-Roman-20"/>
       <use x="311.474609375" xlink:href="#BitstreamVeraSans-Roman-32"/>
       <use x="375.09765625" xlink:href="#BitstreamVeraSans-Roman-30"/>
       <use x="438.720703125" xlink:href="#BitstreamVeraSans-Roman-31"/>
       <use x="502.34375" xlink:href="#BitstreamVeraSans-Roman-31"/>
      </g>
     </g>
    </g>
    <g id="xtick_5">
     <g id="line2d_11">
      <g>
       <use style="stroke:#000000;stroke-width:0.5;" x="1001.99333839" xlink:href="#m278f057360" y="648.0"/>
      </g>
     </g>
     <g id="line2d_12">
      <g>
       <use style="stroke:#000000;stroke-width:0.5;" x="1001.99333839" xlink:href="#m751a7c1334" y="72.0"/>
      </g>
     </g>
     <g id="text_5">
      <!-- Jul 31 2011 -->
      <g transform="translate(968.035213395 661.118125)scale(0.12 -0.12)">
       <use xlink:href="#BitstreamVeraSans-Roman-4a"/>
       <use x="29.4921875" xlink:href="#BitstreamVeraSans-Roman-75"/>
       <use x="92.87109375" xlink:href="#BitstreamVeraSans-Roman-6c"/>
       <use x="120.654296875" xlink:href="#BitstreamVeraSans-Roman-20"/>
       <use x="152.44140625" xlink:href="#BitstreamVeraSans-Roman-33"/>
       <use x="216.064453125" xlink:href="#BitstreamVeraSans-Roman-31"/>
       <use x="279.6875" xlink:href="#BitstreamVeraSans-Roman-20"/>
       <use x="311.474609375" xlink:href="#BitstreamVeraSans-Roman-32"/>
       <use x="375.09765625" xlink:href="#BitstreamVeraSans-Roman-30"/>
       <use x="438.720703125" xlink:href="#BitstreamVeraSans-Roman-31"/>
       <use x="502.34375" xlink:href="#BitstreamVeraSans-Roman-31"/>
      </g>
     </g>
    </g>
    <g id="xtick_6">
     <g id="line2d_13">
      <g>
       <use style="stroke:#000000;stroke-width:0.5;" x="1172.85117558" xlink:href="#m278f057360" y="648.0"/>
      </g>
     </g>
     <g id="line2d_14">
      <g>
       <use style="stroke:#000000;stroke-width:0.5;" x="1172.85117558" xlink:href="#m751a7c1334" y="72.0"/>
      </g>
     </g>
     <g id="text_6">
      <!-- Aug 07 2011 -->
      <defs>
       <path d="M 45.40625 27.984375 
Q 45.40625 37.75 41.375 43.109375 
Q 37.359375 48.484375 30.078125 48.484375 
Q 22.859375 48.484375 18.828125 43.109375 
Q 14.796875 37.75 14.796875 27.984375 
Q 14.796875 18.265625 18.828125 12.890625 
Q 22.859375 7.515625 30.078125 7.515625 
Q 37.359375 7.515625 41.375 12.890625 
Q 45.40625 18.265625 45.40625 27.984375 
M 54.390625 6.78125 
Q 54.390625 -7.171875 48.1875 -13.984375 
Q 42 -20.796875 29.203125 -20.796875 
Q 24.46875 -20.796875 20.265625 -20.09375 
Q 16.0625 -19.390625 12.109375 -17.921875 
L 12.109375 -9.1875 
Q 16.0625 -11.328125 19.921875 -12.34375 
Q 23.78125 -13.375 27.78125 -13.375 
Q 36.625 -13.375 41.015625 -8.765625 
Q 45.40625 -4.15625 45.40625 5.171875 
L 45.40625 9.625 
Q 42.625 4.78125 38.28125 2.390625 
Q 33.9375 0 27.875 0 
Q 17.828125 0 11.671875 7.65625 
Q 5.515625 15.328125 5.515625 27.984375 
Q 5.515625 40.671875 11.671875 48.328125 
Q 17.828125 56 27.875 56 
Q 33.9375 56 38.28125 53.609375 
Q 42.625 51.21875 45.40625 46.390625 
L 45.40625 54.6875 
L 54.390625 54.6875 
z
" id="BitstreamVeraSans-Roman-67"/>
       <path d="M 34.1875 63.1875 
L 20.796875 26.90625 
L 47.609375 26.90625 
z
M 28.609375 72.90625 
L 39.796875 72.90625 
L 67.578125 0 
L 57.328125 0 
L 50.6875 18.703125 
L 17.828125 18.703125 
L 11.1875 0 
L 0.78125 0 
z
" id="BitstreamVeraSans-Roman-41"/>
      </defs>
      <g transform="translate(1134.41648808 661.118125)scale(0.12 -0.12)">
       <use xlink:href="#BitstreamVeraSans-Roman-41"/>
       <use x="68.408203125" xlink:href="#BitstreamVeraSans-Roman-75"/>
       <use x="131.787109375" xlink:href="#BitstreamVeraSans-Roman-67"/>
       <use x="195.263671875" xlink:href="#BitstreamVeraSans-Roman-20"/>
       <use x="227.05078125" xlink:href="#BitstreamVeraSans-Roman-30"/>
       <use x="290.673828125" xlink:href="#BitstreamVeraSans-Roman-37"/>
       <use x="354.296875" xlink:href="#BitstreamVeraSans-Roman-20"/>
       <use x="386.083984375" xlink:href="#BitstreamVeraSans-Roman-32"/>
       <use x="449.70703125" xlink:href="#BitstreamVeraSans-Roman-30"/>
       <use x="513.330078125" xlink:href="#BitstreamVeraSans-Roman-31"/>
       <use x="576.953125" xlink:href="#BitstreamVeraSans-Roman-31"/>
      </g>
     </g>
    </g>
    <g id="xtick_7">
     <g id="line2d_15">
      <g>
       <use style="stroke:#000000;stroke-width:0.5;" x="1343.70901276" xlink:href="#m278f057360" y="648.0"/>
      </g>
     </g>
     <g id="line2d_16">
      <g>
       <use style="stroke:#000000;stroke-width:0.5;" x="1343.70901276" xlink:href="#m751a7c1334" y="72.0"/>
      </g>
     </g>
     <g id="text_7">
      <!-- Aug 14 2011 -->
      <g transform="translate(1305.27432526 661.118125)scale(0.12 -0.12)">
       <use xlink:href="#BitstreamVeraSans-Roman-41"/>
       <use x="68.408203125" xlink:href="#BitstreamVeraSans-Roman-75"/>
       <use x="131.787109375" xlink:href="#BitstreamVeraSans-Roman-67"/>
       <use x="195.263671875" xlink:href="#BitstreamVeraSans-Roman-20"/>
       <use x="227.05078125" xlink:href="#BitstreamVeraSans-Roman-31"/>
       <use x="290.673828125" xlink:href="#BitstreamVeraSans-Roman-34"/>
       <use x="354.296875" xlink:href="#BitstreamVeraSans-Roman-20"/>
       <use x="386.083984375" xlink:href="#BitstreamVeraSans-Roman-32"/>
       <use x="449.70703125" xlink:href="#BitstreamVeraSans-Roman-30"/>
       <use x="513.330078125" xlink:href="#BitstreamVeraSans-Roman-31"/>
       <use x="576.953125" xlink:href="#BitstreamVeraSans-Roman-31"/>
      </g>
     </g>
    </g>
    <g id="xtick_8">
     <g id="line2d_17">
      <g>
       <use style="stroke:#000000;stroke-width:0.5;" x="1514.56684994" xlink:href="#m278f057360" y="648.0"/>
      </g>
     </g>
     <g id="line2d_18">
      <g>
       <use style="stroke:#000000;stroke-width:0.5;" x="1514.56684994" xlink:href="#m751a7c1334" y="72.0"/>
      </g>
     </g>
     <g id="text_8">
      <!-- Aug 21 2011 -->
      <g transform="translate(1476.13216244 661.118125)scale(0.12 -0.12)">
       <use xlink:href="#BitstreamVeraSans-Roman-41"/>
       <use x="68.408203125" xlink:href="#BitstreamVeraSans-Roman-75"/>
       <use x="131.787109375" xlink:href="#BitstreamVeraSans-Roman-67"/>
       <use x="195.263671875" xlink:href="#BitstreamVeraSans-Roman-20"/>
       <use x="227.05078125" xlink:href="#BitstreamVeraSans-Roman-32"/>
       <use x="290.673828125" xlink:href="#BitstreamVeraSans-Roman-31"/>
       <use x="354.296875" xlink:href="#BitstreamVeraSans-Roman-20"/>
       <use x="386.083984375" xlink:href="#BitstreamVeraSans-Roman-32"/>
       <use x="449.70703125" xlink:href="#BitstreamVeraSans-Roman-30"/>
       <use x="513.330078125" xlink:href="#BitstreamVeraSans-Roman-31"/>
       <use x="576.953125" xlink:href="#BitstreamVeraSans-Roman-31"/>
      </g>
     </g>
    </g>
    <g id="xtick_9">
     <g id="line2d_19">
      <g>
       <use style="stroke:#000000;stroke-width:0.5;" x="1685.42468712" xlink:href="#m278f057360" y="648.0"/>
      </g>
     </g>
     <g id="line2d_20">
      <g>
       <use style="stroke:#000000;stroke-width:0.5;" x="1685.42468712" xlink:href="#m751a7c1334" y="72.0"/>
      </g>
     </g>
     <g id="text_9">
      <!-- Aug 28 2011 -->
      <defs>
       <path d="M 31.78125 34.625 
Q 24.75 34.625 20.71875 30.859375 
Q 16.703125 27.09375 16.703125 20.515625 
Q 16.703125 13.921875 20.71875 10.15625 
Q 24.75 6.390625 31.78125 6.390625 
Q 38.8125 6.390625 42.859375 10.171875 
Q 46.921875 13.96875 46.921875 20.515625 
Q 46.921875 27.09375 42.890625 30.859375 
Q 38.875 34.625 31.78125 34.625 
M 21.921875 38.8125 
Q 15.578125 40.375 12.03125 44.71875 
Q 8.5 49.078125 8.5 55.328125 
Q 8.5 64.0625 14.71875 69.140625 
Q 20.953125 74.21875 31.78125 74.21875 
Q 42.671875 74.21875 48.875 69.140625 
Q 55.078125 64.0625 55.078125 55.328125 
Q 55.078125 49.078125 51.53125 44.71875 
Q 48 40.375 41.703125 38.8125 
Q 48.828125 37.15625 52.796875 32.3125 
Q 56.78125 27.484375 56.78125 20.515625 
Q 56.78125 9.90625 50.3125 4.234375 
Q 43.84375 -1.421875 31.78125 -1.421875 
Q 19.734375 -1.421875 13.25 4.234375 
Q 6.78125 9.90625 6.78125 20.515625 
Q 6.78125 27.484375 10.78125 32.3125 
Q 14.796875 37.15625 21.921875 38.8125 
M 18.3125 54.390625 
Q 18.3125 48.734375 21.84375 45.5625 
Q 25.390625 42.390625 31.78125 42.390625 
Q 38.140625 42.390625 41.71875 45.5625 
Q 45.3125 48.734375 45.3125 54.390625 
Q 45.3125 60.0625 41.71875 63.234375 
Q 38.140625 66.40625 31.78125 66.40625 
Q 25.390625 66.40625 21.84375 63.234375 
Q 18.3125 60.0625 18.3125 54.390625 
" id="BitstreamVeraSans-Roman-38"/>
      </defs>
      <g transform="translate(1646.98999962 661.118125)scale(0.12 -0.12)">
       <use xlink:href="#BitstreamVeraSans-Roman-41"/>
       <use x="68.408203125" xlink:href="#BitstreamVeraSans-Roman-75"/>
       <use x="131.787109375" xlink:href="#BitstreamVeraSans-Roman-67"/>
       <use x="195.263671875" xlink:href="#BitstreamVeraSans-Roman-20"/>
       <use x="227.05078125" xlink:href="#BitstreamVeraSans-Roman-32"/>
       <use x="290.673828125" xlink:href="#BitstreamVeraSans-Roman-38"/>
       <use x="354.296875" xlink:href="#BitstreamVeraSans-Roman-20"/>
       <use x="386.083984375" xlink:href="#BitstreamVeraSans-Roman-32"/>
       <use x="449.70703125" xlink:href="#BitstreamVeraSans-Roman-30"/>
       <use x="513.330078125" xlink:href="#BitstreamVeraSans-Roman-31"/>
       <use x="576.953125" xlink:href="#BitstreamVeraSans-Roman-31"/>
      </g>
     </g>
    </g>
    <g id="xtick_10">
     <g id="line2d_21">
      <g>
       <use style="stroke:#000000;stroke-width:0.5;" x="1856.2825243" xlink:href="#m278f057360" y="648.0"/>
      </g>
     </g>
     <g id="line2d_22">
      <g>
       <use style="stroke:#000000;stroke-width:0.5;" x="1856.2825243" xlink:href="#m751a7c1334" y="72.0"/>
      </g>
     </g>
     <g id="text_10">
      <!-- Sep 04 2011 -->
      <defs>
       <path d="M 56.203125 29.59375 
L 56.203125 25.203125 
L 14.890625 25.203125 
Q 15.484375 15.921875 20.484375 11.0625 
Q 25.484375 6.203125 34.421875 6.203125 
Q 39.59375 6.203125 44.453125 7.46875 
Q 49.3125 8.734375 54.109375 11.28125 
L 54.109375 2.78125 
Q 49.265625 0.734375 44.1875 -0.34375 
Q 39.109375 -1.421875 33.890625 -1.421875 
Q 20.796875 -1.421875 13.15625 6.1875 
Q 5.515625 13.8125 5.515625 26.8125 
Q 5.515625 40.234375 12.765625 48.109375 
Q 20.015625 56 32.328125 56 
Q 43.359375 56 49.78125 48.890625 
Q 56.203125 41.796875 56.203125 29.59375 
M 47.21875 32.234375 
Q 47.125 39.59375 43.09375 43.984375 
Q 39.0625 48.390625 32.421875 48.390625 
Q 24.90625 48.390625 20.390625 44.140625 
Q 15.875 39.890625 15.1875 32.171875 
z
" id="BitstreamVeraSans-Roman-65"/>
       <path d="M 53.515625 70.515625 
L 53.515625 60.890625 
Q 47.90625 63.578125 42.921875 64.890625 
Q 37.9375 66.21875 33.296875 66.21875 
Q 25.25 66.21875 20.875 63.09375 
Q 16.5 59.96875 16.5 54.203125 
Q 16.5 49.359375 19.40625 46.890625 
Q 22.3125 44.4375 30.421875 42.921875 
L 36.375 41.703125 
Q 47.40625 39.59375 52.65625 34.296875 
Q 57.90625 29 57.90625 20.125 
Q 57.90625 9.515625 50.796875 4.046875 
Q 43.703125 -1.421875 29.984375 -1.421875 
Q 24.8125 -1.421875 18.96875 -0.25 
Q 13.140625 0.921875 6.890625 3.21875 
L 6.890625 13.375 
Q 12.890625 10.015625 18.65625 8.296875 
Q 24.421875 6.59375 29.984375 6.59375 
Q 38.421875 6.59375 43.015625 9.90625 
Q 47.609375 13.234375 47.609375 19.390625 
Q 47.609375 24.75 44.3125 27.78125 
Q 41.015625 30.8125 33.5 32.328125 
L 27.484375 33.5 
Q 16.453125 35.6875 11.515625 40.375 
Q 6.59375 45.0625 6.59375 53.421875 
Q 6.59375 63.09375 13.40625 68.65625 
Q 20.21875 74.21875 32.171875 74.21875 
Q 37.3125 74.21875 42.625 73.28125 
Q 47.953125 72.359375 53.515625 70.515625 
" id="BitstreamVeraSans-Roman-53"/>
       <path d="M 18.109375 8.203125 
L 18.109375 -20.796875 
L 9.078125 -20.796875 
L 9.078125 54.6875 
L 18.109375 54.6875 
L 18.109375 46.390625 
Q 20.953125 51.265625 25.265625 53.625 
Q 29.59375 56 35.59375 56 
Q 45.5625 56 51.78125 48.09375 
Q 58.015625 40.1875 58.015625 27.296875 
Q 58.015625 14.40625 51.78125 6.484375 
Q 45.5625 -1.421875 35.59375 -1.421875 
Q 29.59375 -1.421875 25.265625 0.953125 
Q 20.953125 3.328125 18.109375 8.203125 
M 48.6875 27.296875 
Q 48.6875 37.203125 44.609375 42.84375 
Q 40.53125 48.484375 33.40625 48.484375 
Q 26.265625 48.484375 22.1875 42.84375 
Q 18.109375 37.203125 18.109375 27.296875 
Q 18.109375 17.390625 22.1875 11.75 
Q 26.265625 6.109375 33.40625 6.109375 
Q 40.53125 6.109375 44.609375 11.75 
Q 48.6875 17.390625 48.6875 27.296875 
" id="BitstreamVeraSans-Roman-70"/>
      </defs>
      <g transform="translate(1818.2537743 661.118125)scale(0.12 -0.12)">
       <use xlink:href="#BitstreamVeraSans-Roman-53"/>
       <use x="63.4765625" xlink:href="#BitstreamVeraSans-Roman-65"/>
       <use x="125.0" xlink:href="#BitstreamVeraSans-Roman-70"/>
       <use x="188.4765625" xlink:href="#BitstreamVeraSans-Roman-20"/>
       <use x="220.263671875" xlink:href="#BitstreamVeraSans-Roman-30"/>
       <use x="283.88671875" xlink:href="#BitstreamVeraSans-Roman-34"/>
       <use x="347.509765625" xlink:href="#BitstreamVeraSans-Roman-20"/>
       <use x="379.296875" xlink:href="#BitstreamVeraSans-Roman-32"/>
       <use x="442.919921875" xlink:href="#BitstreamVeraSans-Roman-30"/>
       <use x="506.54296875" xlink:href="#BitstreamVeraSans-Roman-31"/>
       <use x="570.166015625" xlink:href="#BitstreamVeraSans-Roman-31"/>
      </g>
     </g>
    </g>
   </g>
   <g id="matplotlib.axis_2">
    <g id="ytick_1">
     <g id="line2d_23">
      <defs>
       <path d="M 0 0 
L 4 0 
" id="m632795af59" style="stroke:#000000;stroke-width:0.5;"/>
      </defs>
      <g>
       <use style="stroke:#000000;stroke-width:0.5;" x="270.0" xlink:href="#m632795af59" y="648.0"/>
      </g>
     </g>
     <g id="line2d_24">
      <defs>
       <path d="M 0 0 
L -4 0 
" id="m3140b1c125" style="stroke:#000000;stroke-width:0.5;"/>
      </defs>
      <g>
       <use style="stroke:#000000;stroke-width:0.5;" x="1944.0" xlink:href="#m3140b1c125" y="648.0"/>
      </g>
     </g>
     <g id="text_11">
      <!-- 0.0 -->
      <defs>
       <path d="M 10.6875 12.40625 
L 21 12.40625 
L 21 0 
L 10.6875 0 
z
" id="BitstreamVeraSans-Roman-2e"/>
      </defs>
      <g transform="translate(246.91625 651.31125)scale(0.12 -0.12)">
       <use xlink:href="#BitstreamVeraSans-Roman-30"/>
       <use x="63.623046875" xlink:href="#BitstreamVeraSans-Roman-2e"/>
       <use x="95.41015625" xlink:href="#BitstreamVeraSans-Roman-30"/>
      </g>
     </g>
    </g>
    <g id="ytick_2">
     <g id="line2d_25">
      <g>
       <use style="stroke:#000000;stroke-width:0.5;" x="270.0" xlink:href="#m632795af59" y="552.0"/>
      </g>
     </g>
     <g id="line2d_26">
      <g>
       <use style="stroke:#000000;stroke-width:0.5;" x="1944.0" xlink:href="#m3140b1c125" y="552.0"/>
      </g>
     </g>
     <g id="text_12">
      <!-- 0.2 -->
      <g transform="translate(246.91625 555.31125)scale(0.12 -0.12)">
       <use xlink:href="#BitstreamVeraSans-Roman-30"/>
       <use x="63.623046875" xlink:href="#BitstreamVeraSans-Roman-2e"/>
       <use x="95.41015625" xlink:href="#BitstreamVeraSans-Roman-32"/>
      </g>
     </g>
    </g>
    <g id="ytick_3">
     <g id="line2d_27">
      <g>
       <use style="stroke:#000000;stroke-width:0.5;" x="270.0" xlink:href="#m632795af59" y="456.0"/>
      </g>
     </g>
     <g id="line2d_28">
      <g>
       <use style="stroke:#000000;stroke-width:0.5;" x="1944.0" xlink:href="#m3140b1c125" y="456.0"/>
      </g>
     </g>
     <g id="text_13">
      <!-- 0.4 -->
      <g transform="translate(246.91625 459.31125)scale(0.12 -0.12)">
       <use xlink:href="#BitstreamVeraSans-Roman-30"/>
       <use x="63.623046875" xlink:href="#BitstreamVeraSans-Roman-2e"/>
       <use x="95.41015625" xlink:href="#BitstreamVeraSans-Roman-34"/>
      </g>
     </g>
    </g>
    <g id="ytick_4">
     <g id="line2d_29">
      <g>
       <use style="stroke:#000000;stroke-width:0.5;" x="270.0" xlink:href="#m632795af59" y="360.0"/>
      </g>
     </g>
     <g id="line2d_30">
      <g>
       <use style="stroke:#000000;stroke-width:0.5;" x="1944.0" xlink:href="#m3140b1c125" y="360.0"/>
      </g>
     </g>
     <g id="text_14">
      <!-- 0.6 -->
      <defs>
       <path d="M 33.015625 40.375 
Q 26.375 40.375 22.484375 35.828125 
Q 18.609375 31.296875 18.609375 23.390625 
Q 18.609375 15.53125 22.484375 10.953125 
Q 26.375 6.390625 33.015625 6.390625 
Q 39.65625 6.390625 43.53125 10.953125 
Q 47.40625 15.53125 47.40625 23.390625 
Q 47.40625 31.296875 43.53125 35.828125 
Q 39.65625 40.375 33.015625 40.375 
M 52.59375 71.296875 
L 52.59375 62.3125 
Q 48.875 64.0625 45.09375 64.984375 
Q 41.3125 65.921875 37.59375 65.921875 
Q 27.828125 65.921875 22.671875 59.328125 
Q 17.53125 52.734375 16.796875 39.40625 
Q 19.671875 43.65625 24.015625 45.921875 
Q 28.375 48.1875 33.59375 48.1875 
Q 44.578125 48.1875 50.953125 41.515625 
Q 57.328125 34.859375 57.328125 23.390625 
Q 57.328125 12.15625 50.6875 5.359375 
Q 44.046875 -1.421875 33.015625 -1.421875 
Q 20.359375 -1.421875 13.671875 8.265625 
Q 6.984375 17.96875 6.984375 36.375 
Q 6.984375 53.65625 15.1875 63.9375 
Q 23.390625 74.21875 37.203125 74.21875 
Q 40.921875 74.21875 44.703125 73.484375 
Q 48.484375 72.75 52.59375 71.296875 
" id="BitstreamVeraSans-Roman-36"/>
      </defs>
      <g transform="translate(246.91625 363.31125)scale(0.12 -0.12)">
       <use xlink:href="#BitstreamVeraSans-Roman-30"/>
       <use x="63.623046875" xlink:href="#BitstreamVeraSans-Roman-2e"/>
       <use x="95.41015625" xlink:href="#BitstreamVeraSans-Roman-36"/>
      </g>
     </g>
    </g>
    <g id="ytick_5">
     <g id="line2d_31">
      <g>
       <use style="stroke:#000000;stroke-width:0.5;" x="270.0" xlink:href="#m632795af59" y="264.0"/>
      </g>
     </g>
     <g id="line2d_32">
      <g>
       <use style="stroke:#000000;stroke-width:0.5;" x="1944.0" xlink:href="#m3140b1c125" y="264.0"/>
      </g>
     </g>
     <g id="text_15">
      <!-- 0.8 -->
      <g transform="translate(246.91625 267.31125)scale(0.12 -0.12)">
       <use xlink:href="#BitstreamVeraSans-Roman-30"/>
       <use x="63.623046875" xlink:href="#BitstreamVeraSans-Roman-2e"/>
       <use x="95.41015625" xlink:href="#BitstreamVeraSans-Roman-38"/>
      </g>
     </g>
    </g>
    <g id="ytick_6">
     <g id="line2d_33">
      <g>
       <use style="stroke:#000000;stroke-width:0.5;" x="270.0" xlink:href="#m632795af59" y="168.0"/>
      </g>
     </g>
     <g id="line2d_34">
      <g>
       <use style="stroke:#000000;stroke-width:0.5;" x="1944.0" xlink:href="#m3140b1c125" y="168.0"/>
      </g>
     </g>
     <g id="text_16">
      <!-- 1.0 -->
      <g transform="translate(246.91625 171.31125)scale(0.12 -0.12)">
       <use xlink:href="#BitstreamVeraSans-Roman-31"/>
       <use x="63.623046875" xlink:href="#BitstreamVeraSans-Roman-2e"/>
       <use x="95.41015625" xlink:href="#BitstreamVeraSans-Roman-30"/>
      </g>
     </g>
    </g>
    <g id="ytick_7">
     <g id="line2d_35">
      <g>
       <use style="stroke:#000000;stroke-width:0.5;" x="270.0" xlink:href="#m632795af59" y="72.0"/>
      </g>
     </g>
     <g id="line2d_36">
      <g>
       <use style="stroke:#000000;stroke-width:0.5;" x="1944.0" xlink:href="#m3140b1c125" y="72.0"/>
      </g>
     </g>
     <g id="text_17">
      <!-- 1.2 -->
      <g transform="translate(246.91625 75.31125)scale(0.12 -0.12)">
       <use xlink:href="#BitstreamVeraSans-Roman-31"/>
       <use x="63.623046875" xlink:href="#BitstreamVeraSans-Roman-2e"/>
       <use x="95.41015625" xlink:href="#BitstreamVeraSans-Roman-32"/>
      </g>
     </g>
    </g>
   </g>
  </g>
 </g>
 <defs>
  <clipPath id="p9556ae2e0a">
   <rect height="576.0" width="1674.0" x="270.0" y="72.0"/>
  </clipPath>
 </defs>
</svg>
