<?xml version="1.0" encoding="utf-8" standalone="no"?>
<!DOCTYPE svg PUBLIC "-//W3C//DTD SVG 1.1//EN"
  "http://www.w3.org/Graphics/SVG/1.1/DTD/svg11.dtd">
<!-- Created with matplotlib (http://matplotlib.org/) -->
<svg height="720pt" version="1.1" viewBox="0 0 2160 720" width="2160pt" xmlns="http://www.w3.org/2000/svg" xmlns:xlink="http://www.w3.org/1999/xlink">
 <defs>
  <style type="text/css">
*{stroke-linecap:butt;stroke-linejoin:round;stroke-miterlimit:100000;}
  </style>
 </defs>
 <g id="figure_1">
  <g id="patch_1">
   <path d="M 0 720 
L 2160 720 
L 2160 0 
L 0 0 
z
" style="fill:#ffffff;"/>
  </g>
  <g id="axes_1">
   <g id="patch_2">
    <path d="M 270 648 
L 1944 648 
L 1944 72 
L 270 72 
z
" style="fill:#ffffff;"/>
   </g>
   <g id="line2d_1">
    <path clip-path="url(#pd7ab6210e3)" d="M 270 609.079437 
L 271.017011 606.339717 
L 272.034022 610.63032 
L 273.051033 612.662544 
L 274.068044 612.937495 
L 276.102066 617.217598 
L 277.119077 616.41608 
L 278.136087 616.231793 
L 279.153098 609.891006 
L 280.170109 605.426725 
L 281.18712 584.408441 
L 282.204131 580.083808 
L 283.221142 590.67249 
L 284.238153 590.387791 
L 286.272175 602.959194 
L 287.289186 599.476174 
L 288.306197 604.45667 
L 289.323208 592.336592 
L 290.340219 558.814215 
L 291.35723 601.730955 
L 292.374241 494.921365 
L 293.391252 357.996705 
L 294.408262 376.814495 
L 295.425273 550.405959 
L 296.442284 595.15962 
L 297.459295 581.77328 
L 298.476306 586.234122 
L 299.493317 590.080281 
L 300.510328 590.304252 
L 301.527339 586.088846 
L 302.54435 588.489957 
L 303.561361 579.70456 
L 304.578372 568.988862 
L 305.595383 553.665589 
L 306.612394 473.089108 
L 307.629405 508.424469 
L 308.646416 519.640683 
L 309.663426 543.636751 
L 310.680437 560.476512 
L 311.697448 570.891629 
L 312.714459 540.551825 
L 313.73147 576.213405 
L 314.748481 571.201031 
L 315.765492 574.465186 
L 316.782503 580.228942 
L 317.799514 508.426934 
L 318.816525 514.653972 
L 319.833536 559.119919 
L 320.850547 568.184129 
L 321.867558 601.630151 
L 322.884569 581.423973 
L 323.90158 582.706885 
L 324.918591 581.13534 
L 325.935601 576.76631 
L 326.952612 579.529046 
L 327.969623 575.284453 
L 328.986634 555.55158 
L 330.003645 486.506772 
L 331.020656 448.784612 
L 332.037667 460.825896 
L 333.054678 514.647577 
L 334.071689 540.762166 
L 335.0887 551.649152 
L 336.105711 555.904582 
L 337.122722 567.831943 
L 338.139733 569.796095 
L 339.156744 568.539224 
L 340.173755 563.243705 
L 341.190765 552.228142 
L 342.207776 480.347194 
L 343.224787 510.472984 
L 344.241798 557.40433 
L 345.258809 594.370212 
L 346.27582 579.295375 
L 347.292831 577.670736 
L 348.309842 586.478592 
L 349.326853 588.153614 
L 350.343864 583.283342 
L 351.360875 573.020572 
L 352.377886 582.28626 
L 353.394897 561.68561 
L 354.411908 490.816083 
L 355.428919 480.42514 
L 356.44593 458.246936 
L 357.46294 495.50697 
L 358.479951 547.448076 
L 359.496962 582.837832 
L 360.513973 590.149332 
L 361.530984 593.200305 
L 362.547995 595.196345 
L 363.565006 590.889895 
L 364.582017 592.109896 
L 365.599028 583.116411 
L 366.616039 546.417704 
L 367.63305 543.070063 
L 368.650061 588.558208 
L 369.667072 595.563199 
L 370.684083 605.826601 
L 371.701094 603.367217 
L 372.718104 604.075008 
L 373.735115 607.090876 
L 374.752126 603.539818 
L 375.769137 602.80433 
L 376.786148 605.946265 
L 377.803159 575.959203 
L 378.82017 572.422021 
L 379.837181 544.554292 
L 380.854192 552.141852 
L 381.871203 556.53655 
L 382.888214 580.048387 
L 383.905225 589.185415 
L 384.922236 592.061013 
L 385.939247 585.519845 
L 386.956258 588.784514 
L 387.973269 591.49913 
L 388.990279 597.520537 
L 390.00729 592.2727 
L 391.024301 566.377268 
L 392.041312 552.988889 
L 393.058323 595.962264 
L 394.075334 607.904383 
L 395.092345 606.936056 
L 396.109356 606.794908 
L 397.126367 608.919926 
L 398.143378 607.682546 
L 400.1774 607.721097 
L 401.194411 595.958486 
L 402.211422 597.789239 
L 403.228433 565.362117 
L 404.245443 548.318691 
L 405.262454 549.353789 
L 406.279465 578.211288 
L 407.296476 581.021565 
L 408.313487 589.139668 
L 409.330498 591.424086 
L 410.347509 580.310663 
L 411.36452 582.334186 
L 412.381531 604.44244 
L 413.398542 581.825344 
L 414.415553 593.342824 
L 415.432564 591.010658 
L 416.449575 600.458592 
L 417.466586 596.829672 
L 418.483597 598.678222 
L 421.534629 601.477445 
L 422.55164 612.204954 
L 423.568651 592.317608 
L 424.585662 604.985502 
L 425.602673 589.116986 
L 426.619684 588.627114 
L 427.636695 567.544411 
L 428.653706 527.370424 
L 429.670717 537.837442 
L 430.687728 550.479701 
L 431.704739 560.297132 
L 432.72175 588.642781 
L 433.738761 574.689948 
L 434.755772 574.597875 
L 435.772783 531.073152 
L 436.789793 550.564755 
L 437.806804 549.016949 
L 438.823815 563.846541 
L 439.840826 594.918328 
L 440.857837 600.431628 
L 441.874848 566.60735 
L 442.891859 586.248875 
L 446.959903 580.166141 
L 450.010936 582.590417 
L 451.027947 591.297967 
L 455.09599 528.590368 
L 457.130012 399.112304 
L 458.147023 517.992579 
L 459.164034 580.717791 
L 460.181045 554.855623 
L 461.198056 534.657846 
L 462.215067 547.519724 
L 463.232078 542.795493 
L 464.249089 552.972765 
L 474.419198 578.617897 
L 480.521264 583.410202 
L 482.555286 577.853336 
L 483.572296 541.766728 
L 484.589307 556.691839 
L 485.606318 564.851808 
L 486.623329 569.085889 
L 487.64034 548.979915 
L 488.657351 536.117172 
L 489.674362 546.642197 
L 490.691373 558.358082 
L 491.708384 566.177101 
L 492.725395 594.011881 
L 493.742406 581.734557 
L 494.759417 584.488582 
L 495.776428 582.363956 
L 496.793439 591.81386 
L 497.81045 578.320918 
L 498.827461 545.713737 
L 499.844471 570.019568 
L 500.861482 537.588273 
L 501.878493 464.564138 
L 502.895504 465.76919 
L 503.912515 493.759706 
L 504.929526 516.572948 
L 505.946537 529.402429 
L 506.963548 523.19523 
L 507.980559 549.149721 
L 508.99757 558.476501 
L 510.014581 558.538899 
L 511.031592 565.101695 
L 512.048603 552.792463 
L 514.082625 576.192149 
L 515.099635 566.382384 
L 516.116646 585.165437 
L 517.133657 578.046775 
L 518.150668 581.757901 
L 519.167679 580.97154 
L 520.18469 586.72504 
L 521.201701 583.512282 
L 522.218712 586.429422 
L 523.235723 591.498253 
L 524.252734 553.990089 
L 525.269745 452.186468 
L 526.286756 510.317171 
L 527.303767 503.04592 
L 528.320778 514.390425 
L 529.337789 541.693886 
L 530.3548 552.217947 
L 531.37181 567.502429 
L 532.388821 591.213901 
L 533.405832 597.771768 
L 534.422843 599.288276 
L 535.439854 596.273215 
L 536.456865 596.435869 
L 537.473876 592.798651 
L 538.490887 606.250288 
L 539.507898 593.426567 
L 540.524909 592.669317 
L 541.54192 594.080083 
L 542.558931 599.35903 
L 543.575942 596.832762 
L 544.592953 596.769921 
L 545.609964 595.838919 
L 546.626974 587.142058 
L 547.643985 583.353325 
L 548.660996 583.671821 
L 549.678007 580.538898 
L 550.695018 552.426366 
L 551.712029 535.750525 
L 552.72904 550.646469 
L 553.746051 552.322785 
L 554.763062 582.794363 
L 555.780073 575.218536 
L 556.797084 574.657804 
L 557.814095 579.967886 
L 558.831106 579.407038 
L 559.848117 574.814828 
L 560.865128 580.501833 
L 561.882139 580.048651 
L 562.899149 592.636301 
L 563.91616 582.770453 
L 564.933171 594.490598 
L 565.950182 596.987324 
L 566.967193 597.153197 
L 567.984204 598.102355 
L 569.001215 598.784407 
L 570.018226 594.663213 
L 571.035237 585.012959 
L 572.052248 572.353645 
L 573.069259 581.511624 
L 574.08627 558.212822 
L 575.103281 544.411083 
L 576.120292 526.514506 
L 577.137303 575.220217 
L 578.154313 565.318739 
L 579.171324 569.378895 
L 580.188335 572.941083 
L 581.205346 575.606596 
L 582.222357 577.446324 
L 583.239368 581.708066 
L 584.256379 577.936253 
L 585.27339 575.998612 
L 586.290401 572.293095 
L 587.307412 590.460336 
L 588.324423 588.659327 
L 589.341434 600.707315 
L 590.358445 606.337445 
L 591.375456 609.415236 
L 592.392467 610.458203 
L 593.409478 610.165606 
L 594.426488 608.172395 
L 595.443499 603.913731 
L 596.46051 594.758944 
L 597.477521 591.701046 
L 598.494532 573.661428 
L 599.511543 543.192768 
L 600.528554 549.871574 
L 601.545565 558.969333 
L 602.562576 575.194952 
L 603.579587 587.676454 
L 604.596598 588.395972 
L 605.613609 590.445947 
L 606.63062 593.118274 
L 607.647631 594.821957 
L 608.664642 592.003196 
L 609.681652 595.396812 
L 610.698663 591.928509 
L 611.715674 602.809878 
L 612.732685 589.086263 
L 613.749696 599.992775 
L 614.766707 603.27885 
L 615.783718 608.616733 
L 616.800729 610.791572 
L 617.81774 607.268149 
L 618.834751 607.70775 
L 619.851762 600.89658 
L 620.868773 592.368148 
L 622.902795 582.905418 
L 623.919806 558.956749 
L 624.936817 552.029363 
L 625.953827 584.038251 
L 626.970838 581.034615 
L 627.987849 586.444436 
L 629.00486 587.190977 
L 630.021871 592.12448 
L 631.038882 593.941073 
L 632.055893 597.409904 
L 633.072904 597.28532 
L 634.089915 602.378825 
L 635.106926 605.019894 
L 636.123937 592.977501 
L 637.140948 584.590031 
L 638.157959 585.248742 
L 639.17497 596.154749 
L 640.191981 598.485795 
L 641.208991 606.789696 
L 642.226002 608.871358 
L 643.243013 607.539259 
L 644.260024 597.116348 
L 645.277035 592.386875 
L 646.294046 574.051617 
L 647.311057 570.379086 
L 648.328068 567.190448 
L 649.345079 538.178062 
L 650.36209 581.461349 
L 651.379101 574.542363 
L 653.413123 590.405568 
L 654.430134 592.599527 
L 655.447145 589.219895 
L 658.498177 594.728116 
L 659.515188 594.425798 
L 660.532199 595.021326 
L 661.54921 589.048696 
L 662.566221 589.045919 
L 663.583232 595.392263 
L 664.600243 597.84276 
L 665.617254 604.988382 
L 666.634265 607.427042 
L 667.651276 604.859204 
L 668.668287 601.262216 
L 669.685298 594.859167 
L 670.702309 575.82172 
L 671.71932 575.743959 
L 672.73633 558.802411 
L 673.753341 531.986245 
L 674.770352 573.153431 
L 675.787363 567.13436 
L 676.804374 584.562021 
L 678.838396 595.647448 
L 679.855407 594.86074 
L 680.872418 595.317665 
L 681.889429 596.317624 
L 683.923451 596.679074 
L 684.940462 598.823199 
L 685.957473 593.642711 
L 686.974484 597.837753 
L 687.991495 602.770535 
L 690.025516 610.651947 
L 691.042527 611.217434 
L 692.059538 606.561023 
L 693.076549 604.724179 
L 694.09356 592.393981 
L 695.110571 588.522543 
L 696.127582 578.555695 
L 697.144593 550.557686 
L 698.161604 566.758235 
L 699.178615 567.424504 
L 700.195626 578.365762 
L 701.212637 578.484293 
L 702.229648 585.503416 
L 703.246659 590.142369 
L 704.263669 591.71932 
L 705.28068 593.956463 
L 706.297691 598.557394 
L 707.314702 598.494317 
L 708.331713 597.986247 
L 709.348724 605.377861 
L 710.365735 588.797889 
L 711.382746 595.860871 
L 712.399757 604.466637 
L 713.416768 607.529397 
L 714.433779 614.01261 
L 715.45079 615.508345 
L 716.467801 608.55324 
L 717.484812 605.031002 
L 718.501823 594.32304 
L 719.518834 578.916306 
L 720.535844 574.349119 
L 721.552855 557.539726 
L 722.569866 551.689121 
L 724.603888 577.551618 
L 726.63791 599.100457 
L 727.654921 596.226627 
L 728.671932 599.381239 
L 729.688943 601.138461 
L 730.705954 606.065841 
L 731.722965 602.270265 
L 732.739976 604.039738 
L 733.756987 606.76031 
L 734.773998 593.808176 
L 735.791009 599.083722 
L 736.808019 603.532419 
L 737.82503 608.921085 
L 738.842041 613.549171 
L 739.859052 612.125065 
L 740.876063 605.836319 
L 741.893074 608.129408 
L 742.910085 595.903023 
L 743.927096 592.719683 
L 744.944107 581.39998 
L 745.961118 555.969631 
L 746.978129 554.031529 
L 747.99514 566.653861 
L 749.012151 584.42103 
L 750.029162 592.001461 
L 751.046173 596.758382 
L 752.063183 596.649896 
L 753.080194 600.533259 
L 754.097205 602.61796 
L 755.114216 601.855386 
L 756.131227 607.382637 
L 757.148238 601.314465 
L 758.165249 607.481624 
L 759.18226 598.080256 
L 760.199271 599.66761 
L 762.233293 611.124206 
L 763.250304 613.203675 
L 764.267315 613.181167 
L 765.284326 611.293706 
L 766.301337 608.730751 
L 767.318348 597.155944 
L 768.335358 592.776539 
L 769.352369 591.4752 
L 770.36938 566.613657 
L 771.386391 572.031299 
L 772.403402 561.939292 
L 773.420413 584.137827 
L 774.437424 590.999178 
L 775.454435 593.338785 
L 776.471446 587.106815 
L 780.53949 601.302622 
L 782.573512 607.431178 
L 783.590522 601.256322 
L 784.607533 603.133751 
L 785.624544 606.301149 
L 786.641555 610.875451 
L 787.658566 612.52756 
L 788.675577 609.830836 
L 790.709599 607.354255 
L 791.72661 600.850486 
L 792.743621 603.012363 
L 793.760632 592.266805 
L 794.777643 567.95009 
L 795.794654 561.967461 
L 796.811665 574.298804 
L 797.828676 594.03937 
L 798.845687 589.862567 
L 799.862697 602.481146 
L 800.879708 597.335521 
L 801.896719 593.218218 
L 802.91373 601.237126 
L 803.930741 605.141501 
L 804.947752 600.611559 
L 805.964763 608.015094 
L 810.032807 602.743141 
L 812.066829 606.773691 
L 813.08384 606.502528 
L 814.100851 604.394084 
L 815.117861 610.174278 
L 818.168894 597.649022 
L 819.185905 587.094434 
L 820.202916 547.974606 
L 821.219927 561.574841 
L 822.236938 571.015169 
L 823.253949 584.209098 
L 824.27096 576.293864 
L 825.287971 591.906614 
L 826.304982 595.098999 
L 827.321993 596.199453 
L 828.339004 603.94769 
L 829.356015 599.19437 
L 830.373026 604.304016 
L 831.390036 613.959163 
L 832.407047 566.62583 
L 833.424058 588.169644 
L 834.441069 604.327152 
L 835.45808 610.728933 
L 836.475091 613.228336 
L 837.492102 610.883346 
L 838.509113 606.458836 
L 839.526124 603.472715 
L 840.543135 594.364106 
L 841.560146 596.447121 
L 842.577157 583.819613 
L 843.594168 551.921569 
L 844.611179 563.977299 
L 845.62819 557.677605 
L 846.6452 597.272477 
L 847.662211 585.150069 
L 849.696233 598.626842 
L 850.713244 603.654818 
L 851.730255 607.413888 
L 852.747266 608.469284 
L 853.764277 607.400792 
L 854.781288 612.09798 
L 855.798299 610.340344 
L 856.81531 588.001999 
L 857.832321 603.142608 
L 858.849332 600.831169 
L 859.866343 611.431835 
L 860.883354 615.76159 
L 861.900365 610.007331 
L 862.917375 610.649424 
L 863.934386 609.415782 
L 864.951397 594.230589 
L 865.968408 587.301275 
L 866.985419 575.524157 
L 868.00243 556.21525 
L 869.019441 552.661425 
L 870.036452 561.856757 
L 871.053463 582.926417 
L 873.087485 594.782423 
L 874.104496 604.232213 
L 875.121507 603.418912 
L 876.138518 609.459388 
L 877.155529 613.441096 
L 878.172539 609.281678 
L 879.18955 609.946152 
L 880.206561 614.800388 
L 881.223572 603.955574 
L 882.240583 602.037715 
L 883.257594 609.709373 
L 884.274605 604.953515 
L 885.291616 616.948759 
L 886.308627 612.911474 
L 887.325638 610.165609 
L 888.342649 605.568198 
L 889.35966 597.609566 
L 890.376671 581.584548 
L 891.393682 571.538334 
L 892.410693 567.020408 
L 893.427704 565.327244 
L 894.444714 564.742641 
L 895.461725 596.049824 
L 896.478736 588.437101 
L 897.495747 597.528179 
L 899.529769 601.454149 
L 900.54678 601.514338 
L 901.563791 609.922692 
L 902.580802 607.455289 
L 903.597813 614.605207 
L 904.614824 613.85748 
L 905.631835 602.609315 
L 906.648846 607.233513 
L 909.699878 612.519296 
L 910.716889 615.170359 
L 911.7339 611.033097 
L 912.750911 604.834712 
L 913.767922 601.437686 
L 914.784933 599.627473 
L 915.801944 585.611955 
L 916.818955 561.557299 
L 917.835966 559.506042 
L 918.852977 571.270326 
L 919.869988 593.577036 
L 920.886999 591.128497 
L 921.90401 602.293702 
L 922.921021 600.778793 
L 923.938032 602.393132 
L 924.955043 605.060722 
L 925.972053 602.01645 
L 926.989064 605.45577 
L 928.006075 613.212139 
L 929.023086 614.07635 
L 930.040097 599.971369 
L 931.057108 604.441411 
L 932.074119 605.288564 
L 934.108141 615.708278 
L 935.125152 613.74167 
L 936.142163 599.887616 
L 937.159174 607.755779 
L 938.176185 589.80459 
L 939.193196 589.182212 
L 940.210207 566.473498 
L 941.227217 533.396982 
L 942.244228 581.40203 
L 943.261239 568.26293 
L 944.27825 586.320311 
L 945.295261 595.251742 
L 946.312272 602.716204 
L 947.329283 597.738422 
L 948.346294 603.825279 
L 949.363305 601.444233 
L 950.380316 598.4861 
L 951.397327 604.964726 
L 952.414338 606.657737 
L 953.431349 606.867386 
L 954.44836 599.631875 
L 955.465371 601.047945 
L 956.482382 606.679208 
L 957.499392 607.539867 
L 958.516403 611.344933 
L 959.533414 608.235236 
L 960.550425 606.776751 
L 961.567436 596.52888 
L 962.584447 578.586886 
L 963.601458 571.558407 
L 964.618469 548.641545 
L 965.63548 542.33119 
L 966.652491 553.840807 
L 967.669502 551.797953 
L 968.686513 577.448479 
L 969.703524 575.384362 
L 970.720535 590.575582 
L 971.737546 583.298301 
L 972.754556 585.623614 
L 973.771567 591.107383 
L 974.788578 584.648168 
L 975.805589 587.848188 
L 976.8226 592.424148 
L 977.839611 589.566044 
L 978.856622 583.603205 
L 979.873633 586.554184 
L 980.890644 584.673263 
L 981.907655 602.374287 
L 982.924666 598.756846 
L 983.941677 597.656078 
L 984.958688 592.889683 
L 985.975699 593.40173 
L 986.99271 586.130623 
L 988.009721 594.252299 
L 989.026731 554.88443 
L 990.043742 545.144806 
L 991.060753 549.026886 
L 992.077764 558.046546 
L 993.094775 569.364472 
L 995.128797 596.62921 
L 998.17983 592.667713 
L 999.196841 594.861147 
L 1000.213852 597.721811 
L 1001.230863 598.378717 
L 1002.247874 605.827747 
L 1003.264885 585.754536 
L 1004.281896 592.139491 
L 1006.315917 597.204647 
L 1007.332928 601.38853 
L 1009.36695 598.598392 
L 1010.383961 596.772357 
L 1011.400972 582.527577 
L 1012.417983 587.44173 
L 1013.434994 566.258554 
L 1014.452005 549.445063 
L 1015.469016 523.259727 
L 1016.486027 561.438785 
L 1017.503038 568.058487 
L 1018.520049 582.918769 
L 1019.53706 587.006927 
L 1020.55407 595.994105 
L 1021.571081 594.492997 
L 1022.588092 589.262994 
L 1023.605103 597.764325 
L 1025.639125 598.237026 
L 1026.656136 600.12209 
L 1029.707169 592.65063 
L 1031.741191 594.788106 
L 1032.758202 602.302957 
L 1033.775213 604.82912 
L 1034.792224 595.032652 
L 1035.809235 575.41487 
L 1036.826245 577.497971 
L 1037.843256 566.739979 
L 1038.860267 534.954494 
L 1039.877278 573.075521 
L 1040.894289 551.095767 
L 1041.9113 569.309302 
L 1042.928311 574.634565 
L 1043.945322 584.343149 
L 1044.962333 585.257818 
L 1046.996355 592.543278 
L 1048.013366 595.691171 
L 1050.047388 596.951872 
L 1051.064399 592.830226 
L 1052.081409 586.973981 
L 1053.09842 591.501095 
L 1054.115431 603.235128 
L 1056.149453 607.02949 
L 1057.166464 606.537094 
L 1058.183475 601.268303 
L 1059.200486 597.992062 
L 1060.217497 587.413159 
L 1061.234508 572.361056 
L 1062.251519 537.502891 
L 1063.26853 513.1476 
L 1064.285541 559.759487 
L 1065.302552 558.692191 
L 1066.319563 560.521616 
L 1067.336574 594.033413 
L 1069.370595 586.076828 
L 1070.387606 585.726168 
L 1071.404617 596.001105 
L 1072.421628 587.611411 
L 1073.438639 580.753211 
L 1074.45565 596.756042 
L 1075.472661 605.717307 
L 1076.489672 578.910343 
L 1077.506683 579.744198 
L 1078.523694 590.881981 
L 1079.540705 604.890674 
L 1081.574727 599.644994 
L 1082.591738 590.390199 
L 1083.608748 594.090918 
L 1084.625759 571.756917 
L 1085.64277 572.575878 
L 1086.659781 538.57724 
L 1087.676792 533.66072 
L 1088.693803 534.862007 
L 1089.710814 575.99571 
L 1090.727825 569.484059 
L 1092.761847 578.616653 
L 1093.778858 591.912585 
L 1094.795869 587.81691 
L 1095.81288 591.970852 
L 1096.829891 586.741872 
L 1097.846902 594.821438 
L 1098.863913 580.962954 
L 1099.880923 591.748564 
L 1100.897934 582.642476 
L 1101.914945 587.149862 
L 1102.931956 569.220066 
L 1103.948967 594.499958 
L 1104.965978 608.188395 
L 1105.982989 597.582652 
L 1107 595.326457 
L 1108.017011 594.586647 
L 1109.034022 583.502168 
L 1110.051033 569.664603 
L 1111.068044 562.178868 
L 1112.085055 543.682289 
L 1113.102066 540.193252 
L 1114.119077 556.794816 
L 1116.153098 579.268737 
L 1117.170109 571.600729 
L 1118.18712 585.827087 
L 1119.204131 594.653014 
L 1120.221142 511.610596 
L 1121.238153 591.142545 
L 1122.255164 593.448596 
L 1123.272175 589.942297 
L 1124.289186 594.715314 
L 1125.306197 582.104683 
L 1126.323208 584.207804 
L 1127.340219 575.828826 
L 1128.35723 596.47604 
L 1129.374241 591.875932 
L 1130.391252 595.820769 
L 1131.408262 595.989259 
L 1132.425273 589.303522 
L 1133.442284 578.211411 
L 1134.459295 570.916539 
L 1135.476306 547.958653 
L 1136.493317 546.437301 
L 1137.510328 537.831281 
L 1139.54435 567.559282 
L 1141.578372 586.574454 
L 1143.612394 583.097786 
L 1144.629405 595.784492 
L 1145.646416 592.579935 
L 1146.663426 595.802804 
L 1147.680437 592.854889 
L 1148.697448 596.477286 
L 1149.714459 578.760732 
L 1150.73147 578.958673 
L 1151.748481 584.16131 
L 1152.765492 583.189648 
L 1153.782503 593.431881 
L 1154.799514 594.168455 
L 1155.816525 591.380722 
L 1156.833536 583.184054 
L 1157.850547 579.462783 
L 1158.867558 578.829576 
L 1159.884569 554.582237 
L 1160.90158 548.054496 
L 1161.918591 542.326533 
L 1163.952612 565.60501 
L 1164.969623 579.047162 
L 1165.986634 585.361658 
L 1167.003645 590.09982 
L 1168.020656 588.865871 
L 1169.037667 598.212742 
L 1170.054678 589.239918 
L 1171.071689 590.006287 
L 1172.0887 598.136657 
L 1173.105711 587.021945 
L 1174.122722 582.136173 
L 1175.139733 589.524603 
L 1176.156744 592.068262 
L 1177.173755 590.551442 
L 1178.190765 594.128836 
L 1180.224787 588.187177 
L 1181.241798 582.01211 
L 1182.258809 584.143905 
L 1183.27582 566.41603 
L 1185.309842 546.994223 
L 1186.326853 504.308626 
L 1187.343864 564.696568 
L 1188.360875 569.315261 
L 1189.377886 576.955756 
L 1190.394897 580.293487 
L 1191.411908 585.749419 
L 1192.428919 594.61478 
L 1193.44593 588.02096 
L 1194.46294 589.882314 
L 1195.479951 593.438507 
L 1196.496962 595.32008 
L 1197.513973 589.782276 
L 1198.530984 585.94769 
L 1199.547995 592.291037 
L 1200.565006 593.67972 
L 1201.582017 593.357822 
L 1202.599028 596.283747 
L 1203.616039 598.678228 
L 1204.63305 594.319525 
L 1205.650061 592.78121 
L 1206.667072 585.317064 
L 1207.684083 576.476267 
L 1208.701094 565.672363 
L 1209.718104 563.946901 
L 1210.735115 565.925624 
L 1211.752126 572.086303 
L 1213.786148 579.576797 
L 1214.803159 588.892821 
L 1215.82017 590.860718 
L 1216.837181 587.066932 
L 1217.854192 595.435124 
L 1218.871203 591.282327 
L 1219.888214 593.214726 
L 1220.905225 596.012715 
L 1221.922236 596.531118 
L 1222.939247 591.653061 
L 1223.956258 590.490238 
L 1224.973269 592.496888 
L 1225.990279 599.825495 
L 1227.00729 598.252698 
L 1228.024301 598.895455 
L 1229.041312 590.680744 
L 1230.058323 590.522048 
L 1231.075334 572.769909 
L 1232.092345 572.292219 
L 1233.109356 565.140648 
L 1234.126367 525.790542 
L 1236.160389 563.132135 
L 1238.194411 578.513716 
L 1239.211422 584.487685 
L 1240.228433 588.70634 
L 1241.245443 587.5297 
L 1242.262454 590.238237 
L 1243.279465 586.055368 
L 1244.296476 591.342147 
L 1245.313487 588.454625 
L 1246.330498 594.318302 
L 1247.347509 591.344498 
L 1248.36452 591.219588 
L 1249.381531 586.332575 
L 1250.398542 598.075271 
L 1251.415553 599.767007 
L 1253.449575 599.401274 
L 1254.466586 595.483709 
L 1255.483597 588.080172 
L 1256.500608 569.138535 
L 1257.517618 555.626897 
L 1258.534629 539.275639 
L 1259.55164 557.179588 
L 1261.585662 553.584984 
L 1264.636695 577.83323 
L 1265.653706 587.980217 
L 1266.670717 577.807624 
L 1267.687728 583.065506 
L 1269.72175 584.592676 
L 1270.738761 594.759337 
L 1271.755772 579.288099 
L 1272.772783 594.964863 
L 1273.789793 589.553418 
L 1274.806804 593.726165 
L 1275.823815 595.621201 
L 1276.840826 597.921487 
L 1277.857837 592.601622 
L 1278.874848 585.665357 
L 1279.891859 574.888278 
L 1280.90887 555.944697 
L 1281.925881 563.613543 
L 1282.942892 549.233746 
L 1284.976914 539.717147 
L 1285.993925 570.586054 
L 1287.010936 552.139572 
L 1288.027947 571.431703 
L 1289.044957 585.226306 
L 1290.061968 583.825017 
L 1291.078979 580.34169 
L 1292.09599 588.656569 
L 1293.113001 580.461823 
L 1294.130012 586.025704 
L 1295.147023 586.428598 
L 1296.164034 580.29284 
L 1297.181045 589.1624 
L 1298.198056 590.820745 
L 1299.215067 609.839497 
L 1300.232078 606.387816 
L 1301.249089 604.546751 
L 1302.2661 594.771201 
L 1303.283111 574.80732 
L 1304.300122 576.63459 
L 1305.317132 528.978681 
L 1306.334143 528.206123 
L 1308.368165 497.302555 
L 1309.385176 522.771966 
L 1310.402187 560.314651 
L 1311.419198 571.466007 
L 1312.436209 591.487619 
L 1313.45322 588.31746 
L 1314.470231 594.065083 
L 1316.504253 591.654072 
L 1317.521264 598.99607 
L 1318.538275 608.456981 
L 1319.555286 601.810496 
L 1320.572296 578.184015 
L 1321.589307 581.496943 
L 1322.606318 589.759769 
L 1323.623329 601.766631 
L 1324.64034 604.587372 
L 1325.657351 599.671303 
L 1326.674362 591.160318 
L 1327.691373 583.637754 
L 1328.708384 572.993018 
L 1329.725395 540.331044 
L 1330.742406 538.117096 
L 1331.759417 422.798287 
L 1332.776428 477.102838 
L 1334.81045 536.309159 
L 1336.844471 570.848073 
L 1337.861482 567.809348 
L 1338.878493 588.856195 
L 1339.895504 595.086004 
L 1340.912515 600.323757 
L 1341.929526 602.720046 
L 1342.946537 585.95975 
L 1343.963548 589.389682 
L 1344.980559 576.916054 
L 1345.99757 583.05762 
L 1347.014581 580.804385 
L 1348.031592 592.139657 
L 1349.048603 592.846356 
L 1350.065614 591.54206 
L 1351.082625 582.448743 
L 1352.099635 580.559678 
L 1353.116646 570.080153 
L 1354.133657 555.920675 
L 1356.167679 521.284556 
L 1357.18469 537.682968 
L 1358.201701 535.297826 
L 1359.218712 560.586374 
L 1360.235723 572.537407 
L 1361.252734 570.278213 
L 1362.269745 575.479887 
L 1363.286756 576.077515 
L 1364.303767 584.105892 
L 1365.320778 578.730369 
L 1366.337789 582.221508 
L 1367.3548 594.520565 
L 1369.388821 586.936194 
L 1370.405832 583.955413 
L 1371.422843 577.432699 
L 1372.439854 592.255835 
L 1373.456865 592.388964 
L 1374.473876 590.16466 
L 1375.490887 586.13924 
L 1376.507898 579.429446 
L 1377.524909 566.502382 
L 1378.54192 555.210312 
L 1379.558931 547.151148 
L 1380.575942 547.918571 
L 1382.609964 558.443686 
L 1383.626974 568.634792 
L 1384.643985 573.417161 
L 1385.660996 579.244609 
L 1386.678007 579.685832 
L 1387.695018 579.981073 
L 1389.72904 588.249598 
L 1390.746051 589.669279 
L 1391.763062 589.337061 
L 1392.780073 593.893939 
L 1393.797084 582.055474 
L 1394.814095 583.113885 
L 1395.831106 583.937871 
L 1396.848117 587.690285 
L 1397.865128 590.792406 
L 1398.882139 587.095983 
L 1399.899149 582.15376 
L 1400.91616 568.694273 
L 1401.933171 562.317182 
L 1402.950182 540.401454 
L 1403.967193 539.954053 
L 1404.984204 540.311545 
L 1406.001215 547.076223 
L 1407.018226 555.198594 
L 1408.035237 552.910932 
L 1409.052248 563.544072 
L 1410.069259 579.410022 
L 1411.08627 563.7851 
L 1412.103281 578.328574 
L 1413.120292 574.876795 
L 1414.137303 579.385639 
L 1415.154313 583.026733 
L 1416.171324 579.704062 
L 1417.188335 589.656622 
L 1418.205346 577.341303 
L 1419.222357 584.171488 
L 1420.239368 588.553245 
L 1421.256379 595.128767 
L 1422.27339 594.667192 
L 1423.290401 588.798774 
L 1424.307412 581.449275 
L 1426.341434 558.467552 
L 1427.358445 541.870356 
L 1428.375456 528.545063 
L 1429.392467 544.558385 
L 1430.409478 552.636883 
L 1431.426488 548.509034 
L 1433.46051 569.142101 
L 1435.494532 574.78873 
L 1436.511543 579.450138 
L 1437.528554 577.376525 
L 1438.545565 584.000741 
L 1439.562576 588.310082 
L 1440.579587 595.349113 
L 1441.596598 595.682098 
L 1442.613609 575.170626 
L 1443.63062 577.691338 
L 1444.647631 593.217883 
L 1445.664642 596.733282 
L 1446.681652 595.894509 
L 1447.698663 593.518554 
L 1448.715674 582.382428 
L 1449.732685 579.071206 
L 1450.749696 558.123258 
L 1451.766707 554.143588 
L 1452.783718 556.428554 
L 1453.800729 555.992367 
L 1454.81774 553.702818 
L 1455.834751 557.359642 
L 1456.851762 579.627372 
L 1457.868773 573.19245 
L 1459.902795 574.034219 
L 1461.936817 573.812584 
L 1462.953827 571.913358 
L 1463.970838 562.345709 
L 1464.987849 558.855349 
L 1466.00486 570.335893 
L 1467.021871 573.778334 
L 1468.038882 582.370079 
L 1469.055893 584.029776 
L 1470.072904 590.144305 
L 1471.089915 588.903723 
L 1472.106926 582.70973 
L 1473.123937 579.317907 
L 1474.140948 573.276878 
L 1475.157959 557.68915 
L 1476.17497 545.826096 
L 1477.191981 548.810548 
L 1478.208991 545.35629 
L 1479.226002 561.361739 
L 1480.243013 556.987319 
L 1482.277035 558.31461 
L 1484.311057 120.23616 
L 1485.328068 565.120696 
L 1486.345079 580.483321 
L 1487.36209 579.492161 
L 1488.379101 585.149276 
L 1489.396112 583.283324 
L 1490.413123 584.380503 
L 1491.430134 571.766954 
L 1492.447145 582.433494 
L 1493.464156 583.862773 
L 1494.481166 586.133298 
L 1495.498177 587.345152 
L 1496.515188 584.248348 
L 1497.532199 581.586325 
L 1498.54921 577.819438 
L 1499.566221 560.046369 
L 1500.583232 539.888927 
L 1501.600243 515.62304 
L 1502.617254 505.863726 
L 1503.634265 540.886444 
L 1504.651276 542.274928 
L 1505.668287 559.874093 
L 1506.685298 564.607524 
L 1508.71932 576.423062 
L 1509.73633 581.411628 
L 1510.753341 579.525094 
L 1512.787363 583.063802 
L 1513.804374 580.299775 
L 1514.821385 581.408202 
L 1515.838396 576.793197 
L 1516.855407 576.876745 
L 1517.872418 575.50506 
L 1518.889429 584.293336 
L 1519.90644 586.044467 
L 1520.923451 585.636503 
L 1521.940462 579.962633 
L 1522.957473 581.513394 
L 1523.974484 576.962342 
L 1524.991495 544.86864 
L 1526.008505 523.408277 
L 1527.025516 534.550935 
L 1528.042527 523.980111 
L 1530.076549 558.027995 
L 1531.09356 559.765252 
L 1532.110571 575.464022 
L 1533.127582 576.454036 
L 1534.144593 579.786806 
L 1535.161604 584.800487 
L 1536.178615 578.418901 
L 1537.195626 580.285989 
L 1538.212637 581.77858 
L 1539.229648 589.738 
L 1540.246659 585.471582 
L 1541.26367 587.582892 
L 1542.28068 588.122 
L 1543.297691 592.569701 
L 1544.314702 593.002862 
L 1545.331713 590.97036 
L 1546.348724 592.040873 
L 1547.365735 577.515197 
L 1548.382746 570.580322 
L 1549.399757 554.969403 
L 1550.416768 566.437079 
L 1551.433779 562.504559 
L 1552.45079 554.652492 
L 1554.484812 568.280805 
L 1555.501823 572.076044 
L 1556.518834 564.668809 
L 1557.535844 575.686271 
L 1558.552855 575.672547 
L 1559.569866 578.527998 
L 1560.586877 586.403756 
L 1561.603888 571.803526 
L 1562.620899 573.222252 
L 1563.63791 579.744033 
L 1564.654921 580.492641 
L 1565.671932 583.746622 
L 1566.688943 588.168293 
L 1567.705954 590.550941 
L 1568.722965 588.611927 
L 1569.739976 583.304895 
L 1570.756987 573.45779 
L 1571.773998 561.193742 
L 1572.791009 523.791559 
L 1573.808019 538.990626 
L 1574.82503 549.586977 
L 1575.842041 533.850804 
L 1576.859052 525.957847 
L 1577.876063 536.724727 
L 1579.910085 546.388285 
L 1580.927096 559.043089 
L 1581.944107 573.415779 
L 1582.961118 558.911026 
L 1583.978129 567.536796 
L 1584.99514 569.293203 
L 1586.012151 580.828506 
L 1587.029162 567.131198 
L 1588.046173 571.922996 
L 1589.063183 579.517527 
L 1590.080194 580.402949 
L 1591.097205 586.449088 
L 1592.114216 587.081396 
L 1593.131227 585.996112 
L 1594.148238 584.73183 
L 1595.165249 569.961005 
L 1596.18226 563.413289 
L 1597.199271 528.078349 
L 1598.216282 516.958636 
L 1599.233293 460.568629 
L 1600.250304 499.490004 
L 1601.267315 497.744047 
L 1603.301337 530.451335 
L 1604.318348 537.003963 
L 1605.335358 519.576159 
L 1606.352369 548.977739 
L 1607.36938 558.235203 
L 1608.386391 579.725098 
L 1609.403402 574.313188 
L 1610.420413 577.348329 
L 1611.437424 573.748614 
L 1612.454435 581.50768 
L 1613.471446 568.855978 
L 1614.488457 577.85207 
L 1615.505468 579.351544 
L 1616.522479 576.49196 
L 1617.53949 577.201081 
L 1618.556501 579.150379 
L 1620.590522 556.476144 
L 1621.607533 522.129305 
L 1623.641555 548.409418 
L 1624.658566 544.940328 
L 1625.675577 534.310517 
L 1627.709599 569.284117 
L 1628.72661 543.667603 
L 1629.743621 531.135129 
L 1630.760632 551.562021 
L 1631.777643 548.661441 
L 1632.794654 556.926119 
L 1633.811665 552.608109 
L 1634.828676 561.219795 
L 1635.845687 572.321937 
L 1636.862697 571.33857 
L 1637.879708 577.520051 
L 1638.896719 576.706693 
L 1639.91373 583.116059 
L 1640.930741 580.241473 
L 1641.947752 578.18569 
L 1642.964763 575.677736 
L 1643.981774 563.965923 
L 1644.998785 559.167833 
L 1647.032807 533.356281 
L 1648.049818 566.272272 
L 1649.066829 522.11471 
L 1650.08384 533.939806 
L 1651.100851 542.223453 
L 1652.117861 546.836147 
L 1653.134872 545.071042 
L 1654.151883 572.185447 
L 1655.168894 562.544051 
L 1657.202916 556.710739 
L 1658.219927 569.078169 
L 1659.236938 568.652118 
L 1660.253949 571.97494 
L 1661.27096 580.530508 
L 1662.287971 565.005707 
L 1664.321993 575.165719 
L 1665.339004 570.549282 
L 1666.356015 581.947222 
L 1667.373026 569.309779 
L 1668.390036 569.141501 
L 1669.407047 546.09349 
L 1670.424058 509.455208 
L 1671.441069 530.203586 
L 1672.45808 496.229998 
L 1673.475091 502.216183 
L 1674.492102 545.966924 
L 1675.509113 523.364913 
L 1676.526124 535.337249 
L 1678.560146 578.903128 
L 1679.577157 571.847651 
L 1680.594168 569.179821 
L 1681.611179 573.380443 
L 1682.62819 574.942857 
L 1683.6452 571.732171 
L 1684.662211 579.349654 
L 1685.679222 583.670339 
L 1686.696233 595.428884 
L 1702.968408 566.468727 
L 1703.985419 566.162245 
L 1705.00243 570.690693 
L 1706.019441 562.586085 
L 1707.036452 573.253103 
L 1708.053463 582.166288 
L 1709.070474 578.209769 
L 1710.087485 585.986366 
L 1711.104496 573.356722 
L 1712.121507 578.581141 
L 1713.138518 568.137099 
L 1714.155529 583.273896 
L 1715.172539 579.441521 
L 1716.18955 571.600907 
L 1717.206561 566.080898 
L 1718.223572 548.507029 
L 1719.240583 535.706853 
L 1720.257594 516.464804 
L 1721.274605 533.29976 
L 1722.291616 503.16216 
L 1723.308627 527.538757 
L 1724.325638 534.382792 
L 1725.342649 567.534358 
L 1726.35966 546.389893 
L 1727.376671 540.91576 
L 1728.393682 563.653622 
L 1729.410693 542.460595 
L 1730.427704 564.398094 
L 1731.444714 567.014724 
L 1732.461725 573.404115 
L 1733.478736 581.898438 
L 1734.495747 581.007667 
L 1735.512758 573.963156 
L 1736.529769 581.31258 
L 1737.54678 572.512987 
L 1738.563791 585.152622 
L 1739.580802 578.58624 
L 1740.597813 573.631276 
L 1741.614824 563.053572 
L 1742.631835 543.846038 
L 1743.648846 537.88326 
L 1744.665857 512.980421 
L 1745.682868 555.073787 
L 1746.699878 479.640418 
L 1747.716889 530.627791 
L 1749.750911 528.213174 
L 1750.767922 547.748569 
L 1751.784933 559.20708 
L 1752.801944 532.425949 
L 1753.818955 558.100898 
L 1755.852977 564.502255 
L 1756.869988 569.228231 
L 1757.886999 565.884526 
L 1758.90401 555.729888 
L 1759.921021 556.001638 
L 1760.938032 569.780422 
L 1761.955043 573.927036 
L 1762.972053 574.435233 
L 1763.989064 578.473971 
L 1765.006075 571.885229 
L 1766.023086 557.508278 
L 1767.040097 538.423507 
L 1768.057108 503.629647 
L 1769.074119 520.332605 
L 1770.09113 517.909088 
L 1771.108141 522.536751 
L 1772.125152 517.315313 
L 1773.142163 526.926551 
L 1774.159174 523.847913 
L 1775.176185 539.363686 
L 1776.193196 563.694694 
L 1778.227217 551.304887 
L 1779.244228 568.341264 
L 1780.261239 571.990033 
L 1781.27825 573.464427 
L 1782.295261 550.111347 
L 1783.312272 583.437622 
L 1784.329283 570.67586 
L 1785.346294 581.014972 
L 1786.363305 583.564971 
L 1787.380316 582.085189 
L 1789.414338 573.777432 
L 1791.44836 546.264002 
L 1792.465371 527.308091 
L 1793.482382 485.656506 
L 1796.533414 514.682308 
L 1801.618469 534.264647 
L 1802.63548 551.27461 
L 1803.652491 562.567156 
L 1804.669502 563.581645 
L 1805.686513 569.898158 
L 1806.703524 583.839845 
L 1807.720535 587.06875 
L 1808.737546 579.817922 
L 1809.754556 581.048368 
L 1810.771567 578.378955 
L 1811.788578 589.563648 
L 1812.805589 586.850484 
L 1813.8226 567.25157 
L 1814.839611 573.96389 
L 1815.856622 549.477853 
L 1816.873633 515.144049 
L 1817.890644 484.625233 
L 1818.907655 522.324961 
L 1819.924666 508.879948 
L 1820.941677 541.444865 
L 1821.958688 532.699441 
L 1822.975699 551.556882 
L 1823.99271 528.024027 
L 1825.009721 558.668416 
L 1826.026731 581.119273 
L 1827.043742 464.932316 
L 1828.060753 538.323159 
L 1829.077764 541.173255 
L 1830.094775 581.280891 
L 1831.111786 540.060645 
L 1832.128797 491.30576 
L 1833.145808 539.883436 
L 1834.162819 530.519411 
L 1835.17983 567.714361 
L 1836.196841 574.607181 
L 1837.213852 568.814774 
L 1838.230863 565.5457 
L 1839.247874 545.949607 
L 1841.281896 480.519298 
L 1842.298906 452.649725 
L 1843.315917 462.200962 
L 1844.332928 429.671971 
L 1845.349939 442.527934 
L 1846.36695 477.671013 
L 1847.383961 527.096501 
L 1848.400972 549.218227 
L 1849.417983 559.236953 
L 1850.434994 560.665641 
L 1851.452005 564.555252 
L 1852.469016 596.035609 
L 1853.486027 534.935363 
L 1854.503038 538.814186 
L 1855.520049 562.495965 
L 1856.53706 589.392952 
L 1857.55407 560.658874 
L 1858.571081 552.195237 
L 1859.588092 575.030666 
L 1860.605103 581.220736 
L 1861.622114 575.422598 
L 1862.639125 572.151874 
L 1863.656136 559.934508 
L 1864.673147 538.829408 
L 1865.690158 511.662073 
L 1866.707169 491.544217 
L 1867.72418 417.646111 
L 1869.758202 512.549252 
L 1870.775213 502.636167 
L 1871.792224 560.862701 
L 1872.809235 556.834493 
L 1873.826245 566.065964 
L 1875.860267 577.529091 
L 1877.894289 584.176066 
L 1878.9113 575.887143 
L 1879.928311 580.806518 
L 1880.945322 598.84732 
L 1881.962333 574.221511 
L 1882.979344 578.786958 
L 1883.996355 567.87448 
L 1885.013366 587.737267 
L 1886.030377 585.484501 
L 1887.047388 568.240662 
L 1888.064399 579.955437 
L 1889.081409 560.178286 
L 1890.09842 533.602872 
L 1891.115431 489.738862 
L 1892.132442 479.886484 
L 1893.149453 433.184486 
L 1894.166464 488.324669 
L 1896.200486 568.039616 
L 1898.234508 558.346217 
L 1899.251519 581.807416 
L 1900.26853 574.185261 
L 1901.285541 580.905131 
L 1902.302552 582.593457 
L 1903.319563 593.239347 
L 1904.336574 587.476586 
L 1906.370595 589.03442 
L 1908.404617 581.43011 
L 1909.421628 589.313959 
L 1910.438639 570.448542 
L 1911.45565 585.243986 
L 1912.472661 558.018551 
L 1913.489672 519.255976 
L 1914.506683 506.662227 
L 1915.523694 482.266979 
L 1916.540705 521.310187 
L 1917.557716 526.761117 
L 1919.591738 532.630903 
L 1920.608748 541.799773 
L 1921.625759 507.89753 
L 1922.64277 542.545385 
L 1923.659781 556.474139 
L 1924.676792 563.629077 
L 1925.693803 540.414725 
L 1926.710814 552.783567 
L 1927.727825 568.16007 
L 1928.744836 590.354638 
L 1929.761847 594.635869 
L 1930.778858 568.914705 
L 1931.795869 582.853785 
L 1932.81288 581.998647 
L 1933.829891 584.880331 
L 1934.846902 575.676182 
L 1935.863913 563.638157 
L 1936.880923 538.259632 
L 1937.897934 536.826537 
L 1938.914945 491.100706 
L 1939.931956 480.023503 
L 1940.948967 454.617556 
L 1941.965978 504.579498 
L 1942.982989 560.786688 
L 1944 518.74131 
L 1944 518.74131 
" style="fill:none;stroke:#0000ff;stroke-linecap:square;"/>
   </g>
   <g id="line2d_2">
    <defs>
     <path d="M 0 3 
C 0.795609 3 1.55874 2.683901 2.12132 2.12132 
C 2.683901 1.55874 3 0.795609 3 0 
C 3 -0.795609 2.683901 -1.55874 2.12132 -2.12132 
C 1.55874 -2.683901 0.795609 -3 0 -3 
C -0.795609 -3 -1.55874 -2.683901 -2.12132 -2.12132 
C -2.683901 -1.55874 -3 -0.795609 -3 0 
C -3 0.795609 -2.683901 1.55874 -2.12132 2.12132 
C -1.55874 2.683901 -0.795609 3 0 3 
z
" id="me080882486" style="stroke:#000000;stroke-width:0.5;"/>
    </defs>
    <g clip-path="url(#pd7ab6210e3)">
     <use style="fill:#ff0000;stroke:#000000;stroke-width:0.5;" x="457.130012147" xlink:href="#me080882486" y="399.11230377"/>
     <use style="fill:#ff0000;stroke:#000000;stroke-width:0.5;" x="1484.31105711" xlink:href="#me080882486" y="120.236159745"/>
     <use style="fill:#ff0000;stroke:#000000;stroke-width:0.5;" x="1844.33292831" xlink:href="#me080882486" y="429.671970727"/>
    </g>
   </g>
   <g id="patch_3">
    <path d="M 270 72 
L 1944 72 
" style="fill:none;stroke:#000000;stroke-linecap:square;stroke-linejoin:miter;"/>
   </g>
   <g id="patch_4">
    <path d="M 1944 648 
L 1944 72 
" style="fill:none;stroke:#000000;stroke-linecap:square;stroke-linejoin:miter;"/>
   </g>
   <g id="patch_5">
    <path d="M 270 648 
L 1944 648 
" style="fill:none;stroke:#000000;stroke-linecap:square;stroke-linejoin:miter;"/>
   </g>
   <g id="patch_6">
    <path d="M 270 648 
L 270 72 
" style="fill:none;stroke:#000000;stroke-linecap:square;stroke-linejoin:miter;"/>
   </g>
   <g id="matplotlib.axis_1">
    <g id="xtick_1">
     <g id="line2d_3">
      <defs>
       <path d="M 0 0 
L 0 -4 
" id="mdb934a53cf" style="stroke:#000000;stroke-width:0.5;"/>
      </defs>
      <g>
       <use style="stroke:#000000;stroke-width:0.5;" x="318.561989672" xlink:href="#mdb934a53cf" y="648.0"/>
      </g>
     </g>
     <g id="line2d_4">
      <defs>
       <path d="M 0 0 
L 0 4 
" id="me3c0e72d0a" style="stroke:#000000;stroke-width:0.5;"/>
      </defs>
      <g>
       <use style="stroke:#000000;stroke-width:0.5;" x="318.561989672" xlink:href="#me3c0e72d0a" y="72.0"/>
      </g>
     </g>
     <g id="text_1">
      <!-- Jul 03 2011 -->
      <defs>
       <path d="M 19.1875 8.296875 
L 53.609375 8.296875 
L 53.609375 0 
L 7.328125 0 
L 7.328125 8.296875 
Q 12.9375 14.109375 22.625 23.890625 
Q 32.328125 33.6875 34.8125 36.53125 
Q 39.546875 41.84375 41.421875 45.53125 
Q 43.3125 49.21875 43.3125 52.78125 
Q 43.3125 58.59375 39.234375 62.25 
Q 35.15625 65.921875 28.609375 65.921875 
Q 23.96875 65.921875 18.8125 64.3125 
Q 13.671875 62.703125 7.8125 59.421875 
L 7.8125 69.390625 
Q 13.765625 71.78125 18.9375 73 
Q 24.125 74.21875 28.421875 74.21875 
Q 39.75 74.21875 46.484375 68.546875 
Q 53.21875 62.890625 53.21875 53.421875 
Q 53.21875 48.921875 51.53125 44.890625 
Q 49.859375 40.875 45.40625 35.40625 
Q 44.1875 33.984375 37.640625 27.21875 
Q 31.109375 20.453125 19.1875 8.296875 
" id="BitstreamVeraSans-Roman-32"/>
       <path id="BitstreamVeraSans-Roman-20"/>
       <path d="M 31.78125 66.40625 
Q 24.171875 66.40625 20.328125 58.90625 
Q 16.5 51.421875 16.5 36.375 
Q 16.5 21.390625 20.328125 13.890625 
Q 24.171875 6.390625 31.78125 6.390625 
Q 39.453125 6.390625 43.28125 13.890625 
Q 47.125 21.390625 47.125 36.375 
Q 47.125 51.421875 43.28125 58.90625 
Q 39.453125 66.40625 31.78125 66.40625 
M 31.78125 74.21875 
Q 44.046875 74.21875 50.515625 64.515625 
Q 56.984375 54.828125 56.984375 36.375 
Q 56.984375 17.96875 50.515625 8.265625 
Q 44.046875 -1.421875 31.78125 -1.421875 
Q 19.53125 -1.421875 13.0625 8.265625 
Q 6.59375 17.96875 6.59375 36.375 
Q 6.59375 54.828125 13.0625 64.515625 
Q 19.53125 74.21875 31.78125 74.21875 
" id="BitstreamVeraSans-Roman-30"/>
       <path d="M 12.40625 8.296875 
L 28.515625 8.296875 
L 28.515625 63.921875 
L 10.984375 60.40625 
L 10.984375 69.390625 
L 28.421875 72.90625 
L 38.28125 72.90625 
L 38.28125 8.296875 
L 54.390625 8.296875 
L 54.390625 0 
L 12.40625 0 
z
" id="BitstreamVeraSans-Roman-31"/>
       <path d="M 9.8125 72.90625 
L 19.671875 72.90625 
L 19.671875 5.078125 
Q 19.671875 -8.109375 14.671875 -14.0625 
Q 9.671875 -20.015625 -1.421875 -20.015625 
L -5.171875 -20.015625 
L -5.171875 -11.71875 
L -2.09375 -11.71875 
Q 4.4375 -11.71875 7.125 -8.046875 
Q 9.8125 -4.390625 9.8125 5.078125 
z
" id="BitstreamVeraSans-Roman-4a"/>
       <path d="M 40.578125 39.3125 
Q 47.65625 37.796875 51.625 33 
Q 55.609375 28.21875 55.609375 21.1875 
Q 55.609375 10.40625 48.1875 4.484375 
Q 40.765625 -1.421875 27.09375 -1.421875 
Q 22.515625 -1.421875 17.65625 -0.515625 
Q 12.796875 0.390625 7.625 2.203125 
L 7.625 11.71875 
Q 11.71875 9.328125 16.59375 8.109375 
Q 21.484375 6.890625 26.8125 6.890625 
Q 36.078125 6.890625 40.9375 10.546875 
Q 45.796875 14.203125 45.796875 21.1875 
Q 45.796875 27.640625 41.28125 31.265625 
Q 36.765625 34.90625 28.71875 34.90625 
L 20.21875 34.90625 
L 20.21875 43.015625 
L 29.109375 43.015625 
Q 36.375 43.015625 40.234375 45.921875 
Q 44.09375 48.828125 44.09375 54.296875 
Q 44.09375 59.90625 40.109375 62.90625 
Q 36.140625 65.921875 28.71875 65.921875 
Q 24.65625 65.921875 20.015625 65.03125 
Q 15.375 64.15625 9.8125 62.3125 
L 9.8125 71.09375 
Q 15.4375 72.65625 20.34375 73.4375 
Q 25.25 74.21875 29.59375 74.21875 
Q 40.828125 74.21875 47.359375 69.109375 
Q 53.90625 64.015625 53.90625 55.328125 
Q 53.90625 49.265625 50.4375 45.09375 
Q 46.96875 40.921875 40.578125 39.3125 
" id="BitstreamVeraSans-Roman-33"/>
       <path d="M 9.421875 75.984375 
L 18.40625 75.984375 
L 18.40625 0 
L 9.421875 0 
z
" id="BitstreamVeraSans-Roman-6c"/>
       <path d="M 8.5 21.578125 
L 8.5 54.6875 
L 17.484375 54.6875 
L 17.484375 21.921875 
Q 17.484375 14.15625 20.5 10.265625 
Q 23.53125 6.390625 29.59375 6.390625 
Q 36.859375 6.390625 41.078125 11.03125 
Q 45.3125 15.671875 45.3125 23.6875 
L 45.3125 54.6875 
L 54.296875 54.6875 
L 54.296875 0 
L 45.3125 0 
L 45.3125 8.40625 
Q 42.046875 3.421875 37.71875 1 
Q 33.40625 -1.421875 27.6875 -1.421875 
Q 18.265625 -1.421875 13.375 4.4375 
Q 8.5 10.296875 8.5 21.578125 
" id="BitstreamVeraSans-Roman-75"/>
      </defs>
      <g transform="translate(284.603864672 661.118125)scale(0.12 -0.12)">
       <use xlink:href="#BitstreamVeraSans-Roman-4a"/>
       <use x="29.4921875" xlink:href="#BitstreamVeraSans-Roman-75"/>
       <use x="92.87109375" xlink:href="#BitstreamVeraSans-Roman-6c"/>
       <use x="120.654296875" xlink:href="#BitstreamVeraSans-Roman-20"/>
       <use x="152.44140625" xlink:href="#BitstreamVeraSans-Roman-30"/>
       <use x="216.064453125" xlink:href="#BitstreamVeraSans-Roman-33"/>
       <use x="279.6875" xlink:href="#BitstreamVeraSans-Roman-20"/>
       <use x="311.474609375" xlink:href="#BitstreamVeraSans-Roman-32"/>
       <use x="375.09765625" xlink:href="#BitstreamVeraSans-Roman-30"/>
       <use x="438.720703125" xlink:href="#BitstreamVeraSans-Roman-31"/>
       <use x="502.34375" xlink:href="#BitstreamVeraSans-Roman-31"/>
      </g>
     </g>
    </g>
    <g id="xtick_2">
     <g id="line2d_5">
      <g>
       <use style="stroke:#000000;stroke-width:0.5;" x="489.41982685" xlink:href="#mdb934a53cf" y="648.0"/>
      </g>
     </g>
     <g id="line2d_6">
      <g>
       <use style="stroke:#000000;stroke-width:0.5;" x="489.41982685" xlink:href="#me3c0e72d0a" y="72.0"/>
      </g>
     </g>
     <g id="text_2">
      <!-- Jul 10 2011 -->
      <g transform="translate(455.46170185 661.118125)scale(0.12 -0.12)">
       <use xlink:href="#BitstreamVeraSans-Roman-4a"/>
       <use x="29.4921875" xlink:href="#BitstreamVeraSans-Roman-75"/>
       <use x="92.87109375" xlink:href="#BitstreamVeraSans-Roman-6c"/>
       <use x="120.654296875" xlink:href="#BitstreamVeraSans-Roman-20"/>
       <use x="152.44140625" xlink:href="#BitstreamVeraSans-Roman-31"/>
       <use x="216.064453125" xlink:href="#BitstreamVeraSans-Roman-30"/>
       <use x="279.6875" xlink:href="#BitstreamVeraSans-Roman-20"/>
       <use x="311.474609375" xlink:href="#BitstreamVeraSans-Roman-32"/>
       <use x="375.09765625" xlink:href="#BitstreamVeraSans-Roman-30"/>
       <use x="438.720703125" xlink:href="#BitstreamVeraSans-Roman-31"/>
       <use x="502.34375" xlink:href="#BitstreamVeraSans-Roman-31"/>
      </g>
     </g>
    </g>
    <g id="xtick_3">
     <g id="line2d_7">
      <g>
       <use style="stroke:#000000;stroke-width:0.5;" x="660.277664032" xlink:href="#mdb934a53cf" y="648.0"/>
      </g>
     </g>
     <g id="line2d_8">
      <g>
       <use style="stroke:#000000;stroke-width:0.5;" x="660.277664032" xlink:href="#me3c0e72d0a" y="72.0"/>
      </g>
     </g>
     <g id="text_3">
      <!-- Jul 17 2011 -->
      <defs>
       <path d="M 8.203125 72.90625 
L 55.078125 72.90625 
L 55.078125 68.703125 
L 28.609375 0 
L 18.3125 0 
L 43.21875 64.59375 
L 8.203125 64.59375 
z
" id="BitstreamVeraSans-Roman-37"/>
      </defs>
      <g transform="translate(626.319539032 661.118125)scale(0.12 -0.12)">
       <use xlink:href="#BitstreamVeraSans-Roman-4a"/>
       <use x="29.4921875" xlink:href="#BitstreamVeraSans-Roman-75"/>
       <use x="92.87109375" xlink:href="#BitstreamVeraSans-Roman-6c"/>
       <use x="120.654296875" xlink:href="#BitstreamVeraSans-Roman-20"/>
       <use x="152.44140625" xlink:href="#BitstreamVeraSans-Roman-31"/>
       <use x="216.064453125" xlink:href="#BitstreamVeraSans-Roman-37"/>
       <use x="279.6875" xlink:href="#BitstreamVeraSans-Roman-20"/>
       <use x="311.474609375" xlink:href="#BitstreamVeraSans-Roman-32"/>
       <use x="375.09765625" xlink:href="#BitstreamVeraSans-Roman-30"/>
       <use x="438.720703125" xlink:href="#BitstreamVeraSans-Roman-31"/>
       <use x="502.34375" xlink:href="#BitstreamVeraSans-Roman-31"/>
      </g>
     </g>
    </g>
    <g id="xtick_4">
     <g id="line2d_9">
      <g>
       <use style="stroke:#000000;stroke-width:0.5;" x="831.135501213" xlink:href="#mdb934a53cf" y="648.0"/>
      </g>
     </g>
     <g id="line2d_10">
      <g>
       <use style="stroke:#000000;stroke-width:0.5;" x="831.135501213" xlink:href="#me3c0e72d0a" y="72.0"/>
      </g>
     </g>
     <g id="text_4">
      <!-- Jul 24 2011 -->
      <defs>
       <path d="M 37.796875 64.3125 
L 12.890625 25.390625 
L 37.796875 25.390625 
z
M 35.203125 72.90625 
L 47.609375 72.90625 
L 47.609375 25.390625 
L 58.015625 25.390625 
L 58.015625 17.1875 
L 47.609375 17.1875 
L 47.609375 0 
L 37.796875 0 
L 37.796875 17.1875 
L 4.890625 17.1875 
L 4.890625 26.703125 
z
" id="BitstreamVeraSans-Roman-34"/>
      </defs>
      <g transform="translate(797.177376213 661.118125)scale(0.12 -0.12)">
       <use xlink:href="#BitstreamVeraSans-Roman-4a"/>
       <use x="29.4921875" xlink:href="#BitstreamVeraSans-Roman-75"/>
       <use x="92.87109375" xlink:href="#BitstreamVeraSans-Roman-6c"/>
       <use x="120.654296875" xlink:href="#BitstreamVeraSans-Roman-20"/>
       <use x="152.44140625" xlink:href="#BitstreamVeraSans-Roman-32"/>
       <use x="216.064453125" xlink:href="#BitstreamVeraSans-Roman-34"/>
       <use x="279.6875" xlink:href="#BitstreamVeraSans-Roman-20"/>
       <use x="311.474609375" xlink:href="#BitstreamVeraSans-Roman-32"/>
       <use x="375.09765625" xlink:href="#BitstreamVeraSans-Roman-30"/>
       <use x="438.720703125" xlink:href="#BitstreamVeraSans-Roman-31"/>
       <use x="502.34375" xlink:href="#BitstreamVeraSans-Roman-31"/>
      </g>
     </g>
    </g>
    <g id="xtick_5">
     <g id="line2d_11">
      <g>
       <use style="stroke:#000000;stroke-width:0.5;" x="1001.99333839" xlink:href="#mdb934a53cf" y="648.0"/>
      </g>
     </g>
     <g id="line2d_12">
      <g>
       <use style="stroke:#000000;stroke-width:0.5;" x="1001.99333839" xlink:href="#me3c0e72d0a" y="72.0"/>
      </g>
     </g>
     <g id="text_5">
      <!-- Jul 31 2011 -->
      <g transform="translate(968.035213395 661.118125)scale(0.12 -0.12)">
       <use xlink:href="#BitstreamVeraSans-Roman-4a"/>
       <use x="29.4921875" xlink:href="#BitstreamVeraSans-Roman-75"/>
       <use x="92.87109375" xlink:href="#BitstreamVeraSans-Roman-6c"/>
       <use x="120.654296875" xlink:href="#BitstreamVeraSans-Roman-20"/>
       <use x="152.44140625" xlink:href="#BitstreamVeraSans-Roman-33"/>
       <use x="216.064453125" xlink:href="#BitstreamVeraSans-Roman-31"/>
       <use x="279.6875" xlink:href="#BitstreamVeraSans-Roman-20"/>
       <use x="311.474609375" xlink:href="#BitstreamVeraSans-Roman-32"/>
       <use x="375.09765625" xlink:href="#BitstreamVeraSans-Roman-30"/>
       <use x="438.720703125" xlink:href="#BitstreamVeraSans-Roman-31"/>
       <use x="502.34375" xlink:href="#BitstreamVeraSans-Roman-31"/>
      </g>
     </g>
    </g>
    <g id="xtick_6">
     <g id="line2d_13">
      <g>
       <use style="stroke:#000000;stroke-width:0.5;" x="1172.85117558" xlink:href="#mdb934a53cf" y="648.0"/>
      </g>
     </g>
     <g id="line2d_14">
      <g>
       <use style="stroke:#000000;stroke-width:0.5;" x="1172.85117558" xlink:href="#me3c0e72d0a" y="72.0"/>
      </g>
     </g>
     <g id="text_6">
      <!-- Aug 07 2011 -->
      <defs>
       <path d="M 45.40625 27.984375 
Q 45.40625 37.75 41.375 43.109375 
Q 37.359375 48.484375 30.078125 48.484375 
Q 22.859375 48.484375 18.828125 43.109375 
Q 14.796875 37.75 14.796875 27.984375 
Q 14.796875 18.265625 18.828125 12.890625 
Q 22.859375 7.515625 30.078125 7.515625 
Q 37.359375 7.515625 41.375 12.890625 
Q 45.40625 18.265625 45.40625 27.984375 
M 54.390625 6.78125 
Q 54.390625 -7.171875 48.1875 -13.984375 
Q 42 -20.796875 29.203125 -20.796875 
Q 24.46875 -20.796875 20.265625 -20.09375 
Q 16.0625 -19.390625 12.109375 -17.921875 
L 12.109375 -9.1875 
Q 16.0625 -11.328125 19.921875 -12.34375 
Q 23.78125 -13.375 27.78125 -13.375 
Q 36.625 -13.375 41.015625 -8.765625 
Q 45.40625 -4.15625 45.40625 5.171875 
L 45.40625 9.625 
Q 42.625 4.78125 38.28125 2.390625 
Q 33.9375 0 27.875 0 
Q 17.828125 0 11.671875 7.65625 
Q 5.515625 15.328125 5.515625 27.984375 
Q 5.515625 40.671875 11.671875 48.328125 
Q 17.828125 56 27.875 56 
Q 33.9375 56 38.28125 53.609375 
Q 42.625 51.21875 45.40625 46.390625 
L 45.40625 54.6875 
L 54.390625 54.6875 
z
" id="BitstreamVeraSans-Roman-67"/>
       <path d="M 34.1875 63.1875 
L 20.796875 26.90625 
L 47.609375 26.90625 
z
M 28.609375 72.90625 
L 39.796875 72.90625 
L 67.578125 0 
L 57.328125 0 
L 50.6875 18.703125 
L 17.828125 18.703125 
L 11.1875 0 
L 0.78125 0 
z
" id="BitstreamVeraSans-Roman-41"/>
      </defs>
      <g transform="translate(1134.41648808 661.118125)scale(0.12 -0.12)">
       <use xlink:href="#BitstreamVeraSans-Roman-41"/>
       <use x="68.408203125" xlink:href="#BitstreamVeraSans-Roman-75"/>
       <use x="131.787109375" xlink:href="#BitstreamVeraSans-Roman-67"/>
       <use x="195.263671875" xlink:href="#BitstreamVeraSans-Roman-20"/>
       <use x="227.05078125" xlink:href="#BitstreamVeraSans-Roman-30"/>
       <use x="290.673828125" xlink:href="#BitstreamVeraSans-Roman-37"/>
       <use x="354.296875" xlink:href="#BitstreamVeraSans-Roman-20"/>
       <use x="386.083984375" xlink:href="#BitstreamVeraSans-Roman-32"/>
       <use x="449.70703125" xlink:href="#BitstreamVeraSans-Roman-30"/>
       <use x="513.330078125" xlink:href="#BitstreamVeraSans-Roman-31"/>
       <use x="576.953125" xlink:href="#BitstreamVeraSans-Roman-31"/>
      </g>
     </g>
    </g>
    <g id="xtick_7">
     <g id="line2d_15">
      <g>
       <use style="stroke:#000000;stroke-width:0.5;" x="1343.70901276" xlink:href="#mdb934a53cf" y="648.0"/>
      </g>
     </g>
     <g id="line2d_16">
      <g>
       <use style="stroke:#000000;stroke-width:0.5;" x="1343.70901276" xlink:href="#me3c0e72d0a" y="72.0"/>
      </g>
     </g>
     <g id="text_7">
      <!-- Aug 14 2011 -->
      <g transform="translate(1305.27432526 661.118125)scale(0.12 -0.12)">
       <use xlink:href="#BitstreamVeraSans-Roman-41"/>
       <use x="68.408203125" xlink:href="#BitstreamVeraSans-Roman-75"/>
       <use x="131.787109375" xlink:href="#BitstreamVeraSans-Roman-67"/>
       <use x="195.263671875" xlink:href="#BitstreamVeraSans-Roman-20"/>
       <use x="227.05078125" xlink:href="#BitstreamVeraSans-Roman-31"/>
       <use x="290.673828125" xlink:href="#BitstreamVeraSans-Roman-34"/>
       <use x="354.296875" xlink:href="#BitstreamVeraSans-Roman-20"/>
       <use x="386.083984375" xlink:href="#BitstreamVeraSans-Roman-32"/>
       <use x="449.70703125" xlink:href="#BitstreamVeraSans-Roman-30"/>
       <use x="513.330078125" xlink:href="#BitstreamVeraSans-Roman-31"/>
       <use x="576.953125" xlink:href="#BitstreamVeraSans-Roman-31"/>
      </g>
     </g>
    </g>
    <g id="xtick_8">
     <g id="line2d_17">
      <g>
       <use style="stroke:#000000;stroke-width:0.5;" x="1514.56684994" xlink:href="#mdb934a53cf" y="648.0"/>
      </g>
     </g>
     <g id="line2d_18">
      <g>
       <use style="stroke:#000000;stroke-width:0.5;" x="1514.56684994" xlink:href="#me3c0e72d0a" y="72.0"/>
      </g>
     </g>
     <g id="text_8">
      <!-- Aug 21 2011 -->
      <g transform="translate(1476.13216244 661.118125)scale(0.12 -0.12)">
       <use xlink:href="#BitstreamVeraSans-Roman-41"/>
       <use x="68.408203125" xlink:href="#BitstreamVeraSans-Roman-75"/>
       <use x="131.787109375" xlink:href="#BitstreamVeraSans-Roman-67"/>
       <use x="195.263671875" xlink:href="#BitstreamVeraSans-Roman-20"/>
       <use x="227.05078125" xlink:href="#BitstreamVeraSans-Roman-32"/>
       <use x="290.673828125" xlink:href="#BitstreamVeraSans-Roman-31"/>
       <use x="354.296875" xlink:href="#BitstreamVeraSans-Roman-20"/>
       <use x="386.083984375" xlink:href="#BitstreamVeraSans-Roman-32"/>
       <use x="449.70703125" xlink:href="#BitstreamVeraSans-Roman-30"/>
       <use x="513.330078125" xlink:href="#BitstreamVeraSans-Roman-31"/>
       <use x="576.953125" xlink:href="#BitstreamVeraSans-Roman-31"/>
      </g>
     </g>
    </g>
    <g id="xtick_9">
     <g id="line2d_19">
      <g>
       <use style="stroke:#000000;stroke-width:0.5;" x="1685.42468712" xlink:href="#mdb934a53cf" y="648.0"/>
      </g>
     </g>
     <g id="line2d_20">
      <g>
       <use style="stroke:#000000;stroke-width:0.5;" x="1685.42468712" xlink:href="#me3c0e72d0a" y="72.0"/>
      </g>
     </g>
     <g id="text_9">
      <!-- Aug 28 2011 -->
      <defs>
       <path d="M 31.78125 34.625 
Q 24.75 34.625 20.71875 30.859375 
Q 16.703125 27.09375 16.703125 20.515625 
Q 16.703125 13.921875 20.71875 10.15625 
Q 24.75 6.390625 31.78125 6.390625 
Q 38.8125 6.390625 42.859375 10.171875 
Q 46.921875 13.96875 46.921875 20.515625 
Q 46.921875 27.09375 42.890625 30.859375 
Q 38.875 34.625 31.78125 34.625 
M 21.921875 38.8125 
Q 15.578125 40.375 12.03125 44.71875 
Q 8.5 49.078125 8.5 55.328125 
Q 8.5 64.0625 14.71875 69.140625 
Q 20.953125 74.21875 31.78125 74.21875 
Q 42.671875 74.21875 48.875 69.140625 
Q 55.078125 64.0625 55.078125 55.328125 
Q 55.078125 49.078125 51.53125 44.71875 
Q 48 40.375 41.703125 38.8125 
Q 48.828125 37.15625 52.796875 32.3125 
Q 56.78125 27.484375 56.78125 20.515625 
Q 56.78125 9.90625 50.3125 4.234375 
Q 43.84375 -1.421875 31.78125 -1.421875 
Q 19.734375 -1.421875 13.25 4.234375 
Q 6.78125 9.90625 6.78125 20.515625 
Q 6.78125 27.484375 10.78125 32.3125 
Q 14.796875 37.15625 21.921875 38.8125 
M 18.3125 54.390625 
Q 18.3125 48.734375 21.84375 45.5625 
Q 25.390625 42.390625 31.78125 42.390625 
Q 38.140625 42.390625 41.71875 45.5625 
Q 45.3125 48.734375 45.3125 54.390625 
Q 45.3125 60.0625 41.71875 63.234375 
Q 38.140625 66.40625 31.78125 66.40625 
Q 25.390625 66.40625 21.84375 63.234375 
Q 18.3125 60.0625 18.3125 54.390625 
" id="BitstreamVeraSans-Roman-38"/>
      </defs>
      <g transform="translate(1646.98999962 661.118125)scale(0.12 -0.12)">
       <use xlink:href="#BitstreamVeraSans-Roman-41"/>
       <use x="68.408203125" xlink:href="#BitstreamVeraSans-Roman-75"/>
       <use x="131.787109375" xlink:href="#BitstreamVeraSans-Roman-67"/>
       <use x="195.263671875" xlink:href="#BitstreamVeraSans-Roman-20"/>
       <use x="227.05078125" xlink:href="#BitstreamVeraSans-Roman-32"/>
       <use x="290.673828125" xlink:href="#BitstreamVeraSans-Roman-38"/>
       <use x="354.296875" xlink:href="#BitstreamVeraSans-Roman-20"/>
       <use x="386.083984375" xlink:href="#BitstreamVeraSans-Roman-32"/>
       <use x="449.70703125" xlink:href="#BitstreamVeraSans-Roman-30"/>
       <use x="513.330078125" xlink:href="#BitstreamVeraSans-Roman-31"/>
       <use x="576.953125" xlink:href="#BitstreamVeraSans-Roman-31"/>
      </g>
     </g>
    </g>
    <g id="xtick_10">
     <g id="line2d_21">
      <g>
       <use style="stroke:#000000;stroke-width:0.5;" x="1856.2825243" xlink:href="#mdb934a53cf" y="648.0"/>
      </g>
     </g>
     <g id="line2d_22">
      <g>
       <use style="stroke:#000000;stroke-width:0.5;" x="1856.2825243" xlink:href="#me3c0e72d0a" y="72.0"/>
      </g>
     </g>
     <g id="text_10">
      <!-- Sep 04 2011 -->
      <defs>
       <path d="M 56.203125 29.59375 
L 56.203125 25.203125 
L 14.890625 25.203125 
Q 15.484375 15.921875 20.484375 11.0625 
Q 25.484375 6.203125 34.421875 6.203125 
Q 39.59375 6.203125 44.453125 7.46875 
Q 49.3125 8.734375 54.109375 11.28125 
L 54.109375 2.78125 
Q 49.265625 0.734375 44.1875 -0.34375 
Q 39.109375 -1.421875 33.890625 -1.421875 
Q 20.796875 -1.421875 13.15625 6.1875 
Q 5.515625 13.8125 5.515625 26.8125 
Q 5.515625 40.234375 12.765625 48.109375 
Q 20.015625 56 32.328125 56 
Q 43.359375 56 49.78125 48.890625 
Q 56.203125 41.796875 56.203125 29.59375 
M 47.21875 32.234375 
Q 47.125 39.59375 43.09375 43.984375 
Q 39.0625 48.390625 32.421875 48.390625 
Q 24.90625 48.390625 20.390625 44.140625 
Q 15.875 39.890625 15.1875 32.171875 
z
" id="BitstreamVeraSans-Roman-65"/>
       <path d="M 53.515625 70.515625 
L 53.515625 60.890625 
Q 47.90625 63.578125 42.921875 64.890625 
Q 37.9375 66.21875 33.296875 66.21875 
Q 25.25 66.21875 20.875 63.09375 
Q 16.5 59.96875 16.5 54.203125 
Q 16.5 49.359375 19.40625 46.890625 
Q 22.3125 44.4375 30.421875 42.921875 
L 36.375 41.703125 
Q 47.40625 39.59375 52.65625 34.296875 
Q 57.90625 29 57.90625 20.125 
Q 57.90625 9.515625 50.796875 4.046875 
Q 43.703125 -1.421875 29.984375 -1.421875 
Q 24.8125 -1.421875 18.96875 -0.25 
Q 13.140625 0.921875 6.890625 3.21875 
L 6.890625 13.375 
Q 12.890625 10.015625 18.65625 8.296875 
Q 24.421875 6.59375 29.984375 6.59375 
Q 38.421875 6.59375 43.015625 9.90625 
Q 47.609375 13.234375 47.609375 19.390625 
Q 47.609375 24.75 44.3125 27.78125 
Q 41.015625 30.8125 33.5 32.328125 
L 27.484375 33.5 
Q 16.453125 35.6875 11.515625 40.375 
Q 6.59375 45.0625 6.59375 53.421875 
Q 6.59375 63.09375 13.40625 68.65625 
Q 20.21875 74.21875 32.171875 74.21875 
Q 37.3125 74.21875 42.625 73.28125 
Q 47.953125 72.359375 53.515625 70.515625 
" id="BitstreamVeraSans-Roman-53"/>
       <path d="M 18.109375 8.203125 
L 18.109375 -20.796875 
L 9.078125 -20.796875 
L 9.078125 54.6875 
L 18.109375 54.6875 
L 18.109375 46.390625 
Q 20.953125 51.265625 25.265625 53.625 
Q 29.59375 56 35.59375 56 
Q 45.5625 56 51.78125 48.09375 
Q 58.015625 40.1875 58.015625 27.296875 
Q 58.015625 14.40625 51.78125 6.484375 
Q 45.5625 -1.421875 35.59375 -1.421875 
Q 29.59375 -1.421875 25.265625 0.953125 
Q 20.953125 3.328125 18.109375 8.203125 
M 48.6875 27.296875 
Q 48.6875 37.203125 44.609375 42.84375 
Q 40.53125 48.484375 33.40625 48.484375 
Q 26.265625 48.484375 22.1875 42.84375 
Q 18.109375 37.203125 18.109375 27.296875 
Q 18.109375 17.390625 22.1875 11.75 
Q 26.265625 6.109375 33.40625 6.109375 
Q 40.53125 6.109375 44.609375 11.75 
Q 48.6875 17.390625 48.6875 27.296875 
" id="BitstreamVeraSans-Roman-70"/>
      </defs>
      <g transform="translate(1818.2537743 661.118125)scale(0.12 -0.12)">
       <use xlink:href="#BitstreamVeraSans-Roman-53"/>
       <use x="63.4765625" xlink:href="#BitstreamVeraSans-Roman-65"/>
       <use x="125.0" xlink:href="#BitstreamVeraSans-Roman-70"/>
       <use x="188.4765625" xlink:href="#BitstreamVeraSans-Roman-20"/>
       <use x="220.263671875" xlink:href="#BitstreamVeraSans-Roman-30"/>
       <use x="283.88671875" xlink:href="#BitstreamVeraSans-Roman-34"/>
       <use x="347.509765625" xlink:href="#BitstreamVeraSans-Roman-20"/>
       <use x="379.296875" xlink:href="#BitstreamVeraSans-Roman-32"/>
       <use x="442.919921875" xlink:href="#BitstreamVeraSans-Roman-30"/>
       <use x="506.54296875" xlink:href="#BitstreamVeraSans-Roman-31"/>
       <use x="570.166015625" xlink:href="#BitstreamVeraSans-Roman-31"/>
      </g>
     </g>
    </g>
   </g>
   <g id="matplotlib.axis_2">
    <g id="ytick_1">
     <g id="line2d_23">
      <defs>
       <path d="M 0 0 
L 4 0 
" id="m97dc1263ce" style="stroke:#000000;stroke-width:0.5;"/>
      </defs>
      <g>
       <use style="stroke:#000000;stroke-width:0.5;" x="270.0" xlink:href="#m97dc1263ce" y="648.0"/>
      </g>
     </g>
     <g id="line2d_24">
      <defs>
       <path d="M 0 0 
L -4 0 
" id="m4ec4fdc6c3" style="stroke:#000000;stroke-width:0.5;"/>
      </defs>
      <g>
       <use style="stroke:#000000;stroke-width:0.5;" x="1944.0" xlink:href="#m4ec4fdc6c3" y="648.0"/>
      </g>
     </g>
     <g id="text_11">
      <!-- 0 -->
      <g transform="translate(258.365 651.31125)scale(0.12 -0.12)">
       <use xlink:href="#BitstreamVeraSans-Roman-30"/>
      </g>
     </g>
    </g>
    <g id="ytick_2">
     <g id="line2d_25">
      <g>
       <use style="stroke:#000000;stroke-width:0.5;" x="270.0" xlink:href="#m97dc1263ce" y="552.0"/>
      </g>
     </g>
     <g id="line2d_26">
      <g>
       <use style="stroke:#000000;stroke-width:0.5;" x="1944.0" xlink:href="#m4ec4fdc6c3" y="552.0"/>
      </g>
     </g>
     <g id="text_12">
      <!-- 1 -->
      <g transform="translate(258.365 555.31125)scale(0.12 -0.12)">
       <use xlink:href="#BitstreamVeraSans-Roman-31"/>
      </g>
     </g>
    </g>
    <g id="ytick_3">
     <g id="line2d_27">
      <g>
       <use style="stroke:#000000;stroke-width:0.5;" x="270.0" xlink:href="#m97dc1263ce" y="456.0"/>
      </g>
     </g>
     <g id="line2d_28">
      <g>
       <use style="stroke:#000000;stroke-width:0.5;" x="1944.0" xlink:href="#m4ec4fdc6c3" y="456.0"/>
      </g>
     </g>
     <g id="text_13">
      <!-- 2 -->
      <g transform="translate(258.365 459.31125)scale(0.12 -0.12)">
       <use xlink:href="#BitstreamVeraSans-Roman-32"/>
      </g>
     </g>
    </g>
    <g id="ytick_4">
     <g id="line2d_29">
      <g>
       <use style="stroke:#000000;stroke-width:0.5;" x="270.0" xlink:href="#m97dc1263ce" y="360.0"/>
      </g>
     </g>
     <g id="line2d_30">
      <g>
       <use style="stroke:#000000;stroke-width:0.5;" x="1944.0" xlink:href="#m4ec4fdc6c3" y="360.0"/>
      </g>
     </g>
     <g id="text_14">
      <!-- 3 -->
      <g transform="translate(258.365 363.31125)scale(0.12 -0.12)">
       <use xlink:href="#BitstreamVeraSans-Roman-33"/>
      </g>
     </g>
    </g>
    <g id="ytick_5">
     <g id="line2d_31">
      <g>
       <use style="stroke:#000000;stroke-width:0.5;" x="270.0" xlink:href="#m97dc1263ce" y="264.0"/>
      </g>
     </g>
     <g id="line2d_32">
      <g>
       <use style="stroke:#000000;stroke-width:0.5;" x="1944.0" xlink:href="#m4ec4fdc6c3" y="264.0"/>
      </g>
     </g>
     <g id="text_15">
      <!-- 4 -->
      <g transform="translate(258.365 267.31125)scale(0.12 -0.12)">
       <use xlink:href="#BitstreamVeraSans-Roman-34"/>
      </g>
     </g>
    </g>
    <g id="ytick_6">
     <g id="line2d_33">
      <g>
       <use style="stroke:#000000;stroke-width:0.5;" x="270.0" xlink:href="#m97dc1263ce" y="168.0"/>
      </g>
     </g>
     <g id="line2d_34">
      <g>
       <use style="stroke:#000000;stroke-width:0.5;" x="1944.0" xlink:href="#m4ec4fdc6c3" y="168.0"/>
      </g>
     </g>
     <g id="text_16">
      <!-- 5 -->
      <defs>
       <path d="M 10.796875 72.90625 
L 49.515625 72.90625 
L 49.515625 64.59375 
L 19.828125 64.59375 
L 19.828125 46.734375 
Q 21.96875 47.46875 24.109375 47.828125 
Q 26.265625 48.1875 28.421875 48.1875 
Q 40.625 48.1875 47.75 41.5 
Q 54.890625 34.8125 54.890625 23.390625 
Q 54.890625 11.625 47.5625 5.09375 
Q 40.234375 -1.421875 26.90625 -1.421875 
Q 22.3125 -1.421875 17.546875 -0.640625 
Q 12.796875 0.140625 7.71875 1.703125 
L 7.71875 11.625 
Q 12.109375 9.234375 16.796875 8.0625 
Q 21.484375 6.890625 26.703125 6.890625 
Q 35.15625 6.890625 40.078125 11.328125 
Q 45.015625 15.765625 45.015625 23.390625 
Q 45.015625 31 40.078125 35.4375 
Q 35.15625 39.890625 26.703125 39.890625 
Q 22.75 39.890625 18.8125 39.015625 
Q 14.890625 38.140625 10.796875 36.28125 
z
" id="BitstreamVeraSans-Roman-35"/>
      </defs>
      <g transform="translate(258.365 171.31125)scale(0.12 -0.12)">
       <use xlink:href="#BitstreamVeraSans-Roman-35"/>
      </g>
     </g>
    </g>
    <g id="ytick_7">
     <g id="line2d_35">
      <g>
       <use style="stroke:#000000;stroke-width:0.5;" x="270.0" xlink:href="#m97dc1263ce" y="72.0"/>
      </g>
     </g>
     <g id="line2d_36">
      <g>
       <use style="stroke:#000000;stroke-width:0.5;" x="1944.0" xlink:href="#m4ec4fdc6c3" y="72.0"/>
      </g>
     </g>
     <g id="text_17">
      <!-- 6 -->
      <defs>
       <path d="M 33.015625 40.375 
Q 26.375 40.375 22.484375 35.828125 
Q 18.609375 31.296875 18.609375 23.390625 
Q 18.609375 15.53125 22.484375 10.953125 
Q 26.375 6.390625 33.015625 6.390625 
Q 39.65625 6.390625 43.53125 10.953125 
Q 47.40625 15.53125 47.40625 23.390625 
Q 47.40625 31.296875 43.53125 35.828125 
Q 39.65625 40.375 33.015625 40.375 
M 52.59375 71.296875 
L 52.59375 62.3125 
Q 48.875 64.0625 45.09375 64.984375 
Q 41.3125 65.921875 37.59375 65.921875 
Q 27.828125 65.921875 22.671875 59.328125 
Q 17.53125 52.734375 16.796875 39.40625 
Q 19.671875 43.65625 24.015625 45.921875 
Q 28.375 48.1875 33.59375 48.1875 
Q 44.578125 48.1875 50.953125 41.515625 
Q 57.328125 34.859375 57.328125 23.390625 
Q 57.328125 12.15625 50.6875 5.359375 
Q 44.046875 -1.421875 33.015625 -1.421875 
Q 20.359375 -1.421875 13.671875 8.265625 
Q 6.984375 17.96875 6.984375 36.375 
Q 6.984375 53.65625 15.1875 63.9375 
Q 23.390625 74.21875 37.203125 74.21875 
Q 40.921875 74.21875 44.703125 73.484375 
Q 48.484375 72.75 52.59375 71.296875 
" id="BitstreamVeraSans-Roman-36"/>
      </defs>
      <g transform="translate(258.365 75.31125)scale(0.12 -0.12)">
       <use xlink:href="#BitstreamVeraSans-Roman-36"/>
      </g>
     </g>
    </g>
   </g>
  </g>
 </g>
 <defs>
  <clipPath id="pd7ab6210e3">
   <rect height="576.0" width="1674.0" x="270.0" y="72.0"/>
  </clipPath>
 </defs>
</svg>
