<?xml version="1.0" encoding="utf-8" standalone="no"?>
<!DOCTYPE svg PUBLIC "-//W3C//DTD SVG 1.1//EN"
  "http://www.w3.org/Graphics/SVG/1.1/DTD/svg11.dtd">
<!-- Created with matplotlib (http://matplotlib.org/) -->
<svg height="720pt" version="1.1" viewBox="0 0 2160 720" width="2160pt" xmlns="http://www.w3.org/2000/svg" xmlns:xlink="http://www.w3.org/1999/xlink">
 <defs>
  <style type="text/css">
*{stroke-linecap:butt;stroke-linejoin:round;stroke-miterlimit:100000;}
  </style>
 </defs>
 <g id="figure_1">
  <g id="patch_1">
   <path d="M 0 720 
L 2160 720 
L 2160 0 
L 0 0 
z
" style="fill:#ffffff;"/>
  </g>
  <g id="axes_1">
   <g id="patch_2">
    <path d="M 270 648 
L 1944 648 
L 1944 72 
L 270 72 
z
" style="fill:#ffffff;"/>
   </g>
   <g id="line2d_1">
    <path clip-path="url(#pda8fe51f2c)" d="M 270 455.496913 
L 271.016393 459.494937 
L 272.032787 499.201862 
L 273.04918 545.789495 
L 274.065574 549.215565 
L 276.098361 500.81737 
L 277.114754 505.919022 
L 279.147541 268.680233 
L 280.163934 290.924728 
L 281.180328 294.278502 
L 282.196721 313.160523 
L 283.213115 318.075916 
L 284.229508 399.62499 
L 285.245902 398.867176 
L 286.262295 401.215983 
L 287.278689 447.7077 
L 288.295082 528.740442 
L 289.311475 499.506965 
L 290.327869 516.927415 
L 291.344262 521.058717 
L 292.360656 536.697726 
L 293.377049 522.454794 
L 294.393443 492.088498 
L 295.409836 527.366078 
L 296.42623 544.969855 
L 297.442623 568.185473 
L 298.459016 546.328731 
L 299.47541 502.455795 
L 300.491803 509.808975 
L 301.508197 457.57647 
L 302.52459 365.560544 
L 303.540984 363.178689 
L 304.557377 305.342344 
L 305.57377 269.987897 
L 307.606557 320.610219 
L 308.622951 301.122407 
L 309.639344 393.917085 
L 310.655738 454.119149 
L 311.672131 481.782968 
L 312.688525 515.272498 
L 313.704918 516.655812 
L 314.721311 480.656142 
L 315.737705 509.208851 
L 316.754098 493.590274 
L 318.786885 549.665788 
L 319.803279 548.438555 
L 320.819672 564.816952 
L 321.836066 584.542734 
L 322.852459 565.970107 
L 323.868852 513.928496 
L 324.885246 529.0874 
L 325.901639 481.061304 
L 326.918033 323.020805 
L 327.934426 346.31709 
L 328.95082 359.637871 
L 329.967213 362.123121 
L 330.983607 303.210219 
L 333.016393 378.484785 
L 334.032787 436.883325 
L 335.04918 472.991696 
L 336.065574 501.757522 
L 337.081967 521.606324 
L 338.098361 531.400681 
L 339.114754 532.153739 
L 340.131148 548.057085 
L 341.147541 550.840513 
L 342.163934 537.003352 
L 343.180328 561.627998 
L 344.196721 555.516777 
L 346.229508 579.709409 
L 347.245902 585.429605 
L 348.262295 567.829889 
L 349.278689 545.915443 
L 350.295082 513.345047 
L 351.311475 419.994454 
L 352.327869 386.790173 
L 353.344262 405.916769 
L 354.360656 391.237339 
L 355.377049 355.30104 
L 356.393443 398.68633 
L 357.409836 396.814175 
L 359.442623 490.387627 
L 360.459016 479.942933 
L 361.47541 530.842083 
L 362.491803 532.426768 
L 363.508197 542.54315 
L 364.52459 544.280903 
L 365.540984 541.291024 
L 366.557377 527.183902 
L 367.57377 538.287866 
L 368.590164 569.895511 
L 369.606557 561.416072 
L 370.622951 586.335252 
L 371.639344 584.645326 
L 373.672131 541.659071 
L 374.688525 514.69019 
L 375.704918 436.28694 
L 376.721311 418.450412 
L 377.737705 386.114532 
L 378.754098 327.60445 
L 379.770492 387.079362 
L 380.786885 365.642211 
L 381.803279 442.200603 
L 383.836066 474.131798 
L 384.852459 493.596212 
L 385.868852 517.756154 
L 386.885246 533.701021 
L 387.901639 544.695303 
L 388.918033 545.887205 
L 389.934426 556.169351 
L 390.95082 531.786244 
L 391.967213 539.960908 
L 392.983607 553.218719 
L 394 582.383567 
L 395.016393 593.414496 
L 397.04918 550.68186 
L 398.065574 539.654921 
L 399.081967 512.469926 
L 400.098361 417.824472 
L 401.114754 338.332132 
L 402.131148 395.440205 
L 403.147541 371.920742 
L 404.163934 371.060445 
L 405.180328 400.787842 
L 406.196721 453.018137 
L 407.213115 433.553001 
L 408.229508 474.759291 
L 409.245902 477.685095 
L 410.262295 508.993784 
L 411.278689 531.069439 
L 412.295082 548.314746 
L 413.311475 506.073714 
L 414.327869 544.74476 
L 415.344262 539.616755 
L 416.360656 546.637768 
L 417.377049 569.457555 
L 418.393443 588.73878 
L 419.409836 594.173337 
L 420.42623 588.626087 
L 421.442623 564.387977 
L 422.459016 554.495461 
L 423.47541 528.661125 
L 424.491803 451.965713 
L 425.508197 391.842555 
L 426.52459 387.96755 
L 427.540984 436.688277 
L 428.557377 424.591414 
L 429.57377 439.523851 
L 430.590164 479.915084 
L 431.606557 465.015618 
L 432.622951 492.978277 
L 433.639344 527.59118 
L 434.655738 538.427451 
L 435.672131 575.180041 
L 436.688525 561.341932 
L 437.704918 565.223087 
L 438.721311 566.011665 
L 439.737705 572.480449 
L 440.754098 570.81801 
L 441.770492 577.562093 
L 442.786885 580.346513 
L 443.803279 598.733303 
L 444.819672 594.93004 
L 445.836066 578.771333 
L 446.852459 572.000507 
L 447.868852 498.227561 
L 448.885246 394.941624 
L 449.901639 439.677304 
L 450.918033 410.756633 
L 451.934426 428.666613 
L 452.95082 434.743267 
L 453.967213 474.343735 
L 454.983607 499.576602 
L 456 492.848485 
L 457.016393 538.546951 
L 458.032787 528.774786 
L 459.04918 537.436818 
L 460.065574 552.366474 
L 461.081967 560.344324 
L 462.098361 551.248218 
L 463.114754 553.012353 
L 464.131148 561.46978 
L 465.147541 555.593115 
L 466.163934 572.721556 
L 467.180328 585.785556 
L 468.196721 594.962647 
L 470.229508 534.176981 
L 471.245902 537.979608 
L 472.262295 504.783791 
L 473.278689 408.415986 
L 474.295082 425.094896 
L 475.311475 421.250141 
L 476.327869 386.809791 
L 477.344262 370.780108 
L 478.360656 400.562828 
L 479.377049 452.191956 
L 480.393443 456.076745 
L 481.409836 478.355957 
L 482.42623 509.666493 
L 483.442623 544.468022 
L 484.459016 534.773429 
L 485.47541 556.143684 
L 486.491803 557.311611 
L 487.508197 551.245042 
L 488.52459 541.930783 
L 489.540984 550.027027 
L 491.57377 590.643724 
L 492.590164 594.185096 
L 493.606557 584.3318 
L 494.622951 541.375811 
L 495.639344 555.959897 
L 496.655738 522.820728 
L 497.672131 421.769233 
L 498.688525 418.897698 
L 499.704918 433.639229 
L 500.721311 409.849689 
L 501.737705 410.192445 
L 502.754098 441.990944 
L 503.770492 448.124728 
L 504.786885 467.344548 
L 505.803279 481.771015 
L 506.819672 492.028233 
L 507.836066 540.005546 
L 508.852459 554.938879 
L 509.868852 554.023929 
L 510.885246 561.769283 
L 511.901639 562.019976 
L 512.918033 572.907982 
L 513.934426 581.093054 
L 514.95082 580.341833 
L 515.967213 603.718119 
L 516.983607 608.53626 
L 518 604.392097 
L 519.016393 572.553402 
L 520.032787 565.09053 
L 521.04918 524.848329 
L 522.065574 442.423808 
L 523.081967 434.771061 
L 524.098361 415.824867 
L 525.114754 427.839124 
L 526.131148 447.167033 
L 527.147541 459.143222 
L 528.163934 497.341459 
L 529.180328 509.192013 
L 530.196721 528.405269 
L 531.213115 525.036921 
L 532.229508 545.775278 
L 533.245902 543.950375 
L 534.262295 553.067282 
L 535.278689 557.791527 
L 536.295082 558.038332 
L 537.311475 557.996669 
L 539.344262 575.00403 
L 540.360656 582.018487 
L 541.377049 598.025962 
L 542.393443 579.399095 
L 543.409836 579.227785 
L 544.42623 558.902921 
L 545.442623 565.004265 
L 546.459016 413.00668 
L 547.47541 419.821708 
L 548.491803 402.779908 
L 549.508197 389.138094 
L 550.52459 377.918222 
L 551.540984 411.052844 
L 552.557377 467.965555 
L 553.57377 471.728744 
L 554.590164 499.426676 
L 555.606557 508.844283 
L 556.622951 529.30852 
L 557.639344 539.96789 
L 558.655738 534.96958 
L 559.672131 531.003679 
L 560.688525 539.424735 
L 561.704918 542.169476 
L 562.721311 562.812165 
L 563.737705 568.747349 
L 564.754098 585.283252 
L 565.770492 592.924484 
L 566.786885 580.239365 
L 568.819672 537.819875 
L 569.836066 468.78787 
L 570.852459 413.780052 
L 571.868852 389.208054 
L 572.885246 425.047238 
L 573.901639 349.35785 
L 574.918033 380.317248 
L 575.934426 429.937895 
L 576.95082 429.448513 
L 577.967213 453.166978 
L 578.983607 450.018973 
L 580 493.597948 
L 581.016393 497.575654 
L 582.032787 522.714641 
L 583.04918 519.767372 
L 584.065574 550.837214 
L 585.081967 527.927122 
L 586.098361 523.864091 
L 587.114754 550.421189 
L 589.147541 585.676624 
L 590.163934 591.494781 
L 592.196721 526.608906 
L 593.213115 536.925579 
L 595.245902 410.978572 
L 596.262295 409.939728 
L 597.278689 432.218389 
L 598.295082 447.100192 
L 599.311475 362.65359 
L 600.327869 330.800766 
L 601.344262 377.017455 
L 602.360656 443.139339 
L 603.377049 455.497227 
L 604.393443 528.450443 
L 605.409836 498.792464 
L 606.42623 535.899796 
L 607.442623 543.942201 
L 608.459016 535.564605 
L 609.47541 540.079379 
L 610.491803 540.110387 
L 611.508197 558.241763 
L 612.52459 555.789777 
L 613.540984 583.230426 
L 614.557377 585.630833 
L 615.57377 567.549741 
L 616.590164 560.923176 
L 617.606557 536.977674 
L 618.622951 509.303542 
L 619.639344 427.621131 
L 620.655738 370.614456 
L 621.672131 427.434491 
L 622.688525 372.8 
L 623.704918 294.810423 
L 624.721311 393.093908 
L 625.737705 416.949132 
L 627.770492 445.975781 
L 628.786885 493.024897 
L 629.803279 578.892861 
L 630.819672 626.443255 
L 631.836066 536.683359 
L 632.852459 500.249176 
L 633.868852 544.638144 
L 634.885246 551.541193 
L 635.901639 428.195812 
L 636.918033 548.335782 
L 637.934426 559.782291 
L 638.95082 568.250301 
L 639.967213 621.748851 
L 640.983607 449.522883 
L 642 545.920487 
L 643.016393 453.367311 
L 644.032787 458.943263 
L 645.04918 393.65924 
L 646.065574 420.355904 
L 647.081967 416.879378 
L 648.098361 305.098297 
L 649.114754 362.414036 
L 650.131148 409.241052 
L 651.147541 421.250822 
L 652.163934 460.294886 
L 653.180328 481.314309 
L 654.196721 506.374725 
L 655.213115 513.813656 
L 656.229508 529.276863 
L 657.245902 535.521164 
L 658.262295 530.651255 
L 659.278689 523.073051 
L 660.295082 553.155004 
L 661.311475 553.520471 
L 662.327869 568.48182 
L 663.344262 579.187626 
L 664.360656 545.339578 
L 665.377049 543.565987 
L 666.393443 535.481207 
L 667.409836 481.495168 
L 668.42623 447.746308 
L 669.442623 444.230188 
L 670.459016 384.641297 
L 671.47541 367.329516 
L 672.491803 353.775129 
L 673.508197 373.984913 
L 674.52459 369.430617 
L 675.540984 395.597149 
L 676.557377 457.549799 
L 677.57377 481.46422 
L 678.590164 509.50933 
L 679.606557 524.655329 
L 680.622951 518.159156 
L 681.639344 532.923381 
L 682.655738 535.506466 
L 683.672131 557.81471 
L 684.688525 539.912051 
L 685.704918 570.440597 
L 687.737705 581.505566 
L 688.754098 581.076728 
L 689.770492 577.933874 
L 690.786885 558.29815 
L 691.803279 494.572615 
L 692.819672 398.105075 
L 693.836066 430.295145 
L 694.852459 406.645843 
L 695.868852 362.796207 
L 696.885246 447.945953 
L 697.901639 428.615242 
L 699.934426 460.155662 
L 700.95082 376.5065 
L 701.967213 493.54074 
L 702.983607 540.320316 
L 704 529.656455 
L 705.016393 548.102775 
L 706.032787 538.440113 
L 707.04918 548.189116 
L 708.065574 550.959953 
L 709.081967 547.415602 
L 710.098361 559.636227 
L 711.114754 563.650293 
L 712.131148 572.840074 
L 713.147541 566.505539 
L 714.163934 545.433699 
L 715.180328 500.193718 
L 716.196721 548.981668 
L 717.213115 463.241685 
L 718.229508 414.863208 
L 719.245902 386.956121 
L 720.262295 401.900161 
L 721.278689 401.007505 
L 722.295082 462.201364 
L 723.311475 504.373123 
L 724.327869 423.617594 
L 725.344262 501.149087 
L 727.377049 538.164372 
L 728.393443 466.809677 
L 729.409836 541.132626 
L 730.42623 533.100335 
L 731.442623 546.812396 
L 732.459016 548.534402 
L 733.47541 560.077808 
L 734.491803 563.830592 
L 735.508197 576.440414 
L 736.52459 584.053867 
L 737.540984 574.882368 
L 738.557377 554.815009 
L 739.57377 538.408047 
L 740.590164 495.440654 
L 741.606557 471.005181 
L 742.622951 404.664485 
L 743.639344 419.998513 
L 744.655738 411.155574 
L 745.672131 415.665538 
L 746.688525 395.902328 
L 747.704918 468.258339 
L 748.721311 504.513193 
L 749.737705 547.561002 
L 750.754098 458.235725 
L 751.770492 529.223178 
L 752.786885 551.304362 
L 753.803279 539.237794 
L 754.819672 544.055231 
L 755.836066 543.446921 
L 756.852459 514.073404 
L 757.868852 563.135966 
L 758.885246 573.242937 
L 759.901639 567.405797 
L 760.918033 578.237128 
L 761.934426 570.090727 
L 763.967213 539.939029 
L 764.983607 501.405537 
L 766 517.155607 
L 767.016393 487.754454 
L 768.032787 407.672227 
L 769.04918 458.731053 
L 770.065574 317.420078 
L 771.081967 385.660092 
L 772.098361 423.192168 
L 774.131148 453.363754 
L 775.147541 481.217104 
L 776.163934 477.151225 
L 777.180328 493.742685 
L 778.196721 505.297446 
L 779.213115 499.009284 
L 780.229508 513.916627 
L 781.245902 516.893497 
L 782.262295 544.21996 
L 783.278689 542.900884 
L 784.295082 559.026138 
L 785.311475 571.003008 
L 786.327869 537.776952 
L 787.344262 546.288367 
L 788.360656 534.24446 
L 789.377049 511.164092 
L 790.393443 409.534305 
L 791.409836 448.95228 
L 792.42623 331.939671 
L 793.442623 419.038576 
L 794.459016 361.561499 
L 795.47541 402.131918 
L 796.491803 412.139628 
L 797.508197 467.073203 
L 798.52459 487.003879 
L 799.540984 488.915401 
L 800.557377 489.137946 
L 801.57377 568.418599 
L 802.590164 458.781151 
L 803.606557 510.961428 
L 804.622951 510.995229 
L 805.639344 512.20362 
L 806.655738 520.927612 
L 807.672131 506.834232 
L 808.688525 545.193963 
L 809.704918 561.274235 
L 810.721311 518.304481 
L 811.737705 517.503229 
L 812.754098 540.205232 
L 814.786885 411.116275 
L 815.803279 414.35818 
L 816.819672 403.292911 
L 817.836066 356.844897 
L 818.852459 350.170393 
L 819.868852 390.327564 
L 820.885246 365.627147 
L 821.901639 398.375679 
L 822.918033 452.27664 
L 823.934426 494.249703 
L 824.95082 502.514025 
L 825.967213 524.78734 
L 826.983607 537.767586 
L 828 552.304261 
L 829.016393 550.004749 
L 830.032787 551.488623 
L 831.04918 546.529845 
L 832.065574 564.399538 
L 833.081967 586.251072 
L 834.098361 593.630588 
L 835.114754 554.894698 
L 836.131148 546.248608 
L 837.147541 560.60775 
L 838.163934 511.016358 
L 839.180328 509.02266 
L 840.196721 440.105496 
L 841.213115 439.551499 
L 842.229508 356.471594 
L 843.245902 383.146588 
L 844.262295 401.40576 
L 845.278689 371.535196 
L 847.311475 473.535017 
L 848.327869 507.36702 
L 849.344262 516.341714 
L 850.360656 545.977979 
L 851.377049 545.51423 
L 852.393443 552.70979 
L 853.409836 556.318678 
L 854.42623 563.21287 
L 855.442623 562.525026 
L 856.459016 583.033435 
L 857.47541 593.21155 
L 858.491803 597.806525 
L 859.508197 578.761482 
L 860.52459 566.172411 
L 861.540984 574.339564 
L 862.557377 556.790286 
L 863.57377 467.854589 
L 864.590164 480.9878 
L 865.606557 460.581932 
L 867.639344 441.463057 
L 868.655738 444.33176 
L 869.672131 430.713444 
L 870.688525 434.150191 
L 871.704918 572.328021 
L 872.721311 455.565346 
L 873.737705 532.203025 
L 874.754098 566.550203 
L 875.770492 535.123199 
L 876.786885 551.561644 
L 877.803279 550.086964 
L 878.819672 549.533942 
L 879.836066 579.416949 
L 880.852459 432.543189 
L 881.868852 581.111067 
L 882.885246 586.206718 
L 883.901639 586.28514 
L 884.918033 569.893116 
L 885.934426 647.527694 
L 886.95082 531.406669 
L 887.967213 464.408184 
L 888.983607 489.674496 
L 890 396.778689 
L 892.032787 456.401823 
L 893.04918 465.813267 
L 894.065574 446.451906 
L 895.081967 503.558311 
L 896.098361 513.455221 
L 897.114754 526.310311 
L 898.131148 523.483908 
L 899.147541 554.954671 
L 900.163934 543.070085 
L 901.180328 553.92096 
L 902.196721 557.897533 
L 903.213115 553.713059 
L 904.229508 563.436042 
L 906.262295 578.165371 
L 907.278689 596.374686 
L 909.311475 547.402878 
L 910.327869 576.638645 
L 911.344262 547.434318 
L 912.360656 506.371509 
L 913.377049 474.44536 
L 914.393443 437.008202 
L 915.409836 412.092101 
L 916.42623 435.544835 
L 917.442623 432.883031 
L 918.459016 437.434547 
L 919.47541 468.452903 
L 920.491803 465.829387 
L 921.508197 493.663837 
L 922.52459 488.969202 
L 923.540984 523.494123 
L 924.557377 524.81422 
L 925.57377 539.985748 
L 926.590164 531.023327 
L 927.606557 545.554542 
L 928.622951 577.183432 
L 929.639344 541.861144 
L 930.655738 572.608058 
L 931.672131 582.796941 
L 932.688525 579.488643 
L 933.704918 550.467263 
L 934.721311 570.168956 
L 935.737705 630.907665 
L 936.754098 399.409303 
L 937.770492 470.088367 
L 938.786885 354.000247 
L 939.803279 418.446479 
L 940.819672 433.665819 
L 941.836066 446.577452 
L 942.852459 454.014788 
L 943.868852 466.215713 
L 944.885246 646.43276 
L 945.901639 646.522383 
L 946.918033 429.522871 
L 947.934426 505.062588 
L 948.95082 550.964123 
L 949.967213 532.101985 
L 950.983607 541.937156 
L 952 539.897523 
L 954.032787 553.755965 
L 955.04918 577.09341 
L 956.065574 583.670488 
L 957.081967 580.313502 
L 958.098361 566.896588 
L 959.114754 571.769695 
L 960.131148 540.5887 
L 961.147541 428.424918 
L 962.163934 409.386919 
L 963.180328 422.662005 
L 964.196721 410.265746 
L 965.213115 424.543167 
L 966.229508 392.663545 
L 967.245902 430.511296 
L 968.262295 442.701032 
L 969.278689 565.235919 
L 970.295082 444.621635 
L 971.311475 519.865105 
L 972.327869 522.982211 
L 973.344262 617.919143 
L 974.360656 486.992802 
L 975.377049 542.206241 
L 976.393443 516.943607 
L 977.409836 538.046731 
L 978.42623 547.514922 
L 979.442623 573.678783 
L 980.459016 565.695185 
L 981.47541 550.16732 
L 982.491803 504.857546 
L 983.508197 536.190911 
L 984.52459 517.574301 
L 985.540984 467.576779 
L 986.557377 466.830942 
L 987.57377 437.022584 
L 988.590164 370.763135 
L 989.606557 419.975088 
L 990.622951 378.459006 
L 991.639344 429.635843 
L 992.655738 450.807577 
L 993.672131 499.182965 
L 994.688525 495.007387 
L 995.704918 493.137823 
L 996.721311 521.711948 
L 997.737705 532.844094 
L 998.754098 529.747702 
L 999.770492 535.262167 
L 1000.786885 535.050382 
L 1001.803279 523.718075 
L 1003.836066 566.929232 
L 1004.852459 582.623758 
L 1006.885246 524.208152 
L 1007.901639 546.179564 
L 1008.918033 526.263945 
L 1009.934426 513.409867 
L 1010.95082 487.194709 
L 1011.967213 491.773025 
L 1012.983607 418.411258 
L 1014 445.243117 
L 1015.016393 442.51565 
L 1016.032787 429.807562 
L 1017.04918 439.442389 
L 1018.065574 467.201735 
L 1019.081967 515.204213 
L 1020.098361 536.999333 
L 1021.114754 537.387608 
L 1022.131148 541.575128 
L 1023.147541 577.299608 
L 1024.163934 517.454625 
L 1025.180328 559.560205 
L 1026.196721 559.749634 
L 1027.213115 577.680664 
L 1028.229508 582.499476 
L 1029.245902 605.862831 
L 1030.262295 593.494339 
L 1031.278689 588.620046 
L 1032.295082 576.282246 
L 1033.311475 542.949726 
L 1034.327869 474.473288 
L 1035.344262 548.064869 
L 1036.360656 413.473331 
L 1037.377049 404.05796 
L 1038.393443 449.697496 
L 1039.409836 432.947818 
L 1040.42623 475.314158 
L 1041.442623 467.230593 
L 1042.459016 509.244591 
L 1043.47541 496.179485 
L 1044.491803 492.658652 
L 1045.508197 523.571854 
L 1046.52459 537.920322 
L 1047.540984 543.751328 
L 1048.557377 550.614159 
L 1049.57377 555.569765 
L 1050.590164 563.89937 
L 1051.606557 585.582136 
L 1052.622951 565.198228 
L 1053.639344 598.713769 
L 1054.655738 589.035386 
L 1055.672131 569.85841 
L 1056.688525 565.554016 
L 1058.721311 455.450782 
L 1059.737705 421.462486 
L 1060.754098 433.394737 
L 1061.770492 369.072417 
L 1062.786885 425.160217 
L 1063.803279 409.809677 
L 1064.819672 430.992886 
L 1065.836066 439.768332 
L 1067.868852 485.598599 
L 1068.885246 499.638203 
L 1069.901639 508.442725 
L 1070.918033 501.211526 
L 1071.934426 495.707506 
L 1072.95082 505.34158 
L 1073.967213 534.828869 
L 1074.983607 557.622252 
L 1076 565.686026 
L 1077.016393 583.682505 
L 1078.032787 598.680005 
L 1079.04918 586.438749 
L 1080.065574 564.314117 
L 1081.081967 574.207771 
L 1082.098361 540.150427 
L 1083.114754 474.015318 
L 1084.131148 554.651766 
L 1085.147541 315.86106 
L 1086.163934 423.26442 
L 1087.180328 434.868509 
L 1088.196721 413.528578 
L 1089.213115 430.4761 
L 1090.229508 449.543168 
L 1091.245902 466.364825 
L 1092.262295 508.722021 
L 1093.278689 519.690206 
L 1094.295082 496.099439 
L 1095.311475 522.858295 
L 1096.327869 534.59631 
L 1097.344262 536.022813 
L 1099.377049 572.106542 
L 1100.393443 573.649795 
L 1101.409836 586.475512 
L 1102.42623 601.435571 
L 1103.442623 588.242378 
L 1104.459016 583.563594 
L 1105.47541 587.846156 
L 1106.491803 537.985361 
L 1107.508197 405.166632 
L 1108.52459 435.158189 
L 1109.540984 447.383715 
L 1110.557377 391.448276 
L 1111.57377 384.117642 
L 1112.590164 422.100026 
L 1114.622951 450.130451 
L 1115.639344 466.926557 
L 1116.655738 514.797816 
L 1117.672131 500.566228 
L 1118.688525 527.058245 
L 1119.704918 524.356397 
L 1121.737705 533.233003 
L 1122.754098 541.564134 
L 1123.770492 565.589314 
L 1124.786885 572.288304 
L 1125.803279 587.094657 
L 1126.819672 599.950878 
L 1127.836066 585.841081 
L 1128.852459 556.371809 
L 1129.868852 559.444486 
L 1131.901639 405.366727 
L 1132.918033 381.07358 
L 1133.934426 423.743275 
L 1134.95082 375.818015 
L 1135.967213 430.600573 
L 1136.983607 409.729713 
L 1138 422.10387 
L 1139.016393 442.776183 
L 1141.04918 488.258682 
L 1142.065574 518.884433 
L 1143.081967 516.469357 
L 1144.098361 527.183258 
L 1145.114754 532.296787 
L 1146.131148 529.815908 
L 1147.147541 544.355362 
L 1148.163934 528.024088 
L 1149.180328 571.724178 
L 1150.196721 581.974624 
L 1151.213115 553.170406 
L 1153.245902 464.826697 
L 1154.262295 516.485931 
L 1155.278689 407.831502 
L 1156.295082 369.313285 
L 1157.311475 441.576575 
L 1158.327869 446.27347 
L 1159.344262 391.336524 
L 1160.360656 287.501455 
L 1161.377049 395.46221 
L 1162.393443 378.986327 
L 1163.409836 453.175873 
L 1164.42623 433.148548 
L 1165.442623 470.423122 
L 1166.459016 480.388704 
L 1167.47541 503.668399 
L 1168.491803 481.920221 
L 1169.508197 499.11204 
L 1170.52459 458.511807 
L 1171.540984 499.727898 
L 1172.557377 503.937419 
L 1173.57377 524.168674 
L 1174.590164 542.096573 
L 1175.606557 545.389305 
L 1176.622951 525.271001 
L 1177.639344 489.751941 
L 1178.655738 520.471558 
L 1179.672131 435.786869 
L 1180.688525 309.45918 
L 1181.704918 412.98354 
L 1182.721311 373.933631 
L 1183.737705 539.057194 
L 1184.754098 347.757077 
L 1185.770492 365.96777 
L 1186.786885 410.655189 
L 1187.803279 414.854652 
L 1188.819672 483.23633 
L 1189.836066 491.228301 
L 1190.852459 506.035466 
L 1191.868852 525.300604 
L 1192.885246 518.972043 
L 1193.901639 562.508648 
L 1194.918033 550.323734 
L 1196.95082 571.957692 
L 1197.967213 577.405819 
L 1200 602.922192 
L 1201.016393 587.630246 
L 1202.032787 564.521681 
L 1203.04918 569.093406 
L 1204.065574 498.680013 
L 1205.081967 389.414141 
L 1206.098361 442.922381 
L 1207.114754 405.70659 
L 1208.131148 339.611717 
L 1209.147541 382.918565 
L 1210.163934 419.91627 
L 1211.180328 413.735712 
L 1212.196721 438.144346 
L 1214.229508 498.821738 
L 1216.262295 502.331562 
L 1217.278689 558.965864 
L 1218.295082 538.346702 
L 1219.311475 538.085299 
L 1220.327869 540.264306 
L 1221.344262 568.030864 
L 1222.360656 582.459616 
L 1223.377049 584.916117 
L 1224.393443 590.068401 
L 1225.409836 591.230266 
L 1226.42623 569.964313 
L 1227.442623 562.470701 
L 1228.459016 502.150545 
L 1229.47541 383.621027 
L 1230.491803 436.315115 
L 1231.508197 393.567286 
L 1232.52459 424.904441 
L 1233.540984 417.255887 
L 1234.557377 437.518086 
L 1235.57377 482.773138 
L 1236.590164 569.176553 
L 1237.606557 431.359415 
L 1238.622951 413.508763 
L 1239.639344 503.212316 
L 1240.655738 522.074177 
L 1241.672131 517.885605 
L 1242.688525 524.260601 
L 1243.704918 506.992507 
L 1244.721311 551.087113 
L 1245.737705 561.171075 
L 1246.754098 560.044097 
L 1248.786885 589.608372 
L 1249.803279 584.264376 
L 1252.852459 500.483471 
L 1253.868852 478.062338 
L 1254.885246 399.711096 
L 1255.901639 428.574209 
L 1256.918033 385.698584 
L 1257.934426 431.861836 
L 1258.95082 416.467093 
L 1259.967213 414.853553 
L 1260.983607 366.011041 
L 1263.016393 192.887654 
L 1264.032787 332.500456 
L 1265.04918 560.442841 
L 1266.065574 547.139318 
L 1267.081967 487.028712 
L 1268.098361 504.937474 
L 1269.114754 533.451095 
L 1271.147541 558.756527 
L 1272.163934 573.707484 
L 1273.180328 582.404425 
L 1274.196721 571.089229 
L 1275.213115 546.801372 
L 1276.229508 510.612372 
L 1277.245902 438.340274 
L 1278.262295 426.506502 
L 1279.278689 371.175258 
L 1280.295082 322.176539 
L 1281.311475 387.30993 
L 1282.327869 335.111848 
L 1283.344262 400.646507 
L 1284.360656 375.445233 
L 1285.377049 419.369487 
L 1286.393443 451.093373 
L 1287.409836 470.297003 
L 1288.42623 630.684773 
L 1289.442623 492.576021 
L 1290.459016 483.282852 
L 1291.47541 457.342351 
L 1292.491803 496.545713 
L 1293.508197 503.306504 
L 1295.540984 535.97917 
L 1296.557377 554.662672 
L 1297.57377 581.449062 
L 1298.590164 545.745396 
L 1299.606557 523.780416 
L 1300.622951 528.229954 
L 1301.639344 515.127448 
L 1302.655738 143.307612 
L 1303.672131 383.634356 
L 1304.688525 381.297933 
L 1305.704918 355.207412 
L 1306.721311 370.641509 
L 1307.737705 364.670935 
L 1308.754098 382.643939 
L 1309.770492 412.2248 
L 1310.786885 451.075987 
L 1311.803279 485.234129 
L 1312.819672 510.695663 
L 1313.836066 492.678482 
L 1314.852459 501.702408 
L 1315.868852 525.176452 
L 1316.885246 529.340201 
L 1317.901639 527.932399 
L 1318.918033 527.066948 
L 1319.934426 524.055056 
L 1320.95082 539.512541 
L 1321.967213 571.645931 
L 1322.983607 546.717353 
L 1325.016393 512.299347 
L 1326.032787 444.132557 
L 1327.04918 387.208934 
L 1328.065574 352.2 
L 1329.081967 333.868646 
L 1330.098361 342.805195 
L 1331.114754 253.811468 
L 1332.131148 243.761018 
L 1333.147541 296.816691 
L 1334.163934 388.336958 
L 1336.196721 468.341489 
L 1337.213115 494.752716 
L 1338.229508 500.608573 
L 1339.245902 516.774642 
L 1340.262295 522.827367 
L 1341.278689 510.317243 
L 1342.295082 514.2531 
L 1343.311475 501.181069 
L 1344.327869 509.871525 
L 1345.344262 519.956806 
L 1346.360656 522.470751 
L 1347.377049 513.602813 
L 1348.393443 476.184418 
L 1349.409836 458.372223 
L 1350.42623 401.02982 
L 1351.442623 392.371117 
L 1352.459016 419.437234 
L 1353.47541 358.866159 
L 1354.491803 338.420969 
L 1355.508197 313.033841 
L 1356.52459 312.664113 
L 1357.540984 309.582775 
L 1358.557377 351.645913 
L 1360.590164 454.139959 
L 1361.606557 468.202213 
L 1362.622951 511.098595 
L 1363.639344 524.006957 
L 1364.655738 529.326967 
L 1365.672131 526.838738 
L 1366.688525 544.770554 
L 1367.704918 542.74926 
L 1368.721311 523.203124 
L 1369.737705 594.016473 
L 1370.754098 585.652844 
L 1371.770492 559.50295 
L 1372.786885 508.036611 
L 1373.803279 477.750208 
L 1374.819672 470.546911 
L 1375.836066 352.248597 
L 1376.852459 373.706228 
L 1377.868852 373.771249 
L 1378.885246 281.678223 
L 1379.901639 387.75196 
L 1380.918033 348.402591 
L 1381.934426 370.61766 
L 1382.95082 324.29372 
L 1383.967213 424.488791 
L 1384.983607 466.017963 
L 1386 466.749231 
L 1387.016393 506.385786 
L 1388.032787 506.697146 
L 1389.04918 510.315884 
L 1392.098361 339.327624 
L 1393.114754 594.511927 
L 1394.131148 567.709305 
L 1395.147541 582.541581 
L 1396.163934 562.456055 
L 1397.180328 545.396237 
L 1398.196721 531.017172 
L 1399.213115 457.118077 
L 1400.229508 374.465964 
L 1401.245902 352.477258 
L 1402.262295 376.735187 
L 1403.278689 336.180524 
L 1404.295082 319.391124 
L 1405.311475 336.225765 
L 1406.327869 282.454197 
L 1407.344262 385.085852 
L 1408.360656 448.845185 
L 1409.377049 482.039771 
L 1410.393443 508.781898 
L 1411.409836 507.988782 
L 1412.42623 527.077445 
L 1413.442623 526.300237 
L 1414.459016 536.2554 
L 1415.47541 543.635627 
L 1416.491803 534.784172 
L 1417.508197 554.250093 
L 1418.52459 554.063295 
L 1419.540984 550.067451 
L 1420.557377 577.071167 
L 1421.57377 519.351839 
L 1422.590164 520.463726 
L 1423.606557 456.571232 
L 1424.622951 428.433491 
L 1425.639344 335.034067 
L 1426.655738 369.092869 
L 1427.672131 415.413236 
L 1428.688525 402.836881 
L 1429.704918 382.776347 
L 1430.721311 394.100645 
L 1431.737705 408.288293 
L 1432.754098 434.772782 
L 1433.770492 482.035712 
L 1434.786885 477.020338 
L 1435.803279 472.602466 
L 1436.819672 502.097018 
L 1437.836066 497.894035 
L 1438.852459 520.731896 
L 1439.868852 550.126304 
L 1440.885246 551.123464 
L 1441.901639 563.359544 
L 1442.918033 567.296933 
L 1443.934426 587.45554 
L 1444.95082 576.687246 
L 1445.967213 558.80123 
L 1446.983607 555.94127 
L 1448 476.328544 
L 1449.016393 377.400696 
L 1450.032787 349.663016 
L 1451.04918 335.27664 
L 1452.065574 382.889806 
L 1453.081967 378.519367 
L 1454.098361 421.271003 
L 1455.114754 428.371999 
L 1456.131148 400.88703 
L 1457.147541 436.365889 
L 1458.163934 437.388944 
L 1459.180328 463.396089 
L 1460.196721 484.862366 
L 1461.213115 514.239005 
L 1462.229508 509.377341 
L 1463.245902 519.702665 
L 1464.262295 540.529792 
L 1465.278689 550.362815 
L 1466.295082 563.801687 
L 1467.311475 567.947928 
L 1468.327869 588.154141 
L 1469.344262 554.977061 
L 1470.360656 555.236474 
L 1471.377049 531.943395 
L 1472.393443 423.058067 
L 1473.409836 370.448839 
L 1474.42623 333.768732 
L 1475.442623 363.648177 
L 1476.459016 344.257491 
L 1477.47541 333.749728 
L 1478.491803 234.983089 
L 1479.508197 374.938963 
L 1480.52459 384.57875 
L 1482.557377 490.850331 
L 1483.57377 509.887781 
L 1484.590164 487.806483 
L 1485.606557 519.609042 
L 1486.622951 526.543499 
L 1487.639344 513.948859 
L 1488.655738 537.377037 
L 1489.672131 543.574431 
L 1490.688525 541.412931 
L 1491.704918 561.021067 
L 1492.721311 577.614537 
L 1493.737705 563.65941 
L 1494.754098 526.331223 
L 1495.770492 541.637644 
L 1496.786885 454.739408 
L 1497.803279 389.703157 
L 1498.819672 390.014909 
L 1499.836066 380.924191 
L 1500.852459 378.889879 
L 1501.868852 297.36835 
L 1503.901639 341.858332 
L 1504.918033 412.438878 
L 1505.934426 432.259769 
L 1506.95082 496.56563 
L 1507.967213 514.377177 
L 1508.983607 534.571551 
L 1510 535.077855 
L 1511.016393 542.154183 
L 1512.032787 536.420876 
L 1513.04918 532.621863 
L 1514.065574 554.370046 
L 1515.081967 542.683467 
L 1516.098361 574.040385 
L 1517.114754 588.431101 
L 1518.131148 570.686797 
L 1519.147541 540.318773 
L 1520.163934 551.46925 
L 1521.180328 490.612552 
L 1522.196721 365.844749 
L 1523.213115 412.58601 
L 1524.229508 396.655479 
L 1525.245902 359.254497 
L 1526.262295 402.040528 
L 1527.278689 393.371422 
L 1528.295082 411.266243 
L 1529.311475 419.513471 
L 1530.327869 491.640068 
L 1531.344262 522.242566 
L 1532.360656 541.783056 
L 1533.377049 546.944764 
L 1534.393443 551.215973 
L 1535.409836 558.24909 
L 1536.42623 562.91426 
L 1537.442623 563.519607 
L 1538.459016 575.334992 
L 1539.47541 582.586886 
L 1540.491803 594.909381 
L 1541.508197 596.92455 
L 1542.52459 588.65815 
L 1543.540984 564.465385 
L 1544.557377 572.557669 
L 1545.57377 506.663765 
L 1546.590164 327.754362 
L 1547.606557 391.551172 
L 1549.639344 394.601978 
L 1550.655738 400.43442 
L 1551.672131 381.133403 
L 1552.688525 398.40967 
L 1553.704918 458.571782 
L 1554.721311 468.682959 
L 1555.737705 504.682035 
L 1556.754098 500.316425 
L 1557.770492 484.4046 
L 1558.786885 486.94244 
L 1559.803279 482.092225 
L 1560.819672 516.908586 
L 1561.836066 573.557076 
L 1562.852459 588.937664 
L 1563.868852 571.174838 
L 1564.885246 607.024046 
L 1565.901639 604.839269 
L 1566.918033 589.593883 
L 1567.934426 565.702071 
L 1568.95082 533.548549 
L 1569.967213 464.957046 
L 1570.983607 254.173254 
L 1572 277.187726 
L 1574.032787 353.55052 
L 1575.04918 373.058597 
L 1576.065574 381.389036 
L 1577.081967 328.609155 
L 1579.114754 517.310199 
L 1580.131148 491.03052 
L 1581.147541 508.565046 
L 1582.163934 513.973325 
L 1583.180328 535.994369 
L 1584.196721 539.372494 
L 1585.213115 523.97829 
L 1586.229508 563.083934 
L 1587.245902 530.370154 
L 1588.262295 565.101517 
L 1589.278689 582.350943 
L 1590.295082 601.607507 
L 1591.311475 590.900833 
L 1593.344262 552.018973 
L 1595.377049 391.810045 
L 1596.393443 296.206979 
L 1597.409836 449.7719 
L 1598.42623 384.410764 
L 1599.442623 451.924959 
L 1599.442623 426.362628 
L 1600.459016 414.344307 
L 1601.47541 435.05741 
L 1602.491803 458.312168 
L 1603.508197 497.822859 
L 1604.52459 475.510474 
L 1605.540984 459.112444 
L 1606.557377 482.403442 
L 1607.57377 518.695387 
L 1608.590164 452.345391 
L 1609.606557 564.897952 
L 1610.622951 544.267654 
L 1611.639344 563.553127 
L 1612.655738 566.861492 
L 1613.672131 577.052381 
L 1614.688525 597.299009 
L 1615.704918 647.815198 
L 1616.721311 426.575224 
L 1617.737705 536.029622 
L 1618.754098 423.112272 
L 1619.770492 369.011109 
L 1620.786885 343.382875 
L 1622.819672 410.94904 
L 1623.836066 403.09997 
L 1624.852459 360.536786 
L 1625.868852 422.054516 
L 1626.885246 413.778971 
L 1627.901639 451.462126 
L 1628.918033 456.922139 
L 1629.934426 513.508069 
L 1630.95082 532.301063 
L 1631.967213 464.705649 
L 1632.983607 530.192362 
L 1634 535.432646 
L 1635.016393 548.918054 
L 1636.032787 565.23384 
L 1637.04918 571.56386 
L 1638.065574 573.46645 
L 1639.081967 591.142266 
L 1640.098361 532.526623 
L 1641.114754 539.780157 
L 1642.131148 514.046125 
L 1643.147541 375.577626 
L 1644.163934 378.598391 
L 1645.180328 340.11006 
L 1646.196721 254.335973 
L 1647.213115 411.175897 
L 1648.229508 384.968386 
L 1649.245902 349.392331 
L 1650.262295 402.201543 
L 1651.278689 404.535837 
L 1652.295082 413.227723 
L 1653.311475 444.360115 
L 1654.327869 449.899107 
L 1655.344262 484.793861 
L 1656.360656 491.110188 
L 1657.377049 513.299597 
L 1658.393443 526.900838 
L 1659.409836 508.030656 
L 1660.42623 544.590272 
L 1661.442623 542.274751 
L 1662.459016 558.37582 
L 1663.47541 563.414874 
L 1664.491803 536.752524 
L 1665.508197 515.862574 
L 1666.52459 521.102168 
L 1667.540984 455.847282 
L 1668.557377 349.178101 
L 1669.57377 344.044954 
L 1670.590164 335.978462 
L 1671.606557 295.675923 
L 1672.622951 360.868655 
L 1673.639344 343.912033 
L 1674.655738 419.896535 
L 1675.672131 425.558181 
L 1676.688525 462.612366 
L 1677.704918 490.11228 
L 1678.721311 493.276039 
L 1679.737705 496.992948 
L 1680.754098 504.502953 
L 1681.770492 506.843326 
L 1682.786885 529.727308 
L 1683.803279 534.74391 
L 1684.819672 548.336527 
L 1685.836066 566.885478 
L 1686.852459 580.110943 
L 1687.868852 587.238871 
L 1688.885246 560.089177 
L 1689.901639 551.030201 
L 1690.918033 525.121625 
L 1691.934426 508.207943 
L 1692.95082 388.618318 
L 1693.967213 395.009981 
L 1694.983607 384.002152 
L 1696 383.137621 
L 1697.016393 360.300963 
L 1698.032787 379.397568 
L 1699.04918 402.354015 
L 1700.065574 444.921862 
L 1701.081967 473.288487 
L 1703.114754 520.11329 
L 1704.131148 532.882191 
L 1705.147541 555.164461 
L 1706.163934 547.969081 
L 1707.180328 545.684307 
L 1708.196721 560.300288 
L 1709.213115 576.634992 
L 1710.229508 589.115826 
L 1711.245902 595.592671 
L 1712.262295 605.143077 
L 1713.278689 588.204026 
L 1714.295082 563.34501 
L 1715.311475 550.96682 
L 1716.327869 488.166181 
L 1717.344262 391.416501 
L 1718.360656 337.838181 
L 1719.377049 323.264581 
L 1720.393443 413.096066 
L 1721.409836 455.067457 
L 1722.42623 384.173679 
L 1723.442623 439.643935 
L 1724.459016 439.175066 
L 1725.47541 440.816451 
L 1726.491803 489.380654 
L 1727.508197 503.13131 
L 1728.52459 479.543353 
L 1729.540984 526.930132 
L 1730.557377 532.278151 
L 1731.57377 532.037261 
L 1732.590164 513.087134 
L 1733.606557 548.864404 
L 1734.622951 574.721392 
L 1736.655738 595.27495 
L 1737.672131 524.872752 
L 1738.688525 498.505903 
L 1739.704918 511.852698 
L 1740.721311 435.537538 
L 1741.737705 336.920408 
L 1742.754098 268.151085 
L 1743.770492 447.175376 
L 1744.786885 432.747071 
L 1745.803279 438.868268 
L 1746.819672 437.112335 
L 1747.836066 491.084976 
L 1748.852459 433.164145 
L 1749.868852 423.233551 
L 1750.885246 474.100851 
L 1751.901639 478.173552 
L 1752.918033 476.784001 
L 1753.934426 477.915824 
L 1754.95082 503.604728 
L 1755.967213 525.179364 
L 1756.983607 521.403584 
L 1758 531.968019 
L 1759.016393 557.960518 
L 1760.032787 570.113156 
L 1761.04918 578.699195 
L 1762.065574 536.995174 
L 1763.081967 428.682409 
L 1764.098361 489.969127 
L 1765.114754 457.546379 
L 1766.131148 349.752738 
L 1767.147541 391.712887 
L 1768.163934 390.107031 
L 1769.180328 431.982458 
L 1770.196721 371.897301 
L 1771.213115 438.729122 
L 1772.229508 416.27444 
L 1773.245902 458.525652 
L 1774.262295 445.842532 
L 1775.278689 474.555424 
L 1776.295082 451.74916 
L 1777.311475 411.210938 
L 1778.327869 412.226447 
L 1779.344262 410.854493 
L 1780.360656 483.51612 
L 1781.377049 482.842177 
L 1782.393443 544.10445 
L 1783.409836 553.145916 
L 1784.42623 572.373357 
L 1785.442623 585.862904 
L 1787.47541 448.839876 
L 1788.491803 438.528222 
L 1789.508197 402.893617 
L 1790.52459 327.679409 
L 1791.540984 319.940741 
L 1792.557377 294.321413 
L 1794.590164 446.185448 
L 1795.606557 394.286322 
L 1796.622951 450.096821 
L 1797.639344 412.396389 
L 1798.655738 442.285021 
L 1799.672131 482.80366 
L 1800.688525 473.766799 
L 1822.032787 506.521917 
L 1823.04918 415.065654 
L 1824.065574 450.353732 
L 1825.081967 451.045618 
L 1826.098361 474.510455 
L 1827.114754 489.140538 
L 1828.131148 515.31248 
L 1829.147541 507.986739 
L 1830.163934 503.138549 
L 1831.180328 508.023724 
L 1832.196721 514.582467 
L 1833.213115 528.898955 
L 1834.229508 566.63438 
L 1835.245902 528.148612 
L 1836.262295 463.05618 
L 1837.278689 463.364996 
L 1838.295082 467.426803 
L 1839.311475 370.470191 
L 1840.327869 297.630629 
L 1842.360656 353.980793 
L 1843.377049 340.10599 
L 1844.393443 365.472608 
L 1845.409836 374.210013 
L 1847.442623 465.72427 
L 1848.459016 479.937993 
L 1849.47541 515.658744 
L 1850.491803 509.867165 
L 1851.508197 520.412171 
L 1852.52459 514.53573 
L 1853.540984 510.432939 
L 1854.557377 522.230916 
L 1855.57377 523.43347 
L 1856.590164 529.764188 
L 1857.606557 547.291896 
L 1858.622951 562.38499 
L 1859.639344 530.261011 
L 1860.655738 482.74738 
L 1861.672131 500.838492 
L 1863.704918 385.007356 
L 1864.721311 339.925889 
L 1865.737705 256.123052 
L 1866.754098 325.973481 
L 1867.770492 353.026527 
L 1868.786885 353.845359 
L 1869.803279 369.95122 
L 1871.836066 455.000419 
L 1872.852459 467.897765 
L 1873.868852 500.28473 
L 1874.885246 516.562594 
L 1875.901639 529.483016 
L 1876.918033 538.390132 
L 1877.934426 535.903107 
L 1878.95082 544.536686 
L 1879.967213 539.992761 
L 1880.983607 547.203298 
L 1882 574.496391 
L 1883.016393 590.769119 
L 1884.032787 568.448631 
L 1885.04918 537.372396 
L 1886.065574 535.862648 
L 1887.081967 511.589448 
L 1888.098361 383.736611 
L 1889.114754 298.093894 
L 1890.131148 393.529627 
L 1891.147541 321.747936 
L 1892.163934 374.608176 
L 1893.180328 380.092199 
L 1894.196721 406.196278 
L 1895.213115 462.23705 
L 1896.229508 474.842608 
L 1897.245902 521.763725 
L 1898.262295 520.290864 
L 1899.278689 532.647667 
L 1900.295082 539.450791 
L 1901.311475 549.7257 
L 1902.327869 564.458967 
L 1903.344262 565.38663 
L 1904.360656 560.795261 
L 1905.377049 567.949044 
L 1906.393443 597.453299 
L 1907.409836 605.159883 
L 1908.42623 569.301811 
L 1910.459016 544.588206 
L 1911.47541 434.176098 
L 1912.491803 400.890875 
L 1913.508197 409.371947 
L 1914.52459 359.229095 
L 1915.540984 455.784903 
L 1916.557377 463.129857 
L 1917.57377 431.207946 
L 1918.590164 449.240436 
L 1919.606557 443.611478 
L 1920.622951 483.572876 
L 1921.639344 491.760061 
L 1922.655738 561.358136 
L 1923.672131 380.319504 
L 1924.688525 471.73318 
L 1925.704918 425.057533 
L 1926.721311 490.997979 
L 1927.737705 514.689473 
L 1928.754098 509.503851 
L 1930.786885 575.330717 
L 1931.803279 583.798206 
L 1932.819672 574.492275 
L 1933.836066 532.504965 
L 1934.852459 500.298279 
L 1935.868852 460.210151 
L 1936.885246 377.823937 
L 1937.901639 373.421337 
L 1938.918033 366.150554 
L 1939.934426 482.885025 
L 1940.95082 453.6525 
L 1941.967213 435.887999 
L 1942.983607 510.825847 
L 1944 466.279892 
L 1944 466.279892 
" style="fill:none;stroke:#0000ff;stroke-linecap:square;"/>
   </g>
   <g id="line2d_2">
    <defs>
     <path d="M 0 3 
C 0.795609 3 1.55874 2.683901 2.12132 2.12132 
C 2.683901 1.55874 3 0.795609 3 0 
C 3 -0.795609 2.683901 -1.55874 2.12132 -2.12132 
C 1.55874 -2.683901 0.795609 -3 0 -3 
C -0.795609 -3 -1.55874 -2.683901 -2.12132 -2.12132 
C -2.683901 -1.55874 -3 -0.795609 -3 0 
C -3 0.795609 -2.683901 1.55874 -2.12132 2.12132 
C -1.55874 2.683901 -0.795609 3 0 3 
z
" id="mbff880f392" style="stroke:#000000;stroke-width:0.5;"/>
    </defs>
    <g clip-path="url(#pda8fe51f2c)">
     <use style="fill:#ff0000;stroke:#000000;stroke-width:0.5;" x="636.918032784" xlink:href="#mbff880f392" y="548.335782036"/>
     <use style="fill:#ff0000;stroke:#000000;stroke-width:0.5;" x="1085.14754098" xlink:href="#mbff880f392" y="315.861060329"/>
     <use style="fill:#ff0000;stroke:#000000;stroke-width:0.5;" x="1263.01639344" xlink:href="#mbff880f392" y="192.887653693"/>
     <use style="fill:#ff0000;stroke:#000000;stroke-width:0.5;" x="1378.8852459" xlink:href="#mbff880f392" y="281.67822292"/>
     <use style="fill:#ff0000;stroke:#000000;stroke-width:0.5;" x="1570.98360655" xlink:href="#mbff880f392" y="254.173253707"/>
     <use style="fill:#ff0000;stroke:#000000;stroke-width:0.5;" x="1743.7704918" xlink:href="#mbff880f392" y="447.175376354"/>
    </g>
   </g>
   <g id="patch_3">
    <path d="M 270 72 
L 1944 72 
" style="fill:none;stroke:#000000;stroke-linecap:square;stroke-linejoin:miter;"/>
   </g>
   <g id="patch_4">
    <path d="M 1944 648 
L 1944 72 
" style="fill:none;stroke:#000000;stroke-linecap:square;stroke-linejoin:miter;"/>
   </g>
   <g id="patch_5">
    <path d="M 270 648 
L 1944 648 
" style="fill:none;stroke:#000000;stroke-linecap:square;stroke-linejoin:miter;"/>
   </g>
   <g id="patch_6">
    <path d="M 270 648 
L 270 72 
" style="fill:none;stroke:#000000;stroke-linecap:square;stroke-linejoin:miter;"/>
   </g>
   <g id="matplotlib.axis_1">
    <g id="xtick_1">
     <g id="line2d_3">
      <defs>
       <path d="M 0 0 
L 0 -4 
" id="m65bebfc0ff" style="stroke:#000000;stroke-width:0.5;"/>
      </defs>
      <g>
       <use style="stroke:#000000;stroke-width:0.5;" x="318.786602911" xlink:href="#m65bebfc0ff" y="648.0"/>
      </g>
     </g>
     <g id="line2d_4">
      <defs>
       <path d="M 0 0 
L 0 4 
" id="m4eb7455884" style="stroke:#000000;stroke-width:0.5;"/>
      </defs>
      <g>
       <use style="stroke:#000000;stroke-width:0.5;" x="318.786602911" xlink:href="#m4eb7455884" y="72.0"/>
      </g>
     </g>
     <g id="text_1">
      <!-- Jul 03 2011 -->
      <defs>
       <path d="M 19.1875 8.296875 
L 53.609375 8.296875 
L 53.609375 0 
L 7.328125 0 
L 7.328125 8.296875 
Q 12.9375 14.109375 22.625 23.890625 
Q 32.328125 33.6875 34.8125 36.53125 
Q 39.546875 41.84375 41.421875 45.53125 
Q 43.3125 49.21875 43.3125 52.78125 
Q 43.3125 58.59375 39.234375 62.25 
Q 35.15625 65.921875 28.609375 65.921875 
Q 23.96875 65.921875 18.8125 64.3125 
Q 13.671875 62.703125 7.8125 59.421875 
L 7.8125 69.390625 
Q 13.765625 71.78125 18.9375 73 
Q 24.125 74.21875 28.421875 74.21875 
Q 39.75 74.21875 46.484375 68.546875 
Q 53.21875 62.890625 53.21875 53.421875 
Q 53.21875 48.921875 51.53125 44.890625 
Q 49.859375 40.875 45.40625 35.40625 
Q 44.1875 33.984375 37.640625 27.21875 
Q 31.109375 20.453125 19.1875 8.296875 
" id="BitstreamVeraSans-Roman-32"/>
       <path id="BitstreamVeraSans-Roman-20"/>
       <path d="M 31.78125 66.40625 
Q 24.171875 66.40625 20.328125 58.90625 
Q 16.5 51.421875 16.5 36.375 
Q 16.5 21.390625 20.328125 13.890625 
Q 24.171875 6.390625 31.78125 6.390625 
Q 39.453125 6.390625 43.28125 13.890625 
Q 47.125 21.390625 47.125 36.375 
Q 47.125 51.421875 43.28125 58.90625 
Q 39.453125 66.40625 31.78125 66.40625 
M 31.78125 74.21875 
Q 44.046875 74.21875 50.515625 64.515625 
Q 56.984375 54.828125 56.984375 36.375 
Q 56.984375 17.96875 50.515625 8.265625 
Q 44.046875 -1.421875 31.78125 -1.421875 
Q 19.53125 -1.421875 13.0625 8.265625 
Q 6.59375 17.96875 6.59375 36.375 
Q 6.59375 54.828125 13.0625 64.515625 
Q 19.53125 74.21875 31.78125 74.21875 
" id="BitstreamVeraSans-Roman-30"/>
       <path d="M 12.40625 8.296875 
L 28.515625 8.296875 
L 28.515625 63.921875 
L 10.984375 60.40625 
L 10.984375 69.390625 
L 28.421875 72.90625 
L 38.28125 72.90625 
L 38.28125 8.296875 
L 54.390625 8.296875 
L 54.390625 0 
L 12.40625 0 
z
" id="BitstreamVeraSans-Roman-31"/>
       <path d="M 9.8125 72.90625 
L 19.671875 72.90625 
L 19.671875 5.078125 
Q 19.671875 -8.109375 14.671875 -14.0625 
Q 9.671875 -20.015625 -1.421875 -20.015625 
L -5.171875 -20.015625 
L -5.171875 -11.71875 
L -2.09375 -11.71875 
Q 4.4375 -11.71875 7.125 -8.046875 
Q 9.8125 -4.390625 9.8125 5.078125 
z
" id="BitstreamVeraSans-Roman-4a"/>
       <path d="M 40.578125 39.3125 
Q 47.65625 37.796875 51.625 33 
Q 55.609375 28.21875 55.609375 21.1875 
Q 55.609375 10.40625 48.1875 4.484375 
Q 40.765625 -1.421875 27.09375 -1.421875 
Q 22.515625 -1.421875 17.65625 -0.515625 
Q 12.796875 0.390625 7.625 2.203125 
L 7.625 11.71875 
Q 11.71875 9.328125 16.59375 8.109375 
Q 21.484375 6.890625 26.8125 6.890625 
Q 36.078125 6.890625 40.9375 10.546875 
Q 45.796875 14.203125 45.796875 21.1875 
Q 45.796875 27.640625 41.28125 31.265625 
Q 36.765625 34.90625 28.71875 34.90625 
L 20.21875 34.90625 
L 20.21875 43.015625 
L 29.109375 43.015625 
Q 36.375 43.015625 40.234375 45.921875 
Q 44.09375 48.828125 44.09375 54.296875 
Q 44.09375 59.90625 40.109375 62.90625 
Q 36.140625 65.921875 28.71875 65.921875 
Q 24.65625 65.921875 20.015625 65.03125 
Q 15.375 64.15625 9.8125 62.3125 
L 9.8125 71.09375 
Q 15.4375 72.65625 20.34375 73.4375 
Q 25.25 74.21875 29.59375 74.21875 
Q 40.828125 74.21875 47.359375 69.109375 
Q 53.90625 64.015625 53.90625 55.328125 
Q 53.90625 49.265625 50.4375 45.09375 
Q 46.96875 40.921875 40.578125 39.3125 
" id="BitstreamVeraSans-Roman-33"/>
       <path d="M 9.421875 75.984375 
L 18.40625 75.984375 
L 18.40625 0 
L 9.421875 0 
z
" id="BitstreamVeraSans-Roman-6c"/>
       <path d="M 8.5 21.578125 
L 8.5 54.6875 
L 17.484375 54.6875 
L 17.484375 21.921875 
Q 17.484375 14.15625 20.5 10.265625 
Q 23.53125 6.390625 29.59375 6.390625 
Q 36.859375 6.390625 41.078125 11.03125 
Q 45.3125 15.671875 45.3125 23.6875 
L 45.3125 54.6875 
L 54.296875 54.6875 
L 54.296875 0 
L 45.3125 0 
L 45.3125 8.40625 
Q 42.046875 3.421875 37.71875 1 
Q 33.40625 -1.421875 27.6875 -1.421875 
Q 18.265625 -1.421875 13.375 4.4375 
Q 8.5 10.296875 8.5 21.578125 
" id="BitstreamVeraSans-Roman-75"/>
      </defs>
      <g transform="translate(284.828477911 661.118125)scale(0.12 -0.12)">
       <use xlink:href="#BitstreamVeraSans-Roman-4a"/>
       <use x="29.4921875" xlink:href="#BitstreamVeraSans-Roman-75"/>
       <use x="92.87109375" xlink:href="#BitstreamVeraSans-Roman-6c"/>
       <use x="120.654296875" xlink:href="#BitstreamVeraSans-Roman-20"/>
       <use x="152.44140625" xlink:href="#BitstreamVeraSans-Roman-30"/>
       <use x="216.064453125" xlink:href="#BitstreamVeraSans-Roman-33"/>
       <use x="279.6875" xlink:href="#BitstreamVeraSans-Roman-20"/>
       <use x="311.474609375" xlink:href="#BitstreamVeraSans-Roman-32"/>
       <use x="375.09765625" xlink:href="#BitstreamVeraSans-Roman-30"/>
       <use x="438.720703125" xlink:href="#BitstreamVeraSans-Roman-31"/>
       <use x="502.34375" xlink:href="#BitstreamVeraSans-Roman-31"/>
      </g>
     </g>
    </g>
    <g id="xtick_2">
     <g id="line2d_5">
      <g>
       <use style="stroke:#000000;stroke-width:0.5;" x="489.540701274" xlink:href="#m65bebfc0ff" y="648.0"/>
      </g>
     </g>
     <g id="line2d_6">
      <g>
       <use style="stroke:#000000;stroke-width:0.5;" x="489.540701274" xlink:href="#m4eb7455884" y="72.0"/>
      </g>
     </g>
     <g id="text_2">
      <!-- Jul 10 2011 -->
      <g transform="translate(455.582576274 661.118125)scale(0.12 -0.12)">
       <use xlink:href="#BitstreamVeraSans-Roman-4a"/>
       <use x="29.4921875" xlink:href="#BitstreamVeraSans-Roman-75"/>
       <use x="92.87109375" xlink:href="#BitstreamVeraSans-Roman-6c"/>
       <use x="120.654296875" xlink:href="#BitstreamVeraSans-Roman-20"/>
       <use x="152.44140625" xlink:href="#BitstreamVeraSans-Roman-31"/>
       <use x="216.064453125" xlink:href="#BitstreamVeraSans-Roman-30"/>
       <use x="279.6875" xlink:href="#BitstreamVeraSans-Roman-20"/>
       <use x="311.474609375" xlink:href="#BitstreamVeraSans-Roman-32"/>
       <use x="375.09765625" xlink:href="#BitstreamVeraSans-Roman-30"/>
       <use x="438.720703125" xlink:href="#BitstreamVeraSans-Roman-31"/>
       <use x="502.34375" xlink:href="#BitstreamVeraSans-Roman-31"/>
      </g>
     </g>
    </g>
    <g id="xtick_3">
     <g id="line2d_7">
      <g>
       <use style="stroke:#000000;stroke-width:0.5;" x="660.294799633" xlink:href="#m65bebfc0ff" y="648.0"/>
      </g>
     </g>
     <g id="line2d_8">
      <g>
       <use style="stroke:#000000;stroke-width:0.5;" x="660.294799633" xlink:href="#m4eb7455884" y="72.0"/>
      </g>
     </g>
     <g id="text_3">
      <!-- Jul 17 2011 -->
      <defs>
       <path d="M 8.203125 72.90625 
L 55.078125 72.90625 
L 55.078125 68.703125 
L 28.609375 0 
L 18.3125 0 
L 43.21875 64.59375 
L 8.203125 64.59375 
z
" id="BitstreamVeraSans-Roman-37"/>
      </defs>
      <g transform="translate(626.336674633 661.118125)scale(0.12 -0.12)">
       <use xlink:href="#BitstreamVeraSans-Roman-4a"/>
       <use x="29.4921875" xlink:href="#BitstreamVeraSans-Roman-75"/>
       <use x="92.87109375" xlink:href="#BitstreamVeraSans-Roman-6c"/>
       <use x="120.654296875" xlink:href="#BitstreamVeraSans-Roman-20"/>
       <use x="152.44140625" xlink:href="#BitstreamVeraSans-Roman-31"/>
       <use x="216.064453125" xlink:href="#BitstreamVeraSans-Roman-37"/>
       <use x="279.6875" xlink:href="#BitstreamVeraSans-Roman-20"/>
       <use x="311.474609375" xlink:href="#BitstreamVeraSans-Roman-32"/>
       <use x="375.09765625" xlink:href="#BitstreamVeraSans-Roman-30"/>
       <use x="438.720703125" xlink:href="#BitstreamVeraSans-Roman-31"/>
       <use x="502.34375" xlink:href="#BitstreamVeraSans-Roman-31"/>
      </g>
     </g>
    </g>
    <g id="xtick_4">
     <g id="line2d_9">
      <g>
       <use style="stroke:#000000;stroke-width:0.5;" x="831.048897993" xlink:href="#m65bebfc0ff" y="648.0"/>
      </g>
     </g>
     <g id="line2d_10">
      <g>
       <use style="stroke:#000000;stroke-width:0.5;" x="831.048897993" xlink:href="#m4eb7455884" y="72.0"/>
      </g>
     </g>
     <g id="text_4">
      <!-- Jul 24 2011 -->
      <defs>
       <path d="M 37.796875 64.3125 
L 12.890625 25.390625 
L 37.796875 25.390625 
z
M 35.203125 72.90625 
L 47.609375 72.90625 
L 47.609375 25.390625 
L 58.015625 25.390625 
L 58.015625 17.1875 
L 47.609375 17.1875 
L 47.609375 0 
L 37.796875 0 
L 37.796875 17.1875 
L 4.890625 17.1875 
L 4.890625 26.703125 
z
" id="BitstreamVeraSans-Roman-34"/>
      </defs>
      <g transform="translate(797.090772993 661.118125)scale(0.12 -0.12)">
       <use xlink:href="#BitstreamVeraSans-Roman-4a"/>
       <use x="29.4921875" xlink:href="#BitstreamVeraSans-Roman-75"/>
       <use x="92.87109375" xlink:href="#BitstreamVeraSans-Roman-6c"/>
       <use x="120.654296875" xlink:href="#BitstreamVeraSans-Roman-20"/>
       <use x="152.44140625" xlink:href="#BitstreamVeraSans-Roman-32"/>
       <use x="216.064453125" xlink:href="#BitstreamVeraSans-Roman-34"/>
       <use x="279.6875" xlink:href="#BitstreamVeraSans-Roman-20"/>
       <use x="311.474609375" xlink:href="#BitstreamVeraSans-Roman-32"/>
       <use x="375.09765625" xlink:href="#BitstreamVeraSans-Roman-30"/>
       <use x="438.720703125" xlink:href="#BitstreamVeraSans-Roman-31"/>
       <use x="502.34375" xlink:href="#BitstreamVeraSans-Roman-31"/>
      </g>
     </g>
    </g>
    <g id="xtick_5">
     <g id="line2d_11">
      <g>
       <use style="stroke:#000000;stroke-width:0.5;" x="1001.80299636" xlink:href="#m65bebfc0ff" y="648.0"/>
      </g>
     </g>
     <g id="line2d_12">
      <g>
       <use style="stroke:#000000;stroke-width:0.5;" x="1001.80299636" xlink:href="#m4eb7455884" y="72.0"/>
      </g>
     </g>
     <g id="text_5">
      <!-- Jul 31 2011 -->
      <g transform="translate(967.844871356 661.118125)scale(0.12 -0.12)">
       <use xlink:href="#BitstreamVeraSans-Roman-4a"/>
       <use x="29.4921875" xlink:href="#BitstreamVeraSans-Roman-75"/>
       <use x="92.87109375" xlink:href="#BitstreamVeraSans-Roman-6c"/>
       <use x="120.654296875" xlink:href="#BitstreamVeraSans-Roman-20"/>
       <use x="152.44140625" xlink:href="#BitstreamVeraSans-Roman-33"/>
       <use x="216.064453125" xlink:href="#BitstreamVeraSans-Roman-31"/>
       <use x="279.6875" xlink:href="#BitstreamVeraSans-Roman-20"/>
       <use x="311.474609375" xlink:href="#BitstreamVeraSans-Roman-32"/>
       <use x="375.09765625" xlink:href="#BitstreamVeraSans-Roman-30"/>
       <use x="438.720703125" xlink:href="#BitstreamVeraSans-Roman-31"/>
       <use x="502.34375" xlink:href="#BitstreamVeraSans-Roman-31"/>
      </g>
     </g>
    </g>
    <g id="xtick_6">
     <g id="line2d_13">
      <g>
       <use style="stroke:#000000;stroke-width:0.5;" x="1172.55709472" xlink:href="#m65bebfc0ff" y="648.0"/>
      </g>
     </g>
     <g id="line2d_14">
      <g>
       <use style="stroke:#000000;stroke-width:0.5;" x="1172.55709472" xlink:href="#m4eb7455884" y="72.0"/>
      </g>
     </g>
     <g id="text_6">
      <!-- Aug 07 2011 -->
      <defs>
       <path d="M 45.40625 27.984375 
Q 45.40625 37.75 41.375 43.109375 
Q 37.359375 48.484375 30.078125 48.484375 
Q 22.859375 48.484375 18.828125 43.109375 
Q 14.796875 37.75 14.796875 27.984375 
Q 14.796875 18.265625 18.828125 12.890625 
Q 22.859375 7.515625 30.078125 7.515625 
Q 37.359375 7.515625 41.375 12.890625 
Q 45.40625 18.265625 45.40625 27.984375 
M 54.390625 6.78125 
Q 54.390625 -7.171875 48.1875 -13.984375 
Q 42 -20.796875 29.203125 -20.796875 
Q 24.46875 -20.796875 20.265625 -20.09375 
Q 16.0625 -19.390625 12.109375 -17.921875 
L 12.109375 -9.1875 
Q 16.0625 -11.328125 19.921875 -12.34375 
Q 23.78125 -13.375 27.78125 -13.375 
Q 36.625 -13.375 41.015625 -8.765625 
Q 45.40625 -4.15625 45.40625 5.171875 
L 45.40625 9.625 
Q 42.625 4.78125 38.28125 2.390625 
Q 33.9375 0 27.875 0 
Q 17.828125 0 11.671875 7.65625 
Q 5.515625 15.328125 5.515625 27.984375 
Q 5.515625 40.671875 11.671875 48.328125 
Q 17.828125 56 27.875 56 
Q 33.9375 56 38.28125 53.609375 
Q 42.625 51.21875 45.40625 46.390625 
L 45.40625 54.6875 
L 54.390625 54.6875 
z
" id="BitstreamVeraSans-Roman-67"/>
       <path d="M 34.1875 63.1875 
L 20.796875 26.90625 
L 47.609375 26.90625 
z
M 28.609375 72.90625 
L 39.796875 72.90625 
L 67.578125 0 
L 57.328125 0 
L 50.6875 18.703125 
L 17.828125 18.703125 
L 11.1875 0 
L 0.78125 0 
z
" id="BitstreamVeraSans-Roman-41"/>
      </defs>
      <g transform="translate(1134.12240722 661.118125)scale(0.12 -0.12)">
       <use xlink:href="#BitstreamVeraSans-Roman-41"/>
       <use x="68.408203125" xlink:href="#BitstreamVeraSans-Roman-75"/>
       <use x="131.787109375" xlink:href="#BitstreamVeraSans-Roman-67"/>
       <use x="195.263671875" xlink:href="#BitstreamVeraSans-Roman-20"/>
       <use x="227.05078125" xlink:href="#BitstreamVeraSans-Roman-30"/>
       <use x="290.673828125" xlink:href="#BitstreamVeraSans-Roman-37"/>
       <use x="354.296875" xlink:href="#BitstreamVeraSans-Roman-20"/>
       <use x="386.083984375" xlink:href="#BitstreamVeraSans-Roman-32"/>
       <use x="449.70703125" xlink:href="#BitstreamVeraSans-Roman-30"/>
       <use x="513.330078125" xlink:href="#BitstreamVeraSans-Roman-31"/>
       <use x="576.953125" xlink:href="#BitstreamVeraSans-Roman-31"/>
      </g>
     </g>
    </g>
    <g id="xtick_7">
     <g id="line2d_15">
      <g>
       <use style="stroke:#000000;stroke-width:0.5;" x="1343.31119308" xlink:href="#m65bebfc0ff" y="648.0"/>
      </g>
     </g>
     <g id="line2d_16">
      <g>
       <use style="stroke:#000000;stroke-width:0.5;" x="1343.31119308" xlink:href="#m4eb7455884" y="72.0"/>
      </g>
     </g>
     <g id="text_7">
      <!-- Aug 14 2011 -->
      <g transform="translate(1304.87650558 661.118125)scale(0.12 -0.12)">
       <use xlink:href="#BitstreamVeraSans-Roman-41"/>
       <use x="68.408203125" xlink:href="#BitstreamVeraSans-Roman-75"/>
       <use x="131.787109375" xlink:href="#BitstreamVeraSans-Roman-67"/>
       <use x="195.263671875" xlink:href="#BitstreamVeraSans-Roman-20"/>
       <use x="227.05078125" xlink:href="#BitstreamVeraSans-Roman-31"/>
       <use x="290.673828125" xlink:href="#BitstreamVeraSans-Roman-34"/>
       <use x="354.296875" xlink:href="#BitstreamVeraSans-Roman-20"/>
       <use x="386.083984375" xlink:href="#BitstreamVeraSans-Roman-32"/>
       <use x="449.70703125" xlink:href="#BitstreamVeraSans-Roman-30"/>
       <use x="513.330078125" xlink:href="#BitstreamVeraSans-Roman-31"/>
       <use x="576.953125" xlink:href="#BitstreamVeraSans-Roman-31"/>
      </g>
     </g>
    </g>
    <g id="xtick_8">
     <g id="line2d_17">
      <g>
       <use style="stroke:#000000;stroke-width:0.5;" x="1514.06529144" xlink:href="#m65bebfc0ff" y="648.0"/>
      </g>
     </g>
     <g id="line2d_18">
      <g>
       <use style="stroke:#000000;stroke-width:0.5;" x="1514.06529144" xlink:href="#m4eb7455884" y="72.0"/>
      </g>
     </g>
     <g id="text_8">
      <!-- Aug 21 2011 -->
      <g transform="translate(1475.63060394 661.118125)scale(0.12 -0.12)">
       <use xlink:href="#BitstreamVeraSans-Roman-41"/>
       <use x="68.408203125" xlink:href="#BitstreamVeraSans-Roman-75"/>
       <use x="131.787109375" xlink:href="#BitstreamVeraSans-Roman-67"/>
       <use x="195.263671875" xlink:href="#BitstreamVeraSans-Roman-20"/>
       <use x="227.05078125" xlink:href="#BitstreamVeraSans-Roman-32"/>
       <use x="290.673828125" xlink:href="#BitstreamVeraSans-Roman-31"/>
       <use x="354.296875" xlink:href="#BitstreamVeraSans-Roman-20"/>
       <use x="386.083984375" xlink:href="#BitstreamVeraSans-Roman-32"/>
       <use x="449.70703125" xlink:href="#BitstreamVeraSans-Roman-30"/>
       <use x="513.330078125" xlink:href="#BitstreamVeraSans-Roman-31"/>
       <use x="576.953125" xlink:href="#BitstreamVeraSans-Roman-31"/>
      </g>
     </g>
    </g>
    <g id="xtick_9">
     <g id="line2d_19">
      <g>
       <use style="stroke:#000000;stroke-width:0.5;" x="1684.8193898" xlink:href="#m65bebfc0ff" y="648.0"/>
      </g>
     </g>
     <g id="line2d_20">
      <g>
       <use style="stroke:#000000;stroke-width:0.5;" x="1684.8193898" xlink:href="#m4eb7455884" y="72.0"/>
      </g>
     </g>
     <g id="text_9">
      <!-- Aug 28 2011 -->
      <defs>
       <path d="M 31.78125 34.625 
Q 24.75 34.625 20.71875 30.859375 
Q 16.703125 27.09375 16.703125 20.515625 
Q 16.703125 13.921875 20.71875 10.15625 
Q 24.75 6.390625 31.78125 6.390625 
Q 38.8125 6.390625 42.859375 10.171875 
Q 46.921875 13.96875 46.921875 20.515625 
Q 46.921875 27.09375 42.890625 30.859375 
Q 38.875 34.625 31.78125 34.625 
M 21.921875 38.8125 
Q 15.578125 40.375 12.03125 44.71875 
Q 8.5 49.078125 8.5 55.328125 
Q 8.5 64.0625 14.71875 69.140625 
Q 20.953125 74.21875 31.78125 74.21875 
Q 42.671875 74.21875 48.875 69.140625 
Q 55.078125 64.0625 55.078125 55.328125 
Q 55.078125 49.078125 51.53125 44.71875 
Q 48 40.375 41.703125 38.8125 
Q 48.828125 37.15625 52.796875 32.3125 
Q 56.78125 27.484375 56.78125 20.515625 
Q 56.78125 9.90625 50.3125 4.234375 
Q 43.84375 -1.421875 31.78125 -1.421875 
Q 19.734375 -1.421875 13.25 4.234375 
Q 6.78125 9.90625 6.78125 20.515625 
Q 6.78125 27.484375 10.78125 32.3125 
Q 14.796875 37.15625 21.921875 38.8125 
M 18.3125 54.390625 
Q 18.3125 48.734375 21.84375 45.5625 
Q 25.390625 42.390625 31.78125 42.390625 
Q 38.140625 42.390625 41.71875 45.5625 
Q 45.3125 48.734375 45.3125 54.390625 
Q 45.3125 60.0625 41.71875 63.234375 
Q 38.140625 66.40625 31.78125 66.40625 
Q 25.390625 66.40625 21.84375 63.234375 
Q 18.3125 60.0625 18.3125 54.390625 
" id="BitstreamVeraSans-Roman-38"/>
      </defs>
      <g transform="translate(1646.3847023 661.118125)scale(0.12 -0.12)">
       <use xlink:href="#BitstreamVeraSans-Roman-41"/>
       <use x="68.408203125" xlink:href="#BitstreamVeraSans-Roman-75"/>
       <use x="131.787109375" xlink:href="#BitstreamVeraSans-Roman-67"/>
       <use x="195.263671875" xlink:href="#BitstreamVeraSans-Roman-20"/>
       <use x="227.05078125" xlink:href="#BitstreamVeraSans-Roman-32"/>
       <use x="290.673828125" xlink:href="#BitstreamVeraSans-Roman-38"/>
       <use x="354.296875" xlink:href="#BitstreamVeraSans-Roman-20"/>
       <use x="386.083984375" xlink:href="#BitstreamVeraSans-Roman-32"/>
       <use x="449.70703125" xlink:href="#BitstreamVeraSans-Roman-30"/>
       <use x="513.330078125" xlink:href="#BitstreamVeraSans-Roman-31"/>
       <use x="576.953125" xlink:href="#BitstreamVeraSans-Roman-31"/>
      </g>
     </g>
    </g>
    <g id="xtick_10">
     <g id="line2d_21">
      <g>
       <use style="stroke:#000000;stroke-width:0.5;" x="1855.57348816" xlink:href="#m65bebfc0ff" y="648.0"/>
      </g>
     </g>
     <g id="line2d_22">
      <g>
       <use style="stroke:#000000;stroke-width:0.5;" x="1855.57348816" xlink:href="#m4eb7455884" y="72.0"/>
      </g>
     </g>
     <g id="text_10">
      <!-- Sep 04 2011 -->
      <defs>
       <path d="M 56.203125 29.59375 
L 56.203125 25.203125 
L 14.890625 25.203125 
Q 15.484375 15.921875 20.484375 11.0625 
Q 25.484375 6.203125 34.421875 6.203125 
Q 39.59375 6.203125 44.453125 7.46875 
Q 49.3125 8.734375 54.109375 11.28125 
L 54.109375 2.78125 
Q 49.265625 0.734375 44.1875 -0.34375 
Q 39.109375 -1.421875 33.890625 -1.421875 
Q 20.796875 -1.421875 13.15625 6.1875 
Q 5.515625 13.8125 5.515625 26.8125 
Q 5.515625 40.234375 12.765625 48.109375 
Q 20.015625 56 32.328125 56 
Q 43.359375 56 49.78125 48.890625 
Q 56.203125 41.796875 56.203125 29.59375 
M 47.21875 32.234375 
Q 47.125 39.59375 43.09375 43.984375 
Q 39.0625 48.390625 32.421875 48.390625 
Q 24.90625 48.390625 20.390625 44.140625 
Q 15.875 39.890625 15.1875 32.171875 
z
" id="BitstreamVeraSans-Roman-65"/>
       <path d="M 53.515625 70.515625 
L 53.515625 60.890625 
Q 47.90625 63.578125 42.921875 64.890625 
Q 37.9375 66.21875 33.296875 66.21875 
Q 25.25 66.21875 20.875 63.09375 
Q 16.5 59.96875 16.5 54.203125 
Q 16.5 49.359375 19.40625 46.890625 
Q 22.3125 44.4375 30.421875 42.921875 
L 36.375 41.703125 
Q 47.40625 39.59375 52.65625 34.296875 
Q 57.90625 29 57.90625 20.125 
Q 57.90625 9.515625 50.796875 4.046875 
Q 43.703125 -1.421875 29.984375 -1.421875 
Q 24.8125 -1.421875 18.96875 -0.25 
Q 13.140625 0.921875 6.890625 3.21875 
L 6.890625 13.375 
Q 12.890625 10.015625 18.65625 8.296875 
Q 24.421875 6.59375 29.984375 6.59375 
Q 38.421875 6.59375 43.015625 9.90625 
Q 47.609375 13.234375 47.609375 19.390625 
Q 47.609375 24.75 44.3125 27.78125 
Q 41.015625 30.8125 33.5 32.328125 
L 27.484375 33.5 
Q 16.453125 35.6875 11.515625 40.375 
Q 6.59375 45.0625 6.59375 53.421875 
Q 6.59375 63.09375 13.40625 68.65625 
Q 20.21875 74.21875 32.171875 74.21875 
Q 37.3125 74.21875 42.625 73.28125 
Q 47.953125 72.359375 53.515625 70.515625 
" id="BitstreamVeraSans-Roman-53"/>
       <path d="M 18.109375 8.203125 
L 18.109375 -20.796875 
L 9.078125 -20.796875 
L 9.078125 54.6875 
L 18.109375 54.6875 
L 18.109375 46.390625 
Q 20.953125 51.265625 25.265625 53.625 
Q 29.59375 56 35.59375 56 
Q 45.5625 56 51.78125 48.09375 
Q 58.015625 40.1875 58.015625 27.296875 
Q 58.015625 14.40625 51.78125 6.484375 
Q 45.5625 -1.421875 35.59375 -1.421875 
Q 29.59375 -1.421875 25.265625 0.953125 
Q 20.953125 3.328125 18.109375 8.203125 
M 48.6875 27.296875 
Q 48.6875 37.203125 44.609375 42.84375 
Q 40.53125 48.484375 33.40625 48.484375 
Q 26.265625 48.484375 22.1875 42.84375 
Q 18.109375 37.203125 18.109375 27.296875 
Q 18.109375 17.390625 22.1875 11.75 
Q 26.265625 6.109375 33.40625 6.109375 
Q 40.53125 6.109375 44.609375 11.75 
Q 48.6875 17.390625 48.6875 27.296875 
" id="BitstreamVeraSans-Roman-70"/>
      </defs>
      <g transform="translate(1817.54473816 661.118125)scale(0.12 -0.12)">
       <use xlink:href="#BitstreamVeraSans-Roman-53"/>
       <use x="63.4765625" xlink:href="#BitstreamVeraSans-Roman-65"/>
       <use x="125.0" xlink:href="#BitstreamVeraSans-Roman-70"/>
       <use x="188.4765625" xlink:href="#BitstreamVeraSans-Roman-20"/>
       <use x="220.263671875" xlink:href="#BitstreamVeraSans-Roman-30"/>
       <use x="283.88671875" xlink:href="#BitstreamVeraSans-Roman-34"/>
       <use x="347.509765625" xlink:href="#BitstreamVeraSans-Roman-20"/>
       <use x="379.296875" xlink:href="#BitstreamVeraSans-Roman-32"/>
       <use x="442.919921875" xlink:href="#BitstreamVeraSans-Roman-30"/>
       <use x="506.54296875" xlink:href="#BitstreamVeraSans-Roman-31"/>
       <use x="570.166015625" xlink:href="#BitstreamVeraSans-Roman-31"/>
      </g>
     </g>
    </g>
   </g>
   <g id="matplotlib.axis_2">
    <g id="ytick_1">
     <g id="line2d_23">
      <defs>
       <path d="M 0 0 
L 4 0 
" id="m27916b280b" style="stroke:#000000;stroke-width:0.5;"/>
      </defs>
      <g>
       <use style="stroke:#000000;stroke-width:0.5;" x="270.0" xlink:href="#m27916b280b" y="648.0"/>
      </g>
     </g>
     <g id="line2d_24">
      <defs>
       <path d="M 0 0 
L -4 0 
" id="m9fae17c97d" style="stroke:#000000;stroke-width:0.5;"/>
      </defs>
      <g>
       <use style="stroke:#000000;stroke-width:0.5;" x="1944.0" xlink:href="#m9fae17c97d" y="648.0"/>
      </g>
     </g>
     <g id="text_11">
      <!-- 0.0 -->
      <defs>
       <path d="M 10.6875 12.40625 
L 21 12.40625 
L 21 0 
L 10.6875 0 
z
" id="BitstreamVeraSans-Roman-2e"/>
      </defs>
      <g transform="translate(246.91625 651.31125)scale(0.12 -0.12)">
       <use xlink:href="#BitstreamVeraSans-Roman-30"/>
       <use x="63.623046875" xlink:href="#BitstreamVeraSans-Roman-2e"/>
       <use x="95.41015625" xlink:href="#BitstreamVeraSans-Roman-30"/>
      </g>
     </g>
    </g>
    <g id="ytick_2">
     <g id="line2d_25">
      <g>
       <use style="stroke:#000000;stroke-width:0.5;" x="270.0" xlink:href="#m27916b280b" y="552.0"/>
      </g>
     </g>
     <g id="line2d_26">
      <g>
       <use style="stroke:#000000;stroke-width:0.5;" x="1944.0" xlink:href="#m9fae17c97d" y="552.0"/>
      </g>
     </g>
     <g id="text_12">
      <!-- 0.2 -->
      <g transform="translate(246.91625 555.31125)scale(0.12 -0.12)">
       <use xlink:href="#BitstreamVeraSans-Roman-30"/>
       <use x="63.623046875" xlink:href="#BitstreamVeraSans-Roman-2e"/>
       <use x="95.41015625" xlink:href="#BitstreamVeraSans-Roman-32"/>
      </g>
     </g>
    </g>
    <g id="ytick_3">
     <g id="line2d_27">
      <g>
       <use style="stroke:#000000;stroke-width:0.5;" x="270.0" xlink:href="#m27916b280b" y="456.0"/>
      </g>
     </g>
     <g id="line2d_28">
      <g>
       <use style="stroke:#000000;stroke-width:0.5;" x="1944.0" xlink:href="#m9fae17c97d" y="456.0"/>
      </g>
     </g>
     <g id="text_13">
      <!-- 0.4 -->
      <g transform="translate(246.91625 459.31125)scale(0.12 -0.12)">
       <use xlink:href="#BitstreamVeraSans-Roman-30"/>
       <use x="63.623046875" xlink:href="#BitstreamVeraSans-Roman-2e"/>
       <use x="95.41015625" xlink:href="#BitstreamVeraSans-Roman-34"/>
      </g>
     </g>
    </g>
    <g id="ytick_4">
     <g id="line2d_29">
      <g>
       <use style="stroke:#000000;stroke-width:0.5;" x="270.0" xlink:href="#m27916b280b" y="360.0"/>
      </g>
     </g>
     <g id="line2d_30">
      <g>
       <use style="stroke:#000000;stroke-width:0.5;" x="1944.0" xlink:href="#m9fae17c97d" y="360.0"/>
      </g>
     </g>
     <g id="text_14">
      <!-- 0.6 -->
      <defs>
       <path d="M 33.015625 40.375 
Q 26.375 40.375 22.484375 35.828125 
Q 18.609375 31.296875 18.609375 23.390625 
Q 18.609375 15.53125 22.484375 10.953125 
Q 26.375 6.390625 33.015625 6.390625 
Q 39.65625 6.390625 43.53125 10.953125 
Q 47.40625 15.53125 47.40625 23.390625 
Q 47.40625 31.296875 43.53125 35.828125 
Q 39.65625 40.375 33.015625 40.375 
M 52.59375 71.296875 
L 52.59375 62.3125 
Q 48.875 64.0625 45.09375 64.984375 
Q 41.3125 65.921875 37.59375 65.921875 
Q 27.828125 65.921875 22.671875 59.328125 
Q 17.53125 52.734375 16.796875 39.40625 
Q 19.671875 43.65625 24.015625 45.921875 
Q 28.375 48.1875 33.59375 48.1875 
Q 44.578125 48.1875 50.953125 41.515625 
Q 57.328125 34.859375 57.328125 23.390625 
Q 57.328125 12.15625 50.6875 5.359375 
Q 44.046875 -1.421875 33.015625 -1.421875 
Q 20.359375 -1.421875 13.671875 8.265625 
Q 6.984375 17.96875 6.984375 36.375 
Q 6.984375 53.65625 15.1875 63.9375 
Q 23.390625 74.21875 37.203125 74.21875 
Q 40.921875 74.21875 44.703125 73.484375 
Q 48.484375 72.75 52.59375 71.296875 
" id="BitstreamVeraSans-Roman-36"/>
      </defs>
      <g transform="translate(246.91625 363.31125)scale(0.12 -0.12)">
       <use xlink:href="#BitstreamVeraSans-Roman-30"/>
       <use x="63.623046875" xlink:href="#BitstreamVeraSans-Roman-2e"/>
       <use x="95.41015625" xlink:href="#BitstreamVeraSans-Roman-36"/>
      </g>
     </g>
    </g>
    <g id="ytick_5">
     <g id="line2d_31">
      <g>
       <use style="stroke:#000000;stroke-width:0.5;" x="270.0" xlink:href="#m27916b280b" y="264.0"/>
      </g>
     </g>
     <g id="line2d_32">
      <g>
       <use style="stroke:#000000;stroke-width:0.5;" x="1944.0" xlink:href="#m9fae17c97d" y="264.0"/>
      </g>
     </g>
     <g id="text_15">
      <!-- 0.8 -->
      <g transform="translate(246.91625 267.31125)scale(0.12 -0.12)">
       <use xlink:href="#BitstreamVeraSans-Roman-30"/>
       <use x="63.623046875" xlink:href="#BitstreamVeraSans-Roman-2e"/>
       <use x="95.41015625" xlink:href="#BitstreamVeraSans-Roman-38"/>
      </g>
     </g>
    </g>
    <g id="ytick_6">
     <g id="line2d_33">
      <g>
       <use style="stroke:#000000;stroke-width:0.5;" x="270.0" xlink:href="#m27916b280b" y="168.0"/>
      </g>
     </g>
     <g id="line2d_34">
      <g>
       <use style="stroke:#000000;stroke-width:0.5;" x="1944.0" xlink:href="#m9fae17c97d" y="168.0"/>
      </g>
     </g>
     <g id="text_16">
      <!-- 1.0 -->
      <g transform="translate(246.91625 171.31125)scale(0.12 -0.12)">
       <use xlink:href="#BitstreamVeraSans-Roman-31"/>
       <use x="63.623046875" xlink:href="#BitstreamVeraSans-Roman-2e"/>
       <use x="95.41015625" xlink:href="#BitstreamVeraSans-Roman-30"/>
      </g>
     </g>
    </g>
    <g id="ytick_7">
     <g id="line2d_35">
      <g>
       <use style="stroke:#000000;stroke-width:0.5;" x="270.0" xlink:href="#m27916b280b" y="72.0"/>
      </g>
     </g>
     <g id="line2d_36">
      <g>
       <use style="stroke:#000000;stroke-width:0.5;" x="1944.0" xlink:href="#m9fae17c97d" y="72.0"/>
      </g>
     </g>
     <g id="text_17">
      <!-- 1.2 -->
      <g transform="translate(246.91625 75.31125)scale(0.12 -0.12)">
       <use xlink:href="#BitstreamVeraSans-Roman-31"/>
       <use x="63.623046875" xlink:href="#BitstreamVeraSans-Roman-2e"/>
       <use x="95.41015625" xlink:href="#BitstreamVeraSans-Roman-32"/>
      </g>
     </g>
    </g>
   </g>
  </g>
 </g>
 <defs>
  <clipPath id="pda8fe51f2c">
   <rect height="576.0" width="1674.0" x="270.0" y="72.0"/>
  </clipPath>
 </defs>
</svg>
