<?xml version="1.0" encoding="utf-8" standalone="no"?>
<!DOCTYPE svg PUBLIC "-//W3C//DTD SVG 1.1//EN"
  "http://www.w3.org/Graphics/SVG/1.1/DTD/svg11.dtd">
<!-- Created with matplotlib (http://matplotlib.org/) -->
<svg height="720pt" version="1.1" viewBox="0 0 2160 720" width="2160pt" xmlns="http://www.w3.org/2000/svg" xmlns:xlink="http://www.w3.org/1999/xlink">
 <defs>
  <style type="text/css">
*{stroke-linecap:butt;stroke-linejoin:round;stroke-miterlimit:100000;}
  </style>
 </defs>
 <g id="figure_1">
  <g id="patch_1">
   <path d="M 0 720 
L 2160 720 
L 2160 0 
L 0 0 
z
" style="fill:#ffffff;"/>
  </g>
  <g id="axes_1">
   <g id="patch_2">
    <path d="M 270 648 
L 1944 648 
L 1944 72 
L 270 72 
z
" style="fill:#ffffff;"/>
   </g>
   <g id="line2d_1">
    <path clip-path="url(#p21da066b39)" d="M 270 632.893128 
L 272.034022 638.622005 
L 273.051033 636.278354 
L 274.068044 640.517614 
L 275.085055 639.668258 
L 276.102066 637.862632 
L 277.119077 637.309807 
L 278.136087 637.003748 
L 280.170109 637.313252 
L 281.18712 634.912448 
L 282.204131 632.19829 
L 285.255164 637.888266 
L 286.272175 637.922211 
L 287.289186 634.118269 
L 288.306197 636.811464 
L 289.323208 638.207652 
L 290.340219 637.235162 
L 291.35723 637.150445 
L 292.374241 636.367488 
L 293.391252 639.827961 
L 294.408262 636.171919 
L 295.425273 634.626691 
L 296.442284 637.015224 
L 298.476306 637.441555 
L 299.493317 637.307362 
L 300.510328 637.55322 
L 301.527339 636.907021 
L 302.54435 637.228768 
L 303.561361 637.875729 
L 304.578372 637.822828 
L 305.595383 636.156869 
L 306.612394 633.025324 
L 307.629405 632.293235 
L 308.646416 635.805846 
L 309.663426 636.158341 
L 310.680437 638.623031 
L 311.697448 637.212703 
L 312.714459 636.837599 
L 313.73147 637.204616 
L 314.748481 636.279996 
L 315.765492 636.077887 
L 316.782503 636.253545 
L 317.799514 640.462997 
L 318.816525 634.798757 
L 319.833536 632.914381 
L 320.850547 636.489892 
L 321.867558 635.227099 
L 322.884569 634.860787 
L 323.90158 634.686908 
L 324.918591 634.199132 
L 325.935601 633.312363 
L 326.952612 633.947211 
L 328.986634 635.77847 
L 330.003645 633.341051 
L 331.020656 627.056908 
L 332.037667 628.806726 
L 333.054678 632.268077 
L 334.071689 636.632072 
L 335.0887 638.924902 
L 336.105711 636.131253 
L 337.122722 635.836809 
L 338.139733 634.830017 
L 339.156744 635.432902 
L 341.190765 636.451327 
L 342.207776 639.510145 
L 343.224787 634.814477 
L 344.241798 633.391757 
L 345.258809 633.633731 
L 346.27582 632.795688 
L 347.292831 635.546115 
L 348.309842 636.878728 
L 349.326853 635.893681 
L 350.343864 635.42826 
L 352.377886 635.630626 
L 353.394897 636.307808 
L 355.428919 630.211013 
L 356.44593 629.834414 
L 357.46294 634.956127 
L 358.479951 637.828356 
L 359.496962 636.681683 
L 360.513973 636.402518 
L 361.530984 635.756891 
L 362.547995 635.335155 
L 363.565006 636.806833 
L 364.582017 637.680894 
L 365.599028 637.341227 
L 366.616039 640.529627 
L 367.63305 637.19944 
L 368.650061 636.158094 
L 369.667072 638.160681 
L 370.684083 637.82258 
L 371.701094 637.827883 
L 372.718104 638.179021 
L 373.735115 616.678017 
L 374.752126 637.575617 
L 375.769137 637.256307 
L 376.786148 636.389125 
L 377.803159 636.501919 
L 378.82017 633.359115 
L 379.837181 631.350123 
L 380.854192 631.870731 
L 381.871203 635.458271 
L 382.888214 638.262195 
L 383.905225 638.044378 
L 384.922236 636.627911 
L 385.939247 638.129033 
L 386.956258 638.621196 
L 387.973269 638.371591 
L 388.990279 638.879402 
L 390.00729 638.738118 
L 391.024301 640.491445 
L 393.058323 636.848128 
L 394.075334 638.696509 
L 396.109356 638.279864 
L 397.126367 638.761785 
L 398.143378 637.67021 
L 399.160389 636.924151 
L 400.1774 636.741238 
L 401.194411 636.033243 
L 402.211422 636.04736 
L 404.245443 631.255007 
L 405.262454 632.628143 
L 406.279465 636.070077 
L 407.296476 638.6304 
L 408.313487 635.660214 
L 409.330498 635.703152 
L 410.347509 635.488019 
L 412.381531 635.897733 
L 413.398542 636.351723 
L 414.415553 634.838168 
L 415.432564 638.975685 
L 416.449575 634.609653 
L 417.466586 631.788915 
L 418.483597 634.630152 
L 419.500608 632.807783 
L 420.517618 633.409422 
L 421.534629 633.118377 
L 422.55164 633.419289 
L 423.568651 632.994685 
L 424.585662 633.359491 
L 426.619684 635.096392 
L 427.636695 633.736463 
L 428.653706 631.130866 
L 430.687728 636.753726 
L 431.704739 638.732772 
L 432.72175 636.401612 
L 434.755772 637.163922 
L 435.772783 637.934234 
L 436.789793 637.380159 
L 437.806804 637.018789 
L 438.823815 638.909105 
L 439.840826 640.123803 
L 440.857837 637.515605 
L 441.874848 637.076312 
L 442.891859 637.892852 
L 443.90887 637.836979 
L 444.925881 637.941466 
L 445.942892 637.407388 
L 446.959903 637.03074 
L 447.976914 636.017016 
L 448.993925 635.422238 
L 451.027947 636.268227 
L 452.044957 634.326586 
L 453.061968 632.656966 
L 454.078979 633.258315 
L 455.09599 636.279429 
L 456.113001 638.56147 
L 457.130012 636.484395 
L 458.147023 635.28876 
L 459.164034 635.364063 
L 460.181045 635.776036 
L 463.232078 635.473168 
L 464.249089 639.639335 
L 465.2661 637.01582 
L 466.283111 635.892694 
L 467.300122 633.895118 
L 468.317132 637.026743 
L 469.334143 638.645273 
L 470.351154 635.281242 
L 471.368165 638.865194 
L 472.385176 641.631837 
L 473.402187 639.877576 
L 474.419198 640.279246 
L 475.436209 640.473582 
L 477.470231 635.057607 
L 478.487242 635.064381 
L 481.538275 641.412392 
L 482.555286 641.844573 
L 484.589307 638.263117 
L 485.606318 640.707658 
L 486.623329 638.874597 
L 487.64034 637.904398 
L 488.657351 641.876345 
L 490.691373 633.624586 
L 491.708384 637.420057 
L 492.725395 638.175417 
L 493.742406 637.265128 
L 494.759417 637.751764 
L 495.776428 637.466673 
L 496.793439 638.077229 
L 498.827461 640.677153 
L 499.844471 640.527057 
L 500.861482 637.89954 
L 501.878493 635.584144 
L 502.895504 634.078805 
L 503.912515 636.942317 
L 504.929526 638.48689 
L 505.946537 640.684643 
L 506.963548 642.103865 
L 507.980559 641.018382 
L 508.99757 639.234519 
L 510.014581 640.227566 
L 511.031592 638.166204 
L 512.048603 639.072771 
L 513.065614 641.993673 
L 514.082625 642.424089 
L 515.099635 639.545453 
L 517.133657 636.936266 
L 518.150668 638.113885 
L 519.167679 638.866154 
L 520.18469 640.243713 
L 521.201701 640.89363 
L 522.218712 642.807267 
L 524.252734 642.061693 
L 525.269745 637.21157 
L 526.286756 634.1996 
L 527.303767 637.052738 
L 528.320778 638.577623 
L 529.337789 638.921657 
L 530.3548 641.216779 
L 531.37181 638.666522 
L 533.405832 637.282371 
L 534.422843 638.301794 
L 535.439854 637.619689 
L 536.456865 637.255127 
L 537.473876 641.572951 
L 538.490887 637.577269 
L 539.507898 632.043645 
L 540.524909 636.160342 
L 541.54192 637.755541 
L 542.558931 637.947552 
L 543.575942 637.312728 
L 544.592953 638.41774 
L 545.609964 638.439886 
L 547.643985 640.414262 
L 548.660996 640.372808 
L 549.678007 638.204422 
L 550.695018 635.575827 
L 551.712029 635.839825 
L 552.72904 638.140867 
L 553.746051 639.368653 
L 554.763062 641.301031 
L 555.780073 642.229814 
L 556.797084 639.307095 
L 558.831106 640.017342 
L 559.848117 642.550126 
L 560.865128 641.563784 
L 561.882139 642.50425 
L 562.899149 643.861976 
L 563.91616 643.239064 
L 564.933171 643.062361 
L 565.950182 643.028965 
L 566.967193 642.613866 
L 567.984204 643.353935 
L 569.001215 643.132624 
L 570.018226 642.666284 
L 571.035237 642.073817 
L 572.052248 641.21103 
L 573.069259 639.669555 
L 574.08627 636.162767 
L 575.103281 634.28596 
L 576.120292 636.227824 
L 579.171324 641.244876 
L 581.205346 642.439994 
L 582.222357 642.431552 
L 584.256379 642.829656 
L 586.290401 642.949021 
L 587.307412 640.90168 
L 588.324423 642.232871 
L 589.341434 641.079993 
L 590.358445 641.213444 
L 591.375456 642.204897 
L 592.392467 642.833256 
L 593.409478 642.984144 
L 594.426488 642.677606 
L 596.46051 641.130965 
L 597.477521 640.051737 
L 598.494532 636.988415 
L 599.511543 635.006658 
L 600.528554 635.500797 
L 601.545565 637.605555 
L 603.579587 640.88858 
L 604.596598 641.052885 
L 605.613609 641.016292 
L 606.63062 640.25281 
L 607.647631 641.142008 
L 608.664642 641.512521 
L 609.681652 640.389806 
L 610.698663 641.715326 
L 611.715674 638.843926 
L 612.732685 640.447155 
L 613.749696 626.313443 
L 614.766707 641.559847 
L 615.783718 643.524615 
L 616.800729 642.918342 
L 617.81774 642.691018 
L 618.834751 641.201621 
L 619.851762 641.725418 
L 620.868773 640.941252 
L 621.885784 640.002406 
L 622.902795 638.116281 
L 623.919806 637.336467 
L 624.936817 637.730241 
L 625.953827 639.37516 
L 626.970838 640.691585 
L 627.987849 640.554463 
L 629.00486 640.973796 
L 630.021871 639.789659 
L 631.038882 638.826624 
L 632.055893 638.819279 
L 633.072904 640.999527 
L 634.089915 640.129152 
L 635.106926 640.291398 
L 636.123937 637.987746 
L 637.140948 635.970961 
L 638.157959 636.529072 
L 639.17497 637.472024 
L 640.191981 640.906538 
L 641.208991 641.194138 
L 643.243013 639.048554 
L 644.260024 638.48551 
L 645.277035 329.086387 
L 646.294046 641.63971 
L 647.311057 631.222247 
L 648.328068 629.212862 
L 649.345079 631.389459 
L 650.36209 385.110415 
L 651.379101 637.126349 
L 652.396112 634.131372 
L 653.413123 636.2506 
L 654.430134 636.281609 
L 655.447145 633.2461 
L 656.464156 633.525584 
L 657.481166 635.284503 
L 658.498177 635.280611 
L 660.532199 636.571631 
L 661.54921 635.937315 
L 662.566221 635.781741 
L 663.583232 637.187873 
L 664.600243 639.163573 
L 665.617254 639.6531 
L 666.634265 641.186432 
L 667.651276 640.509774 
L 668.668287 640.295434 
L 670.702309 634.416767 
L 671.71932 633.018971 
L 672.73633 629.196509 
L 673.753341 629.532632 
L 674.770352 632.787629 
L 675.787363 635.516386 
L 676.804374 632.763528 
L 677.821385 638.992926 
L 678.838396 637.854157 
L 682.90644 638.911796 
L 684.940462 639.587481 
L 685.957473 639.626695 
L 686.974484 639.124206 
L 687.991495 639.1754 
L 689.008505 639.649024 
L 690.025516 639.933636 
L 691.042527 641.4585 
L 693.076549 641.155189 
L 694.09356 638.069047 
L 695.110571 636.218592 
L 696.127582 633.554942 
L 697.144593 632.40254 
L 698.161604 633.5289 
L 700.195626 637.001865 
L 701.212637 637.428372 
L 702.229648 638.381121 
L 703.246659 638.125714 
L 704.263669 638.031698 
L 705.28068 638.27437 
L 706.297691 640.433924 
L 707.314702 639.523544 
L 708.331713 640.378003 
L 709.348724 640.205523 
L 710.365735 640.532571 
L 711.382746 641.469075 
L 712.399757 641.367627 
L 713.416768 641.721577 
L 714.433779 642.948479 
L 716.467801 641.760701 
L 717.484812 640.494262 
L 718.501823 636.858348 
L 719.518834 634.530907 
L 720.535844 631.554748 
L 721.552855 630.374351 
L 724.603888 637.504859 
L 725.620899 609.322638 
L 726.63791 640.236304 
L 727.654921 639.183412 
L 728.671932 641.473428 
L 729.688943 639.985765 
L 730.705954 640.931804 
L 731.722965 640.683317 
L 732.739976 640.102218 
L 733.756987 641.018246 
L 734.773998 639.884005 
L 735.791009 641.610822 
L 737.82503 642.154372 
L 738.842041 642.805317 
L 739.859052 642.906928 
L 741.893074 641.047298 
L 742.910085 638.404809 
L 743.927096 635.443239 
L 744.944107 633.511169 
L 745.961118 631.911485 
L 746.978129 634.092825 
L 747.99514 636.811544 
L 749.012151 637.833007 
L 751.046173 638.751338 
L 752.063183 638.275373 
L 753.080194 635.390372 
L 754.097205 638.510144 
L 755.114216 642.33512 
L 756.131227 640.194664 
L 757.148238 640.558871 
L 758.165249 641.402082 
L 759.18226 641.163361 
L 760.199271 641.933326 
L 761.216282 641.864413 
L 762.233293 642.10705 
L 763.250304 642.896601 
L 764.267315 642.800512 
L 766.301337 642.155707 
L 767.318348 640.775224 
L 768.335358 638.837976 
L 769.352369 635.823359 
L 770.36938 634.690975 
L 772.403402 637.713631 
L 773.420413 638.868057 
L 774.437424 639.386022 
L 775.454435 640.166725 
L 776.471446 639.641291 
L 777.488457 639.998671 
L 778.505468 640.04087 
L 779.522479 641.260093 
L 780.53949 640.202528 
L 781.556501 639.56953 
L 785.624544 642.031739 
L 786.641555 641.98962 
L 787.658566 642.5083 
L 789.692588 642.417599 
L 790.709599 641.515056 
L 791.72661 640.148203 
L 793.760632 635.150387 
L 794.777643 416.168944 
L 795.794654 639.904 
L 796.811665 635.107046 
L 797.828676 636.996663 
L 798.845687 415.047273 
L 799.862697 643.126116 
L 800.879708 639.395372 
L 801.896719 639.204864 
L 802.91373 639.326749 
L 803.930741 639.781801 
L 804.947752 639.106455 
L 805.964763 638.918553 
L 806.981774 638.155759 
L 807.998785 637.216534 
L 809.015796 640.349522 
L 810.032807 642.037408 
L 811.049818 640.63178 
L 812.066829 641.193741 
L 813.08384 641.941241 
L 814.100851 641.40534 
L 815.117861 638.331199 
L 816.134872 639.749245 
L 817.151883 636.252046 
L 818.168894 638.482319 
L 820.202916 630.877229 
L 821.219927 633.780531 
L 822.236938 635.680975 
L 823.253949 637.309843 
L 824.27096 638.64777 
L 825.287971 638.087465 
L 826.304982 637.182481 
L 827.321993 638.010425 
L 828.339004 639.840879 
L 829.356015 640.616393 
L 830.373026 638.965441 
L 831.390036 641.140573 
L 832.407047 639.918005 
L 834.441069 640.665601 
L 835.45808 641.546766 
L 836.475091 640.882243 
L 837.492102 641.049859 
L 838.509113 639.669909 
L 839.526124 638.586563 
L 840.543135 636.673939 
L 841.560146 635.095012 
L 842.577157 632.611674 
L 843.594168 630.917981 
L 844.611179 629.654818 
L 845.62819 632.914669 
L 846.6452 634.703695 
L 847.662211 636.828194 
L 849.696233 637.599132 
L 850.713244 635.853083 
L 851.730255 636.440937 
L 852.747266 641.433577 
L 853.764277 639.01751 
L 854.781288 639.67765 
L 856.81531 639.848074 
L 857.832321 638.344992 
L 858.849332 639.27713 
L 859.866343 640.756667 
L 860.883354 641.894211 
L 861.900365 642.317512 
L 862.917375 641.227265 
L 863.934386 640.737548 
L 864.951397 636.763674 
L 865.968408 635.491721 
L 866.985419 632.696144 
L 868.00243 631.365511 
L 869.019441 633.07084 
L 870.036452 635.972729 
L 871.053463 637.659352 
L 872.070474 638.933134 
L 873.087485 639.520847 
L 875.121507 639.506832 
L 876.138518 639.656152 
L 878.172539 639.14987 
L 879.18955 639.704022 
L 880.206561 639.288406 
L 881.223572 639.775335 
L 882.240583 641.177646 
L 884.274605 641.879853 
L 885.291616 642.571013 
L 886.308627 642.330592 
L 887.325638 641.873164 
L 888.342649 640.820855 
L 889.35966 638.161799 
L 890.376671 636.103837 
L 891.393682 633.562145 
L 892.410693 626.303499 
L 893.427704 634.20914 
L 894.444714 639.072357 
L 895.461725 636.877792 
L 896.478736 638.302113 
L 897.495747 638.736045 
L 898.512758 638.815202 
L 899.529769 638.461309 
L 900.54678 639.328817 
L 901.563791 639.824934 
L 903.597813 640.3419 
L 905.631835 641.467927 
L 906.648846 640.675959 
L 907.665857 641.068878 
L 908.682868 642.424714 
L 909.699878 642.986587 
L 910.716889 643.155804 
L 911.7339 642.333175 
L 912.750911 642.314729 
L 913.767922 639.336674 
L 914.784933 638.117309 
L 915.801944 636.005446 
L 916.818955 635.266676 
L 917.835966 636.910506 
L 919.869988 639.17146 
L 920.886999 639.60029 
L 921.90401 640.774267 
L 922.921021 639.909956 
L 923.938032 639.967732 
L 924.955043 640.92292 
L 925.972053 641.377725 
L 926.989064 640.713398 
L 928.006075 639.281439 
L 929.023086 638.732662 
L 930.040097 638.837721 
L 931.057108 639.724606 
L 932.074119 639.951208 
L 933.09113 641.317146 
L 934.108141 641.577635 
L 935.125152 641.723329 
L 936.142163 640.640799 
L 937.159174 640.369626 
L 938.176185 637.688982 
L 939.193196 636.031966 
L 940.210207 633.799962 
L 941.227217 633.216897 
L 942.244228 634.801193 
L 943.261239 635.390911 
L 944.27825 636.167578 
L 945.295261 636.169602 
L 946.312272 633.353143 
L 947.329283 637.8692 
L 948.346294 637.835074 
L 949.363305 638.34565 
L 950.380316 639.08198 
L 953.431349 638.472105 
L 954.44836 638.775078 
L 955.465371 639.273436 
L 956.482382 638.577152 
L 958.516403 640.146496 
L 959.533414 640.345336 
L 960.550425 640.242063 
L 961.567436 640.2825 
L 962.584447 632.20165 
L 963.601458 631.170286 
L 964.618469 628.652279 
L 965.63548 628.814993 
L 966.652491 630.603104 
L 967.669502 633.532946 
L 968.686513 634.354286 
L 969.703524 633.837927 
L 970.720535 632.180939 
L 971.737546 630.090889 
L 972.754556 630.221553 
L 973.771567 628.986647 
L 974.788578 632.090334 
L 975.805589 628.100963 
L 976.8226 627.486817 
L 977.839611 628.221098 
L 978.856622 627.975403 
L 979.873633 632.164711 
L 980.890644 632.085792 
L 981.907655 632.236735 
L 982.924666 635.243214 
L 983.941677 636.708915 
L 984.958688 636.28834 
L 985.975699 636.742472 
L 986.99271 632.765774 
L 988.009721 633.684751 
L 989.026731 623.049175 
L 990.043742 626.52764 
L 991.060753 633.195252 
L 992.077764 631.306983 
L 994.111786 634.594084 
L 995.128797 636.187562 
L 996.145808 636.428895 
L 997.162819 636.472586 
L 998.17983 637.194358 
L 999.196841 638.658701 
L 1000.213852 638.847143 
L 1001.230863 638.560881 
L 1002.247874 638.879648 
L 1003.264885 638.02706 
L 1004.281896 627.938443 
L 1005.298906 639.470173 
L 1006.315917 639.846423 
L 1007.332928 640.342218 
L 1008.349939 635.314243 
L 1009.36695 639.607123 
L 1010.383961 640.506438 
L 1011.400972 635.351634 
L 1012.417983 639.30989 
L 1013.434994 639.748885 
L 1014.452005 632.735095 
L 1015.469016 630.592337 
L 1016.486027 634.48175 
L 1017.503038 635.886733 
L 1018.520049 635.911782 
L 1019.53706 637.223684 
L 1020.55407 638.082023 
L 1021.571081 638.053151 
L 1022.588092 638.251353 
L 1023.605103 639.321518 
L 1025.639125 639.873764 
L 1026.656136 638.945308 
L 1027.673147 641.3234 
L 1028.690158 630.587627 
L 1029.707169 627.680114 
L 1030.72418 626.663884 
L 1031.741191 624.757164 
L 1032.758202 626.174442 
L 1033.775213 625.007324 
L 1034.792224 641.010615 
L 1036.826245 635.852113 
L 1037.843256 633.882648 
L 1038.860267 632.469823 
L 1040.894289 640.274244 
L 1041.9113 636.611417 
L 1042.928311 638.259792 
L 1043.945322 636.770549 
L 1044.962333 627.682694 
L 1045.979344 627.269448 
L 1048.013366 642.496856 
L 1049.030377 629.983445 
L 1050.047388 632.573763 
L 1052.081409 628.641512 
L 1053.09842 633.4389 
L 1054.115431 631.494173 
L 1055.132442 631.456015 
L 1056.149453 631.935234 
L 1057.166464 631.943022 
L 1058.183475 631.071889 
L 1059.200486 624.833949 
L 1060.217497 626.752853 
L 1061.234508 630.064681 
L 1062.251519 623.978636 
L 1063.26853 608.508361 
L 1064.285541 626.796545 
L 1065.302552 636.667383 
L 1066.319563 633.194099 
L 1067.336574 635.145167 
L 1068.353584 637.456405 
L 1069.370595 611.78383 
L 1070.387606 629.099449 
L 1071.404617 636.400349 
L 1072.421628 634.549591 
L 1073.438639 632.433814 
L 1074.45565 596.757053 
L 1075.472661 609.442792 
L 1076.489672 631.863111 
L 1077.506683 621.114181 
L 1078.523694 619.703929 
L 1079.540705 625.406672 
L 1081.574727 633.237636 
L 1082.591738 633.523176 
L 1083.608748 632.940343 
L 1084.625759 624.636494 
L 1085.64277 639.566233 
L 1086.659781 629.603906 
L 1087.676792 633.895872 
L 1088.693803 639.005116 
L 1089.710814 636.713844 
L 1090.727825 638.284261 
L 1091.744836 639.390131 
L 1092.761847 638.950502 
L 1093.778858 630.865815 
L 1094.795869 631.82351 
L 1095.81288 638.735402 
L 1096.829891 636.97424 
L 1097.846902 631.324668 
L 1098.863913 632.290042 
L 1099.880923 627.850047 
L 1100.897934 627.87443 
L 1101.914945 634.06471 
L 1102.931956 630.505838 
L 1103.948967 629.61323 
L 1104.965978 628.874837 
L 1105.982989 629.514637 
L 1107 632.212763 
L 1108.017011 629.902435 
L 1109.034022 633.690593 
L 1110.051033 635.288679 
L 1111.068044 632.546373 
L 1112.085055 631.978439 
L 1113.102066 632.965008 
L 1114.119077 606.785199 
L 1115.136087 640.942585 
L 1116.153098 637.363925 
L 1117.170109 638.549032 
L 1118.18712 632.169612 
L 1119.204131 631.191525 
L 1120.221142 638.778738 
L 1121.238153 636.976166 
L 1122.255164 632.040302 
L 1123.272175 632.769674 
L 1124.289186 628.463205 
L 1125.306197 625.016392 
L 1126.323208 634.261459 
L 1127.340219 632.778672 
L 1128.35723 632.013769 
L 1129.374241 631.396125 
L 1130.391252 632.481536 
L 1131.408262 632.560176 
L 1133.442284 636.252581 
L 1134.459295 637.144092 
L 1135.476306 635.749599 
L 1136.493317 635.661173 
L 1137.510328 636.949614 
L 1138.527339 636.963429 
L 1139.54435 638.583325 
L 1140.561361 638.824958 
L 1141.578372 637.614366 
L 1142.595383 633.788586 
L 1143.612394 633.634535 
L 1144.629405 639.603115 
L 1145.646416 637.839582 
L 1146.663426 633.05793 
L 1147.680437 632.597254 
L 1148.697448 631.574637 
L 1149.714459 637.013197 
L 1151.748481 634.71275 
L 1152.765492 633.733757 
L 1153.782503 632.916217 
L 1154.799514 632.900057 
L 1155.816525 631.2444 
L 1156.833536 632.201327 
L 1157.850547 628.700558 
L 1158.867558 625.953023 
L 1159.884569 624.488899 
L 1160.90158 630.57684 
L 1161.918591 630.660176 
L 1162.935601 633.468554 
L 1163.952612 635.79202 
L 1164.969623 632.962746 
L 1165.986634 638.885013 
L 1167.003645 632.759785 
L 1168.020656 633.744115 
L 1169.037667 639.323603 
L 1170.054678 635.761159 
L 1171.071689 632.604303 
L 1172.0887 632.553143 
L 1173.105711 629.654056 
L 1174.122722 629.61714 
L 1175.139733 625.5835 
L 1176.156744 631.594005 
L 1177.173755 632.524163 
L 1178.190765 631.917164 
L 1179.207776 631.753333 
L 1180.224787 632.554374 
L 1181.241798 632.146095 
L 1182.258809 634.282406 
L 1183.27582 618.806214 
L 1184.292831 639.817424 
L 1185.309842 631.876702 
L 1186.326853 632.16224 
L 1187.343864 633.760055 
L 1188.360875 636.681568 
L 1189.377886 638.266473 
L 1190.394897 637.020363 
L 1191.411908 634.933232 
L 1192.428919 635.116367 
L 1193.44593 639.235051 
L 1195.479951 633.693432 
L 1196.496962 633.122714 
L 1197.513973 627.685261 
L 1198.530984 609.632751 
L 1199.547995 633.530135 
L 1200.565006 631.3063 
L 1201.582017 631.39164 
L 1202.599028 630.99231 
L 1203.616039 632.738675 
L 1204.63305 632.135314 
L 1205.650061 633.335435 
L 1206.667072 635.494311 
L 1207.684083 633.871772 
L 1208.701094 631.575427 
L 1209.718104 630.700544 
L 1210.735115 631.506238 
L 1212.769137 636.093415 
L 1213.786148 636.688318 
L 1214.803159 638.348896 
L 1215.82017 636.390038 
L 1216.837181 631.966278 
L 1217.854192 637.51321 
L 1218.871203 639.786748 
L 1219.888214 638.821163 
L 1220.905225 635.210466 
L 1221.922236 632.448229 
L 1222.939247 631.764082 
L 1223.956258 633.848168 
L 1224.973269 632.412802 
L 1225.990279 634.829295 
L 1227.00729 632.555688 
L 1228.024301 629.048736 
L 1229.041312 630.497639 
L 1230.058323 631.502577 
L 1231.075334 626.698634 
L 1232.092345 640.000276 
L 1233.109356 634.980934 
L 1234.126367 634.619627 
L 1235.143378 635.333912 
L 1236.160389 636.25492 
L 1237.1774 638.136237 
L 1238.194411 637.838785 
L 1239.211422 639.249433 
L 1240.228433 637.413367 
L 1241.245443 640.09721 
L 1242.262454 639.843578 
L 1243.279465 640.838275 
L 1244.296476 641.298482 
L 1245.313487 641.535717 
L 1246.330498 641.557595 
L 1247.347509 638.452869 
L 1248.36452 635.728274 
L 1249.381531 635.52885 
L 1250.398542 634.972601 
L 1251.415553 633.196779 
L 1252.432564 638.72086 
L 1253.449575 632.530453 
L 1254.466586 638.09982 
L 1255.483597 638.190967 
L 1256.500608 636.294434 
L 1257.517618 635.333381 
L 1258.534629 635.061358 
L 1259.55164 635.801766 
L 1260.568651 637.07964 
L 1261.585662 637.327754 
L 1262.602673 638.296284 
L 1263.619684 638.664647 
L 1264.636695 639.862934 
L 1265.653706 639.546597 
L 1266.670717 639.746619 
L 1267.687728 640.57329 
L 1268.704739 640.383221 
L 1269.72175 641.06464 
L 1270.738761 640.97449 
L 1271.755772 639.583268 
L 1272.772783 631.732534 
L 1273.789793 635.391776 
L 1274.806804 635.864728 
L 1275.823815 634.173831 
L 1276.840826 634.933853 
L 1277.857837 636.191086 
L 1278.874848 639.202321 
L 1280.90887 636.782483 
L 1281.925881 634.284488 
L 1283.959903 635.169121 
L 1284.976914 636.543403 
L 1287.010936 638.652448 
L 1288.027947 638.71776 
L 1289.044957 638.902398 
L 1290.061968 636.4288 
L 1291.078979 639.185229 
L 1292.09599 641.360047 
L 1293.113001 640.644586 
L 1294.130012 641.108455 
L 1295.147023 639.766593 
L 1296.164034 640.10906 
L 1297.181045 639.533013 
L 1298.198056 641.471431 
L 1299.215067 642.047012 
L 1300.232078 642.91543 
L 1301.249089 642.180179 
L 1302.2661 642.438757 
L 1303.283111 641.144823 
L 1304.300122 623.88955 
L 1305.317132 640.600725 
L 1306.334143 627.370316 
L 1307.351154 631.418776 
L 1308.368165 631.499061 
L 1309.385176 634.973968 
L 1310.402187 635.255989 
L 1311.419198 638.030657 
L 1313.45322 638.100866 
L 1314.470231 634.147165 
L 1315.487242 632.657856 
L 1316.504253 634.224625 
L 1317.521264 631.580154 
L 1318.538275 631.46559 
L 1319.555286 633.750933 
L 1320.572296 635.737228 
L 1321.589307 641.273944 
L 1322.606318 642.961957 
L 1323.623329 642.493989 
L 1324.64034 643.108485 
L 1325.657351 642.132336 
L 1326.674362 640.239842 
L 1327.691373 636.974583 
L 1328.708384 634.452838 
L 1329.725395 633.550039 
L 1330.742406 630.730323 
L 1331.759417 630.096683 
L 1332.776428 631.374119 
L 1333.793439 629.062433 
L 1334.81045 632.482682 
L 1335.827461 634.292459 
L 1336.844471 635.692946 
L 1337.861482 633.781641 
L 1338.878493 633.135925 
L 1339.895504 632.909971 
L 1340.912515 632.45069 
L 1341.929526 632.964913 
L 1342.946537 632.979688 
L 1343.963548 633.263698 
L 1344.980559 632.41038 
L 1345.99757 640.754393 
L 1347.014581 642.130746 
L 1348.031592 642.317925 
L 1349.048603 641.868222 
L 1350.065614 641.993849 
L 1351.082625 640.365338 
L 1352.099635 640.407786 
L 1353.116646 636.637689 
L 1354.133657 634.212738 
L 1355.150668 633.144966 
L 1356.167679 629.236856 
L 1357.18469 630.076349 
L 1358.201701 631.785594 
L 1359.218712 635.689641 
L 1360.235723 625.755599 
L 1361.252734 639.623557 
L 1362.269745 637.885625 
L 1363.286756 638.916501 
L 1364.303767 638.084657 
L 1365.320778 635.094241 
L 1367.3548 633.267595 
L 1368.37181 631.990638 
L 1369.388821 631.831969 
L 1370.405832 639.691938 
L 1371.422843 641.121277 
L 1372.439854 641.05737 
L 1373.456865 641.217635 
L 1374.473876 640.463211 
L 1375.490887 639.382875 
L 1376.507898 639.517399 
L 1377.524909 630.502018 
L 1378.54192 633.20144 
L 1380.575942 633.188571 
L 1381.592953 631.978002 
L 1382.609964 633.686076 
L 1383.626974 634.589414 
L 1384.643985 636.077769 
L 1385.660996 636.858636 
L 1387.695018 639.667196 
L 1388.712029 637.731151 
L 1389.72904 630.515741 
L 1390.746051 634.55867 
L 1391.763062 634.135779 
L 1392.780073 632.810991 
L 1393.797084 632.290435 
L 1394.814095 640.482943 
L 1395.831106 641.244397 
L 1396.848117 641.250272 
L 1397.865128 640.126328 
L 1398.882139 640.474704 
L 1399.899149 637.644307 
L 1400.91616 637.045234 
L 1401.933171 634.482967 
L 1402.950182 632.314389 
L 1403.967193 632.17036 
L 1404.984204 629.393977 
L 1406.001215 633.477604 
L 1407.018226 633.257784 
L 1408.035237 635.827607 
L 1409.052248 634.413899 
L 1410.069259 637.478649 
L 1411.08627 637.685888 
L 1412.103281 638.870585 
L 1413.120292 637.344215 
L 1414.137303 638.264991 
L 1415.154313 635.3352 
L 1416.171324 637.381957 
L 1417.188335 635.856426 
L 1418.205346 631.496236 
L 1419.222357 639.838862 
L 1420.239368 641.040302 
L 1421.256379 638.379432 
L 1422.27339 640.104362 
L 1424.307412 639.309255 
L 1425.324423 635.890262 
L 1426.341434 634.03068 
L 1427.358445 632.901463 
L 1428.375456 632.542218 
L 1430.409478 634.572197 
L 1431.426488 635.201715 
L 1432.443499 635.319591 
L 1433.46051 635.698221 
L 1434.477521 636.996606 
L 1435.494532 632.921303 
L 1436.511543 637.094812 
L 1437.528554 636.82284 
L 1438.545565 637.931768 
L 1440.579587 637.586728 
L 1441.596598 636.703197 
L 1442.613609 632.258723 
L 1443.63062 638.130058 
L 1444.647631 637.794481 
L 1445.664642 636.790301 
L 1446.681652 638.741762 
L 1447.698663 638.713054 
L 1448.715674 639.803983 
L 1449.732685 635.8065 
L 1450.749696 632.442837 
L 1451.766707 631.75641 
L 1452.783718 629.967818 
L 1453.800729 628.451507 
L 1454.81774 631.277419 
L 1455.834751 631.141691 
L 1456.851762 629.55273 
L 1457.868773 631.028504 
L 1458.885784 633.767462 
L 1459.902795 634.262805 
L 1460.919806 634.579323 
L 1461.936817 630.598436 
L 1462.953827 634.842524 
L 1463.970838 635.167199 
L 1464.987849 635.838341 
L 1466.00486 635.312798 
L 1467.021871 636.508422 
L 1468.038882 616.340837 
L 1469.055893 637.912159 
L 1470.072904 637.542454 
L 1471.089915 638.30683 
L 1472.106926 637.752556 
L 1474.140948 634.131174 
L 1475.157959 632.288063 
L 1476.17497 627.028358 
L 1477.191981 635.162297 
L 1478.208991 631.718108 
L 1479.226002 632.302917 
L 1480.243013 632.34266 
L 1482.277035 633.661021 
L 1483.294046 635.000021 
L 1484.311057 636.06983 
L 1485.328068 636.502507 
L 1486.345079 634.527171 
L 1487.36209 633.203076 
L 1488.379101 632.109451 
L 1489.396112 631.427847 
L 1490.413123 629.345922 
L 1491.430134 628.776462 
L 1492.447145 636.16262 
L 1493.464156 636.853383 
L 1494.481166 639.503448 
L 1495.498177 639.116226 
L 1496.515188 637.941542 
L 1497.532199 631.704523 
L 1498.54921 615.517357 
L 1499.566221 623.69177 
L 1500.583232 636.337876 
L 1501.600243 627.205239 
L 1502.617254 626.123009 
L 1503.634265 630.521905 
L 1504.651276 630.462734 
L 1505.668287 628.234035 
L 1506.685298 628.922419 
L 1507.702309 630.85626 
L 1508.71932 628.589692 
L 1509.73633 631.9997 
L 1510.753341 629.436778 
L 1511.770352 629.134682 
L 1512.787363 628.058739 
L 1513.804374 628.19939 
L 1514.821385 627.589957 
L 1515.838396 625.641983 
L 1516.855407 636.076566 
L 1517.872418 636.546655 
L 1518.889429 639.978931 
L 1519.90644 640.693501 
L 1520.923451 639.874826 
L 1522.957473 631.172726 
L 1523.974484 587.335355 
L 1524.991495 629.815106 
L 1526.008505 636.391199 
L 1527.025516 626.101169 
L 1528.042527 624.046434 
L 1529.059538 625.859628 
L 1530.076549 626.718084 
L 1531.09356 626.645584 
L 1532.110571 628.432152 
L 1533.127582 629.690084 
L 1534.144593 626.134169 
L 1535.161604 630.175504 
L 1536.178615 630.039201 
L 1537.195626 631.032504 
L 1538.212637 629.681005 
L 1539.229648 628.699505 
L 1540.246659 620.036165 
L 1541.26367 640.004977 
L 1542.28068 641.537729 
L 1543.297691 641.618223 
L 1544.314702 639.523302 
L 1546.348724 630.134895 
L 1547.365735 629.4789 
L 1548.382746 630.094988 
L 1549.399757 628.507764 
L 1550.416768 626.307736 
L 1551.433779 627.934314 
L 1552.45079 630.219211 
L 1553.467801 630.219211 
L 1554.484812 637.931758 
L 1555.501823 630.292021 
L 1556.518834 631.452743 
L 1557.535844 631.688616 
L 1558.552855 631.553573 
L 1560.586877 631.795417 
L 1561.603888 632.185123 
L 1562.620899 632.074396 
L 1563.63791 631.306584 
L 1564.654921 631.816693 
L 1565.671932 633.121313 
L 1566.688943 630.444861 
L 1567.705954 629.829014 
L 1568.722965 630.795586 
L 1569.739976 629.578405 
L 1570.756987 629.694607 
L 1571.773998 133.409524 
L 1572.791009 640.686849 
L 1573.808019 626.586983 
L 1574.82503 625.76867 
L 1575.842041 627.50781 
L 1576.859052 630.151461 
L 1577.876063 629.932383 
L 1578.893074 631.08272 
L 1579.910085 629.307648 
L 1580.927096 634.234346 
L 1581.944107 637.794564 
L 1582.961118 636.460226 
L 1583.978129 633.051867 
L 1584.99514 636.687087 
L 1586.012151 638.573913 
L 1587.029162 637.449376 
L 1588.046173 638.04511 
L 1589.063183 533.687344 
L 1590.080194 638.724893 
L 1591.097205 639.26724 
L 1592.114216 639.293451 
L 1593.131227 639.144928 
L 1594.148238 637.828974 
L 1595.165249 634.89706 
L 1596.18226 633.16335 
L 1598.216282 628.346182 
L 1599.233293 626.888518 
L 1600.250304 627.248219 
L 1601.267315 629.718261 
L 1602.284326 627.6537 
L 1604.318348 633.931193 
L 1605.335358 635.263602 
L 1607.36938 636.049181 
L 1608.386391 633.811355 
L 1609.403402 636.143377 
L 1610.420413 637.008215 
L 1611.437424 635.557459 
L 1612.454435 627.948781 
L 1613.471446 632.537557 
L 1614.488457 640.492397 
L 1615.505468 638.660413 
L 1616.522479 638.917743 
L 1617.53949 638.863918 
L 1618.556501 637.892564 
L 1619.573512 635.771968 
L 1620.590522 629.035041 
L 1621.607533 637.153789 
L 1622.624544 629.202481 
L 1623.641555 627.752554 
L 1624.658566 629.703807 
L 1625.675577 626.732816 
L 1626.692588 631.053393 
L 1627.709599 634.024334 
L 1628.72661 634.720518 
L 1629.743621 608.510441 
L 1630.760632 640.353149 
L 1631.777643 635.710783 
L 1633.811665 635.713766 
L 1634.828676 636.542255 
L 1635.845687 634.248155 
L 1636.862697 630.960653 
L 1637.879708 635.640806 
L 1638.896719 638.305647 
L 1639.91373 638.746266 
L 1640.930741 638.410009 
L 1641.947752 637.837115 
L 1642.964763 636.856532 
L 1643.981774 634.765623 
L 1644.998785 634.205714 
L 1646.015796 632.061429 
L 1647.032807 629.037916 
L 1648.049818 627.548316 
L 1649.066829 628.07791 
L 1650.08384 631.996373 
L 1651.100851 631.176453 
L 1652.117861 631.760289 
L 1653.134872 633.64856 
L 1654.151883 634.448014 
L 1655.168894 636.055612 
L 1656.185905 632.959735 
L 1657.202916 635.939943 
L 1658.219927 635.773699 
L 1659.236938 623.928484 
L 1660.253949 629.306544 
L 1662.287971 634.921627 
L 1663.304982 631.828241 
L 1664.321993 635.952761 
L 1665.339004 634.540219 
L 1666.356015 634.114943 
L 1667.373026 634.964266 
L 1668.390036 607.37677 
L 1669.407047 635.161544 
L 1670.424058 626.705777 
L 1671.441069 622.02261 
L 1672.45808 527.328534 
L 1673.475091 633.921441 
L 1674.492102 618.580317 
L 1675.509113 619.961036 
L 1676.526124 626.2053 
L 1677.543135 620.826406 
L 1678.560146 627.149652 
L 1679.577157 631.182739 
L 1680.594168 636.52702 
L 1681.611179 621.378828 
L 1682.62819 635.527534 
L 1683.6452 635.578409 
L 1684.662211 637.306643 
L 1685.679222 636.180671 
L 1686.696233 629.676327 
L 1687.713244 632.867835 
L 1688.730255 630.183697 
L 1689.747266 634.074535 
L 1690.764277 631.684819 
L 1691.781288 630.479154 
L 1692.798299 629.663857 
L 1694.832321 623.591582 
L 1695.849332 623.604794 
L 1696.866343 628.361731 
L 1697.883354 624.240226 
L 1698.900365 299.737815 
L 1699.917375 628.744984 
L 1700.934386 626.740883 
L 1702.968408 632.969056 
L 1703.985419 632.44937 
L 1705.00243 622.381543 
L 1706.019441 637.076871 
L 1707.036452 632.195957 
L 1708.053463 630.179745 
L 1709.070474 630.973169 
L 1710.087485 631.616331 
L 1711.104496 629.741198 
L 1712.121507 624.574555 
L 1713.138518 627.713993 
L 1714.155529 623.502621 
L 1715.172539 627.894185 
L 1716.18955 635.709897 
L 1717.206561 637.695311 
L 1718.223572 633.898588 
L 1719.240583 626.407118 
L 1720.257594 557.571329 
L 1721.274605 636.907282 
L 1722.291616 629.700965 
L 1723.308627 629.607307 
L 1724.325638 628.637091 
L 1725.342649 630.31223 
L 1726.35966 632.393608 
L 1727.376671 633.111137 
L 1728.393682 634.628571 
L 1729.410693 634.213581 
L 1730.427704 634.213605 
L 1731.444714 634.78953 
L 1732.461725 632.575735 
L 1733.478736 634.142687 
L 1735.512758 634.809829 
L 1736.529769 634.913236 
L 1737.54678 635.274497 
L 1738.563791 634.56207 
L 1739.580802 634.16526 
L 1740.597813 633.322667 
L 1741.614824 631.803718 
L 1742.631835 600.386049 
L 1743.648846 635.284973 
L 1744.665857 622.427542 
L 1745.682868 621.326521 
L 1746.699878 621.935802 
L 1747.716889 626.325133 
L 1748.7339 622.982178 
L 1749.750911 627.486278 
L 1750.767922 630.1169 
L 1751.784933 630.538773 
L 1752.801944 631.77931 
L 1753.818955 630.876688 
L 1754.835966 633.869023 
L 1755.852977 633.6736 
L 1756.869988 634.141411 
L 1757.886999 633.628573 
L 1758.90401 634.760571 
L 1759.921021 631.529243 
L 1760.938032 629.552414 
L 1761.955043 633.01151 
L 1762.972053 635.828459 
L 1763.989064 634.856374 
L 1765.006075 638.273048 
L 1766.023086 637.585267 
L 1767.040097 631.563956 
L 1768.057108 631.417812 
L 1769.074119 630.136124 
L 1770.09113 633.465133 
L 1772.125152 632.758129 
L 1773.142163 632.843326 
L 1774.159174 633.714967 
L 1775.176185 634.272291 
L 1776.193196 636.812278 
L 1777.210207 638.4676 
L 1778.227217 637.468851 
L 1779.244228 607.465237 
L 1780.261239 564.713502 
L 1781.27825 590.8412 
L 1782.295261 626.587097 
L 1783.312272 639.949106 
L 1784.329283 633.375228 
L 1786.363305 640.359499 
L 1787.380316 640.581039 
L 1788.397327 635.797012 
L 1790.431349 632.113259 
L 1791.44836 630.822572 
L 1792.465371 630.07884 
L 1793.482382 626.563011 
L 1794.499392 622.556844 
L 1795.516403 629.2938 
L 1796.533414 631.754355 
L 1797.550425 628.185964 
L 1798.567436 627.497559 
L 1799.584447 629.811668 
L 1800.601458 630.658232 
L 1801.618469 631.209979 
L 1802.63548 630.464667 
L 1803.652491 596.041279 
L 1804.669502 638.360816 
L 1805.686513 631.351054 
L 1806.703524 631.560226 
L 1807.720535 630.781776 
L 1808.737546 628.172996 
L 1809.754556 639.828132 
L 1810.771567 640.194468 
L 1811.788578 638.908424 
L 1813.8226 632.556224 
L 1814.839611 630.203898 
L 1815.856622 626.62743 
L 1816.873633 628.07216 
L 1817.890644 622.202317 
L 1818.907655 618.947205 
L 1819.924666 627.282457 
L 1820.941677 630.334958 
L 1821.958688 630.510441 
L 1822.975699 627.456217 
L 1823.99271 628.789734 
L 1825.009721 630.510094 
L 1827.043742 631.334497 
L 1828.060753 632.226612 
L 1829.077764 632.32666 
L 1830.094775 632.587768 
L 1831.111786 632.509458 
L 1832.128797 632.832465 
L 1833.145808 631.571522 
L 1834.162819 636.846058 
L 1835.17983 637.484744 
L 1836.196841 639.133399 
L 1837.213852 638.564595 
L 1838.230863 638.141327 
L 1839.247874 636.658868 
L 1840.264885 634.477837 
L 1841.281896 631.501381 
L 1842.298906 630.994875 
L 1843.315917 629.935415 
L 1844.332928 627.274851 
L 1845.349939 628.67293 
L 1846.36695 629.157255 
L 1847.383961 634.014078 
L 1848.400972 635.13653 
L 1849.417983 634.49187 
L 1850.434994 636.305959 
L 1851.452005 636.300963 
L 1852.469016 636.659886 
L 1853.486027 636.765297 
L 1854.503038 635.577438 
L 1857.55407 634.876193 
L 1858.571081 636.366671 
L 1859.588092 637.553306 
L 1860.605103 637.324711 
L 1861.622114 638.348585 
L 1862.639125 637.710604 
L 1863.656136 636.41278 
L 1864.673147 634.312033 
L 1865.690158 425.752906 
L 1866.707169 640.183065 
L 1867.72418 629.764156 
L 1868.741191 626.295592 
L 1869.758202 627.729814 
L 1870.775213 631.362779 
L 1871.792224 632.689701 
L 1872.809235 632.900571 
L 1873.826245 632.762205 
L 1874.843256 632.191935 
L 1875.860267 635.042191 
L 1876.877278 635.781487 
L 1877.894289 634.349887 
L 1880.945322 635.58659 
L 1881.962333 632.778755 
L 1882.979344 633.401825 
L 1883.996355 639.886543 
L 1885.013366 640.269041 
L 1886.030377 638.475841 
L 1887.047388 633.822901 
L 1888.064399 631.552837 
L 1889.081409 631.913295 
L 1890.09842 629.058428 
L 1891.115431 628.972339 
L 1892.132442 628.208283 
L 1893.149453 626.538815 
L 1894.166464 626.175584 
L 1896.200486 629.788917 
L 1898.234508 631.178576 
L 1899.251519 632.361557 
L 1900.26853 632.079372 
L 1901.285541 631.578395 
L 1902.302552 632.879624 
L 1903.319563 628.950056 
L 1904.336574 632.357143 
L 1905.353584 630.483925 
L 1906.370595 629.253949 
L 1907.387606 637.932165 
L 1908.404617 640.602917 
L 1909.421628 641.460583 
L 1910.438639 633.933337 
L 1911.45565 630.958473 
L 1912.472661 630.31688 
L 1913.489672 629.890314 
L 1914.506683 628.034469 
L 1915.523694 627.432381 
L 1916.540705 627.170863 
L 1918.574727 629.971572 
L 1919.591738 629.647522 
L 1920.608748 630.197707 
L 1921.625759 627.606309 
L 1922.64277 630.420892 
L 1923.659781 632.278033 
L 1924.676792 633.128727 
L 1925.693803 641.260734 
L 1926.710814 642.002798 
L 1927.727825 644.069425 
L 1928.744836 643.29205 
L 1929.761847 640.213573 
L 1930.778858 638.649896 
L 1931.795869 643.898049 
L 1932.81288 642.571773 
L 1933.829891 643.748184 
L 1934.846902 643.191591 
L 1935.863913 643.158493 
L 1936.880923 640.182339 
L 1937.897934 641.505136 
L 1938.914945 639.567216 
L 1939.931956 639.067848 
L 1940.948967 636.373046 
L 1941.965978 638.728279 
L 1942.982989 639.642739 
L 1944 638.745817 
L 1944 638.745817 
" style="fill:none;stroke:#0000ff;stroke-linecap:square;"/>
   </g>
   <g id="line2d_2">
    <defs>
     <path d="M 0 3 
C 0.795609 3 1.55874 2.683901 2.12132 2.12132 
C 2.683901 1.55874 3 0.795609 3 0 
C 3 -0.795609 2.683901 -1.55874 2.12132 -2.12132 
C 1.55874 -2.683901 0.795609 -3 0 -3 
C -0.795609 -3 -1.55874 -2.683901 -2.12132 -2.12132 
C -2.683901 -1.55874 -3 -0.795609 -3 0 
C -3 0.795609 -2.683901 1.55874 -2.12132 2.12132 
C -1.55874 2.683901 -0.795609 3 0 3 
z
" id="m09fa8a67d5" style="stroke:#000000;stroke-width:0.5;"/>
    </defs>
    <g clip-path="url(#p21da066b39)">
     <use style="fill:#ff0000;stroke:#000000;stroke-width:0.5;" x="645.277035236" xlink:href="#m09fa8a67d5" y="329.086386555"/>
     <use style="fill:#ff0000;stroke:#000000;stroke-width:0.5;" x="1571.77399757" xlink:href="#m09fa8a67d5" y="133.40952381"/>
     <use style="fill:#ff0000;stroke:#000000;stroke-width:0.5;" x="1698.90036452" xlink:href="#m09fa8a67d5" y="299.737815126"/>
     <use style="fill:#ff0000;stroke:#000000;stroke-width:0.5;" x="1865.69015796" xlink:href="#m09fa8a67d5" y="425.752906405"/>
    </g>
   </g>
   <g id="patch_3">
    <path d="M 270 72 
L 1944 72 
" style="fill:none;stroke:#000000;stroke-linecap:square;stroke-linejoin:miter;"/>
   </g>
   <g id="patch_4">
    <path d="M 1944 648 
L 1944 72 
" style="fill:none;stroke:#000000;stroke-linecap:square;stroke-linejoin:miter;"/>
   </g>
   <g id="patch_5">
    <path d="M 270 648 
L 1944 648 
" style="fill:none;stroke:#000000;stroke-linecap:square;stroke-linejoin:miter;"/>
   </g>
   <g id="patch_6">
    <path d="M 270 648 
L 270 72 
" style="fill:none;stroke:#000000;stroke-linecap:square;stroke-linejoin:miter;"/>
   </g>
   <g id="matplotlib.axis_1">
    <g id="xtick_1">
     <g id="line2d_3">
      <defs>
       <path d="M 0 0 
L 0 -4 
" id="m3e35ea92d7" style="stroke:#000000;stroke-width:0.5;"/>
      </defs>
      <g>
       <use style="stroke:#000000;stroke-width:0.5;" x="318.561989672" xlink:href="#m3e35ea92d7" y="648.0"/>
      </g>
     </g>
     <g id="line2d_4">
      <defs>
       <path d="M 0 0 
L 0 4 
" id="mb5cab16513" style="stroke:#000000;stroke-width:0.5;"/>
      </defs>
      <g>
       <use style="stroke:#000000;stroke-width:0.5;" x="318.561989672" xlink:href="#mb5cab16513" y="72.0"/>
      </g>
     </g>
     <g id="text_1">
      <!-- Jul 03 2011 -->
      <defs>
       <path d="M 19.1875 8.296875 
L 53.609375 8.296875 
L 53.609375 0 
L 7.328125 0 
L 7.328125 8.296875 
Q 12.9375 14.109375 22.625 23.890625 
Q 32.328125 33.6875 34.8125 36.53125 
Q 39.546875 41.84375 41.421875 45.53125 
Q 43.3125 49.21875 43.3125 52.78125 
Q 43.3125 58.59375 39.234375 62.25 
Q 35.15625 65.921875 28.609375 65.921875 
Q 23.96875 65.921875 18.8125 64.3125 
Q 13.671875 62.703125 7.8125 59.421875 
L 7.8125 69.390625 
Q 13.765625 71.78125 18.9375 73 
Q 24.125 74.21875 28.421875 74.21875 
Q 39.75 74.21875 46.484375 68.546875 
Q 53.21875 62.890625 53.21875 53.421875 
Q 53.21875 48.921875 51.53125 44.890625 
Q 49.859375 40.875 45.40625 35.40625 
Q 44.1875 33.984375 37.640625 27.21875 
Q 31.109375 20.453125 19.1875 8.296875 
" id="BitstreamVeraSans-Roman-32"/>
       <path id="BitstreamVeraSans-Roman-20"/>
       <path d="M 31.78125 66.40625 
Q 24.171875 66.40625 20.328125 58.90625 
Q 16.5 51.421875 16.5 36.375 
Q 16.5 21.390625 20.328125 13.890625 
Q 24.171875 6.390625 31.78125 6.390625 
Q 39.453125 6.390625 43.28125 13.890625 
Q 47.125 21.390625 47.125 36.375 
Q 47.125 51.421875 43.28125 58.90625 
Q 39.453125 66.40625 31.78125 66.40625 
M 31.78125 74.21875 
Q 44.046875 74.21875 50.515625 64.515625 
Q 56.984375 54.828125 56.984375 36.375 
Q 56.984375 17.96875 50.515625 8.265625 
Q 44.046875 -1.421875 31.78125 -1.421875 
Q 19.53125 -1.421875 13.0625 8.265625 
Q 6.59375 17.96875 6.59375 36.375 
Q 6.59375 54.828125 13.0625 64.515625 
Q 19.53125 74.21875 31.78125 74.21875 
" id="BitstreamVeraSans-Roman-30"/>
       <path d="M 12.40625 8.296875 
L 28.515625 8.296875 
L 28.515625 63.921875 
L 10.984375 60.40625 
L 10.984375 69.390625 
L 28.421875 72.90625 
L 38.28125 72.90625 
L 38.28125 8.296875 
L 54.390625 8.296875 
L 54.390625 0 
L 12.40625 0 
z
" id="BitstreamVeraSans-Roman-31"/>
       <path d="M 9.8125 72.90625 
L 19.671875 72.90625 
L 19.671875 5.078125 
Q 19.671875 -8.109375 14.671875 -14.0625 
Q 9.671875 -20.015625 -1.421875 -20.015625 
L -5.171875 -20.015625 
L -5.171875 -11.71875 
L -2.09375 -11.71875 
Q 4.4375 -11.71875 7.125 -8.046875 
Q 9.8125 -4.390625 9.8125 5.078125 
z
" id="BitstreamVeraSans-Roman-4a"/>
       <path d="M 40.578125 39.3125 
Q 47.65625 37.796875 51.625 33 
Q 55.609375 28.21875 55.609375 21.1875 
Q 55.609375 10.40625 48.1875 4.484375 
Q 40.765625 -1.421875 27.09375 -1.421875 
Q 22.515625 -1.421875 17.65625 -0.515625 
Q 12.796875 0.390625 7.625 2.203125 
L 7.625 11.71875 
Q 11.71875 9.328125 16.59375 8.109375 
Q 21.484375 6.890625 26.8125 6.890625 
Q 36.078125 6.890625 40.9375 10.546875 
Q 45.796875 14.203125 45.796875 21.1875 
Q 45.796875 27.640625 41.28125 31.265625 
Q 36.765625 34.90625 28.71875 34.90625 
L 20.21875 34.90625 
L 20.21875 43.015625 
L 29.109375 43.015625 
Q 36.375 43.015625 40.234375 45.921875 
Q 44.09375 48.828125 44.09375 54.296875 
Q 44.09375 59.90625 40.109375 62.90625 
Q 36.140625 65.921875 28.71875 65.921875 
Q 24.65625 65.921875 20.015625 65.03125 
Q 15.375 64.15625 9.8125 62.3125 
L 9.8125 71.09375 
Q 15.4375 72.65625 20.34375 73.4375 
Q 25.25 74.21875 29.59375 74.21875 
Q 40.828125 74.21875 47.359375 69.109375 
Q 53.90625 64.015625 53.90625 55.328125 
Q 53.90625 49.265625 50.4375 45.09375 
Q 46.96875 40.921875 40.578125 39.3125 
" id="BitstreamVeraSans-Roman-33"/>
       <path d="M 9.421875 75.984375 
L 18.40625 75.984375 
L 18.40625 0 
L 9.421875 0 
z
" id="BitstreamVeraSans-Roman-6c"/>
       <path d="M 8.5 21.578125 
L 8.5 54.6875 
L 17.484375 54.6875 
L 17.484375 21.921875 
Q 17.484375 14.15625 20.5 10.265625 
Q 23.53125 6.390625 29.59375 6.390625 
Q 36.859375 6.390625 41.078125 11.03125 
Q 45.3125 15.671875 45.3125 23.6875 
L 45.3125 54.6875 
L 54.296875 54.6875 
L 54.296875 0 
L 45.3125 0 
L 45.3125 8.40625 
Q 42.046875 3.421875 37.71875 1 
Q 33.40625 -1.421875 27.6875 -1.421875 
Q 18.265625 -1.421875 13.375 4.4375 
Q 8.5 10.296875 8.5 21.578125 
" id="BitstreamVeraSans-Roman-75"/>
      </defs>
      <g transform="translate(284.603864672 661.118125)scale(0.12 -0.12)">
       <use xlink:href="#BitstreamVeraSans-Roman-4a"/>
       <use x="29.4921875" xlink:href="#BitstreamVeraSans-Roman-75"/>
       <use x="92.87109375" xlink:href="#BitstreamVeraSans-Roman-6c"/>
       <use x="120.654296875" xlink:href="#BitstreamVeraSans-Roman-20"/>
       <use x="152.44140625" xlink:href="#BitstreamVeraSans-Roman-30"/>
       <use x="216.064453125" xlink:href="#BitstreamVeraSans-Roman-33"/>
       <use x="279.6875" xlink:href="#BitstreamVeraSans-Roman-20"/>
       <use x="311.474609375" xlink:href="#BitstreamVeraSans-Roman-32"/>
       <use x="375.09765625" xlink:href="#BitstreamVeraSans-Roman-30"/>
       <use x="438.720703125" xlink:href="#BitstreamVeraSans-Roman-31"/>
       <use x="502.34375" xlink:href="#BitstreamVeraSans-Roman-31"/>
      </g>
     </g>
    </g>
    <g id="xtick_2">
     <g id="line2d_5">
      <g>
       <use style="stroke:#000000;stroke-width:0.5;" x="489.41982685" xlink:href="#m3e35ea92d7" y="648.0"/>
      </g>
     </g>
     <g id="line2d_6">
      <g>
       <use style="stroke:#000000;stroke-width:0.5;" x="489.41982685" xlink:href="#mb5cab16513" y="72.0"/>
      </g>
     </g>
     <g id="text_2">
      <!-- Jul 10 2011 -->
      <g transform="translate(455.46170185 661.118125)scale(0.12 -0.12)">
       <use xlink:href="#BitstreamVeraSans-Roman-4a"/>
       <use x="29.4921875" xlink:href="#BitstreamVeraSans-Roman-75"/>
       <use x="92.87109375" xlink:href="#BitstreamVeraSans-Roman-6c"/>
       <use x="120.654296875" xlink:href="#BitstreamVeraSans-Roman-20"/>
       <use x="152.44140625" xlink:href="#BitstreamVeraSans-Roman-31"/>
       <use x="216.064453125" xlink:href="#BitstreamVeraSans-Roman-30"/>
       <use x="279.6875" xlink:href="#BitstreamVeraSans-Roman-20"/>
       <use x="311.474609375" xlink:href="#BitstreamVeraSans-Roman-32"/>
       <use x="375.09765625" xlink:href="#BitstreamVeraSans-Roman-30"/>
       <use x="438.720703125" xlink:href="#BitstreamVeraSans-Roman-31"/>
       <use x="502.34375" xlink:href="#BitstreamVeraSans-Roman-31"/>
      </g>
     </g>
    </g>
    <g id="xtick_3">
     <g id="line2d_7">
      <g>
       <use style="stroke:#000000;stroke-width:0.5;" x="660.277664032" xlink:href="#m3e35ea92d7" y="648.0"/>
      </g>
     </g>
     <g id="line2d_8">
      <g>
       <use style="stroke:#000000;stroke-width:0.5;" x="660.277664032" xlink:href="#mb5cab16513" y="72.0"/>
      </g>
     </g>
     <g id="text_3">
      <!-- Jul 17 2011 -->
      <defs>
       <path d="M 8.203125 72.90625 
L 55.078125 72.90625 
L 55.078125 68.703125 
L 28.609375 0 
L 18.3125 0 
L 43.21875 64.59375 
L 8.203125 64.59375 
z
" id="BitstreamVeraSans-Roman-37"/>
      </defs>
      <g transform="translate(626.319539032 661.118125)scale(0.12 -0.12)">
       <use xlink:href="#BitstreamVeraSans-Roman-4a"/>
       <use x="29.4921875" xlink:href="#BitstreamVeraSans-Roman-75"/>
       <use x="92.87109375" xlink:href="#BitstreamVeraSans-Roman-6c"/>
       <use x="120.654296875" xlink:href="#BitstreamVeraSans-Roman-20"/>
       <use x="152.44140625" xlink:href="#BitstreamVeraSans-Roman-31"/>
       <use x="216.064453125" xlink:href="#BitstreamVeraSans-Roman-37"/>
       <use x="279.6875" xlink:href="#BitstreamVeraSans-Roman-20"/>
       <use x="311.474609375" xlink:href="#BitstreamVeraSans-Roman-32"/>
       <use x="375.09765625" xlink:href="#BitstreamVeraSans-Roman-30"/>
       <use x="438.720703125" xlink:href="#BitstreamVeraSans-Roman-31"/>
       <use x="502.34375" xlink:href="#BitstreamVeraSans-Roman-31"/>
      </g>
     </g>
    </g>
    <g id="xtick_4">
     <g id="line2d_9">
      <g>
       <use style="stroke:#000000;stroke-width:0.5;" x="831.135501213" xlink:href="#m3e35ea92d7" y="648.0"/>
      </g>
     </g>
     <g id="line2d_10">
      <g>
       <use style="stroke:#000000;stroke-width:0.5;" x="831.135501213" xlink:href="#mb5cab16513" y="72.0"/>
      </g>
     </g>
     <g id="text_4">
      <!-- Jul 24 2011 -->
      <defs>
       <path d="M 37.796875 64.3125 
L 12.890625 25.390625 
L 37.796875 25.390625 
z
M 35.203125 72.90625 
L 47.609375 72.90625 
L 47.609375 25.390625 
L 58.015625 25.390625 
L 58.015625 17.1875 
L 47.609375 17.1875 
L 47.609375 0 
L 37.796875 0 
L 37.796875 17.1875 
L 4.890625 17.1875 
L 4.890625 26.703125 
z
" id="BitstreamVeraSans-Roman-34"/>
      </defs>
      <g transform="translate(797.177376213 661.118125)scale(0.12 -0.12)">
       <use xlink:href="#BitstreamVeraSans-Roman-4a"/>
       <use x="29.4921875" xlink:href="#BitstreamVeraSans-Roman-75"/>
       <use x="92.87109375" xlink:href="#BitstreamVeraSans-Roman-6c"/>
       <use x="120.654296875" xlink:href="#BitstreamVeraSans-Roman-20"/>
       <use x="152.44140625" xlink:href="#BitstreamVeraSans-Roman-32"/>
       <use x="216.064453125" xlink:href="#BitstreamVeraSans-Roman-34"/>
       <use x="279.6875" xlink:href="#BitstreamVeraSans-Roman-20"/>
       <use x="311.474609375" xlink:href="#BitstreamVeraSans-Roman-32"/>
       <use x="375.09765625" xlink:href="#BitstreamVeraSans-Roman-30"/>
       <use x="438.720703125" xlink:href="#BitstreamVeraSans-Roman-31"/>
       <use x="502.34375" xlink:href="#BitstreamVeraSans-Roman-31"/>
      </g>
     </g>
    </g>
    <g id="xtick_5">
     <g id="line2d_11">
      <g>
       <use style="stroke:#000000;stroke-width:0.5;" x="1001.99333839" xlink:href="#m3e35ea92d7" y="648.0"/>
      </g>
     </g>
     <g id="line2d_12">
      <g>
       <use style="stroke:#000000;stroke-width:0.5;" x="1001.99333839" xlink:href="#mb5cab16513" y="72.0"/>
      </g>
     </g>
     <g id="text_5">
      <!-- Jul 31 2011 -->
      <g transform="translate(968.035213395 661.118125)scale(0.12 -0.12)">
       <use xlink:href="#BitstreamVeraSans-Roman-4a"/>
       <use x="29.4921875" xlink:href="#BitstreamVeraSans-Roman-75"/>
       <use x="92.87109375" xlink:href="#BitstreamVeraSans-Roman-6c"/>
       <use x="120.654296875" xlink:href="#BitstreamVeraSans-Roman-20"/>
       <use x="152.44140625" xlink:href="#BitstreamVeraSans-Roman-33"/>
       <use x="216.064453125" xlink:href="#BitstreamVeraSans-Roman-31"/>
       <use x="279.6875" xlink:href="#BitstreamVeraSans-Roman-20"/>
       <use x="311.474609375" xlink:href="#BitstreamVeraSans-Roman-32"/>
       <use x="375.09765625" xlink:href="#BitstreamVeraSans-Roman-30"/>
       <use x="438.720703125" xlink:href="#BitstreamVeraSans-Roman-31"/>
       <use x="502.34375" xlink:href="#BitstreamVeraSans-Roman-31"/>
      </g>
     </g>
    </g>
    <g id="xtick_6">
     <g id="line2d_13">
      <g>
       <use style="stroke:#000000;stroke-width:0.5;" x="1172.85117558" xlink:href="#m3e35ea92d7" y="648.0"/>
      </g>
     </g>
     <g id="line2d_14">
      <g>
       <use style="stroke:#000000;stroke-width:0.5;" x="1172.85117558" xlink:href="#mb5cab16513" y="72.0"/>
      </g>
     </g>
     <g id="text_6">
      <!-- Aug 07 2011 -->
      <defs>
       <path d="M 45.40625 27.984375 
Q 45.40625 37.75 41.375 43.109375 
Q 37.359375 48.484375 30.078125 48.484375 
Q 22.859375 48.484375 18.828125 43.109375 
Q 14.796875 37.75 14.796875 27.984375 
Q 14.796875 18.265625 18.828125 12.890625 
Q 22.859375 7.515625 30.078125 7.515625 
Q 37.359375 7.515625 41.375 12.890625 
Q 45.40625 18.265625 45.40625 27.984375 
M 54.390625 6.78125 
Q 54.390625 -7.171875 48.1875 -13.984375 
Q 42 -20.796875 29.203125 -20.796875 
Q 24.46875 -20.796875 20.265625 -20.09375 
Q 16.0625 -19.390625 12.109375 -17.921875 
L 12.109375 -9.1875 
Q 16.0625 -11.328125 19.921875 -12.34375 
Q 23.78125 -13.375 27.78125 -13.375 
Q 36.625 -13.375 41.015625 -8.765625 
Q 45.40625 -4.15625 45.40625 5.171875 
L 45.40625 9.625 
Q 42.625 4.78125 38.28125 2.390625 
Q 33.9375 0 27.875 0 
Q 17.828125 0 11.671875 7.65625 
Q 5.515625 15.328125 5.515625 27.984375 
Q 5.515625 40.671875 11.671875 48.328125 
Q 17.828125 56 27.875 56 
Q 33.9375 56 38.28125 53.609375 
Q 42.625 51.21875 45.40625 46.390625 
L 45.40625 54.6875 
L 54.390625 54.6875 
z
" id="BitstreamVeraSans-Roman-67"/>
       <path d="M 34.1875 63.1875 
L 20.796875 26.90625 
L 47.609375 26.90625 
z
M 28.609375 72.90625 
L 39.796875 72.90625 
L 67.578125 0 
L 57.328125 0 
L 50.6875 18.703125 
L 17.828125 18.703125 
L 11.1875 0 
L 0.78125 0 
z
" id="BitstreamVeraSans-Roman-41"/>
      </defs>
      <g transform="translate(1134.41648808 661.118125)scale(0.12 -0.12)">
       <use xlink:href="#BitstreamVeraSans-Roman-41"/>
       <use x="68.408203125" xlink:href="#BitstreamVeraSans-Roman-75"/>
       <use x="131.787109375" xlink:href="#BitstreamVeraSans-Roman-67"/>
       <use x="195.263671875" xlink:href="#BitstreamVeraSans-Roman-20"/>
       <use x="227.05078125" xlink:href="#BitstreamVeraSans-Roman-30"/>
       <use x="290.673828125" xlink:href="#BitstreamVeraSans-Roman-37"/>
       <use x="354.296875" xlink:href="#BitstreamVeraSans-Roman-20"/>
       <use x="386.083984375" xlink:href="#BitstreamVeraSans-Roman-32"/>
       <use x="449.70703125" xlink:href="#BitstreamVeraSans-Roman-30"/>
       <use x="513.330078125" xlink:href="#BitstreamVeraSans-Roman-31"/>
       <use x="576.953125" xlink:href="#BitstreamVeraSans-Roman-31"/>
      </g>
     </g>
    </g>
    <g id="xtick_7">
     <g id="line2d_15">
      <g>
       <use style="stroke:#000000;stroke-width:0.5;" x="1343.70901276" xlink:href="#m3e35ea92d7" y="648.0"/>
      </g>
     </g>
     <g id="line2d_16">
      <g>
       <use style="stroke:#000000;stroke-width:0.5;" x="1343.70901276" xlink:href="#mb5cab16513" y="72.0"/>
      </g>
     </g>
     <g id="text_7">
      <!-- Aug 14 2011 -->
      <g transform="translate(1305.27432526 661.118125)scale(0.12 -0.12)">
       <use xlink:href="#BitstreamVeraSans-Roman-41"/>
       <use x="68.408203125" xlink:href="#BitstreamVeraSans-Roman-75"/>
       <use x="131.787109375" xlink:href="#BitstreamVeraSans-Roman-67"/>
       <use x="195.263671875" xlink:href="#BitstreamVeraSans-Roman-20"/>
       <use x="227.05078125" xlink:href="#BitstreamVeraSans-Roman-31"/>
       <use x="290.673828125" xlink:href="#BitstreamVeraSans-Roman-34"/>
       <use x="354.296875" xlink:href="#BitstreamVeraSans-Roman-20"/>
       <use x="386.083984375" xlink:href="#BitstreamVeraSans-Roman-32"/>
       <use x="449.70703125" xlink:href="#BitstreamVeraSans-Roman-30"/>
       <use x="513.330078125" xlink:href="#BitstreamVeraSans-Roman-31"/>
       <use x="576.953125" xlink:href="#BitstreamVeraSans-Roman-31"/>
      </g>
     </g>
    </g>
    <g id="xtick_8">
     <g id="line2d_17">
      <g>
       <use style="stroke:#000000;stroke-width:0.5;" x="1514.56684994" xlink:href="#m3e35ea92d7" y="648.0"/>
      </g>
     </g>
     <g id="line2d_18">
      <g>
       <use style="stroke:#000000;stroke-width:0.5;" x="1514.56684994" xlink:href="#mb5cab16513" y="72.0"/>
      </g>
     </g>
     <g id="text_8">
      <!-- Aug 21 2011 -->
      <g transform="translate(1476.13216244 661.118125)scale(0.12 -0.12)">
       <use xlink:href="#BitstreamVeraSans-Roman-41"/>
       <use x="68.408203125" xlink:href="#BitstreamVeraSans-Roman-75"/>
       <use x="131.787109375" xlink:href="#BitstreamVeraSans-Roman-67"/>
       <use x="195.263671875" xlink:href="#BitstreamVeraSans-Roman-20"/>
       <use x="227.05078125" xlink:href="#BitstreamVeraSans-Roman-32"/>
       <use x="290.673828125" xlink:href="#BitstreamVeraSans-Roman-31"/>
       <use x="354.296875" xlink:href="#BitstreamVeraSans-Roman-20"/>
       <use x="386.083984375" xlink:href="#BitstreamVeraSans-Roman-32"/>
       <use x="449.70703125" xlink:href="#BitstreamVeraSans-Roman-30"/>
       <use x="513.330078125" xlink:href="#BitstreamVeraSans-Roman-31"/>
       <use x="576.953125" xlink:href="#BitstreamVeraSans-Roman-31"/>
      </g>
     </g>
    </g>
    <g id="xtick_9">
     <g id="line2d_19">
      <g>
       <use style="stroke:#000000;stroke-width:0.5;" x="1685.42468712" xlink:href="#m3e35ea92d7" y="648.0"/>
      </g>
     </g>
     <g id="line2d_20">
      <g>
       <use style="stroke:#000000;stroke-width:0.5;" x="1685.42468712" xlink:href="#mb5cab16513" y="72.0"/>
      </g>
     </g>
     <g id="text_9">
      <!-- Aug 28 2011 -->
      <defs>
       <path d="M 31.78125 34.625 
Q 24.75 34.625 20.71875 30.859375 
Q 16.703125 27.09375 16.703125 20.515625 
Q 16.703125 13.921875 20.71875 10.15625 
Q 24.75 6.390625 31.78125 6.390625 
Q 38.8125 6.390625 42.859375 10.171875 
Q 46.921875 13.96875 46.921875 20.515625 
Q 46.921875 27.09375 42.890625 30.859375 
Q 38.875 34.625 31.78125 34.625 
M 21.921875 38.8125 
Q 15.578125 40.375 12.03125 44.71875 
Q 8.5 49.078125 8.5 55.328125 
Q 8.5 64.0625 14.71875 69.140625 
Q 20.953125 74.21875 31.78125 74.21875 
Q 42.671875 74.21875 48.875 69.140625 
Q 55.078125 64.0625 55.078125 55.328125 
Q 55.078125 49.078125 51.53125 44.71875 
Q 48 40.375 41.703125 38.8125 
Q 48.828125 37.15625 52.796875 32.3125 
Q 56.78125 27.484375 56.78125 20.515625 
Q 56.78125 9.90625 50.3125 4.234375 
Q 43.84375 -1.421875 31.78125 -1.421875 
Q 19.734375 -1.421875 13.25 4.234375 
Q 6.78125 9.90625 6.78125 20.515625 
Q 6.78125 27.484375 10.78125 32.3125 
Q 14.796875 37.15625 21.921875 38.8125 
M 18.3125 54.390625 
Q 18.3125 48.734375 21.84375 45.5625 
Q 25.390625 42.390625 31.78125 42.390625 
Q 38.140625 42.390625 41.71875 45.5625 
Q 45.3125 48.734375 45.3125 54.390625 
Q 45.3125 60.0625 41.71875 63.234375 
Q 38.140625 66.40625 31.78125 66.40625 
Q 25.390625 66.40625 21.84375 63.234375 
Q 18.3125 60.0625 18.3125 54.390625 
" id="BitstreamVeraSans-Roman-38"/>
      </defs>
      <g transform="translate(1646.98999962 661.118125)scale(0.12 -0.12)">
       <use xlink:href="#BitstreamVeraSans-Roman-41"/>
       <use x="68.408203125" xlink:href="#BitstreamVeraSans-Roman-75"/>
       <use x="131.787109375" xlink:href="#BitstreamVeraSans-Roman-67"/>
       <use x="195.263671875" xlink:href="#BitstreamVeraSans-Roman-20"/>
       <use x="227.05078125" xlink:href="#BitstreamVeraSans-Roman-32"/>
       <use x="290.673828125" xlink:href="#BitstreamVeraSans-Roman-38"/>
       <use x="354.296875" xlink:href="#BitstreamVeraSans-Roman-20"/>
       <use x="386.083984375" xlink:href="#BitstreamVeraSans-Roman-32"/>
       <use x="449.70703125" xlink:href="#BitstreamVeraSans-Roman-30"/>
       <use x="513.330078125" xlink:href="#BitstreamVeraSans-Roman-31"/>
       <use x="576.953125" xlink:href="#BitstreamVeraSans-Roman-31"/>
      </g>
     </g>
    </g>
    <g id="xtick_10">
     <g id="line2d_21">
      <g>
       <use style="stroke:#000000;stroke-width:0.5;" x="1856.2825243" xlink:href="#m3e35ea92d7" y="648.0"/>
      </g>
     </g>
     <g id="line2d_22">
      <g>
       <use style="stroke:#000000;stroke-width:0.5;" x="1856.2825243" xlink:href="#mb5cab16513" y="72.0"/>
      </g>
     </g>
     <g id="text_10">
      <!-- Sep 04 2011 -->
      <defs>
       <path d="M 56.203125 29.59375 
L 56.203125 25.203125 
L 14.890625 25.203125 
Q 15.484375 15.921875 20.484375 11.0625 
Q 25.484375 6.203125 34.421875 6.203125 
Q 39.59375 6.203125 44.453125 7.46875 
Q 49.3125 8.734375 54.109375 11.28125 
L 54.109375 2.78125 
Q 49.265625 0.734375 44.1875 -0.34375 
Q 39.109375 -1.421875 33.890625 -1.421875 
Q 20.796875 -1.421875 13.15625 6.1875 
Q 5.515625 13.8125 5.515625 26.8125 
Q 5.515625 40.234375 12.765625 48.109375 
Q 20.015625 56 32.328125 56 
Q 43.359375 56 49.78125 48.890625 
Q 56.203125 41.796875 56.203125 29.59375 
M 47.21875 32.234375 
Q 47.125 39.59375 43.09375 43.984375 
Q 39.0625 48.390625 32.421875 48.390625 
Q 24.90625 48.390625 20.390625 44.140625 
Q 15.875 39.890625 15.1875 32.171875 
z
" id="BitstreamVeraSans-Roman-65"/>
       <path d="M 53.515625 70.515625 
L 53.515625 60.890625 
Q 47.90625 63.578125 42.921875 64.890625 
Q 37.9375 66.21875 33.296875 66.21875 
Q 25.25 66.21875 20.875 63.09375 
Q 16.5 59.96875 16.5 54.203125 
Q 16.5 49.359375 19.40625 46.890625 
Q 22.3125 44.4375 30.421875 42.921875 
L 36.375 41.703125 
Q 47.40625 39.59375 52.65625 34.296875 
Q 57.90625 29 57.90625 20.125 
Q 57.90625 9.515625 50.796875 4.046875 
Q 43.703125 -1.421875 29.984375 -1.421875 
Q 24.8125 -1.421875 18.96875 -0.25 
Q 13.140625 0.921875 6.890625 3.21875 
L 6.890625 13.375 
Q 12.890625 10.015625 18.65625 8.296875 
Q 24.421875 6.59375 29.984375 6.59375 
Q 38.421875 6.59375 43.015625 9.90625 
Q 47.609375 13.234375 47.609375 19.390625 
Q 47.609375 24.75 44.3125 27.78125 
Q 41.015625 30.8125 33.5 32.328125 
L 27.484375 33.5 
Q 16.453125 35.6875 11.515625 40.375 
Q 6.59375 45.0625 6.59375 53.421875 
Q 6.59375 63.09375 13.40625 68.65625 
Q 20.21875 74.21875 32.171875 74.21875 
Q 37.3125 74.21875 42.625 73.28125 
Q 47.953125 72.359375 53.515625 70.515625 
" id="BitstreamVeraSans-Roman-53"/>
       <path d="M 18.109375 8.203125 
L 18.109375 -20.796875 
L 9.078125 -20.796875 
L 9.078125 54.6875 
L 18.109375 54.6875 
L 18.109375 46.390625 
Q 20.953125 51.265625 25.265625 53.625 
Q 29.59375 56 35.59375 56 
Q 45.5625 56 51.78125 48.09375 
Q 58.015625 40.1875 58.015625 27.296875 
Q 58.015625 14.40625 51.78125 6.484375 
Q 45.5625 -1.421875 35.59375 -1.421875 
Q 29.59375 -1.421875 25.265625 0.953125 
Q 20.953125 3.328125 18.109375 8.203125 
M 48.6875 27.296875 
Q 48.6875 37.203125 44.609375 42.84375 
Q 40.53125 48.484375 33.40625 48.484375 
Q 26.265625 48.484375 22.1875 42.84375 
Q 18.109375 37.203125 18.109375 27.296875 
Q 18.109375 17.390625 22.1875 11.75 
Q 26.265625 6.109375 33.40625 6.109375 
Q 40.53125 6.109375 44.609375 11.75 
Q 48.6875 17.390625 48.6875 27.296875 
" id="BitstreamVeraSans-Roman-70"/>
      </defs>
      <g transform="translate(1818.2537743 661.118125)scale(0.12 -0.12)">
       <use xlink:href="#BitstreamVeraSans-Roman-53"/>
       <use x="63.4765625" xlink:href="#BitstreamVeraSans-Roman-65"/>
       <use x="125.0" xlink:href="#BitstreamVeraSans-Roman-70"/>
       <use x="188.4765625" xlink:href="#BitstreamVeraSans-Roman-20"/>
       <use x="220.263671875" xlink:href="#BitstreamVeraSans-Roman-30"/>
       <use x="283.88671875" xlink:href="#BitstreamVeraSans-Roman-34"/>
       <use x="347.509765625" xlink:href="#BitstreamVeraSans-Roman-20"/>
       <use x="379.296875" xlink:href="#BitstreamVeraSans-Roman-32"/>
       <use x="442.919921875" xlink:href="#BitstreamVeraSans-Roman-30"/>
       <use x="506.54296875" xlink:href="#BitstreamVeraSans-Roman-31"/>
       <use x="570.166015625" xlink:href="#BitstreamVeraSans-Roman-31"/>
      </g>
     </g>
    </g>
   </g>
   <g id="matplotlib.axis_2">
    <g id="ytick_1">
     <g id="line2d_23">
      <defs>
       <path d="M 0 0 
L 4 0 
" id="m3d8ac77db4" style="stroke:#000000;stroke-width:0.5;"/>
      </defs>
      <g>
       <use style="stroke:#000000;stroke-width:0.5;" x="270.0" xlink:href="#m3d8ac77db4" y="648.0"/>
      </g>
     </g>
     <g id="line2d_24">
      <defs>
       <path d="M 0 0 
L -4 0 
" id="m3b3898dc75" style="stroke:#000000;stroke-width:0.5;"/>
      </defs>
      <g>
       <use style="stroke:#000000;stroke-width:0.5;" x="1944.0" xlink:href="#m3b3898dc75" y="648.0"/>
      </g>
     </g>
     <g id="text_11">
      <!-- 0.0 -->
      <defs>
       <path d="M 10.6875 12.40625 
L 21 12.40625 
L 21 0 
L 10.6875 0 
z
" id="BitstreamVeraSans-Roman-2e"/>
      </defs>
      <g transform="translate(246.91625 651.31125)scale(0.12 -0.12)">
       <use xlink:href="#BitstreamVeraSans-Roman-30"/>
       <use x="63.623046875" xlink:href="#BitstreamVeraSans-Roman-2e"/>
       <use x="95.41015625" xlink:href="#BitstreamVeraSans-Roman-30"/>
      </g>
     </g>
    </g>
    <g id="ytick_2">
     <g id="line2d_25">
      <g>
       <use style="stroke:#000000;stroke-width:0.5;" x="270.0" xlink:href="#m3d8ac77db4" y="565.714285714"/>
      </g>
     </g>
     <g id="line2d_26">
      <g>
       <use style="stroke:#000000;stroke-width:0.5;" x="1944.0" xlink:href="#m3b3898dc75" y="565.714285714"/>
      </g>
     </g>
     <g id="text_12">
      <!-- 0.5 -->
      <defs>
       <path d="M 10.796875 72.90625 
L 49.515625 72.90625 
L 49.515625 64.59375 
L 19.828125 64.59375 
L 19.828125 46.734375 
Q 21.96875 47.46875 24.109375 47.828125 
Q 26.265625 48.1875 28.421875 48.1875 
Q 40.625 48.1875 47.75 41.5 
Q 54.890625 34.8125 54.890625 23.390625 
Q 54.890625 11.625 47.5625 5.09375 
Q 40.234375 -1.421875 26.90625 -1.421875 
Q 22.3125 -1.421875 17.546875 -0.640625 
Q 12.796875 0.140625 7.71875 1.703125 
L 7.71875 11.625 
Q 12.109375 9.234375 16.796875 8.0625 
Q 21.484375 6.890625 26.703125 6.890625 
Q 35.15625 6.890625 40.078125 11.328125 
Q 45.015625 15.765625 45.015625 23.390625 
Q 45.015625 31 40.078125 35.4375 
Q 35.15625 39.890625 26.703125 39.890625 
Q 22.75 39.890625 18.8125 39.015625 
Q 14.890625 38.140625 10.796875 36.28125 
z
" id="BitstreamVeraSans-Roman-35"/>
      </defs>
      <g transform="translate(246.91625 569.025535714)scale(0.12 -0.12)">
       <use xlink:href="#BitstreamVeraSans-Roman-30"/>
       <use x="63.623046875" xlink:href="#BitstreamVeraSans-Roman-2e"/>
       <use x="95.41015625" xlink:href="#BitstreamVeraSans-Roman-35"/>
      </g>
     </g>
    </g>
    <g id="ytick_3">
     <g id="line2d_27">
      <g>
       <use style="stroke:#000000;stroke-width:0.5;" x="270.0" xlink:href="#m3d8ac77db4" y="483.428571429"/>
      </g>
     </g>
     <g id="line2d_28">
      <g>
       <use style="stroke:#000000;stroke-width:0.5;" x="1944.0" xlink:href="#m3b3898dc75" y="483.428571429"/>
      </g>
     </g>
     <g id="text_13">
      <!-- 1.0 -->
      <g transform="translate(246.91625 486.739821429)scale(0.12 -0.12)">
       <use xlink:href="#BitstreamVeraSans-Roman-31"/>
       <use x="63.623046875" xlink:href="#BitstreamVeraSans-Roman-2e"/>
       <use x="95.41015625" xlink:href="#BitstreamVeraSans-Roman-30"/>
      </g>
     </g>
    </g>
    <g id="ytick_4">
     <g id="line2d_29">
      <g>
       <use style="stroke:#000000;stroke-width:0.5;" x="270.0" xlink:href="#m3d8ac77db4" y="401.142857143"/>
      </g>
     </g>
     <g id="line2d_30">
      <g>
       <use style="stroke:#000000;stroke-width:0.5;" x="1944.0" xlink:href="#m3b3898dc75" y="401.142857143"/>
      </g>
     </g>
     <g id="text_14">
      <!-- 1.5 -->
      <g transform="translate(246.91625 404.454107143)scale(0.12 -0.12)">
       <use xlink:href="#BitstreamVeraSans-Roman-31"/>
       <use x="63.623046875" xlink:href="#BitstreamVeraSans-Roman-2e"/>
       <use x="95.41015625" xlink:href="#BitstreamVeraSans-Roman-35"/>
      </g>
     </g>
    </g>
    <g id="ytick_5">
     <g id="line2d_31">
      <g>
       <use style="stroke:#000000;stroke-width:0.5;" x="270.0" xlink:href="#m3d8ac77db4" y="318.857142857"/>
      </g>
     </g>
     <g id="line2d_32">
      <g>
       <use style="stroke:#000000;stroke-width:0.5;" x="1944.0" xlink:href="#m3b3898dc75" y="318.857142857"/>
      </g>
     </g>
     <g id="text_15">
      <!-- 2.0 -->
      <g transform="translate(246.91625 322.168392857)scale(0.12 -0.12)">
       <use xlink:href="#BitstreamVeraSans-Roman-32"/>
       <use x="63.623046875" xlink:href="#BitstreamVeraSans-Roman-2e"/>
       <use x="95.41015625" xlink:href="#BitstreamVeraSans-Roman-30"/>
      </g>
     </g>
    </g>
    <g id="ytick_6">
     <g id="line2d_33">
      <g>
       <use style="stroke:#000000;stroke-width:0.5;" x="270.0" xlink:href="#m3d8ac77db4" y="236.571428571"/>
      </g>
     </g>
     <g id="line2d_34">
      <g>
       <use style="stroke:#000000;stroke-width:0.5;" x="1944.0" xlink:href="#m3b3898dc75" y="236.571428571"/>
      </g>
     </g>
     <g id="text_16">
      <!-- 2.5 -->
      <g transform="translate(246.91625 239.882678571)scale(0.12 -0.12)">
       <use xlink:href="#BitstreamVeraSans-Roman-32"/>
       <use x="63.623046875" xlink:href="#BitstreamVeraSans-Roman-2e"/>
       <use x="95.41015625" xlink:href="#BitstreamVeraSans-Roman-35"/>
      </g>
     </g>
    </g>
    <g id="ytick_7">
     <g id="line2d_35">
      <g>
       <use style="stroke:#000000;stroke-width:0.5;" x="270.0" xlink:href="#m3d8ac77db4" y="154.285714286"/>
      </g>
     </g>
     <g id="line2d_36">
      <g>
       <use style="stroke:#000000;stroke-width:0.5;" x="1944.0" xlink:href="#m3b3898dc75" y="154.285714286"/>
      </g>
     </g>
     <g id="text_17">
      <!-- 3.0 -->
      <g transform="translate(246.91625 157.596964286)scale(0.12 -0.12)">
       <use xlink:href="#BitstreamVeraSans-Roman-33"/>
       <use x="63.623046875" xlink:href="#BitstreamVeraSans-Roman-2e"/>
       <use x="95.41015625" xlink:href="#BitstreamVeraSans-Roman-30"/>
      </g>
     </g>
    </g>
    <g id="ytick_8">
     <g id="line2d_37">
      <g>
       <use style="stroke:#000000;stroke-width:0.5;" x="270.0" xlink:href="#m3d8ac77db4" y="72.0"/>
      </g>
     </g>
     <g id="line2d_38">
      <g>
       <use style="stroke:#000000;stroke-width:0.5;" x="1944.0" xlink:href="#m3b3898dc75" y="72.0"/>
      </g>
     </g>
     <g id="text_18">
      <!-- 3.5 -->
      <g transform="translate(246.91625 75.31125)scale(0.12 -0.12)">
       <use xlink:href="#BitstreamVeraSans-Roman-33"/>
       <use x="63.623046875" xlink:href="#BitstreamVeraSans-Roman-2e"/>
       <use x="95.41015625" xlink:href="#BitstreamVeraSans-Roman-35"/>
      </g>
     </g>
    </g>
   </g>
  </g>
 </g>
 <defs>
  <clipPath id="p21da066b39">
   <rect height="576.0" width="1674.0" x="270.0" y="72.0"/>
  </clipPath>
 </defs>
</svg>
