<?xml version="1.0" encoding="utf-8" standalone="no"?>
<!DOCTYPE svg PUBLIC "-//W3C//DTD SVG 1.1//EN"
  "http://www.w3.org/Graphics/SVG/1.1/DTD/svg11.dtd">
<!-- Created with matplotlib (http://matplotlib.org/) -->
<svg height="720pt" version="1.1" viewBox="0 0 2160 720" width="2160pt" xmlns="http://www.w3.org/2000/svg" xmlns:xlink="http://www.w3.org/1999/xlink">
 <defs>
  <style type="text/css">
*{stroke-linecap:butt;stroke-linejoin:round;stroke-miterlimit:100000;}
  </style>
 </defs>
 <g id="figure_1">
  <g id="patch_1">
   <path d="M 0 720 
L 2160 720 
L 2160 0 
L 0 0 
z
" style="fill:#ffffff;"/>
  </g>
  <g id="axes_1">
   <g id="patch_2">
    <path d="M 270 648 
L 1944 648 
L 1944 72 
L 270 72 
z
" style="fill:#ffffff;"/>
   </g>
   <g id="line2d_1">
    <path clip-path="url(#p1dbd279d99)" d="M 270 648 
L 298.239147 648 
L 298.654428 623.880444 
L 299.06971 622.612477 
L 299.484991 648 
L 310.282312 648 
L 310.697594 606.986886 
L 311.112875 610.83575 
L 311.528157 648 
L 333.53808 648 
L 333.953361 626.827207 
L 334.368643 621.81943 
L 334.783925 648 
L 344.335401 648 
L 344.750682 211.616887 
L 345.581245 648 
L 345.996527 607.529652 
L 346.411808 598.957178 
L 346.82709 648 
L 358.454974 648 
L 358.870256 373.126594 
L 359.285537 238.70814 
L 359.700819 648 
L 365.099479 648 
L 365.930042 214.200568 
L 366.345324 648 
L 368.837013 648 
L 369.252295 606.978628 
L 369.667576 604.661746 
L 370.082858 611.133604 
L 370.498139 648 
L 377.973208 648 
L 378.388489 560.472697 
L 378.803771 568.103591 
L 379.219052 648 
L 391.262218 648 
L 391.677499 617.243164 
L 392.092781 622.152251 
L 392.508063 648 
L 407.042917 648 
L 407.873481 616.222101 
L 408.288762 648 
L 414.933267 648 
L 415.348549 620.195217 
L 415.76383 620.40938 
L 416.179112 648 
L 435.282064 648 
L 435.697346 627.99346 
L 436.112627 620.699485 
L 436.527909 648 
L 441.096006 648 
L 441.511288 550.430174 
L 441.926569 545.791367 
L 442.341851 648 
L 450.647482 648 
L 451.062764 593.172221 
L 451.478045 567.501592 
L 451.893327 599.02562 
L 452.308608 601.894704 
L 452.72389 648 
L 458.537832 648 
L 458.953113 625.060974 
L 459.368395 620.825423 
L 459.783677 648 
L 460.61424 648 
L 461.029521 599.293824 
L 461.444803 607.057031 
L 461.860084 648 
L 464.767055 648 
L 465.182337 629.78864 
L 465.597618 620.716603 
L 466.0129 648 
L 466.843463 648 
L 467.258745 457.037893 
L 467.674026 366.658135 
L 468.089308 648 
L 468.504589 570.652239 
L 468.919871 576.608179 
L 469.335153 648 
L 471.41156 648 
L 471.826842 613.27977 
L 472.242124 606.067867 
L 472.657405 648 
L 492.59092 648 
L 493.006202 607.607962 
L 493.421484 601.190009 
L 493.836765 648 
L 496.328454 648 
L 496.743736 140.561643 
L 497.159018 246.122085 
L 497.574299 648 
L 497.989581 613.471555 
L 498.404862 607.05066 
L 498.820144 648 
L 534.534359 648 
L 534.94964 631.47105 
L 535.364922 628.795286 
L 535.780203 648 
L 541.594145 648 
L 542.009427 204.516887 
L 542.424709 462.892009 
L 542.83999 648 
L 544.501116 648 
L 544.916398 619.808156 
L 545.331679 620.576057 
L 545.746961 648 
L 546.992806 648 
L 547.408087 605.365503 
L 547.823369 604.207308 
L 548.23865 648 
L 556.129 648 
L 556.544282 615.644475 
L 556.959563 619.01835 
L 557.374845 648 
L 566.511039 648 
L 566.926321 615.895855 
L 567.341603 619.981048 
L 567.756884 648 
L 569.002729 648 
L 569.41801 613.794556 
L 569.833292 606.12485 
L 570.248574 648 
L 571.9097 648 
L 572.324981 626.637769 
L 572.740263 629.808852 
L 573.155545 648 
L 580.630613 648 
L 581.045894 373.073867 
L 581.461176 461.370557 
L 581.876457 648 
L 583.537584 648 
L 583.952865 162.401346 
L 584.368147 214.527445 
L 584.783428 648 
L 585.19871 618.67627 
L 585.613992 620.942001 
L 586.029273 202.818677 
L 586.444555 174.704015 
L 586.859836 648 
L 588.520963 648 
L 588.936244 603.41232 
L 589.351526 612.332084 
L 589.766807 648 
L 595.580749 648 
L 595.996031 455.417367 
L 596.411312 356.511878 
L 596.826594 648 
L 600.564128 648 
L 600.97941 460.047945 
L 601.394691 414.047528 
L 601.809973 648 
L 625.065741 648 
L 625.481022 407.934464 
L 625.896304 329.025284 
L 626.311585 648 
L 644.168693 648 
L 644.583974 437.594089 
L 644.999256 479.901708 
L 645.414537 648 
L 649.567353 648 
L 649.982635 630.714248 
L 650.397916 630.674492 
L 650.813198 648 
L 654.13545 648 
L 654.550732 304.290157 
L 654.966013 162.257943 
L 655.381295 648 
L 655.796577 588.865783 
L 656.211858 596.087999 
L 656.62714 648 
L 657.872984 648 
L 658.288266 361.93003 
L 658.703548 365.861266 
L 659.118829 648 
L 672.407839 648 
L 672.823121 610.215519 
L 673.238402 604.16106 
L 673.653684 648 
L 681.128752 648 
L 681.544034 620.154329 
L 681.959315 624.006654 
L 682.374597 648 
L 689.019102 648 
L 689.434384 593.03686 
L 689.849665 594.450287 
L 690.264947 648 
L 694.417762 648 
L 694.833044 370.173273 
L 695.248325 312.095286 
L 695.663607 648 
L 708.122054 648 
L 708.537336 627.814958 
L 708.952617 621.43866 
L 709.367899 648 
L 717.67353 648 
L 718.088812 599.199589 
L 718.504093 614.255998 
L 718.919375 648 
L 728.470851 648 
L 728.886132 600.432532 
L 729.301414 605.591898 
L 729.716696 648 
L 739.268172 648 
L 739.683453 627.381535 
L 740.098735 622.036689 
L 740.514016 648 
L 745.082114 648 
L 745.497395 625.631307 
L 745.912677 617.98954 
L 746.327958 648 
L 750.065492 648 
L 750.480774 615.459558 
L 750.896056 627.554408 
L 751.311337 648 
L 757.540561 648 
L 757.955842 620.626658 
L 758.371124 617.733674 
L 758.786405 648 
L 765.846192 648 
L 766.261474 575.697551 
L 766.676755 574.754971 
L 767.092037 648 
L 768.337881 648 
L 768.753163 622.480559 
L 769.168445 629.022536 
L 769.583726 648 
L 774.982387 648 
L 775.397668 619.560141 
L 775.81295 621.664434 
L 776.228231 619.508562 
L 776.643513 618.875027 
L 777.058794 648 
L 777.474076 648 
L 777.889357 538.590157 
L 778.304639 540.659242 
L 778.719921 648 
L 783.288018 648 
L 783.703299 566.517331 
L 784.118581 596.480034 
L 784.533863 648 
L 812.773009 648 
L 813.188291 625.920421 
L 813.603572 620.870983 
L 814.018854 648 
L 818.17167 648 
L 818.586951 333.538591 
L 819.002233 312.927519 
L 819.417514 648 
L 836.85934 648 
L 837.689903 344.30429 
L 838.105185 648 
L 854.301166 648 
L 854.716448 247.081565 
L 855.131729 337.719102 
L 855.547011 648 
L 864.683205 648 
L 865.098487 571.578317 
L 865.513768 577.355742 
L 865.92905 648 
L 868.005458 648 
L 868.420739 567.56492 
L 868.836021 598.5025 
L 869.251302 648 
L 869.666584 648 
L 870.081866 470.240118 
L 870.497147 159.446023 
L 870.912429 648 
L 871.32771 357.208499 
L 871.742992 433.323742 
L 872.158273 648 
L 874.649963 648 
L 875.065244 630.714685 
L 875.480526 246.493694 
L 875.895808 389.857112 
L 876.311089 648 
L 888.354255 648 
L 888.769536 628.459664 
L 889.184818 631.008481 
L 889.600099 648 
L 895.414041 648 
L 895.829323 619.309392 
L 896.244604 619.638907 
L 896.659886 648 
L 898.736294 648 
L 899.151575 590.790862 
L 899.566857 567.740238 
L 899.982138 648 
L 963.9355 648 
L 964.350781 614.039016 
L 964.766063 606.006507 
L 965.181345 648 
L 971.82585 648 
L 972.241131 629.30376 
L 972.656413 617.783387 
L 973.071694 648 
L 974.317539 648 
L 974.732821 628.995521 
L 975.148102 626.586367 
L 975.563384 648 
L 987.606549 648 
L 988.021831 195.958012 
L 988.437112 353.420345 
L 988.852394 648 
L 1022.074919 648 
L 1022.490201 589.770687 
L 1022.905483 572.194019 
L 1023.320764 648 
L 1042.423716 648 
L 1042.838998 609.548703 
L 1043.254279 611.60983 
L 1043.669561 648 
L 1046.991813 648 
L 1047.407095 624.256689 
L 1047.822377 615.926407 
L 1048.237658 648 
L 1065.679484 648 
L 1066.094766 609.931633 
L 1066.510047 612.142501 
L 1066.925329 648 
L 1100.563136 648 
L 1100.978417 600.242752 
L 1101.393699 608.549153 
L 1101.80898 648 
L 1102.224262 611.049118 
L 1102.639544 607.706202 
L 1103.054825 648 
L 1103.470107 373.162894 
L 1103.885388 415.20301 
L 1104.30067 648 
L 1104.715951 648 
L 1105.131233 627.494404 
L 1105.546515 622.786228 
L 1105.961796 648 
L 1110.114612 648 
L 1110.529893 599.48874 
L 1110.945175 613.006023 
L 1111.360456 648 
L 1116.343835 648 
L 1116.759117 590.288154 
L 1117.174398 582.005934 
L 1117.58968 648 
L 1123.818904 648 
L 1124.234185 597.624799 
L 1124.649467 594.290127 
L 1125.064748 648 
L 1132.955098 648 
L 1133.37038 631.493142 
L 1133.785661 627.462597 
L 1134.200943 648 
L 1158.287274 648 
L 1158.702555 599.061524 
L 1159.117837 611.290061 
L 1159.533118 648 
L 1161.609526 648 
L 1162.024808 602.366418 
L 1162.440089 609.507238 
L 1162.855371 648 
L 1196.908459 648 
L 1197.323741 616.27406 
L 1197.739023 616.202596 
L 1198.154304 648 
L 1203.552965 648 
L 1203.968246 619.684064 
L 1204.383528 618.940581 
L 1204.798809 648 
L 1209.782188 648 
L 1210.19747 569.447108 
L 1210.612751 573.887569 
L 1211.028033 648 
L 1218.918383 648 
L 1219.333664 630.037309 
L 1219.748946 623.085929 
L 1220.164227 648 
L 1220.579509 202.226694 
L 1220.99479 257.383857 
L 1221.410072 648 
L 1239.267179 648 
L 1239.682461 618.666858 
L 1240.097742 622.808219 
L 1240.513024 648 
L 1254.217316 648 
L 1254.632597 195.902668 
L 1255.047879 341.149565 
L 1255.463161 648 
L 1269.998015 648 
L 1270.413297 600.693856 
L 1270.828579 602.75574 
L 1271.24386 648 
L 1278.303647 648 
L 1278.718928 599.639277 
L 1279.13421 614.198702 
L 1279.549491 648 
L 1283.702307 648 
L 1284.117589 347.570554 
L 1284.53287 231.882584 
L 1284.948152 648 
L 1296.160754 648 
L 1296.576036 621.835868 
L 1296.991317 628.241285 
L 1297.406599 648 
L 1301.559415 648 
L 1301.974696 614.885269 
L 1302.389978 528.51299 
L 1302.805259 579.517887 
L 1303.220541 648 
L 1304.881667 648 
L 1305.296949 610.3238 
L 1305.71223 610.913812 
L 1306.127512 648 
L 1314.848425 648 
L 1315.263706 291.685137 
L 1316.094269 648 
L 1331.874969 648 
L 1332.290251 626.814221 
L 1332.705532 628.878518 
L 1333.120814 648 
L 1340.595882 648 
L 1341.011163 609.640258 
L 1341.426445 610.645642 
L 1341.841727 648 
L 1368.004465 648 
L 1368.419747 619.930371 
L 1368.835029 622.041462 
L 1369.25031 648 
L 1375.894815 648 
L 1376.310097 464.076283 
L 1376.725378 183.399106 
L 1377.14066 580.674219 
L 1377.555941 648 
L 1387.107418 648 
L 1387.522699 375.191494 
L 1387.937981 268.337357 
L 1388.353262 648 
L 1395.82833 648 
L 1396.243612 616.900356 
L 1396.658894 620.017815 
L 1397.074175 648 
L 1398.735301 648 
L 1399.150583 610.275453 
L 1399.565865 604.293494 
L 1399.981146 648 
L 1418.668817 648 
L 1419.084098 628.223452 
L 1419.49938 624.470476 
L 1419.914661 648 
L 1452.721905 648 
L 1453.137187 391.402081 
L 1453.552468 252.098828 
L 1453.96775 611.63817 
L 1454.383032 648 
L 1454.798313 229.28009 
L 1455.213595 177.981123 
L 1455.628876 648 
L 1460.612255 648 
L 1461.027537 623.412323 
L 1461.442818 630.634133 
L 1461.8581 648 
L 1465.595634 648 
L 1466.010915 193.128656 
L 1466.426197 361.259261 
L 1466.841479 458.626046 
L 1467.25676 167.99498 
L 1467.672042 340.247503 
L 1468.087323 648 
L 1470.994294 648 
L 1471.409576 629.20876 
L 1471.824857 631.481224 
L 1472.240139 648 
L 1476.392955 648 
L 1476.808236 278.287814 
L 1477.223518 264.118934 
L 1477.638799 303.547488 
L 1478.054081 415.869522 
L 1478.469362 234.87863 
L 1478.884644 648 
L 1479.715207 648 
L 1480.130489 218.87935 
L 1480.54577 301.420607 
L 1480.961052 322.622155 
L 1481.376333 445.926632 
L 1481.791615 455.796482 
L 1482.206897 371.663228 
L 1482.622178 381.11578 
L 1483.03746 169.539362 
L 1483.452741 225.504743 
L 1483.868023 266.219203 
L 1484.283304 648 
L 1485.944431 648 
L 1486.359712 622.785065 
L 1486.774994 629.779364 
L 1487.190275 648 
L 1488.43612 648 
L 1488.851402 313.0484 
L 1489.266683 428.340744 
L 1489.681965 161.376547 
L 1490.097246 359.986604 
L 1490.512528 448.234773 
L 1490.927809 648 
L 1491.343091 320.898192 
L 1491.758373 195.758369 
L 1492.173654 191.383076 
L 1492.588936 479.819218 
L 1493.004217 191.710658 
L 1493.419499 648 
L 1498.818159 648 
L 1499.233441 625.096137 
L 1499.648722 621.845128 
L 1500.064004 648 
L 1505.877946 648 
L 1506.293227 394.07148 
L 1506.708509 449.606951 
L 1507.123791 185.043626 
L 1507.539072 199.092999 
L 1507.954354 287.18337 
L 1508.369635 648 
L 1510.861325 648 
L 1511.276606 618.793153 
L 1511.691888 200.481633 
L 1512.107169 117.2876 
L 1512.522451 190.366661 
L 1512.937733 157.354278 
L 1513.353014 301.495697 
L 1513.768296 648 
L 1521.243364 648 
L 1521.658645 164.934443 
L 1522.073927 355.86388 
L 1522.489209 281.6402 
L 1522.90449 413.169238 
L 1523.319772 343.085383 
L 1523.735053 174.205148 
L 1524.150335 342.369845 
L 1524.565616 365.474425 
L 1524.980898 648 
L 1527.887869 648 
L 1528.303151 306.172872 
L 1528.718432 295.375441 
L 1529.133714 275.413135 
L 1529.548995 145.612078 
L 1529.964277 258.181488 
L 1530.379558 648 
L 1535.362937 648 
L 1535.778219 591.502939 
L 1536.1935 589.953256 
L 1536.608782 648 
L 1538.68519 648 
L 1539.100471 615.453822 
L 1539.931034 648 
L 1540.346316 214.360561 
L 1540.761598 307.758228 
L 1541.176879 372.020129 
L 1541.592161 266.868756 
L 1542.007442 247.195418 
L 1542.422724 648 
L 1544.08385 648 
L 1544.499132 299.750737 
L 1544.914413 464.794157 
L 1545.744976 389.524864 
L 1546.160258 390.404372 
L 1546.57554 648 
L 1548.236666 648 
L 1548.651947 261.776925 
L 1549.067229 477.389241 
L 1549.482511 178.466349 
L 1549.897792 321.540046 
L 1550.313074 381.387095 
L 1550.728355 648 
L 1551.143637 309.670822 
L 1551.558918 412.358202 
L 1551.9742 203.847299 
L 1552.389482 280.727952 
L 1552.804763 387.210399 
L 1553.635326 211.157894 
L 1554.050608 648 
L 1557.37286 648 
L 1557.788142 617.164767 
L 1558.203423 626.485163 
L 1558.618705 616.096366 
L 1559.033987 626.326843 
L 1559.449268 648 
L 1560.695113 648 
L 1561.110394 163.08675 
L 1561.525676 189.458342 
L 1561.940958 370.719258 
L 1562.356239 154.878869 
L 1562.771521 482.275036 
L 1563.186802 648 
L 1563.602084 648 
L 1564.017365 474.334435 
L 1564.432647 163.086991 
L 1564.847929 377.130967 
L 1565.26321 463.426801 
L 1565.678492 405.372977 
L 1566.093773 648 
L 1568.585463 648 
L 1569.000744 343.180749 
L 1569.416026 242.967902 
L 1569.831307 277.932992 
L 1570.246589 405.217245 
L 1570.661871 317.780698 
L 1571.077152 648 
L 1571.907715 648 
L 1572.322997 620.774845 
L 1572.738278 630.22575 
L 1573.15356 178.571814 
L 1573.568841 215.174583 
L 1573.984123 377.052962 
L 1574.399405 160.123207 
L 1574.814686 250.191228 
L 1575.229968 648 
L 1578.967502 648 
L 1579.382783 462.873812 
L 1579.798065 471.855674 
L 1580.213347 427.998298 
L 1580.628628 243.860011 
L 1581.459191 648 
L 1595.578765 648 
L 1595.994046 619.386745 
L 1596.409328 615.763968 
L 1596.824609 648 
L 1608.452493 648 
L 1608.867775 585.190762 
L 1609.283056 588.435657 
L 1609.698338 648 
L 1613.02059 648 
L 1613.435872 617.352328 
L 1613.851154 628.779823 
L 1614.266435 648 
L 1614.681717 648 
L 1615.096998 626.164329 
L 1615.51228 628.704793 
L 1615.927561 648 
L 1616.758125 648 
L 1617.173406 607.583189 
L 1617.588688 599.397863 
L 1618.003969 648 
L 1618.834532 648 
L 1619.249814 209.420607 
L 1619.665096 193.59115 
L 1620.080377 648 
L 1632.538824 648 
L 1632.954106 621.647039 
L 1633.369387 619.822278 
L 1633.784669 648 
L 1648.734805 648 
L 1649.150087 588.849172 
L 1649.565368 566.888027 
L 1649.98065 622.66412 
L 1650.395932 648 
L 1657.040437 648 
L 1657.455718 569.50591 
L 1657.871 574.805368 
L 1658.286281 648 
L 1658.701563 648 
L 1659.116844 601.089689 
L 1659.532126 612.695596 
L 1659.947408 648 
L 1669.914165 648 
L 1670.329447 614.595608 
L 1670.744728 599.722571 
L 1671.16001 648 
L 1671.575291 576.585117 
L 1671.990573 572.338314 
L 1672.405855 648 
L 1674.482262 648 
L 1674.897544 620.172279 
L 1675.312826 624.608808 
L 1675.728107 648 
L 1684.864302 648 
L 1685.279583 617.488202 
L 1685.694865 618.84535 
L 1686.110146 648 
L 1693.169933 648 
L 1693.585215 590.165826 
L 1694.000496 578.286134 
L 1694.415778 648 
L 1709.781196 648 
L 1710.196477 607.947806 
L 1710.611759 607.559866 
L 1711.02704 648 
L 1731.375837 648 
L 1731.791119 617.864684 
L 1732.2064 625.804286 
L 1732.621682 648 
L 1743.003721 648 
L 1743.419003 624.957539 
L 1743.834284 616.829273 
L 1744.249566 648 
L 1746.325974 648 
L 1746.741255 174.935464 
L 1747.156537 290.462698 
L 1747.571818 648 
L 1759.614984 648 
L 1760.030265 606.018747 
L 1760.445547 613.348124 
L 1760.860829 648 
L 1762.937236 648 
L 1763.352518 598.770072 
L 1763.7678 611.06792 
L 1764.183081 648 
L 1774.149839 648 
L 1774.56512 623.369848 
L 1774.980402 622.585993 
L 1775.395683 648 
L 1778.302654 648 
L 1778.717936 253.294125 
L 1779.133218 310.570711 
L 1779.548499 648 
L 1779.963781 615.801631 
L 1780.379062 616.949874 
L 1780.794344 648 
L 1782.45547 648 
L 1782.870752 628.753919 
L 1783.286033 623.75509 
L 1783.701315 648 
L 1784.531878 648 
L 1784.94716 584.974147 
L 1785.362441 581.030634 
L 1785.777723 648 
L 1786.193004 208.680536 
L 1786.608286 472.522929 
L 1787.023567 648 
L 1787.438849 648 
L 1787.85413 615.558096 
L 1788.269412 625.414772 
L 1788.684694 648 
L 1791.591665 648 
L 1792.006946 625.427825 
L 1792.422228 628.333217 
L 1792.837509 648 
L 1794.913917 648 
L 1795.329199 597.96387 
L 1795.74448 593.408431 
L 1796.159762 648 
L 1799.897296 648 
L 1800.312578 577.507918 
L 1800.727859 575.029789 
L 1801.143141 648 
L 1804.880675 648 
L 1805.295956 611.818109 
L 1805.711238 606.416043 
L 1806.126519 648 
L 1806.541801 395.093749 
L 1806.957083 328.84717 
L 1807.372364 648 
L 1814.847432 648 
L 1815.677996 251.084433 
L 1816.093277 648 
L 1818.169685 648 
L 1818.584967 629.661425 
L 1819.000248 619.359555 
L 1819.41553 648 
L 1838.518482 648 
L 1838.933763 367.980656 
L 1839.349045 412.696945 
L 1839.764326 648 
L 1851.39221 648 
L 1852.222774 193.859568 
L 1852.638055 648 
L 1864.681221 648 
L 1865.096502 589.101558 
L 1865.511784 575.941278 
L 1865.927065 648 
L 1870.495163 648 
L 1870.910444 617.122725 
L 1871.325726 616.998405 
L 1871.741007 648 
L 1880.877202 648 
L 1881.292483 587.499892 
L 1881.707765 566.775629 
L 1882.123046 648 
L 1885.030017 648 
L 1885.445299 602.271325 
L 1885.860581 600.438899 
L 1886.275862 648 
L 1891.674522 648 
L 1892.089804 595.287644 
L 1892.505086 582.24559 
L 1892.920367 648 
L 1899.149591 648 
L 1899.564872 629.757284 
L 1899.980154 624.493435 
L 1900.395435 648 
L 1904.132969 648 
L 1904.548251 584.539684 
L 1904.963533 587.897742 
L 1905.378814 648 
L 1929.465145 648 
L 1929.880427 577.381281 
L 1930.295708 594.314965 
L 1930.71099 648 
L 1937.770776 648 
L 1938.186058 575.04014 
L 1938.60134 566.353082 
L 1939.016621 648 
L 1939.431903 648 
L 1939.847184 623.894862 
L 1940.262466 615.454101 
L 1940.677747 648 
L 1941.923592 648 
L 1942.338874 572.147096 
L 1942.754155 570.321734 
L 1943.169437 648 
L 1944 648 
L 1944 648 
" style="fill:none;stroke:#0000ff;stroke-linecap:square;"/>
   </g>
   <g id="line2d_2">
    <defs>
     <path d="M 0 3 
C 0.795609 3 1.55874 2.683901 2.12132 2.12132 
C 2.683901 1.55874 3 0.795609 3 0 
C 3 -0.795609 2.683901 -1.55874 2.12132 -2.12132 
C 1.55874 -2.683901 0.795609 -3 0 -3 
C -0.795609 -3 -1.55874 -2.683901 -2.12132 -2.12132 
C -2.683901 -1.55874 -3 -0.795609 -3 0 
C -3 0.795609 -2.683901 1.55874 -2.12132 2.12132 
C -1.55874 2.683901 -0.795609 3 0 3 
z
" id="m53de6711a3" style="stroke:#000000;stroke-width:0.5;"/>
    </defs>
    <g clip-path="url(#p1dbd279d99)">
     <use style="fill:#ff0000;stroke:#000000;stroke-width:0.5;" x="1478.46936244" xlink:href="#m53de6711a3" y="234.878630367"/>
    </g>
   </g>
   <g id="patch_3">
    <path d="M 270 72 
L 1944 72 
" style="fill:none;stroke:#000000;stroke-linecap:square;stroke-linejoin:miter;"/>
   </g>
   <g id="patch_4">
    <path d="M 1944 648 
L 1944 72 
" style="fill:none;stroke:#000000;stroke-linecap:square;stroke-linejoin:miter;"/>
   </g>
   <g id="patch_5">
    <path d="M 270 648 
L 1944 648 
" style="fill:none;stroke:#000000;stroke-linecap:square;stroke-linejoin:miter;"/>
   </g>
   <g id="patch_6">
    <path d="M 270 648 
L 270 72 
" style="fill:none;stroke:#000000;stroke-linecap:square;stroke-linejoin:miter;"/>
   </g>
   <g id="matplotlib.axis_1">
    <g id="xtick_1">
     <g id="line2d_3">
      <defs>
       <path d="M 0 0 
L 0 -4 
" id="mfb9fdcd563" style="stroke:#000000;stroke-width:0.5;"/>
      </defs>
      <g>
       <use style="stroke:#000000;stroke-width:0.5;" x="270.0" xlink:href="#mfb9fdcd563" y="648.0"/>
      </g>
     </g>
     <g id="line2d_4">
      <defs>
       <path d="M 0 0 
L 0 4 
" id="mb47cfd2953" style="stroke:#000000;stroke-width:0.5;"/>
      </defs>
      <g>
       <use style="stroke:#000000;stroke-width:0.5;" x="270.0" xlink:href="#mb47cfd2953" y="72.0"/>
      </g>
     </g>
     <g id="text_1">
      <!-- Apr 01 2014 -->
      <defs>
       <path d="M 19.1875 8.296875 
L 53.609375 8.296875 
L 53.609375 0 
L 7.328125 0 
L 7.328125 8.296875 
Q 12.9375 14.109375 22.625 23.890625 
Q 32.328125 33.6875 34.8125 36.53125 
Q 39.546875 41.84375 41.421875 45.53125 
Q 43.3125 49.21875 43.3125 52.78125 
Q 43.3125 58.59375 39.234375 62.25 
Q 35.15625 65.921875 28.609375 65.921875 
Q 23.96875 65.921875 18.8125 64.3125 
Q 13.671875 62.703125 7.8125 59.421875 
L 7.8125 69.390625 
Q 13.765625 71.78125 18.9375 73 
Q 24.125 74.21875 28.421875 74.21875 
Q 39.75 74.21875 46.484375 68.546875 
Q 53.21875 62.890625 53.21875 53.421875 
Q 53.21875 48.921875 51.53125 44.890625 
Q 49.859375 40.875 45.40625 35.40625 
Q 44.1875 33.984375 37.640625 27.21875 
Q 31.109375 20.453125 19.1875 8.296875 
" id="BitstreamVeraSans-Roman-32"/>
       <path id="BitstreamVeraSans-Roman-20"/>
       <path d="M 31.78125 66.40625 
Q 24.171875 66.40625 20.328125 58.90625 
Q 16.5 51.421875 16.5 36.375 
Q 16.5 21.390625 20.328125 13.890625 
Q 24.171875 6.390625 31.78125 6.390625 
Q 39.453125 6.390625 43.28125 13.890625 
Q 47.125 21.390625 47.125 36.375 
Q 47.125 51.421875 43.28125 58.90625 
Q 39.453125 66.40625 31.78125 66.40625 
M 31.78125 74.21875 
Q 44.046875 74.21875 50.515625 64.515625 
Q 56.984375 54.828125 56.984375 36.375 
Q 56.984375 17.96875 50.515625 8.265625 
Q 44.046875 -1.421875 31.78125 -1.421875 
Q 19.53125 -1.421875 13.0625 8.265625 
Q 6.59375 17.96875 6.59375 36.375 
Q 6.59375 54.828125 13.0625 64.515625 
Q 19.53125 74.21875 31.78125 74.21875 
" id="BitstreamVeraSans-Roman-30"/>
       <path d="M 12.40625 8.296875 
L 28.515625 8.296875 
L 28.515625 63.921875 
L 10.984375 60.40625 
L 10.984375 69.390625 
L 28.421875 72.90625 
L 38.28125 72.90625 
L 38.28125 8.296875 
L 54.390625 8.296875 
L 54.390625 0 
L 12.40625 0 
z
" id="BitstreamVeraSans-Roman-31"/>
       <path d="M 37.796875 64.3125 
L 12.890625 25.390625 
L 37.796875 25.390625 
z
M 35.203125 72.90625 
L 47.609375 72.90625 
L 47.609375 25.390625 
L 58.015625 25.390625 
L 58.015625 17.1875 
L 47.609375 17.1875 
L 47.609375 0 
L 37.796875 0 
L 37.796875 17.1875 
L 4.890625 17.1875 
L 4.890625 26.703125 
z
" id="BitstreamVeraSans-Roman-34"/>
       <path d="M 34.1875 63.1875 
L 20.796875 26.90625 
L 47.609375 26.90625 
z
M 28.609375 72.90625 
L 39.796875 72.90625 
L 67.578125 0 
L 57.328125 0 
L 50.6875 18.703125 
L 17.828125 18.703125 
L 11.1875 0 
L 0.78125 0 
z
" id="BitstreamVeraSans-Roman-41"/>
       <path d="M 41.109375 46.296875 
Q 39.59375 47.171875 37.8125 47.578125 
Q 36.03125 48 33.890625 48 
Q 26.265625 48 22.1875 43.046875 
Q 18.109375 38.09375 18.109375 28.8125 
L 18.109375 0 
L 9.078125 0 
L 9.078125 54.6875 
L 18.109375 54.6875 
L 18.109375 46.1875 
Q 20.953125 51.171875 25.484375 53.578125 
Q 30.03125 56 36.53125 56 
Q 37.453125 56 38.578125 55.875 
Q 39.703125 55.765625 41.0625 55.515625 
z
" id="BitstreamVeraSans-Roman-72"/>
       <path d="M 18.109375 8.203125 
L 18.109375 -20.796875 
L 9.078125 -20.796875 
L 9.078125 54.6875 
L 18.109375 54.6875 
L 18.109375 46.390625 
Q 20.953125 51.265625 25.265625 53.625 
Q 29.59375 56 35.59375 56 
Q 45.5625 56 51.78125 48.09375 
Q 58.015625 40.1875 58.015625 27.296875 
Q 58.015625 14.40625 51.78125 6.484375 
Q 45.5625 -1.421875 35.59375 -1.421875 
Q 29.59375 -1.421875 25.265625 0.953125 
Q 20.953125 3.328125 18.109375 8.203125 
M 48.6875 27.296875 
Q 48.6875 37.203125 44.609375 42.84375 
Q 40.53125 48.484375 33.40625 48.484375 
Q 26.265625 48.484375 22.1875 42.84375 
Q 18.109375 37.203125 18.109375 27.296875 
Q 18.109375 17.390625 22.1875 11.75 
Q 26.265625 6.109375 33.40625 6.109375 
Q 40.53125 6.109375 44.609375 11.75 
Q 48.6875 17.390625 48.6875 27.296875 
" id="BitstreamVeraSans-Roman-70"/>
      </defs>
      <g transform="translate(232.90125 661.118125)scale(0.12 -0.12)">
       <use xlink:href="#BitstreamVeraSans-Roman-41"/>
       <use x="68.408203125" xlink:href="#BitstreamVeraSans-Roman-70"/>
       <use x="131.884765625" xlink:href="#BitstreamVeraSans-Roman-72"/>
       <use x="172.998046875" xlink:href="#BitstreamVeraSans-Roman-20"/>
       <use x="204.78515625" xlink:href="#BitstreamVeraSans-Roman-30"/>
       <use x="268.408203125" xlink:href="#BitstreamVeraSans-Roman-31"/>
       <use x="332.03125" xlink:href="#BitstreamVeraSans-Roman-20"/>
       <use x="363.818359375" xlink:href="#BitstreamVeraSans-Roman-32"/>
       <use x="427.44140625" xlink:href="#BitstreamVeraSans-Roman-30"/>
       <use x="491.064453125" xlink:href="#BitstreamVeraSans-Roman-31"/>
       <use x="554.6875" xlink:href="#BitstreamVeraSans-Roman-34"/>
      </g>
     </g>
    </g>
    <g id="xtick_2">
     <g id="line2d_5">
      <g>
       <use style="stroke:#000000;stroke-width:0.5;" x="509.202183083" xlink:href="#mfb9fdcd563" y="648.0"/>
      </g>
     </g>
     <g id="line2d_6">
      <g>
       <use style="stroke:#000000;stroke-width:0.5;" x="509.202183083" xlink:href="#mb47cfd2953" y="72.0"/>
      </g>
     </g>
     <g id="text_2">
      <!-- Apr 03 2014 -->
      <defs>
       <path d="M 40.578125 39.3125 
Q 47.65625 37.796875 51.625 33 
Q 55.609375 28.21875 55.609375 21.1875 
Q 55.609375 10.40625 48.1875 4.484375 
Q 40.765625 -1.421875 27.09375 -1.421875 
Q 22.515625 -1.421875 17.65625 -0.515625 
Q 12.796875 0.390625 7.625 2.203125 
L 7.625 11.71875 
Q 11.71875 9.328125 16.59375 8.109375 
Q 21.484375 6.890625 26.8125 6.890625 
Q 36.078125 6.890625 40.9375 10.546875 
Q 45.796875 14.203125 45.796875 21.1875 
Q 45.796875 27.640625 41.28125 31.265625 
Q 36.765625 34.90625 28.71875 34.90625 
L 20.21875 34.90625 
L 20.21875 43.015625 
L 29.109375 43.015625 
Q 36.375 43.015625 40.234375 45.921875 
Q 44.09375 48.828125 44.09375 54.296875 
Q 44.09375 59.90625 40.109375 62.90625 
Q 36.140625 65.921875 28.71875 65.921875 
Q 24.65625 65.921875 20.015625 65.03125 
Q 15.375 64.15625 9.8125 62.3125 
L 9.8125 71.09375 
Q 15.4375 72.65625 20.34375 73.4375 
Q 25.25 74.21875 29.59375 74.21875 
Q 40.828125 74.21875 47.359375 69.109375 
Q 53.90625 64.015625 53.90625 55.328125 
Q 53.90625 49.265625 50.4375 45.09375 
Q 46.96875 40.921875 40.578125 39.3125 
" id="BitstreamVeraSans-Roman-33"/>
      </defs>
      <g transform="translate(472.103433083 661.118125)scale(0.12 -0.12)">
       <use xlink:href="#BitstreamVeraSans-Roman-41"/>
       <use x="68.408203125" xlink:href="#BitstreamVeraSans-Roman-70"/>
       <use x="131.884765625" xlink:href="#BitstreamVeraSans-Roman-72"/>
       <use x="172.998046875" xlink:href="#BitstreamVeraSans-Roman-20"/>
       <use x="204.78515625" xlink:href="#BitstreamVeraSans-Roman-30"/>
       <use x="268.408203125" xlink:href="#BitstreamVeraSans-Roman-33"/>
       <use x="332.03125" xlink:href="#BitstreamVeraSans-Roman-20"/>
       <use x="363.818359375" xlink:href="#BitstreamVeraSans-Roman-32"/>
       <use x="427.44140625" xlink:href="#BitstreamVeraSans-Roman-30"/>
       <use x="491.064453125" xlink:href="#BitstreamVeraSans-Roman-31"/>
       <use x="554.6875" xlink:href="#BitstreamVeraSans-Roman-34"/>
      </g>
     </g>
    </g>
    <g id="xtick_3">
     <g id="line2d_7">
      <g>
       <use style="stroke:#000000;stroke-width:0.5;" x="748.404366165" xlink:href="#mfb9fdcd563" y="648.0"/>
      </g>
     </g>
     <g id="line2d_8">
      <g>
       <use style="stroke:#000000;stroke-width:0.5;" x="748.404366165" xlink:href="#mb47cfd2953" y="72.0"/>
      </g>
     </g>
     <g id="text_3">
      <!-- Apr 05 2014 -->
      <defs>
       <path d="M 10.796875 72.90625 
L 49.515625 72.90625 
L 49.515625 64.59375 
L 19.828125 64.59375 
L 19.828125 46.734375 
Q 21.96875 47.46875 24.109375 47.828125 
Q 26.265625 48.1875 28.421875 48.1875 
Q 40.625 48.1875 47.75 41.5 
Q 54.890625 34.8125 54.890625 23.390625 
Q 54.890625 11.625 47.5625 5.09375 
Q 40.234375 -1.421875 26.90625 -1.421875 
Q 22.3125 -1.421875 17.546875 -0.640625 
Q 12.796875 0.140625 7.71875 1.703125 
L 7.71875 11.625 
Q 12.109375 9.234375 16.796875 8.0625 
Q 21.484375 6.890625 26.703125 6.890625 
Q 35.15625 6.890625 40.078125 11.328125 
Q 45.015625 15.765625 45.015625 23.390625 
Q 45.015625 31 40.078125 35.4375 
Q 35.15625 39.890625 26.703125 39.890625 
Q 22.75 39.890625 18.8125 39.015625 
Q 14.890625 38.140625 10.796875 36.28125 
z
" id="BitstreamVeraSans-Roman-35"/>
      </defs>
      <g transform="translate(711.305616165 661.118125)scale(0.12 -0.12)">
       <use xlink:href="#BitstreamVeraSans-Roman-41"/>
       <use x="68.408203125" xlink:href="#BitstreamVeraSans-Roman-70"/>
       <use x="131.884765625" xlink:href="#BitstreamVeraSans-Roman-72"/>
       <use x="172.998046875" xlink:href="#BitstreamVeraSans-Roman-20"/>
       <use x="204.78515625" xlink:href="#BitstreamVeraSans-Roman-30"/>
       <use x="268.408203125" xlink:href="#BitstreamVeraSans-Roman-35"/>
       <use x="332.03125" xlink:href="#BitstreamVeraSans-Roman-20"/>
       <use x="363.818359375" xlink:href="#BitstreamVeraSans-Roman-32"/>
       <use x="427.44140625" xlink:href="#BitstreamVeraSans-Roman-30"/>
       <use x="491.064453125" xlink:href="#BitstreamVeraSans-Roman-31"/>
       <use x="554.6875" xlink:href="#BitstreamVeraSans-Roman-34"/>
      </g>
     </g>
    </g>
    <g id="xtick_4">
     <g id="line2d_9">
      <g>
       <use style="stroke:#000000;stroke-width:0.5;" x="987.606549248" xlink:href="#mfb9fdcd563" y="648.0"/>
      </g>
     </g>
     <g id="line2d_10">
      <g>
       <use style="stroke:#000000;stroke-width:0.5;" x="987.606549248" xlink:href="#mb47cfd2953" y="72.0"/>
      </g>
     </g>
     <g id="text_4">
      <!-- Apr 07 2014 -->
      <defs>
       <path d="M 8.203125 72.90625 
L 55.078125 72.90625 
L 55.078125 68.703125 
L 28.609375 0 
L 18.3125 0 
L 43.21875 64.59375 
L 8.203125 64.59375 
z
" id="BitstreamVeraSans-Roman-37"/>
      </defs>
      <g transform="translate(950.507799248 661.118125)scale(0.12 -0.12)">
       <use xlink:href="#BitstreamVeraSans-Roman-41"/>
       <use x="68.408203125" xlink:href="#BitstreamVeraSans-Roman-70"/>
       <use x="131.884765625" xlink:href="#BitstreamVeraSans-Roman-72"/>
       <use x="172.998046875" xlink:href="#BitstreamVeraSans-Roman-20"/>
       <use x="204.78515625" xlink:href="#BitstreamVeraSans-Roman-30"/>
       <use x="268.408203125" xlink:href="#BitstreamVeraSans-Roman-37"/>
       <use x="332.03125" xlink:href="#BitstreamVeraSans-Roman-20"/>
       <use x="363.818359375" xlink:href="#BitstreamVeraSans-Roman-32"/>
       <use x="427.44140625" xlink:href="#BitstreamVeraSans-Roman-30"/>
       <use x="491.064453125" xlink:href="#BitstreamVeraSans-Roman-31"/>
       <use x="554.6875" xlink:href="#BitstreamVeraSans-Roman-34"/>
      </g>
     </g>
    </g>
    <g id="xtick_5">
     <g id="line2d_11">
      <g>
       <use style="stroke:#000000;stroke-width:0.5;" x="1226.80873233" xlink:href="#mfb9fdcd563" y="648.0"/>
      </g>
     </g>
     <g id="line2d_12">
      <g>
       <use style="stroke:#000000;stroke-width:0.5;" x="1226.80873233" xlink:href="#mb47cfd2953" y="72.0"/>
      </g>
     </g>
     <g id="text_5">
      <!-- Apr 09 2014 -->
      <defs>
       <path d="M 10.984375 1.515625 
L 10.984375 10.5 
Q 14.703125 8.734375 18.5 7.8125 
Q 22.3125 6.890625 25.984375 6.890625 
Q 35.75 6.890625 40.890625 13.453125 
Q 46.046875 20.015625 46.78125 33.40625 
Q 43.953125 29.203125 39.59375 26.953125 
Q 35.25 24.703125 29.984375 24.703125 
Q 19.046875 24.703125 12.671875 31.3125 
Q 6.296875 37.9375 6.296875 49.421875 
Q 6.296875 60.640625 12.9375 67.421875 
Q 19.578125 74.21875 30.609375 74.21875 
Q 43.265625 74.21875 49.921875 64.515625 
Q 56.59375 54.828125 56.59375 36.375 
Q 56.59375 19.140625 48.40625 8.859375 
Q 40.234375 -1.421875 26.421875 -1.421875 
Q 22.703125 -1.421875 18.890625 -0.6875 
Q 15.09375 0.046875 10.984375 1.515625 
M 30.609375 32.421875 
Q 37.25 32.421875 41.125 36.953125 
Q 45.015625 41.5 45.015625 49.421875 
Q 45.015625 57.28125 41.125 61.84375 
Q 37.25 66.40625 30.609375 66.40625 
Q 23.96875 66.40625 20.09375 61.84375 
Q 16.21875 57.28125 16.21875 49.421875 
Q 16.21875 41.5 20.09375 36.953125 
Q 23.96875 32.421875 30.609375 32.421875 
" id="BitstreamVeraSans-Roman-39"/>
      </defs>
      <g transform="translate(1189.70998233 661.118125)scale(0.12 -0.12)">
       <use xlink:href="#BitstreamVeraSans-Roman-41"/>
       <use x="68.408203125" xlink:href="#BitstreamVeraSans-Roman-70"/>
       <use x="131.884765625" xlink:href="#BitstreamVeraSans-Roman-72"/>
       <use x="172.998046875" xlink:href="#BitstreamVeraSans-Roman-20"/>
       <use x="204.78515625" xlink:href="#BitstreamVeraSans-Roman-30"/>
       <use x="268.408203125" xlink:href="#BitstreamVeraSans-Roman-39"/>
       <use x="332.03125" xlink:href="#BitstreamVeraSans-Roman-20"/>
       <use x="363.818359375" xlink:href="#BitstreamVeraSans-Roman-32"/>
       <use x="427.44140625" xlink:href="#BitstreamVeraSans-Roman-30"/>
       <use x="491.064453125" xlink:href="#BitstreamVeraSans-Roman-31"/>
       <use x="554.6875" xlink:href="#BitstreamVeraSans-Roman-34"/>
      </g>
     </g>
    </g>
    <g id="xtick_6">
     <g id="line2d_13">
      <g>
       <use style="stroke:#000000;stroke-width:0.5;" x="1466.01091541" xlink:href="#mfb9fdcd563" y="648.0"/>
      </g>
     </g>
     <g id="line2d_14">
      <g>
       <use style="stroke:#000000;stroke-width:0.5;" x="1466.01091541" xlink:href="#mb47cfd2953" y="72.0"/>
      </g>
     </g>
     <g id="text_6">
      <!-- Apr 11 2014 -->
      <g transform="translate(1428.91216541 661.118125)scale(0.12 -0.12)">
       <use xlink:href="#BitstreamVeraSans-Roman-41"/>
       <use x="68.408203125" xlink:href="#BitstreamVeraSans-Roman-70"/>
       <use x="131.884765625" xlink:href="#BitstreamVeraSans-Roman-72"/>
       <use x="172.998046875" xlink:href="#BitstreamVeraSans-Roman-20"/>
       <use x="204.78515625" xlink:href="#BitstreamVeraSans-Roman-31"/>
       <use x="268.408203125" xlink:href="#BitstreamVeraSans-Roman-31"/>
       <use x="332.03125" xlink:href="#BitstreamVeraSans-Roman-20"/>
       <use x="363.818359375" xlink:href="#BitstreamVeraSans-Roman-32"/>
       <use x="427.44140625" xlink:href="#BitstreamVeraSans-Roman-30"/>
       <use x="491.064453125" xlink:href="#BitstreamVeraSans-Roman-31"/>
       <use x="554.6875" xlink:href="#BitstreamVeraSans-Roman-34"/>
      </g>
     </g>
    </g>
    <g id="xtick_7">
     <g id="line2d_15">
      <g>
       <use style="stroke:#000000;stroke-width:0.5;" x="1705.2130985" xlink:href="#mfb9fdcd563" y="648.0"/>
      </g>
     </g>
     <g id="line2d_16">
      <g>
       <use style="stroke:#000000;stroke-width:0.5;" x="1705.2130985" xlink:href="#mb47cfd2953" y="72.0"/>
      </g>
     </g>
     <g id="text_7">
      <!-- Apr 13 2014 -->
      <g transform="translate(1668.1143485 661.118125)scale(0.12 -0.12)">
       <use xlink:href="#BitstreamVeraSans-Roman-41"/>
       <use x="68.408203125" xlink:href="#BitstreamVeraSans-Roman-70"/>
       <use x="131.884765625" xlink:href="#BitstreamVeraSans-Roman-72"/>
       <use x="172.998046875" xlink:href="#BitstreamVeraSans-Roman-20"/>
       <use x="204.78515625" xlink:href="#BitstreamVeraSans-Roman-31"/>
       <use x="268.408203125" xlink:href="#BitstreamVeraSans-Roman-33"/>
       <use x="332.03125" xlink:href="#BitstreamVeraSans-Roman-20"/>
       <use x="363.818359375" xlink:href="#BitstreamVeraSans-Roman-32"/>
       <use x="427.44140625" xlink:href="#BitstreamVeraSans-Roman-30"/>
       <use x="491.064453125" xlink:href="#BitstreamVeraSans-Roman-31"/>
       <use x="554.6875" xlink:href="#BitstreamVeraSans-Roman-34"/>
      </g>
     </g>
    </g>
   </g>
   <g id="matplotlib.axis_2">
    <g id="ytick_1">
     <g id="line2d_17">
      <defs>
       <path d="M 0 0 
L 4 0 
" id="me503b40dc7" style="stroke:#000000;stroke-width:0.5;"/>
      </defs>
      <g>
       <use style="stroke:#000000;stroke-width:0.5;" x="270.0" xlink:href="#me503b40dc7" y="648.0"/>
      </g>
     </g>
     <g id="line2d_18">
      <defs>
       <path d="M 0 0 
L -4 0 
" id="m341b309706" style="stroke:#000000;stroke-width:0.5;"/>
      </defs>
      <g>
       <use style="stroke:#000000;stroke-width:0.5;" x="1944.0" xlink:href="#m341b309706" y="648.0"/>
      </g>
     </g>
     <g id="text_8">
      <!-- 0.0 -->
      <defs>
       <path d="M 10.6875 12.40625 
L 21 12.40625 
L 21 0 
L 10.6875 0 
z
" id="BitstreamVeraSans-Roman-2e"/>
      </defs>
      <g transform="translate(246.91625 651.31125)scale(0.12 -0.12)">
       <use xlink:href="#BitstreamVeraSans-Roman-30"/>
       <use x="63.623046875" xlink:href="#BitstreamVeraSans-Roman-2e"/>
       <use x="95.41015625" xlink:href="#BitstreamVeraSans-Roman-30"/>
      </g>
     </g>
    </g>
    <g id="ytick_2">
     <g id="line2d_19">
      <g>
       <use style="stroke:#000000;stroke-width:0.5;" x="270.0" xlink:href="#me503b40dc7" y="565.714285714"/>
      </g>
     </g>
     <g id="line2d_20">
      <g>
       <use style="stroke:#000000;stroke-width:0.5;" x="1944.0" xlink:href="#m341b309706" y="565.714285714"/>
      </g>
     </g>
     <g id="text_9">
      <!-- 0.5 -->
      <g transform="translate(246.91625 569.025535714)scale(0.12 -0.12)">
       <use xlink:href="#BitstreamVeraSans-Roman-30"/>
       <use x="63.623046875" xlink:href="#BitstreamVeraSans-Roman-2e"/>
       <use x="95.41015625" xlink:href="#BitstreamVeraSans-Roman-35"/>
      </g>
     </g>
    </g>
    <g id="ytick_3">
     <g id="line2d_21">
      <g>
       <use style="stroke:#000000;stroke-width:0.5;" x="270.0" xlink:href="#me503b40dc7" y="483.428571429"/>
      </g>
     </g>
     <g id="line2d_22">
      <g>
       <use style="stroke:#000000;stroke-width:0.5;" x="1944.0" xlink:href="#m341b309706" y="483.428571429"/>
      </g>
     </g>
     <g id="text_10">
      <!-- 1.0 -->
      <g transform="translate(246.91625 486.739821429)scale(0.12 -0.12)">
       <use xlink:href="#BitstreamVeraSans-Roman-31"/>
       <use x="63.623046875" xlink:href="#BitstreamVeraSans-Roman-2e"/>
       <use x="95.41015625" xlink:href="#BitstreamVeraSans-Roman-30"/>
      </g>
     </g>
    </g>
    <g id="ytick_4">
     <g id="line2d_23">
      <g>
       <use style="stroke:#000000;stroke-width:0.5;" x="270.0" xlink:href="#me503b40dc7" y="401.142857143"/>
      </g>
     </g>
     <g id="line2d_24">
      <g>
       <use style="stroke:#000000;stroke-width:0.5;" x="1944.0" xlink:href="#m341b309706" y="401.142857143"/>
      </g>
     </g>
     <g id="text_11">
      <!-- 1.5 -->
      <g transform="translate(246.91625 404.454107143)scale(0.12 -0.12)">
       <use xlink:href="#BitstreamVeraSans-Roman-31"/>
       <use x="63.623046875" xlink:href="#BitstreamVeraSans-Roman-2e"/>
       <use x="95.41015625" xlink:href="#BitstreamVeraSans-Roman-35"/>
      </g>
     </g>
    </g>
    <g id="ytick_5">
     <g id="line2d_25">
      <g>
       <use style="stroke:#000000;stroke-width:0.5;" x="270.0" xlink:href="#me503b40dc7" y="318.857142857"/>
      </g>
     </g>
     <g id="line2d_26">
      <g>
       <use style="stroke:#000000;stroke-width:0.5;" x="1944.0" xlink:href="#m341b309706" y="318.857142857"/>
      </g>
     </g>
     <g id="text_12">
      <!-- 2.0 -->
      <g transform="translate(246.91625 322.168392857)scale(0.12 -0.12)">
       <use xlink:href="#BitstreamVeraSans-Roman-32"/>
       <use x="63.623046875" xlink:href="#BitstreamVeraSans-Roman-2e"/>
       <use x="95.41015625" xlink:href="#BitstreamVeraSans-Roman-30"/>
      </g>
     </g>
    </g>
    <g id="ytick_6">
     <g id="line2d_27">
      <g>
       <use style="stroke:#000000;stroke-width:0.5;" x="270.0" xlink:href="#me503b40dc7" y="236.571428571"/>
      </g>
     </g>
     <g id="line2d_28">
      <g>
       <use style="stroke:#000000;stroke-width:0.5;" x="1944.0" xlink:href="#m341b309706" y="236.571428571"/>
      </g>
     </g>
     <g id="text_13">
      <!-- 2.5 -->
      <g transform="translate(246.91625 239.882678571)scale(0.12 -0.12)">
       <use xlink:href="#BitstreamVeraSans-Roman-32"/>
       <use x="63.623046875" xlink:href="#BitstreamVeraSans-Roman-2e"/>
       <use x="95.41015625" xlink:href="#BitstreamVeraSans-Roman-35"/>
      </g>
     </g>
    </g>
    <g id="ytick_7">
     <g id="line2d_29">
      <g>
       <use style="stroke:#000000;stroke-width:0.5;" x="270.0" xlink:href="#me503b40dc7" y="154.285714286"/>
      </g>
     </g>
     <g id="line2d_30">
      <g>
       <use style="stroke:#000000;stroke-width:0.5;" x="1944.0" xlink:href="#m341b309706" y="154.285714286"/>
      </g>
     </g>
     <g id="text_14">
      <!-- 3.0 -->
      <g transform="translate(246.91625 157.596964286)scale(0.12 -0.12)">
       <use xlink:href="#BitstreamVeraSans-Roman-33"/>
       <use x="63.623046875" xlink:href="#BitstreamVeraSans-Roman-2e"/>
       <use x="95.41015625" xlink:href="#BitstreamVeraSans-Roman-30"/>
      </g>
     </g>
    </g>
    <g id="ytick_8">
     <g id="line2d_31">
      <g>
       <use style="stroke:#000000;stroke-width:0.5;" x="270.0" xlink:href="#me503b40dc7" y="72.0"/>
      </g>
     </g>
     <g id="line2d_32">
      <g>
       <use style="stroke:#000000;stroke-width:0.5;" x="1944.0" xlink:href="#m341b309706" y="72.0"/>
      </g>
     </g>
     <g id="text_15">
      <!-- 3.5 -->
      <g transform="translate(246.91625 75.31125)scale(0.12 -0.12)">
       <use xlink:href="#BitstreamVeraSans-Roman-33"/>
       <use x="63.623046875" xlink:href="#BitstreamVeraSans-Roman-2e"/>
       <use x="95.41015625" xlink:href="#BitstreamVeraSans-Roman-35"/>
      </g>
     </g>
    </g>
   </g>
  </g>
 </g>
 <defs>
  <clipPath id="p1dbd279d99">
   <rect height="576.0" width="1674.0" x="270.0" y="72.0"/>
  </clipPath>
 </defs>
</svg>
