<?xml version="1.0" encoding="utf-8" standalone="no"?>
<!DOCTYPE svg PUBLIC "-//W3C//DTD SVG 1.1//EN"
  "http://www.w3.org/Graphics/SVG/1.1/DTD/svg11.dtd">
<!-- Created with matplotlib (http://matplotlib.org/) -->
<svg height="720pt" version="1.1" viewBox="0 0 2160 720" width="2160pt" xmlns="http://www.w3.org/2000/svg" xmlns:xlink="http://www.w3.org/1999/xlink">
 <defs>
  <style type="text/css">
*{stroke-linecap:butt;stroke-linejoin:round;stroke-miterlimit:100000;}
  </style>
 </defs>
 <g id="figure_1">
  <g id="patch_1">
   <path d="M 0 720 
L 2160 720 
L 2160 0 
L 0 0 
z
" style="fill:#ffffff;"/>
  </g>
  <g id="axes_1">
   <g id="patch_2">
    <path d="M 270 648 
L 1944 648 
L 1944 72 
L 270 72 
z
" style="fill:#ffffff;"/>
   </g>
   <g id="line2d_1">
    <path clip-path="url(#p1fccbd3f21)" d="M 270 72 
L 270.415282 648 
L 272.076408 648 
L 272.491689 72 
L 272.906971 648 
L 311.112875 648 
L 311.528157 72 
L 311.943438 648 
L 313.604565 648 
L 314.019846 72 
L 314.435128 648 
L 352.641032 648 
L 353.056314 72 
L 353.471595 648 
L 355.132721 648 
L 355.548003 72 
L 355.963285 648 
L 394.169189 648 
L 394.58447 72 
L 394.999752 648 
L 396.660878 648 
L 397.07616 72 
L 397.491441 648 
L 435.697346 648 
L 436.112627 72 
L 436.527909 648 
L 438.189035 648 
L 438.604317 72 
L 439.019598 648 
L 477.225502 648 
L 477.640784 72 
L 478.056065 648 
L 479.717192 648 
L 480.132473 72 
L 480.547755 648 
L 518.753659 648 
L 519.168941 72 
L 519.584222 648 
L 521.245349 648 
L 521.66063 72 
L 522.075912 648 
L 560.281816 648 
L 560.697097 72 
L 561.112379 648 
L 562.773505 648 
L 563.188787 72 
L 563.604068 648 
L 601.809973 648 
L 602.225254 72 
L 602.640536 648 
L 604.301662 648 
L 604.716944 72 
L 605.132225 648 
L 643.338129 648 
L 643.753411 72 
L 644.168693 648 
L 645.829819 648 
L 646.2451 72 
L 646.660382 648 
L 684.866286 648 
L 685.281568 72 
L 685.696849 648 
L 687.357976 648 
L 687.773257 72 
L 688.188539 648 
L 726.394443 648 
L 726.809725 72 
L 727.225006 648 
L 728.886132 648 
L 729.301414 72 
L 729.716696 648 
L 767.9226 648 
L 768.337881 72 
L 768.753163 648 
L 770.414289 648 
L 770.829571 72 
L 771.244852 648 
L 809.450757 648 
L 809.866038 72 
L 810.28132 648 
L 811.942446 648 
L 812.357728 72 
L 812.773009 648 
L 850.978913 648 
L 851.394195 72 
L 851.809477 648 
L 853.470603 648 
L 853.885884 72 
L 854.301166 648 
L 892.50707 648 
L 892.922352 72 
L 893.337633 648 
L 894.99876 648 
L 895.414041 72 
L 895.829323 648 
L 934.035227 648 
L 934.450509 72 
L 934.86579 648 
L 936.526916 648 
L 936.942198 72 
L 937.35748 648 
L 975.563384 648 
L 975.978665 72 
L 976.393947 648 
L 978.055073 648 
L 978.470355 72 
L 978.885636 648 
L 1017.091541 648 
L 1017.506822 72 
L 1017.922104 648 
L 1019.58323 648 
L 1019.998512 72 
L 1020.413793 648 
L 1058.619697 648 
L 1059.034979 72 
L 1059.45026 648 
L 1061.111387 648 
L 1061.526668 72 
L 1061.94195 648 
L 1100.147854 648 
L 1100.563136 72 
L 1100.978417 648 
L 1102.224262 648 
L 1102.639544 72 
L 1103.054825 72 
L 1103.470107 648 
L 1104.30067 648 
L 1104.715951 72 
L 1105.131233 648 
L 1106.377078 648 
L 1106.792359 72 
L 1107.207641 648 
L 1141.676011 648 
L 1142.091292 72 
L 1142.506574 648 
L 1144.1677 648 
L 1144.582982 72 
L 1144.998263 648 
L 1183.204168 648 
L 1183.619449 72 
L 1184.034731 648 
L 1185.695857 648 
L 1186.111139 72 
L 1186.52642 648 
L 1224.732324 648 
L 1225.147606 72 
L 1225.562888 648 
L 1227.224014 648 
L 1227.639295 72 
L 1228.054577 648 
L 1266.260481 648 
L 1266.675763 72 
L 1267.091044 648 
L 1268.752171 648 
L 1269.167452 72 
L 1269.582734 648 
L 1307.788638 648 
L 1308.20392 72 
L 1308.619201 648 
L 1310.280327 648 
L 1310.695609 72 
L 1311.110891 648 
L 1349.316795 648 
L 1349.732076 72 
L 1350.147358 648 
L 1351.808484 648 
L 1352.223766 72 
L 1352.639047 648 
L 1390.844952 648 
L 1391.260233 72 
L 1391.675515 648 
L 1393.336641 648 
L 1393.751923 72 
L 1394.167204 648 
L 1432.373108 648 
L 1432.78839 72 
L 1433.203672 648 
L 1434.864798 648 
L 1435.280079 72 
L 1435.695361 648 
L 1473.901265 648 
L 1474.316547 72 
L 1474.731828 648 
L 1476.392955 648 
L 1476.808236 72 
L 1477.223518 648 
L 1515.429422 648 
L 1515.844704 72 
L 1516.259985 648 
L 1517.921111 648 
L 1518.336393 72 
L 1518.751675 648 
L 1556.957579 648 
L 1557.37286 72 
L 1557.788142 648 
L 1559.449268 648 
L 1559.86455 72 
L 1560.279831 648 
L 1598.485736 648 
L 1598.901017 72 
L 1599.316299 648 
L 1600.977425 648 
L 1601.392707 72 
L 1601.807988 648 
L 1640.013892 648 
L 1640.429174 72 
L 1640.844455 648 
L 1642.505582 648 
L 1642.920863 72 
L 1643.336145 648 
L 1681.542049 648 
L 1681.957331 72 
L 1682.372612 648 
L 1684.033739 648 
L 1684.44902 72 
L 1684.864302 648 
L 1723.070206 648 
L 1723.485487 72 
L 1723.900769 648 
L 1725.561895 648 
L 1725.977177 72 
L 1726.392458 648 
L 1764.598363 648 
L 1765.013644 72 
L 1765.428926 648 
L 1767.090052 648 
L 1767.505334 72 
L 1767.920615 648 
L 1806.126519 648 
L 1806.541801 72 
L 1806.957083 648 
L 1808.618209 648 
L 1809.03349 72 
L 1809.448772 648 
L 1847.654676 648 
L 1848.069958 72 
L 1848.485239 648 
L 1850.146366 648 
L 1850.561647 72 
L 1850.976929 648 
L 1889.182833 648 
L 1889.598115 72 
L 1890.013396 648 
L 1891.674522 648 
L 1892.089804 72 
L 1892.505086 648 
L 1930.71099 648 
L 1931.126271 72 
L 1931.541553 648 
L 1933.202679 648 
L 1933.617961 72 
L 1934.033242 648 
L 1944 648 
L 1944 648 
" style="fill:none;stroke:#0000ff;stroke-linecap:square;"/>
   </g>
   <g id="line2d_2">
    <defs>
     <path d="M 0 3 
C 0.795609 3 1.55874 2.683901 2.12132 2.12132 
C 2.683901 1.55874 3 0.795609 3 0 
C 3 -0.795609 2.683901 -1.55874 2.12132 -2.12132 
C 1.55874 -2.683901 0.795609 -3 0 -3 
C -0.795609 -3 -1.55874 -2.683901 -2.12132 -2.12132 
C -2.683901 -1.55874 -3 -0.795609 -3 0 
C -3 0.795609 -2.683901 1.55874 -2.12132 2.12132 
C -1.55874 2.683901 -0.795609 3 0 3 
z
" id="mea1569eb34" style="stroke:#000000;stroke-width:0.5;"/>
    </defs>
    <g clip-path="url(#p1fccbd3f21)">
     <use style="fill:#ff0000;stroke:#000000;stroke-width:0.5;" x="1103.05482511" xlink:href="#mea1569eb34" y="72.0"/>
    </g>
   </g>
   <g id="patch_3">
    <path d="M 270 72 
L 1944 72 
" style="fill:none;stroke:#000000;stroke-linecap:square;stroke-linejoin:miter;"/>
   </g>
   <g id="patch_4">
    <path d="M 1944 648 
L 1944 72 
" style="fill:none;stroke:#000000;stroke-linecap:square;stroke-linejoin:miter;"/>
   </g>
   <g id="patch_5">
    <path d="M 270 648 
L 1944 648 
" style="fill:none;stroke:#000000;stroke-linecap:square;stroke-linejoin:miter;"/>
   </g>
   <g id="patch_6">
    <path d="M 270 648 
L 270 72 
" style="fill:none;stroke:#000000;stroke-linecap:square;stroke-linejoin:miter;"/>
   </g>
   <g id="matplotlib.axis_1">
    <g id="xtick_1">
     <g id="line2d_3">
      <defs>
       <path d="M 0 0 
L 0 -4 
" id="md0b440b048" style="stroke:#000000;stroke-width:0.5;"/>
      </defs>
      <g>
       <use style="stroke:#000000;stroke-width:0.5;" x="270.0" xlink:href="#md0b440b048" y="648.0"/>
      </g>
     </g>
     <g id="line2d_4">
      <defs>
       <path d="M 0 0 
L 0 4 
" id="m690a2ee1f9" style="stroke:#000000;stroke-width:0.5;"/>
      </defs>
      <g>
       <use style="stroke:#000000;stroke-width:0.5;" x="270.0" xlink:href="#m690a2ee1f9" y="72.0"/>
      </g>
     </g>
     <g id="text_1">
      <!-- Apr 01 2014 -->
      <defs>
       <path d="M 19.1875 8.296875 
L 53.609375 8.296875 
L 53.609375 0 
L 7.328125 0 
L 7.328125 8.296875 
Q 12.9375 14.109375 22.625 23.890625 
Q 32.328125 33.6875 34.8125 36.53125 
Q 39.546875 41.84375 41.421875 45.53125 
Q 43.3125 49.21875 43.3125 52.78125 
Q 43.3125 58.59375 39.234375 62.25 
Q 35.15625 65.921875 28.609375 65.921875 
Q 23.96875 65.921875 18.8125 64.3125 
Q 13.671875 62.703125 7.8125 59.421875 
L 7.8125 69.390625 
Q 13.765625 71.78125 18.9375 73 
Q 24.125 74.21875 28.421875 74.21875 
Q 39.75 74.21875 46.484375 68.546875 
Q 53.21875 62.890625 53.21875 53.421875 
Q 53.21875 48.921875 51.53125 44.890625 
Q 49.859375 40.875 45.40625 35.40625 
Q 44.1875 33.984375 37.640625 27.21875 
Q 31.109375 20.453125 19.1875 8.296875 
" id="BitstreamVeraSans-Roman-32"/>
       <path id="BitstreamVeraSans-Roman-20"/>
       <path d="M 31.78125 66.40625 
Q 24.171875 66.40625 20.328125 58.90625 
Q 16.5 51.421875 16.5 36.375 
Q 16.5 21.390625 20.328125 13.890625 
Q 24.171875 6.390625 31.78125 6.390625 
Q 39.453125 6.390625 43.28125 13.890625 
Q 47.125 21.390625 47.125 36.375 
Q 47.125 51.421875 43.28125 58.90625 
Q 39.453125 66.40625 31.78125 66.40625 
M 31.78125 74.21875 
Q 44.046875 74.21875 50.515625 64.515625 
Q 56.984375 54.828125 56.984375 36.375 
Q 56.984375 17.96875 50.515625 8.265625 
Q 44.046875 -1.421875 31.78125 -1.421875 
Q 19.53125 -1.421875 13.0625 8.265625 
Q 6.59375 17.96875 6.59375 36.375 
Q 6.59375 54.828125 13.0625 64.515625 
Q 19.53125 74.21875 31.78125 74.21875 
" id="BitstreamVeraSans-Roman-30"/>
       <path d="M 12.40625 8.296875 
L 28.515625 8.296875 
L 28.515625 63.921875 
L 10.984375 60.40625 
L 10.984375 69.390625 
L 28.421875 72.90625 
L 38.28125 72.90625 
L 38.28125 8.296875 
L 54.390625 8.296875 
L 54.390625 0 
L 12.40625 0 
z
" id="BitstreamVeraSans-Roman-31"/>
       <path d="M 37.796875 64.3125 
L 12.890625 25.390625 
L 37.796875 25.390625 
z
M 35.203125 72.90625 
L 47.609375 72.90625 
L 47.609375 25.390625 
L 58.015625 25.390625 
L 58.015625 17.1875 
L 47.609375 17.1875 
L 47.609375 0 
L 37.796875 0 
L 37.796875 17.1875 
L 4.890625 17.1875 
L 4.890625 26.703125 
z
" id="BitstreamVeraSans-Roman-34"/>
       <path d="M 34.1875 63.1875 
L 20.796875 26.90625 
L 47.609375 26.90625 
z
M 28.609375 72.90625 
L 39.796875 72.90625 
L 67.578125 0 
L 57.328125 0 
L 50.6875 18.703125 
L 17.828125 18.703125 
L 11.1875 0 
L 0.78125 0 
z
" id="BitstreamVeraSans-Roman-41"/>
       <path d="M 41.109375 46.296875 
Q 39.59375 47.171875 37.8125 47.578125 
Q 36.03125 48 33.890625 48 
Q 26.265625 48 22.1875 43.046875 
Q 18.109375 38.09375 18.109375 28.8125 
L 18.109375 0 
L 9.078125 0 
L 9.078125 54.6875 
L 18.109375 54.6875 
L 18.109375 46.1875 
Q 20.953125 51.171875 25.484375 53.578125 
Q 30.03125 56 36.53125 56 
Q 37.453125 56 38.578125 55.875 
Q 39.703125 55.765625 41.0625 55.515625 
z
" id="BitstreamVeraSans-Roman-72"/>
       <path d="M 18.109375 8.203125 
L 18.109375 -20.796875 
L 9.078125 -20.796875 
L 9.078125 54.6875 
L 18.109375 54.6875 
L 18.109375 46.390625 
Q 20.953125 51.265625 25.265625 53.625 
Q 29.59375 56 35.59375 56 
Q 45.5625 56 51.78125 48.09375 
Q 58.015625 40.1875 58.015625 27.296875 
Q 58.015625 14.40625 51.78125 6.484375 
Q 45.5625 -1.421875 35.59375 -1.421875 
Q 29.59375 -1.421875 25.265625 0.953125 
Q 20.953125 3.328125 18.109375 8.203125 
M 48.6875 27.296875 
Q 48.6875 37.203125 44.609375 42.84375 
Q 40.53125 48.484375 33.40625 48.484375 
Q 26.265625 48.484375 22.1875 42.84375 
Q 18.109375 37.203125 18.109375 27.296875 
Q 18.109375 17.390625 22.1875 11.75 
Q 26.265625 6.109375 33.40625 6.109375 
Q 40.53125 6.109375 44.609375 11.75 
Q 48.6875 17.390625 48.6875 27.296875 
" id="BitstreamVeraSans-Roman-70"/>
      </defs>
      <g transform="translate(232.90125 661.118125)scale(0.12 -0.12)">
       <use xlink:href="#BitstreamVeraSans-Roman-41"/>
       <use x="68.408203125" xlink:href="#BitstreamVeraSans-Roman-70"/>
       <use x="131.884765625" xlink:href="#BitstreamVeraSans-Roman-72"/>
       <use x="172.998046875" xlink:href="#BitstreamVeraSans-Roman-20"/>
       <use x="204.78515625" xlink:href="#BitstreamVeraSans-Roman-30"/>
       <use x="268.408203125" xlink:href="#BitstreamVeraSans-Roman-31"/>
       <use x="332.03125" xlink:href="#BitstreamVeraSans-Roman-20"/>
       <use x="363.818359375" xlink:href="#BitstreamVeraSans-Roman-32"/>
       <use x="427.44140625" xlink:href="#BitstreamVeraSans-Roman-30"/>
       <use x="491.064453125" xlink:href="#BitstreamVeraSans-Roman-31"/>
       <use x="554.6875" xlink:href="#BitstreamVeraSans-Roman-34"/>
      </g>
     </g>
    </g>
    <g id="xtick_2">
     <g id="line2d_5">
      <g>
       <use style="stroke:#000000;stroke-width:0.5;" x="509.202183083" xlink:href="#md0b440b048" y="648.0"/>
      </g>
     </g>
     <g id="line2d_6">
      <g>
       <use style="stroke:#000000;stroke-width:0.5;" x="509.202183083" xlink:href="#m690a2ee1f9" y="72.0"/>
      </g>
     </g>
     <g id="text_2">
      <!-- Apr 03 2014 -->
      <defs>
       <path d="M 40.578125 39.3125 
Q 47.65625 37.796875 51.625 33 
Q 55.609375 28.21875 55.609375 21.1875 
Q 55.609375 10.40625 48.1875 4.484375 
Q 40.765625 -1.421875 27.09375 -1.421875 
Q 22.515625 -1.421875 17.65625 -0.515625 
Q 12.796875 0.390625 7.625 2.203125 
L 7.625 11.71875 
Q 11.71875 9.328125 16.59375 8.109375 
Q 21.484375 6.890625 26.8125 6.890625 
Q 36.078125 6.890625 40.9375 10.546875 
Q 45.796875 14.203125 45.796875 21.1875 
Q 45.796875 27.640625 41.28125 31.265625 
Q 36.765625 34.90625 28.71875 34.90625 
L 20.21875 34.90625 
L 20.21875 43.015625 
L 29.109375 43.015625 
Q 36.375 43.015625 40.234375 45.921875 
Q 44.09375 48.828125 44.09375 54.296875 
Q 44.09375 59.90625 40.109375 62.90625 
Q 36.140625 65.921875 28.71875 65.921875 
Q 24.65625 65.921875 20.015625 65.03125 
Q 15.375 64.15625 9.8125 62.3125 
L 9.8125 71.09375 
Q 15.4375 72.65625 20.34375 73.4375 
Q 25.25 74.21875 29.59375 74.21875 
Q 40.828125 74.21875 47.359375 69.109375 
Q 53.90625 64.015625 53.90625 55.328125 
Q 53.90625 49.265625 50.4375 45.09375 
Q 46.96875 40.921875 40.578125 39.3125 
" id="BitstreamVeraSans-Roman-33"/>
      </defs>
      <g transform="translate(472.103433083 661.118125)scale(0.12 -0.12)">
       <use xlink:href="#BitstreamVeraSans-Roman-41"/>
       <use x="68.408203125" xlink:href="#BitstreamVeraSans-Roman-70"/>
       <use x="131.884765625" xlink:href="#BitstreamVeraSans-Roman-72"/>
       <use x="172.998046875" xlink:href="#BitstreamVeraSans-Roman-20"/>
       <use x="204.78515625" xlink:href="#BitstreamVeraSans-Roman-30"/>
       <use x="268.408203125" xlink:href="#BitstreamVeraSans-Roman-33"/>
       <use x="332.03125" xlink:href="#BitstreamVeraSans-Roman-20"/>
       <use x="363.818359375" xlink:href="#BitstreamVeraSans-Roman-32"/>
       <use x="427.44140625" xlink:href="#BitstreamVeraSans-Roman-30"/>
       <use x="491.064453125" xlink:href="#BitstreamVeraSans-Roman-31"/>
       <use x="554.6875" xlink:href="#BitstreamVeraSans-Roman-34"/>
      </g>
     </g>
    </g>
    <g id="xtick_3">
     <g id="line2d_7">
      <g>
       <use style="stroke:#000000;stroke-width:0.5;" x="748.404366165" xlink:href="#md0b440b048" y="648.0"/>
      </g>
     </g>
     <g id="line2d_8">
      <g>
       <use style="stroke:#000000;stroke-width:0.5;" x="748.404366165" xlink:href="#m690a2ee1f9" y="72.0"/>
      </g>
     </g>
     <g id="text_3">
      <!-- Apr 05 2014 -->
      <defs>
       <path d="M 10.796875 72.90625 
L 49.515625 72.90625 
L 49.515625 64.59375 
L 19.828125 64.59375 
L 19.828125 46.734375 
Q 21.96875 47.46875 24.109375 47.828125 
Q 26.265625 48.1875 28.421875 48.1875 
Q 40.625 48.1875 47.75 41.5 
Q 54.890625 34.8125 54.890625 23.390625 
Q 54.890625 11.625 47.5625 5.09375 
Q 40.234375 -1.421875 26.90625 -1.421875 
Q 22.3125 -1.421875 17.546875 -0.640625 
Q 12.796875 0.140625 7.71875 1.703125 
L 7.71875 11.625 
Q 12.109375 9.234375 16.796875 8.0625 
Q 21.484375 6.890625 26.703125 6.890625 
Q 35.15625 6.890625 40.078125 11.328125 
Q 45.015625 15.765625 45.015625 23.390625 
Q 45.015625 31 40.078125 35.4375 
Q 35.15625 39.890625 26.703125 39.890625 
Q 22.75 39.890625 18.8125 39.015625 
Q 14.890625 38.140625 10.796875 36.28125 
z
" id="BitstreamVeraSans-Roman-35"/>
      </defs>
      <g transform="translate(711.305616165 661.118125)scale(0.12 -0.12)">
       <use xlink:href="#BitstreamVeraSans-Roman-41"/>
       <use x="68.408203125" xlink:href="#BitstreamVeraSans-Roman-70"/>
       <use x="131.884765625" xlink:href="#BitstreamVeraSans-Roman-72"/>
       <use x="172.998046875" xlink:href="#BitstreamVeraSans-Roman-20"/>
       <use x="204.78515625" xlink:href="#BitstreamVeraSans-Roman-30"/>
       <use x="268.408203125" xlink:href="#BitstreamVeraSans-Roman-35"/>
       <use x="332.03125" xlink:href="#BitstreamVeraSans-Roman-20"/>
       <use x="363.818359375" xlink:href="#BitstreamVeraSans-Roman-32"/>
       <use x="427.44140625" xlink:href="#BitstreamVeraSans-Roman-30"/>
       <use x="491.064453125" xlink:href="#BitstreamVeraSans-Roman-31"/>
       <use x="554.6875" xlink:href="#BitstreamVeraSans-Roman-34"/>
      </g>
     </g>
    </g>
    <g id="xtick_4">
     <g id="line2d_9">
      <g>
       <use style="stroke:#000000;stroke-width:0.5;" x="987.606549248" xlink:href="#md0b440b048" y="648.0"/>
      </g>
     </g>
     <g id="line2d_10">
      <g>
       <use style="stroke:#000000;stroke-width:0.5;" x="987.606549248" xlink:href="#m690a2ee1f9" y="72.0"/>
      </g>
     </g>
     <g id="text_4">
      <!-- Apr 07 2014 -->
      <defs>
       <path d="M 8.203125 72.90625 
L 55.078125 72.90625 
L 55.078125 68.703125 
L 28.609375 0 
L 18.3125 0 
L 43.21875 64.59375 
L 8.203125 64.59375 
z
" id="BitstreamVeraSans-Roman-37"/>
      </defs>
      <g transform="translate(950.507799248 661.118125)scale(0.12 -0.12)">
       <use xlink:href="#BitstreamVeraSans-Roman-41"/>
       <use x="68.408203125" xlink:href="#BitstreamVeraSans-Roman-70"/>
       <use x="131.884765625" xlink:href="#BitstreamVeraSans-Roman-72"/>
       <use x="172.998046875" xlink:href="#BitstreamVeraSans-Roman-20"/>
       <use x="204.78515625" xlink:href="#BitstreamVeraSans-Roman-30"/>
       <use x="268.408203125" xlink:href="#BitstreamVeraSans-Roman-37"/>
       <use x="332.03125" xlink:href="#BitstreamVeraSans-Roman-20"/>
       <use x="363.818359375" xlink:href="#BitstreamVeraSans-Roman-32"/>
       <use x="427.44140625" xlink:href="#BitstreamVeraSans-Roman-30"/>
       <use x="491.064453125" xlink:href="#BitstreamVeraSans-Roman-31"/>
       <use x="554.6875" xlink:href="#BitstreamVeraSans-Roman-34"/>
      </g>
     </g>
    </g>
    <g id="xtick_5">
     <g id="line2d_11">
      <g>
       <use style="stroke:#000000;stroke-width:0.5;" x="1226.80873233" xlink:href="#md0b440b048" y="648.0"/>
      </g>
     </g>
     <g id="line2d_12">
      <g>
       <use style="stroke:#000000;stroke-width:0.5;" x="1226.80873233" xlink:href="#m690a2ee1f9" y="72.0"/>
      </g>
     </g>
     <g id="text_5">
      <!-- Apr 09 2014 -->
      <defs>
       <path d="M 10.984375 1.515625 
L 10.984375 10.5 
Q 14.703125 8.734375 18.5 7.8125 
Q 22.3125 6.890625 25.984375 6.890625 
Q 35.75 6.890625 40.890625 13.453125 
Q 46.046875 20.015625 46.78125 33.40625 
Q 43.953125 29.203125 39.59375 26.953125 
Q 35.25 24.703125 29.984375 24.703125 
Q 19.046875 24.703125 12.671875 31.3125 
Q 6.296875 37.9375 6.296875 49.421875 
Q 6.296875 60.640625 12.9375 67.421875 
Q 19.578125 74.21875 30.609375 74.21875 
Q 43.265625 74.21875 49.921875 64.515625 
Q 56.59375 54.828125 56.59375 36.375 
Q 56.59375 19.140625 48.40625 8.859375 
Q 40.234375 -1.421875 26.421875 -1.421875 
Q 22.703125 -1.421875 18.890625 -0.6875 
Q 15.09375 0.046875 10.984375 1.515625 
M 30.609375 32.421875 
Q 37.25 32.421875 41.125 36.953125 
Q 45.015625 41.5 45.015625 49.421875 
Q 45.015625 57.28125 41.125 61.84375 
Q 37.25 66.40625 30.609375 66.40625 
Q 23.96875 66.40625 20.09375 61.84375 
Q 16.21875 57.28125 16.21875 49.421875 
Q 16.21875 41.5 20.09375 36.953125 
Q 23.96875 32.421875 30.609375 32.421875 
" id="BitstreamVeraSans-Roman-39"/>
      </defs>
      <g transform="translate(1189.70998233 661.118125)scale(0.12 -0.12)">
       <use xlink:href="#BitstreamVeraSans-Roman-41"/>
       <use x="68.408203125" xlink:href="#BitstreamVeraSans-Roman-70"/>
       <use x="131.884765625" xlink:href="#BitstreamVeraSans-Roman-72"/>
       <use x="172.998046875" xlink:href="#BitstreamVeraSans-Roman-20"/>
       <use x="204.78515625" xlink:href="#BitstreamVeraSans-Roman-30"/>
       <use x="268.408203125" xlink:href="#BitstreamVeraSans-Roman-39"/>
       <use x="332.03125" xlink:href="#BitstreamVeraSans-Roman-20"/>
       <use x="363.818359375" xlink:href="#BitstreamVeraSans-Roman-32"/>
       <use x="427.44140625" xlink:href="#BitstreamVeraSans-Roman-30"/>
       <use x="491.064453125" xlink:href="#BitstreamVeraSans-Roman-31"/>
       <use x="554.6875" xlink:href="#BitstreamVeraSans-Roman-34"/>
      </g>
     </g>
    </g>
    <g id="xtick_6">
     <g id="line2d_13">
      <g>
       <use style="stroke:#000000;stroke-width:0.5;" x="1466.01091541" xlink:href="#md0b440b048" y="648.0"/>
      </g>
     </g>
     <g id="line2d_14">
      <g>
       <use style="stroke:#000000;stroke-width:0.5;" x="1466.01091541" xlink:href="#m690a2ee1f9" y="72.0"/>
      </g>
     </g>
     <g id="text_6">
      <!-- Apr 11 2014 -->
      <g transform="translate(1428.91216541 661.118125)scale(0.12 -0.12)">
       <use xlink:href="#BitstreamVeraSans-Roman-41"/>
       <use x="68.408203125" xlink:href="#BitstreamVeraSans-Roman-70"/>
       <use x="131.884765625" xlink:href="#BitstreamVeraSans-Roman-72"/>
       <use x="172.998046875" xlink:href="#BitstreamVeraSans-Roman-20"/>
       <use x="204.78515625" xlink:href="#BitstreamVeraSans-Roman-31"/>
       <use x="268.408203125" xlink:href="#BitstreamVeraSans-Roman-31"/>
       <use x="332.03125" xlink:href="#BitstreamVeraSans-Roman-20"/>
       <use x="363.818359375" xlink:href="#BitstreamVeraSans-Roman-32"/>
       <use x="427.44140625" xlink:href="#BitstreamVeraSans-Roman-30"/>
       <use x="491.064453125" xlink:href="#BitstreamVeraSans-Roman-31"/>
       <use x="554.6875" xlink:href="#BitstreamVeraSans-Roman-34"/>
      </g>
     </g>
    </g>
    <g id="xtick_7">
     <g id="line2d_15">
      <g>
       <use style="stroke:#000000;stroke-width:0.5;" x="1705.2130985" xlink:href="#md0b440b048" y="648.0"/>
      </g>
     </g>
     <g id="line2d_16">
      <g>
       <use style="stroke:#000000;stroke-width:0.5;" x="1705.2130985" xlink:href="#m690a2ee1f9" y="72.0"/>
      </g>
     </g>
     <g id="text_7">
      <!-- Apr 13 2014 -->
      <g transform="translate(1668.1143485 661.118125)scale(0.12 -0.12)">
       <use xlink:href="#BitstreamVeraSans-Roman-41"/>
       <use x="68.408203125" xlink:href="#BitstreamVeraSans-Roman-70"/>
       <use x="131.884765625" xlink:href="#BitstreamVeraSans-Roman-72"/>
       <use x="172.998046875" xlink:href="#BitstreamVeraSans-Roman-20"/>
       <use x="204.78515625" xlink:href="#BitstreamVeraSans-Roman-31"/>
       <use x="268.408203125" xlink:href="#BitstreamVeraSans-Roman-33"/>
       <use x="332.03125" xlink:href="#BitstreamVeraSans-Roman-20"/>
       <use x="363.818359375" xlink:href="#BitstreamVeraSans-Roman-32"/>
       <use x="427.44140625" xlink:href="#BitstreamVeraSans-Roman-30"/>
       <use x="491.064453125" xlink:href="#BitstreamVeraSans-Roman-31"/>
       <use x="554.6875" xlink:href="#BitstreamVeraSans-Roman-34"/>
      </g>
     </g>
    </g>
   </g>
   <g id="matplotlib.axis_2">
    <g id="ytick_1">
     <g id="line2d_17">
      <defs>
       <path d="M 0 0 
L 4 0 
" id="m5e14fa7076" style="stroke:#000000;stroke-width:0.5;"/>
      </defs>
      <g>
       <use style="stroke:#000000;stroke-width:0.5;" x="270.0" xlink:href="#m5e14fa7076" y="648.0"/>
      </g>
     </g>
     <g id="line2d_18">
      <defs>
       <path d="M 0 0 
L -4 0 
" id="mde0962d334" style="stroke:#000000;stroke-width:0.5;"/>
      </defs>
      <g>
       <use style="stroke:#000000;stroke-width:0.5;" x="1944.0" xlink:href="#mde0962d334" y="648.0"/>
      </g>
     </g>
     <g id="text_8">
      <!-- 0 -->
      <g transform="translate(258.365 651.31125)scale(0.12 -0.12)">
       <use xlink:href="#BitstreamVeraSans-Roman-30"/>
      </g>
     </g>
    </g>
    <g id="ytick_2">
     <g id="line2d_19">
      <g>
       <use style="stroke:#000000;stroke-width:0.5;" x="270.0" xlink:href="#m5e14fa7076" y="504.0"/>
      </g>
     </g>
     <g id="line2d_20">
      <g>
       <use style="stroke:#000000;stroke-width:0.5;" x="1944.0" xlink:href="#mde0962d334" y="504.0"/>
      </g>
     </g>
     <g id="text_9">
      <!-- 5 -->
      <g transform="translate(258.365 507.31125)scale(0.12 -0.12)">
       <use xlink:href="#BitstreamVeraSans-Roman-35"/>
      </g>
     </g>
    </g>
    <g id="ytick_3">
     <g id="line2d_21">
      <g>
       <use style="stroke:#000000;stroke-width:0.5;" x="270.0" xlink:href="#m5e14fa7076" y="360.0"/>
      </g>
     </g>
     <g id="line2d_22">
      <g>
       <use style="stroke:#000000;stroke-width:0.5;" x="1944.0" xlink:href="#mde0962d334" y="360.0"/>
      </g>
     </g>
     <g id="text_10">
      <!-- 10 -->
      <g transform="translate(250.73 363.31125)scale(0.12 -0.12)">
       <use xlink:href="#BitstreamVeraSans-Roman-31"/>
       <use x="63.623046875" xlink:href="#BitstreamVeraSans-Roman-30"/>
      </g>
     </g>
    </g>
    <g id="ytick_4">
     <g id="line2d_23">
      <g>
       <use style="stroke:#000000;stroke-width:0.5;" x="270.0" xlink:href="#m5e14fa7076" y="216.0"/>
      </g>
     </g>
     <g id="line2d_24">
      <g>
       <use style="stroke:#000000;stroke-width:0.5;" x="1944.0" xlink:href="#mde0962d334" y="216.0"/>
      </g>
     </g>
     <g id="text_11">
      <!-- 15 -->
      <g transform="translate(250.73 219.31125)scale(0.12 -0.12)">
       <use xlink:href="#BitstreamVeraSans-Roman-31"/>
       <use x="63.623046875" xlink:href="#BitstreamVeraSans-Roman-35"/>
      </g>
     </g>
    </g>
    <g id="ytick_5">
     <g id="line2d_25">
      <g>
       <use style="stroke:#000000;stroke-width:0.5;" x="270.0" xlink:href="#m5e14fa7076" y="72.0"/>
      </g>
     </g>
     <g id="line2d_26">
      <g>
       <use style="stroke:#000000;stroke-width:0.5;" x="1944.0" xlink:href="#mde0962d334" y="72.0"/>
      </g>
     </g>
     <g id="text_12">
      <!-- 20 -->
      <g transform="translate(250.73 75.31125)scale(0.12 -0.12)">
       <use xlink:href="#BitstreamVeraSans-Roman-32"/>
       <use x="63.623046875" xlink:href="#BitstreamVeraSans-Roman-30"/>
      </g>
     </g>
    </g>
   </g>
  </g>
 </g>
 <defs>
  <clipPath id="p1fccbd3f21">
   <rect height="576.0" width="1674.0" x="270.0" y="72.0"/>
  </clipPath>
 </defs>
</svg>
