<?xml version="1.0" encoding="utf-8" standalone="no"?>
<!DOCTYPE svg PUBLIC "-//W3C//DTD SVG 1.1//EN"
  "http://www.w3.org/Graphics/SVG/1.1/DTD/svg11.dtd">
<!-- Created with matplotlib (http://matplotlib.org/) -->
<svg height="720pt" version="1.1" viewBox="0 0 2160 720" width="2160pt" xmlns="http://www.w3.org/2000/svg" xmlns:xlink="http://www.w3.org/1999/xlink">
 <defs>
  <style type="text/css">
*{stroke-linecap:butt;stroke-linejoin:round;stroke-miterlimit:100000;}
  </style>
 </defs>
 <g id="figure_1">
  <g id="patch_1">
   <path d="M 0 720 
L 2160 720 
L 2160 0 
L 0 0 
z
" style="fill:#ffffff;"/>
  </g>
  <g id="axes_1">
   <g id="patch_2">
    <path d="M 270 648 
L 1944 648 
L 1944 72 
L 270 72 
z
" style="fill:#ffffff;"/>
   </g>
   <g id="line2d_1">
    <path clip-path="url(#p85484d05dd)" d="M 270 647.420215 
L 270.415076 640.619113 
L 270.830151 647.337837 
L 271.245227 647.449473 
L 272.905529 647.437819 
L 273.320605 646.814857 
L 273.735681 647.375886 
L 274.150756 647.42426 
L 274.565832 640.62273 
L 274.980908 647.35341 
L 275.395983 640.554071 
L 275.811059 647.485844 
L 277.056286 647.427371 
L 277.471361 647.48521 
L 278.301513 647.482128 
L 279.131664 647.446939 
L 279.546739 640.578148 
L 279.961815 647.457164 
L 280.376891 640.620749 
L 280.791966 647.437382 
L 282.867344 647.49371 
L 284.112571 647.479218 
L 284.527647 640.580728 
L 284.942723 647.473181 
L 285.357798 640.56308 
L 286.187949 647.408089 
L 286.603025 647.501272 
L 287.848252 647.44919 
L 289.093479 647.434854 
L 289.508554 640.624689 
L 289.92363 647.424306 
L 290.338706 640.609275 
L 290.753781 647.442755 
L 291.583933 647.437817 
L 291.999008 640.57218 
L 292.414084 645.589924 
L 292.829159 644.595725 
L 293.244235 647.448763 
L 294.074386 647.463127 
L 294.489462 640.595244 
L 294.904538 647.442596 
L 295.319613 640.606879 
L 295.734689 647.454881 
L 299.055294 647.427698 
L 299.470369 640.59522 
L 299.885445 647.417708 
L 300.300521 640.632476 
L 300.715596 647.435702 
L 303.20605 647.475123 
L 304.036201 647.431246 
L 304.451277 640.386824 
L 304.866353 647.429037 
L 305.281428 640.294641 
L 305.696504 647.626683 
L 306.111579 647.465723 
L 307.356806 647.408441 
L 307.771882 647.506022 
L 308.186958 647.418968 
L 308.602033 647.476762 
L 309.017109 647.406467 
L 309.432184 640.524603 
L 309.84726 647.479089 
L 310.262336 640.573816 
L 310.677411 647.438287 
L 311.507563 647.440842 
L 313.998016 647.457583 
L 314.413092 640.545108 
L 314.828168 647.468211 
L 315.243243 640.575544 
L 315.658319 647.426495 
L 316.903546 647.464937 
L 318.148773 647.447169 
L 318.978924 647.404202 
L 319.394 640.606625 
L 319.809075 647.459237 
L 320.224151 640.549786 
L 320.639226 647.446026 
L 322.714605 647.424984 
L 323.12968 647.498334 
L 323.544756 647.447628 
L 323.959831 638.508257 
L 324.374907 647.47819 
L 324.789983 647.421502 
L 325.205058 640.611372 
L 325.620134 647.444828 
L 328.940739 647.4565 
L 329.355815 640.536883 
L 329.77089 647.425719 
L 330.185966 640.56543 
L 330.601041 647.494638 
L 331.431193 647.438082 
L 333.091495 647.477762 
L 333.921646 647.415572 
L 334.336722 640.557527 
L 334.751798 647.414203 
L 335.166873 640.607432 
L 335.581949 647.426401 
L 336.4121 647.446213 
L 338.902554 647.454427 
L 339.31763 640.548611 
L 339.732705 647.410204 
L 340.147781 640.565614 
L 340.562856 647.483715 
L 341.808083 647.426675 
L 342.638235 647.454118 
L 343.883461 647.420148 
L 344.298537 640.579692 
L 344.713613 647.424521 
L 345.128688 640.596349 
L 345.543764 647.405914 
L 346.788991 647.458362 
L 348.864369 647.445994 
L 349.279445 640.509097 
L 349.69452 647.449952 
L 350.109596 640.535639 
L 350.524671 647.457265 
L 353.430201 647.452106 
L 353.845276 647.164406 
L 354.260352 640.574438 
L 354.675428 647.403819 
L 355.090503 640.569807 
L 355.505579 647.432387 
L 357.165881 647.469446 
L 357.580957 647.216914 
L 357.996033 647.47514 
L 358.826184 647.435863 
L 359.24126 640.510272 
L 359.656335 647.425555 
L 360.071411 640.455552 
L 360.486486 647.346385 
L 361.316638 647.432972 
L 361.731713 647.353553 
L 362.561865 647.465751 
L 363.807091 647.356076 
L 364.222167 640.549371 
L 364.637243 647.374459 
L 365.052318 640.579507 
L 365.467394 647.445063 
L 366.297545 647.435545 
L 366.712621 646.891776 
L 367.127696 647.457901 
L 368.372923 647.406734 
L 368.787999 647.461108 
L 369.203075 640.519119 
L 369.61815 647.358027 
L 370.033226 638.971799 
L 370.448302 647.393569 
L 370.863377 647.538723 
L 371.278453 647.407372 
L 371.693528 646.803351 
L 372.108604 647.446614 
L 373.768907 647.340261 
L 374.183982 640.485112 
L 374.599058 647.387189 
L 375.014133 640.52511 
L 375.429209 647.338489 
L 376.25936 647.404838 
L 377.919663 647.326124 
L 378.334738 645.689641 
L 378.749814 647.455807 
L 379.16489 640.445092 
L 379.579965 647.372503 
L 379.995041 640.600681 
L 380.410117 647.399873 
L 380.825192 647.486284 
L 381.240268 647.38773 
L 381.655343 647.461302 
L 382.070419 647.419846 
L 382.485495 645.81126 
L 382.90057 647.436108 
L 383.730722 647.427601 
L 384.145797 640.527782 
L 384.560873 647.245313 
L 384.975948 640.556237 
L 385.391024 647.43887 
L 387.881478 647.448918 
L 388.711629 647.418968 
L 389.126705 640.552827 
L 389.54178 647.386498 
L 389.956856 640.497876 
L 390.371932 647.432734 
L 390.787007 647.457035 
L 391.202083 647.360191 
L 391.617158 647.425802 
L 392.032234 647.296902 
L 392.862385 647.452945 
L 393.692537 647.42726 
L 394.107612 640.523105 
L 394.522688 647.442642 
L 394.937763 640.504904 
L 395.352839 647.394401 
L 397.013142 647.457399 
L 397.428217 647.29302 
L 397.843293 647.438186 
L 398.673444 647.420348 
L 399.08852 640.584323 
L 399.503595 647.424111 
L 399.918671 640.594345 
L 400.333747 647.436124 
L 402.8242 647.464894 
L 403.654352 647.430926 
L 404.069427 640.570522 
L 404.899578 640.55596 
L 405.314654 647.445294 
L 407.805108 647.405107 
L 408.220183 647.479151 
L 408.635259 647.401886 
L 409.050335 640.567596 
L 409.46541 647.416507 
L 409.880486 640.562918 
L 410.295562 647.438087 
L 410.710637 647.486772 
L 411.540789 647.464378 
L 413.616167 647.434287 
L 414.031242 640.536952 
L 414.446318 647.42797 
L 414.861394 640.534994 
L 415.276469 647.462795 
L 418.181999 647.474541 
L 418.597074 647.378358 
L 419.01215 640.561006 
L 419.427225 647.383984 
L 419.842301 640.600151 
L 420.257377 647.211889 
L 420.672452 647.427933 
L 423.577982 647.452519 
L 423.993057 640.549394 
L 424.408133 647.450597 
L 424.823209 640.548081 
L 425.238284 647.455837 
L 428.558889 647.425419 
L 428.973965 640.584346 
L 429.38904 647.410466 
L 429.804116 640.586442 
L 430.219192 647.437368 
L 433.124721 647.440874 
L 433.539797 647.441029 
L 433.954872 640.565153 
L 434.369948 647.422747 
L 434.785024 640.582295 
L 435.200099 647.429594 
L 436.445326 647.479022 
L 437.275477 647.45495 
L 438.520704 647.459661 
L 438.93578 640.544855 
L 439.350855 647.431721 
L 439.765931 640.503383 
L 440.181007 647.44916 
L 441.426234 647.38153 
L 441.841309 647.485164 
L 442.67146 647.452259 
L 443.501612 647.407022 
L 443.916687 640.561582 
L 444.331763 647.37824 
L 444.746839 640.560131 
L 445.161914 647.405029 
L 445.992065 647.432859 
L 448.482519 647.45503 
L 448.897595 640.50154 
L 449.31267 647.427318 
L 449.727746 640.506701 
L 450.142822 647.44848 
L 451.803124 647.430762 
L 453.048351 647.450256 
L 453.463427 647.398557 
L 453.878502 640.590106 
L 454.293578 647.400743 
L 454.708654 640.524902 
L 455.123729 647.47852 
L 455.95388 647.434615 
L 458.444334 647.446653 
L 458.85941 640.514604 
L 459.274485 647.422998 
L 459.689561 640.497439 
L 460.104637 647.468686 
L 460.934788 647.46065 
L 463.425242 647.375462 
L 463.840317 640.632476 
L 464.255393 647.400372 
L 464.670469 640.529441 
L 465.085544 647.434439 
L 468.406149 647.412531 
L 468.821225 640.545546 
L 469.236301 647.410743 
L 469.651376 640.564646 
L 470.066452 647.456076 
L 470.481527 647.105495 
L 470.896603 647.454466 
L 472.556906 647.443257 
L 473.387057 647.369695 
L 473.802132 640.382031 
L 474.217208 647.396108 
L 474.632284 640.528404 
L 475.047359 647.346662 
L 477.537813 647.449372 
L 478.367964 647.328637 
L 478.78304 640.260818 
L 479.198116 647.080702 
L 479.613191 639.794396 
L 480.028267 647.218274 
L 480.858418 647.078667 
L 481.688569 647.102537 
L 482.103645 645.318904 
L 482.518721 647.084374 
L 483.348872 647.068668 
L 483.763947 640.257546 
L 484.179023 647.071085 
L 484.594099 640.216742 
L 485.009174 647.138968 
L 485.42425 647.053729 
L 485.839326 647.127512 
L 486.254401 647.053104 
L 486.669477 647.099062 
L 487.084552 645.258102 
L 487.499628 647.115266 
L 488.329779 647.138327 
L 488.744855 640.142715 
L 489.159931 647.025793 
L 489.575006 640.185454 
L 489.990082 647.319949 
L 490.820233 647.422307 
L 492.06546 647.462965 
L 492.895611 647.408519 
L 493.310687 647.466274 
L 493.725762 640.514143 
L 494.140838 647.435368 
L 494.555914 640.527229 
L 494.970989 647.456678 
L 496.216216 647.414116 
L 498.291594 647.429894 
L 498.70667 640.533012 
L 499.121746 647.371918 
L 499.536821 640.460966 
L 499.951897 647.406257 
L 501.197124 647.455754 
L 502.442351 647.419298 
L 503.272502 647.455846 
L 503.687577 640.508221 
L 504.102653 647.417169 
L 504.517729 640.534303 
L 504.932804 647.480082 
L 505.34788 647.396135 
L 505.762956 647.465958 
L 506.178031 647.401942 
L 507.008182 647.443354 
L 508.253409 647.406718 
L 508.668485 640.49783 
L 509.083561 647.382037 
L 509.498636 640.519442 
L 509.913712 647.376427 
L 510.328788 647.468147 
L 510.743863 647.392914 
L 511.574014 647.449137 
L 513.234317 647.444289 
L 513.649393 640.529441 
L 514.064468 647.439976 
L 514.479544 640.527114 
L 514.894619 647.459035 
L 516.554922 647.405292 
L 516.969998 647.468808 
L 518.215224 647.413855 
L 518.6303 640.567688 
L 519.045376 647.402183 
L 519.460451 640.569393 
L 519.875527 647.404563 
L 520.705678 647.443176 
L 521.535829 647.385749 
L 522.365981 647.450024 
L 523.196132 647.479319 
L 523.611208 640.532598 
L 524.026283 647.421062 
L 524.441359 638.308224 
L 525.27151 647.445699 
L 528.177039 647.404957 
L 528.592115 640.536123 
L 529.007191 647.382892 
L 529.422266 640.575959 
L 529.837342 647.387673 
L 530.667493 647.4406 
L 531.91272 647.418569 
L 532.327796 647.455562 
L 532.742871 647.349551 
L 533.157947 647.511925 
L 533.573023 640.51458 
L 533.988098 647.442169 
L 534.403174 640.532275 
L 534.818249 647.434532 
L 536.063476 647.458072 
L 536.478552 647.400269 
L 536.893628 647.469916 
L 537.308703 647.391548 
L 537.723779 647.453328 
L 538.138854 647.397912 
L 538.55393 640.541376 
L 538.969006 647.412798 
L 539.384081 640.51806 
L 539.799157 647.481162 
L 541.044384 647.395617 
L 541.874535 647.427956 
L 543.119762 647.438476 
L 543.534838 640.531077 
L 543.949913 647.41028 
L 544.364989 640.578586 
L 544.780064 647.415261 
L 546.855443 647.463703 
L 547.685594 647.439725 
L 548.100669 647.456178 
L 548.515745 640.532759 
L 548.930821 647.430652 
L 549.345896 640.575383 
L 549.760972 647.44666 
L 551.006199 647.408042 
L 551.83635 647.418526 
L 553.081577 647.442621 
L 553.496653 640.552274 
L 553.911728 647.387108 
L 554.326804 640.604321 
L 554.741879 647.414904 
L 555.987106 647.448655 
L 556.402182 647.41077 
L 556.817258 647.507635 
L 558.062485 647.446584 
L 558.47756 640.514696 
L 558.892636 647.452779 
L 559.307711 640.525801 
L 559.722787 647.454017 
L 560.968014 647.408496 
L 561.798165 647.460403 
L 563.043392 647.423265 
L 563.458468 640.590428 
L 563.873543 647.327025 
L 564.288619 640.571075 
L 564.703695 647.454641 
L 566.363997 647.456613 
L 567.609224 647.430564 
L 568.0243 647.463292 
L 568.439375 640.527967 
L 568.854451 647.426359 
L 569.269526 640.530225 
L 569.684602 647.444003 
L 570.514753 647.440471 
L 572.590131 647.485284 
L 573.005207 647.387924 
L 573.420283 640.565545 
L 573.835358 647.38006 
L 574.250434 640.548495 
L 574.66551 647.430557 
L 577.155963 647.470193 
L 577.571039 647.397893 
L 577.986115 647.450024 
L 578.40119 640.546099 
L 578.816266 647.450107 
L 579.231341 640.539141 
L 579.646417 647.443854 
L 582.967022 647.421369 
L 583.382098 640.475113 
L 583.797173 647.380275 
L 584.212249 640.582157 
L 584.627325 647.422463 
L 585.457476 647.421841 
L 587.94793 647.399057 
L 588.363005 640.598561 
L 588.778081 647.423906 
L 589.193156 640.559278 
L 589.608232 647.418535 
L 590.023308 647.47323 
L 590.853459 647.411088 
L 592.928837 647.405275 
L 593.343913 640.531515 
L 593.758988 647.381947 
L 594.174064 640.56983 
L 594.58914 647.425369 
L 597.909745 647.449349 
L 598.32482 640.519764 
L 598.739896 647.381307 
L 599.154971 640.555039 
L 599.570047 647.449593 
L 602.890652 647.444091 
L 603.305728 640.538243 
L 603.720803 647.4292 
L 604.135879 640.518013 
L 604.550955 647.391871 
L 604.96603 647.486054 
L 606.626333 647.406169 
L 607.456484 647.463279 
L 607.87156 647.415984 
L 608.286635 640.561329 
L 608.701711 647.403958 
L 609.116787 640.539072 
L 609.531862 647.428034 
L 612.852467 647.436829 
L 613.267543 640.503683 
L 613.682618 647.424182 
L 614.097694 640.548311 
L 614.51277 647.434481 
L 615.757997 647.40343 
L 616.173072 647.479358 
L 617.003223 647.419332 
L 617.833375 647.373519 
L 618.24845 640.532966 
L 618.663526 647.388594 
L 619.078602 640.552596 
L 619.493677 647.382599 
L 620.738904 647.442803 
L 622.814282 647.4387 
L 623.229358 640.483523 
L 623.644433 647.419922 
L 624.059509 640.498452 
L 624.474585 647.432016 
L 626.134887 647.418855 
L 626.549963 647.464073 
L 626.965038 647.38051 
L 627.79519 647.426963 
L 628.210265 640.535547 
L 628.625341 647.390629 
L 629.040417 640.578424 
L 629.455492 647.406441 
L 631.115795 647.451812 
L 631.53087 647.3949 
L 631.945946 647.470359 
L 632.776097 647.435647 
L 633.191173 640.493476 
L 633.606248 647.448803 
L 634.021324 640.498637 
L 634.4364 647.461537 
L 637.757005 647.386592 
L 638.17208 640.548933 
L 638.587156 647.419042 
L 639.002232 640.542413 
L 639.417307 647.416853 
L 640.662534 647.455846 
L 642.737912 647.427221 
L 643.152988 640.50025 
L 643.568063 647.428348 
L 643.983139 640.431867 
L 644.398215 647.399223 
L 644.81329 647.493491 
L 645.228366 647.414627 
L 645.643442 647.471566 
L 646.473593 647.395324 
L 647.303744 642.767432 
L 647.71882 647.401011 
L 648.133895 640.556029 
L 648.548971 647.426864 
L 648.964047 640.493153 
L 649.379122 647.473402 
L 649.794198 647.384694 
L 650.209274 647.442526 
L 650.624349 647.369001 
L 651.039425 647.448054 
L 651.869576 647.428064 
L 652.699727 647.419986 
L 653.114803 640.541998 
L 653.529878 647.381194 
L 653.944954 640.351895 
L 654.36003 647.386903 
L 655.190181 647.419738 
L 657.680635 647.444773 
L 658.09571 640.495158 
L 658.510786 647.439126 
L 658.925862 640.524211 
L 659.340937 647.41986 
L 661.00124 647.449577 
L 661.831391 647.42515 
L 662.246467 647.463557 
L 662.661542 647.382611 
L 663.076618 640.512023 
L 663.491694 647.40205 
L 663.906769 640.539095 
L 664.321845 647.400442 
L 665.567072 647.439112 
L 667.64245 647.419546 
L 668.057525 640.534487 
L 668.472601 647.419023 
L 668.887677 640.518682 
L 669.302752 647.44099 
L 670.547979 647.398209 
L 671.37813 647.425657 
L 672.623357 647.395781 
L 673.038433 640.533911 
L 673.453509 647.421044 
L 673.868584 640.564255 
L 674.28366 647.410056 
L 674.698735 647.477854 
L 675.528887 647.440974 
L 677.604265 647.434004 
L 678.01934 640.507162 
L 678.434416 647.456111 
L 678.849492 640.536883 
L 679.264567 647.452505 
L 680.094719 647.420968 
L 682.170097 647.447024 
L 682.585172 647.378014 
L 683.000248 640.549348 
L 683.415324 647.407969 
L 683.830399 640.576627 
L 684.245475 647.411291 
L 685.905777 647.436942 
L 687.151004 647.416823 
L 687.56608 647.429147 
L 687.981155 640.542113 
L 688.396231 647.44645 
L 688.811307 640.499005 
L 689.226382 647.421938 
L 689.641458 647.478328 
L 690.056534 647.383655 
L 690.886685 647.424569 
L 692.546987 647.386979 
L 692.962063 640.571651 
L 693.377139 647.334937 
L 693.792214 640.577295 
L 694.20729 647.417993 
L 695.867592 647.449392 
L 697.112819 647.416383 
L 697.527895 647.414332 
L 697.94297 640.511286 
L 698.358046 647.434073 
L 698.773122 640.561398 
L 699.188197 647.40484 
L 700.433424 647.450194 
L 702.508802 647.365407 
L 702.923878 640.530801 
L 703.338954 647.418192 
L 703.754029 640.518244 
L 704.169105 647.469684 
L 704.999256 647.429041 
L 706.244483 647.422032 
L 707.48971 647.409287 
L 707.904786 640.555269 
L 708.319861 647.370704 
L 708.734937 640.529556 
L 709.150012 647.406109 
L 712.470617 647.433573 
L 712.885693 640.506885 
L 713.300769 647.442395 
L 713.715844 640.484698 
L 714.13092 647.41245 
L 717.451525 647.381521 
L 717.866601 640.551122 
L 718.281676 647.410102 
L 718.696752 640.499466 
L 719.111827 647.400919 
L 719.941979 647.396149 
L 722.432432 647.435419 
L 722.847508 640.494858 
L 723.262584 647.417219 
L 723.677659 640.521262 
L 724.092735 647.462737 
L 724.922886 647.408695 
L 726.998264 647.428249 
L 727.41334 647.389094 
L 727.828416 640.550684 
L 728.243491 647.388666 
L 728.658567 640.557642 
L 729.073642 647.418528 
L 731.564096 647.446323 
L 732.394247 647.425129 
L 732.809323 640.541837 
L 733.639474 640.500503 
L 734.05455 647.43855 
L 735.299777 647.430854 
L 737.375155 647.406132 
L 737.790231 640.548726 
L 738.205306 647.439239 
L 738.620382 640.53769 
L 739.035457 647.414344 
L 741.525911 647.436658 
L 742.356062 647.445089 
L 742.771138 640.350052 
L 743.186214 647.41084 
L 743.601289 640.490227 
L 744.016365 647.431467 
L 745.261592 647.443022 
L 746.506819 647.423576 
L 746.921894 647.458366 
L 747.33697 647.373943 
L 747.752046 640.540385 
L 748.167121 647.418558 
L 748.582197 640.527414 
L 748.997273 647.430036 
L 752.317878 647.425689 
L 752.732953 640.513682 
L 753.148029 647.394783 
L 753.563104 640.52822 
L 753.97818 647.415934 
L 755.223407 647.443612 
L 756.468634 647.42082 
L 757.298785 647.420127 
L 757.713861 640.541606 
L 758.128936 647.367944 
L 758.544012 640.57506 
L 758.959088 647.438658 
L 760.204314 647.40493 
L 761.449541 647.477997 
L 762.279693 647.444653 
L 762.694768 640.562181 
L 763.109844 647.376759 
L 763.524919 640.544072 
L 763.939995 647.424723 
L 764.770146 647.431472 
L 765.185222 640.562319 
L 765.600298 647.426491 
L 766.845524 647.449975 
L 767.2606 647.393981 
L 767.675676 640.543058 
L 768.090751 647.426949 
L 768.505827 640.494259 
L 768.920903 647.463143 
L 770.166129 647.396916 
L 770.581205 647.480234 
L 771.411356 647.437098 
L 772.241508 647.402695 
L 772.656583 640.521308 
L 773.071659 647.396942 
L 773.486734 640.5408 
L 773.90181 647.426968 
L 777.222415 647.45183 
L 777.637491 640.51988 
L 778.052566 647.409699 
L 778.467642 640.544602 
L 778.882718 647.437529 
L 780.127944 647.402849 
L 781.788247 647.471126 
L 782.203323 647.41974 
L 782.618398 640.537943 
L 783.033474 647.389991 
L 783.448549 640.571328 
L 783.863625 647.395373 
L 785.108852 647.435232 
L 787.18423 647.42409 
L 787.599306 640.49836 
L 788.014381 647.408833 
L 788.429457 640.527183 
L 788.844533 647.440596 
L 789.259608 647.385383 
L 790.089759 647.429076 
L 792.165138 647.368941 
L 792.580213 640.566006 
L 792.995289 647.383406 
L 793.410364 640.575613 
L 793.82544 647.384164 
L 795.070667 647.430592 
L 796.73097 647.429414 
L 797.146045 647.41198 
L 797.561121 640.496471 
L 797.976196 647.418708 
L 798.391272 640.500157 
L 798.806348 647.435043 
L 799.636499 647.42759 
L 800.881726 647.437905 
L 801.296801 647.378413 
L 802.126953 647.414021 
L 802.542028 640.56748 
L 802.957104 647.366953 
L 803.37218 640.546468 
L 803.787255 647.477264 
L 804.202331 647.367434 
L 804.617406 647.438566 
L 805.032482 647.380814 
L 805.447558 647.438891 
L 805.862633 647.371344 
L 807.10786 647.429159 
L 807.522936 640.532367 
L 807.938011 647.429479 
L 808.353087 640.524833 
L 808.768163 647.411515 
L 810.843541 647.43769 
L 812.088768 647.369365 
L 812.503843 640.573194 
L 812.918919 647.407607 
L 813.333995 640.493614 
L 813.74907 647.426638 
L 814.994297 647.397135 
L 816.239524 647.401789 
L 817.069675 647.40428 
L 817.484751 640.510848 
L 817.899826 647.429845 
L 818.314902 640.534303 
L 818.729978 647.411416 
L 820.805356 647.408068 
L 822.050583 647.383768 
L 822.465658 640.499052 
L 822.880734 647.431525 
L 823.29581 640.493729 
L 823.710885 647.438285 
L 824.956112 647.406031 
L 827.03149 647.440879 
L 827.446566 640.556951 
L 827.861641 647.392739 
L 828.276717 640.495688 
L 828.691793 647.382526 
L 829.106868 647.438782 
L 829.93702 647.349638 
L 831.182246 647.419327 
L 832.012398 647.414035 
L 832.427473 640.488868 
L 832.842549 647.389502 
L 833.257625 640.482255 
L 833.6727 647.404739 
L 834.917927 647.379088 
L 836.993305 647.345618 
L 837.408381 640.5358 
L 837.823456 647.343012 
L 838.238532 640.537321 
L 838.653608 647.405778 
L 840.31391 647.436002 
L 841.144062 647.415286 
L 841.974213 647.391336 
L 842.389288 640.495204 
L 842.804364 647.420224 
L 843.21944 640.469169 
L 843.634515 647.438066 
L 846.95512 647.381477 
L 847.370196 640.547505 
L 847.785272 647.39259 
L 848.200347 640.502001 
L 848.615423 647.401061 
L 849.86065 647.426309 
L 851.105877 647.445455 
L 851.936028 647.407801 
L 852.351103 640.499651 
L 852.766179 647.424325 
L 853.181255 640.512783 
L 853.59633 647.427311 
L 855.256633 647.473932 
L 856.916935 647.397827 
L 857.332011 640.588147 
L 857.747087 647.413745 
L 858.162162 640.578378 
L 858.577238 647.496452 
L 859.407389 647.447374 
L 861.067692 647.475384 
L 861.897843 647.454406 
L 862.312918 640.562988 
L 862.727994 647.466193 
L 863.14307 640.584369 
L 863.558145 647.457735 
L 866.463675 647.501912 
L 866.87875 647.39164 
L 867.293826 640.578931 
L 867.708902 647.458106 
L 868.123977 640.508705 
L 868.539053 647.461528 
L 871.444582 647.437006 
L 871.859658 647.465815 
L 872.274733 640.542113 
L 872.689809 647.424067 
L 873.104885 640.602063 
L 873.51996 647.435755 
L 873.935036 647.506757 
L 874.350112 647.429587 
L 875.180263 647.454277 
L 876.840565 647.414786 
L 877.255641 640.592963 
L 877.670717 647.44533 
L 878.085792 640.566513 
L 878.500868 647.429919 
L 880.16117 647.455175 
L 881.821473 647.443236 
L 882.236548 640.620104 
L 882.651624 647.397361 
L 883.0667 640.599944 
L 883.481775 647.421235 
L 883.896851 647.502308 
L 884.311927 647.411337 
L 884.727002 647.491961 
L 885.142078 640.553196 
L 885.557153 647.46256 
L 886.80238 647.419825 
L 887.217456 640.57377 
L 887.632532 647.495689 
L 888.047607 640.499052 
L 888.462683 647.487445 
L 891.783288 647.430154 
L 892.198363 640.584207 
L 892.613439 647.455226 
L 893.028515 640.546168 
L 893.44359 647.453109 
L 893.858666 647.494641 
L 894.273742 647.42247 
L 895.103893 647.438036 
L 896.34912 647.409692 
L 896.764195 647.423841 
L 897.179271 640.495803 
L 897.594347 647.43264 
L 898.009422 640.504581 
L 898.424498 647.45677 
L 899.254649 647.42527 
L 900.499876 647.424461 
L 901.745103 647.403679 
L 902.160179 640.529165 
L 902.575254 647.386938 
L 902.99033 640.478707 
L 903.405405 647.428675 
L 905.065708 647.468672 
L 905.480784 647.400776 
L 906.310935 647.407268 
L 906.72601 647.422198 
L 907.141086 640.522138 
L 907.556162 647.408423 
L 907.971237 640.523197 
L 908.386313 647.466232 
L 910.046615 647.421297 
L 911.291842 647.436485 
L 911.706918 647.42021 
L 912.121994 640.532137 
L 912.537069 647.407128 
L 912.952145 640.525939 
L 913.36722 647.44795 
L 914.612447 647.407397 
L 915.027523 647.472089 
L 915.442599 647.398059 
L 916.27275 647.420081 
L 916.687825 647.423691 
L 917.102901 640.530294 
L 917.517977 647.457539 
L 917.933052 640.541606 
L 918.348128 647.433518 
L 919.593355 647.451079 
L 920.423506 647.437644 
L 921.668733 647.379118 
L 922.083809 640.562619 
L 922.498884 647.423336 
L 922.91396 640.50336 
L 923.329035 647.521786 
L 923.744111 647.399704 
L 924.989338 647.458836 
L 925.404414 647.393016 
L 926.234565 647.42985 
L 926.64964 647.412349 
L 927.064716 640.606994 
L 927.479792 647.408068 
L 927.894867 640.511309 
L 928.309943 647.419406 
L 929.55517 647.446929 
L 930.800397 647.4099 
L 931.215472 647.480091 
L 931.630548 647.392622 
L 932.045624 640.573102 
L 932.460699 647.404692 
L 932.875775 640.530109 
L 933.29085 647.442434 
L 936.611456 647.400041 
L 937.026531 640.541514 
L 937.441607 647.377478 
L 937.856682 640.523474 
L 938.271758 647.41125 
L 939.516985 647.433343 
L 939.932061 647.342222 
L 940.347136 647.490998 
L 941.177287 647.429039 
L 941.592363 647.412639 
L 942.007439 640.525064 
L 942.422514 647.443296 
L 942.83759 640.497715 
L 943.252666 647.453484 
L 944.497892 647.418498 
L 946.573271 647.401642 
L 946.988346 640.576904 
L 947.403422 647.440388 
L 947.818497 640.559094 
L 948.233573 647.387594 
L 948.648649 647.453996 
L 949.4788 647.433426 
L 950.308951 647.389534 
L 950.724027 617.059584 
L 951.139102 632.786481 
L 951.554178 328.211712 
L 951.969254 640.478339 
L 952.384329 647.227907 
L 952.799405 83.229696 
L 953.214481 502.319693 
L 953.629556 647.329347 
L 955.289859 647.300241 
L 955.704934 647.16841 
L 956.535086 647.179758 
L 957.780312 647.022915 
L 958.195388 647.170194 
L 958.610464 647.028684 
L 959.440615 647.213331 
L 959.855691 646.974123 
L 960.270766 647.025429 
L 961.100917 647.472672 
L 961.515993 647.416021 
L 962.346144 647.452441 
L 965.666749 647.454627 
L 966.496901 647.46556 
L 968.157203 647.460735 
L 968.987354 647.444766 
L 969.40243 641.666097 
L 969.817506 645.383532 
L 970.232581 647.447132 
L 971.062732 647.469718 
L 971.892884 647.481531 
L 973.138111 647.444284 
L 973.553186 622.754381 
L 973.968262 647.446897 
L 975.628564 647.413913 
L 976.04364 647.332255 
L 976.458716 647.436695 
L 976.873791 647.345807 
L 977.288867 647.380388 
L 978.119018 647.262861 
L 979.364245 647.217011 
L 979.779321 645.463158 
L 980.194396 647.141504 
L 981.439623 647.177836 
L 982.269774 647.076495 
L 983.099926 647.351848 
L 989.741136 647.108449 
L 990.156211 647.192356 
L 991.401438 647.073983 
L 993.061741 647.153994 
L 993.476816 647.024046 
L 993.891892 647.139928 
L 995.137119 647.038861 
L 995.552194 647.133714 
L 996.797421 647.077195 
L 997.212497 647.158639 
L 997.627573 647.074209 
L 999.287875 647.124123 
L 1000.118026 647.129192 
L 1000.948178 647.486312 
L 1002.60848 647.421256 
L 1003.853707 647.54813 
L 1004.268783 647.850614 
L 1006.759236 647.870495 
L 1007.174312 647.771843 
L 1008.419539 647.780447 
L 1009.24969 647.765686 
L 1013.815522 647.457549 
L 1015.475824 647.494592 
L 1021.286883 647.499636 
L 1022.947186 647.48051 
L 1031.663774 647.467794 
L 1032.078849 647.526864 
L 1032.493925 647.422834 
L 1033.324076 647.499044 
L 1034.984379 647.508912 
L 1036.229606 647.444665 
L 1037.059757 647.497039 
L 1037.474833 647.419733 
L 1038.304984 647.494012 
L 1039.550211 647.538818 
L 1039.965286 647.445404 
L 1041.210513 647.493532 
L 1042.870816 647.48157 
L 1044.116043 647.46979 
L 1045.36127 647.426216 
L 1045.776345 647.512925 
L 1047.436648 647.43337 
L 1048.266799 647.47531 
L 1049.512026 647.497355 
L 1050.342177 647.475257 
L 1051.587404 647.494779 
L 1052.417555 647.420127 
L 1053.247706 647.520342 
L 1054.077858 647.51228 
L 1055.73816 647.53806 
L 1056.153236 647.852972 
L 1056.983387 647.906319 
L 1057.398463 647.796643 
L 1057.813538 647.882351 
L 1058.228614 647.143792 
L 1058.64369 647.376736 
L 1059.473841 647.519874 
L 1059.888916 647.419136 
L 1060.719068 647.447425 
L 1064.454748 647.412703 
L 1065.699975 647.442867 
L 1066.530126 647.204901 
L 1066.945202 647.225499 
L 1067.775353 647.489696 
L 1068.605505 647.493493 
L 1069.02058 647.404596 
L 1070.265807 647.443222 
L 1071.511034 647.236913 
L 1071.92611 647.476165 
L 1072.341185 647.164839 
L 1073.171336 647.068804 
L 1074.831639 647.078771 
L 1075.66179 647.030825 
L 1076.076866 645.508132 
L 1076.491941 647.115803 
L 1077.322093 647.085245 
L 1077.737168 645.478295 
L 1078.152244 647.095864 
L 1080.227622 647.191685 
L 1080.642698 647.411892 
L 1082.303 647.397165 
L 1082.718076 646.714361 
L 1083.133152 647.405112 
L 1083.548227 647.32913 
L 1083.963303 647.430995 
L 1084.793454 647.282995 
L 1085.623605 647.219451 
L 1086.038681 646.531633 
L 1086.453757 646.254275 
L 1086.868832 647.172931 
L 1087.283908 647.080234 
L 1087.698983 645.65644 
L 1088.114059 647.337722 
L 1088.94421 647.463502 
L 1089.359286 647.326264 
L 1089.774362 647.427712 
L 1090.189437 647.210521 
L 1091.019588 647.204982 
L 1091.434664 645.601098 
L 1091.84974 647.444003 
L 1092.264815 647.451374 
L 1092.679891 646.019465 
L 1093.094967 647.47987 
L 1096.000496 647.498009 
L 1096.415572 646.893704 
L 1096.830647 647.502691 
L 1097.245723 647.460378 
L 1097.660798 646.938444 
L 1098.075874 647.482558 
L 1099.321101 647.477259 
L 1099.736177 647.524017 
L 1100.566328 647.499136 
L 1100.981403 647.494933 
L 1101.396479 646.546105 
L 1101.811555 647.452146 
L 1102.22663 647.466997 
L 1102.641706 646.373406 
L 1103.056782 647.476335 
L 1104.302008 647.485869 
L 1114.678899 647.510612 
L 1115.50905 647.50702 
L 1116.754277 647.478414 
L 1117.169353 645.886112 
L 1117.584428 647.497242 
L 1120.074882 647.506449 
L 1127.546243 647.492072 
L 1127.961319 647.570714 
L 1128.79147 647.524574 
L 1129.621622 647.510137 
L 1130.451773 647.501073 
L 1131.281924 647.510499 
L 1134.602529 647.502373 
L 1135.43268 647.366946 
L 1135.847756 647.62724 
L 1136.677907 647.492339 
L 1138.33821 647.478128 
L 1139.998512 647.497922 
L 1145.809571 647.473363 
L 1146.224647 647.543561 
L 1146.639722 647.465672 
L 1147.884949 647.541467 
L 1149.545252 647.475271 
L 1150.375403 647.510437 
L 1152.865857 647.517973 
L 1154.941235 647.520879 
L 1157.016613 647.468516 
L 1157.846764 647.497818 
L 1163.657823 647.5164 
L 1164.90305 647.497781 
L 1166.148277 647.52662 
L 1168.63873 647.494956 
L 1169.883957 647.531221 
L 1170.714109 647.51023 
L 1172.789487 647.528491 
L 1173.619638 647.514501 
L 1179.430697 647.490913 
L 1180.260848 647.527689 
L 1181.090999 647.529108 
L 1182.336226 647.520694 
L 1184.411604 647.51401 
L 1185.241756 647.439146 
L 1185.656831 647.214057 
L 1186.486982 647.24567 
L 1186.902058 645.741412 
L 1187.317134 647.506525 
L 1187.732209 647.447925 
L 1188.147285 647.530339 
L 1188.977436 647.469304 
L 1189.392512 647.51798 
L 1189.807587 644.284961 
L 1190.222663 647.471755 
L 1191.46789 647.398808 
L 1191.882966 646.612962 
L 1192.298041 647.482174 
L 1194.373419 647.491609 
L 1194.788495 646.883201 
L 1195.203571 647.451574 
L 1196.448797 647.46482 
L 1196.863873 646.791107 
L 1197.278949 647.50676 
L 1198.524176 647.482881 
L 1199.354327 647.490162 
L 1199.769402 646.748207 
L 1200.184478 647.49315 
L 1201.429705 647.460684 
L 1201.844781 646.558173 
L 1202.259856 647.4766 
L 1204.335234 647.476967 
L 1204.75031 645.878852 
L 1205.165386 647.447222 
L 1206.410612 647.47872 
L 1206.825688 646.157657 
L 1207.240764 647.475501 
L 1209.316142 647.524708 
L 1209.731217 646.845507 
L 1210.146293 647.456327 
L 1211.39152 647.480284 
L 1211.806596 646.356711 
L 1212.221671 647.49574 
L 1213.466898 647.456505 
L 1213.881974 647.515902 
L 1214.297049 647.459777 
L 1214.712125 646.091938 
L 1215.127201 647.474626 
L 1216.372427 647.493977 
L 1216.787503 646.121335 
L 1217.202579 647.465175 
L 1219.277957 647.459355 
L 1219.693032 645.921128 
L 1220.108108 647.455148 
L 1221.353335 647.471135 
L 1221.768411 646.627581 
L 1222.183486 647.505384 
L 1223.013637 647.487321 
L 1224.258864 647.459364 
L 1224.67394 646.92364 
L 1225.089016 647.474027 
L 1226.334242 647.446962 
L 1226.749318 646.39037 
L 1227.164394 647.455109 
L 1228.409621 647.470612 
L 1229.239772 647.503889 
L 1229.654848 645.908493 
L 1230.069923 647.462442 
L 1230.900074 647.506423 
L 1235.050831 647.528505 
L 1237.95636 647.481446 
L 1238.371436 647.545167 
L 1238.786511 647.478819 
L 1239.616663 647.530521 
L 1240.861889 647.525945 
L 1242.522192 647.511481 
L 1245.012646 647.516895 
L 1247.918175 647.493477 
L 1250.408629 647.507806 
L 1251.653856 647.433684 
L 1252.484007 647.489411 
L 1254.974461 647.518669 
L 1256.219688 647.479515 
L 1258.710141 647.532175 
L 1259.955368 647.506191 
L 1262.860898 647.491726 
L 1263.275973 645.908703 
L 1263.691049 647.48178 
L 1264.936276 647.526535 
L 1265.766427 647.528422 
L 1269.917183 647.493491 
L 1271.16241 647.581006 
L 1271.577486 647.459694 
L 1272.407637 647.50385 
L 1275.313166 647.50305 
L 1275.728242 647.579649 
L 1276.558393 647.477702 
L 1277.388544 647.478593 
L 1278.633771 647.522323 
L 1279.048847 647.475987 
L 1279.463923 647.566392 
L 1280.294074 647.498707 
L 1280.70915 647.543114 
L 1281.124225 647.464025 
L 1281.954376 647.49151 
L 1283.199603 647.534357 
L 1284.859906 647.514607 
L 1288.180511 647.521584 
L 1291.501116 647.48207 
L 1296.066948 647.531454 
L 1296.482023 647.445628 
L 1297.312175 647.491086 
L 1306.028763 647.504543 
L 1308.104141 647.47601 
L 1309.764443 647.501474 
L 1310.179519 647.456406 
L 1310.594595 647.553374 
L 1311.839821 647.517353 
L 1313.9152 647.522116 
L 1320.55641 647.533799 
L 1320.971485 647.411296 
L 1321.386561 647.566311 
L 1323.461939 647.505057 
L 1328.027771 647.535276 
L 1328.442847 647.465417 
L 1329.272998 647.51128 
L 1330.103149 647.526749 
L 1425.570543 647.505218 
L 1425.985619 647.445003 
L 1426.400694 647.542315 
L 1428.476072 647.527293 
L 1432.626829 647.520047 
L 1440.928341 647.518393 
L 1443.833871 647.503191 
L 1445.909249 647.483591 
L 1449.644929 647.502569 
L 1457.116291 647.51005 
L 1463.757501 647.496449 
L 1491.152492 647.477059 
L 1491.982643 647.507976 
L 1494.888173 647.514192 
L 1515.226878 647.523731 
L 1515.641954 647.430288 
L 1516.05703 647.528491 
L 1516.887181 647.51986 
L 1518.547483 647.486685 
L 1520.207786 647.499751 
L 1521.868088 647.490413 
L 1523.528391 647.530408 
L 1524.773618 647.490913 
L 1526.018845 647.4866 
L 1545.112323 647.501557 
L 1545.942475 647.501758 
L 1548.848004 647.51689 
L 1549.26308 647.462424 
L 1550.093231 647.500345 
L 1551.338458 647.478427 
L 1552.583685 647.51569 
L 1552.99876 647.46167 
L 1553.828911 647.490791 
L 1555.489214 647.45633 
L 1556.734441 647.476384 
L 1558.809819 647.513241 
L 1560.470122 647.416252 
L 1560.885197 647.529099 
L 1561.715348 647.467663 
L 1562.5455 647.534094 
L 1563.375651 647.500578 
L 1565.035953 647.477554 
L 1569.601785 647.506375 
L 1574.997768 647.503868 
L 1575.82792 647.488549 
L 1579.978676 647.498382 
L 1580.393752 647.448745 
L 1580.808827 647.515294 
L 1581.638978 647.491413 
L 1582.884205 647.512135 
L 1584.129432 647.471624 
L 1585.789735 647.496028 
L 1596.996777 647.473455 
L 1598.242003 647.51449 
L 1603.222911 647.491334 
L 1606.543516 647.477819 
L 1611.109348 647.506838 
L 1612.354575 647.465343 
L 1613.599802 647.482577 
L 1614.429953 647.471474 
L 1614.845029 647.513605 
L 1615.260104 647.413473 
L 1616.090255 647.462486 
L 1618.580709 647.527632 
L 1619.41086 647.463161 
L 1621.901314 647.548856 
L 1622.31639 647.458687 
L 1623.146541 647.514444 
L 1623.976692 647.494237 
L 1626.882222 647.475331 
L 1629.372675 647.512312 
L 1634.353583 647.478033 
L 1634.768659 647.517234 
L 1635.183734 647.429366 
L 1636.013885 647.464214 
L 1638.504339 647.504748 
L 1639.33449 647.486851 
L 1644.730474 647.501497 
L 1645.560625 647.500396 
L 1651.786759 647.464587 
L 1652.61691 647.468575 
L 1653.862137 647.469269 
L 1655.937515 647.500103 
L 1656.352591 647.461852 
L 1656.767667 647.536679 
L 1657.597818 647.472543 
L 1662.16365 647.52066 
L 1662.578726 647.452351 
L 1663.408877 647.504774 
L 1663.823952 647.356645 
L 1664.654104 647.490155 
L 1665.484255 647.447593 
L 1666.729482 647.489747 
L 1670.050087 647.432718 
L 1670.880238 647.464251 
L 1672.540541 647.461721 
L 1674.615919 647.496276 
L 1675.030994 647.317221 
L 1676.276221 647.461578 
L 1676.691297 647.522169 
L 1677.521448 647.482068 
L 1678.766675 647.47675 
L 1680.842053 647.482372 
L 1689.143566 647.476137 
L 1690.388792 647.489652 
L 1692.879246 647.420611 
L 1693.294322 647.526982 
L 1694.954624 647.449544 
L 1697.860154 647.496081 
L 1699.935532 647.434179 
L 1700.765683 647.485035 
L 1704.916439 647.496993 
L 1705.746591 647.508658 
L 1706.991818 647.520093 
L 1707.406893 647.455042 
L 1708.237044 647.486938 
L 1712.387801 647.503905 
L 1713.633028 647.448095 
L 1714.463179 647.496804 
L 1716.538557 647.459781 
L 1718.613935 647.501947 
L 1725.670221 647.477782 
L 1726.915448 647.527821 
L 1727.745599 647.506465 
L 1732.311431 647.487411 
L 1734.386809 647.517167 
L 1734.801884 647.424025 
L 1735.21696 647.507893 
L 1736.877263 647.492429 
L 1738.537565 647.452383 
L 1739.782792 647.465652 
L 1753.480288 647.489996 
L 1755.14059 647.488507 
L 1755.555666 647.5313 
L 1755.970741 647.450123 
L 1756.800893 647.471453 
L 1758.876271 647.539615 
L 1759.706422 647.45221 
L 1760.536573 647.493408 
L 1762.196876 647.44822 
L 1762.611951 647.514056 
L 1763.442103 647.492788 
L 1770.498388 647.487077 
L 1771.743615 647.511119 
L 1772.988842 647.438135 
L 1774.234069 647.469926 
L 1775.06422 647.4724 
L 1775.894371 647.494652 
L 1779.630052 647.432635 
L 1780.460203 647.468495 
L 1782.535581 647.500497 
L 1783.780808 647.49814 
L 1784.195884 645.127695 
L 1784.61096 646.720764 
L 1785.026035 647.491853 
L 1789.176791 647.463355 
L 1790.837094 647.46288 
L 1792.912472 647.482102 
L 1793.327548 647.268733 
L 1793.742623 647.490804 
L 1794.572775 647.432165 
L 1797.89338 647.486344 
L 1798.308455 646.910722 
L 1798.723531 647.463926 
L 1804.53459 647.430297 
L 1804.949665 646.794278 
L 1805.364741 647.484568 
L 1807.025043 647.447641 
L 1807.440119 647.504525 
L 1808.685346 647.442271 
L 1809.515497 647.394161 
L 1809.930573 646.957191 
L 1810.345648 647.488203 
L 1810.760724 647.429295 
L 1811.1758 647.499014 
L 1812.421027 647.457615 
L 1814.081329 647.457272 
L 1814.496405 647.423783 
L 1814.91148 646.926571 
L 1815.326556 647.464564 
L 1819.477312 647.435833 
L 1819.892388 646.989403 
L 1820.307463 647.492549 
L 1821.137615 647.470838 
L 1824.45822 647.38947 
L 1824.873295 646.960302 
L 1825.288371 647.456717 
L 1826.948673 647.442271 
L 1827.778825 647.466924 
L 1841.891396 647.467403 
L 1842.721547 647.463338 
L 1846.042152 647.475628 
L 1848.947682 647.4737 
L 1850.607984 647.472907 
L 1863.890404 647.468831 
L 1864.720555 647.494154 
L 1874.68237 647.444356 
L 1875.927597 647.4799 
L 1877.172824 647.465209 
L 1878.833127 647.47128 
L 1879.248202 647.41263 
L 1880.078354 647.450482 
L 1880.493429 647.50173 
L 1881.32358 647.476951 
L 1882.983883 647.451461 
L 1883.814034 647.441508 
L 1889.210017 647.400693 
L 1889.625093 647.495887 
L 1890.87032 647.450395 
L 1893.360774 647.474243 
L 1894.190925 647.454358 
L 1902.077362 647.449554 
L 1903.322589 647.49535 
L 1904.15274 647.436087 
L 1906.228118 647.488037 
L 1907.058269 647.477407 
L 1909.133647 647.385629 
L 1909.548723 647.489482 
L 1910.378874 647.473746 
L 1913.699479 647.464255 
L 1914.529631 647.433188 
L 1915.359782 647.469384 
L 1917.43516 647.464338 
L 1930.71758 647.447429 
L 1931.132656 647.330096 
L 1933.623109 647.413213 
L 1938.188941 647.482835 
L 1939.019092 647.444886 
L 1942.339697 647.477432 
L 1944 647.442238 
L 1944 647.442238 
" style="fill:none;stroke:#0000ff;stroke-linecap:square;"/>
   </g>
   <g id="line2d_2">
    <defs>
     <path d="M 0 3 
C 0.795609 3 1.55874 2.683901 2.12132 2.12132 
C 2.683901 1.55874 3 0.795609 3 0 
C 3 -0.795609 2.683901 -1.55874 2.12132 -2.12132 
C 1.55874 -2.683901 0.795609 -3 0 -3 
C -0.795609 -3 -1.55874 -2.683901 -2.12132 -2.12132 
C -2.683901 -1.55874 -3 -0.795609 -3 0 
C -3 0.795609 -2.683901 1.55874 -2.12132 2.12132 
C -1.55874 2.683901 -0.795609 3 0 3 
z
" id="m00bc2d69bb" style="stroke:#000000;stroke-width:0.5;"/>
    </defs>
    <g clip-path="url(#p85484d05dd)">
     <use style="fill:#ff0000;stroke:#000000;stroke-width:0.5;" x="950.724026784" xlink:href="#m00bc2d69bb" y="617.059584"/>
     <use style="fill:#ff0000;stroke:#000000;stroke-width:0.5;" x="951.139102414" xlink:href="#m00bc2d69bb" y="632.78648064"/>
     <use style="fill:#ff0000;stroke:#000000;stroke-width:0.5;" x="951.554178044" xlink:href="#m00bc2d69bb" y="328.211712"/>
     <use style="fill:#ff0000;stroke:#000000;stroke-width:0.5;" x="952.799404919" xlink:href="#m00bc2d69bb" y="83.229696"/>
     <use style="fill:#ff0000;stroke:#000000;stroke-width:0.5;" x="953.214480549" xlink:href="#m00bc2d69bb" y="502.3196928"/>
    </g>
   </g>
   <g id="patch_3">
    <path d="M 270 72 
L 1944 72 
" style="fill:none;stroke:#000000;stroke-linecap:square;stroke-linejoin:miter;"/>
   </g>
   <g id="patch_4">
    <path d="M 1944 648 
L 1944 72 
" style="fill:none;stroke:#000000;stroke-linecap:square;stroke-linejoin:miter;"/>
   </g>
   <g id="patch_5">
    <path d="M 270 648 
L 1944 648 
" style="fill:none;stroke:#000000;stroke-linecap:square;stroke-linejoin:miter;"/>
   </g>
   <g id="patch_6">
    <path d="M 270 648 
L 270 72 
" style="fill:none;stroke:#000000;stroke-linecap:square;stroke-linejoin:miter;"/>
   </g>
   <g id="matplotlib.axis_1">
    <g id="xtick_1">
     <g id="line2d_3">
      <defs>
       <path d="M 0 0 
L 0 -4 
" id="m13e83eead2" style="stroke:#000000;stroke-width:0.5;"/>
      </defs>
      <g>
       <use style="stroke:#000000;stroke-width:0.5;" x="389.209719807" xlink:href="#m13e83eead2" y="648.0"/>
      </g>
     </g>
     <g id="line2d_4">
      <defs>
       <path d="M 0 0 
L 0 4 
" id="mc5c204412c" style="stroke:#000000;stroke-width:0.5;"/>
      </defs>
      <g>
       <use style="stroke:#000000;stroke-width:0.5;" x="389.209719807" xlink:href="#mc5c204412c" y="72.0"/>
      </g>
     </g>
     <g id="text_1">
      <!-- Apr 11 2014 -->
      <defs>
       <path d="M 19.1875 8.296875 
L 53.609375 8.296875 
L 53.609375 0 
L 7.328125 0 
L 7.328125 8.296875 
Q 12.9375 14.109375 22.625 23.890625 
Q 32.328125 33.6875 34.8125 36.53125 
Q 39.546875 41.84375 41.421875 45.53125 
Q 43.3125 49.21875 43.3125 52.78125 
Q 43.3125 58.59375 39.234375 62.25 
Q 35.15625 65.921875 28.609375 65.921875 
Q 23.96875 65.921875 18.8125 64.3125 
Q 13.671875 62.703125 7.8125 59.421875 
L 7.8125 69.390625 
Q 13.765625 71.78125 18.9375 73 
Q 24.125 74.21875 28.421875 74.21875 
Q 39.75 74.21875 46.484375 68.546875 
Q 53.21875 62.890625 53.21875 53.421875 
Q 53.21875 48.921875 51.53125 44.890625 
Q 49.859375 40.875 45.40625 35.40625 
Q 44.1875 33.984375 37.640625 27.21875 
Q 31.109375 20.453125 19.1875 8.296875 
" id="BitstreamVeraSans-Roman-32"/>
       <path id="BitstreamVeraSans-Roman-20"/>
       <path d="M 31.78125 66.40625 
Q 24.171875 66.40625 20.328125 58.90625 
Q 16.5 51.421875 16.5 36.375 
Q 16.5 21.390625 20.328125 13.890625 
Q 24.171875 6.390625 31.78125 6.390625 
Q 39.453125 6.390625 43.28125 13.890625 
Q 47.125 21.390625 47.125 36.375 
Q 47.125 51.421875 43.28125 58.90625 
Q 39.453125 66.40625 31.78125 66.40625 
M 31.78125 74.21875 
Q 44.046875 74.21875 50.515625 64.515625 
Q 56.984375 54.828125 56.984375 36.375 
Q 56.984375 17.96875 50.515625 8.265625 
Q 44.046875 -1.421875 31.78125 -1.421875 
Q 19.53125 -1.421875 13.0625 8.265625 
Q 6.59375 17.96875 6.59375 36.375 
Q 6.59375 54.828125 13.0625 64.515625 
Q 19.53125 74.21875 31.78125 74.21875 
" id="BitstreamVeraSans-Roman-30"/>
       <path d="M 12.40625 8.296875 
L 28.515625 8.296875 
L 28.515625 63.921875 
L 10.984375 60.40625 
L 10.984375 69.390625 
L 28.421875 72.90625 
L 38.28125 72.90625 
L 38.28125 8.296875 
L 54.390625 8.296875 
L 54.390625 0 
L 12.40625 0 
z
" id="BitstreamVeraSans-Roman-31"/>
       <path d="M 37.796875 64.3125 
L 12.890625 25.390625 
L 37.796875 25.390625 
z
M 35.203125 72.90625 
L 47.609375 72.90625 
L 47.609375 25.390625 
L 58.015625 25.390625 
L 58.015625 17.1875 
L 47.609375 17.1875 
L 47.609375 0 
L 37.796875 0 
L 37.796875 17.1875 
L 4.890625 17.1875 
L 4.890625 26.703125 
z
" id="BitstreamVeraSans-Roman-34"/>
       <path d="M 34.1875 63.1875 
L 20.796875 26.90625 
L 47.609375 26.90625 
z
M 28.609375 72.90625 
L 39.796875 72.90625 
L 67.578125 0 
L 57.328125 0 
L 50.6875 18.703125 
L 17.828125 18.703125 
L 11.1875 0 
L 0.78125 0 
z
" id="BitstreamVeraSans-Roman-41"/>
       <path d="M 41.109375 46.296875 
Q 39.59375 47.171875 37.8125 47.578125 
Q 36.03125 48 33.890625 48 
Q 26.265625 48 22.1875 43.046875 
Q 18.109375 38.09375 18.109375 28.8125 
L 18.109375 0 
L 9.078125 0 
L 9.078125 54.6875 
L 18.109375 54.6875 
L 18.109375 46.1875 
Q 20.953125 51.171875 25.484375 53.578125 
Q 30.03125 56 36.53125 56 
Q 37.453125 56 38.578125 55.875 
Q 39.703125 55.765625 41.0625 55.515625 
z
" id="BitstreamVeraSans-Roman-72"/>
       <path d="M 18.109375 8.203125 
L 18.109375 -20.796875 
L 9.078125 -20.796875 
L 9.078125 54.6875 
L 18.109375 54.6875 
L 18.109375 46.390625 
Q 20.953125 51.265625 25.265625 53.625 
Q 29.59375 56 35.59375 56 
Q 45.5625 56 51.78125 48.09375 
Q 58.015625 40.1875 58.015625 27.296875 
Q 58.015625 14.40625 51.78125 6.484375 
Q 45.5625 -1.421875 35.59375 -1.421875 
Q 29.59375 -1.421875 25.265625 0.953125 
Q 20.953125 3.328125 18.109375 8.203125 
M 48.6875 27.296875 
Q 48.6875 37.203125 44.609375 42.84375 
Q 40.53125 48.484375 33.40625 48.484375 
Q 26.265625 48.484375 22.1875 42.84375 
Q 18.109375 37.203125 18.109375 27.296875 
Q 18.109375 17.390625 22.1875 11.75 
Q 26.265625 6.109375 33.40625 6.109375 
Q 40.53125 6.109375 44.609375 11.75 
Q 48.6875 17.390625 48.6875 27.296875 
" id="BitstreamVeraSans-Roman-70"/>
      </defs>
      <g transform="translate(352.110969807 661.118125)scale(0.12 -0.12)">
       <use xlink:href="#BitstreamVeraSans-Roman-41"/>
       <use x="68.408203125" xlink:href="#BitstreamVeraSans-Roman-70"/>
       <use x="131.884765625" xlink:href="#BitstreamVeraSans-Roman-72"/>
       <use x="172.998046875" xlink:href="#BitstreamVeraSans-Roman-20"/>
       <use x="204.78515625" xlink:href="#BitstreamVeraSans-Roman-31"/>
       <use x="268.408203125" xlink:href="#BitstreamVeraSans-Roman-31"/>
       <use x="332.03125" xlink:href="#BitstreamVeraSans-Roman-20"/>
       <use x="363.818359375" xlink:href="#BitstreamVeraSans-Roman-32"/>
       <use x="427.44140625" xlink:href="#BitstreamVeraSans-Roman-30"/>
       <use x="491.064453125" xlink:href="#BitstreamVeraSans-Roman-31"/>
       <use x="554.6875" xlink:href="#BitstreamVeraSans-Roman-34"/>
      </g>
     </g>
    </g>
    <g id="xtick_2">
     <g id="line2d_5">
      <g>
       <use style="stroke:#000000;stroke-width:0.5;" x="628.293280438" xlink:href="#m13e83eead2" y="648.0"/>
      </g>
     </g>
     <g id="line2d_6">
      <g>
       <use style="stroke:#000000;stroke-width:0.5;" x="628.293280438" xlink:href="#mc5c204412c" y="72.0"/>
      </g>
     </g>
     <g id="text_2">
      <!-- Apr 13 2014 -->
      <defs>
       <path d="M 40.578125 39.3125 
Q 47.65625 37.796875 51.625 33 
Q 55.609375 28.21875 55.609375 21.1875 
Q 55.609375 10.40625 48.1875 4.484375 
Q 40.765625 -1.421875 27.09375 -1.421875 
Q 22.515625 -1.421875 17.65625 -0.515625 
Q 12.796875 0.390625 7.625 2.203125 
L 7.625 11.71875 
Q 11.71875 9.328125 16.59375 8.109375 
Q 21.484375 6.890625 26.8125 6.890625 
Q 36.078125 6.890625 40.9375 10.546875 
Q 45.796875 14.203125 45.796875 21.1875 
Q 45.796875 27.640625 41.28125 31.265625 
Q 36.765625 34.90625 28.71875 34.90625 
L 20.21875 34.90625 
L 20.21875 43.015625 
L 29.109375 43.015625 
Q 36.375 43.015625 40.234375 45.921875 
Q 44.09375 48.828125 44.09375 54.296875 
Q 44.09375 59.90625 40.109375 62.90625 
Q 36.140625 65.921875 28.71875 65.921875 
Q 24.65625 65.921875 20.015625 65.03125 
Q 15.375 64.15625 9.8125 62.3125 
L 9.8125 71.09375 
Q 15.4375 72.65625 20.34375 73.4375 
Q 25.25 74.21875 29.59375 74.21875 
Q 40.828125 74.21875 47.359375 69.109375 
Q 53.90625 64.015625 53.90625 55.328125 
Q 53.90625 49.265625 50.4375 45.09375 
Q 46.96875 40.921875 40.578125 39.3125 
" id="BitstreamVeraSans-Roman-33"/>
      </defs>
      <g transform="translate(591.194530438 661.118125)scale(0.12 -0.12)">
       <use xlink:href="#BitstreamVeraSans-Roman-41"/>
       <use x="68.408203125" xlink:href="#BitstreamVeraSans-Roman-70"/>
       <use x="131.884765625" xlink:href="#BitstreamVeraSans-Roman-72"/>
       <use x="172.998046875" xlink:href="#BitstreamVeraSans-Roman-20"/>
       <use x="204.78515625" xlink:href="#BitstreamVeraSans-Roman-31"/>
       <use x="268.408203125" xlink:href="#BitstreamVeraSans-Roman-33"/>
       <use x="332.03125" xlink:href="#BitstreamVeraSans-Roman-20"/>
       <use x="363.818359375" xlink:href="#BitstreamVeraSans-Roman-32"/>
       <use x="427.44140625" xlink:href="#BitstreamVeraSans-Roman-30"/>
       <use x="491.064453125" xlink:href="#BitstreamVeraSans-Roman-31"/>
       <use x="554.6875" xlink:href="#BitstreamVeraSans-Roman-34"/>
      </g>
     </g>
    </g>
    <g id="xtick_3">
     <g id="line2d_7">
      <g>
       <use style="stroke:#000000;stroke-width:0.5;" x="867.376841068" xlink:href="#m13e83eead2" y="648.0"/>
      </g>
     </g>
     <g id="line2d_8">
      <g>
       <use style="stroke:#000000;stroke-width:0.5;" x="867.376841068" xlink:href="#mc5c204412c" y="72.0"/>
      </g>
     </g>
     <g id="text_3">
      <!-- Apr 15 2014 -->
      <defs>
       <path d="M 10.796875 72.90625 
L 49.515625 72.90625 
L 49.515625 64.59375 
L 19.828125 64.59375 
L 19.828125 46.734375 
Q 21.96875 47.46875 24.109375 47.828125 
Q 26.265625 48.1875 28.421875 48.1875 
Q 40.625 48.1875 47.75 41.5 
Q 54.890625 34.8125 54.890625 23.390625 
Q 54.890625 11.625 47.5625 5.09375 
Q 40.234375 -1.421875 26.90625 -1.421875 
Q 22.3125 -1.421875 17.546875 -0.640625 
Q 12.796875 0.140625 7.71875 1.703125 
L 7.71875 11.625 
Q 12.109375 9.234375 16.796875 8.0625 
Q 21.484375 6.890625 26.703125 6.890625 
Q 35.15625 6.890625 40.078125 11.328125 
Q 45.015625 15.765625 45.015625 23.390625 
Q 45.015625 31 40.078125 35.4375 
Q 35.15625 39.890625 26.703125 39.890625 
Q 22.75 39.890625 18.8125 39.015625 
Q 14.890625 38.140625 10.796875 36.28125 
z
" id="BitstreamVeraSans-Roman-35"/>
      </defs>
      <g transform="translate(830.278091068 661.118125)scale(0.12 -0.12)">
       <use xlink:href="#BitstreamVeraSans-Roman-41"/>
       <use x="68.408203125" xlink:href="#BitstreamVeraSans-Roman-70"/>
       <use x="131.884765625" xlink:href="#BitstreamVeraSans-Roman-72"/>
       <use x="172.998046875" xlink:href="#BitstreamVeraSans-Roman-20"/>
       <use x="204.78515625" xlink:href="#BitstreamVeraSans-Roman-31"/>
       <use x="268.408203125" xlink:href="#BitstreamVeraSans-Roman-35"/>
       <use x="332.03125" xlink:href="#BitstreamVeraSans-Roman-20"/>
       <use x="363.818359375" xlink:href="#BitstreamVeraSans-Roman-32"/>
       <use x="427.44140625" xlink:href="#BitstreamVeraSans-Roman-30"/>
       <use x="491.064453125" xlink:href="#BitstreamVeraSans-Roman-31"/>
       <use x="554.6875" xlink:href="#BitstreamVeraSans-Roman-34"/>
      </g>
     </g>
    </g>
    <g id="xtick_4">
     <g id="line2d_9">
      <g>
       <use style="stroke:#000000;stroke-width:0.5;" x="1106.46040168" xlink:href="#m13e83eead2" y="648.0"/>
      </g>
     </g>
     <g id="line2d_10">
      <g>
       <use style="stroke:#000000;stroke-width:0.5;" x="1106.46040168" xlink:href="#mc5c204412c" y="72.0"/>
      </g>
     </g>
     <g id="text_4">
      <!-- Apr 17 2014 -->
      <defs>
       <path d="M 8.203125 72.90625 
L 55.078125 72.90625 
L 55.078125 68.703125 
L 28.609375 0 
L 18.3125 0 
L 43.21875 64.59375 
L 8.203125 64.59375 
z
" id="BitstreamVeraSans-Roman-37"/>
      </defs>
      <g transform="translate(1069.36165168 661.118125)scale(0.12 -0.12)">
       <use xlink:href="#BitstreamVeraSans-Roman-41"/>
       <use x="68.408203125" xlink:href="#BitstreamVeraSans-Roman-70"/>
       <use x="131.884765625" xlink:href="#BitstreamVeraSans-Roman-72"/>
       <use x="172.998046875" xlink:href="#BitstreamVeraSans-Roman-20"/>
       <use x="204.78515625" xlink:href="#BitstreamVeraSans-Roman-31"/>
       <use x="268.408203125" xlink:href="#BitstreamVeraSans-Roman-37"/>
       <use x="332.03125" xlink:href="#BitstreamVeraSans-Roman-20"/>
       <use x="363.818359375" xlink:href="#BitstreamVeraSans-Roman-32"/>
       <use x="427.44140625" xlink:href="#BitstreamVeraSans-Roman-30"/>
       <use x="491.064453125" xlink:href="#BitstreamVeraSans-Roman-31"/>
       <use x="554.6875" xlink:href="#BitstreamVeraSans-Roman-34"/>
      </g>
     </g>
    </g>
    <g id="xtick_5">
     <g id="line2d_11">
      <g>
       <use style="stroke:#000000;stroke-width:0.5;" x="1345.54396231" xlink:href="#m13e83eead2" y="648.0"/>
      </g>
     </g>
     <g id="line2d_12">
      <g>
       <use style="stroke:#000000;stroke-width:0.5;" x="1345.54396231" xlink:href="#mc5c204412c" y="72.0"/>
      </g>
     </g>
     <g id="text_5">
      <!-- Apr 19 2014 -->
      <defs>
       <path d="M 10.984375 1.515625 
L 10.984375 10.5 
Q 14.703125 8.734375 18.5 7.8125 
Q 22.3125 6.890625 25.984375 6.890625 
Q 35.75 6.890625 40.890625 13.453125 
Q 46.046875 20.015625 46.78125 33.40625 
Q 43.953125 29.203125 39.59375 26.953125 
Q 35.25 24.703125 29.984375 24.703125 
Q 19.046875 24.703125 12.671875 31.3125 
Q 6.296875 37.9375 6.296875 49.421875 
Q 6.296875 60.640625 12.9375 67.421875 
Q 19.578125 74.21875 30.609375 74.21875 
Q 43.265625 74.21875 49.921875 64.515625 
Q 56.59375 54.828125 56.59375 36.375 
Q 56.59375 19.140625 48.40625 8.859375 
Q 40.234375 -1.421875 26.421875 -1.421875 
Q 22.703125 -1.421875 18.890625 -0.6875 
Q 15.09375 0.046875 10.984375 1.515625 
M 30.609375 32.421875 
Q 37.25 32.421875 41.125 36.953125 
Q 45.015625 41.5 45.015625 49.421875 
Q 45.015625 57.28125 41.125 61.84375 
Q 37.25 66.40625 30.609375 66.40625 
Q 23.96875 66.40625 20.09375 61.84375 
Q 16.21875 57.28125 16.21875 49.421875 
Q 16.21875 41.5 20.09375 36.953125 
Q 23.96875 32.421875 30.609375 32.421875 
" id="BitstreamVeraSans-Roman-39"/>
      </defs>
      <g transform="translate(1308.44521231 661.118125)scale(0.12 -0.12)">
       <use xlink:href="#BitstreamVeraSans-Roman-41"/>
       <use x="68.408203125" xlink:href="#BitstreamVeraSans-Roman-70"/>
       <use x="131.884765625" xlink:href="#BitstreamVeraSans-Roman-72"/>
       <use x="172.998046875" xlink:href="#BitstreamVeraSans-Roman-20"/>
       <use x="204.78515625" xlink:href="#BitstreamVeraSans-Roman-31"/>
       <use x="268.408203125" xlink:href="#BitstreamVeraSans-Roman-39"/>
       <use x="332.03125" xlink:href="#BitstreamVeraSans-Roman-20"/>
       <use x="363.818359375" xlink:href="#BitstreamVeraSans-Roman-32"/>
       <use x="427.44140625" xlink:href="#BitstreamVeraSans-Roman-30"/>
       <use x="491.064453125" xlink:href="#BitstreamVeraSans-Roman-31"/>
       <use x="554.6875" xlink:href="#BitstreamVeraSans-Roman-34"/>
      </g>
     </g>
    </g>
    <g id="xtick_6">
     <g id="line2d_13">
      <g>
       <use style="stroke:#000000;stroke-width:0.5;" x="1584.62752293" xlink:href="#m13e83eead2" y="648.0"/>
      </g>
     </g>
     <g id="line2d_14">
      <g>
       <use style="stroke:#000000;stroke-width:0.5;" x="1584.62752293" xlink:href="#mc5c204412c" y="72.0"/>
      </g>
     </g>
     <g id="text_6">
      <!-- Apr 21 2014 -->
      <g transform="translate(1547.52877293 661.118125)scale(0.12 -0.12)">
       <use xlink:href="#BitstreamVeraSans-Roman-41"/>
       <use x="68.408203125" xlink:href="#BitstreamVeraSans-Roman-70"/>
       <use x="131.884765625" xlink:href="#BitstreamVeraSans-Roman-72"/>
       <use x="172.998046875" xlink:href="#BitstreamVeraSans-Roman-20"/>
       <use x="204.78515625" xlink:href="#BitstreamVeraSans-Roman-32"/>
       <use x="268.408203125" xlink:href="#BitstreamVeraSans-Roman-31"/>
       <use x="332.03125" xlink:href="#BitstreamVeraSans-Roman-20"/>
       <use x="363.818359375" xlink:href="#BitstreamVeraSans-Roman-32"/>
       <use x="427.44140625" xlink:href="#BitstreamVeraSans-Roman-30"/>
       <use x="491.064453125" xlink:href="#BitstreamVeraSans-Roman-31"/>
       <use x="554.6875" xlink:href="#BitstreamVeraSans-Roman-34"/>
      </g>
     </g>
    </g>
    <g id="xtick_7">
     <g id="line2d_15">
      <g>
       <use style="stroke:#000000;stroke-width:0.5;" x="1823.71108356" xlink:href="#m13e83eead2" y="648.0"/>
      </g>
     </g>
     <g id="line2d_16">
      <g>
       <use style="stroke:#000000;stroke-width:0.5;" x="1823.71108356" xlink:href="#mc5c204412c" y="72.0"/>
      </g>
     </g>
     <g id="text_7">
      <!-- Apr 23 2014 -->
      <g transform="translate(1786.61233356 661.118125)scale(0.12 -0.12)">
       <use xlink:href="#BitstreamVeraSans-Roman-41"/>
       <use x="68.408203125" xlink:href="#BitstreamVeraSans-Roman-70"/>
       <use x="131.884765625" xlink:href="#BitstreamVeraSans-Roman-72"/>
       <use x="172.998046875" xlink:href="#BitstreamVeraSans-Roman-20"/>
       <use x="204.78515625" xlink:href="#BitstreamVeraSans-Roman-32"/>
       <use x="268.408203125" xlink:href="#BitstreamVeraSans-Roman-33"/>
       <use x="332.03125" xlink:href="#BitstreamVeraSans-Roman-20"/>
       <use x="363.818359375" xlink:href="#BitstreamVeraSans-Roman-32"/>
       <use x="427.44140625" xlink:href="#BitstreamVeraSans-Roman-30"/>
       <use x="491.064453125" xlink:href="#BitstreamVeraSans-Roman-31"/>
       <use x="554.6875" xlink:href="#BitstreamVeraSans-Roman-34"/>
      </g>
     </g>
    </g>
   </g>
   <g id="matplotlib.axis_2">
    <g id="ytick_1">
     <g id="line2d_17">
      <defs>
       <path d="M 0 0 
L 4 0 
" id="mda93ace529" style="stroke:#000000;stroke-width:0.5;"/>
      </defs>
      <g>
       <use style="stroke:#000000;stroke-width:0.5;" x="270.0" xlink:href="#mda93ace529" y="648.0"/>
      </g>
     </g>
     <g id="line2d_18">
      <defs>
       <path d="M 0 0 
L -4 0 
" id="m8d81b9e8ff" style="stroke:#000000;stroke-width:0.5;"/>
      </defs>
      <g>
       <use style="stroke:#000000;stroke-width:0.5;" x="1944.0" xlink:href="#m8d81b9e8ff" y="648.0"/>
      </g>
     </g>
     <g id="text_8">
      <!-- 0.0 -->
      <defs>
       <path d="M 10.6875 12.40625 
L 21 12.40625 
L 21 0 
L 10.6875 0 
z
" id="BitstreamVeraSans-Roman-2e"/>
      </defs>
      <g transform="translate(246.91625 651.31125)scale(0.12 -0.12)">
       <use xlink:href="#BitstreamVeraSans-Roman-30"/>
       <use x="63.623046875" xlink:href="#BitstreamVeraSans-Roman-2e"/>
       <use x="95.41015625" xlink:href="#BitstreamVeraSans-Roman-30"/>
      </g>
     </g>
    </g>
    <g id="ytick_2">
     <g id="line2d_19">
      <g>
       <use style="stroke:#000000;stroke-width:0.5;" x="270.0" xlink:href="#mda93ace529" y="532.8"/>
      </g>
     </g>
     <g id="line2d_20">
      <g>
       <use style="stroke:#000000;stroke-width:0.5;" x="1944.0" xlink:href="#m8d81b9e8ff" y="532.8"/>
      </g>
     </g>
     <g id="text_9">
      <!-- 0.5 -->
      <g transform="translate(246.91625 536.11125)scale(0.12 -0.12)">
       <use xlink:href="#BitstreamVeraSans-Roman-30"/>
       <use x="63.623046875" xlink:href="#BitstreamVeraSans-Roman-2e"/>
       <use x="95.41015625" xlink:href="#BitstreamVeraSans-Roman-35"/>
      </g>
     </g>
    </g>
    <g id="ytick_3">
     <g id="line2d_21">
      <g>
       <use style="stroke:#000000;stroke-width:0.5;" x="270.0" xlink:href="#mda93ace529" y="417.6"/>
      </g>
     </g>
     <g id="line2d_22">
      <g>
       <use style="stroke:#000000;stroke-width:0.5;" x="1944.0" xlink:href="#m8d81b9e8ff" y="417.6"/>
      </g>
     </g>
     <g id="text_10">
      <!-- 1.0 -->
      <g transform="translate(246.91625 420.91125)scale(0.12 -0.12)">
       <use xlink:href="#BitstreamVeraSans-Roman-31"/>
       <use x="63.623046875" xlink:href="#BitstreamVeraSans-Roman-2e"/>
       <use x="95.41015625" xlink:href="#BitstreamVeraSans-Roman-30"/>
      </g>
     </g>
    </g>
    <g id="ytick_4">
     <g id="line2d_23">
      <g>
       <use style="stroke:#000000;stroke-width:0.5;" x="270.0" xlink:href="#mda93ace529" y="302.4"/>
      </g>
     </g>
     <g id="line2d_24">
      <g>
       <use style="stroke:#000000;stroke-width:0.5;" x="1944.0" xlink:href="#m8d81b9e8ff" y="302.4"/>
      </g>
     </g>
     <g id="text_11">
      <!-- 1.5 -->
      <g transform="translate(246.91625 305.71125)scale(0.12 -0.12)">
       <use xlink:href="#BitstreamVeraSans-Roman-31"/>
       <use x="63.623046875" xlink:href="#BitstreamVeraSans-Roman-2e"/>
       <use x="95.41015625" xlink:href="#BitstreamVeraSans-Roman-35"/>
      </g>
     </g>
    </g>
    <g id="ytick_5">
     <g id="line2d_25">
      <g>
       <use style="stroke:#000000;stroke-width:0.5;" x="270.0" xlink:href="#mda93ace529" y="187.2"/>
      </g>
     </g>
     <g id="line2d_26">
      <g>
       <use style="stroke:#000000;stroke-width:0.5;" x="1944.0" xlink:href="#m8d81b9e8ff" y="187.2"/>
      </g>
     </g>
     <g id="text_12">
      <!-- 2.0 -->
      <g transform="translate(246.91625 190.51125)scale(0.12 -0.12)">
       <use xlink:href="#BitstreamVeraSans-Roman-32"/>
       <use x="63.623046875" xlink:href="#BitstreamVeraSans-Roman-2e"/>
       <use x="95.41015625" xlink:href="#BitstreamVeraSans-Roman-30"/>
      </g>
     </g>
    </g>
    <g id="ytick_6">
     <g id="line2d_27">
      <g>
       <use style="stroke:#000000;stroke-width:0.5;" x="270.0" xlink:href="#mda93ace529" y="72.0"/>
      </g>
     </g>
     <g id="line2d_28">
      <g>
       <use style="stroke:#000000;stroke-width:0.5;" x="1944.0" xlink:href="#m8d81b9e8ff" y="72.0"/>
      </g>
     </g>
     <g id="text_13">
      <!-- 2.5 -->
      <g transform="translate(246.91625 75.31125)scale(0.12 -0.12)">
       <use xlink:href="#BitstreamVeraSans-Roman-32"/>
       <use x="63.623046875" xlink:href="#BitstreamVeraSans-Roman-2e"/>
       <use x="95.41015625" xlink:href="#BitstreamVeraSans-Roman-35"/>
      </g>
     </g>
    </g>
    <g id="text_14">
     <!-- 1e8 -->
     <defs>
      <path d="M 56.203125 29.59375 
L 56.203125 25.203125 
L 14.890625 25.203125 
Q 15.484375 15.921875 20.484375 11.0625 
Q 25.484375 6.203125 34.421875 6.203125 
Q 39.59375 6.203125 44.453125 7.46875 
Q 49.3125 8.734375 54.109375 11.28125 
L 54.109375 2.78125 
Q 49.265625 0.734375 44.1875 -0.34375 
Q 39.109375 -1.421875 33.890625 -1.421875 
Q 20.796875 -1.421875 13.15625 6.1875 
Q 5.515625 13.8125 5.515625 26.8125 
Q 5.515625 40.234375 12.765625 48.109375 
Q 20.015625 56 32.328125 56 
Q 43.359375 56 49.78125 48.890625 
Q 56.203125 41.796875 56.203125 29.59375 
M 47.21875 32.234375 
Q 47.125 39.59375 43.09375 43.984375 
Q 39.0625 48.390625 32.421875 48.390625 
Q 24.90625 48.390625 20.390625 44.140625 
Q 15.875 39.890625 15.1875 32.171875 
z
" id="BitstreamVeraSans-Roman-65"/>
      <path d="M 31.78125 34.625 
Q 24.75 34.625 20.71875 30.859375 
Q 16.703125 27.09375 16.703125 20.515625 
Q 16.703125 13.921875 20.71875 10.15625 
Q 24.75 6.390625 31.78125 6.390625 
Q 38.8125 6.390625 42.859375 10.171875 
Q 46.921875 13.96875 46.921875 20.515625 
Q 46.921875 27.09375 42.890625 30.859375 
Q 38.875 34.625 31.78125 34.625 
M 21.921875 38.8125 
Q 15.578125 40.375 12.03125 44.71875 
Q 8.5 49.078125 8.5 55.328125 
Q 8.5 64.0625 14.71875 69.140625 
Q 20.953125 74.21875 31.78125 74.21875 
Q 42.671875 74.21875 48.875 69.140625 
Q 55.078125 64.0625 55.078125 55.328125 
Q 55.078125 49.078125 51.53125 44.71875 
Q 48 40.375 41.703125 38.8125 
Q 48.828125 37.15625 52.796875 32.3125 
Q 56.78125 27.484375 56.78125 20.515625 
Q 56.78125 9.90625 50.3125 4.234375 
Q 43.84375 -1.421875 31.78125 -1.421875 
Q 19.734375 -1.421875 13.25 4.234375 
Q 6.78125 9.90625 6.78125 20.515625 
Q 6.78125 27.484375 10.78125 32.3125 
Q 14.796875 37.15625 21.921875 38.8125 
M 18.3125 54.390625 
Q 18.3125 48.734375 21.84375 45.5625 
Q 25.390625 42.390625 31.78125 42.390625 
Q 38.140625 42.390625 41.71875 45.5625 
Q 45.3125 48.734375 45.3125 54.390625 
Q 45.3125 60.0625 41.71875 63.234375 
Q 38.140625 66.40625 31.78125 66.40625 
Q 25.390625 66.40625 21.84375 63.234375 
Q 18.3125 60.0625 18.3125 54.390625 
" id="BitstreamVeraSans-Roman-38"/>
     </defs>
     <g transform="translate(270.0 69.0)scale(0.12 -0.12)">
      <use xlink:href="#BitstreamVeraSans-Roman-31"/>
      <use x="63.623046875" xlink:href="#BitstreamVeraSans-Roman-65"/>
      <use x="125.146484375" xlink:href="#BitstreamVeraSans-Roman-38"/>
     </g>
    </g>
   </g>
  </g>
 </g>
 <defs>
  <clipPath id="p85484d05dd">
   <rect height="576.0" width="1674.0" x="270.0" y="72.0"/>
  </clipPath>
 </defs>
</svg>
