<?xml version="1.0" encoding="utf-8" standalone="no"?>
<!DOCTYPE svg PUBLIC "-//W3C//DTD SVG 1.1//EN"
  "http://www.w3.org/Graphics/SVG/1.1/DTD/svg11.dtd">
<!-- Created with matplotlib (http://matplotlib.org/) -->
<svg height="720pt" version="1.1" viewBox="0 0 2160 720" width="2160pt" xmlns="http://www.w3.org/2000/svg" xmlns:xlink="http://www.w3.org/1999/xlink">
 <defs>
  <style type="text/css">
*{stroke-linecap:butt;stroke-linejoin:round;stroke-miterlimit:100000;}
  </style>
 </defs>
 <g id="figure_1">
  <g id="patch_1">
   <path d="M 0 720 
L 2160 720 
L 2160 0 
L 0 0 
z
" style="fill:#ffffff;"/>
  </g>
  <g id="axes_1">
   <g id="patch_2">
    <path d="M 270 648 
L 1944 648 
L 1944 72 
L 270 72 
z
" style="fill:#ffffff;"/>
   </g>
   <g id="line2d_1">
    <path clip-path="url(#p22854f59fa)" d="M 270 628.216757 
L 271.017011 631.787913 
L 272.034022 635.214378 
L 273.051033 632.554221 
L 274.068044 638.206773 
L 275.085055 637.372677 
L 276.102066 635.825547 
L 278.136087 634.650149 
L 279.153098 634.569126 
L 280.170109 634.638312 
L 281.18712 630.735682 
L 282.204131 625.541997 
L 283.221142 626.23275 
L 284.238153 627.644439 
L 285.255164 630.09938 
L 286.272175 630.129481 
L 287.289186 624.635625 
L 288.306197 629.737065 
L 289.323208 632.953721 
L 290.340219 631.319749 
L 291.35723 630.908069 
L 292.374241 630.178698 
L 293.391252 635.62965 
L 294.408262 630.639352 
L 295.425273 629.272937 
L 296.442284 632.700055 
L 298.476306 634.047896 
L 299.493317 634.116226 
L 300.510328 634.627063 
L 301.527339 634.133185 
L 302.54435 634.481885 
L 303.561361 635.117609 
L 304.578372 634.465542 
L 305.595383 631.933865 
L 306.612394 626.866133 
L 307.629405 623.660896 
L 308.646416 626.157313 
L 309.663426 626.184352 
L 310.680437 631.143867 
L 311.697448 629.666974 
L 312.714459 629.954044 
L 313.73147 630.458317 
L 314.748481 628.636688 
L 315.765492 629.123489 
L 316.782503 630.275789 
L 317.799514 636.757485 
L 318.816525 629.198409 
L 319.833536 626.632685 
L 320.850547 631.947526 
L 321.867558 630.107134 
L 322.884569 629.474726 
L 323.90158 629.12656 
L 324.918591 629.003244 
L 325.935601 629.151415 
L 326.952612 628.867083 
L 328.986634 631.063918 
L 330.003645 627.701869 
L 331.020656 618.219148 
L 332.037667 618.112825 
L 333.054678 621.217781 
L 334.071689 627.012601 
L 335.0887 630.779524 
L 336.105711 626.800161 
L 337.122722 627.698126 
L 338.139733 626.740305 
L 339.156744 628.475225 
L 340.173755 629.964582 
L 341.190765 630.312943 
L 342.207776 634.826883 
L 343.224787 628.740743 
L 344.241798 626.984822 
L 345.258809 627.473985 
L 346.27582 627.307637 
L 347.292831 630.795943 
L 348.309842 632.999868 
L 349.326853 632.335351 
L 350.343864 631.944187 
L 351.360875 631.727579 
L 353.394897 631.828964 
L 354.411908 627.547882 
L 355.428919 623.972842 
L 356.44593 619.670467 
L 357.46294 623.365357 
L 358.479951 629.317016 
L 359.496962 626.748325 
L 360.513973 628.406908 
L 361.530984 628.923639 
L 362.547995 628.697958 
L 363.565006 631.660335 
L 364.582017 633.591865 
L 365.599028 633.098867 
L 366.616039 637.121864 
L 367.63305 633.011185 
L 368.650061 632.325057 
L 369.667072 634.233532 
L 370.684083 633.72619 
L 371.701094 634.47365 
L 372.718104 635.520223 
L 373.735115 611.721753 
L 374.752126 634.835737 
L 375.769137 634.940599 
L 376.786148 633.075957 
L 377.803159 632.470618 
L 378.82017 627.579417 
L 379.837181 623.616359 
L 380.854192 622.543381 
L 381.871203 626.564854 
L 382.888214 631.043081 
L 383.905225 629.960534 
L 384.922236 629.099355 
L 385.939247 632.716625 
L 386.956258 633.920921 
L 387.973269 634.185809 
L 388.990279 635.295262 
L 390.00729 635.641869 
L 391.024301 636.982564 
L 393.058323 633.012748 
L 394.075334 635.41396 
L 395.092345 635.363752 
L 396.109356 635.856714 
L 397.126367 636.861699 
L 398.143378 635.803269 
L 399.160389 635.053337 
L 400.1774 634.87673 
L 401.194411 632.939112 
L 402.211422 632.241487 
L 403.228433 628.187184 
L 404.245443 625.169305 
L 405.262454 623.004911 
L 406.279465 626.916211 
L 407.296476 631.31978 
L 408.313487 625.501633 
L 409.330498 627.360172 
L 410.347509 627.420416 
L 411.36452 628.463609 
L 412.381531 629.19379 
L 413.398542 629.615482 
L 414.415553 627.708176 
L 415.432564 633.051893 
L 416.449575 626.721016 
L 417.466586 623.093382 
L 418.483597 627.831898 
L 419.500608 626.081933 
L 420.517618 628.31266 
L 421.534629 628.484378 
L 422.55164 629.365372 
L 423.568651 628.181263 
L 424.585662 629.306902 
L 425.602673 629.509806 
L 426.619684 630.783439 
L 427.636695 628.213868 
L 428.653706 624.675108 
L 429.670717 624.685795 
L 430.687728 627.600439 
L 431.704739 631.276176 
L 432.72175 626.100282 
L 433.738761 629.722798 
L 434.755772 631.320305 
L 435.772783 633.150125 
L 436.789793 632.460607 
L 437.806804 632.105931 
L 438.823815 634.685036 
L 439.840826 636.035268 
L 440.857837 632.710495 
L 441.874848 632.940451 
L 442.891859 633.446657 
L 443.90887 633.236394 
L 444.925881 634.00591 
L 445.942892 634.115556 
L 446.959903 634.492762 
L 447.976914 633.517024 
L 448.993925 632.336552 
L 450.010936 633.071048 
L 451.027947 632.522241 
L 452.044957 629.566816 
L 453.061968 625.506332 
L 454.078979 623.533873 
L 455.09599 627.38449 
L 456.113001 630.746061 
L 457.130012 626.507051 
L 458.147023 626.340753 
L 459.164034 627.724461 
L 460.181045 628.875306 
L 461.198056 628.045717 
L 462.215067 627.899186 
L 463.232078 628.547902 
L 464.249089 634.552245 
L 465.2661 630.93392 
L 466.283111 630.248301 
L 467.300122 626.612844 
L 468.317132 631.412808 
L 469.334143 634.603216 
L 470.351154 630.477161 
L 471.368165 635.58826 
L 472.385176 639.539952 
L 473.402187 637.19773 
L 474.419198 637.709213 
L 475.436209 637.534327 
L 476.45322 632.76317 
L 477.470231 628.776738 
L 478.487242 626.797874 
L 479.504253 627.444595 
L 480.521264 630.590332 
L 481.538275 635.633175 
L 482.555286 637.346227 
L 483.572296 634.312239 
L 484.589307 631.680871 
L 485.606318 636.614892 
L 486.623329 632.891831 
L 487.64034 630.582445 
L 488.657351 638.314049 
L 489.674362 629.599421 
L 490.691373 623.986674 
L 491.708384 630.827774 
L 492.725395 631.391264 
L 493.742406 630.949184 
L 494.759417 632.522882 
L 495.776428 632.753849 
L 496.793439 634.2345 
L 497.81045 636.145022 
L 498.827461 637.512082 
L 499.844471 636.934423 
L 500.861482 633.334606 
L 501.878493 628.895013 
L 502.895504 625.033342 
L 503.912515 627.877648 
L 504.929526 629.171715 
L 505.946537 634.196175 
L 506.963548 636.945047 
L 507.980559 636.016664 
L 508.99757 633.036226 
L 510.014581 634.447047 
L 511.031592 630.688209 
L 512.048603 633.35591 
L 513.065614 638.492159 
L 514.082625 565.23626 
L 515.099635 616.323432 
L 517.133657 629.973496 
L 518.150668 632.744711 
L 519.167679 634.782836 
L 520.18469 637.172935 
L 521.201701 637.953021 
L 522.218712 640.446068 
L 523.235723 640.570131 
L 524.252734 639.952306 
L 526.286756 626.751726 
L 527.303767 628.306488 
L 528.320778 630.735215 
L 529.337789 630.369504 
L 530.3548 635.161642 
L 531.37181 630.595465 
L 532.388821 629.939198 
L 533.405832 629.535603 
L 534.422843 632.142821 
L 535.439854 630.577169 
L 536.456865 629.87617 
L 537.473876 637.369472 
L 539.507898 622.689916 
L 540.524909 628.743705 
L 541.54192 631.36258 
L 542.558931 632.583762 
L 543.575942 632.179485 
L 544.592953 635.132611 
L 545.609964 635.494382 
L 546.626974 636.46782 
L 547.643985 637.794643 
L 548.660996 637.458692 
L 549.678007 634.074199 
L 550.695018 628.839853 
L 551.712029 627.578288 
L 552.72904 629.901226 
L 553.746051 631.478559 
L 554.763062 635.452728 
L 555.780073 637.522519 
L 556.797084 632.21695 
L 558.831106 634.880022 
L 559.848117 638.880244 
L 560.865128 637.421808 
L 561.882139 639.086299 
L 562.899149 641.357864 
L 563.91616 640.604041 
L 564.933171 640.359753 
L 565.950182 640.319541 
L 566.967193 639.953118 
L 567.984204 641.548065 
L 569.001215 641.559873 
L 570.018226 641.071325 
L 571.035237 640.434368 
L 572.052248 639.461254 
L 573.069259 637.30587 
L 575.103281 629.37637 
L 576.120292 629.230945 
L 577.137303 630.656164 
L 578.154313 633.102663 
L 579.171324 636.398798 
L 581.205346 638.895133 
L 582.222357 638.970273 
L 584.256379 639.957451 
L 586.290401 640.297842 
L 587.307412 637.175339 
L 588.324423 639.46959 
L 589.341434 638.104822 
L 590.358445 638.527691 
L 591.375456 640.064589 
L 592.392467 641.179898 
L 593.409478 641.575167 
L 594.426488 641.307106 
L 595.443499 640.363332 
L 596.46051 639.628288 
L 597.477521 638.242992 
L 598.494532 633.755385 
L 599.511543 630.852275 
L 600.528554 629.832996 
L 601.545565 630.691307 
L 602.562576 632.711252 
L 603.579587 635.795391 
L 604.596598 636.505399 
L 605.613609 636.973553 
L 606.63062 635.425649 
L 607.647631 637.068897 
L 608.664642 638.375052 
L 609.681652 637.234568 
L 610.698663 638.235502 
L 611.715674 633.634008 
L 612.732685 636.54022 
L 613.749696 617.710073 
L 614.766707 639.103303 
L 615.783718 641.792268 
L 616.800729 641.292277 
L 617.81774 640.998131 
L 618.834751 639.258104 
L 619.851762 639.767678 
L 621.885784 637.967196 
L 622.902795 636.141822 
L 624.936817 633.56026 
L 626.970838 635.734732 
L 627.987849 635.633734 
L 629.00486 636.520643 
L 630.021871 634.840324 
L 631.038882 633.876673 
L 632.055893 633.081026 
L 633.072904 637.095843 
L 634.089915 635.476192 
L 635.106926 635.824021 
L 636.123937 633.132975 
L 637.140948 631.749546 
L 638.157959 631.782698 
L 639.17497 633.020911 
L 640.191981 637.460858 
L 641.208991 637.368111 
L 642.226002 635.016733 
L 643.243013 634.622957 
L 644.260024 633.650077 
L 645.277035 378.731375 
L 646.294046 639.737798 
L 647.311057 627.075441 
L 648.328068 626.586786 
L 649.345079 625.64674 
L 650.36209 313.511346 
L 651.379101 632.930265 
L 652.396112 625.964499 
L 653.413123 629.738022 
L 654.430134 628.751087 
L 655.447145 625.062097 
L 656.464156 626.124251 
L 657.481166 629.280199 
L 658.498177 629.003019 
L 660.532199 630.807421 
L 661.54921 629.682106 
L 662.566221 630.610334 
L 663.583232 632.567557 
L 664.600243 635.727128 
L 665.617254 636.815956 
L 666.634265 638.405591 
L 668.668287 637.306416 
L 669.685298 633.249753 
L 670.702309 629.861986 
L 671.71932 629.985141 
L 673.753341 624.922025 
L 674.770352 625.295811 
L 675.787363 627.713103 
L 676.804374 618.590361 
L 677.821385 634.022419 
L 678.838396 631.054669 
L 679.855407 631.706622 
L 680.872418 633.795197 
L 681.889429 633.966817 
L 682.90644 634.328314 
L 683.923451 634.928447 
L 684.940462 635.388692 
L 685.957473 635.61593 
L 686.974484 635.382566 
L 687.991495 635.695986 
L 689.008505 636.494191 
L 690.025516 637.508006 
L 691.042527 639.788007 
L 692.059538 639.805185 
L 693.076549 639.685216 
L 694.09356 635.711486 
L 695.110571 634.041185 
L 696.127582 631.218535 
L 697.144593 629.004722 
L 698.161604 629.031225 
L 700.195626 630.289492 
L 701.212637 630.756465 
L 702.229648 632.698561 
L 703.246659 631.268806 
L 705.28068 632.99276 
L 706.297691 636.119344 
L 707.314702 634.818782 
L 708.331713 636.369322 
L 709.348724 636.246653 
L 710.365735 636.989378 
L 711.382746 638.525495 
L 712.399757 638.51559 
L 713.416768 639.588448 
L 714.433779 641.304773 
L 715.45079 640.259904 
L 716.467801 639.81678 
L 717.484812 638.472891 
L 718.501823 633.730325 
L 719.518834 631.675873 
L 720.535844 628.79175 
L 721.552855 628.214299 
L 722.569866 626.902 
L 723.586877 629.146399 
L 724.603888 630.869262 
L 725.620899 600.231746 
L 726.63791 634.640616 
L 727.654921 633.795722 
L 728.671932 637.169074 
L 729.688943 635.396162 
L 730.705954 637.390503 
L 731.722965 637.130951 
L 732.739976 636.196173 
L 733.756987 637.492698 
L 734.773998 635.229349 
L 735.791009 638.683352 
L 737.82503 640.001374 
L 738.842041 641.334546 
L 739.859052 641.064869 
L 741.893074 639.12649 
L 742.910085 636.113796 
L 743.927096 633.486983 
L 744.944107 631.791444 
L 745.961118 630.476362 
L 746.978129 631.315622 
L 747.99514 632.369066 
L 749.012151 631.637989 
L 750.029162 632.238038 
L 751.046173 632.660787 
L 752.063183 632.36475 
L 753.080194 629.755948 
L 754.097205 633.921394 
L 755.114216 639.345173 
L 756.131227 636.269201 
L 757.148238 636.771897 
L 758.165249 638.283997 
L 759.18226 637.788258 
L 760.199271 639.187771 
L 761.216282 639.413571 
L 762.233293 639.941428 
L 763.250304 641.271105 
L 764.267315 641.320838 
L 766.301337 640.856516 
L 767.318348 639.527558 
L 768.335358 637.227368 
L 769.352369 634.405302 
L 770.36938 633.097045 
L 771.386391 632.492831 
L 772.403402 633.433584 
L 774.437424 634.412884 
L 775.454435 636.070753 
L 776.471446 635.734593 
L 777.488457 636.69424 
L 778.505468 636.79885 
L 779.522479 638.647678 
L 780.53949 637.142197 
L 781.556501 636.583665 
L 782.573512 637.391973 
L 783.590522 638.444684 
L 784.607533 638.896417 
L 785.624544 640.033917 
L 786.641555 640.064189 
L 787.658566 640.996022 
L 789.692588 641.109841 
L 790.709599 640.08603 
L 791.72661 638.726236 
L 793.760632 633.774678 
L 794.777643 339.917591 
L 795.794654 638.421877 
L 796.811665 628.791764 
L 797.828676 631.459901 
L 798.845687 310.325384 
L 799.862697 640.439097 
L 800.879708 635.251572 
L 801.896719 635.472973 
L 802.91373 636.179146 
L 803.930741 636.463499 
L 804.947752 635.788445 
L 805.964763 635.632609 
L 806.981774 634.324892 
L 807.998785 633.505737 
L 809.015796 637.670053 
L 810.032807 640.149882 
L 811.049818 638.267491 
L 812.066829 639.402691 
L 813.08384 639.968423 
L 814.100851 639.735081 
L 815.117861 634.486947 
L 816.134872 638.702686 
L 817.151883 634.246816 
L 818.168894 636.63349 
L 819.185905 632.402535 
L 820.202916 626.776146 
L 821.219927 627.844276 
L 822.236938 628.415315 
L 823.253949 631.028449 
L 824.27096 633.013934 
L 825.287971 632.792081 
L 826.304982 631.503662 
L 828.339004 634.607877 
L 829.356015 635.808809 
L 830.373026 630.839728 
L 831.390036 636.897597 
L 832.407047 635.148188 
L 833.424058 635.827604 
L 834.441069 636.24655 
L 835.45808 638.104118 
L 836.475091 637.177879 
L 837.492102 637.522179 
L 838.509113 636.010338 
L 839.526124 634.778005 
L 841.560146 631.330963 
L 842.577157 628.657274 
L 843.594168 628.616485 
L 844.611179 626.150201 
L 845.62819 625.404748 
L 846.6452 625.576974 
L 847.662211 628.979748 
L 848.679222 629.050722 
L 849.696233 630.356666 
L 850.713244 628.515756 
L 851.730255 625.867223 
L 852.747266 637.367228 
L 853.764277 633.095726 
L 854.781288 634.512928 
L 855.798299 634.563298 
L 856.81531 634.816086 
L 857.832321 632.640052 
L 858.849332 634.817746 
L 859.866343 637.28267 
L 860.883354 639.339275 
L 861.900365 640.243831 
L 862.917375 639.201882 
L 863.934386 638.741943 
L 864.951397 634.456579 
L 865.968408 633.068448 
L 868.00243 629.368964 
L 869.019441 628.245714 
L 870.036452 630.305438 
L 871.053463 631.667632 
L 872.070474 633.514796 
L 873.087485 634.06185 
L 874.104496 633.501492 
L 875.121507 634.152861 
L 876.138518 634.600937 
L 877.155529 634.133894 
L 878.172539 633.430579 
L 879.18955 634.12172 
L 880.206561 634.148343 
L 881.223572 635.116611 
L 882.240583 637.70563 
L 883.257594 638.745058 
L 884.274605 639.479109 
L 885.291616 640.422252 
L 887.325638 639.653369 
L 888.342649 638.396503 
L 889.35966 635.440038 
L 890.376671 633.91421 
L 891.393682 631.748382 
L 892.410693 623.166323 
L 893.427704 629.923953 
L 894.444714 633.698069 
L 895.461725 628.82223 
L 896.478736 630.747013 
L 897.495747 632.391465 
L 898.512758 632.758765 
L 901.563791 636.035637 
L 902.580802 636.546631 
L 903.597813 637.25784 
L 904.614824 637.741875 
L 905.631835 638.748294 
L 906.648846 637.924914 
L 907.665857 638.416457 
L 908.682868 640.541132 
L 909.699878 641.565986 
L 910.716889 641.470728 
L 911.7339 640.727586 
L 912.750911 640.601524 
L 913.767922 636.928468 
L 914.784933 636.401587 
L 916.818955 634.221543 
L 917.835966 633.402165 
L 918.852977 633.270354 
L 919.869988 634.441095 
L 920.886999 634.322723 
L 921.90401 636.128589 
L 922.921021 635.439057 
L 923.938032 636.006866 
L 924.955043 637.665234 
L 925.972053 638.244585 
L 926.989064 637.317674 
L 928.006075 634.452628 
L 929.023086 633.847125 
L 930.040097 633.844168 
L 931.057108 635.664682 
L 932.074119 636.57781 
L 933.09113 638.955869 
L 934.108141 639.662083 
L 935.125152 639.4841 
L 936.142163 638.367479 
L 937.159174 638.059611 
L 938.176185 634.858001 
L 939.193196 633.181658 
L 940.210207 632.220559 
L 941.227217 630.575472 
L 942.244228 630.348936 
L 943.261239 629.034185 
L 944.27825 628.690893 
L 945.295261 627.266389 
L 946.312272 627.263595 
L 947.329283 632.326816 
L 948.346294 633.487416 
L 949.363305 634.068662 
L 950.380316 635.129558 
L 951.397327 634.978124 
L 952.414338 635.222464 
L 953.431349 635.291566 
L 954.44836 635.679423 
L 955.465371 636.488399 
L 956.482382 635.850565 
L 957.499392 637.195739 
L 958.516403 638.241278 
L 961.567436 638.300562 
L 962.584447 631.592915 
L 963.601458 630.577163 
L 964.618469 630.36051 
L 965.63548 630.288174 
L 966.652491 628.432786 
L 967.669502 628.837982 
L 968.686513 628.051957 
L 969.703524 629.390651 
L 970.720535 629.827063 
L 971.737546 626.792674 
L 972.754556 627.651405 
L 973.771567 626.866822 
L 974.788578 630.579896 
L 975.805589 626.150528 
L 976.8226 625.487297 
L 977.839611 625.561143 
L 978.856622 625.922304 
L 979.873633 630.322469 
L 980.890644 629.287162 
L 981.907655 630.519004 
L 982.924666 632.687464 
L 983.941677 633.278813 
L 984.958688 634.529278 
L 985.975699 634.334304 
L 986.99271 630.421691 
L 988.009721 631.191922 
L 989.026731 621.416938 
L 990.043742 625.493573 
L 991.060753 630.98289 
L 992.077764 626.975983 
L 993.094775 627.931175 
L 994.111786 629.729488 
L 996.145808 631.743614 
L 997.162819 631.984919 
L 998.17983 633.090226 
L 999.196841 635.589972 
L 1000.213852 635.829174 
L 1001.230863 635.776732 
L 1002.247874 635.56267 
L 1003.264885 635.088215 
L 1004.281896 623.863691 
L 1005.298906 637.237997 
L 1006.315917 638.126118 
L 1007.332928 638.453768 
L 1008.349939 633.138171 
L 1009.36695 638.119919 
L 1010.383961 638.681205 
L 1011.400972 633.525048 
L 1012.417983 638.245279 
L 1013.434994 638.484866 
L 1014.452005 632.457285 
L 1015.469016 630.854119 
L 1016.486027 630.320966 
L 1017.503038 630.250232 
L 1018.520049 630.865069 
L 1019.53706 633.031092 
L 1020.55407 634.337457 
L 1021.571081 634.323434 
L 1022.588092 635.056437 
L 1023.605103 636.793458 
L 1024.622114 637.134258 
L 1025.639125 637.613697 
L 1026.656136 636.82302 
L 1027.673147 639.216435 
L 1028.690158 624.001578 
L 1029.707169 622.830786 
L 1030.72418 621.882455 
L 1031.741191 620.217845 
L 1032.758202 622.911562 
L 1033.775213 620.986306 
L 1034.792224 639.62915 
L 1035.809235 636.804181 
L 1036.826245 634.462783 
L 1037.843256 633.108525 
L 1038.860267 630.699629 
L 1040.894289 638.065583 
L 1041.9113 631.385623 
L 1042.928311 634.037149 
L 1043.945322 631.884751 
L 1044.962333 621.322398 
L 1045.979344 619.968613 
L 1048.013366 640.838333 
L 1049.030377 624.778469 
L 1050.047388 628.331021 
L 1052.081409 623.474795 
L 1053.09842 630.603406 
L 1055.132442 628.200157 
L 1056.149453 630.097559 
L 1057.166464 629.836338 
L 1058.183475 629.694419 
L 1059.200486 620.968831 
L 1060.217497 624.530147 
L 1061.234508 629.197296 
L 1062.251519 622.520468 
L 1063.26853 606.502774 
L 1064.285541 623.265627 
L 1065.302552 633.411436 
L 1066.319563 628.543892 
L 1067.336574 630.44949 
L 1068.353584 633.72332 
L 1069.370595 598.253754 
L 1070.387606 623.723205 
L 1071.404617 632.220862 
L 1072.421628 630.23016 
L 1073.438639 627.512945 
L 1074.45565 580.1503 
L 1075.472661 598.914995 
L 1076.489672 627.78816 
L 1077.506683 614.84987 
L 1078.523694 614.683937 
L 1079.540705 621.048062 
L 1080.557716 625.66472 
L 1081.574727 631.248642 
L 1082.591738 630.352342 
L 1083.608748 629.815178 
L 1084.625759 620.25944 
L 1085.64277 638.74581 
L 1086.659781 627.369387 
L 1087.676792 631.183883 
L 1088.693803 636.387211 
L 1089.710814 631.990354 
L 1090.727825 633.973145 
L 1091.744836 634.966813 
L 1092.761847 634.262124 
L 1093.778858 625.416506 
L 1094.795869 626.964532 
L 1095.81288 635.329102 
L 1096.829891 633.197125 
L 1097.846902 625.191137 
L 1098.863913 625.711219 
L 1099.880923 620.383647 
L 1100.897934 619.365765 
L 1101.914945 629.716893 
L 1102.931956 626.746648 
L 1103.948967 626.203312 
L 1104.965978 624.537719 
L 1107 628.689736 
L 1108.017011 626.976958 
L 1109.034022 632.079281 
L 1110.051033 634.400736 
L 1111.068044 631.52651 
L 1112.085055 629.951149 
L 1113.102066 629.312822 
L 1114.119077 604.398232 
L 1115.136087 637.862304 
L 1116.153098 633.231123 
L 1117.170109 635.473949 
L 1118.18712 626.751788 
L 1119.204131 624.380451 
L 1120.221142 634.180379 
L 1121.238153 631.634595 
L 1122.255164 626.054695 
L 1123.272175 626.163585 
L 1124.289186 626.587347 
L 1125.306197 624.273945 
L 1126.323208 631.530067 
L 1127.340219 627.942785 
L 1129.374241 626.995381 
L 1130.391252 629.123205 
L 1131.408262 628.452399 
L 1132.425273 630.077414 
L 1133.442284 633.166816 
L 1134.459295 634.514382 
L 1135.476306 633.459534 
L 1136.493317 633.181421 
L 1138.527339 631.987763 
L 1140.561361 634.124472 
L 1141.578372 632.102949 
L 1142.595383 628.587167 
L 1143.612394 627.94857 
L 1144.629405 636.096389 
L 1145.646416 634.285224 
L 1146.663426 628.331062 
L 1147.680437 629.353236 
L 1148.697448 629.300783 
L 1149.714459 633.8126 
L 1150.73147 633.710273 
L 1152.765492 632.339729 
L 1153.782503 642.878656 
L 1154.799514 643.43584 
L 1155.816525 643.634945 
L 1156.833536 641.394069 
L 1157.850547 636.479029 
L 1158.867558 633.571457 
L 1159.884569 629.929332 
L 1160.90158 631.009924 
L 1161.918591 629.75101 
L 1163.952612 634.306824 
L 1164.969623 627.195528 
L 1165.986634 639.849361 
L 1167.003645 637.168657 
L 1168.020656 640.622284 
L 1170.054678 641.228624 
L 1171.071689 642.279822 
L 1172.0887 642.588608 
L 1174.122722 642.679547 
L 1175.139733 637.365811 
L 1176.156744 641.798133 
L 1177.173755 643.645134 
L 1178.190765 643.066214 
L 1179.207776 643.774612 
L 1180.224787 642.39385 
L 1181.241798 641.896529 
L 1182.258809 639.539687 
L 1183.27582 632.4933 
L 1184.292831 639.859032 
L 1185.309842 632.252922 
L 1186.326853 630.352931 
L 1187.343864 631.510734 
L 1188.360875 634.184451 
L 1189.377886 637.719464 
L 1190.394897 632.303621 
L 1191.411908 629.302257 
L 1192.428919 630.561817 
L 1193.44593 636.054825 
L 1194.46294 631.974368 
L 1195.479951 628.3804 
L 1196.496962 629.442616 
L 1197.513973 624.080951 
L 1198.530984 599.196299 
L 1199.547995 631.440591 
L 1200.565006 629.440087 
L 1201.582017 629.752118 
L 1202.599028 628.940054 
L 1203.616039 629.153032 
L 1204.63305 629.715911 
L 1205.650061 631.798815 
L 1206.667072 634.838169 
L 1207.684083 633.633709 
L 1208.701094 631.628182 
L 1209.718104 630.337769 
L 1210.735115 630.921824 
L 1211.752126 630.681511 
L 1212.769137 633.136601 
L 1213.786148 633.863263 
L 1214.803159 635.556557 
L 1215.82017 633.857195 
L 1216.837181 629.254066 
L 1217.854192 636.03063 
L 1218.871203 638.494145 
L 1219.888214 637.003026 
L 1220.905225 633.486142 
L 1221.922236 630.57324 
L 1222.939247 629.900323 
L 1223.956258 632.357118 
L 1224.973269 631.677719 
L 1225.990279 634.099068 
L 1227.00729 630.142232 
L 1228.024301 625.231207 
L 1229.041312 628.367904 
L 1230.058323 628.759465 
L 1231.075334 626.388174 
L 1232.092345 639.443566 
L 1233.109356 635.562993 
L 1235.143378 633.709118 
L 1236.160389 634.229779 
L 1237.1774 636.104721 
L 1238.194411 636.475499 
L 1239.211422 637.021076 
L 1240.228433 634.850913 
L 1241.245443 638.996285 
L 1242.262454 638.556909 
L 1243.279465 639.724348 
L 1244.296476 640.419939 
L 1245.313487 640.742043 
L 1246.330498 640.6857 
L 1247.347509 636.917077 
L 1248.36452 634.758378 
L 1249.381531 634.775692 
L 1250.398542 634.306958 
L 1251.415553 630.296157 
L 1252.432564 636.480159 
L 1253.449575 630.484703 
L 1254.466586 637.359844 
L 1255.483597 638.427186 
L 1256.500608 637.161173 
L 1257.517618 635.398319 
L 1258.534629 634.765932 
L 1259.55164 633.718248 
L 1260.568651 635.248705 
L 1261.585662 635.782637 
L 1262.602673 636.879596 
L 1263.619684 636.434341 
L 1264.636695 638.152819 
L 1265.653706 638.186645 
L 1266.670717 638.377864 
L 1267.687728 639.204329 
L 1268.704739 639.535857 
L 1269.72175 639.734541 
L 1270.738761 638.983718 
L 1271.755772 637.753674 
L 1272.772783 628.918275 
L 1273.789793 633.367448 
L 1274.806804 634.273766 
L 1275.823815 632.974952 
L 1276.840826 633.419513 
L 1277.857837 634.948729 
L 1278.874848 638.251686 
L 1279.891859 637.552441 
L 1281.925881 634.249899 
L 1282.942892 634.505685 
L 1283.959903 632.506608 
L 1284.976914 633.772376 
L 1285.993925 634.104408 
L 1287.010936 635.513578 
L 1288.027947 635.285986 
L 1289.044957 636.260153 
L 1290.061968 634.626336 
L 1292.09599 639.658572 
L 1293.113001 638.413324 
L 1294.130012 638.738142 
L 1295.147023 638.704387 
L 1296.164034 639.339578 
L 1297.181045 638.562899 
L 1298.198056 640.48664 
L 1299.215067 640.815949 
L 1300.232078 641.336409 
L 1301.249089 640.627861 
L 1302.2661 641.053674 
L 1303.283111 639.345716 
L 1304.300122 622.90773 
L 1305.317132 640.771501 
L 1306.334143 628.028749 
L 1307.351154 630.717114 
L 1308.368165 627.647583 
L 1309.385176 630.772241 
L 1310.402187 631.136864 
L 1311.419198 634.440846 
L 1312.436209 633.936813 
L 1313.45322 634.019973 
L 1314.470231 628.829272 
L 1315.487242 628.860736 
L 1316.504253 629.616435 
L 1317.521264 627.058891 
L 1318.538275 626.357584 
L 1319.555286 627.978543 
L 1320.572296 631.399576 
L 1321.589307 638.191711 
L 1322.606318 640.878616 
L 1323.623329 640.36025 
L 1324.64034 641.060246 
L 1325.657351 639.658198 
L 1326.674362 636.825521 
L 1327.691373 632.469104 
L 1328.708384 631.98402 
L 1329.725395 632.031919 
L 1330.742406 627.22868 
L 1331.759417 627.112747 
L 1332.776428 628.133176 
L 1333.793439 620.044986 
L 1334.81045 625.495254 
L 1336.844471 630.090808 
L 1337.861482 628.732488 
L 1338.878493 628.826229 
L 1339.895504 628.75141 
L 1340.912515 628.063001 
L 1341.929526 628.360585 
L 1342.946537 629.087533 
L 1343.963548 628.889532 
L 1344.980559 628.248773 
L 1345.99757 638.815303 
L 1347.014581 640.579143 
L 1348.031592 640.832013 
L 1349.048603 640.272219 
L 1350.065614 640.526205 
L 1351.082625 639.033134 
L 1352.099635 639.181469 
L 1353.116646 635.635351 
L 1354.133657 633.193415 
L 1355.150668 631.847661 
L 1356.167679 629.205355 
L 1357.18469 629.716114 
L 1358.201701 630.593962 
L 1359.218712 632.19444 
L 1360.235723 621.059256 
L 1361.252734 636.860379 
L 1362.269745 634.939532 
L 1363.286756 636.389977 
L 1364.303767 635.613503 
L 1365.320778 632.631329 
L 1366.337789 632.1469 
L 1367.3548 630.380174 
L 1368.37181 629.288557 
L 1369.388821 629.065575 
L 1370.405832 638.905748 
L 1371.422843 640.392925 
L 1372.439854 640.653786 
L 1373.456865 640.593402 
L 1374.473876 639.980552 
L 1375.490887 638.927698 
L 1376.507898 638.631507 
L 1377.524909 630.727953 
L 1378.54192 633.261331 
L 1380.575942 633.330709 
L 1381.592953 630.98138 
L 1382.609964 631.339978 
L 1383.626974 631.348413 
L 1384.643985 632.966222 
L 1385.660996 634.122565 
L 1386.678007 635.806203 
L 1387.695018 638.065186 
L 1388.712029 635.754145 
L 1389.72904 626.751768 
L 1390.746051 631.960446 
L 1391.763062 632.188073 
L 1392.780073 630.472108 
L 1393.797084 629.858128 
L 1394.814095 639.818049 
L 1395.831106 640.657063 
L 1396.848117 640.9473 
L 1397.865128 639.766559 
L 1398.882139 640.05517 
L 1399.899149 637.866388 
L 1400.91616 637.051204 
L 1401.933171 634.913154 
L 1402.950182 633.415921 
L 1403.967193 632.637261 
L 1404.984204 631.154583 
L 1406.001215 632.317639 
L 1407.018226 631.112364 
L 1408.035237 632.373177 
L 1409.052248 631.982277 
L 1410.069259 634.96462 
L 1411.08627 635.101793 
L 1412.103281 635.864055 
L 1413.120292 633.870245 
L 1414.137303 635.475574 
L 1415.154313 632.692007 
L 1416.171324 634.2722 
L 1417.188335 632.679686 
L 1418.205346 628.281412 
L 1419.222357 638.092034 
L 1420.239368 639.804913 
L 1421.256379 636.903552 
L 1422.27339 638.913984 
L 1423.290401 638.726243 
L 1424.307412 638.951571 
L 1425.324423 635.793854 
L 1426.341434 634.191529 
L 1427.358445 633.194164 
L 1428.375456 633.631012 
L 1429.392467 633.311832 
L 1430.409478 630.944804 
L 1431.426488 631.938486 
L 1432.443499 632.121914 
L 1433.46051 633.471398 
L 1434.477521 633.986891 
L 1435.494532 628.878941 
L 1436.511543 634.480604 
L 1437.528554 633.581225 
L 1438.545565 635.302194 
L 1440.579587 635.74496 
L 1441.596598 634.308828 
L 1442.613609 628.943506 
L 1443.63062 637.915897 
L 1444.647631 638.287776 
L 1445.664642 636.632704 
L 1446.681652 639.146704 
L 1447.698663 639.353097 
L 1448.715674 640.859382 
L 1449.732685 636.848791 
L 1450.749696 633.887965 
L 1451.766707 632 
L 1452.783718 630.650983 
L 1453.800729 629.502875 
L 1454.81774 630.50158 
L 1455.834751 627.284798 
L 1456.851762 626.912714 
L 1457.868773 628.159485 
L 1458.885784 632.104852 
L 1459.902795 633.01883 
L 1460.919806 633.525797 
L 1461.936817 628.741139 
L 1462.953827 634.109178 
L 1463.970838 634.293004 
L 1464.987849 635.078694 
L 1466.00486 634.388362 
L 1467.021871 635.626679 
L 1468.038882 614.836788 
L 1469.055893 637.786255 
L 1470.072904 637.3162 
L 1471.089915 638.441663 
L 1472.106926 638.168643 
L 1474.140948 635.632951 
L 1475.157959 633.666952 
L 1476.17497 627.242359 
L 1477.191981 636.635735 
L 1478.208991 632.382556 
L 1479.226002 631.633914 
L 1480.243013 631.246977 
L 1481.260024 631.288793 
L 1482.277035 631.63312 
L 1483.294046 633.106207 
L 1484.311057 633.64461 
L 1485.328068 633.775023 
L 1487.36209 631.608507 
L 1488.379101 630.923587 
L 1489.396112 630.532264 
L 1490.413123 628.171448 
L 1491.430134 627.700349 
L 1492.447145 636.06401 
L 1493.464156 636.568383 
L 1494.481166 639.667432 
L 1496.515188 637.428753 
L 1497.532199 630.846934 
L 1498.54921 612.614733 
L 1500.583232 635.070796 
L 1501.600243 626.755767 
L 1502.617254 625.301226 
L 1503.634265 629.297134 
L 1505.668287 623.763343 
L 1506.685298 624.905371 
L 1507.702309 627.792489 
L 1508.71932 626.641203 
L 1509.73633 630.391967 
L 1510.753341 628.100546 
L 1511.770352 627.109802 
L 1512.787363 627.077744 
L 1513.804374 626.515837 
L 1514.821385 623.593985 
L 1515.838396 622.513114 
L 1516.855407 636.159973 
L 1517.872418 636.700082 
L 1518.889429 639.762267 
L 1519.90644 640.266181 
L 1520.923451 639.629112 
L 1522.957473 629.682673 
L 1523.974484 593.881569 
L 1524.991495 629.344565 
L 1526.008505 634.722143 
L 1527.025516 623.811952 
L 1528.042527 623.231814 
L 1530.076549 620.95907 
L 1531.09356 622.099978 
L 1532.110571 625.64345 
L 1533.127582 627.065737 
L 1534.144593 624.725148 
L 1535.161604 629.198651 
L 1537.195626 629.466607 
L 1538.212637 627.644839 
L 1539.229648 625.260174 
L 1540.246659 611.912916 
L 1541.26367 639.637347 
L 1542.28068 641.195275 
L 1543.297691 641.106101 
L 1544.314702 638.845218 
L 1545.331713 633.847954 
L 1546.348724 630.027142 
L 1547.365735 628.607671 
L 1548.382746 629.791716 
L 1549.399757 629.3153 
L 1550.416768 625.821838 
L 1551.433779 628.168694 
L 1552.45079 628.74286 
L 1553.467801 628.74286 
L 1554.484812 636.788312 
L 1555.501823 628.72181 
L 1556.518834 629.496259 
L 1557.535844 630.735962 
L 1559.569866 630.276253 
L 1560.586877 630.687326 
L 1561.603888 630.573537 
L 1562.620899 632.150837 
L 1563.63791 630.927896 
L 1564.654921 631.460007 
L 1565.671932 633.602014 
L 1567.705954 629.753164 
L 1568.722965 630.64179 
L 1569.739976 628.958566 
L 1570.756987 630.077143 
L 1571.773998 195.925033 
L 1572.791009 640.937963 
L 1573.808019 629.504413 
L 1574.82503 627.791442 
L 1576.859052 629.540761 
L 1577.876063 629.216985 
L 1578.893074 628.354818 
L 1579.910085 627.748686 
L 1580.927096 633.071677 
L 1581.944107 636.691025 
L 1582.961118 635.616246 
L 1583.978129 632.513046 
L 1584.99514 635.973522 
L 1586.012151 638.266815 
L 1587.029162 637.202518 
L 1588.046173 637.873987 
L 1589.063183 542.366248 
L 1590.080194 639.100543 
L 1591.097205 640.098317 
L 1593.131227 639.884844 
L 1594.148238 638.918499 
L 1595.165249 636.224021 
L 1596.18226 635.437392 
L 1597.199271 632.156562 
L 1598.216282 630.52534 
L 1600.250304 627.926856 
L 1601.267315 628.572189 
L 1602.284326 625.090999 
L 1603.301337 629.949692 
L 1604.318348 632.636736 
L 1605.335358 633.729795 
L 1606.352369 634.262438 
L 1607.36938 635.324771 
L 1608.386391 633.140841 
L 1609.403402 635.352657 
L 1610.420413 636.222986 
L 1611.437424 634.554326 
L 1612.454435 626.6963 
L 1613.471446 632.65267 
L 1614.488457 640.603735 
L 1615.505468 639.379855 
L 1616.522479 639.273186 
L 1617.53949 639.687583 
L 1618.556501 638.864904 
L 1619.573512 636.726165 
L 1620.590522 630.019785 
L 1621.607533 638.61628 
L 1622.624544 631.743974 
L 1623.641555 629.658632 
L 1624.658566 630.37903 
L 1625.675577 625.488561 
L 1626.692588 629.875762 
L 1627.709599 632.51569 
L 1628.72661 633.478141 
L 1629.743621 608.132076 
L 1630.760632 639.856858 
L 1631.777643 634.71235 
L 1632.794654 634.92054 
L 1633.811665 634.485698 
L 1634.828676 635.725849 
L 1635.845687 633.517795 
L 1636.862697 630.050059 
L 1637.879708 635.813948 
L 1638.896719 638.834244 
L 1639.91373 639.459827 
L 1640.930741 639.284084 
L 1641.947752 638.352497 
L 1642.964763 637.641223 
L 1643.981774 636.295488 
L 1644.998785 634.698465 
L 1647.032807 631.194581 
L 1648.049818 629.692219 
L 1649.066829 629.313349 
L 1650.08384 630.355538 
L 1651.100851 629.940564 
L 1652.117861 630.695916 
L 1654.151883 633.010785 
L 1655.168894 634.568932 
L 1656.185905 631.660518 
L 1657.202916 635.147267 
L 1658.219927 635.000787 
L 1659.236938 623.168299 
L 1660.253949 628.114417 
L 1661.27096 632.062827 
L 1662.287971 635.100375 
L 1663.304982 632.515046 
L 1664.321993 636.39736 
L 1665.339004 635.430403 
L 1666.356015 635.158998 
L 1667.373026 635.70639 
L 1668.390036 612.660539 
L 1669.407047 635.324589 
L 1670.424058 626.659626 
L 1671.441069 622.102099 
L 1672.45808 543.989177 
L 1673.475091 633.236367 
L 1674.492102 618.831567 
L 1675.509113 616.892108 
L 1676.526124 623.247635 
L 1677.543135 618.327472 
L 1678.560146 625.536423 
L 1679.577157 629.741169 
L 1680.594168 636.026464 
L 1681.611179 619.880962 
L 1682.62819 634.874306 
L 1683.6452 635.017506 
L 1684.662211 636.697785 
L 1685.679222 636.059304 
L 1686.696233 629.351621 
L 1687.713244 632.890658 
L 1688.730255 630.559832 
L 1689.747266 633.967527 
L 1690.764277 632.729906 
L 1691.781288 631.151317 
L 1692.798299 629.941749 
L 1693.81531 627.201835 
L 1694.832321 623.665642 
L 1695.849332 624.903767 
L 1696.866343 627.83435 
L 1697.883354 625.908421 
L 1698.900365 121.97761 
L 1699.917375 628.495725 
L 1700.934386 623.833634 
L 1701.951397 627.051014 
L 1702.968408 631.38013 
L 1703.985419 631.059808 
L 1705.00243 620.447022 
L 1706.019441 636.775914 
L 1707.036452 632.29299 
L 1708.053463 629.982701 
L 1709.070474 630.271092 
L 1710.087485 631.585084 
L 1711.104496 630.004263 
L 1712.121507 624.698022 
L 1713.138518 628.902666 
L 1714.155529 625.223226 
L 1715.172539 629.595048 
L 1716.18955 637.427342 
L 1717.206561 638.762218 
L 1718.223572 635.091594 
L 1719.240583 627.412161 
L 1720.257594 573.79235 
L 1721.274605 637.018296 
L 1722.291616 629.261487 
L 1723.308627 628.223724 
L 1724.325638 627.345 
L 1727.376671 632.311923 
L 1728.393682 633.976505 
L 1729.410693 633.176243 
L 1731.444714 633.934649 
L 1732.461725 631.829299 
L 1734.495747 634.453381 
L 1735.512758 635.226237 
L 1736.529769 635.479725 
L 1737.54678 635.863866 
L 1738.563791 635.238112 
L 1739.580802 635.138125 
L 1740.597813 634.632839 
L 1741.614824 633.464945 
L 1742.631835 607.23541 
L 1743.648846 635.990461 
L 1744.665857 625.445679 
L 1745.682868 622.996975 
L 1746.699878 623.402286 
L 1747.716889 625.088265 
L 1748.7339 620.99944 
L 1749.750911 626.464027 
L 1751.784933 629.023408 
L 1752.801944 630.644146 
L 1753.818955 629.649351 
L 1754.835966 632.420947 
L 1755.852977 632.340495 
L 1756.869988 633.666252 
L 1757.886999 632.656999 
L 1758.90401 635.009832 
L 1759.921021 632.019775 
L 1760.938032 631.604425 
L 1761.955043 633.951775 
L 1762.972053 636.656647 
L 1763.989064 635.467983 
L 1765.006075 639.328425 
L 1766.023086 638.07384 
L 1767.040097 632.710628 
L 1768.057108 632.970404 
L 1769.074119 633.453942 
L 1770.09113 635.064353 
L 1771.108141 634.078337 
L 1772.125152 631.605498 
L 1773.142163 631.077626 
L 1774.159174 633.190429 
L 1775.176185 633.565834 
L 1776.193196 636.466605 
L 1777.210207 637.541521 
L 1778.227217 636.979668 
L 1779.244228 605.256182 
L 1780.261239 563.309502 
L 1781.27825 589.729057 
L 1782.295261 626.340123 
L 1783.312272 640.153884 
L 1784.329283 633.390624 
L 1785.346294 637.737852 
L 1786.363305 640.788111 
L 1787.380316 641.191351 
L 1788.397327 636.982128 
L 1789.414338 633.912091 
L 1790.431349 633.441169 
L 1791.44836 630.08753 
L 1792.465371 630.623069 
L 1794.499392 622.791331 
L 1795.516403 628.41151 
L 1796.533414 629.68846 
L 1797.550425 625.074175 
L 1798.567436 625.288265 
L 1799.584447 627.767619 
L 1800.601458 628.469161 
L 1801.618469 629.540947 
L 1802.63548 628.726837 
L 1803.652491 591.219938 
L 1804.669502 637.73501 
L 1805.686513 630.500156 
L 1806.703524 630.766552 
L 1807.720535 630.759632 
L 1808.737546 628.296608 
L 1809.754556 639.953915 
L 1810.771567 640.590965 
L 1811.788578 639.717441 
L 1813.8226 631.828517 
L 1814.839611 631.011341 
L 1815.856622 625.708843 
L 1816.873633 627.909839 
L 1817.890644 624.113051 
L 1818.907655 618.18932 
L 1819.924666 628.049432 
L 1821.958688 626.460673 
L 1822.975699 624.619221 
L 1825.009721 629.373424 
L 1827.043742 630.517232 
L 1828.060753 630.236135 
L 1829.077764 631.062016 
L 1831.111786 632.28313 
L 1832.128797 631.295988 
L 1833.145808 631.299847 
L 1834.162819 636.636163 
L 1835.17983 637.899143 
L 1836.196841 639.564211 
L 1838.230863 638.090661 
L 1839.247874 636.698043 
L 1840.264885 634.04558 
L 1841.281896 631.92814 
L 1842.298906 630.422903 
L 1843.315917 629.181161 
L 1844.332928 627.044571 
L 1845.349939 627.200984 
L 1846.36695 627.106388 
L 1847.383961 631.361004 
L 1848.400972 632.444928 
L 1849.417983 633.291419 
L 1850.434994 634.746885 
L 1851.452005 634.813928 
L 1852.469016 635.706194 
L 1853.486027 636.066065 
L 1854.503038 634.433591 
L 1855.520049 634.616947 
L 1856.53706 633.657936 
L 1857.55407 634.291105 
L 1858.571081 636.376567 
L 1859.588092 637.100299 
L 1860.605103 637.377389 
L 1861.622114 637.879981 
L 1862.639125 637.270918 
L 1863.656136 636.521486 
L 1864.673147 634.527125 
L 1865.690158 408.300924 
L 1866.707169 639.908336 
L 1867.72418 629.407272 
L 1868.741191 627.610338 
L 1869.758202 627.774822 
L 1870.775213 629.618279 
L 1871.792224 629.517272 
L 1872.809235 630.887119 
L 1873.826245 630.413868 
L 1874.843256 630.195334 
L 1875.860267 633.883182 
L 1876.877278 634.213622 
L 1877.894289 632.53168 
L 1878.9113 633.233072 
L 1880.945322 633.814876 
L 1881.962333 630.914592 
L 1882.979344 633.445296 
L 1883.996355 639.953407 
L 1885.013366 640.474195 
L 1886.030377 638.219421 
L 1887.047388 632.814792 
L 1888.064399 632.561564 
L 1889.081409 632.620465 
L 1890.09842 628.758582 
L 1891.115431 627.904187 
L 1892.132442 625.142857 
L 1893.149453 625.951574 
L 1894.166464 626.579479 
L 1895.183475 624.820378 
L 1896.200486 626.450925 
L 1897.217497 626.862768 
L 1899.251519 630.832365 
L 1900.26853 630.657051 
L 1901.285541 631.24364 
L 1902.302552 632.140075 
L 1903.319563 628.527444 
L 1904.336574 632.231168 
L 1905.353584 629.825856 
L 1906.370595 628.667933 
L 1907.387606 638.502937 
L 1908.404617 641.043093 
L 1909.421628 641.771057 
L 1910.438639 634.269509 
L 1911.45565 630.920184 
L 1912.472661 630.875449 
L 1913.489672 631.228956 
L 1914.506683 629.09823 
L 1916.540705 628.255274 
L 1917.557716 626.442881 
L 1918.574727 628.155039 
L 1919.591738 627.301191 
L 1920.608748 628.626805 
L 1921.625759 626.447162 
L 1922.64277 630.456999 
L 1923.659781 631.343605 
L 1924.676792 633.356631 
L 1925.693803 641.246961 
L 1926.710814 641.732024 
L 1927.727825 644.032274 
L 1928.744836 643.338455 
L 1929.761847 640.027745 
L 1930.778858 638.481315 
L 1931.795869 644.040217 
L 1932.81288 642.948957 
L 1933.829891 644.111356 
L 1934.846902 643.617181 
L 1935.863913 643.776296 
L 1936.880923 641.375299 
L 1937.897934 642.460516 
L 1938.914945 640.532246 
L 1939.931956 639.895127 
L 1940.948967 636.438364 
L 1941.965978 638.259577 
L 1942.982989 638.794534 
L 1944 638.43166 
L 1944 638.43166 
" style="fill:none;stroke:#0000ff;stroke-linecap:square;"/>
   </g>
   <g id="line2d_2">
    <defs>
     <path d="M 0 3 
C 0.795609 3 1.55874 2.683901 2.12132 2.12132 
C 2.683901 1.55874 3 0.795609 3 0 
C 3 -0.795609 2.683901 -1.55874 2.12132 -2.12132 
C 1.55874 -2.683901 0.795609 -3 0 -3 
C -0.795609 -3 -1.55874 -2.683901 -2.12132 -2.12132 
C -2.683901 -1.55874 -3 -0.795609 -3 0 
C -3 0.795609 -2.683901 1.55874 -2.12132 2.12132 
C -1.55874 2.683901 -0.795609 3 0 3 
z
" id="m1f056fdc52" style="stroke:#000000;stroke-width:0.5;"/>
    </defs>
    <g clip-path="url(#p22854f59fa)">
     <use style="fill:#ff0000;stroke:#000000;stroke-width:0.5;" x="650.362089913" xlink:href="#m1f056fdc52" y="313.511345648"/>
     <use style="fill:#ff0000;stroke:#000000;stroke-width:0.5;" x="794.777642768" xlink:href="#m1f056fdc52" y="339.917591125"/>
     <use style="fill:#ff0000;stroke:#000000;stroke-width:0.5;" x="798.84568651" xlink:href="#m1f056fdc52" y="310.325384387"/>
     <use style="fill:#ff0000;stroke:#000000;stroke-width:0.5;" x="1571.77399757" xlink:href="#m1f056fdc52" y="195.925033469"/>
     <use style="fill:#ff0000;stroke:#000000;stroke-width:0.5;" x="1698.90036452" xlink:href="#m1f056fdc52" y="121.977610237"/>
    </g>
   </g>
   <g id="patch_3">
    <path d="M 270 72 
L 1944 72 
" style="fill:none;stroke:#000000;stroke-linecap:square;stroke-linejoin:miter;"/>
   </g>
   <g id="patch_4">
    <path d="M 1944 648 
L 1944 72 
" style="fill:none;stroke:#000000;stroke-linecap:square;stroke-linejoin:miter;"/>
   </g>
   <g id="patch_5">
    <path d="M 270 648 
L 1944 648 
" style="fill:none;stroke:#000000;stroke-linecap:square;stroke-linejoin:miter;"/>
   </g>
   <g id="patch_6">
    <path d="M 270 648 
L 270 72 
" style="fill:none;stroke:#000000;stroke-linecap:square;stroke-linejoin:miter;"/>
   </g>
   <g id="matplotlib.axis_1">
    <g id="xtick_1">
     <g id="line2d_3">
      <defs>
       <path d="M 0 0 
L 0 -4 
" id="ma75629bb55" style="stroke:#000000;stroke-width:0.5;"/>
      </defs>
      <g>
       <use style="stroke:#000000;stroke-width:0.5;" x="318.561989672" xlink:href="#ma75629bb55" y="648.0"/>
      </g>
     </g>
     <g id="line2d_4">
      <defs>
       <path d="M 0 0 
L 0 4 
" id="m41d5016c11" style="stroke:#000000;stroke-width:0.5;"/>
      </defs>
      <g>
       <use style="stroke:#000000;stroke-width:0.5;" x="318.561989672" xlink:href="#m41d5016c11" y="72.0"/>
      </g>
     </g>
     <g id="text_1">
      <!-- Jul 03 2011 -->
      <defs>
       <path d="M 19.1875 8.296875 
L 53.609375 8.296875 
L 53.609375 0 
L 7.328125 0 
L 7.328125 8.296875 
Q 12.9375 14.109375 22.625 23.890625 
Q 32.328125 33.6875 34.8125 36.53125 
Q 39.546875 41.84375 41.421875 45.53125 
Q 43.3125 49.21875 43.3125 52.78125 
Q 43.3125 58.59375 39.234375 62.25 
Q 35.15625 65.921875 28.609375 65.921875 
Q 23.96875 65.921875 18.8125 64.3125 
Q 13.671875 62.703125 7.8125 59.421875 
L 7.8125 69.390625 
Q 13.765625 71.78125 18.9375 73 
Q 24.125 74.21875 28.421875 74.21875 
Q 39.75 74.21875 46.484375 68.546875 
Q 53.21875 62.890625 53.21875 53.421875 
Q 53.21875 48.921875 51.53125 44.890625 
Q 49.859375 40.875 45.40625 35.40625 
Q 44.1875 33.984375 37.640625 27.21875 
Q 31.109375 20.453125 19.1875 8.296875 
" id="BitstreamVeraSans-Roman-32"/>
       <path id="BitstreamVeraSans-Roman-20"/>
       <path d="M 31.78125 66.40625 
Q 24.171875 66.40625 20.328125 58.90625 
Q 16.5 51.421875 16.5 36.375 
Q 16.5 21.390625 20.328125 13.890625 
Q 24.171875 6.390625 31.78125 6.390625 
Q 39.453125 6.390625 43.28125 13.890625 
Q 47.125 21.390625 47.125 36.375 
Q 47.125 51.421875 43.28125 58.90625 
Q 39.453125 66.40625 31.78125 66.40625 
M 31.78125 74.21875 
Q 44.046875 74.21875 50.515625 64.515625 
Q 56.984375 54.828125 56.984375 36.375 
Q 56.984375 17.96875 50.515625 8.265625 
Q 44.046875 -1.421875 31.78125 -1.421875 
Q 19.53125 -1.421875 13.0625 8.265625 
Q 6.59375 17.96875 6.59375 36.375 
Q 6.59375 54.828125 13.0625 64.515625 
Q 19.53125 74.21875 31.78125 74.21875 
" id="BitstreamVeraSans-Roman-30"/>
       <path d="M 12.40625 8.296875 
L 28.515625 8.296875 
L 28.515625 63.921875 
L 10.984375 60.40625 
L 10.984375 69.390625 
L 28.421875 72.90625 
L 38.28125 72.90625 
L 38.28125 8.296875 
L 54.390625 8.296875 
L 54.390625 0 
L 12.40625 0 
z
" id="BitstreamVeraSans-Roman-31"/>
       <path d="M 9.8125 72.90625 
L 19.671875 72.90625 
L 19.671875 5.078125 
Q 19.671875 -8.109375 14.671875 -14.0625 
Q 9.671875 -20.015625 -1.421875 -20.015625 
L -5.171875 -20.015625 
L -5.171875 -11.71875 
L -2.09375 -11.71875 
Q 4.4375 -11.71875 7.125 -8.046875 
Q 9.8125 -4.390625 9.8125 5.078125 
z
" id="BitstreamVeraSans-Roman-4a"/>
       <path d="M 40.578125 39.3125 
Q 47.65625 37.796875 51.625 33 
Q 55.609375 28.21875 55.609375 21.1875 
Q 55.609375 10.40625 48.1875 4.484375 
Q 40.765625 -1.421875 27.09375 -1.421875 
Q 22.515625 -1.421875 17.65625 -0.515625 
Q 12.796875 0.390625 7.625 2.203125 
L 7.625 11.71875 
Q 11.71875 9.328125 16.59375 8.109375 
Q 21.484375 6.890625 26.8125 6.890625 
Q 36.078125 6.890625 40.9375 10.546875 
Q 45.796875 14.203125 45.796875 21.1875 
Q 45.796875 27.640625 41.28125 31.265625 
Q 36.765625 34.90625 28.71875 34.90625 
L 20.21875 34.90625 
L 20.21875 43.015625 
L 29.109375 43.015625 
Q 36.375 43.015625 40.234375 45.921875 
Q 44.09375 48.828125 44.09375 54.296875 
Q 44.09375 59.90625 40.109375 62.90625 
Q 36.140625 65.921875 28.71875 65.921875 
Q 24.65625 65.921875 20.015625 65.03125 
Q 15.375 64.15625 9.8125 62.3125 
L 9.8125 71.09375 
Q 15.4375 72.65625 20.34375 73.4375 
Q 25.25 74.21875 29.59375 74.21875 
Q 40.828125 74.21875 47.359375 69.109375 
Q 53.90625 64.015625 53.90625 55.328125 
Q 53.90625 49.265625 50.4375 45.09375 
Q 46.96875 40.921875 40.578125 39.3125 
" id="BitstreamVeraSans-Roman-33"/>
       <path d="M 9.421875 75.984375 
L 18.40625 75.984375 
L 18.40625 0 
L 9.421875 0 
z
" id="BitstreamVeraSans-Roman-6c"/>
       <path d="M 8.5 21.578125 
L 8.5 54.6875 
L 17.484375 54.6875 
L 17.484375 21.921875 
Q 17.484375 14.15625 20.5 10.265625 
Q 23.53125 6.390625 29.59375 6.390625 
Q 36.859375 6.390625 41.078125 11.03125 
Q 45.3125 15.671875 45.3125 23.6875 
L 45.3125 54.6875 
L 54.296875 54.6875 
L 54.296875 0 
L 45.3125 0 
L 45.3125 8.40625 
Q 42.046875 3.421875 37.71875 1 
Q 33.40625 -1.421875 27.6875 -1.421875 
Q 18.265625 -1.421875 13.375 4.4375 
Q 8.5 10.296875 8.5 21.578125 
" id="BitstreamVeraSans-Roman-75"/>
      </defs>
      <g transform="translate(284.603864672 661.118125)scale(0.12 -0.12)">
       <use xlink:href="#BitstreamVeraSans-Roman-4a"/>
       <use x="29.4921875" xlink:href="#BitstreamVeraSans-Roman-75"/>
       <use x="92.87109375" xlink:href="#BitstreamVeraSans-Roman-6c"/>
       <use x="120.654296875" xlink:href="#BitstreamVeraSans-Roman-20"/>
       <use x="152.44140625" xlink:href="#BitstreamVeraSans-Roman-30"/>
       <use x="216.064453125" xlink:href="#BitstreamVeraSans-Roman-33"/>
       <use x="279.6875" xlink:href="#BitstreamVeraSans-Roman-20"/>
       <use x="311.474609375" xlink:href="#BitstreamVeraSans-Roman-32"/>
       <use x="375.09765625" xlink:href="#BitstreamVeraSans-Roman-30"/>
       <use x="438.720703125" xlink:href="#BitstreamVeraSans-Roman-31"/>
       <use x="502.34375" xlink:href="#BitstreamVeraSans-Roman-31"/>
      </g>
     </g>
    </g>
    <g id="xtick_2">
     <g id="line2d_5">
      <g>
       <use style="stroke:#000000;stroke-width:0.5;" x="489.41982685" xlink:href="#ma75629bb55" y="648.0"/>
      </g>
     </g>
     <g id="line2d_6">
      <g>
       <use style="stroke:#000000;stroke-width:0.5;" x="489.41982685" xlink:href="#m41d5016c11" y="72.0"/>
      </g>
     </g>
     <g id="text_2">
      <!-- Jul 10 2011 -->
      <g transform="translate(455.46170185 661.118125)scale(0.12 -0.12)">
       <use xlink:href="#BitstreamVeraSans-Roman-4a"/>
       <use x="29.4921875" xlink:href="#BitstreamVeraSans-Roman-75"/>
       <use x="92.87109375" xlink:href="#BitstreamVeraSans-Roman-6c"/>
       <use x="120.654296875" xlink:href="#BitstreamVeraSans-Roman-20"/>
       <use x="152.44140625" xlink:href="#BitstreamVeraSans-Roman-31"/>
       <use x="216.064453125" xlink:href="#BitstreamVeraSans-Roman-30"/>
       <use x="279.6875" xlink:href="#BitstreamVeraSans-Roman-20"/>
       <use x="311.474609375" xlink:href="#BitstreamVeraSans-Roman-32"/>
       <use x="375.09765625" xlink:href="#BitstreamVeraSans-Roman-30"/>
       <use x="438.720703125" xlink:href="#BitstreamVeraSans-Roman-31"/>
       <use x="502.34375" xlink:href="#BitstreamVeraSans-Roman-31"/>
      </g>
     </g>
    </g>
    <g id="xtick_3">
     <g id="line2d_7">
      <g>
       <use style="stroke:#000000;stroke-width:0.5;" x="660.277664032" xlink:href="#ma75629bb55" y="648.0"/>
      </g>
     </g>
     <g id="line2d_8">
      <g>
       <use style="stroke:#000000;stroke-width:0.5;" x="660.277664032" xlink:href="#m41d5016c11" y="72.0"/>
      </g>
     </g>
     <g id="text_3">
      <!-- Jul 17 2011 -->
      <defs>
       <path d="M 8.203125 72.90625 
L 55.078125 72.90625 
L 55.078125 68.703125 
L 28.609375 0 
L 18.3125 0 
L 43.21875 64.59375 
L 8.203125 64.59375 
z
" id="BitstreamVeraSans-Roman-37"/>
      </defs>
      <g transform="translate(626.319539032 661.118125)scale(0.12 -0.12)">
       <use xlink:href="#BitstreamVeraSans-Roman-4a"/>
       <use x="29.4921875" xlink:href="#BitstreamVeraSans-Roman-75"/>
       <use x="92.87109375" xlink:href="#BitstreamVeraSans-Roman-6c"/>
       <use x="120.654296875" xlink:href="#BitstreamVeraSans-Roman-20"/>
       <use x="152.44140625" xlink:href="#BitstreamVeraSans-Roman-31"/>
       <use x="216.064453125" xlink:href="#BitstreamVeraSans-Roman-37"/>
       <use x="279.6875" xlink:href="#BitstreamVeraSans-Roman-20"/>
       <use x="311.474609375" xlink:href="#BitstreamVeraSans-Roman-32"/>
       <use x="375.09765625" xlink:href="#BitstreamVeraSans-Roman-30"/>
       <use x="438.720703125" xlink:href="#BitstreamVeraSans-Roman-31"/>
       <use x="502.34375" xlink:href="#BitstreamVeraSans-Roman-31"/>
      </g>
     </g>
    </g>
    <g id="xtick_4">
     <g id="line2d_9">
      <g>
       <use style="stroke:#000000;stroke-width:0.5;" x="831.135501213" xlink:href="#ma75629bb55" y="648.0"/>
      </g>
     </g>
     <g id="line2d_10">
      <g>
       <use style="stroke:#000000;stroke-width:0.5;" x="831.135501213" xlink:href="#m41d5016c11" y="72.0"/>
      </g>
     </g>
     <g id="text_4">
      <!-- Jul 24 2011 -->
      <defs>
       <path d="M 37.796875 64.3125 
L 12.890625 25.390625 
L 37.796875 25.390625 
z
M 35.203125 72.90625 
L 47.609375 72.90625 
L 47.609375 25.390625 
L 58.015625 25.390625 
L 58.015625 17.1875 
L 47.609375 17.1875 
L 47.609375 0 
L 37.796875 0 
L 37.796875 17.1875 
L 4.890625 17.1875 
L 4.890625 26.703125 
z
" id="BitstreamVeraSans-Roman-34"/>
      </defs>
      <g transform="translate(797.177376213 661.118125)scale(0.12 -0.12)">
       <use xlink:href="#BitstreamVeraSans-Roman-4a"/>
       <use x="29.4921875" xlink:href="#BitstreamVeraSans-Roman-75"/>
       <use x="92.87109375" xlink:href="#BitstreamVeraSans-Roman-6c"/>
       <use x="120.654296875" xlink:href="#BitstreamVeraSans-Roman-20"/>
       <use x="152.44140625" xlink:href="#BitstreamVeraSans-Roman-32"/>
       <use x="216.064453125" xlink:href="#BitstreamVeraSans-Roman-34"/>
       <use x="279.6875" xlink:href="#BitstreamVeraSans-Roman-20"/>
       <use x="311.474609375" xlink:href="#BitstreamVeraSans-Roman-32"/>
       <use x="375.09765625" xlink:href="#BitstreamVeraSans-Roman-30"/>
       <use x="438.720703125" xlink:href="#BitstreamVeraSans-Roman-31"/>
       <use x="502.34375" xlink:href="#BitstreamVeraSans-Roman-31"/>
      </g>
     </g>
    </g>
    <g id="xtick_5">
     <g id="line2d_11">
      <g>
       <use style="stroke:#000000;stroke-width:0.5;" x="1001.99333839" xlink:href="#ma75629bb55" y="648.0"/>
      </g>
     </g>
     <g id="line2d_12">
      <g>
       <use style="stroke:#000000;stroke-width:0.5;" x="1001.99333839" xlink:href="#m41d5016c11" y="72.0"/>
      </g>
     </g>
     <g id="text_5">
      <!-- Jul 31 2011 -->
      <g transform="translate(968.035213395 661.118125)scale(0.12 -0.12)">
       <use xlink:href="#BitstreamVeraSans-Roman-4a"/>
       <use x="29.4921875" xlink:href="#BitstreamVeraSans-Roman-75"/>
       <use x="92.87109375" xlink:href="#BitstreamVeraSans-Roman-6c"/>
       <use x="120.654296875" xlink:href="#BitstreamVeraSans-Roman-20"/>
       <use x="152.44140625" xlink:href="#BitstreamVeraSans-Roman-33"/>
       <use x="216.064453125" xlink:href="#BitstreamVeraSans-Roman-31"/>
       <use x="279.6875" xlink:href="#BitstreamVeraSans-Roman-20"/>
       <use x="311.474609375" xlink:href="#BitstreamVeraSans-Roman-32"/>
       <use x="375.09765625" xlink:href="#BitstreamVeraSans-Roman-30"/>
       <use x="438.720703125" xlink:href="#BitstreamVeraSans-Roman-31"/>
       <use x="502.34375" xlink:href="#BitstreamVeraSans-Roman-31"/>
      </g>
     </g>
    </g>
    <g id="xtick_6">
     <g id="line2d_13">
      <g>
       <use style="stroke:#000000;stroke-width:0.5;" x="1172.85117558" xlink:href="#ma75629bb55" y="648.0"/>
      </g>
     </g>
     <g id="line2d_14">
      <g>
       <use style="stroke:#000000;stroke-width:0.5;" x="1172.85117558" xlink:href="#m41d5016c11" y="72.0"/>
      </g>
     </g>
     <g id="text_6">
      <!-- Aug 07 2011 -->
      <defs>
       <path d="M 45.40625 27.984375 
Q 45.40625 37.75 41.375 43.109375 
Q 37.359375 48.484375 30.078125 48.484375 
Q 22.859375 48.484375 18.828125 43.109375 
Q 14.796875 37.75 14.796875 27.984375 
Q 14.796875 18.265625 18.828125 12.890625 
Q 22.859375 7.515625 30.078125 7.515625 
Q 37.359375 7.515625 41.375 12.890625 
Q 45.40625 18.265625 45.40625 27.984375 
M 54.390625 6.78125 
Q 54.390625 -7.171875 48.1875 -13.984375 
Q 42 -20.796875 29.203125 -20.796875 
Q 24.46875 -20.796875 20.265625 -20.09375 
Q 16.0625 -19.390625 12.109375 -17.921875 
L 12.109375 -9.1875 
Q 16.0625 -11.328125 19.921875 -12.34375 
Q 23.78125 -13.375 27.78125 -13.375 
Q 36.625 -13.375 41.015625 -8.765625 
Q 45.40625 -4.15625 45.40625 5.171875 
L 45.40625 9.625 
Q 42.625 4.78125 38.28125 2.390625 
Q 33.9375 0 27.875 0 
Q 17.828125 0 11.671875 7.65625 
Q 5.515625 15.328125 5.515625 27.984375 
Q 5.515625 40.671875 11.671875 48.328125 
Q 17.828125 56 27.875 56 
Q 33.9375 56 38.28125 53.609375 
Q 42.625 51.21875 45.40625 46.390625 
L 45.40625 54.6875 
L 54.390625 54.6875 
z
" id="BitstreamVeraSans-Roman-67"/>
       <path d="M 34.1875 63.1875 
L 20.796875 26.90625 
L 47.609375 26.90625 
z
M 28.609375 72.90625 
L 39.796875 72.90625 
L 67.578125 0 
L 57.328125 0 
L 50.6875 18.703125 
L 17.828125 18.703125 
L 11.1875 0 
L 0.78125 0 
z
" id="BitstreamVeraSans-Roman-41"/>
      </defs>
      <g transform="translate(1134.41648808 661.118125)scale(0.12 -0.12)">
       <use xlink:href="#BitstreamVeraSans-Roman-41"/>
       <use x="68.408203125" xlink:href="#BitstreamVeraSans-Roman-75"/>
       <use x="131.787109375" xlink:href="#BitstreamVeraSans-Roman-67"/>
       <use x="195.263671875" xlink:href="#BitstreamVeraSans-Roman-20"/>
       <use x="227.05078125" xlink:href="#BitstreamVeraSans-Roman-30"/>
       <use x="290.673828125" xlink:href="#BitstreamVeraSans-Roman-37"/>
       <use x="354.296875" xlink:href="#BitstreamVeraSans-Roman-20"/>
       <use x="386.083984375" xlink:href="#BitstreamVeraSans-Roman-32"/>
       <use x="449.70703125" xlink:href="#BitstreamVeraSans-Roman-30"/>
       <use x="513.330078125" xlink:href="#BitstreamVeraSans-Roman-31"/>
       <use x="576.953125" xlink:href="#BitstreamVeraSans-Roman-31"/>
      </g>
     </g>
    </g>
    <g id="xtick_7">
     <g id="line2d_15">
      <g>
       <use style="stroke:#000000;stroke-width:0.5;" x="1343.70901276" xlink:href="#ma75629bb55" y="648.0"/>
      </g>
     </g>
     <g id="line2d_16">
      <g>
       <use style="stroke:#000000;stroke-width:0.5;" x="1343.70901276" xlink:href="#m41d5016c11" y="72.0"/>
      </g>
     </g>
     <g id="text_7">
      <!-- Aug 14 2011 -->
      <g transform="translate(1305.27432526 661.118125)scale(0.12 -0.12)">
       <use xlink:href="#BitstreamVeraSans-Roman-41"/>
       <use x="68.408203125" xlink:href="#BitstreamVeraSans-Roman-75"/>
       <use x="131.787109375" xlink:href="#BitstreamVeraSans-Roman-67"/>
       <use x="195.263671875" xlink:href="#BitstreamVeraSans-Roman-20"/>
       <use x="227.05078125" xlink:href="#BitstreamVeraSans-Roman-31"/>
       <use x="290.673828125" xlink:href="#BitstreamVeraSans-Roman-34"/>
       <use x="354.296875" xlink:href="#BitstreamVeraSans-Roman-20"/>
       <use x="386.083984375" xlink:href="#BitstreamVeraSans-Roman-32"/>
       <use x="449.70703125" xlink:href="#BitstreamVeraSans-Roman-30"/>
       <use x="513.330078125" xlink:href="#BitstreamVeraSans-Roman-31"/>
       <use x="576.953125" xlink:href="#BitstreamVeraSans-Roman-31"/>
      </g>
     </g>
    </g>
    <g id="xtick_8">
     <g id="line2d_17">
      <g>
       <use style="stroke:#000000;stroke-width:0.5;" x="1514.56684994" xlink:href="#ma75629bb55" y="648.0"/>
      </g>
     </g>
     <g id="line2d_18">
      <g>
       <use style="stroke:#000000;stroke-width:0.5;" x="1514.56684994" xlink:href="#m41d5016c11" y="72.0"/>
      </g>
     </g>
     <g id="text_8">
      <!-- Aug 21 2011 -->
      <g transform="translate(1476.13216244 661.118125)scale(0.12 -0.12)">
       <use xlink:href="#BitstreamVeraSans-Roman-41"/>
       <use x="68.408203125" xlink:href="#BitstreamVeraSans-Roman-75"/>
       <use x="131.787109375" xlink:href="#BitstreamVeraSans-Roman-67"/>
       <use x="195.263671875" xlink:href="#BitstreamVeraSans-Roman-20"/>
       <use x="227.05078125" xlink:href="#BitstreamVeraSans-Roman-32"/>
       <use x="290.673828125" xlink:href="#BitstreamVeraSans-Roman-31"/>
       <use x="354.296875" xlink:href="#BitstreamVeraSans-Roman-20"/>
       <use x="386.083984375" xlink:href="#BitstreamVeraSans-Roman-32"/>
       <use x="449.70703125" xlink:href="#BitstreamVeraSans-Roman-30"/>
       <use x="513.330078125" xlink:href="#BitstreamVeraSans-Roman-31"/>
       <use x="576.953125" xlink:href="#BitstreamVeraSans-Roman-31"/>
      </g>
     </g>
    </g>
    <g id="xtick_9">
     <g id="line2d_19">
      <g>
       <use style="stroke:#000000;stroke-width:0.5;" x="1685.42468712" xlink:href="#ma75629bb55" y="648.0"/>
      </g>
     </g>
     <g id="line2d_20">
      <g>
       <use style="stroke:#000000;stroke-width:0.5;" x="1685.42468712" xlink:href="#m41d5016c11" y="72.0"/>
      </g>
     </g>
     <g id="text_9">
      <!-- Aug 28 2011 -->
      <defs>
       <path d="M 31.78125 34.625 
Q 24.75 34.625 20.71875 30.859375 
Q 16.703125 27.09375 16.703125 20.515625 
Q 16.703125 13.921875 20.71875 10.15625 
Q 24.75 6.390625 31.78125 6.390625 
Q 38.8125 6.390625 42.859375 10.171875 
Q 46.921875 13.96875 46.921875 20.515625 
Q 46.921875 27.09375 42.890625 30.859375 
Q 38.875 34.625 31.78125 34.625 
M 21.921875 38.8125 
Q 15.578125 40.375 12.03125 44.71875 
Q 8.5 49.078125 8.5 55.328125 
Q 8.5 64.0625 14.71875 69.140625 
Q 20.953125 74.21875 31.78125 74.21875 
Q 42.671875 74.21875 48.875 69.140625 
Q 55.078125 64.0625 55.078125 55.328125 
Q 55.078125 49.078125 51.53125 44.71875 
Q 48 40.375 41.703125 38.8125 
Q 48.828125 37.15625 52.796875 32.3125 
Q 56.78125 27.484375 56.78125 20.515625 
Q 56.78125 9.90625 50.3125 4.234375 
Q 43.84375 -1.421875 31.78125 -1.421875 
Q 19.734375 -1.421875 13.25 4.234375 
Q 6.78125 9.90625 6.78125 20.515625 
Q 6.78125 27.484375 10.78125 32.3125 
Q 14.796875 37.15625 21.921875 38.8125 
M 18.3125 54.390625 
Q 18.3125 48.734375 21.84375 45.5625 
Q 25.390625 42.390625 31.78125 42.390625 
Q 38.140625 42.390625 41.71875 45.5625 
Q 45.3125 48.734375 45.3125 54.390625 
Q 45.3125 60.0625 41.71875 63.234375 
Q 38.140625 66.40625 31.78125 66.40625 
Q 25.390625 66.40625 21.84375 63.234375 
Q 18.3125 60.0625 18.3125 54.390625 
" id="BitstreamVeraSans-Roman-38"/>
      </defs>
      <g transform="translate(1646.98999962 661.118125)scale(0.12 -0.12)">
       <use xlink:href="#BitstreamVeraSans-Roman-41"/>
       <use x="68.408203125" xlink:href="#BitstreamVeraSans-Roman-75"/>
       <use x="131.787109375" xlink:href="#BitstreamVeraSans-Roman-67"/>
       <use x="195.263671875" xlink:href="#BitstreamVeraSans-Roman-20"/>
       <use x="227.05078125" xlink:href="#BitstreamVeraSans-Roman-32"/>
       <use x="290.673828125" xlink:href="#BitstreamVeraSans-Roman-38"/>
       <use x="354.296875" xlink:href="#BitstreamVeraSans-Roman-20"/>
       <use x="386.083984375" xlink:href="#BitstreamVeraSans-Roman-32"/>
       <use x="449.70703125" xlink:href="#BitstreamVeraSans-Roman-30"/>
       <use x="513.330078125" xlink:href="#BitstreamVeraSans-Roman-31"/>
       <use x="576.953125" xlink:href="#BitstreamVeraSans-Roman-31"/>
      </g>
     </g>
    </g>
    <g id="xtick_10">
     <g id="line2d_21">
      <g>
       <use style="stroke:#000000;stroke-width:0.5;" x="1856.2825243" xlink:href="#ma75629bb55" y="648.0"/>
      </g>
     </g>
     <g id="line2d_22">
      <g>
       <use style="stroke:#000000;stroke-width:0.5;" x="1856.2825243" xlink:href="#m41d5016c11" y="72.0"/>
      </g>
     </g>
     <g id="text_10">
      <!-- Sep 04 2011 -->
      <defs>
       <path d="M 56.203125 29.59375 
L 56.203125 25.203125 
L 14.890625 25.203125 
Q 15.484375 15.921875 20.484375 11.0625 
Q 25.484375 6.203125 34.421875 6.203125 
Q 39.59375 6.203125 44.453125 7.46875 
Q 49.3125 8.734375 54.109375 11.28125 
L 54.109375 2.78125 
Q 49.265625 0.734375 44.1875 -0.34375 
Q 39.109375 -1.421875 33.890625 -1.421875 
Q 20.796875 -1.421875 13.15625 6.1875 
Q 5.515625 13.8125 5.515625 26.8125 
Q 5.515625 40.234375 12.765625 48.109375 
Q 20.015625 56 32.328125 56 
Q 43.359375 56 49.78125 48.890625 
Q 56.203125 41.796875 56.203125 29.59375 
M 47.21875 32.234375 
Q 47.125 39.59375 43.09375 43.984375 
Q 39.0625 48.390625 32.421875 48.390625 
Q 24.90625 48.390625 20.390625 44.140625 
Q 15.875 39.890625 15.1875 32.171875 
z
" id="BitstreamVeraSans-Roman-65"/>
       <path d="M 53.515625 70.515625 
L 53.515625 60.890625 
Q 47.90625 63.578125 42.921875 64.890625 
Q 37.9375 66.21875 33.296875 66.21875 
Q 25.25 66.21875 20.875 63.09375 
Q 16.5 59.96875 16.5 54.203125 
Q 16.5 49.359375 19.40625 46.890625 
Q 22.3125 44.4375 30.421875 42.921875 
L 36.375 41.703125 
Q 47.40625 39.59375 52.65625 34.296875 
Q 57.90625 29 57.90625 20.125 
Q 57.90625 9.515625 50.796875 4.046875 
Q 43.703125 -1.421875 29.984375 -1.421875 
Q 24.8125 -1.421875 18.96875 -0.25 
Q 13.140625 0.921875 6.890625 3.21875 
L 6.890625 13.375 
Q 12.890625 10.015625 18.65625 8.296875 
Q 24.421875 6.59375 29.984375 6.59375 
Q 38.421875 6.59375 43.015625 9.90625 
Q 47.609375 13.234375 47.609375 19.390625 
Q 47.609375 24.75 44.3125 27.78125 
Q 41.015625 30.8125 33.5 32.328125 
L 27.484375 33.5 
Q 16.453125 35.6875 11.515625 40.375 
Q 6.59375 45.0625 6.59375 53.421875 
Q 6.59375 63.09375 13.40625 68.65625 
Q 20.21875 74.21875 32.171875 74.21875 
Q 37.3125 74.21875 42.625 73.28125 
Q 47.953125 72.359375 53.515625 70.515625 
" id="BitstreamVeraSans-Roman-53"/>
       <path d="M 18.109375 8.203125 
L 18.109375 -20.796875 
L 9.078125 -20.796875 
L 9.078125 54.6875 
L 18.109375 54.6875 
L 18.109375 46.390625 
Q 20.953125 51.265625 25.265625 53.625 
Q 29.59375 56 35.59375 56 
Q 45.5625 56 51.78125 48.09375 
Q 58.015625 40.1875 58.015625 27.296875 
Q 58.015625 14.40625 51.78125 6.484375 
Q 45.5625 -1.421875 35.59375 -1.421875 
Q 29.59375 -1.421875 25.265625 0.953125 
Q 20.953125 3.328125 18.109375 8.203125 
M 48.6875 27.296875 
Q 48.6875 37.203125 44.609375 42.84375 
Q 40.53125 48.484375 33.40625 48.484375 
Q 26.265625 48.484375 22.1875 42.84375 
Q 18.109375 37.203125 18.109375 27.296875 
Q 18.109375 17.390625 22.1875 11.75 
Q 26.265625 6.109375 33.40625 6.109375 
Q 40.53125 6.109375 44.609375 11.75 
Q 48.6875 17.390625 48.6875 27.296875 
" id="BitstreamVeraSans-Roman-70"/>
      </defs>
      <g transform="translate(1818.2537743 661.118125)scale(0.12 -0.12)">
       <use xlink:href="#BitstreamVeraSans-Roman-53"/>
       <use x="63.4765625" xlink:href="#BitstreamVeraSans-Roman-65"/>
       <use x="125.0" xlink:href="#BitstreamVeraSans-Roman-70"/>
       <use x="188.4765625" xlink:href="#BitstreamVeraSans-Roman-20"/>
       <use x="220.263671875" xlink:href="#BitstreamVeraSans-Roman-30"/>
       <use x="283.88671875" xlink:href="#BitstreamVeraSans-Roman-34"/>
       <use x="347.509765625" xlink:href="#BitstreamVeraSans-Roman-20"/>
       <use x="379.296875" xlink:href="#BitstreamVeraSans-Roman-32"/>
       <use x="442.919921875" xlink:href="#BitstreamVeraSans-Roman-30"/>
       <use x="506.54296875" xlink:href="#BitstreamVeraSans-Roman-31"/>
       <use x="570.166015625" xlink:href="#BitstreamVeraSans-Roman-31"/>
      </g>
     </g>
    </g>
   </g>
   <g id="matplotlib.axis_2">
    <g id="ytick_1">
     <g id="line2d_23">
      <defs>
       <path d="M 0 0 
L 4 0 
" id="m807495e2f0" style="stroke:#000000;stroke-width:0.5;"/>
      </defs>
      <g>
       <use style="stroke:#000000;stroke-width:0.5;" x="270.0" xlink:href="#m807495e2f0" y="648.0"/>
      </g>
     </g>
     <g id="line2d_24">
      <defs>
       <path d="M 0 0 
L -4 0 
" id="mce51cce538" style="stroke:#000000;stroke-width:0.5;"/>
      </defs>
      <g>
       <use style="stroke:#000000;stroke-width:0.5;" x="1944.0" xlink:href="#mce51cce538" y="648.0"/>
      </g>
     </g>
     <g id="text_11">
      <!-- 0 -->
      <g transform="translate(258.365 651.31125)scale(0.12 -0.12)">
       <use xlink:href="#BitstreamVeraSans-Roman-30"/>
      </g>
     </g>
    </g>
    <g id="ytick_2">
     <g id="line2d_25">
      <g>
       <use style="stroke:#000000;stroke-width:0.5;" x="270.0" xlink:href="#m807495e2f0" y="584.0"/>
      </g>
     </g>
     <g id="line2d_26">
      <g>
       <use style="stroke:#000000;stroke-width:0.5;" x="1944.0" xlink:href="#mce51cce538" y="584.0"/>
      </g>
     </g>
     <g id="text_12">
      <!-- 2 -->
      <g transform="translate(258.365 587.31125)scale(0.12 -0.12)">
       <use xlink:href="#BitstreamVeraSans-Roman-32"/>
      </g>
     </g>
    </g>
    <g id="ytick_3">
     <g id="line2d_27">
      <g>
       <use style="stroke:#000000;stroke-width:0.5;" x="270.0" xlink:href="#m807495e2f0" y="520.0"/>
      </g>
     </g>
     <g id="line2d_28">
      <g>
       <use style="stroke:#000000;stroke-width:0.5;" x="1944.0" xlink:href="#mce51cce538" y="520.0"/>
      </g>
     </g>
     <g id="text_13">
      <!-- 4 -->
      <g transform="translate(258.365 523.31125)scale(0.12 -0.12)">
       <use xlink:href="#BitstreamVeraSans-Roman-34"/>
      </g>
     </g>
    </g>
    <g id="ytick_4">
     <g id="line2d_29">
      <g>
       <use style="stroke:#000000;stroke-width:0.5;" x="270.0" xlink:href="#m807495e2f0" y="456.0"/>
      </g>
     </g>
     <g id="line2d_30">
      <g>
       <use style="stroke:#000000;stroke-width:0.5;" x="1944.0" xlink:href="#mce51cce538" y="456.0"/>
      </g>
     </g>
     <g id="text_14">
      <!-- 6 -->
      <defs>
       <path d="M 33.015625 40.375 
Q 26.375 40.375 22.484375 35.828125 
Q 18.609375 31.296875 18.609375 23.390625 
Q 18.609375 15.53125 22.484375 10.953125 
Q 26.375 6.390625 33.015625 6.390625 
Q 39.65625 6.390625 43.53125 10.953125 
Q 47.40625 15.53125 47.40625 23.390625 
Q 47.40625 31.296875 43.53125 35.828125 
Q 39.65625 40.375 33.015625 40.375 
M 52.59375 71.296875 
L 52.59375 62.3125 
Q 48.875 64.0625 45.09375 64.984375 
Q 41.3125 65.921875 37.59375 65.921875 
Q 27.828125 65.921875 22.671875 59.328125 
Q 17.53125 52.734375 16.796875 39.40625 
Q 19.671875 43.65625 24.015625 45.921875 
Q 28.375 48.1875 33.59375 48.1875 
Q 44.578125 48.1875 50.953125 41.515625 
Q 57.328125 34.859375 57.328125 23.390625 
Q 57.328125 12.15625 50.6875 5.359375 
Q 44.046875 -1.421875 33.015625 -1.421875 
Q 20.359375 -1.421875 13.671875 8.265625 
Q 6.984375 17.96875 6.984375 36.375 
Q 6.984375 53.65625 15.1875 63.9375 
Q 23.390625 74.21875 37.203125 74.21875 
Q 40.921875 74.21875 44.703125 73.484375 
Q 48.484375 72.75 52.59375 71.296875 
" id="BitstreamVeraSans-Roman-36"/>
      </defs>
      <g transform="translate(258.365 459.31125)scale(0.12 -0.12)">
       <use xlink:href="#BitstreamVeraSans-Roman-36"/>
      </g>
     </g>
    </g>
    <g id="ytick_5">
     <g id="line2d_31">
      <g>
       <use style="stroke:#000000;stroke-width:0.5;" x="270.0" xlink:href="#m807495e2f0" y="392.0"/>
      </g>
     </g>
     <g id="line2d_32">
      <g>
       <use style="stroke:#000000;stroke-width:0.5;" x="1944.0" xlink:href="#mce51cce538" y="392.0"/>
      </g>
     </g>
     <g id="text_15">
      <!-- 8 -->
      <g transform="translate(258.365 395.31125)scale(0.12 -0.12)">
       <use xlink:href="#BitstreamVeraSans-Roman-38"/>
      </g>
     </g>
    </g>
    <g id="ytick_6">
     <g id="line2d_33">
      <g>
       <use style="stroke:#000000;stroke-width:0.5;" x="270.0" xlink:href="#m807495e2f0" y="328.0"/>
      </g>
     </g>
     <g id="line2d_34">
      <g>
       <use style="stroke:#000000;stroke-width:0.5;" x="1944.0" xlink:href="#mce51cce538" y="328.0"/>
      </g>
     </g>
     <g id="text_16">
      <!-- 10 -->
      <g transform="translate(250.73 331.31125)scale(0.12 -0.12)">
       <use xlink:href="#BitstreamVeraSans-Roman-31"/>
       <use x="63.623046875" xlink:href="#BitstreamVeraSans-Roman-30"/>
      </g>
     </g>
    </g>
    <g id="ytick_7">
     <g id="line2d_35">
      <g>
       <use style="stroke:#000000;stroke-width:0.5;" x="270.0" xlink:href="#m807495e2f0" y="264.0"/>
      </g>
     </g>
     <g id="line2d_36">
      <g>
       <use style="stroke:#000000;stroke-width:0.5;" x="1944.0" xlink:href="#mce51cce538" y="264.0"/>
      </g>
     </g>
     <g id="text_17">
      <!-- 12 -->
      <g transform="translate(250.73 267.31125)scale(0.12 -0.12)">
       <use xlink:href="#BitstreamVeraSans-Roman-31"/>
       <use x="63.623046875" xlink:href="#BitstreamVeraSans-Roman-32"/>
      </g>
     </g>
    </g>
    <g id="ytick_8">
     <g id="line2d_37">
      <g>
       <use style="stroke:#000000;stroke-width:0.5;" x="270.0" xlink:href="#m807495e2f0" y="200.0"/>
      </g>
     </g>
     <g id="line2d_38">
      <g>
       <use style="stroke:#000000;stroke-width:0.5;" x="1944.0" xlink:href="#mce51cce538" y="200.0"/>
      </g>
     </g>
     <g id="text_18">
      <!-- 14 -->
      <g transform="translate(250.73 203.31125)scale(0.12 -0.12)">
       <use xlink:href="#BitstreamVeraSans-Roman-31"/>
       <use x="63.623046875" xlink:href="#BitstreamVeraSans-Roman-34"/>
      </g>
     </g>
    </g>
    <g id="ytick_9">
     <g id="line2d_39">
      <g>
       <use style="stroke:#000000;stroke-width:0.5;" x="270.0" xlink:href="#m807495e2f0" y="136.0"/>
      </g>
     </g>
     <g id="line2d_40">
      <g>
       <use style="stroke:#000000;stroke-width:0.5;" x="1944.0" xlink:href="#mce51cce538" y="136.0"/>
      </g>
     </g>
     <g id="text_19">
      <!-- 16 -->
      <g transform="translate(250.73 139.31125)scale(0.12 -0.12)">
       <use xlink:href="#BitstreamVeraSans-Roman-31"/>
       <use x="63.623046875" xlink:href="#BitstreamVeraSans-Roman-36"/>
      </g>
     </g>
    </g>
    <g id="ytick_10">
     <g id="line2d_41">
      <g>
       <use style="stroke:#000000;stroke-width:0.5;" x="270.0" xlink:href="#m807495e2f0" y="72.0"/>
      </g>
     </g>
     <g id="line2d_42">
      <g>
       <use style="stroke:#000000;stroke-width:0.5;" x="1944.0" xlink:href="#mce51cce538" y="72.0"/>
      </g>
     </g>
     <g id="text_20">
      <!-- 18 -->
      <g transform="translate(250.73 75.31125)scale(0.12 -0.12)">
       <use xlink:href="#BitstreamVeraSans-Roman-31"/>
       <use x="63.623046875" xlink:href="#BitstreamVeraSans-Roman-38"/>
      </g>
     </g>
    </g>
   </g>
  </g>
 </g>
 <defs>
  <clipPath id="p22854f59fa">
   <rect height="576.0" width="1674.0" x="270.0" y="72.0"/>
  </clipPath>
 </defs>
</svg>
