<?xml version="1.0" encoding="utf-8" standalone="no"?>
<!DOCTYPE svg PUBLIC "-//W3C//DTD SVG 1.1//EN"
  "http://www.w3.org/Graphics/SVG/1.1/DTD/svg11.dtd">
<!-- Created with matplotlib (http://matplotlib.org/) -->
<svg height="720pt" version="1.1" viewBox="0 0 2160 720" width="2160pt" xmlns="http://www.w3.org/2000/svg" xmlns:xlink="http://www.w3.org/1999/xlink">
 <defs>
  <style type="text/css">
*{stroke-linecap:butt;stroke-linejoin:round;stroke-miterlimit:100000;}
  </style>
 </defs>
 <g id="figure_1">
  <g id="patch_1">
   <path d="M 0 720 
L 2160 720 
L 2160 0 
L 0 0 
z
" style="fill:#ffffff;"/>
  </g>
  <g id="axes_1">
   <g id="patch_2">
    <path d="M 270 648 
L 1944 648 
L 1944 72 
L 270 72 
z
" style="fill:#ffffff;"/>
   </g>
   <g id="line2d_1">
    <path clip-path="url(#p4a572e9b49)" d="M 270 459.153249 
L 271.016393 419.967969 
L 272.032787 497.516662 
L 273.04918 485.192831 
L 274.065574 411.862588 
L 275.081967 363.698729 
L 276.098361 295.38406 
L 277.114754 306.267234 
L 278.131148 145.134129 
L 279.147541 125.918351 
L 280.163934 246.998473 
L 282.196721 312.476596 
L 283.213115 316.618971 
L 284.229508 333.262884 
L 285.245902 337.069454 
L 286.262295 388.321287 
L 287.278689 408.929408 
L 288.295082 420.561155 
L 289.311475 436.896557 
L 290.327869 462.53913 
L 291.344262 453.131383 
L 292.360656 448.325416 
L 293.377049 420.291837 
L 294.393443 376.229037 
L 295.409836 438.389169 
L 296.42623 453.716757 
L 297.442623 487.930793 
L 298.459016 483.753427 
L 299.47541 477.918909 
L 300.491803 386.500299 
L 301.508197 322.080619 
L 302.52459 212.247273 
L 303.540984 299.313301 
L 304.557377 290.347445 
L 305.57377 318.568421 
L 306.590164 315.721309 
L 307.606557 317.683582 
L 308.622951 296.959067 
L 309.639344 318.412274 
L 310.655738 412.568459 
L 311.672131 434.941935 
L 312.688525 471.846076 
L 313.704918 476.690644 
L 314.721311 484.440459 
L 315.737705 516.232205 
L 316.754098 503.056198 
L 317.770492 496.984854 
L 318.786885 517.326299 
L 319.803279 512.615308 
L 320.819672 510.039119 
L 321.836066 529.843422 
L 322.852459 511.81377 
L 323.868852 488.701651 
L 324.885246 436.117018 
L 325.901639 360.872727 
L 326.918033 145.508571 
L 327.934426 251.411729 
L 328.95082 318.674792 
L 329.967213 308.525438 
L 330.983607 364.289362 
L 332 362.774047 
L 333.016393 368.158931 
L 334.032787 384.450977 
L 335.04918 441.81207 
L 336.065574 464.174969 
L 337.081967 481.131243 
L 338.098361 493.389474 
L 339.114754 503.834458 
L 340.131148 530.02199 
L 341.147541 532.29837 
L 342.163934 525.696 
L 343.180328 543.246765 
L 344.196721 536.94446 
L 346.229508 564.60725 
L 347.245902 550.430309 
L 348.262295 506.054861 
L 349.278689 423.602017 
L 350.295082 366.66566 
L 351.311475 227.256853 
L 352.327869 242.208997 
L 353.344262 309.42565 
L 354.360656 367.35196 
L 355.377049 354.581695 
L 356.393443 391.356213 
L 357.409836 362.767527 
L 358.42623 392.491996 
L 359.442623 448.918283 
L 360.459016 450.33959 
L 361.47541 483.878254 
L 362.491803 494.820822 
L 364.52459 509.131327 
L 365.540984 508.622878 
L 366.557377 510.601993 
L 367.57377 520.122679 
L 368.590164 549.687958 
L 369.606557 543.271497 
L 370.622951 562.129719 
L 371.639344 544.733165 
L 372.655738 498.24795 
L 373.672131 429.537824 
L 374.688525 376.769113 
L 375.704918 240.576 
L 376.721311 310.331803 
L 377.737705 340.244819 
L 378.754098 326.380408 
L 379.770492 387.087568 
L 380.786885 369.077597 
L 381.803279 373.111579 
L 383.836066 438.669263 
L 385.868852 476.356523 
L 386.885246 473.531857 
L 387.901639 485.605594 
L 388.918033 496.113757 
L 389.934426 530.732563 
L 391.967213 511.453955 
L 392.983607 531.283629 
L 394 553.639684 
L 395.016393 566.237234 
L 396.032787 513.392031 
L 397.04918 422.268731 
L 398.065574 396.805424 
L 399.081967 374.422442 
L 400.098361 252.860737 
L 401.114754 238.217143 
L 402.131148 328.484934 
L 403.147541 323.581935 
L 404.163934 294.52557 
L 405.180328 391.332766 
L 406.196721 384.987042 
L 407.213115 377.730981 
L 408.229508 447.148052 
L 409.245902 439.336642 
L 410.262295 457.174893 
L 411.278689 444.055766 
L 412.295082 452.312956 
L 413.311475 434.223158 
L 414.327869 462.168613 
L 415.344262 478.030629 
L 416.360656 512.113483 
L 417.377049 528.461712 
L 418.393443 556.035167 
L 419.409836 563.773744 
L 420.42623 550.574689 
L 421.442623 509.9648 
L 422.459016 490.49856 
L 423.47541 467.040966 
L 424.491803 332.5824 
L 425.508197 338.40583 
L 426.52459 347.793171 
L 427.540984 431.365112 
L 428.557377 429.202482 
L 429.57377 464.203636 
L 430.590164 448.510248 
L 431.606557 457.115951 
L 432.622951 499.751226 
L 433.639344 502.417895 
L 434.655738 512.45283 
L 435.672131 520.584567 
L 436.688525 501.42471 
L 437.704918 487.499549 
L 439.737705 498.777202 
L 440.754098 526.052308 
L 441.770492 548.928 
L 442.786885 562.556779 
L 443.803279 581.054374 
L 444.819672 558.06502 
L 445.836066 521.798201 
L 446.852459 469.088103 
L 447.868852 404.584237 
L 448.885246 402.097249 
L 449.901639 347.757491 
L 451.934426 421.52 
L 452.95082 441.524607 
L 453.967213 458.930344 
L 454.983607 469.381224 
L 456 462.065989 
L 457.016393 502.798762 
L 458.032787 484.195359 
L 459.04918 488.486472 
L 460.065574 514.762267 
L 461.081967 530.699534 
L 462.098361 517.455584 
L 463.114754 528.450124 
L 464.131148 533.04291 
L 465.147541 530.694888 
L 466.163934 522.788759 
L 467.180328 540.66264 
L 468.196721 553.908221 
L 469.213115 516.89334 
L 470.229508 496.973035 
L 471.245902 456.732824 
L 472.262295 410.229677 
L 473.278689 331.464041 
L 474.295082 360.476496 
L 475.311475 397.011064 
L 476.327869 392.510769 
L 477.344262 411.427167 
L 478.360656 452.918278 
L 479.377049 477.220645 
L 480.393443 489.401816 
L 481.409836 507.612319 
L 482.42623 530.076422 
L 483.442623 479.18518 
L 484.459016 475.886259 
L 485.47541 488.194286 
L 486.491803 487.247894 
L 487.508197 526.183321 
L 489.540984 491.550432 
L 490.557377 520.400231 
L 491.57377 553.387314 
L 492.590164 558.0288 
L 493.606557 543.828135 
L 494.622951 516.993761 
L 495.639344 483.729132 
L 496.655738 442.987678 
L 497.672131 304.097238 
L 498.688525 365.80608 
L 500.721311 391.057131 
L 501.737705 416.623729 
L 502.754098 461.989295 
L 503.770492 443.984516 
L 505.803279 462.961497 
L 506.819672 474.726974 
L 507.836066 508.812104 
L 508.852459 507.043091 
L 509.868852 513.994808 
L 510.885246 519.577933 
L 511.901639 519.599861 
L 512.918033 520.157538 
L 513.934426 547.55563 
L 514.95082 553.503581 
L 515.967213 557.980724 
L 516.983607 536.466804 
L 518 521.670244 
L 519.016393 463.9457 
L 520.032787 439.592727 
L 521.04918 394.763894 
L 522.065574 303.48 
L 523.081967 350.860517 
L 524.098361 369.259472 
L 525.114754 402.794513 
L 527.147541 441.571765 
L 530.196721 487.735641 
L 531.213115 463.520982 
L 532.229508 483.709393 
L 533.245902 489.250674 
L 534.262295 496.609666 
L 535.278689 535.372929 
L 536.295082 545.164481 
L 537.311475 547.301881 
L 538.327869 554.561652 
L 539.344262 556.76522 
L 540.360656 561.255027 
L 541.377049 584.90364 
L 543.409836 529.901977 
L 544.42623 470.905714 
L 545.442623 453.417931 
L 546.459016 337.152803 
L 547.47541 346.701745 
L 548.491803 365.445818 
L 549.508197 380.000521 
L 550.52459 387.475349 
L 551.540984 427.373285 
L 552.557377 429.491613 
L 553.57377 444.351524 
L 554.590164 462.44803 
L 555.606557 454.912249 
L 556.622951 486.841744 
L 557.639344 482.175489 
L 558.655738 482.833991 
L 559.672131 474.812436 
L 560.688525 486.298438 
L 561.704918 504.033763 
L 562.721311 511.828539 
L 563.737705 517.941426 
L 565.770492 549.385613 
L 567.803279 466.584202 
L 568.819672 407.286857 
L 570.852459 249.400867 
L 571.868852 277.824 
L 572.885246 324.408358 
L 573.901639 312.967934 
L 574.918033 405.433347 
L 575.934426 395.227826 
L 576.95082 373.284324 
L 577.967213 395.236174 
L 578.983607 388.8 
L 580 462.243639 
L 581.016393 474.795198 
L 582.032787 499.769517 
L 583.04918 502.214828 
L 584.065574 526.447487 
L 585.081967 512.63411 
L 586.098361 492.467753 
L 587.114754 502.698768 
L 589.147541 543.297515 
L 590.163934 549.424762 
L 591.180328 474.073796 
L 592.196721 367.765333 
L 593.213115 408.04424 
L 594.229508 378.770683 
L 595.245902 270.509268 
L 596.262295 338.873492 
L 598.295082 405.48507 
L 600.327869 249.639024 
L 602.360656 387.387692 
L 603.377049 411.996481 
L 604.393443 430.063391 
L 605.409836 445.964058 
L 607.442623 495.78818 
L 608.459016 489.826772 
L 609.47541 502.648124 
L 610.491803 493.927767 
L 611.508197 494.627328 
L 612.52459 499.859277 
L 613.540984 522.203206 
L 614.557377 535.56 
L 616.590164 456.457046 
L 617.606557 423.908571 
L 618.622951 352.411429 
L 619.639344 319.861895 
L 620.655738 317.075159 
L 621.672131 399.45887 
L 622.688525 352.030189 
L 623.704918 293.310826 
L 624.721311 369.188571 
L 625.737705 366.436571 
L 626.754098 373.261561 
L 627.770492 358.342831 
L 628.786885 404.864703 
L 629.803279 399.339574 
L 630.819672 414.639036 
L 631.836066 467.770163 
L 632.852459 464.965048 
L 633.868852 494.388084 
L 634.885246 491.40063 
L 636.918033 515.225094 
L 638.95082 542.169015 
L 639.967213 511.149106 
L 640.983607 488.828777 
L 642 453.281168 
L 643.016393 350.943004 
L 644.032787 340.6976 
L 645.04918 340.032 
L 646.065574 393.998049 
L 647.081967 361.225532 
L 648.098361 349.43057 
L 649.114754 378.912897 
L 650.131148 344.209171 
L 651.147541 363.345419 
L 653.180328 446.305959 
L 654.196721 452.399839 
L 655.213115 452.10566 
L 656.229508 443.362722 
L 657.245902 462.194809 
L 658.262295 436.765091 
L 659.278689 428.886966 
L 660.295082 458.350708 
L 661.311475 454.582857 
L 662.327869 483.482975 
L 663.344262 493.988229 
L 664.360656 441.026727 
L 665.377049 448.856471 
L 666.393443 426.080618 
L 667.409836 339.37639 
L 668.42623 349.175547 
L 669.442623 385.615059 
L 670.459016 410.079667 
L 671.47541 363.061479 
L 672.491803 375.198655 
L 673.508197 369.549474 
L 674.52459 352.848539 
L 675.540984 363.191351 
L 676.557377 408.397434 
L 677.57377 435.611515 
L 678.590164 467.242213 
L 679.606557 488.653427 
L 680.622951 449.698168 
L 682.655738 471.376659 
L 683.672131 489.289984 
L 684.688525 456.533598 
L 685.704918 518.467066 
L 686.721311 523.040558 
L 687.737705 525.972835 
L 688.754098 515.824917 
L 689.770492 461.804982 
L 690.786885 457.051073 
L 691.803279 421.096486 
L 692.819672 339.939715 
L 693.836066 358.966645 
L 694.852459 388.115245 
L 695.868852 340.966957 
L 696.885246 384.785455 
L 697.901639 395.177567 
L 698.918033 393.115119 
L 699.934426 343.044507 
L 700.95082 398.458359 
L 701.967213 388.184983 
L 702.983607 448.226828 
L 704 494.443786 
L 705.016393 507.441418 
L 706.032787 502.026667 
L 707.04918 514.919048 
L 708.065574 511.412839 
L 709.081967 512.970492 
L 710.098361 509.198049 
L 711.114754 514.111057 
L 712.131148 524.448458 
L 713.147541 473.077029 
L 714.163934 427.550096 
L 715.180328 312.377573 
L 716.196721 467.965146 
L 717.213115 355.724536 
L 718.229508 334.941031 
L 719.245902 363.159494 
L 720.262295 388.155058 
L 721.278689 398.556735 
L 722.295082 415.254611 
L 723.311475 372.155188 
L 724.327869 405.624407 
L 725.344262 408.29415 
L 726.360656 446.105169 
L 727.377049 466.784381 
L 728.393443 467.022255 
L 729.409836 481.909262 
L 730.42623 488.857929 
L 731.442623 499.057103 
L 732.459016 514.124161 
L 733.47541 539.451355 
L 734.491803 539.513007 
L 735.508197 546.367872 
L 736.52459 556.292652 
L 737.540984 525.530197 
L 738.557377 456.455766 
L 739.57377 450.255981 
L 741.606557 323.310891 
L 742.622951 311.833043 
L 743.639344 371.97 
L 744.655738 405.477909 
L 745.672131 383.074184 
L 746.688525 367.400265 
L 747.704918 364.608 
L 748.721311 413.94432 
L 749.737705 406.013023 
L 750.754098 443.678371 
L 751.770492 472.018286 
L 752.786885 481.883437 
L 753.803279 452.900624 
L 754.819672 449.005436 
L 755.836066 450.254083 
L 756.852459 444.865329 
L 757.868852 480.842572 
L 758.885246 531.843678 
L 759.901639 523.594116 
L 760.918033 533.193088 
L 761.934426 500.957693 
L 763.967213 441.426071 
L 764.983607 421.436617 
L 766 288.127434 
L 767.016393 386.995925 
L 768.032787 368.111716 
L 769.04918 377.088 
L 770.065574 358.674081 
L 771.081967 358.006493 
L 772.098361 349.981676 
L 773.114754 365.441608 
L 774.131148 411.116382 
L 775.147541 443.52 
L 776.163934 444.196284 
L 777.180328 449.538936 
L 778.196721 466.899335 
L 779.213115 464.379191 
L 780.229508 479.35578 
L 781.245902 503.28381 
L 782.262295 515.437056 
L 783.278689 532.348235 
L 784.295082 546.387692 
L 785.311475 556.854606 
L 786.327869 506.994704 
L 788.360656 485.622857 
L 789.377049 440.000986 
L 790.393443 362.933665 
L 791.409836 358.566636 
L 792.42623 364.996315 
L 793.442623 414.329338 
L 794.459016 383.895197 
L 795.47541 358.952727 
L 796.491803 358.338098 
L 797.508197 376.314182 
L 798.52459 397.385201 
L 799.540984 431.693982 
L 800.557377 447.863351 
L 801.57377 505.332706 
L 802.590164 496.393748 
L 803.606557 483.130996 
L 804.622951 484.277305 
L 805.639344 493.040708 
L 806.655738 515.163679 
L 807.672131 498.75052 
L 808.688525 549.011103 
L 809.704918 562.868772 
L 810.721311 494.197025 
L 811.737705 468.026802 
L 812.754098 516.791093 
L 813.770492 446.170822 
L 814.786885 352.612174 
L 815.803279 364.401169 
L 816.819672 393.472 
L 817.836066 374.638195 
L 818.852459 360.948148 
L 819.868852 376.825008 
L 820.885246 358.626851 
L 821.901639 388.839881 
L 822.918033 454.535355 
L 823.934426 487.890067 
L 824.95082 505.08796 
L 825.967213 508.495274 
L 826.983607 520.849793 
L 828 531.425819 
L 829.016393 514.717629 
L 830.032787 534.366163 
L 831.04918 528.795658 
L 833.081967 566.789398 
L 834.098361 580.593479 
L 835.114754 516.490303 
L 836.131148 498.825532 
L 837.147541 533.138824 
L 839.180328 402.910929 
L 840.196721 399.49056 
L 841.213115 391.391175 
L 843.245902 406.584242 
L 844.262295 412.433455 
L 845.278689 332.38175 
L 846.295082 399.793371 
L 847.311475 459.648373 
L 848.327869 477.507752 
L 849.344262 485.938983 
L 850.360656 515.097903 
L 851.377049 521.564444 
L 852.393443 529.395974 
L 853.409836 523.653467 
L 854.42623 533.443902 
L 855.442623 538.819459 
L 856.459016 564.298926 
L 857.47541 579.258015 
L 858.491803 586.153651 
L 859.508197 539.635564 
L 860.52459 472.397241 
L 861.540984 492.8256 
L 862.557377 459.595456 
L 863.57377 336.170959 
L 864.590164 409.602645 
L 865.606557 407.166792 
L 866.622951 392.647245 
L 867.639344 383.808 
L 868.655738 381.983119 
L 869.672131 373.210193 
L 870.688525 365.421176 
L 871.704918 401.943475 
L 872.721311 457.32249 
L 873.737705 481.12908 
L 874.754098 483.666767 
L 875.770492 500.630333 
L 876.786885 489.795797 
L 877.803279 474.167273 
L 878.819672 482.347997 
L 879.836066 494.39416 
L 880.852459 533.172816 
L 881.868852 539.3783 
L 882.885246 551.477723 
L 883.901639 531.396665 
L 884.918033 488.55975 
L 885.934426 488.55975 
L 886.95082 481.012568 
L 887.967213 330.833455 
L 888.983607 393.618113 
L 890 380.750769 
L 891.016393 405.212055 
L 892.032787 396.141851 
L 893.04918 427.834711 
L 894.065574 381.230211 
L 895.081967 395.081005 
L 896.098361 459.859794 
L 897.114754 457.693076 
L 898.131148 440.254393 
L 899.147541 468.996923 
L 900.163934 492.557363 
L 901.180328 498.006388 
L 902.196721 486.473846 
L 903.213115 468.125443 
L 904.229508 484.281273 
L 905.245902 485.314699 
L 906.262295 509.605989 
L 907.278689 547.291636 
L 908.295082 517.431751 
L 909.311475 399.627068 
L 910.327869 472.98816 
L 911.344262 450.026667 
L 912.360656 361.804977 
L 913.377049 420.808101 
L 914.393443 385.407123 
L 915.409836 374.158943 
L 916.42623 394.33006 
L 917.442623 383.402517 
L 918.459016 369.586344 
L 919.47541 391.705791 
L 920.491803 395.130062 
L 921.508197 407.54717 
L 922.52459 435.841947 
L 923.540984 445.509359 
L 924.557377 436.067629 
L 925.57377 432.27032 
L 926.590164 408.176203 
L 927.606557 446.847418 
L 928.622951 466.499338 
L 929.639344 449.828262 
L 930.655738 475.885515 
L 931.672131 485.867298 
L 932.688525 467.445015 
L 933.704918 393.436981 
L 934.721311 462.791568 
L 935.737705 505.329231 
L 936.754098 371.9808 
L 937.770492 386.262378 
L 938.786885 361.251476 
L 939.803279 399.190868 
L 940.819672 413.003785 
L 941.836066 407.714043 
L 942.852459 373.583844 
L 943.868852 375.641379 
L 945.901639 375.641379 
L 946.918033 443.877325 
L 947.934426 463.369548 
L 948.95082 440.812944 
L 949.967213 423.614247 
L 950.983607 462.367179 
L 952 479.694932 
L 953.016393 478.712711 
L 954.032787 481.536749 
L 955.04918 479.23237 
L 956.065574 492.17446 
L 957.081967 481.134087 
L 958.098361 441.401283 
L 959.114754 467.282618 
L 960.131148 426.323542 
L 961.147541 288.317235 
L 962.163934 374.053194 
L 963.180328 342.160457 
L 964.196721 383.196948 
L 965.213115 350.899475 
L 966.229508 365.384891 
L 968.262295 387.645726 
L 969.278689 450.573639 
L 970.295082 454.088514 
L 971.311475 471.067154 
L 972.327869 466.112332 
L 973.344262 453.232713 
L 974.360656 437.63742 
L 975.377049 434.846203 
L 976.393443 414.914356 
L 977.409836 443.738614 
L 978.42623 464.239311 
L 979.442623 480.039657 
L 980.459016 477.32526 
L 981.47541 481.501846 
L 982.491803 490.450909 
L 983.508197 429.531429 
L 984.52459 431.738716 
L 985.540984 347.877647 
L 986.557377 391.537548 
L 987.57377 421.241036 
L 988.590164 379.101853 
L 989.606557 386.420386 
L 990.622951 358.72 
L 991.639344 382.149426 
L 992.655738 394.020192 
L 993.672131 433.749533 
L 994.688525 447.691312 
L 995.704918 438.914105 
L 996.721311 454.745477 
L 997.737705 462.692571 
L 998.754098 466.288 
L 999.770492 458.777528 
L 1000.786885 453.99156 
L 1001.803279 462.294402 
L 1002.819672 491.213278 
L 1003.836066 502.495551 
L 1004.852459 520.940723 
L 1005.868852 509.4528 
L 1006.885246 507.345882 
L 1007.901639 484.610589 
L 1008.918033 455.013084 
L 1009.934426 367.334465 
L 1010.95082 375.911789 
L 1011.967213 432.310154 
L 1012.983607 418.935652 
L 1014 425.882353 
L 1015.016393 415.965405 
L 1016.032787 380.894897 
L 1017.04918 404.454922 
L 1018.065574 409.736519 
L 1019.081967 426.341647 
L 1020.098361 447.765593 
L 1021.114754 443.708189 
L 1022.131148 451.61489 
L 1023.147541 456.642896 
L 1024.163934 449.130519 
L 1025.180328 461.632 
L 1026.196721 453.391274 
L 1027.213115 466.424471 
L 1028.229508 452.952661 
L 1029.245902 516.942734 
L 1030.262295 480.423464 
L 1031.278689 457.473146 
L 1032.295082 454.255759 
L 1033.311475 438.757088 
L 1034.327869 335.511093 
L 1035.344262 357.739065 
L 1036.360656 369.166452 
L 1037.377049 355.27646 
L 1038.393443 404.585038 
L 1039.409836 390.570051 
L 1040.42623 383.077042 
L 1041.442623 388.773699 
L 1042.459016 418.764255 
L 1043.47541 403.21229 
L 1044.491803 451.046379 
L 1045.508197 446.907473 
L 1046.52459 459.230476 
L 1047.540984 445.0176 
L 1048.557377 427.794431 
L 1049.57377 420.387243 
L 1050.590164 442.959817 
L 1051.606557 452.77733 
L 1052.622951 445.380498 
L 1053.639344 494.97863 
L 1054.655738 456.351173 
L 1055.672131 434.43 
L 1056.688525 442.763874 
L 1057.704918 379.705727 
L 1058.721311 301.236364 
L 1059.737705 369.221893 
L 1060.754098 367.565373 
L 1061.770492 347.911111 
L 1062.786885 366.51956 
L 1063.803279 369.572958 
L 1064.819672 330.848244 
L 1065.836066 361.337806 
L 1066.852459 371.569655 
L 1067.868852 412.913898 
L 1068.885246 423.657931 
L 1069.901639 419.859581 
L 1070.918033 408.306709 
L 1071.934426 409.901222 
L 1072.95082 408.284636 
L 1073.967213 435.189239 
L 1074.983607 438.622764 
L 1076 456.121817 
L 1077.016393 482.535249 
L 1078.032787 500.258969 
L 1079.04918 479.647648 
L 1080.065574 445.791697 
L 1081.081967 465.078448 
L 1082.098361 387.094326 
L 1083.114754 336.293961 
L 1084.131148 324.429474 
L 1085.147541 343.200932 
L 1086.163934 420.793663 
L 1087.180328 401.34366 
L 1088.196721 366.005788 
L 1089.213115 374.436923 
L 1090.229508 345.696 
L 1091.245902 371.148739 
L 1092.262295 411.523281 
L 1093.278689 434.330985 
L 1094.295082 393.438779 
L 1095.311475 436.541976 
L 1096.327869 441.374831 
L 1097.344262 451.236883 
L 1098.360656 490.971802 
L 1099.377049 520.091934 
L 1100.393443 525.878853 
L 1101.409836 538.740627 
L 1102.42623 547.628993 
L 1103.442623 503.189956 
L 1104.459016 438.959611 
L 1105.47541 465.051705 
L 1106.491803 361.409462 
L 1107.508197 204 
L 1109.540984 380.786087 
L 1110.557377 366.699323 
L 1111.57377 374.592 
L 1112.590164 383.935337 
L 1113.606557 378.547645 
L 1114.622951 390.978054 
L 1115.639344 378.00699 
L 1116.655738 399.801415 
L 1117.672131 439.005705 
L 1118.688525 431.23252 
L 1119.704918 439.90756 
L 1121.737705 422.178382 
L 1122.754098 426.542538 
L 1123.770492 455.324067 
L 1124.786885 495.463833 
L 1125.803279 503.39601 
L 1127.836066 490.738961 
L 1128.852459 397.471191 
L 1129.868852 427.60186 
L 1130.885246 367.845847 
L 1131.901639 256.442553 
L 1132.918033 329.375404 
L 1133.934426 365.902473 
L 1134.95082 360.194157 
L 1135.967213 409.178483 
L 1136.983607 370.518261 
L 1138 353.974154 
L 1139.016393 379.244393 
L 1140.032787 373.806788 
L 1141.04918 364.048696 
L 1142.065574 408.872167 
L 1143.081967 408.587508 
L 1144.098361 410.265353 
L 1145.114754 460.464689 
L 1146.131148 418.196891 
L 1147.147541 432.005343 
L 1148.163934 430.414382 
L 1149.180328 462.10419 
L 1150.196721 460.970526 
L 1151.213115 463.968 
L 1152.229508 414.227848 
L 1153.245902 429.997241 
L 1154.262295 408.892297 
L 1155.278689 344.4 
L 1156.295082 269.582049 
L 1157.311475 385.193271 
L 1158.327869 422.662601 
L 1159.344262 374.802235 
L 1160.360656 314.967273 
L 1161.377049 381.691915 
L 1162.393443 327.790389 
L 1163.409836 377.051264 
L 1164.42623 353.112063 
L 1165.442623 374.537143 
L 1166.459016 387.977143 
L 1167.47541 407.874573 
L 1168.491803 394.372683 
L 1169.508197 395.73551 
L 1170.52459 342.820637 
L 1171.540984 389.221174 
L 1172.557377 422.470012 
L 1173.57377 431.48687 
L 1174.590164 436.701133 
L 1175.606557 449.64 
L 1176.622951 436.633043 
L 1177.639344 452.893091 
L 1178.655738 435.573746 
L 1179.672131 331.091321 
L 1180.688525 199.261538 
L 1181.704918 331.627212 
L 1182.721311 363.895652 
L 1183.737705 413.28 
L 1184.754098 385.579445 
L 1185.770492 362.908704 
L 1186.786885 358.851378 
L 1187.803279 361.593469 
L 1188.819672 399.322335 
L 1189.836066 385.184908 
L 1190.852459 384.882601 
L 1191.868852 381.049526 
L 1192.885246 343.268313 
L 1193.901639 451.625143 
L 1194.918033 451.229091 
L 1195.934426 427.340488 
L 1196.95082 461.601468 
L 1197.967213 460.531564 
L 1198.983607 489.750785 
L 1200 501.12 
L 1201.016393 482.552889 
L 1202.032787 419.724255 
L 1203.04918 413.241081 
L 1204.065574 344.008871 
L 1205.081967 190.577592 
L 1206.098361 345.721165 
L 1207.114754 334.8096 
L 1208.131148 331.413333 
L 1209.147541 336.773189 
L 1210.163934 354.355663 
L 1211.180328 337.405714 
L 1212.196721 309.919582 
L 1213.213115 323.963753 
L 1214.229508 360.226623 
L 1216.262295 399.732617 
L 1217.278689 423.797806 
L 1218.295082 404.104446 
L 1219.311475 407.201416 
L 1220.327869 417.974502 
L 1221.344262 459.808169 
L 1222.360656 491.613451 
L 1223.377049 474.562566 
L 1224.393443 493.571269 
L 1225.409836 464.544183 
L 1226.42623 443.365022 
L 1227.442623 441.901643 
L 1228.459016 392.371399 
L 1229.47541 223.669029 
L 1230.491803 357.556364 
L 1231.508197 365.923533 
L 1232.52459 386.109592 
L 1233.540984 368.780488 
L 1234.557377 371.111489 
L 1235.57377 357.006614 
L 1236.590164 278.834373 
L 1237.606557 348.24688 
L 1238.622951 341.897143 
L 1239.639344 403.721492 
L 1240.655738 395.562466 
L 1241.672131 389.840733 
L 1242.688525 396.68003 
L 1243.704918 398.322581 
L 1244.721311 430.473199 
L 1245.737705 447.924706 
L 1246.754098 447.215094 
L 1248.786885 464.19295 
L 1249.803279 447.355337 
L 1250.819672 400.479063 
L 1251.836066 409.748953 
L 1252.852459 346.052129 
L 1253.868852 304.098462 
L 1254.885246 304.252867 
L 1255.901639 379.844129 
L 1256.918033 341.316303 
L 1257.934426 386.526012 
L 1258.95082 337.703226 
L 1259.967213 340.066734 
L 1260.983607 272.786628 
L 1263.016393 350.581622 
L 1264.032787 350.435955 
L 1265.04918 426.982936 
L 1266.065574 371.481632 
L 1267.081967 325.525018 
L 1268.098361 340.416 
L 1269.114754 382.02624 
L 1270.131148 432.666269 
L 1271.147541 416.105514 
L 1272.163934 474.890738 
L 1273.180328 482.685815 
L 1276.229508 390.591671 
L 1277.245902 314.182814 
L 1278.262295 281.77618 
L 1279.278689 259.388141 
L 1280.295082 293.916279 
L 1281.311475 365.615276 
L 1282.327869 299.173392 
L 1283.344262 332.484076 
L 1284.360656 350.123908 
L 1285.377049 379.42162 
L 1286.393443 417.055135 
L 1287.409836 343.830857 
L 1288.42623 368.106667 
L 1289.442623 378.089564 
L 1290.459016 419.113922 
L 1291.47541 448.232436 
L 1292.491803 415.06298 
L 1293.508197 420.827101 
L 1294.52459 465.863147 
L 1295.540984 442.715266 
L 1296.557377 463.392567 
L 1297.57377 459.82423 
L 1298.590164 398.06111 
L 1299.606557 363.335907 
L 1300.622951 362.808889 
L 1301.639344 291.746407 
L 1302.655738 144.492776 
L 1303.672131 246.762667 
L 1304.688525 326.557091 
L 1305.704918 314.577297 
L 1306.721311 347.84 
L 1307.737705 269.41402 
L 1308.754098 311.398585 
L 1309.770492 282.228676 
L 1311.803279 377.559421 
L 1312.819672 388.15787 
L 1313.836066 325.360688 
L 1314.852459 355.2 
L 1315.868852 410.03678 
L 1316.885246 429.072554 
L 1317.901639 383.409812 
L 1318.918033 390.826598 
L 1319.934426 382.555813 
L 1320.95082 444.147081 
L 1321.967213 468.014257 
L 1322.983607 434.625 
L 1324 405.49374 
L 1326.032787 221.850947 
L 1327.04918 186.726899 
L 1328.065574 261.64898 
L 1329.081967 318.027668 
L 1330.098361 351.689552 
L 1331.114754 241.709268 
L 1332.131148 208.627558 
L 1333.147541 170.851989 
L 1334.163934 254.840133 
L 1335.180328 265.349476 
L 1336.196721 324.957681 
L 1337.213115 366.994286 
L 1338.229508 369.079399 
L 1339.245902 391.538861 
L 1340.262295 404.11357 
L 1341.278689 431.650736 
L 1342.295082 423.435059 
L 1343.311475 408.442514 
L 1344.327869 417.362963 
L 1345.344262 432.692093 
L 1346.360656 433.330383 
L 1347.377049 415.217013 
L 1348.393443 363.131163 
L 1349.409836 259.904 
L 1350.42623 206.54792 
L 1351.442623 238.462717 
L 1352.459016 334.181463 
L 1353.47541 344.463006 
L 1354.491803 333.042424 
L 1355.508197 334.714754 
L 1356.52459 295.115038 
L 1357.540984 240.880473 
L 1358.557377 304.103257 
L 1359.57377 324.926684 
L 1360.590164 363.721237 
L 1361.606557 385.385342 
L 1363.639344 440.803404 
L 1365.672131 382.321152 
L 1366.688525 424.268596 
L 1367.704918 443.492571 
L 1369.737705 501.590383 
L 1370.754098 506.1997 
L 1371.770492 453.320056 
L 1372.786885 359.814721 
L 1373.803279 295.894588 
L 1374.819672 277.292308 
L 1375.836066 167.605714 
L 1376.852459 280.644197 
L 1377.868852 357.504 
L 1378.885246 308.650599 
L 1379.901639 327.576377 
L 1380.918033 297.152456 
L 1381.934426 242.593181 
L 1382.95082 249.786787 
L 1384.983607 313.404179 
L 1386 303.88719 
L 1387.016393 345.250499 
L 1388.032787 360.33572 
L 1389.04918 369.500655 
L 1392.098361 387.924821 
L 1395.147541 509.351089 
L 1396.163934 481.767896 
L 1397.180328 396.087514 
L 1398.196721 354.515426 
L 1399.213115 232.089302 
L 1400.229508 243.06411 
L 1401.245902 314.597647 
L 1402.262295 326.619522 
L 1403.278689 286.923283 
L 1404.295082 286.343627 
L 1405.311475 247.559544 
L 1406.327869 196.8 
L 1407.344262 279.525161 
L 1408.360656 287.008 
L 1409.377049 347.089001 
L 1410.393443 370.067232 
L 1411.409836 377.099839 
L 1412.42623 417.072716 
L 1413.442623 392.579079 
L 1414.459016 416.319038 
L 1415.47541 434.11954 
L 1416.491803 443.59619 
L 1417.508197 474.805779 
L 1418.52459 493.186798 
L 1419.540984 516.700465 
L 1420.557377 477.585799 
L 1421.57377 431.311414 
L 1422.590164 444.229565 
L 1423.606557 371.639172 
L 1424.622951 336.578931 
L 1425.639344 351.796812 
L 1426.655738 371.445437 
L 1427.672131 379.296 
L 1428.688525 382.990979 
L 1429.704918 361.527201 
L 1430.721311 393.63616 
L 1431.737705 306.527824 
L 1432.754098 310.97574 
L 1433.770492 393.101772 
L 1434.786885 348.759427 
L 1435.803279 401.074585 
L 1436.819672 395.161043 
L 1438.852459 429.320482 
L 1439.868852 458.788927 
L 1440.885246 477.70977 
L 1441.901639 484.885268 
L 1442.918033 508.236694 
L 1443.934426 546.070719 
L 1444.95082 506.058929 
L 1445.967213 428.330592 
L 1446.983607 463.110643 
L 1448 326.392558 
L 1449.016393 249.593557 
L 1450.032787 313.883659 
L 1451.04918 295.637406 
L 1452.065574 356.189538 
L 1453.081967 337.808842 
L 1454.098361 325.96463 
L 1455.114754 288.310154 
L 1456.131148 275.649571 
L 1458.163934 361.802283 
L 1459.180328 388.264314 
L 1460.196721 394.773333 
L 1461.213115 410.622792 
L 1462.229508 398.934684 
L 1463.245902 396.080406 
L 1464.262295 434.155822 
L 1465.278689 449.73 
L 1466.295082 484.272814 
L 1467.311475 479.241113 
L 1468.327869 524.461882 
L 1469.344262 458.494148 
L 1470.360656 429.589945 
L 1471.377049 424.698592 
L 1472.393443 314.310068 
L 1473.409836 246.744935 
L 1474.42623 299.832493 
L 1475.442623 295.934229 
L 1476.459016 309.654577 
L 1477.47541 274.294468 
L 1478.491803 212.04 
L 1479.508197 285.07336 
L 1480.52459 282.879164 
L 1481.540984 335.28233 
L 1482.557377 414.479416 
L 1483.57377 416.600489 
L 1484.590164 385.786329 
L 1485.606557 406.215529 
L 1486.622951 422.996466 
L 1487.639344 414.630255 
L 1488.655738 461.889989 
L 1489.672131 470.573494 
L 1490.688525 481.012109 
L 1491.704918 502.370909 
L 1492.721311 534.510207 
L 1493.737705 488 
L 1494.754098 390.536794 
L 1495.770492 428.317041 
L 1496.786885 328.184838 
L 1497.803279 282.302458 
L 1498.819672 320.7552 
L 1499.836066 375.691588 
L 1500.852459 363.490909 
L 1501.868852 290.098983 
L 1502.885246 252.660942 
L 1503.901639 291.650095 
L 1504.918033 314.507755 
L 1505.934426 318.561616 
L 1506.95082 414.609045 
L 1507.967213 440.912432 
L 1508.983607 443.405906 
L 1510 437.141619 
L 1511.016393 444.78 
L 1512.032787 431.351859 
L 1513.04918 429.787975 
L 1514.065574 467.5968 
L 1515.081967 461.958901 
L 1516.098361 500.103144 
L 1517.114754 523.856203 
L 1518.131148 474.375835 
L 1519.147541 380.820779 
L 1520.163934 431.459086 
L 1521.180328 331.498962 
L 1522.196721 251.944451 
L 1523.213115 339.207228 
L 1524.229508 380.271098 
L 1525.245902 391.146667 
L 1526.262295 367.19269 
L 1527.278689 368.96 
L 1528.295082 354.444901 
L 1529.311475 349.475294 
L 1530.327869 387.36 
L 1531.344262 436.38585 
L 1532.360656 454.899402 
L 1533.377049 440.203912 
L 1534.393443 452.474855 
L 1535.409836 457.30881 
L 1536.42623 479.996399 
L 1537.442623 489.67188 
L 1538.459016 497.569418 
L 1539.47541 510.299886 
L 1540.491803 535.281472 
L 1541.508197 538.069529 
L 1542.52459 500.952168 
L 1543.540984 410.568878 
L 1544.557377 441.641739 
L 1545.57377 362.008073 
L 1546.590164 152.599861 
L 1547.606557 292.881544 
L 1548.622951 298.9184 
L 1549.639344 349.472492 
L 1550.655738 331.763628 
L 1551.672131 322.218305 
L 1552.688525 355.308146 
L 1553.704918 314.402623 
L 1554.721311 377.476116 
L 1555.737705 374.385813 
L 1556.754098 373.809464 
L 1557.770492 386.371908 
L 1558.786885 422.434286 
L 1559.803279 398.156488 
L 1560.819672 418.729893 
L 1561.836066 474.124058 
L 1562.852459 486.356211 
L 1563.868852 502.068997 
L 1564.885246 514.776443 
L 1565.901639 523.42522 
L 1566.918033 463.556018 
L 1567.934426 430.946517 
L 1568.95082 392.706783 
L 1569.967213 322.91342 
L 1570.983607 160.17039 
L 1572 230.781687 
L 1573.016393 283.2 
L 1574.032787 350.996975 
L 1575.04918 380.668235 
L 1576.065574 369.525195 
L 1577.081967 339.865043 
L 1578.098361 318.483117 
L 1580.131148 405.910588 
L 1581.147541 421.498102 
L 1582.163934 433.336392 
L 1583.180328 436.30382 
L 1584.196721 441.913792 
L 1585.213115 412.922049 
L 1586.229508 439.931077 
L 1587.245902 406.8 
L 1588.262295 475.371826 
L 1589.278689 498.428338 
L 1590.295082 516.284602 
L 1591.311475 480.461005 
L 1592.327869 434.658867 
L 1593.344262 401.325714 
L 1594.360656 323.961081 
L 1595.377049 193.846154 
L 1596.393443 207.545263 
L 1597.409836 410.629299 
L 1598.42623 338.647643 
L 1599.442623 345.6 
L 1599.442623 372.780547 
L 1600.459016 320.144076 
L 1601.47541 367.152941 
L 1602.491803 352.192224 
L 1603.508197 400.1037 
L 1604.52459 336.976203 
L 1605.540984 331.178693 
L 1607.57377 418.594726 
L 1608.590164 415.872664 
L 1609.606557 455.358428 
L 1610.622951 442.44973 
L 1611.639344 461.350865 
L 1612.655738 477.474414 
L 1613.672131 495.589859 
L 1614.688525 496.188493 
L 1615.704918 496.188493 
L 1616.721311 464.819755 
L 1617.737705 415.491076 
L 1618.754098 300.984573 
L 1619.770492 275.577313 
L 1620.786885 219.06383 
L 1621.803279 369.547156 
L 1622.819672 326.205449 
L 1623.836066 306.78184 
L 1624.852459 300.693333 
L 1625.868852 352.972594 
L 1626.885246 364.06498 
L 1628.918033 410.537739 
L 1629.934426 412.675884 
L 1630.95082 380.062041 
L 1631.967213 426.310913 
L 1632.983607 434.641546 
L 1634 419.124275 
L 1636.032787 480.669928 
L 1637.04918 489.08817 
L 1638.065574 496.025187 
L 1639.081967 521.97848 
L 1640.098361 464.768 
L 1642.131148 403.806316 
L 1643.147541 267.325984 
L 1644.163934 243.559385 
L 1645.180328 298.139178 
L 1646.196721 239.873441 
L 1647.213115 368.387082 
L 1648.229508 344.757791 
L 1649.245902 312.914899 
L 1650.262295 344.16 
L 1651.278689 313.715942 
L 1652.295082 328.885234 
L 1653.311475 362.861841 
L 1654.327869 376.156098 
L 1655.344262 394.044878 
L 1656.360656 400.447622 
L 1657.377049 408.886051 
L 1658.393443 427.620756 
L 1659.409836 413.792961 
L 1660.42623 452.146036 
L 1661.442623 450.897231 
L 1662.459016 465.225366 
L 1663.47541 475.236571 
L 1664.491803 427.580198 
L 1665.508197 421.974415 
L 1666.52459 393.683045 
L 1667.540984 336.790588 
L 1668.557377 270.863688 
L 1669.57377 308.678095 
L 1670.590164 374.475249 
L 1671.606557 291.482975 
L 1672.622951 338.028866 
L 1673.639344 344.038957 
L 1674.655738 355.972475 
L 1675.672131 369.782771 
L 1676.688525 375.216 
L 1677.704918 408.988464 
L 1678.721311 416.804796 
L 1679.737705 421.116947 
L 1680.754098 421.02882 
L 1681.770492 428.166115 
L 1682.786885 449.688436 
L 1683.803279 458.834286 
L 1685.836066 503.41743 
L 1686.852459 512.667309 
L 1687.868852 537.554752 
L 1688.885246 490.834286 
L 1689.901639 473.001388 
L 1690.918033 402.915165 
L 1691.934426 424.685523 
L 1692.95082 256.243072 
L 1693.967213 361.041166 
L 1694.983607 383.879776 
L 1696 409.655172 
L 1697.016393 380.122736 
L 1698.032787 356.290774 
L 1699.04918 348.058353 
L 1700.065574 371.113271 
L 1701.081967 390.902857 
L 1702.098361 423.074109 
L 1703.114754 429.492245 
L 1705.147541 476.745035 
L 1706.163934 483.879199 
L 1707.180328 493.995789 
L 1708.196721 482.293298 
L 1709.213115 509.668207 
L 1710.229508 520.091581 
L 1712.262295 550.402336 
L 1714.295082 468.848669 
L 1715.311475 446.675335 
L 1716.327869 349.390395 
L 1717.344262 283.172958 
L 1718.360656 329.802604 
L 1719.377049 300.832653 
L 1720.393443 378.943389 
L 1721.409836 425.214499 
L 1722.42623 362.320283 
L 1723.442623 392.680604 
L 1724.459016 350.075676 
L 1725.47541 357.832533 
L 1726.491803 412.674988 
L 1727.508197 431.022624 
L 1728.52459 395.838731 
L 1729.540984 446.934194 
L 1730.557377 442.929865 
L 1731.57377 447.40956 
L 1732.590164 454.221017 
L 1733.606557 472.631426 
L 1734.622951 509.746651 
L 1735.639344 522.902112 
L 1736.655738 528.300547 
L 1737.672131 435.017038 
L 1738.688525 395.930856 
L 1739.704918 364.695234 
L 1740.721311 307.216725 
L 1741.737705 296.180977 
L 1742.754098 292.752 
L 1743.770492 381.103009 
L 1744.786885 394.096552 
L 1745.803279 394.384569 
L 1746.819672 397.616792 
L 1747.836066 402.211971 
L 1748.852459 399.380084 
L 1749.868852 372.649669 
L 1750.885246 414.033985 
L 1751.901639 390.050289 
L 1752.918033 414.273006 
L 1753.934426 474.395661 
L 1754.95082 497.345753 
L 1755.967213 442.37536 
L 1756.983607 460.671446 
L 1758 431.744689 
L 1760.032787 495.029508 
L 1761.04918 499.12068 
L 1763.081967 395.503543 
L 1764.098361 357.605868 
L 1765.114754 358.920911 
L 1766.131148 287.877818 
L 1767.147541 308.315676 
L 1768.163934 339.548194 
L 1769.180328 348.732493 
L 1770.196721 323.012018 
L 1771.213115 377.657705 
L 1772.229508 331.493279 
L 1773.245902 387.561383 
L 1774.262295 392.668425 
L 1775.278689 418.318204 
L 1776.295082 392.122519 
L 1777.311475 311.764461 
L 1778.327869 265.857756 
L 1779.344262 251.857446 
L 1780.360656 224.631652 
L 1781.377049 248.43102 
L 1782.393443 355.635 
L 1783.409836 400.442137 
L 1784.42623 482.418975 
L 1785.442623 488.31815 
L 1786.459016 332.902268 
L 1788.491803 224.096508 
L 1789.508197 209.176615 
L 1790.52459 200.378182 
L 1791.540984 255.021972 
L 1792.557377 229.304471 
L 1794.590164 354.707027 
L 1795.606557 354.295922 
L 1796.622951 328.497778 
L 1797.639344 360.956206 
L 1798.655738 372.88293 
L 1799.672131 405.745394 
L 1800.688525 406.914783 
L 1822.032787 358.988392 
L 1823.04918 369.795748 
L 1824.065574 418.847513 
L 1825.081967 394.92864 
L 1826.098361 418.774271 
L 1827.114754 398.482534 
L 1828.131148 395.603758 
L 1829.147541 349.613779 
L 1830.163934 317.767065 
L 1831.180328 369.000315 
L 1832.196721 393.30482 
L 1833.213115 413.908623 
L 1834.229508 472.242835 
L 1835.245902 446.288072 
L 1836.262295 354.269742 
L 1837.278689 358.83362 
L 1838.295082 384.998866 
L 1839.311475 305.365545 
L 1840.327869 281.25606 
L 1841.344262 359.600792 
L 1842.360656 358.920911 
L 1843.377049 333.871468 
L 1844.393443 325.115493 
L 1845.409836 336.543928 
L 1846.42623 355.46368 
L 1847.442623 365.248624 
L 1849.47541 412.419408 
L 1850.491803 418.006708 
L 1851.508197 421.975549 
L 1852.52459 429.094314 
L 1853.540984 429.724045 
L 1854.557377 431.517975 
L 1855.57377 441.563077 
L 1856.590164 431.481755 
L 1857.606557 447.588571 
L 1858.622951 473.28 
L 1859.639344 409.572917 
L 1860.655738 361.520406 
L 1861.672131 363.31834 
L 1862.688525 318.222075 
L 1863.704918 294.812978 
L 1864.721311 313.975385 
L 1865.737705 306.213147 
L 1866.754098 368.282975 
L 1867.770492 359.754021 
L 1868.786885 332.318716 
L 1869.803279 312.773592 
L 1870.819672 350.277919 
L 1871.836066 358.866681 
L 1872.852459 388.566613 
L 1873.868852 397.359074 
L 1874.885246 407.810984 
L 1875.901639 435.32951 
L 1876.918033 455.337636 
L 1877.934426 435.210191 
L 1878.95082 468.017284 
L 1879.967213 470.070791 
L 1880.983607 475.591967 
L 1882 497.748547 
L 1883.016393 543.879081 
L 1884.032787 465.725217 
L 1885.04918 376.192901 
L 1886.065574 384.239603 
L 1887.081967 386.046374 
L 1888.098361 243.462194 
L 1889.114754 292.694795 
L 1890.131148 325.530353 
L 1892.163934 362.106514 
L 1893.180328 354.957576 
L 1894.196721 340.408055 
L 1895.213115 367.626877 
L 1896.229508 381.213867 
L 1897.245902 421.063291 
L 1898.262295 429.006091 
L 1899.278689 438.233501 
L 1900.295082 460.939694 
L 1901.311475 457.737084 
L 1902.327869 471.62236 
L 1903.344262 466.35541 
L 1905.377049 488.704228 
L 1906.393443 530.422485 
L 1907.409836 540.137772 
L 1908.42623 417.783952 
L 1909.442623 412.948587 
L 1910.459016 403.114146 
L 1911.47541 301.968539 
L 1912.491803 323.863579 
L 1913.508197 293.085957 
L 1914.52459 329.133435 
L 1915.540984 379.863389 
L 1916.557377 391.838242 
L 1917.57377 380.122271 
L 1918.590164 379.825662 
L 1919.606557 383.892599 
L 1920.622951 390.010701 
L 1921.639344 429.736409 
L 1922.655738 389.389307 
L 1924.688525 434.073486 
L 1925.704918 419.539338 
L 1926.721311 422.919111 
L 1927.737705 450.546714 
L 1928.754098 458.198946 
L 1930.786885 534.047091 
L 1931.803279 533.285955 
L 1932.819672 497.183899 
L 1933.836066 441.512727 
L 1934.852459 392.08638 
L 1935.868852 415.222857 
L 1936.885246 298.67497 
L 1937.901639 360.590769 
L 1938.918033 335.604706 
L 1939.934426 429.897878 
L 1940.95082 422.999165 
L 1941.967213 426.352941 
L 1942.983607 451.269818 
L 1944 396.110769 
L 1944 396.110769 
" style="fill:none;stroke:#0000ff;stroke-linecap:square;"/>
   </g>
   <g id="line2d_2"/>
   <g id="patch_3">
    <path d="M 270 72 
L 1944 72 
" style="fill:none;stroke:#000000;stroke-linecap:square;stroke-linejoin:miter;"/>
   </g>
   <g id="patch_4">
    <path d="M 1944 648 
L 1944 72 
" style="fill:none;stroke:#000000;stroke-linecap:square;stroke-linejoin:miter;"/>
   </g>
   <g id="patch_5">
    <path d="M 270 648 
L 1944 648 
" style="fill:none;stroke:#000000;stroke-linecap:square;stroke-linejoin:miter;"/>
   </g>
   <g id="patch_6">
    <path d="M 270 648 
L 270 72 
" style="fill:none;stroke:#000000;stroke-linecap:square;stroke-linejoin:miter;"/>
   </g>
   <g id="matplotlib.axis_1">
    <g id="xtick_1">
     <g id="line2d_3">
      <defs>
       <path d="M 0 0 
L 0 -4 
" id="mfcd1034f75" style="stroke:#000000;stroke-width:0.5;"/>
      </defs>
      <g>
       <use style="stroke:#000000;stroke-width:0.5;" x="318.786602911" xlink:href="#mfcd1034f75" y="648.0"/>
      </g>
     </g>
     <g id="line2d_4">
      <defs>
       <path d="M 0 0 
L 0 4 
" id="m4da457a830" style="stroke:#000000;stroke-width:0.5;"/>
      </defs>
      <g>
       <use style="stroke:#000000;stroke-width:0.5;" x="318.786602911" xlink:href="#m4da457a830" y="72.0"/>
      </g>
     </g>
     <g id="text_1">
      <!-- Jul 03 2011 -->
      <defs>
       <path d="M 19.1875 8.296875 
L 53.609375 8.296875 
L 53.609375 0 
L 7.328125 0 
L 7.328125 8.296875 
Q 12.9375 14.109375 22.625 23.890625 
Q 32.328125 33.6875 34.8125 36.53125 
Q 39.546875 41.84375 41.421875 45.53125 
Q 43.3125 49.21875 43.3125 52.78125 
Q 43.3125 58.59375 39.234375 62.25 
Q 35.15625 65.921875 28.609375 65.921875 
Q 23.96875 65.921875 18.8125 64.3125 
Q 13.671875 62.703125 7.8125 59.421875 
L 7.8125 69.390625 
Q 13.765625 71.78125 18.9375 73 
Q 24.125 74.21875 28.421875 74.21875 
Q 39.75 74.21875 46.484375 68.546875 
Q 53.21875 62.890625 53.21875 53.421875 
Q 53.21875 48.921875 51.53125 44.890625 
Q 49.859375 40.875 45.40625 35.40625 
Q 44.1875 33.984375 37.640625 27.21875 
Q 31.109375 20.453125 19.1875 8.296875 
" id="BitstreamVeraSans-Roman-32"/>
       <path id="BitstreamVeraSans-Roman-20"/>
       <path d="M 31.78125 66.40625 
Q 24.171875 66.40625 20.328125 58.90625 
Q 16.5 51.421875 16.5 36.375 
Q 16.5 21.390625 20.328125 13.890625 
Q 24.171875 6.390625 31.78125 6.390625 
Q 39.453125 6.390625 43.28125 13.890625 
Q 47.125 21.390625 47.125 36.375 
Q 47.125 51.421875 43.28125 58.90625 
Q 39.453125 66.40625 31.78125 66.40625 
M 31.78125 74.21875 
Q 44.046875 74.21875 50.515625 64.515625 
Q 56.984375 54.828125 56.984375 36.375 
Q 56.984375 17.96875 50.515625 8.265625 
Q 44.046875 -1.421875 31.78125 -1.421875 
Q 19.53125 -1.421875 13.0625 8.265625 
Q 6.59375 17.96875 6.59375 36.375 
Q 6.59375 54.828125 13.0625 64.515625 
Q 19.53125 74.21875 31.78125 74.21875 
" id="BitstreamVeraSans-Roman-30"/>
       <path d="M 12.40625 8.296875 
L 28.515625 8.296875 
L 28.515625 63.921875 
L 10.984375 60.40625 
L 10.984375 69.390625 
L 28.421875 72.90625 
L 38.28125 72.90625 
L 38.28125 8.296875 
L 54.390625 8.296875 
L 54.390625 0 
L 12.40625 0 
z
" id="BitstreamVeraSans-Roman-31"/>
       <path d="M 9.8125 72.90625 
L 19.671875 72.90625 
L 19.671875 5.078125 
Q 19.671875 -8.109375 14.671875 -14.0625 
Q 9.671875 -20.015625 -1.421875 -20.015625 
L -5.171875 -20.015625 
L -5.171875 -11.71875 
L -2.09375 -11.71875 
Q 4.4375 -11.71875 7.125 -8.046875 
Q 9.8125 -4.390625 9.8125 5.078125 
z
" id="BitstreamVeraSans-Roman-4a"/>
       <path d="M 40.578125 39.3125 
Q 47.65625 37.796875 51.625 33 
Q 55.609375 28.21875 55.609375 21.1875 
Q 55.609375 10.40625 48.1875 4.484375 
Q 40.765625 -1.421875 27.09375 -1.421875 
Q 22.515625 -1.421875 17.65625 -0.515625 
Q 12.796875 0.390625 7.625 2.203125 
L 7.625 11.71875 
Q 11.71875 9.328125 16.59375 8.109375 
Q 21.484375 6.890625 26.8125 6.890625 
Q 36.078125 6.890625 40.9375 10.546875 
Q 45.796875 14.203125 45.796875 21.1875 
Q 45.796875 27.640625 41.28125 31.265625 
Q 36.765625 34.90625 28.71875 34.90625 
L 20.21875 34.90625 
L 20.21875 43.015625 
L 29.109375 43.015625 
Q 36.375 43.015625 40.234375 45.921875 
Q 44.09375 48.828125 44.09375 54.296875 
Q 44.09375 59.90625 40.109375 62.90625 
Q 36.140625 65.921875 28.71875 65.921875 
Q 24.65625 65.921875 20.015625 65.03125 
Q 15.375 64.15625 9.8125 62.3125 
L 9.8125 71.09375 
Q 15.4375 72.65625 20.34375 73.4375 
Q 25.25 74.21875 29.59375 74.21875 
Q 40.828125 74.21875 47.359375 69.109375 
Q 53.90625 64.015625 53.90625 55.328125 
Q 53.90625 49.265625 50.4375 45.09375 
Q 46.96875 40.921875 40.578125 39.3125 
" id="BitstreamVeraSans-Roman-33"/>
       <path d="M 9.421875 75.984375 
L 18.40625 75.984375 
L 18.40625 0 
L 9.421875 0 
z
" id="BitstreamVeraSans-Roman-6c"/>
       <path d="M 8.5 21.578125 
L 8.5 54.6875 
L 17.484375 54.6875 
L 17.484375 21.921875 
Q 17.484375 14.15625 20.5 10.265625 
Q 23.53125 6.390625 29.59375 6.390625 
Q 36.859375 6.390625 41.078125 11.03125 
Q 45.3125 15.671875 45.3125 23.6875 
L 45.3125 54.6875 
L 54.296875 54.6875 
L 54.296875 0 
L 45.3125 0 
L 45.3125 8.40625 
Q 42.046875 3.421875 37.71875 1 
Q 33.40625 -1.421875 27.6875 -1.421875 
Q 18.265625 -1.421875 13.375 4.4375 
Q 8.5 10.296875 8.5 21.578125 
" id="BitstreamVeraSans-Roman-75"/>
      </defs>
      <g transform="translate(284.828477911 661.118125)scale(0.12 -0.12)">
       <use xlink:href="#BitstreamVeraSans-Roman-4a"/>
       <use x="29.4921875" xlink:href="#BitstreamVeraSans-Roman-75"/>
       <use x="92.87109375" xlink:href="#BitstreamVeraSans-Roman-6c"/>
       <use x="120.654296875" xlink:href="#BitstreamVeraSans-Roman-20"/>
       <use x="152.44140625" xlink:href="#BitstreamVeraSans-Roman-30"/>
       <use x="216.064453125" xlink:href="#BitstreamVeraSans-Roman-33"/>
       <use x="279.6875" xlink:href="#BitstreamVeraSans-Roman-20"/>
       <use x="311.474609375" xlink:href="#BitstreamVeraSans-Roman-32"/>
       <use x="375.09765625" xlink:href="#BitstreamVeraSans-Roman-30"/>
       <use x="438.720703125" xlink:href="#BitstreamVeraSans-Roman-31"/>
       <use x="502.34375" xlink:href="#BitstreamVeraSans-Roman-31"/>
      </g>
     </g>
    </g>
    <g id="xtick_2">
     <g id="line2d_5">
      <g>
       <use style="stroke:#000000;stroke-width:0.5;" x="489.540701274" xlink:href="#mfcd1034f75" y="648.0"/>
      </g>
     </g>
     <g id="line2d_6">
      <g>
       <use style="stroke:#000000;stroke-width:0.5;" x="489.540701274" xlink:href="#m4da457a830" y="72.0"/>
      </g>
     </g>
     <g id="text_2">
      <!-- Jul 10 2011 -->
      <g transform="translate(455.582576274 661.118125)scale(0.12 -0.12)">
       <use xlink:href="#BitstreamVeraSans-Roman-4a"/>
       <use x="29.4921875" xlink:href="#BitstreamVeraSans-Roman-75"/>
       <use x="92.87109375" xlink:href="#BitstreamVeraSans-Roman-6c"/>
       <use x="120.654296875" xlink:href="#BitstreamVeraSans-Roman-20"/>
       <use x="152.44140625" xlink:href="#BitstreamVeraSans-Roman-31"/>
       <use x="216.064453125" xlink:href="#BitstreamVeraSans-Roman-30"/>
       <use x="279.6875" xlink:href="#BitstreamVeraSans-Roman-20"/>
       <use x="311.474609375" xlink:href="#BitstreamVeraSans-Roman-32"/>
       <use x="375.09765625" xlink:href="#BitstreamVeraSans-Roman-30"/>
       <use x="438.720703125" xlink:href="#BitstreamVeraSans-Roman-31"/>
       <use x="502.34375" xlink:href="#BitstreamVeraSans-Roman-31"/>
      </g>
     </g>
    </g>
    <g id="xtick_3">
     <g id="line2d_7">
      <g>
       <use style="stroke:#000000;stroke-width:0.5;" x="660.294799633" xlink:href="#mfcd1034f75" y="648.0"/>
      </g>
     </g>
     <g id="line2d_8">
      <g>
       <use style="stroke:#000000;stroke-width:0.5;" x="660.294799633" xlink:href="#m4da457a830" y="72.0"/>
      </g>
     </g>
     <g id="text_3">
      <!-- Jul 17 2011 -->
      <defs>
       <path d="M 8.203125 72.90625 
L 55.078125 72.90625 
L 55.078125 68.703125 
L 28.609375 0 
L 18.3125 0 
L 43.21875 64.59375 
L 8.203125 64.59375 
z
" id="BitstreamVeraSans-Roman-37"/>
      </defs>
      <g transform="translate(626.336674633 661.118125)scale(0.12 -0.12)">
       <use xlink:href="#BitstreamVeraSans-Roman-4a"/>
       <use x="29.4921875" xlink:href="#BitstreamVeraSans-Roman-75"/>
       <use x="92.87109375" xlink:href="#BitstreamVeraSans-Roman-6c"/>
       <use x="120.654296875" xlink:href="#BitstreamVeraSans-Roman-20"/>
       <use x="152.44140625" xlink:href="#BitstreamVeraSans-Roman-31"/>
       <use x="216.064453125" xlink:href="#BitstreamVeraSans-Roman-37"/>
       <use x="279.6875" xlink:href="#BitstreamVeraSans-Roman-20"/>
       <use x="311.474609375" xlink:href="#BitstreamVeraSans-Roman-32"/>
       <use x="375.09765625" xlink:href="#BitstreamVeraSans-Roman-30"/>
       <use x="438.720703125" xlink:href="#BitstreamVeraSans-Roman-31"/>
       <use x="502.34375" xlink:href="#BitstreamVeraSans-Roman-31"/>
      </g>
     </g>
    </g>
    <g id="xtick_4">
     <g id="line2d_9">
      <g>
       <use style="stroke:#000000;stroke-width:0.5;" x="831.048897993" xlink:href="#mfcd1034f75" y="648.0"/>
      </g>
     </g>
     <g id="line2d_10">
      <g>
       <use style="stroke:#000000;stroke-width:0.5;" x="831.048897993" xlink:href="#m4da457a830" y="72.0"/>
      </g>
     </g>
     <g id="text_4">
      <!-- Jul 24 2011 -->
      <defs>
       <path d="M 37.796875 64.3125 
L 12.890625 25.390625 
L 37.796875 25.390625 
z
M 35.203125 72.90625 
L 47.609375 72.90625 
L 47.609375 25.390625 
L 58.015625 25.390625 
L 58.015625 17.1875 
L 47.609375 17.1875 
L 47.609375 0 
L 37.796875 0 
L 37.796875 17.1875 
L 4.890625 17.1875 
L 4.890625 26.703125 
z
" id="BitstreamVeraSans-Roman-34"/>
      </defs>
      <g transform="translate(797.090772993 661.118125)scale(0.12 -0.12)">
       <use xlink:href="#BitstreamVeraSans-Roman-4a"/>
       <use x="29.4921875" xlink:href="#BitstreamVeraSans-Roman-75"/>
       <use x="92.87109375" xlink:href="#BitstreamVeraSans-Roman-6c"/>
       <use x="120.654296875" xlink:href="#BitstreamVeraSans-Roman-20"/>
       <use x="152.44140625" xlink:href="#BitstreamVeraSans-Roman-32"/>
       <use x="216.064453125" xlink:href="#BitstreamVeraSans-Roman-34"/>
       <use x="279.6875" xlink:href="#BitstreamVeraSans-Roman-20"/>
       <use x="311.474609375" xlink:href="#BitstreamVeraSans-Roman-32"/>
       <use x="375.09765625" xlink:href="#BitstreamVeraSans-Roman-30"/>
       <use x="438.720703125" xlink:href="#BitstreamVeraSans-Roman-31"/>
       <use x="502.34375" xlink:href="#BitstreamVeraSans-Roman-31"/>
      </g>
     </g>
    </g>
    <g id="xtick_5">
     <g id="line2d_11">
      <g>
       <use style="stroke:#000000;stroke-width:0.5;" x="1001.80299636" xlink:href="#mfcd1034f75" y="648.0"/>
      </g>
     </g>
     <g id="line2d_12">
      <g>
       <use style="stroke:#000000;stroke-width:0.5;" x="1001.80299636" xlink:href="#m4da457a830" y="72.0"/>
      </g>
     </g>
     <g id="text_5">
      <!-- Jul 31 2011 -->
      <g transform="translate(967.844871356 661.118125)scale(0.12 -0.12)">
       <use xlink:href="#BitstreamVeraSans-Roman-4a"/>
       <use x="29.4921875" xlink:href="#BitstreamVeraSans-Roman-75"/>
       <use x="92.87109375" xlink:href="#BitstreamVeraSans-Roman-6c"/>
       <use x="120.654296875" xlink:href="#BitstreamVeraSans-Roman-20"/>
       <use x="152.44140625" xlink:href="#BitstreamVeraSans-Roman-33"/>
       <use x="216.064453125" xlink:href="#BitstreamVeraSans-Roman-31"/>
       <use x="279.6875" xlink:href="#BitstreamVeraSans-Roman-20"/>
       <use x="311.474609375" xlink:href="#BitstreamVeraSans-Roman-32"/>
       <use x="375.09765625" xlink:href="#BitstreamVeraSans-Roman-30"/>
       <use x="438.720703125" xlink:href="#BitstreamVeraSans-Roman-31"/>
       <use x="502.34375" xlink:href="#BitstreamVeraSans-Roman-31"/>
      </g>
     </g>
    </g>
    <g id="xtick_6">
     <g id="line2d_13">
      <g>
       <use style="stroke:#000000;stroke-width:0.5;" x="1172.55709472" xlink:href="#mfcd1034f75" y="648.0"/>
      </g>
     </g>
     <g id="line2d_14">
      <g>
       <use style="stroke:#000000;stroke-width:0.5;" x="1172.55709472" xlink:href="#m4da457a830" y="72.0"/>
      </g>
     </g>
     <g id="text_6">
      <!-- Aug 07 2011 -->
      <defs>
       <path d="M 45.40625 27.984375 
Q 45.40625 37.75 41.375 43.109375 
Q 37.359375 48.484375 30.078125 48.484375 
Q 22.859375 48.484375 18.828125 43.109375 
Q 14.796875 37.75 14.796875 27.984375 
Q 14.796875 18.265625 18.828125 12.890625 
Q 22.859375 7.515625 30.078125 7.515625 
Q 37.359375 7.515625 41.375 12.890625 
Q 45.40625 18.265625 45.40625 27.984375 
M 54.390625 6.78125 
Q 54.390625 -7.171875 48.1875 -13.984375 
Q 42 -20.796875 29.203125 -20.796875 
Q 24.46875 -20.796875 20.265625 -20.09375 
Q 16.0625 -19.390625 12.109375 -17.921875 
L 12.109375 -9.1875 
Q 16.0625 -11.328125 19.921875 -12.34375 
Q 23.78125 -13.375 27.78125 -13.375 
Q 36.625 -13.375 41.015625 -8.765625 
Q 45.40625 -4.15625 45.40625 5.171875 
L 45.40625 9.625 
Q 42.625 4.78125 38.28125 2.390625 
Q 33.9375 0 27.875 0 
Q 17.828125 0 11.671875 7.65625 
Q 5.515625 15.328125 5.515625 27.984375 
Q 5.515625 40.671875 11.671875 48.328125 
Q 17.828125 56 27.875 56 
Q 33.9375 56 38.28125 53.609375 
Q 42.625 51.21875 45.40625 46.390625 
L 45.40625 54.6875 
L 54.390625 54.6875 
z
" id="BitstreamVeraSans-Roman-67"/>
       <path d="M 34.1875 63.1875 
L 20.796875 26.90625 
L 47.609375 26.90625 
z
M 28.609375 72.90625 
L 39.796875 72.90625 
L 67.578125 0 
L 57.328125 0 
L 50.6875 18.703125 
L 17.828125 18.703125 
L 11.1875 0 
L 0.78125 0 
z
" id="BitstreamVeraSans-Roman-41"/>
      </defs>
      <g transform="translate(1134.12240722 661.118125)scale(0.12 -0.12)">
       <use xlink:href="#BitstreamVeraSans-Roman-41"/>
       <use x="68.408203125" xlink:href="#BitstreamVeraSans-Roman-75"/>
       <use x="131.787109375" xlink:href="#BitstreamVeraSans-Roman-67"/>
       <use x="195.263671875" xlink:href="#BitstreamVeraSans-Roman-20"/>
       <use x="227.05078125" xlink:href="#BitstreamVeraSans-Roman-30"/>
       <use x="290.673828125" xlink:href="#BitstreamVeraSans-Roman-37"/>
       <use x="354.296875" xlink:href="#BitstreamVeraSans-Roman-20"/>
       <use x="386.083984375" xlink:href="#BitstreamVeraSans-Roman-32"/>
       <use x="449.70703125" xlink:href="#BitstreamVeraSans-Roman-30"/>
       <use x="513.330078125" xlink:href="#BitstreamVeraSans-Roman-31"/>
       <use x="576.953125" xlink:href="#BitstreamVeraSans-Roman-31"/>
      </g>
     </g>
    </g>
    <g id="xtick_7">
     <g id="line2d_15">
      <g>
       <use style="stroke:#000000;stroke-width:0.5;" x="1343.31119308" xlink:href="#mfcd1034f75" y="648.0"/>
      </g>
     </g>
     <g id="line2d_16">
      <g>
       <use style="stroke:#000000;stroke-width:0.5;" x="1343.31119308" xlink:href="#m4da457a830" y="72.0"/>
      </g>
     </g>
     <g id="text_7">
      <!-- Aug 14 2011 -->
      <g transform="translate(1304.87650558 661.118125)scale(0.12 -0.12)">
       <use xlink:href="#BitstreamVeraSans-Roman-41"/>
       <use x="68.408203125" xlink:href="#BitstreamVeraSans-Roman-75"/>
       <use x="131.787109375" xlink:href="#BitstreamVeraSans-Roman-67"/>
       <use x="195.263671875" xlink:href="#BitstreamVeraSans-Roman-20"/>
       <use x="227.05078125" xlink:href="#BitstreamVeraSans-Roman-31"/>
       <use x="290.673828125" xlink:href="#BitstreamVeraSans-Roman-34"/>
       <use x="354.296875" xlink:href="#BitstreamVeraSans-Roman-20"/>
       <use x="386.083984375" xlink:href="#BitstreamVeraSans-Roman-32"/>
       <use x="449.70703125" xlink:href="#BitstreamVeraSans-Roman-30"/>
       <use x="513.330078125" xlink:href="#BitstreamVeraSans-Roman-31"/>
       <use x="576.953125" xlink:href="#BitstreamVeraSans-Roman-31"/>
      </g>
     </g>
    </g>
    <g id="xtick_8">
     <g id="line2d_17">
      <g>
       <use style="stroke:#000000;stroke-width:0.5;" x="1514.06529144" xlink:href="#mfcd1034f75" y="648.0"/>
      </g>
     </g>
     <g id="line2d_18">
      <g>
       <use style="stroke:#000000;stroke-width:0.5;" x="1514.06529144" xlink:href="#m4da457a830" y="72.0"/>
      </g>
     </g>
     <g id="text_8">
      <!-- Aug 21 2011 -->
      <g transform="translate(1475.63060394 661.118125)scale(0.12 -0.12)">
       <use xlink:href="#BitstreamVeraSans-Roman-41"/>
       <use x="68.408203125" xlink:href="#BitstreamVeraSans-Roman-75"/>
       <use x="131.787109375" xlink:href="#BitstreamVeraSans-Roman-67"/>
       <use x="195.263671875" xlink:href="#BitstreamVeraSans-Roman-20"/>
       <use x="227.05078125" xlink:href="#BitstreamVeraSans-Roman-32"/>
       <use x="290.673828125" xlink:href="#BitstreamVeraSans-Roman-31"/>
       <use x="354.296875" xlink:href="#BitstreamVeraSans-Roman-20"/>
       <use x="386.083984375" xlink:href="#BitstreamVeraSans-Roman-32"/>
       <use x="449.70703125" xlink:href="#BitstreamVeraSans-Roman-30"/>
       <use x="513.330078125" xlink:href="#BitstreamVeraSans-Roman-31"/>
       <use x="576.953125" xlink:href="#BitstreamVeraSans-Roman-31"/>
      </g>
     </g>
    </g>
    <g id="xtick_9">
     <g id="line2d_19">
      <g>
       <use style="stroke:#000000;stroke-width:0.5;" x="1684.8193898" xlink:href="#mfcd1034f75" y="648.0"/>
      </g>
     </g>
     <g id="line2d_20">
      <g>
       <use style="stroke:#000000;stroke-width:0.5;" x="1684.8193898" xlink:href="#m4da457a830" y="72.0"/>
      </g>
     </g>
     <g id="text_9">
      <!-- Aug 28 2011 -->
      <defs>
       <path d="M 31.78125 34.625 
Q 24.75 34.625 20.71875 30.859375 
Q 16.703125 27.09375 16.703125 20.515625 
Q 16.703125 13.921875 20.71875 10.15625 
Q 24.75 6.390625 31.78125 6.390625 
Q 38.8125 6.390625 42.859375 10.171875 
Q 46.921875 13.96875 46.921875 20.515625 
Q 46.921875 27.09375 42.890625 30.859375 
Q 38.875 34.625 31.78125 34.625 
M 21.921875 38.8125 
Q 15.578125 40.375 12.03125 44.71875 
Q 8.5 49.078125 8.5 55.328125 
Q 8.5 64.0625 14.71875 69.140625 
Q 20.953125 74.21875 31.78125 74.21875 
Q 42.671875 74.21875 48.875 69.140625 
Q 55.078125 64.0625 55.078125 55.328125 
Q 55.078125 49.078125 51.53125 44.71875 
Q 48 40.375 41.703125 38.8125 
Q 48.828125 37.15625 52.796875 32.3125 
Q 56.78125 27.484375 56.78125 20.515625 
Q 56.78125 9.90625 50.3125 4.234375 
Q 43.84375 -1.421875 31.78125 -1.421875 
Q 19.734375 -1.421875 13.25 4.234375 
Q 6.78125 9.90625 6.78125 20.515625 
Q 6.78125 27.484375 10.78125 32.3125 
Q 14.796875 37.15625 21.921875 38.8125 
M 18.3125 54.390625 
Q 18.3125 48.734375 21.84375 45.5625 
Q 25.390625 42.390625 31.78125 42.390625 
Q 38.140625 42.390625 41.71875 45.5625 
Q 45.3125 48.734375 45.3125 54.390625 
Q 45.3125 60.0625 41.71875 63.234375 
Q 38.140625 66.40625 31.78125 66.40625 
Q 25.390625 66.40625 21.84375 63.234375 
Q 18.3125 60.0625 18.3125 54.390625 
" id="BitstreamVeraSans-Roman-38"/>
      </defs>
      <g transform="translate(1646.3847023 661.118125)scale(0.12 -0.12)">
       <use xlink:href="#BitstreamVeraSans-Roman-41"/>
       <use x="68.408203125" xlink:href="#BitstreamVeraSans-Roman-75"/>
       <use x="131.787109375" xlink:href="#BitstreamVeraSans-Roman-67"/>
       <use x="195.263671875" xlink:href="#BitstreamVeraSans-Roman-20"/>
       <use x="227.05078125" xlink:href="#BitstreamVeraSans-Roman-32"/>
       <use x="290.673828125" xlink:href="#BitstreamVeraSans-Roman-38"/>
       <use x="354.296875" xlink:href="#BitstreamVeraSans-Roman-20"/>
       <use x="386.083984375" xlink:href="#BitstreamVeraSans-Roman-32"/>
       <use x="449.70703125" xlink:href="#BitstreamVeraSans-Roman-30"/>
       <use x="513.330078125" xlink:href="#BitstreamVeraSans-Roman-31"/>
       <use x="576.953125" xlink:href="#BitstreamVeraSans-Roman-31"/>
      </g>
     </g>
    </g>
    <g id="xtick_10">
     <g id="line2d_21">
      <g>
       <use style="stroke:#000000;stroke-width:0.5;" x="1855.57348816" xlink:href="#mfcd1034f75" y="648.0"/>
      </g>
     </g>
     <g id="line2d_22">
      <g>
       <use style="stroke:#000000;stroke-width:0.5;" x="1855.57348816" xlink:href="#m4da457a830" y="72.0"/>
      </g>
     </g>
     <g id="text_10">
      <!-- Sep 04 2011 -->
      <defs>
       <path d="M 56.203125 29.59375 
L 56.203125 25.203125 
L 14.890625 25.203125 
Q 15.484375 15.921875 20.484375 11.0625 
Q 25.484375 6.203125 34.421875 6.203125 
Q 39.59375 6.203125 44.453125 7.46875 
Q 49.3125 8.734375 54.109375 11.28125 
L 54.109375 2.78125 
Q 49.265625 0.734375 44.1875 -0.34375 
Q 39.109375 -1.421875 33.890625 -1.421875 
Q 20.796875 -1.421875 13.15625 6.1875 
Q 5.515625 13.8125 5.515625 26.8125 
Q 5.515625 40.234375 12.765625 48.109375 
Q 20.015625 56 32.328125 56 
Q 43.359375 56 49.78125 48.890625 
Q 56.203125 41.796875 56.203125 29.59375 
M 47.21875 32.234375 
Q 47.125 39.59375 43.09375 43.984375 
Q 39.0625 48.390625 32.421875 48.390625 
Q 24.90625 48.390625 20.390625 44.140625 
Q 15.875 39.890625 15.1875 32.171875 
z
" id="BitstreamVeraSans-Roman-65"/>
       <path d="M 53.515625 70.515625 
L 53.515625 60.890625 
Q 47.90625 63.578125 42.921875 64.890625 
Q 37.9375 66.21875 33.296875 66.21875 
Q 25.25 66.21875 20.875 63.09375 
Q 16.5 59.96875 16.5 54.203125 
Q 16.5 49.359375 19.40625 46.890625 
Q 22.3125 44.4375 30.421875 42.921875 
L 36.375 41.703125 
Q 47.40625 39.59375 52.65625 34.296875 
Q 57.90625 29 57.90625 20.125 
Q 57.90625 9.515625 50.796875 4.046875 
Q 43.703125 -1.421875 29.984375 -1.421875 
Q 24.8125 -1.421875 18.96875 -0.25 
Q 13.140625 0.921875 6.890625 3.21875 
L 6.890625 13.375 
Q 12.890625 10.015625 18.65625 8.296875 
Q 24.421875 6.59375 29.984375 6.59375 
Q 38.421875 6.59375 43.015625 9.90625 
Q 47.609375 13.234375 47.609375 19.390625 
Q 47.609375 24.75 44.3125 27.78125 
Q 41.015625 30.8125 33.5 32.328125 
L 27.484375 33.5 
Q 16.453125 35.6875 11.515625 40.375 
Q 6.59375 45.0625 6.59375 53.421875 
Q 6.59375 63.09375 13.40625 68.65625 
Q 20.21875 74.21875 32.171875 74.21875 
Q 37.3125 74.21875 42.625 73.28125 
Q 47.953125 72.359375 53.515625 70.515625 
" id="BitstreamVeraSans-Roman-53"/>
       <path d="M 18.109375 8.203125 
L 18.109375 -20.796875 
L 9.078125 -20.796875 
L 9.078125 54.6875 
L 18.109375 54.6875 
L 18.109375 46.390625 
Q 20.953125 51.265625 25.265625 53.625 
Q 29.59375 56 35.59375 56 
Q 45.5625 56 51.78125 48.09375 
Q 58.015625 40.1875 58.015625 27.296875 
Q 58.015625 14.40625 51.78125 6.484375 
Q 45.5625 -1.421875 35.59375 -1.421875 
Q 29.59375 -1.421875 25.265625 0.953125 
Q 20.953125 3.328125 18.109375 8.203125 
M 48.6875 27.296875 
Q 48.6875 37.203125 44.609375 42.84375 
Q 40.53125 48.484375 33.40625 48.484375 
Q 26.265625 48.484375 22.1875 42.84375 
Q 18.109375 37.203125 18.109375 27.296875 
Q 18.109375 17.390625 22.1875 11.75 
Q 26.265625 6.109375 33.40625 6.109375 
Q 40.53125 6.109375 44.609375 11.75 
Q 48.6875 17.390625 48.6875 27.296875 
" id="BitstreamVeraSans-Roman-70"/>
      </defs>
      <g transform="translate(1817.54473816 661.118125)scale(0.12 -0.12)">
       <use xlink:href="#BitstreamVeraSans-Roman-53"/>
       <use x="63.4765625" xlink:href="#BitstreamVeraSans-Roman-65"/>
       <use x="125.0" xlink:href="#BitstreamVeraSans-Roman-70"/>
       <use x="188.4765625" xlink:href="#BitstreamVeraSans-Roman-20"/>
       <use x="220.263671875" xlink:href="#BitstreamVeraSans-Roman-30"/>
       <use x="283.88671875" xlink:href="#BitstreamVeraSans-Roman-34"/>
       <use x="347.509765625" xlink:href="#BitstreamVeraSans-Roman-20"/>
       <use x="379.296875" xlink:href="#BitstreamVeraSans-Roman-32"/>
       <use x="442.919921875" xlink:href="#BitstreamVeraSans-Roman-30"/>
       <use x="506.54296875" xlink:href="#BitstreamVeraSans-Roman-31"/>
       <use x="570.166015625" xlink:href="#BitstreamVeraSans-Roman-31"/>
      </g>
     </g>
    </g>
   </g>
   <g id="matplotlib.axis_2">
    <g id="ytick_1">
     <g id="line2d_23">
      <defs>
       <path d="M 0 0 
L 4 0 
" id="m6e584fab42" style="stroke:#000000;stroke-width:0.5;"/>
      </defs>
      <g>
       <use style="stroke:#000000;stroke-width:0.5;" x="270.0" xlink:href="#m6e584fab42" y="648.0"/>
      </g>
     </g>
     <g id="line2d_24">
      <defs>
       <path d="M 0 0 
L -4 0 
" id="m2ec35c2076" style="stroke:#000000;stroke-width:0.5;"/>
      </defs>
      <g>
       <use style="stroke:#000000;stroke-width:0.5;" x="1944.0" xlink:href="#m2ec35c2076" y="648.0"/>
      </g>
     </g>
     <g id="text_11">
      <!-- 0.00 -->
      <defs>
       <path d="M 10.6875 12.40625 
L 21 12.40625 
L 21 0 
L 10.6875 0 
z
" id="BitstreamVeraSans-Roman-2e"/>
      </defs>
      <g transform="translate(239.28125 651.31125)scale(0.12 -0.12)">
       <use xlink:href="#BitstreamVeraSans-Roman-30"/>
       <use x="63.623046875" xlink:href="#BitstreamVeraSans-Roman-2e"/>
       <use x="95.41015625" xlink:href="#BitstreamVeraSans-Roman-30"/>
       <use x="159.033203125" xlink:href="#BitstreamVeraSans-Roman-30"/>
      </g>
     </g>
    </g>
    <g id="ytick_2">
     <g id="line2d_25">
      <g>
       <use style="stroke:#000000;stroke-width:0.5;" x="270.0" xlink:href="#m6e584fab42" y="532.8"/>
      </g>
     </g>
     <g id="line2d_26">
      <g>
       <use style="stroke:#000000;stroke-width:0.5;" x="1944.0" xlink:href="#m2ec35c2076" y="532.8"/>
      </g>
     </g>
     <g id="text_12">
      <!-- 0.05 -->
      <defs>
       <path d="M 10.796875 72.90625 
L 49.515625 72.90625 
L 49.515625 64.59375 
L 19.828125 64.59375 
L 19.828125 46.734375 
Q 21.96875 47.46875 24.109375 47.828125 
Q 26.265625 48.1875 28.421875 48.1875 
Q 40.625 48.1875 47.75 41.5 
Q 54.890625 34.8125 54.890625 23.390625 
Q 54.890625 11.625 47.5625 5.09375 
Q 40.234375 -1.421875 26.90625 -1.421875 
Q 22.3125 -1.421875 17.546875 -0.640625 
Q 12.796875 0.140625 7.71875 1.703125 
L 7.71875 11.625 
Q 12.109375 9.234375 16.796875 8.0625 
Q 21.484375 6.890625 26.703125 6.890625 
Q 35.15625 6.890625 40.078125 11.328125 
Q 45.015625 15.765625 45.015625 23.390625 
Q 45.015625 31 40.078125 35.4375 
Q 35.15625 39.890625 26.703125 39.890625 
Q 22.75 39.890625 18.8125 39.015625 
Q 14.890625 38.140625 10.796875 36.28125 
z
" id="BitstreamVeraSans-Roman-35"/>
      </defs>
      <g transform="translate(239.28125 536.11125)scale(0.12 -0.12)">
       <use xlink:href="#BitstreamVeraSans-Roman-30"/>
       <use x="63.623046875" xlink:href="#BitstreamVeraSans-Roman-2e"/>
       <use x="95.41015625" xlink:href="#BitstreamVeraSans-Roman-30"/>
       <use x="159.033203125" xlink:href="#BitstreamVeraSans-Roman-35"/>
      </g>
     </g>
    </g>
    <g id="ytick_3">
     <g id="line2d_27">
      <g>
       <use style="stroke:#000000;stroke-width:0.5;" x="270.0" xlink:href="#m6e584fab42" y="417.6"/>
      </g>
     </g>
     <g id="line2d_28">
      <g>
       <use style="stroke:#000000;stroke-width:0.5;" x="1944.0" xlink:href="#m2ec35c2076" y="417.6"/>
      </g>
     </g>
     <g id="text_13">
      <!-- 0.10 -->
      <g transform="translate(239.28125 420.91125)scale(0.12 -0.12)">
       <use xlink:href="#BitstreamVeraSans-Roman-30"/>
       <use x="63.623046875" xlink:href="#BitstreamVeraSans-Roman-2e"/>
       <use x="95.41015625" xlink:href="#BitstreamVeraSans-Roman-31"/>
       <use x="159.033203125" xlink:href="#BitstreamVeraSans-Roman-30"/>
      </g>
     </g>
    </g>
    <g id="ytick_4">
     <g id="line2d_29">
      <g>
       <use style="stroke:#000000;stroke-width:0.5;" x="270.0" xlink:href="#m6e584fab42" y="302.4"/>
      </g>
     </g>
     <g id="line2d_30">
      <g>
       <use style="stroke:#000000;stroke-width:0.5;" x="1944.0" xlink:href="#m2ec35c2076" y="302.4"/>
      </g>
     </g>
     <g id="text_14">
      <!-- 0.15 -->
      <g transform="translate(239.28125 305.71125)scale(0.12 -0.12)">
       <use xlink:href="#BitstreamVeraSans-Roman-30"/>
       <use x="63.623046875" xlink:href="#BitstreamVeraSans-Roman-2e"/>
       <use x="95.41015625" xlink:href="#BitstreamVeraSans-Roman-31"/>
       <use x="159.033203125" xlink:href="#BitstreamVeraSans-Roman-35"/>
      </g>
     </g>
    </g>
    <g id="ytick_5">
     <g id="line2d_31">
      <g>
       <use style="stroke:#000000;stroke-width:0.5;" x="270.0" xlink:href="#m6e584fab42" y="187.2"/>
      </g>
     </g>
     <g id="line2d_32">
      <g>
       <use style="stroke:#000000;stroke-width:0.5;" x="1944.0" xlink:href="#m2ec35c2076" y="187.2"/>
      </g>
     </g>
     <g id="text_15">
      <!-- 0.20 -->
      <g transform="translate(239.28125 190.51125)scale(0.12 -0.12)">
       <use xlink:href="#BitstreamVeraSans-Roman-30"/>
       <use x="63.623046875" xlink:href="#BitstreamVeraSans-Roman-2e"/>
       <use x="95.41015625" xlink:href="#BitstreamVeraSans-Roman-32"/>
       <use x="159.033203125" xlink:href="#BitstreamVeraSans-Roman-30"/>
      </g>
     </g>
    </g>
    <g id="ytick_6">
     <g id="line2d_33">
      <g>
       <use style="stroke:#000000;stroke-width:0.5;" x="270.0" xlink:href="#m6e584fab42" y="72.0"/>
      </g>
     </g>
     <g id="line2d_34">
      <g>
       <use style="stroke:#000000;stroke-width:0.5;" x="1944.0" xlink:href="#m2ec35c2076" y="72.0"/>
      </g>
     </g>
     <g id="text_16">
      <!-- 0.25 -->
      <g transform="translate(239.28125 75.31125)scale(0.12 -0.12)">
       <use xlink:href="#BitstreamVeraSans-Roman-30"/>
       <use x="63.623046875" xlink:href="#BitstreamVeraSans-Roman-2e"/>
       <use x="95.41015625" xlink:href="#BitstreamVeraSans-Roman-32"/>
       <use x="159.033203125" xlink:href="#BitstreamVeraSans-Roman-35"/>
      </g>
     </g>
    </g>
   </g>
  </g>
 </g>
 <defs>
  <clipPath id="p4a572e9b49">
   <rect height="576.0" width="1674.0" x="270.0" y="72.0"/>
  </clipPath>
 </defs>
</svg>
