<?xml version="1.0" encoding="utf-8" standalone="no"?>
<!DOCTYPE svg PUBLIC "-//W3C//DTD SVG 1.1//EN"
  "http://www.w3.org/Graphics/SVG/1.1/DTD/svg11.dtd">
<!-- Created with matplotlib (http://matplotlib.org/) -->
<svg height="720pt" version="1.1" viewBox="0 0 2160 720" width="2160pt" xmlns="http://www.w3.org/2000/svg" xmlns:xlink="http://www.w3.org/1999/xlink">
 <defs>
  <style type="text/css">
*{stroke-linecap:butt;stroke-linejoin:round;stroke-miterlimit:100000;}
  </style>
 </defs>
 <g id="figure_1">
  <g id="patch_1">
   <path d="M 0 720 
L 2160 720 
L 2160 0 
L 0 0 
z
" style="fill:#ffffff;"/>
  </g>
  <g id="axes_1">
   <g id="patch_2">
    <path d="M 270 648 
L 1944 648 
L 1944 72 
L 270 72 
z
" style="fill:#ffffff;"/>
   </g>
   <g id="line2d_1">
    <path clip-path="url(#p33b27fd68d)" d="M 270 577.4976 
L 270.360791 499.6224 
L 271.082374 559.7568 
L 271.443166 544.32 
L 272.886331 595.4688 
L 273.607914 609.5232 
L 273.968706 214.1568 
L 274.329497 371.52 
L 274.690288 345.9456 
L 275.05108 354.9312 
L 276.855037 609.5232 
L 285.153239 353.5488 
L 285.874822 475.2 
L 286.235614 603.3024 
L 286.596405 562.2912 
L 287.317988 585.3312 
L 288.039571 559.7568 
L 289.121945 559.7568 
L 291.647485 605.8368 
L 292.008276 589.0176 
L 292.729859 595.4688 
L 293.09065 595.4688 
L 293.451442 466.2144 
L 294.173025 595.4688 
L 294.533816 600.5376 
L 294.894608 621.0432 
L 295.61619 621.0432 
L 296.698565 612.0576 
L 297.059356 564.8256 
L 297.420147 585.3312 
L 297.780939 621.0432 
L 298.502522 568.7424 
L 298.863313 567.36 
L 299.224104 544.32 
L 300.306479 614.8224 
L 301.028062 522.6624 
L 301.749644 609.5232 
L 303.19281 528.8832 
L 304.275184 600.5376 
L 307.883098 589.0176 
L 308.24389 580.2624 
L 308.604681 614.8224 
L 308.965473 580.2624 
L 310.120005 605.8368 
L 310.408638 603.3024 
L 310.76943 598.0032 
L 311.491013 624.96 
L 312.934178 627.4944 
L 314.377344 615.9744 
L 314.738135 641.5488 
L 315.459718 639.0144 
L 315.82051 624.96 
L 316.902884 624.96 
L 318.706841 636.48 
L 321.232381 642.9312 
L 323.757921 532.8 
L 324.840295 636.48 
L 325.922669 648 
L 327.726626 636.48 
L 328.087418 648 
L 329.891375 609.5232 
L 332.777706 598.0032 
L 333.138497 636.48 
L 333.499289 614.8224 
L 333.86008 615.9744 
L 334.220872 567.36 
L 334.942454 589.0176 
L 335.303246 589.0176 
L 336.024829 508.3776 
L 336.38562 600.5376 
L 337.467994 522.6624 
L 337.828786 362.5344 
L 338.189577 513.6768 
L 338.550369 544.32 
L 339.271951 434.1888 
L 339.632743 523.8144 
L 339.993534 436.7232 
L 340.354326 475.2 
L 340.715117 409.9968 
L 341.075908 407.4624 
L 341.4367 395.9424 
L 341.797491 443.1744 
L 342.158283 288.3456 
L 342.519074 374.0544 
L 342.879866 256.32 
L 343.240657 467.5968 
L 343.96224 317.8368 
L 344.683823 461.1456 
L 345.044614 306.3168 
L 345.405405 333.0432 
L 345.766197 267.84 
L 346.126988 365.0688 
L 346.48778 393.1776 
L 346.848571 472.6656 
L 347.209362 384.4224 
L 347.570154 502.1568 
L 347.930945 327.9744 
L 348.291737 430.5024 
L 348.652528 585.3312 
L 349.01332 505.8432 
L 349.374111 375.4368 
L 350.095694 508.3776 
L 350.456485 475.2 
L 351.178068 422.6688 
L 351.538859 374.0544 
L 352.260442 434.1888 
L 352.982025 549.3888 
L 353.342817 490.6368 
L 354.064399 440.64 
L 354.785982 623.5776 
L 355.507565 553.3056 
L 355.868356 461.1456 
L 356.229148 531.4176 
L 356.950731 541.7856 
L 357.311522 624.96 
L 357.672313 615.9744 
L 358.393896 550.7712 
L 358.754688 571.2768 
L 359.115479 540.4032 
L 359.476271 571.2768 
L 359.837062 580.2624 
L 360.197853 559.7568 
L 360.558645 606.9888 
L 360.919436 558.3744 
L 361.280228 567.36 
L 362.00181 494.3232 
L 363.084185 595.4688 
L 363.444976 523.8144 
L 363.805768 553.3056 
L 364.166559 598.0032 
L 364.52735 571.2768 
L 366.331307 618.5088 
L 366.692099 595.4688 
L 367.05289 549.3888 
L 367.413682 485.3376 
L 368.135264 540.4032 
L 368.856847 544.32 
L 369.217639 535.3344 
L 369.57843 484.1856 
L 369.939222 594.3168 
L 370.300013 577.4976 
L 371.021596 612.0576 
L 371.382387 571.2768 
L 371.743179 550.7712 
L 372.10397 466.2144 
L 372.464761 549.3888 
L 372.825553 573.8112 
L 373.186344 531.4176 
L 373.547136 624.96 
L 373.907927 535.3344 
L 374.268718 598.0032 
L 374.62951 503.3088 
L 375.351093 624.96 
L 376.072676 503.3088 
L 376.433467 493.1712 
L 376.794258 511.1424 
L 377.15505 546.8544 
L 377.515841 531.4176 
L 378.598215 513.6768 
L 378.959007 562.2912 
L 379.68059 571.2768 
L 380.041381 540.4032 
L 380.402173 541.7856 
L 380.762964 549.3888 
L 381.123755 591.7824 
L 381.484547 576.3456 
L 381.845338 576.3456 
L 382.20613 582.7968 
L 382.566921 505.8432 
L 384.010087 614.8224 
L 384.731669 598.0032 
L 385.092461 568.7424 
L 385.453252 490.6368 
L 385.814044 466.2144 
L 387.257209 431.6544 
L 387.978792 522.6624 
L 388.700375 452.16 
L 389.421958 467.5968 
L 390.504332 555.84 
L 391.225915 537.8688 
L 392.669081 585.3312 
L 393.029872 523.8144 
L 393.390663 589.0176 
L 393.751455 559.7568 
L 394.473038 540.4032 
L 394.833829 541.7856 
L 395.555412 630.0288 
L 395.916203 612.0576 
L 396.637786 555.84 
L 396.998578 553.3056 
L 397.359369 546.8544 
L 397.72016 586.4832 
L 398.15311 540.4032 
L 398.513901 550.7712 
L 399.957067 535.3344 
L 400.67865 621.0432 
L 401.761024 594.3168 
L 404.286564 535.3344 
L 405.008147 558.3744 
L 405.29678 541.7856 
L 406.812104 567.36 
L 407.533687 621.0432 
L 407.894478 586.4832 
L 408.616061 540.4032 
L 408.976852 595.4688 
L 410.420018 618.5088 
L 411.141601 568.7424 
L 411.863184 586.4832 
L 412.223975 589.0176 
L 412.584767 630.0288 
L 413.306349 612.0576 
L 417.635846 580.2624 
L 418.357429 605.8368 
L 419.079012 648 
L 419.800595 594.3168 
L 420.882969 623.5776 
L 421.243761 642.9312 
L 421.965343 641.5488 
L 424.130092 624.96 
L 424.490883 618.5088 
L 426.29484 614.8224 
L 426.655632 636.48 
L 427.016423 633.9456 
L 427.738006 641.5488 
L 428.098797 606.9888 
L 428.459589 641.5488 
L 432.067503 603.3024 
L 432.789086 624.96 
L 433.149877 621.0432 
L 434.593043 603.3024 
L 434.953834 591.7824 
L 436.036208 642.9312 
L 436.397 609.5232 
L 436.757791 605.8368 
L 438.200957 639.0144 
L 439.644123 612.0576 
L 440.004914 537.8688 
L 440.365705 621.0432 
L 440.726497 395.9424 
L 441.44808 612.0576 
L 441.808871 558.3744 
L 442.169662 523.8144 
L 442.530454 553.3056 
L 442.891245 564.8256 
L 443.252037 589.0176 
L 443.612828 476.5824 
L 443.97362 418.9824 
L 444.334411 541.7856 
L 444.695202 365.0688 
L 445.055994 404.6976 
L 445.416785 160.2432 
L 445.777577 294.7968 
L 446.138368 368.9856 
L 446.859951 386.9568 
L 447.220742 326.8224 
L 447.581534 307.4688 
L 447.942325 384.4224 
L 448.303117 327.9744 
L 448.663908 431.6544 
L 449.024699 371.52 
L 449.385491 235.8144 
L 449.746282 374.0544 
L 450.107074 413.6832 
L 450.467865 392.0256 
L 450.828656 161.6256 
L 451.189448 434.1888 
L 451.550239 526.3488 
L 451.911031 416.2176 
L 452.271822 401.0112 
L 452.632613 513.6768 
L 452.993405 499.6224 
L 453.714988 553.3056 
L 454.075779 411.1488 
L 454.436571 407.4624 
L 454.797362 434.1888 
L 455.158153 389.4912 
L 455.518945 476.5824 
L 455.879736 531.4176 
L 456.240528 294.7968 
L 457.322902 559.7568 
L 457.683693 318.9888 
L 458.405276 490.6368 
L 458.766068 523.8144 
L 459.126859 454.6944 
L 459.48765 493.1712 
L 459.848442 475.2 
L 460.209233 484.1856 
L 461.652399 526.3488 
L 462.01319 488.1024 
L 462.734773 577.4976 
L 463.456356 580.2624 
L 463.817147 544.32 
L 464.177939 535.3344 
L 464.53873 567.36 
L 464.899522 541.7856 
L 465.260313 609.5232 
L 465.981896 528.8832 
L 466.342687 562.2912 
L 467.425061 503.3088 
L 467.785853 541.7856 
L 468.507436 485.3376 
L 469.229018 567.36 
L 470.311393 559.7568 
L 470.672184 609.5232 
L 471.032976 562.2912 
L 471.393767 582.7968 
L 471.754558 582.7968 
L 472.476141 558.3744 
L 473.197724 479.1168 
L 473.558515 564.8256 
L 473.919307 586.4832 
L 474.280098 553.3056 
L 474.64089 541.7856 
L 475.001681 630.0288 
L 475.362473 522.6624 
L 476.084055 624.96 
L 476.444847 606.9888 
L 476.805638 452.16 
L 477.527221 519.8976 
L 477.888012 421.5168 
L 478.970387 505.8432 
L 479.331178 595.4688 
L 479.691969 457.2288 
L 480.052761 470.1312 
L 480.413552 535.3344 
L 480.774344 488.1024 
L 481.135135 523.8144 
L 481.856718 445.7088 
L 482.217509 475.2 
L 482.939092 472.6656 
L 483.299884 493.1712 
L 483.660675 598.0032 
L 484.021466 517.3632 
L 484.382258 481.6512 
L 484.743049 532.8 
L 485.103841 528.8832 
L 485.464632 418.9824 
L 485.825424 401.0112 
L 486.186215 476.5824 
L 486.547006 421.5168 
L 486.907798 558.3744 
L 487.268589 553.3056 
L 487.990172 555.84 
L 489.072546 481.6512 
L 489.794129 568.7424 
L 490.15492 479.1168 
L 490.515712 440.64 
L 490.876503 384.4224 
L 491.598086 413.6832 
L 491.958878 448.2432 
L 492.319669 421.5168 
L 492.68046 544.32 
L 493.041252 421.5168 
L 493.402043 559.7568 
L 493.762835 481.6512 
L 494.484417 514.8288 
L 494.845209 411.1488 
L 495.206 558.3744 
L 495.566792 526.3488 
L 495.927583 567.36 
L 496.288374 475.2 
L 497.009957 470.1312 
L 497.370749 580.2624 
L 497.73154 571.2768 
L 498.453123 564.8256 
L 498.813914 582.7968 
L 499.174706 485.3376 
L 499.896289 577.4976 
L 500.978663 571.2768 
L 501.339454 494.3232 
L 502.061037 567.36 
L 502.421829 568.7424 
L 505.019527 609.5232 
L 505.74111 576.3456 
L 506.101901 481.6512 
L 506.462692 577.4976 
L 506.823484 519.8976 
L 508.988232 609.5232 
L 509.349024 555.84 
L 511.513772 632.5632 
L 512.235355 535.3344 
L 513.678521 639.0144 
L 515.121686 612.0576 
L 515.482478 586.4832 
L 519.451183 573.8112 
L 519.811975 553.3056 
L 520.894349 627.4944 
L 521.976723 531.4176 
L 522.698306 642.9312 
L 523.78068 633.9456 
L 524.141472 624.96 
L 525.223846 641.5488 
L 527.027803 618.5088 
L 528.470969 606.9888 
L 532.800466 614.8224 
L 534.604423 621.0432 
L 534.965214 614.8224 
L 536.047588 615.9744 
L 537.129963 589.0176 
L 539.655502 606.9888 
L 541.098668 615.9744 
L 542.181042 546.8544 
L 543.263417 632.5632 
L 544.706582 531.4176 
L 545.067374 568.7424 
L 545.428165 564.8256 
L 546.149748 540.4032 
L 546.510539 564.8256 
L 546.871331 445.7088 
L 547.232122 505.8432 
L 547.592913 589.0176 
L 547.953705 517.3632 
L 548.675288 532.8 
L 549.396871 454.6944 
L 549.757662 490.6368 
L 550.118453 402.1632 
L 550.479245 457.2288 
L 550.840036 439.2576 
L 551.200828 445.7088 
L 551.561619 513.6768 
L 551.92241 318.9888 
L 552.283202 289.4976 
L 552.643993 517.3632 
L 553.004785 541.7856 
L 553.365576 439.2576 
L 554.087159 431.6544 
L 554.44795 366.4512 
L 554.808742 452.16 
L 555.169533 448.2432 
L 555.891116 496.8576 
L 556.251907 505.8432 
L 556.612699 443.1744 
L 556.97349 470.1312 
L 557.334282 368.9856 
L 557.695073 481.6512 
L 558.416656 395.9424 
L 558.777447 528.8832 
L 559.138239 490.6368 
L 559.49903 514.8288 
L 560.581404 466.2144 
L 560.942196 594.3168 
L 562.02457 485.3376 
L 562.385361 463.68 
L 563.467736 580.2624 
L 564.189319 598.0032 
L 564.55011 505.8432 
L 564.910901 458.6112 
L 565.271693 555.84 
L 566.354067 558.3744 
L 566.714858 458.6112 
L 567.07565 537.8688 
L 567.436441 559.7568 
L 567.797233 505.8432 
L 568.158024 553.3056 
L 568.518815 582.7968 
L 568.879607 519.8976 
L 569.60119 571.2768 
L 569.961981 449.6256 
L 570.322773 544.32 
L 571.044355 511.1424 
L 571.405147 431.6544 
L 571.765938 576.3456 
L 572.12673 493.1712 
L 572.487521 541.7856 
L 572.848312 517.3632 
L 573.209104 535.3344 
L 573.569895 514.8288 
L 573.930687 475.2 
L 575.013061 562.2912 
L 576.095435 594.3168 
L 576.456227 531.4176 
L 576.817018 499.6224 
L 577.177809 591.7824 
L 577.899392 502.1568 
L 578.260184 422.6688 
L 578.620975 598.0032 
L 579.342558 494.3232 
L 579.703349 490.6368 
L 580.424932 600.5376 
L 581.146515 458.6112 
L 581.868098 472.6656 
L 582.228889 519.8976 
L 582.589681 541.7856 
L 582.950472 576.3456 
L 583.311263 499.6224 
L 583.672055 553.3056 
L 584.032846 384.4224 
L 584.393638 481.6512 
L 584.754429 457.2288 
L 585.11522 576.3456 
L 585.476012 573.8112 
L 585.836803 546.8544 
L 586.197595 448.2432 
L 586.558386 594.3168 
L 587.279969 564.8256 
L 588.362343 567.36 
L 588.723135 505.8432 
L 589.444717 499.6224 
L 590.1663 558.3744 
L 590.527092 513.6768 
L 590.887883 494.3232 
L 591.609466 490.6368 
L 592.331049 564.8256 
L 592.69184 546.8544 
L 593.413423 562.2912 
L 593.774214 526.3488 
L 594.495797 526.3488 
L 594.856589 549.3888 
L 595.21738 532.8 
L 595.578171 485.3376 
L 595.938963 541.7856 
L 596.299754 523.8144 
L 596.660546 315.3024 
L 597.021337 472.6656 
L 597.382129 383.04 
L 597.74292 502.1568 
L 598.103711 499.6224 
L 598.464503 508.3776 
L 598.825294 502.1568 
L 599.186086 564.8256 
L 600.629251 519.8976 
L 600.990043 585.3312 
L 601.350834 502.1568 
L 601.711626 550.7712 
L 602.072417 553.3056 
L 602.433208 537.8688 
L 602.794 475.2 
L 603.154791 342.0288 
L 603.515583 481.6512 
L 603.876374 416.2176 
L 604.237165 591.7824 
L 604.597957 559.7568 
L 604.958748 594.3168 
L 605.31954 549.3888 
L 606.041122 600.5376 
L 606.401914 615.9744 
L 606.762705 550.7712 
L 607.84508 612.0576 
L 608.566662 517.3632 
L 608.927454 555.84 
L 609.649037 571.2768 
L 610.009828 549.3888 
L 610.442778 598.0032 
L 610.803569 541.7856 
L 611.164361 571.2768 
L 611.525152 503.3088 
L 612.246735 606.9888 
L 612.607526 567.36 
L 613.329109 573.8112 
L 614.050692 568.7424 
L 614.411483 528.8832 
L 615.493858 585.3312 
L 615.854649 550.7712 
L 616.937023 582.7968 
L 618.019397 627.4944 
L 619.101772 562.2912 
L 619.895513 564.8256 
L 620.400621 630.0288 
L 984.29484 564.8256 
L 984.655632 614.8224 
L 985.377215 549.3888 
L 985.738006 503.3088 
L 986.098797 541.7856 
L 986.459589 526.3488 
L 986.82038 600.5376 
L 987.541963 475.2 
L 987.902754 454.6944 
L 988.263546 632.5632 
L 988.985129 580.2624 
L 989.706712 609.5232 
L 990.789086 522.6624 
L 991.149877 562.2912 
L 991.510669 567.36 
L 991.727143 576.3456 
L 992.087935 514.8288 
L 992.376568 540.4032 
L 993.098151 440.64 
L 993.458942 493.1712 
L 993.819734 624.96 
L 994.541316 443.1744 
L 995.262899 508.3776 
L 995.984482 615.9744 
L 996.706065 591.7824 
L 997.066856 568.7424 
L 997.427648 508.3776 
L 997.788439 606.9888 
L 998.437864 532.8 
L 998.870813 532.8 
L 999.231605 411.1488 
L 999.953188 621.0432 
L 1000.67477 540.4032 
L 1001.396353 523.8144 
L 1002.117936 609.5232 
L 1002.478728 546.8544 
L 1002.839519 550.7712 
L 1003.20031 544.32 
L 1003.561102 466.2144 
L 1003.921893 549.3888 
L 1004.643476 531.4176 
L 1004.859951 585.3312 
L 1005.72585 519.8976 
L 1008.179232 490.6368 
L 1009.333764 582.7968 
L 1009.694556 568.7424 
L 1010.055347 600.5376 
L 1010.416139 485.3376 
L 1011.137721 605.8368 
L 1011.859304 470.1312 
L 1012.941679 526.3488 
L 1013.30247 567.36 
L 1014.024053 458.6112 
L 1014.745636 502.1568 
L 1015.106427 553.3056 
L 1015.467218 532.8 
L 1017.631967 606.9888 
L 1017.992758 466.2144 
L 1018.35355 537.8688 
L 1019.075133 624.96 
L 1019.796715 621.0432 
L 1020.157507 519.8976 
L 1020.518298 618.5088 
L 1021.239881 476.5824 
L 1021.961464 591.7824 
L 1022.683047 586.4832 
L 1023.043838 546.8544 
L 1023.40463 614.8224 
L 1023.765421 612.0576 
L 1024.847795 585.3312 
L 1025.208587 586.4832 
L 1026.290961 612.0576 
L 1027.012544 580.2624 
L 1027.373335 632.5632 
L 1027.734126 614.8224 
L 1028.455709 627.4944 
L 1029.177292 606.9888 
L 1029.538084 612.0576 
L 1029.898875 627.4944 
L 1030.259666 594.3168 
L 1032.063623 642.9312 
L 1032.424415 615.9744 
L 1032.785206 636.48 
L 1033.506789 623.5776 
L 1033.939739 632.5632 
L 1034.949955 589.0176 
L 1035.671538 621.0432 
L 1036.753912 641.5488 
L 1037.114703 571.2768 
L 1041.4442 580.2624 
L 1043.608949 609.5232 
L 1046.856071 609.5232 
L 1049.742403 633.9456 
L 1055.515065 630.0288 
L 1067.998448 365.0688 
L 1074.492694 443.1744 
L 1082.141472 531.4176 
L 1084.161904 600.5376 
L 1084.522695 499.6224 
L 1084.883486 591.7824 
L 1085.244278 540.4032 
L 1085.605069 541.7856 
L 1086.326652 532.8 
L 1086.687443 425.2032 
L 1087.409026 540.4032 
L 1088.130609 544.32 
L 1088.852192 559.7568 
L 1089.212983 540.4032 
L 1089.934566 523.8144 
L 1090.656149 580.2624 
L 1091.01694 577.4976 
L 1092.099315 573.8112 
L 1092.460106 580.2624 
L 1092.820897 519.8976 
L 1093.54248 535.3344 
L 1094.624855 508.3776 
L 1095.346437 589.0176 
L 1095.707229 598.0032 
L 1096.789603 577.4976 
L 1097.511186 623.5776 
L 1097.871977 528.8832 
L 1098.232769 496.8576 
L 1098.954351 614.8224 
L 1099.315143 642.9312 
L 1100.758309 503.3088 
L 1101.479891 586.4832 
L 1101.840683 535.3344 
L 1102.923057 600.5376 
L 1103.283848 484.1856 
L 1103.64464 600.5376 
L 1104.005431 467.5968 
L 1104.727014 567.36 
L 1105.448597 544.32 
L 1106.891763 577.4976 
L 1107.252554 576.3456 
L 1107.613345 393.1776 
L 1107.974137 514.8288 
L 1108.334928 496.8576 
L 1108.69572 595.4688 
L 1109.056511 481.6512 
L 1109.778094 537.8688 
L 1110.499677 499.6224 
L 1110.860468 568.7424 
L 1111.22126 612.0576 
L 1111.582051 523.8144 
L 1111.942842 404.6976 
L 1112.664425 452.16 
L 1113.025217 567.36 
L 1113.746799 505.8432 
L 1114.107591 568.7424 
L 1114.468382 532.8 
L 1114.829174 472.6656 
L 1115.189965 559.7568 
L 1115.911548 484.1856 
L 1116.633131 568.7424 
L 1116.993922 481.6512 
L 1117.715505 544.32 
L 1118.797879 564.8256 
L 1119.519462 603.3024 
L 1119.880253 589.0176 
L 1120.241045 598.0032 
L 1120.962628 573.8112 
L 1121.323419 546.8544 
L 1121.684211 621.0432 
L 1122.766585 544.32 
L 1123.127376 612.0576 
L 1123.488168 618.5088 
L 1124.20975 589.0176 
L 1125.292125 535.3344 
L 1126.374499 555.84 
L 1126.73529 573.8112 
L 1127.096082 600.5376 
L 1127.456873 639.0144 
L 1128.178456 609.5232 
L 1128.900039 553.3056 
L 1129.26083 481.6512 
L 1129.621622 633.9456 
L 1130.703996 591.7824 
L 1131.064787 614.8224 
L 1131.78637 633.9456 
L 1132.507953 612.0576 
L 1132.868744 555.84 
L 1133.229536 623.5776 
L 1133.590327 630.0288 
L 1133.951119 609.5232 
L 1134.31191 485.3376 
L 1135.033493 603.3024 
L 1135.394284 576.3456 
L 1135.755076 580.2624 
L 1136.115867 630.0288 
L 1137.198241 633.9456 
L 1137.559033 624.96 
L 1137.919824 630.0288 
L 1138.641407 559.7568 
L 1139.002198 618.5088 
L 1139.36299 632.5632 
L 1139.723781 623.5776 
L 1139.940256 457.2288 
L 1140.301047 582.7968 
L 1146.218027 639.0144 
L 1147.300401 564.8256 
L 1148.382775 615.9744 
L 1149.465149 636.48 
L 1149.825941 609.5232 
L 1150.547524 633.9456 
L 1150.908315 598.0032 
L 1152.712272 623.5776 
L 1154.877021 585.3312 
L 1155.598603 639.0144 
L 1156.320186 627.4944 
L 1169.308677 386.9568 
L 1169.669469 493.1712 
L 1170.03026 517.3632 
L 1170.535368 499.6224 
L 1180.276736 448.2432 
L 1181.214794 439.2576 
L 1181.575585 526.3488 
L 1181.936377 365.0688 
L 1182.297168 439.2576 
L 1182.657959 443.1744 
L 1183.379542 558.3744 
L 1183.740334 580.2624 
L 1184.101125 502.1568 
L 1184.461916 496.8576 
L 1184.822708 537.8688 
L 1185.183499 564.8256 
L 1185.905082 401.0112 
L 1186.626665 553.3056 
L 1187.348248 475.2 
L 1187.709039 603.3024 
L 1188.069831 562.2912 
L 1188.358464 508.3776 
L 1188.719255 595.4688 
L 1189.080047 609.5232 
L 1189.440838 555.84 
L 1190.162421 404.6976 
L 1190.523212 537.8688 
L 1190.884004 549.3888 
L 1191.605586 609.5232 
L 1192.327169 476.5824 
L 1192.687961 615.9744 
L 1193.048752 594.3168 
L 1193.409544 485.3376 
L 1194.131126 612.0576 
L 1194.852709 555.84 
L 1195.574292 614.8224 
L 1196.295875 606.9888 
L 1196.656666 496.8576 
L 1197.378249 595.4688 
L 1197.73904 514.8288 
L 1198.460623 621.0432 
L 1198.821415 573.8112 
L 1199.182206 618.5088 
L 1201.707746 591.7824 
L 1202.068537 603.3024 
L 1202.429329 499.6224 
L 1203.150912 600.5376 
L 1203.511703 595.4688 
L 1203.872495 499.6224 
L 1204.954869 633.9456 
L 1205.31566 598.0032 
L 1206.037243 540.4032 
L 1206.398034 472.6656 
L 1207.119617 485.3376 
L 1208.923574 603.3024 
L 1209.284366 546.8544 
L 1209.645157 531.4176 
L 1210.36674 541.7856 
L 1210.727531 606.9888 
L 1211.088323 502.1568 
L 1211.449114 546.8544 
L 1211.809906 562.2912 
L 1212.170697 513.6768 
L 1212.531488 546.8544 
L 1212.89228 567.36 
L 1213.253071 519.8976 
L 1213.613863 595.4688 
L 1213.974654 505.8432 
L 1214.696237 609.5232 
L 1215.057028 531.4176 
L 1215.778611 449.6256 
L 1216.139403 461.1456 
L 1217.221777 528.8832 
L 1217.582568 517.3632 
L 1217.94336 463.68 
L 1218.304151 549.3888 
L 1219.025734 544.32 
L 1219.386525 488.1024 
L 1220.4689 522.6624 
L 1221.190482 479.1168 
L 1221.912065 549.3888 
L 1222.272857 513.6768 
L 1222.633648 526.3488 
L 1222.994439 434.1888 
L 1223.716022 546.8544 
L 1224.076814 508.3776 
L 1224.437605 427.7376 
L 1224.798396 517.3632 
L 1225.159188 559.7568 
L 1225.519979 582.7968 
L 1225.880771 522.6624 
L 1226.602354 449.6256 
L 1226.963145 623.5776 
L 1227.323936 526.3488 
L 1228.045519 594.3168 
L 1228.406311 594.3168 
L 1229.127893 598.0032 
L 1229.849476 531.4176 
L 1230.571059 639.0144 
L 1231.292642 605.8368 
L 1231.653433 577.4976 
L 1232.375016 531.4176 
L 1233.096599 589.0176 
L 1234.251132 576.3456 
L 1234.539765 605.8368 
L 1235.622139 605.8368 
L 1236.343722 576.3456 
L 1237.065305 606.9888 
L 1237.426096 594.3168 
L 1237.786887 614.8224 
L 1238.869262 568.7424 
L 1239.590844 642.9312 
L 1239.951636 600.5376 
L 1241.755593 567.36 
L 1242.837967 633.9456 
L 1243.198759 614.8224 
L 1243.55955 612.0576 
L 1244.281133 641.5488 
L 1245.002716 630.0288 
L 1245.363507 627.4944 
L 1245.724298 555.84 
L 1247.889047 594.3168 
L 1248.249838 595.4688 
L 1249.332213 614.8224 
L 1249.693004 605.8368 
L 1251.13617 624.96 
L 1254.383292 641.5488 
L 1255.104875 630.0288 
L 1256.187249 623.5776 
L 1256.908832 639.0144 
L 1257.991207 606.9888 
L 1259.073581 632.5632 
L 1259.795164 627.4944 
L 1260.516746 609.5232 
L 1262.320703 621.0432 
L 1263.403078 636.48 
L 1264.485452 612.0576 
L 1264.846243 630.0288 
L 1265.928618 571.2768 
L 1267.371783 633.9456 
L 1267.732575 642.9312 
L 1268.093366 567.36 
L 1268.814949 632.5632 
L 1270.258115 585.3312 
L 1270.618906 580.2624 
L 1272.422863 564.8256 
L 1272.783654 553.3056 
L 1273.505237 586.4832 
L 1274.587612 454.6944 
L 1274.948403 485.3376 
L 1275.309194 544.32 
L 1275.669986 454.6944 
L 1276.030777 499.6224 
L 1276.391569 383.04 
L 1276.75236 439.2576 
L 1277.113151 522.6624 
L 1277.473943 418.9824 
L 1277.834734 360 
L 1278.195526 321.5232 
L 1278.556317 368.9856 
L 1278.917109 488.1024 
L 1279.2779 317.8368 
L 1279.638691 461.1456 
L 1279.999483 348.48 
L 1280.360274 395.9424 
L 1280.721066 375.4368 
L 1281.081857 502.1568 
L 1281.442648 407.4624 
L 1281.80344 345.9456 
L 1282.164231 353.5488 
L 1282.525023 454.6944 
L 1282.885814 386.9568 
L 1283.246605 430.5024 
L 1283.968188 476.5824 
L 1284.32898 546.8544 
L 1284.689771 439.2576 
L 1285.050563 519.8976 
L 1285.411354 546.8544 
L 1286.132937 427.7376 
L 1286.493728 436.7232 
L 1286.85452 526.3488 
L 1287.576102 526.3488 
L 1287.936894 567.36 
L 1288.297685 550.7712 
L 1288.658477 528.8832 
L 1289.380059 537.8688 
L 1289.740851 526.3488 
L 1290.101642 458.6112 
L 1290.462434 627.4944 
L 1290.823225 523.8144 
L 1291.184017 641.5488 
L 1291.544808 586.4832 
L 1292.987974 594.3168 
L 1293.348765 549.3888 
L 1294.070348 484.1856 
L 1295.297039 573.8112 
L 1296.018621 562.2912 
L 1296.379413 463.68 
L 1296.740204 615.9744 
L 1297.100996 513.6768 
L 1297.461787 564.8256 
L 1297.822579 452.16 
L 1298.18337 503.3088 
L 1298.904953 526.3488 
L 1299.265744 609.5232 
L 1299.626536 494.3232 
L 1299.987327 600.5376 
L 1300.348118 546.8544 
L 1301.069701 567.36 
L 1301.791284 494.3232 
L 1302.152076 559.7568 
L 1302.512867 502.1568 
L 1302.873658 532.8 
L 1303.23445 586.4832 
L 1303.595241 606.9888 
L 1303.956033 511.1424 
L 1304.677615 558.3744 
L 1305.038407 475.2 
L 1305.399198 603.3024 
L 1305.75999 546.8544 
L 1306.120781 549.3888 
L 1306.481572 461.1456 
L 1307.203155 476.5824 
L 1307.924738 558.3744 
L 1308.646321 513.6768 
L 1309.007112 418.9824 
L 1309.367904 440.64 
L 1309.728695 541.7856 
L 1310.089487 514.8288 
L 1310.450278 571.2768 
L 1310.811069 589.0176 
L 1311.171861 508.3776 
L 1311.532652 546.8544 
L 1311.893444 519.8976 
L 1312.254235 603.3024 
L 1312.615027 409.9968 
L 1312.975818 553.3056 
L 1313.336609 519.8976 
L 1313.697401 413.6832 
L 1314.058192 398.4768 
L 1314.779775 573.8112 
L 1315.862149 416.2176 
L 1316.222941 457.2288 
L 1316.944523 503.3088 
L 1317.305315 541.7856 
L 1317.666106 472.6656 
L 1318.026898 567.36 
L 1318.387689 443.1744 
L 1318.748481 586.4832 
L 1319.109272 612.0576 
L 1319.470063 511.1424 
L 1319.830855 535.3344 
L 1320.191646 484.1856 
L 1320.552438 502.1568 
L 1320.913229 457.2288 
L 1321.27402 434.1888 
L 1321.634812 490.6368 
L 1321.995603 609.5232 
L 1322.356395 540.4032 
L 1322.717186 537.8688 
L 1323.077977 409.9968 
L 1323.438769 540.4032 
L 1323.79956 562.2912 
L 1324.160352 422.6688 
L 1324.521143 472.6656 
L 1325.603517 537.8688 
L 1325.964309 484.1856 
L 1326.3251 490.6368 
L 1326.685892 577.4976 
L 1327.407474 475.2 
L 1327.768266 513.6768 
L 1328.273374 531.4176 
L 1328.634165 567.36 
L 1328.994957 502.1568 
L 1329.355748 568.7424 
L 1329.71654 582.7968 
L 1330.077331 544.32 
L 1330.438122 606.9888 
L 1331.159705 562.2912 
L 1331.520497 568.7424 
L 1331.881288 618.5088 
L 1332.242079 609.5232 
L 1332.602871 573.8112 
L 1333.324454 546.8544 
L 1334.046036 603.3024 
L 1334.767619 576.3456 
L 1335.489202 454.6944 
L 1336.932368 615.9744 
L 1338.014742 528.8832 
L 1338.375533 591.7824 
L 1338.736325 467.5968 
L 1339.097116 594.3168 
L 1339.457908 615.9744 
L 1339.818699 595.4688 
L 1340.179491 591.7824 
L 1340.540282 615.9744 
L 1340.901073 630.0288 
L 1341.983448 577.4976 
L 1342.344239 630.0288 
L 1343.065822 615.9744 
L 1343.787405 595.4688 
L 1344.148196 531.4176 
L 1345.23057 585.3312 
L 1345.591362 540.4032 
L 1346.312945 600.5376 
L 1347.75611 577.4976 
L 1348.116902 531.4176 
L 1348.838484 630.0288 
L 1349.199276 595.4688 
L 1349.920859 624.96 
L 1350.28165 630.0288 
L 1351.724816 623.5776 
L 1352.085607 648 
L 1354.250356 630.0288 
L 1355.33273 564.8256 
L 1355.693521 632.5632 
L 1356.415104 609.5232 
L 1356.775896 648 
L 1357.136687 648 
L 1357.85827 627.4944 
L 1359.662227 627.4944 
L 1360.023018 633.9456 
L 1366.156472 591.7824 
L 1369.764386 571.2768 
L 1370.485969 636.48 
L 1371.207552 648 
L 1373.372301 648 
L 1373.733092 642.9312 
L 1374.454675 609.5232 
L 1375.537049 639.0144 
L 1376.619423 615.9744 
L 1378.062589 615.9744 
L 1378.42338 603.3024 
L 1379.144963 553.3056 
L 1379.866546 612.0576 
L 1380.588129 600.5376 
L 1381.309712 564.8256 
L 1383.113669 641.5488 
L 1383.47446 582.7968 
L 1383.835252 564.8256 
L 1384.917626 531.4176 
L 1385.278417 595.4688 
L 1386 577.4976 
L 1386.360791 591.7824 
L 1387.082374 598.0032 
L 1387.443166 609.5232 
L 1387.803957 522.6624 
L 1388.886331 585.3312 
L 1389.247123 576.3456 
L 1389.607914 600.5376 
L 1389.968706 600.5376 
L 1390.329497 598.0032 
L 1390.690288 627.4944 
L 1391.411871 449.6256 
L 1392.133454 591.7824 
L 1392.494245 585.3312 
L 1392.855037 484.1856 
L 1393.215828 585.3312 
L 1393.57662 615.9744 
L 1393.937411 586.4832 
L 1394.298203 618.5088 
L 1395.019785 511.1424 
L 1395.380577 603.3024 
L 1396.10216 594.3168 
L 1396.823742 589.0176 
L 1397.545325 558.3744 
L 1397.906117 603.3024 
L 1398.266908 526.3488 
L 1398.988491 559.7568 
L 1399.349282 564.8256 
L 1400.070865 360 
L 1400.431657 528.8832 
L 1400.792448 571.2768 
L 1401.153239 537.8688 
L 1401.514031 594.3168 
L 1401.874822 523.8144 
L 1402.235614 493.1712 
L 1402.596405 550.7712 
L 1402.957196 576.3456 
L 1403.317988 443.1744 
L 1403.678779 481.6512 
L 1404.400362 445.7088 
L 1404.761154 374.0544 
L 1405.121945 508.3776 
L 1405.482736 514.8288 
L 1406.565111 559.7568 
L 1406.925902 470.1312 
L 1407.286693 537.8688 
L 1407.647485 505.8432 
L 1408.008276 505.8432 
L 1408.369068 392.0256 
L 1408.729859 514.8288 
L 1409.09065 562.2912 
L 1409.451442 540.4032 
L 1409.812233 532.8 
L 1410.533816 594.3168 
L 1410.894608 503.3088 
L 1411.255399 496.8576 
L 1411.976982 457.2288 
L 1412.698565 490.6368 
L 1413.059356 544.32 
L 1413.780939 511.1424 
L 1414.14173 481.6512 
L 1414.502522 555.84 
L 1414.863313 517.3632 
L 1415.224104 558.3744 
L 1415.584896 532.8 
L 1415.945687 528.8832 
L 1416.306479 550.7712 
L 1416.66727 463.68 
L 1417.028062 485.3376 
L 1417.388853 540.4032 
L 1418.110436 475.2 
L 1418.471227 598.0032 
L 1418.832019 503.3088 
L 1419.19281 632.5632 
L 1419.914393 523.8144 
L 1420.275184 522.6624 
L 1420.996767 535.3344 
L 1421.71835 457.2288 
L 1422.079141 605.8368 
L 1422.439933 594.3168 
L 1422.800724 505.8432 
L 1423.161516 580.2624 
L 1423.522307 585.3312 
L 1423.883098 573.8112 
L 1424.24389 549.3888 
L 1424.604681 550.7712 
L 1425.326264 576.3456 
L 1425.687055 595.4688 
L 1426.047847 600.5376 
L 1426.76943 589.0176 
L 1427.130221 580.2624 
L 1427.491013 466.2144 
L 1427.851804 605.8368 
L 1428.212595 585.3312 
L 1428.573387 606.9888 
L 1428.934178 591.7824 
L 1429.29497 564.8256 
L 1429.655761 517.3632 
L 1430.016552 573.8112 
L 1430.377344 603.3024 
L 1430.738135 562.2912 
L 1431.098927 576.3456 
L 1431.459718 582.7968 
L 1431.82051 648 
L 1432.181301 564.8256 
L 1432.542092 615.9744 
L 1432.902884 571.2768 
L 1433.263675 585.3312 
L 1433.985258 559.7568 
L 1434.346049 598.0032 
L 1434.706841 615.9744 
L 1435.067632 488.1024 
L 1435.789215 586.4832 
L 1436.150006 612.0576 
L 1437.232381 481.6512 
L 1437.953964 523.8144 
L 1438.314755 523.8144 
L 1438.675546 522.6624 
L 1439.397129 568.7424 
L 1439.757921 567.36 
L 1440.118712 513.6768 
L 1440.840295 562.2912 
L 1441.561878 632.5632 
L 1442.28346 535.3344 
L 1442.644252 598.0032 
L 1443.365835 603.3024 
L 1444.448209 481.6512 
L 1444.809 567.36 
L 1445.169792 580.2624 
L 1445.530583 505.8432 
L 1446.252166 641.5488 
L 1446.612957 615.9744 
L 1447.695332 633.9456 
L 1448.416915 550.7712 
L 1449.499289 633.9456 
L 1449.86008 526.3488 
L 1450.220872 594.3168 
L 1450.581663 603.3024 
L 1451.303246 633.9456 
L 1451.664037 594.3168 
L 1452.024829 585.3312 
L 1452.746411 595.4688 
L 1453.107203 576.3456 
L 1453.828786 627.4944 
L 1454.91116 603.3024 
L 1455.271951 632.5632 
L 1455.993534 591.7824 
L 1456.715117 612.0576 
L 1458.519074 632.5632 
L 1458.879866 623.5776 
L 1459.240657 600.5376 
L 1467.538859 605.8368 
L 1467.899651 621.0432 
L 1468.621234 630.0288 
L 1470.064399 623.5776 
L 1477.641019 627.4944 
L 1478.00181 633.9456 
L 1478.362602 627.4944 
L 1480.52735 639.0144 
L 1484.135264 621.0432 
L 1484.856847 621.0432 
L 1486.300013 618.5088 
L 1486.660804 606.9888 
L 1487.021596 627.4944 
L 1488.464761 605.8368 
L 1488.825553 618.5088 
L 1489.186344 549.3888 
L 1490.268718 639.0144 
L 1490.990301 571.2768 
L 1491.711884 648 
L 1492.072676 595.4688 
L 1493.15505 642.9312 
L 1494.237424 594.3168 
L 1494.959007 612.0576 
L 1496.041381 564.8256 
L 1496.762964 573.8112 
L 1497.123755 618.5088 
L 1497.484547 586.4832 
L 1498.566921 580.2624 
L 1498.927712 550.7712 
L 1499.649295 555.84 
L 1500.010087 606.9888 
L 1500.731669 636.48 
L 1501.092461 567.36 
L 1501.453252 571.2768 
L 1501.814044 458.6112 
L 1502.174835 546.8544 
L 1502.535627 591.7824 
L 1502.896418 555.84 
L 1503.257209 484.1856 
L 1503.618001 523.8144 
L 1503.978792 600.5376 
L 1504.339584 470.1312 
L 1504.700375 606.9888 
L 1505.421958 488.1024 
L 1505.782749 540.4032 
L 1506.143541 496.8576 
L 1506.865123 466.2144 
L 1507.225915 434.1888 
L 1507.586706 532.8 
L 1507.947498 558.3744 
L 1508.308289 606.9888 
L 1508.669081 540.4032 
L 1509.029872 546.8544 
L 1509.390663 490.6368 
L 1509.751455 511.1424 
L 1510.112246 541.7856 
L 1510.473038 461.1456 
L 1510.833829 555.84 
L 1511.19462 401.0112 
L 1511.555412 591.7824 
L 1512.276995 562.2912 
L 1512.637786 458.6112 
L 1513.142894 586.4832 
L 1513.503686 485.3376 
L 1513.864477 342.0288 
L 1514.225268 532.8 
L 1514.58606 454.6944 
L 1514.946851 443.1744 
L 1515.307643 479.1168 
L 1516.029225 365.0688 
L 1516.390017 386.9568 
L 1516.750808 503.3088 
L 1517.1116 505.8432 
L 1517.472391 439.2576 
L 1517.833182 550.7712 
L 1518.193974 490.6368 
L 1518.915557 470.1312 
L 1519.276348 484.1856 
L 1519.997931 567.36 
L 1520.719514 549.3888 
L 1521.080305 476.5824 
L 1521.441097 511.1424 
L 1521.801888 528.8832 
L 1522.523471 398.4768 
L 1523.245054 589.0176 
L 1523.605845 461.1456 
L 1523.966636 402.1632 
L 1524.327428 496.8576 
L 1524.688219 458.6112 
L 1525.409802 421.5168 
L 1525.770594 517.3632 
L 1526.131385 490.6368 
L 1526.492176 479.1168 
L 1526.852968 485.3376 
L 1527.213759 484.1856 
L 1527.574551 559.7568 
L 1527.935342 513.6768 
L 1528.296133 393.1776 
L 1528.656925 375.4368 
L 1529.017716 508.3776 
L 1529.378508 496.8576 
L 1529.739299 449.6256 
L 1530.821673 445.7088 
L 1531.182465 434.1888 
L 1531.543256 440.64 
L 1531.904048 430.5024 
L 1532.264839 528.8832 
L 1532.62563 549.3888 
L 1532.986422 580.2624 
L 1533.347213 413.6832 
L 1533.708005 402.1632 
L 1534.068796 493.1712 
L 1534.429587 416.2176 
L 1534.790379 526.3488 
L 1535.15117 519.8976 
L 1535.511962 528.8832 
L 1535.872753 402.1632 
L 1536.233545 531.4176 
L 1536.594336 576.3456 
L 1536.955127 401.0112 
L 1537.315919 481.6512 
L 1537.67671 532.8 
L 1538.037502 402.1632 
L 1538.398293 609.5232 
L 1539.119876 411.1488 
L 1539.480667 393.1776 
L 1539.841459 522.6624 
L 1540.563042 535.3344 
L 1540.923833 411.1488 
L 1541.284624 494.3232 
L 1542.006207 632.5632 
L 1542.366999 528.8832 
L 1543.088581 589.0176 
L 1543.449373 586.4832 
L 1543.810164 553.3056 
L 1544.170956 553.3056 
L 1544.531747 472.6656 
L 1544.892538 576.3456 
L 1545.25333 440.64 
L 1545.974913 591.7824 
L 1546.696496 580.2624 
L 1547.418078 615.9744 
L 1547.77887 586.4832 
L 1548.139661 621.0432 
L 1548.500453 573.8112 
L 1548.861244 614.8224 
L 1549.222035 600.5376 
L 1549.582827 614.8224 
L 1551.386784 577.4976 
L 1552.82995 614.8224 
L 1553.551532 568.7424 
L 1554.633907 609.5232 
L 1554.994698 614.8224 
L 1555.355489 609.5232 
L 1555.716281 642.9312 
L 1556.077072 641.5488 
L 1556.798655 591.7824 
L 1557.159447 632.5632 
L 1557.881029 630.0288 
L 1558.241821 624.96 
L 1558.963404 639.0144 
L 1559.324195 632.5632 
L 1559.684986 630.0288 
L 1560.406569 623.5776 
L 1561.20031 632.5632 
L 1561.488943 580.2624 
L 1562.571318 630.0288 
L 1563.653692 639.0144 
L 1566.179232 595.4688 
L 1567.983189 567.36 
L 1569.787146 641.5488 
L 1570.508729 648 
L 1571.591103 632.5632 
L 1571.951894 618.5088 
L 1572.312686 623.5776 
L 1573.39506 636.48 
L 1573.755852 630.0288 
L 1576.642183 630.0288 
L 1577.002974 648 
L 1577.363766 624.96 
L 1577.724557 648 
L 1578.806931 633.9456 
L 1579.167723 642.9312 
L 1580.250097 639.0144 
L 1580.610888 623.5776 
L 1581.693263 614.8224 
L 1582.054054 630.0288 
L 1582.414845 544.32 
L 1582.775637 594.3168 
L 1583.136428 609.5232 
L 1583.858011 522.6624 
L 1584.218803 580.2624 
L 1584.579594 409.9968 
L 1584.940385 496.8576 
L 1585.301177 526.3488 
L 1585.661968 505.8432 
L 1586.02276 454.6944 
L 1586.383551 562.2912 
L 1587.105134 458.6112 
L 1587.465925 440.64 
L 1587.826717 262.7712 
L 1588.187508 409.9968 
L 1588.548299 452.16 
L 1589.269882 225.6768 
L 1589.630674 421.5168 
L 1589.991465 439.2576 
L 1590.352257 253.7856 
L 1597.568085 421.5168 
L 1597.928876 463.68 
L 1598.289668 445.7088 
L 1598.650459 434.1888 
L 1599.01125 549.3888 
L 1599.372042 499.6224 
L 1599.732833 559.7568 
L 1600.093625 475.2 
L 1600.454416 623.5776 
L 1600.815208 621.0432 
L 1601.175999 493.1712 
L 1601.897582 571.2768 
L 1602.258373 591.7824 
L 1602.619165 513.6768 
L 1603.340747 541.7856 
L 1604.06233 621.0432 
L 1604.423122 595.4688 
L 1604.783913 553.3056 
L 1605.144705 585.3312 
L 1605.505496 567.36 
L 1605.866287 598.0032 
L 1606.227079 490.6368 
L 1606.58787 449.6256 
L 1606.948662 605.8368 
L 1607.309453 544.32 
L 1607.670244 531.4176 
L 1608.031036 535.3344 
L 1608.391827 606.9888 
L 1608.752619 591.7824 
L 1609.11341 591.7824 
L 1610.556576 555.84 
L 1611.278159 550.7712 
L 1611.63895 571.2768 
L 1612.360533 553.3056 
L 1612.721324 532.8 
L 1613.082116 609.5232 
L 1613.442907 624.96 
L 1613.803698 562.2912 
L 1614.16449 541.7856 
L 1614.525281 600.5376 
L 1614.886073 523.8144 
L 1615.607656 544.32 
L 1615.968447 598.0032 
L 1616.329238 623.5776 
L 1616.69003 476.5824 
L 1617.772404 605.8368 
L 1618.133195 562.2912 
L 1618.493987 580.2624 
L 1618.638303 564.8256 
L 1618.999095 598.0032 
L 1619.359886 484.1856 
L 1620.081469 577.4976 
L 1620.44226 573.8112 
L 1620.803052 505.8432 
L 1621.524635 544.32 
L 1621.885426 549.3888 
L 1622.246218 546.8544 
L 1622.607009 479.1168 
L 1623.328592 595.4688 
L 1623.689383 550.7712 
L 1624.050175 618.5088 
L 1624.410966 496.8576 
L 1624.771757 532.8 
L 1625.132549 528.8832 
L 1625.49334 531.4176 
L 1625.854132 537.8688 
L 1626.214923 605.8368 
L 1626.575714 546.8544 
L 1626.936506 511.1424 
L 1627.297297 499.6224 
L 1627.658089 618.5088 
L 1628.01888 600.5376 
L 1628.379672 603.3024 
L 1628.740463 519.8976 
L 1629.101254 537.8688 
L 1629.462046 571.2768 
L 1630.183629 576.3456 
L 1630.54442 562.2912 
L 1630.905211 576.3456 
L 1631.266003 573.8112 
L 1631.626794 576.3456 
L 1631.987586 598.0032 
L 1632.348377 508.3776 
L 1632.709168 605.8368 
L 1633.430751 562.2912 
L 1633.791543 594.3168 
L 1634.152334 493.1712 
L 1634.513126 531.4176 
L 1634.873917 549.3888 
L 1635.5955 553.3056 
L 1635.956291 499.6224 
L 1636.317083 517.3632 
L 1636.677874 475.2 
L 1637.399457 573.8112 
L 1637.760248 580.2624 
L 1638.12104 576.3456 
L 1638.481831 540.4032 
L 1638.842623 612.0576 
L 1639.203414 576.3456 
L 1639.564205 621.0432 
L 1640.285788 514.8288 
L 1640.64658 567.36 
L 1641.007371 600.5376 
L 1641.368162 612.0576 
L 1641.728954 580.2624 
L 1642.450537 580.2624 
L 1642.811328 522.6624 
L 1643.605069 606.9888 
L 1643.893702 615.9744 
L 1644.254494 594.3168 
L 1644.615285 605.8368 
L 1644.976077 585.3312 
L 1645.697659 627.4944 
L 1646.058451 615.9744 
L 1646.419242 591.7824 
L 1646.780034 606.9888 
L 1647.140825 540.4032 
L 1647.501616 576.3456 
L 1648.223199 603.3024 
L 1648.583991 591.7824 
L 1649.305574 618.5088 
L 1649.666365 615.9744 
L 1650.027156 606.9888 
L 1651.470322 606.9888 
L 1651.831113 612.0576 
L 1652.119747 589.0176 
L 1652.552696 594.3168 
L 1652.913488 594.3168 
L 1653.995862 541.7856 
L 1654.717445 636.48 
L 1655.439028 598.0032 
L 1655.799819 627.4944 
L 1656.16061 603.3024 
L 1656.59356 621.0432 
L 1656.954351 623.5776 
L 1657.315143 624.96 
L 1657.675934 594.3168 
L 1658.036726 632.5632 
L 1658.325359 600.5376 
L 1658.68615 621.0432 
L 1659.407733 633.9456 
L 1660.923057 624.96 
L 1661.283848 630.0288 
L 1661.64464 632.5632 
L 1661.933273 639.0144 
L 1662.727014 641.5488 
L 1663.087806 627.4944 
L 1663.809388 639.0144 
L 1664.530971 639.0144 
L 1664.891763 609.5232 
L 1665.613345 624.96 
L 1665.974137 648 
L 1666.334928 648 
L 1666.623561 609.5232 
L 1668.066727 636.48 
L 1669.22126 598.0032 
L 1670.231476 627.4944 
L 1671.31385 648 
L 1672.035433 639.0144 
L 1672.396224 630.0288 
L 1672.757015 624.96 
L 1673.117807 627.4944 
L 1673.478598 641.5488 
L 1674.272339 648 
L 1674.633131 630.0288 
L 1676.076296 648 
L 1677.880253 591.7824 
L 1678.241045 627.4944 
L 1678.890469 632.5632 
L 1679.612052 641.5488 
L 1679.972844 641.5488 
L 1680.333635 633.9456 
L 1681.055218 630.0288 
L 1681.416009 623.5776 
L 1682.570542 615.9744 
L 1682.931333 618.5088 
L 1683.219966 624.96 
L 1683.652916 624.96 
L 1684.374499 595.4688 
L 1684.73529 630.0288 
L 1685.023923 633.9456 
L 1685.817665 600.5376 
L 1686.178456 595.4688 
L 1686.467089 568.7424 
L 1686.900039 576.3456 
L 1687.188672 586.4832 
L 1687.549463 571.2768 
L 1687.910255 564.8256 
L 1688.271046 562.2912 
L 1688.703996 458.6112 
L 1689.064787 457.2288 
L 1689.425579 531.4176 
L 1690.147162 558.3744 
L 1690.507953 589.0176 
L 1690.796586 479.1168 
L 1691.157377 421.5168 
L 1691.518169 445.7088 
L 1691.87896 377.9712 
L 1692.31191 318.9888 
L 1692.600543 418.9824 
L 1692.961335 326.8224 
L 1693.322126 321.5232 
L 1693.682917 392.0256 
L 1694.115867 234.6624 
L 1694.4045 472.6656 
L 1694.765292 494.3232 
L 1695.126083 134.6688 
L 1695.486874 330.5088 
L 1695.919824 321.5232 
L 1696.280616 280.7424 
L 1696.641407 449.6256 
L 1697.002198 247.3344 
L 1697.723781 421.5168 
L 1698.445364 315.3024 
L 1698.806155 421.5168 
L 1699.166947 413.6832 
L 1699.88853 443.1744 
L 1700.249321 448.2432 
L 1700.610113 555.84 
L 1701.331695 353.5488 
L 1701.692487 502.1568 
L 1702.053278 568.7424 
L 1702.41407 544.32 
L 1702.774861 558.3744 
L 1703.135652 513.6768 
L 1703.496444 537.8688 
L 1703.857235 514.8288 
L 1704.218027 523.8144 
L 1704.578818 553.3056 
L 1704.939609 603.3024 
L 1705.300401 517.3632 
L 1705.661192 562.2912 
L 1706.021984 466.2144 
L 1706.382775 519.8976 
L 1706.743567 550.7712 
L 1707.104358 553.3056 
L 1707.465149 342.0288 
L 1707.825941 541.7856 
L 1708.547524 642.9312 
L 1708.908315 466.2144 
L 1709.269106 532.8 
L 1709.990689 627.4944 
L 1710.712272 598.0032 
L 1711.073063 576.3456 
L 1711.433855 585.3312 
L 1711.794646 499.6224 
L 1712.155438 558.3744 
L 1712.877021 526.3488 
L 1713.237812 598.0032 
L 1713.598603 467.5968 
L 1713.959395 546.8544 
L 1714.320186 562.2912 
L 1714.680978 609.5232 
L 1715.40256 503.3088 
L 1715.763352 615.9744 
L 1716.124143 567.36 
L 1716.845726 546.8544 
L 1717.206518 606.9888 
L 1717.567309 582.7968 
L 1717.9281 615.9744 
L 1718.288892 586.4832 
L 1718.649683 591.7824 
L 1719.010475 490.6368 
L 1719.371266 541.7856 
L 1719.732057 562.2912 
L 1720.45364 623.5776 
L 1720.814432 562.2912 
L 1721.175223 595.4688 
L 1721.536014 609.5232 
L 1721.896806 595.4688 
L 1722.257597 540.4032 
L 1722.618389 577.4976 
L 1722.97918 585.3312 
L 1723.339972 562.2912 
L 1723.700763 499.6224 
L 1724.061554 612.0576 
L 1724.783137 595.4688 
L 1725.143929 603.3024 
L 1725.360403 633.9456 
L 1726.081986 461.1456 
L 1726.442778 582.7968 
L 1726.803569 535.3344 
L 1727.164361 531.4176 
L 1727.525152 555.84 
L 1727.885943 526.3488 
L 1728.246735 531.4176 
L 1728.607526 586.4832 
L 1728.968318 582.7968 
L 1729.329109 544.32 
L 1729.6899 594.3168 
L 1730.411483 528.8832 
L 1730.772275 514.8288 
L 1731.493858 577.4976 
L 1731.854649 540.4032 
L 1732.576232 511.1424 
L 1732.937023 606.9888 
L 1733.297815 484.1856 
L 1733.658606 571.2768 
L 1734.019397 522.6624 
L 1734.380189 544.32 
L 1734.74098 503.3088 
L 1735.101772 528.8832 
L 1735.462563 445.7088 
L 1735.823354 522.6624 
L 1736.184146 499.6224 
L 1736.544937 440.64 
L 1736.905729 550.7712 
L 1737.26652 508.3776 
L 1737.627312 485.3376 
L 1737.988103 535.3344 
L 1738.348894 615.9744 
L 1738.709686 523.8144 
L 1739.070477 603.3024 
L 1739.431269 559.7568 
L 1739.79206 532.8 
L 1740.152851 514.8288 
L 1740.513643 401.0112 
L 1740.874434 407.4624 
L 1741.235226 549.3888 
L 1741.596017 523.8144 
L 1742.3176 633.9456 
L 1742.678391 517.3632 
L 1743.399974 531.4176 
L 1743.760766 503.3088 
L 1744.121557 523.8144 
L 1744.482348 591.7824 
L 1744.84314 540.4032 
L 1745.203931 571.2768 
L 1745.925514 595.4688 
L 1746.286305 600.5376 
L 1746.647097 558.3744 
L 1747.007888 603.3024 
L 1747.729471 541.7856 
L 1748.451054 531.4176 
L 1749.172637 488.1024 
L 1749.533428 562.2912 
L 1749.89422 605.8368 
L 1750.615802 609.5232 
L 1750.976594 562.2912 
L 1751.337385 573.8112 
L 1751.698177 513.6768 
L 1752.058968 609.5232 
L 1752.419759 598.0032 
L 1752.780551 526.3488 
L 1753.141342 550.7712 
L 1753.862925 623.5776 
L 1754.223717 621.0432 
L 1754.584508 630.0288 
L 1754.945299 609.5232 
L 1755.306091 595.4688 
L 1755.666882 632.5632 
L 1756.027674 544.32 
L 1756.388465 618.5088 
L 1756.749256 639.0144 
L 1757.110048 632.5632 
L 1757.470839 594.3168 
L 1757.831631 630.0288 
L 1758.192422 598.0032 
L 1758.914005 609.5232 
L 1759.274796 605.8368 
L 1760.357171 609.5232 
L 1761.078753 585.3312 
L 1761.800336 627.4944 
L 1762.161128 612.0576 
L 1762.88271 641.5488 
L 1763.604293 627.4944 
L 1764.686668 632.5632 
L 1765.047459 614.8224 
L 1765.40825 648 
L 1766.129833 614.8224 
L 1766.490625 648 
L 1766.851416 624.96 
L 1767.212207 624.96 
L 1767.572999 591.7824 
L 1767.93379 633.9456 
L 1768.294582 627.4944 
L 1768.655373 624.96 
L 1769.737747 627.4944 
L 1770.098539 623.5776 
L 1771.180913 568.7424 
L 1771.541704 648 
L 1772.624079 648 
L 1772.98487 621.0432 
L 1773.706453 641.5488 
L 1774.067244 642.9312 
L 1774.428036 633.9456 
L 1774.788827 630.0288 
L 1775.149619 648 
L 1775.871201 648 
L 1776.231993 606.9888 
L 1778.03595 609.5232 
L 1778.396741 609.5232 
L 1779.479115 627.4944 
L 1780.922281 648 
L 1781.283073 633.9456 
L 1781.643864 624.96 
L 1782.004655 630.0288 
L 1782.365447 618.5088 
L 1783.08703 621.0432 
L 1783.447821 630.0288 
L 1784.169404 627.4944 
L 1784.530195 648 
L 1784.890987 603.3024 
L 1785.61257 641.5488 
L 1785.973361 623.5776 
L 1786.334152 568.7424 
L 1787.055735 642.9312 
L 1787.416527 606.9888 
L 1788.498901 603.3024 
L 1788.859692 571.2768 
L 1789.581275 630.0288 
L 1789.942066 632.5632 
L 1791.385232 558.3744 
L 1791.746024 499.6224 
L 1792.106815 502.1568 
L 1792.467606 496.8576 
L 1792.828398 336.96 
L 1793.549981 555.84 
L 1793.910772 513.6768 
L 1794.271563 445.7088 
L 1794.632355 439.2576 
L 1794.993146 452.16 
L 1795.353938 436.7232 
L 1795.714729 383.04 
L 1796.075521 398.4768 
L 1796.436312 366.4512 
L 1796.797103 243.4176 
L 1797.157895 342.0288 
L 1797.518686 276.8256 
L 1797.879478 393.1776 
L 1798.240269 307.4688 
L 1798.60106 407.4624 
L 1798.961852 375.4368 
L 1799.683435 252.4032 
L 1800.044226 310.0032 
L 1800.405017 407.4624 
L 1800.765809 243.4176 
L 1801.1266 389.4912 
L 1801.487392 413.6832 
L 1801.848183 366.4512 
L 1802.208975 463.68 
L 1802.569766 217.8432 
L 1802.930557 443.1744 
L 1803.291349 411.1488 
L 1803.65214 283.2768 
L 1804.012932 357.4656 
L 1804.373723 526.3488 
L 1804.734514 348.48 
L 1805.095306 461.1456 
L 1805.456097 470.1312 
L 1805.816889 472.6656 
L 1806.17768 511.1424 
L 1806.538471 461.1456 
L 1806.899263 458.6112 
L 1807.260054 546.8544 
L 1807.620846 493.1712 
L 1807.981637 519.8976 
L 1808.342429 505.8432 
L 1808.70322 555.84 
L 1809.064011 505.8432 
L 1809.424803 585.3312 
L 1809.785594 448.2432 
L 1810.146386 564.8256 
L 1810.507177 434.1888 
L 1810.867968 517.3632 
L 1811.589551 571.2768 
L 1811.950343 499.6224 
L 1812.671926 609.5232 
L 1813.032717 571.2768 
L 1813.393508 598.0032 
L 1813.7543 496.8576 
L 1814.115091 546.8544 
L 1814.475883 571.2768 
L 1814.836674 586.4832 
L 1815.197465 609.5232 
L 1815.558257 448.2432 
L 1815.919048 567.36 
L 1816.27984 564.8256 
L 1816.640631 537.8688 
L 1817.001422 600.5376 
L 1817.362214 567.36 
L 1817.723005 508.3776 
L 1818.80538 614.8224 
L 1819.166171 615.9744 
L 1819.526962 598.0032 
L 1819.887754 523.8144 
L 1820.248545 603.3024 
L 1820.609337 598.0032 
L 1820.970128 598.0032 
L 1821.330919 553.3056 
L 1821.691711 549.3888 
L 1822.052502 609.5232 
L 1822.413294 499.6224 
L 1822.774085 567.36 
L 1823.134877 540.4032 
L 1823.495668 580.2624 
L 1823.856459 585.3312 
L 1824.578042 609.5232 
L 1824.938834 550.7712 
L 1825.299625 594.3168 
L 1825.660416 594.3168 
L 1826.021208 609.5232 
L 1826.381999 535.3344 
L 1826.742791 589.0176 
L 1827.103582 550.7712 
L 1827.464373 589.0176 
L 1827.825165 609.5232 
L 1828.185956 505.8432 
L 1828.546748 605.8368 
L 1829.268331 549.3888 
L 1829.989913 580.2624 
L 1830.350705 463.68 
L 1830.711496 568.7424 
L 1831.072288 559.7568 
L 1831.433079 490.6368 
L 1831.79387 511.1424 
L 1831.866029 580.2624 
L 1832.22682 614.8224 
L 1832.587612 544.32 
L 1833.309194 615.9744 
L 1833.669986 553.3056 
L 1834.030777 621.0432 
L 1834.391569 526.3488 
L 1835.473943 605.8368 
L 1835.834734 535.3344 
L 1836.556317 598.0032 
L 1836.917108 514.8288 
L 1837.2779 475.2 
L 1837.638691 508.3776 
L 1837.999483 623.5776 
L 1838.360274 448.2432 
L 1838.721066 553.3056 
L 1839.081857 549.3888 
L 1839.442648 577.4976 
L 1839.80344 508.3776 
L 1840.164231 513.6768 
L 1840.525023 591.7824 
L 1840.885814 595.4688 
L 1841.246605 541.7856 
L 1841.607397 519.8976 
L 1842.32898 513.6768 
L 1842.689771 576.3456 
L 1843.050563 558.3744 
L 1843.411354 582.7968 
L 1843.772145 568.7424 
L 1844.493728 614.8224 
L 1844.85452 519.8976 
L 1845.215311 537.8688 
L 1845.936894 564.8256 
L 1846.297685 615.9744 
L 1846.658477 632.5632 
L 1847.019268 511.1424 
L 1847.380059 559.7568 
L 1847.740851 541.7856 
L 1848.101642 513.6768 
L 1848.462434 555.84 
L 1849.184017 511.1424 
L 1849.544808 605.8368 
L 1849.905599 603.3024 
L 1850.266391 605.8368 
L 1850.627182 585.3312 
L 1850.987974 576.3456 
L 1851.348765 535.3344 
L 1851.709556 627.4944 
L 1852.070348 594.3168 
L 1852.431139 612.0576 
L 1852.791931 585.3312 
L 1853.152722 582.7968 
L 1853.513514 594.3168 
L 1853.874305 582.7968 
L 1854.235096 577.4976 
L 1854.595888 499.6224 
L 1854.956679 612.0576 
L 1855.317471 546.8544 
L 1855.678262 615.9744 
L 1856.039053 553.3056 
L 1856.399845 614.8224 
L 1856.760636 612.0576 
L 1857.121428 540.4032 
L 1857.482219 632.5632 
L 1857.84301 517.3632 
L 1858.203802 586.4832 
L 1858.564593 618.5088 
L 1859.286176 585.3312 
L 1859.646968 558.3744 
L 1860.007759 623.5776 
L 1861.090133 591.7824 
L 1861.450925 614.8224 
L 1862.172507 591.7824 
L 1862.533299 546.8544 
L 1862.89409 612.0576 
L 1863.254882 603.3024 
L 1863.615673 564.8256 
L 1863.976465 618.5088 
L 1864.265098 614.8224 
L 1864.698047 648 
L 1865.058839 605.8368 
L 1865.347472 632.5632 
L 1865.780422 639.0144 
L 1866.141213 609.5232 
L 1866.502004 624.96 
L 1866.862796 600.5376 
L 1867.223587 639.0144 
L 1867.584379 648 
L 1868.666753 633.9456 
L 1869.027544 648 
L 1869.749127 636.48 
L 1870.109919 648 
L 1871.913876 648 
L 1872.274667 639.0144 
L 1872.99625 603.3024 
L 1873.717833 612.0576 
L 1874.078624 595.4688 
L 1874.800207 639.0144 
L 1876.604164 639.0144 
L 1877.253589 595.4688 
L 1877.686538 603.3024 
L 1878.408121 623.5776 
L 1879.129704 648 
L 1880.212078 648 
L 1880.57287 623.5776 
L 1880.933661 632.5632 
L 1881.294452 648 
L 1881.655244 648 
L 1882.016035 618.5088 
L 1882.737618 632.5632 
L 1883.098409 624.96 
L 1883.459201 632.5632 
L 1884.180784 627.4944 
L 1884.541575 648 
L 1884.902366 600.5376 
L 1885.263158 648 
L 1885.623949 636.48 
L 1885.984741 648 
L 1886.345532 605.8368 
L 1886.706324 589.0176 
L 1887.067115 648 
L 1887.427906 639.0144 
L 1888.149489 627.4944 
L 1888.510281 595.4688 
L 1888.871072 648 
L 1889.231863 627.4944 
L 1889.592655 648 
L 1889.953446 641.5488 
L 1890.314238 648 
L 1890.675029 648 
L 1891.035821 641.5488 
L 1891.396612 571.2768 
L 1891.757403 630.0288 
L 1892.118195 615.9744 
L 1892.478986 627.4944 
L 1892.839778 526.3488 
L 1893.200569 605.8368 
L 1893.56136 582.7968 
L 1893.922152 595.4688 
L 1894.282943 595.4688 
L 1894.643735 605.8368 
L 1895.365317 540.4032 
L 1895.726109 618.5088 
L 1896.447692 496.8576 
L 1896.808483 476.5824 
L 1897.169275 485.3376 
L 1897.530066 472.6656 
L 1897.890857 519.8976 
L 1898.251649 475.2 
L 1898.61244 470.1312 
L 1898.973232 324.0576 
L 1899.694814 449.6256 
L 1900.055606 271.7568 
L 1900.416397 342.0288 
L 1900.777189 265.3056 
L 1901.13798 315.3024 
L 1901.498771 261.3888 
L 1901.859563 229.3632 
L 1902.220354 310.0032 
L 1902.581146 261.3888 
L 1902.941937 443.1744 
L 1903.302729 398.4768 
L 1903.66352 452.16 
L 1904.024311 618.5088 
L 1904.385103 582.7968 
L 1904.745894 261.3888 
L 1905.467477 618.5088 
L 1905.828268 523.8144 
L 1906.18906 206.3232 
L 1906.549851 494.3232 
L 1907.271434 431.6544 
L 1907.632226 351.0144 
L 1907.993017 448.2432 
L 1908.353808 488.1024 
L 1908.7146 354.9312 
L 1909.075391 448.2432 
L 1909.796974 555.84 
L 1910.157765 445.7088 
L 1910.518557 490.6368 
L 1910.879348 514.8288 
L 1911.24014 508.3776 
L 1911.961722 573.8112 
L 1912.322514 550.7712 
L 1912.683305 339.4944 
L 1913.044097 503.3088 
L 1913.76568 362.5344 
L 1914.126471 594.3168 
L 1914.487262 532.8 
L 1914.848054 496.8576 
L 1915.569637 580.2624 
L 1915.930428 505.8432 
L 1916.291219 624.96 
L 1916.652011 484.1856 
L 1917.012802 564.8256 
L 1917.373594 573.8112 
L 1917.734385 472.6656 
L 1918.095177 577.4976 
L 1918.455968 600.5376 
L 1918.816759 513.6768 
L 1919.177551 550.7712 
L 1919.538342 544.32 
L 1919.899134 544.32 
L 1920.259925 614.8224 
L 1920.981508 632.5632 
L 1921.342299 519.8976 
L 1921.703091 589.0176 
L 1922.063882 571.2768 
L 1922.424673 564.8256 
L 1922.785465 514.8288 
L 1923.146256 528.8832 
L 1923.507048 496.8576 
L 1923.867839 562.2912 
L 1924.228631 595.4688 
L 1924.589422 523.8144 
L 1924.950213 600.5376 
L 1925.311005 537.8688 
L 1925.671796 511.1424 
L 1926.032588 559.7568 
L 1926.393379 573.8112 
L 1926.75417 488.1024 
L 1927.114962 624.96 
L 1927.475753 605.8368 
L 1927.836545 567.36 
L 1928.197336 589.0176 
L 1928.918919 532.8 
L 1929.640502 618.5088 
L 1930.001293 594.3168 
L 1930.362085 591.7824 
L 1930.722876 531.4176 
L 1931.083667 582.7968 
L 1931.444459 535.3344 
L 1931.80525 612.0576 
L 1932.166042 586.4832 
L 1932.526833 598.0032 
L 1932.887624 517.3632 
L 1933.248416 600.5376 
L 1933.969999 511.1424 
L 1934.33079 558.3744 
L 1934.691582 531.4176 
L 1935.052373 488.1024 
L 1935.413164 648 
L 1935.773956 523.8144 
L 1936.062589 540.4032 
L 1936.42338 517.3632 
L 1936.784172 508.3776 
L 1937.144963 481.6512 
L 1937.505755 580.2624 
L 1937.794388 577.4976 
L 1938.227337 568.7424 
L 1938.515971 558.3744 
L 1938.876762 589.0176 
L 1939.237553 585.3312 
L 1939.598345 503.3088 
L 1939.959136 582.7968 
L 1940.392086 553.3056 
L 1941.04151 466.2144 
L 1941.47446 582.7968 
L 1941.835252 544.32 
L 1942.196043 392.0256 
L 1942.556834 434.1888 
L 1942.917626 531.4176 
L 1943.278417 568.7424 
L 1943.639209 452.16 
L 1944 519.8976 
L 1944 519.8976 
" style="fill:none;stroke:#0000ff;stroke-linecap:square;"/>
   </g>
   <g id="line2d_2">
    <defs>
     <path d="M 0 3 
C 0.795609 3 1.55874 2.683901 2.12132 2.12132 
C 2.683901 1.55874 3 0.795609 3 0 
C 3 -0.795609 2.683901 -1.55874 2.12132 -2.12132 
C 1.55874 -2.683901 0.795609 -3 0 -3 
C -0.795609 -3 -1.55874 -2.683901 -2.12132 -2.12132 
C -2.683901 -1.55874 -3 -0.795609 -3 0 
C -3 0.795609 -2.683901 1.55874 -2.12132 2.12132 
C -1.55874 2.683901 -0.795609 3 0 3 
z
" id="m46a99cd564" style="stroke:#000000;stroke-width:0.5;"/>
    </defs>
    <g clip-path="url(#p33b27fd68d)">
     <use style="fill:#ff0000;stroke:#000000;stroke-width:0.5;" x="440.726496845" xlink:href="#m46a99cd564" y="395.9424"/>
     <use style="fill:#ff0000;stroke:#000000;stroke-width:0.5;" x="445.41678521" xlink:href="#m46a99cd564" y="160.2432"/>
     <use style="fill:#ff0000;stroke:#000000;stroke-width:0.5;" x="603.154791161" xlink:href="#m46a99cd564" y="342.0288"/>
     <use style="fill:#ff0000;stroke:#000000;stroke-width:0.5;" x="1278.19552568" xlink:href="#m46a99cd564" y="321.5232"/>
     <use style="fill:#ff0000;stroke:#000000;stroke-width:0.5;" x="1279.99948274" xlink:href="#m46a99cd564" y="348.48"/>
     <use style="fill:#ff0000;stroke:#000000;stroke-width:0.5;" x="1587.82671668" xlink:href="#m46a99cd564" y="262.7712"/>
     <use style="fill:#ff0000;stroke:#000000;stroke-width:0.5;" x="1695.12608303" xlink:href="#m46a99cd564" y="134.6688"/>
     <use style="fill:#ff0000;stroke:#000000;stroke-width:0.5;" x="1796.79710333" xlink:href="#m46a99cd564" y="243.4176"/>
     <use style="fill:#ff0000;stroke:#000000;stroke-width:0.5;" x="1901.8595629" xlink:href="#m46a99cd564" y="229.3632"/>
     <use style="fill:#ff0000;stroke:#000000;stroke-width:0.5;" x="1904.74589421" xlink:href="#m46a99cd564" y="261.3888"/>
     <use style="fill:#ff0000;stroke:#000000;stroke-width:0.5;" x="1906.18905988" xlink:href="#m46a99cd564" y="206.3232"/>
    </g>
   </g>
   <g id="patch_3">
    <path d="M 270 72 
L 1944 72 
" style="fill:none;stroke:#000000;stroke-linecap:square;stroke-linejoin:miter;"/>
   </g>
   <g id="patch_4">
    <path d="M 1944 648 
L 1944 72 
" style="fill:none;stroke:#000000;stroke-linecap:square;stroke-linejoin:miter;"/>
   </g>
   <g id="patch_5">
    <path d="M 270 648 
L 1944 648 
" style="fill:none;stroke:#000000;stroke-linecap:square;stroke-linejoin:miter;"/>
   </g>
   <g id="patch_6">
    <path d="M 270 648 
L 270 72 
" style="fill:none;stroke:#000000;stroke-linecap:square;stroke-linejoin:miter;"/>
   </g>
   <g id="matplotlib.axis_1">
    <g id="xtick_1">
     <g id="line2d_3">
      <defs>
       <path d="M 0 0 
L 0 -4 
" id="m4351246ad6" style="stroke:#000000;stroke-width:0.5;"/>
      </defs>
      <g>
       <use style="stroke:#000000;stroke-width:0.5;" x="418.285270929" xlink:href="#m4351246ad6" y="648.0"/>
      </g>
     </g>
     <g id="line2d_4">
      <defs>
       <path d="M 0 0 
L 0 4 
" id="m0ed81edf22" style="stroke:#000000;stroke-width:0.5;"/>
      </defs>
      <g>
       <use style="stroke:#000000;stroke-width:0.5;" x="418.285270929" xlink:href="#m0ed81edf22" y="72.0"/>
      </g>
     </g>
     <g id="text_1">
      <!-- Sep 03 2015 -->
      <defs>
       <path d="M 19.1875 8.296875 
L 53.609375 8.296875 
L 53.609375 0 
L 7.328125 0 
L 7.328125 8.296875 
Q 12.9375 14.109375 22.625 23.890625 
Q 32.328125 33.6875 34.8125 36.53125 
Q 39.546875 41.84375 41.421875 45.53125 
Q 43.3125 49.21875 43.3125 52.78125 
Q 43.3125 58.59375 39.234375 62.25 
Q 35.15625 65.921875 28.609375 65.921875 
Q 23.96875 65.921875 18.8125 64.3125 
Q 13.671875 62.703125 7.8125 59.421875 
L 7.8125 69.390625 
Q 13.765625 71.78125 18.9375 73 
Q 24.125 74.21875 28.421875 74.21875 
Q 39.75 74.21875 46.484375 68.546875 
Q 53.21875 62.890625 53.21875 53.421875 
Q 53.21875 48.921875 51.53125 44.890625 
Q 49.859375 40.875 45.40625 35.40625 
Q 44.1875 33.984375 37.640625 27.21875 
Q 31.109375 20.453125 19.1875 8.296875 
" id="BitstreamVeraSans-Roman-32"/>
       <path id="BitstreamVeraSans-Roman-20"/>
       <path d="M 31.78125 66.40625 
Q 24.171875 66.40625 20.328125 58.90625 
Q 16.5 51.421875 16.5 36.375 
Q 16.5 21.390625 20.328125 13.890625 
Q 24.171875 6.390625 31.78125 6.390625 
Q 39.453125 6.390625 43.28125 13.890625 
Q 47.125 21.390625 47.125 36.375 
Q 47.125 51.421875 43.28125 58.90625 
Q 39.453125 66.40625 31.78125 66.40625 
M 31.78125 74.21875 
Q 44.046875 74.21875 50.515625 64.515625 
Q 56.984375 54.828125 56.984375 36.375 
Q 56.984375 17.96875 50.515625 8.265625 
Q 44.046875 -1.421875 31.78125 -1.421875 
Q 19.53125 -1.421875 13.0625 8.265625 
Q 6.59375 17.96875 6.59375 36.375 
Q 6.59375 54.828125 13.0625 64.515625 
Q 19.53125 74.21875 31.78125 74.21875 
" id="BitstreamVeraSans-Roman-30"/>
       <path d="M 12.40625 8.296875 
L 28.515625 8.296875 
L 28.515625 63.921875 
L 10.984375 60.40625 
L 10.984375 69.390625 
L 28.421875 72.90625 
L 38.28125 72.90625 
L 38.28125 8.296875 
L 54.390625 8.296875 
L 54.390625 0 
L 12.40625 0 
z
" id="BitstreamVeraSans-Roman-31"/>
       <path d="M 40.578125 39.3125 
Q 47.65625 37.796875 51.625 33 
Q 55.609375 28.21875 55.609375 21.1875 
Q 55.609375 10.40625 48.1875 4.484375 
Q 40.765625 -1.421875 27.09375 -1.421875 
Q 22.515625 -1.421875 17.65625 -0.515625 
Q 12.796875 0.390625 7.625 2.203125 
L 7.625 11.71875 
Q 11.71875 9.328125 16.59375 8.109375 
Q 21.484375 6.890625 26.8125 6.890625 
Q 36.078125 6.890625 40.9375 10.546875 
Q 45.796875 14.203125 45.796875 21.1875 
Q 45.796875 27.640625 41.28125 31.265625 
Q 36.765625 34.90625 28.71875 34.90625 
L 20.21875 34.90625 
L 20.21875 43.015625 
L 29.109375 43.015625 
Q 36.375 43.015625 40.234375 45.921875 
Q 44.09375 48.828125 44.09375 54.296875 
Q 44.09375 59.90625 40.109375 62.90625 
Q 36.140625 65.921875 28.71875 65.921875 
Q 24.65625 65.921875 20.015625 65.03125 
Q 15.375 64.15625 9.8125 62.3125 
L 9.8125 71.09375 
Q 15.4375 72.65625 20.34375 73.4375 
Q 25.25 74.21875 29.59375 74.21875 
Q 40.828125 74.21875 47.359375 69.109375 
Q 53.90625 64.015625 53.90625 55.328125 
Q 53.90625 49.265625 50.4375 45.09375 
Q 46.96875 40.921875 40.578125 39.3125 
" id="BitstreamVeraSans-Roman-33"/>
       <path d="M 10.796875 72.90625 
L 49.515625 72.90625 
L 49.515625 64.59375 
L 19.828125 64.59375 
L 19.828125 46.734375 
Q 21.96875 47.46875 24.109375 47.828125 
Q 26.265625 48.1875 28.421875 48.1875 
Q 40.625 48.1875 47.75 41.5 
Q 54.890625 34.8125 54.890625 23.390625 
Q 54.890625 11.625 47.5625 5.09375 
Q 40.234375 -1.421875 26.90625 -1.421875 
Q 22.3125 -1.421875 17.546875 -0.640625 
Q 12.796875 0.140625 7.71875 1.703125 
L 7.71875 11.625 
Q 12.109375 9.234375 16.796875 8.0625 
Q 21.484375 6.890625 26.703125 6.890625 
Q 35.15625 6.890625 40.078125 11.328125 
Q 45.015625 15.765625 45.015625 23.390625 
Q 45.015625 31 40.078125 35.4375 
Q 35.15625 39.890625 26.703125 39.890625 
Q 22.75 39.890625 18.8125 39.015625 
Q 14.890625 38.140625 10.796875 36.28125 
z
" id="BitstreamVeraSans-Roman-35"/>
       <path d="M 53.515625 70.515625 
L 53.515625 60.890625 
Q 47.90625 63.578125 42.921875 64.890625 
Q 37.9375 66.21875 33.296875 66.21875 
Q 25.25 66.21875 20.875 63.09375 
Q 16.5 59.96875 16.5 54.203125 
Q 16.5 49.359375 19.40625 46.890625 
Q 22.3125 44.4375 30.421875 42.921875 
L 36.375 41.703125 
Q 47.40625 39.59375 52.65625 34.296875 
Q 57.90625 29 57.90625 20.125 
Q 57.90625 9.515625 50.796875 4.046875 
Q 43.703125 -1.421875 29.984375 -1.421875 
Q 24.8125 -1.421875 18.96875 -0.25 
Q 13.140625 0.921875 6.890625 3.21875 
L 6.890625 13.375 
Q 12.890625 10.015625 18.65625 8.296875 
Q 24.421875 6.59375 29.984375 6.59375 
Q 38.421875 6.59375 43.015625 9.90625 
Q 47.609375 13.234375 47.609375 19.390625 
Q 47.609375 24.75 44.3125 27.78125 
Q 41.015625 30.8125 33.5 32.328125 
L 27.484375 33.5 
Q 16.453125 35.6875 11.515625 40.375 
Q 6.59375 45.0625 6.59375 53.421875 
Q 6.59375 63.09375 13.40625 68.65625 
Q 20.21875 74.21875 32.171875 74.21875 
Q 37.3125 74.21875 42.625 73.28125 
Q 47.953125 72.359375 53.515625 70.515625 
" id="BitstreamVeraSans-Roman-53"/>
       <path d="M 56.203125 29.59375 
L 56.203125 25.203125 
L 14.890625 25.203125 
Q 15.484375 15.921875 20.484375 11.0625 
Q 25.484375 6.203125 34.421875 6.203125 
Q 39.59375 6.203125 44.453125 7.46875 
Q 49.3125 8.734375 54.109375 11.28125 
L 54.109375 2.78125 
Q 49.265625 0.734375 44.1875 -0.34375 
Q 39.109375 -1.421875 33.890625 -1.421875 
Q 20.796875 -1.421875 13.15625 6.1875 
Q 5.515625 13.8125 5.515625 26.8125 
Q 5.515625 40.234375 12.765625 48.109375 
Q 20.015625 56 32.328125 56 
Q 43.359375 56 49.78125 48.890625 
Q 56.203125 41.796875 56.203125 29.59375 
M 47.21875 32.234375 
Q 47.125 39.59375 43.09375 43.984375 
Q 39.0625 48.390625 32.421875 48.390625 
Q 24.90625 48.390625 20.390625 44.140625 
Q 15.875 39.890625 15.1875 32.171875 
z
" id="BitstreamVeraSans-Roman-65"/>
       <path d="M 18.109375 8.203125 
L 18.109375 -20.796875 
L 9.078125 -20.796875 
L 9.078125 54.6875 
L 18.109375 54.6875 
L 18.109375 46.390625 
Q 20.953125 51.265625 25.265625 53.625 
Q 29.59375 56 35.59375 56 
Q 45.5625 56 51.78125 48.09375 
Q 58.015625 40.1875 58.015625 27.296875 
Q 58.015625 14.40625 51.78125 6.484375 
Q 45.5625 -1.421875 35.59375 -1.421875 
Q 29.59375 -1.421875 25.265625 0.953125 
Q 20.953125 3.328125 18.109375 8.203125 
M 48.6875 27.296875 
Q 48.6875 37.203125 44.609375 42.84375 
Q 40.53125 48.484375 33.40625 48.484375 
Q 26.265625 48.484375 22.1875 42.84375 
Q 18.109375 37.203125 18.109375 27.296875 
Q 18.109375 17.390625 22.1875 11.75 
Q 26.265625 6.109375 33.40625 6.109375 
Q 40.53125 6.109375 44.609375 11.75 
Q 48.6875 17.390625 48.6875 27.296875 
" id="BitstreamVeraSans-Roman-70"/>
      </defs>
      <g transform="translate(380.256520929 661.118125)scale(0.12 -0.12)">
       <use xlink:href="#BitstreamVeraSans-Roman-53"/>
       <use x="63.4765625" xlink:href="#BitstreamVeraSans-Roman-65"/>
       <use x="125.0" xlink:href="#BitstreamVeraSans-Roman-70"/>
       <use x="188.4765625" xlink:href="#BitstreamVeraSans-Roman-20"/>
       <use x="220.263671875" xlink:href="#BitstreamVeraSans-Roman-30"/>
       <use x="283.88671875" xlink:href="#BitstreamVeraSans-Roman-33"/>
       <use x="347.509765625" xlink:href="#BitstreamVeraSans-Roman-20"/>
       <use x="379.296875" xlink:href="#BitstreamVeraSans-Roman-32"/>
       <use x="442.919921875" xlink:href="#BitstreamVeraSans-Roman-30"/>
       <use x="506.54296875" xlink:href="#BitstreamVeraSans-Roman-31"/>
       <use x="570.166015625" xlink:href="#BitstreamVeraSans-Roman-35"/>
      </g>
     </g>
    </g>
    <g id="xtick_2">
     <g id="line2d_5">
      <g>
       <use style="stroke:#000000;stroke-width:0.5;" x="626.101125047" xlink:href="#m4351246ad6" y="648.0"/>
      </g>
     </g>
     <g id="line2d_6">
      <g>
       <use style="stroke:#000000;stroke-width:0.5;" x="626.101125047" xlink:href="#m0ed81edf22" y="72.0"/>
      </g>
     </g>
     <g id="text_2">
      <!-- Sep 05 2015 -->
      <g transform="translate(588.072375047 661.118125)scale(0.12 -0.12)">
       <use xlink:href="#BitstreamVeraSans-Roman-53"/>
       <use x="63.4765625" xlink:href="#BitstreamVeraSans-Roman-65"/>
       <use x="125.0" xlink:href="#BitstreamVeraSans-Roman-70"/>
       <use x="188.4765625" xlink:href="#BitstreamVeraSans-Roman-20"/>
       <use x="220.263671875" xlink:href="#BitstreamVeraSans-Roman-30"/>
       <use x="283.88671875" xlink:href="#BitstreamVeraSans-Roman-35"/>
       <use x="347.509765625" xlink:href="#BitstreamVeraSans-Roman-20"/>
       <use x="379.296875" xlink:href="#BitstreamVeraSans-Roman-32"/>
       <use x="442.919921875" xlink:href="#BitstreamVeraSans-Roman-30"/>
       <use x="506.54296875" xlink:href="#BitstreamVeraSans-Roman-31"/>
       <use x="570.166015625" xlink:href="#BitstreamVeraSans-Roman-35"/>
      </g>
     </g>
    </g>
    <g id="xtick_3">
     <g id="line2d_7">
      <g>
       <use style="stroke:#000000;stroke-width:0.5;" x="833.916979179" xlink:href="#m4351246ad6" y="648.0"/>
      </g>
     </g>
     <g id="line2d_8">
      <g>
       <use style="stroke:#000000;stroke-width:0.5;" x="833.916979179" xlink:href="#m0ed81edf22" y="72.0"/>
      </g>
     </g>
     <g id="text_3">
      <!-- Sep 07 2015 -->
      <defs>
       <path d="M 8.203125 72.90625 
L 55.078125 72.90625 
L 55.078125 68.703125 
L 28.609375 0 
L 18.3125 0 
L 43.21875 64.59375 
L 8.203125 64.59375 
z
" id="BitstreamVeraSans-Roman-37"/>
      </defs>
      <g transform="translate(795.888229179 661.118125)scale(0.12 -0.12)">
       <use xlink:href="#BitstreamVeraSans-Roman-53"/>
       <use x="63.4765625" xlink:href="#BitstreamVeraSans-Roman-65"/>
       <use x="125.0" xlink:href="#BitstreamVeraSans-Roman-70"/>
       <use x="188.4765625" xlink:href="#BitstreamVeraSans-Roman-20"/>
       <use x="220.263671875" xlink:href="#BitstreamVeraSans-Roman-30"/>
       <use x="283.88671875" xlink:href="#BitstreamVeraSans-Roman-37"/>
       <use x="347.509765625" xlink:href="#BitstreamVeraSans-Roman-20"/>
       <use x="379.296875" xlink:href="#BitstreamVeraSans-Roman-32"/>
       <use x="442.919921875" xlink:href="#BitstreamVeraSans-Roman-30"/>
       <use x="506.54296875" xlink:href="#BitstreamVeraSans-Roman-31"/>
       <use x="570.166015625" xlink:href="#BitstreamVeraSans-Roman-35"/>
      </g>
     </g>
    </g>
    <g id="xtick_4">
     <g id="line2d_9">
      <g>
       <use style="stroke:#000000;stroke-width:0.5;" x="1041.73283331" xlink:href="#m4351246ad6" y="648.0"/>
      </g>
     </g>
     <g id="line2d_10">
      <g>
       <use style="stroke:#000000;stroke-width:0.5;" x="1041.73283331" xlink:href="#m0ed81edf22" y="72.0"/>
      </g>
     </g>
     <g id="text_4">
      <!-- Sep 09 2015 -->
      <defs>
       <path d="M 10.984375 1.515625 
L 10.984375 10.5 
Q 14.703125 8.734375 18.5 7.8125 
Q 22.3125 6.890625 25.984375 6.890625 
Q 35.75 6.890625 40.890625 13.453125 
Q 46.046875 20.015625 46.78125 33.40625 
Q 43.953125 29.203125 39.59375 26.953125 
Q 35.25 24.703125 29.984375 24.703125 
Q 19.046875 24.703125 12.671875 31.3125 
Q 6.296875 37.9375 6.296875 49.421875 
Q 6.296875 60.640625 12.9375 67.421875 
Q 19.578125 74.21875 30.609375 74.21875 
Q 43.265625 74.21875 49.921875 64.515625 
Q 56.59375 54.828125 56.59375 36.375 
Q 56.59375 19.140625 48.40625 8.859375 
Q 40.234375 -1.421875 26.421875 -1.421875 
Q 22.703125 -1.421875 18.890625 -0.6875 
Q 15.09375 0.046875 10.984375 1.515625 
M 30.609375 32.421875 
Q 37.25 32.421875 41.125 36.953125 
Q 45.015625 41.5 45.015625 49.421875 
Q 45.015625 57.28125 41.125 61.84375 
Q 37.25 66.40625 30.609375 66.40625 
Q 23.96875 66.40625 20.09375 61.84375 
Q 16.21875 57.28125 16.21875 49.421875 
Q 16.21875 41.5 20.09375 36.953125 
Q 23.96875 32.421875 30.609375 32.421875 
" id="BitstreamVeraSans-Roman-39"/>
      </defs>
      <g transform="translate(1003.70408331 661.118125)scale(0.12 -0.12)">
       <use xlink:href="#BitstreamVeraSans-Roman-53"/>
       <use x="63.4765625" xlink:href="#BitstreamVeraSans-Roman-65"/>
       <use x="125.0" xlink:href="#BitstreamVeraSans-Roman-70"/>
       <use x="188.4765625" xlink:href="#BitstreamVeraSans-Roman-20"/>
       <use x="220.263671875" xlink:href="#BitstreamVeraSans-Roman-30"/>
       <use x="283.88671875" xlink:href="#BitstreamVeraSans-Roman-39"/>
       <use x="347.509765625" xlink:href="#BitstreamVeraSans-Roman-20"/>
       <use x="379.296875" xlink:href="#BitstreamVeraSans-Roman-32"/>
       <use x="442.919921875" xlink:href="#BitstreamVeraSans-Roman-30"/>
       <use x="506.54296875" xlink:href="#BitstreamVeraSans-Roman-31"/>
       <use x="570.166015625" xlink:href="#BitstreamVeraSans-Roman-35"/>
      </g>
     </g>
    </g>
    <g id="xtick_5">
     <g id="line2d_11">
      <g>
       <use style="stroke:#000000;stroke-width:0.5;" x="1249.54868744" xlink:href="#m4351246ad6" y="648.0"/>
      </g>
     </g>
     <g id="line2d_12">
      <g>
       <use style="stroke:#000000;stroke-width:0.5;" x="1249.54868744" xlink:href="#m0ed81edf22" y="72.0"/>
      </g>
     </g>
     <g id="text_5">
      <!-- Sep 11 2015 -->
      <g transform="translate(1211.51993744 661.118125)scale(0.12 -0.12)">
       <use xlink:href="#BitstreamVeraSans-Roman-53"/>
       <use x="63.4765625" xlink:href="#BitstreamVeraSans-Roman-65"/>
       <use x="125.0" xlink:href="#BitstreamVeraSans-Roman-70"/>
       <use x="188.4765625" xlink:href="#BitstreamVeraSans-Roman-20"/>
       <use x="220.263671875" xlink:href="#BitstreamVeraSans-Roman-31"/>
       <use x="283.88671875" xlink:href="#BitstreamVeraSans-Roman-31"/>
       <use x="347.509765625" xlink:href="#BitstreamVeraSans-Roman-20"/>
       <use x="379.296875" xlink:href="#BitstreamVeraSans-Roman-32"/>
       <use x="442.919921875" xlink:href="#BitstreamVeraSans-Roman-30"/>
       <use x="506.54296875" xlink:href="#BitstreamVeraSans-Roman-31"/>
       <use x="570.166015625" xlink:href="#BitstreamVeraSans-Roman-35"/>
      </g>
     </g>
    </g>
    <g id="xtick_6">
     <g id="line2d_13">
      <g>
       <use style="stroke:#000000;stroke-width:0.5;" x="1457.36454158" xlink:href="#m4351246ad6" y="648.0"/>
      </g>
     </g>
     <g id="line2d_14">
      <g>
       <use style="stroke:#000000;stroke-width:0.5;" x="1457.36454158" xlink:href="#m0ed81edf22" y="72.0"/>
      </g>
     </g>
     <g id="text_6">
      <!-- Sep 13 2015 -->
      <g transform="translate(1419.33579158 661.118125)scale(0.12 -0.12)">
       <use xlink:href="#BitstreamVeraSans-Roman-53"/>
       <use x="63.4765625" xlink:href="#BitstreamVeraSans-Roman-65"/>
       <use x="125.0" xlink:href="#BitstreamVeraSans-Roman-70"/>
       <use x="188.4765625" xlink:href="#BitstreamVeraSans-Roman-20"/>
       <use x="220.263671875" xlink:href="#BitstreamVeraSans-Roman-31"/>
       <use x="283.88671875" xlink:href="#BitstreamVeraSans-Roman-33"/>
       <use x="347.509765625" xlink:href="#BitstreamVeraSans-Roman-20"/>
       <use x="379.296875" xlink:href="#BitstreamVeraSans-Roman-32"/>
       <use x="442.919921875" xlink:href="#BitstreamVeraSans-Roman-30"/>
       <use x="506.54296875" xlink:href="#BitstreamVeraSans-Roman-31"/>
       <use x="570.166015625" xlink:href="#BitstreamVeraSans-Roman-35"/>
      </g>
     </g>
    </g>
    <g id="xtick_7">
     <g id="line2d_15">
      <g>
       <use style="stroke:#000000;stroke-width:0.5;" x="1665.18039571" xlink:href="#m4351246ad6" y="648.0"/>
      </g>
     </g>
     <g id="line2d_16">
      <g>
       <use style="stroke:#000000;stroke-width:0.5;" x="1665.18039571" xlink:href="#m0ed81edf22" y="72.0"/>
      </g>
     </g>
     <g id="text_7">
      <!-- Sep 15 2015 -->
      <g transform="translate(1627.15164571 661.118125)scale(0.12 -0.12)">
       <use xlink:href="#BitstreamVeraSans-Roman-53"/>
       <use x="63.4765625" xlink:href="#BitstreamVeraSans-Roman-65"/>
       <use x="125.0" xlink:href="#BitstreamVeraSans-Roman-70"/>
       <use x="188.4765625" xlink:href="#BitstreamVeraSans-Roman-20"/>
       <use x="220.263671875" xlink:href="#BitstreamVeraSans-Roman-31"/>
       <use x="283.88671875" xlink:href="#BitstreamVeraSans-Roman-35"/>
       <use x="347.509765625" xlink:href="#BitstreamVeraSans-Roman-20"/>
       <use x="379.296875" xlink:href="#BitstreamVeraSans-Roman-32"/>
       <use x="442.919921875" xlink:href="#BitstreamVeraSans-Roman-30"/>
       <use x="506.54296875" xlink:href="#BitstreamVeraSans-Roman-31"/>
       <use x="570.166015625" xlink:href="#BitstreamVeraSans-Roman-35"/>
      </g>
     </g>
    </g>
    <g id="xtick_8">
     <g id="line2d_17">
      <g>
       <use style="stroke:#000000;stroke-width:0.5;" x="1872.99624984" xlink:href="#m4351246ad6" y="648.0"/>
      </g>
     </g>
     <g id="line2d_18">
      <g>
       <use style="stroke:#000000;stroke-width:0.5;" x="1872.99624984" xlink:href="#m0ed81edf22" y="72.0"/>
      </g>
     </g>
     <g id="text_8">
      <!-- Sep 17 2015 -->
      <g transform="translate(1834.96749984 661.118125)scale(0.12 -0.12)">
       <use xlink:href="#BitstreamVeraSans-Roman-53"/>
       <use x="63.4765625" xlink:href="#BitstreamVeraSans-Roman-65"/>
       <use x="125.0" xlink:href="#BitstreamVeraSans-Roman-70"/>
       <use x="188.4765625" xlink:href="#BitstreamVeraSans-Roman-20"/>
       <use x="220.263671875" xlink:href="#BitstreamVeraSans-Roman-31"/>
       <use x="283.88671875" xlink:href="#BitstreamVeraSans-Roman-37"/>
       <use x="347.509765625" xlink:href="#BitstreamVeraSans-Roman-20"/>
       <use x="379.296875" xlink:href="#BitstreamVeraSans-Roman-32"/>
       <use x="442.919921875" xlink:href="#BitstreamVeraSans-Roman-30"/>
       <use x="506.54296875" xlink:href="#BitstreamVeraSans-Roman-31"/>
       <use x="570.166015625" xlink:href="#BitstreamVeraSans-Roman-35"/>
      </g>
     </g>
    </g>
   </g>
   <g id="matplotlib.axis_2">
    <g id="ytick_1">
     <g id="line2d_19">
      <defs>
       <path d="M 0 0 
L 4 0 
" id="mcebdb6e010" style="stroke:#000000;stroke-width:0.5;"/>
      </defs>
      <g>
       <use style="stroke:#000000;stroke-width:0.5;" x="270.0" xlink:href="#mcebdb6e010" y="648.0"/>
      </g>
     </g>
     <g id="line2d_20">
      <defs>
       <path d="M 0 0 
L -4 0 
" id="m2c39029203" style="stroke:#000000;stroke-width:0.5;"/>
      </defs>
      <g>
       <use style="stroke:#000000;stroke-width:0.5;" x="1944.0" xlink:href="#m2c39029203" y="648.0"/>
      </g>
     </g>
     <g id="text_9">
      <!-- 0 -->
      <g transform="translate(258.365 651.31125)scale(0.12 -0.12)">
       <use xlink:href="#BitstreamVeraSans-Roman-30"/>
      </g>
     </g>
    </g>
    <g id="ytick_2">
     <g id="line2d_21">
      <g>
       <use style="stroke:#000000;stroke-width:0.5;" x="270.0" xlink:href="#mcebdb6e010" y="532.8"/>
      </g>
     </g>
     <g id="line2d_22">
      <g>
       <use style="stroke:#000000;stroke-width:0.5;" x="1944.0" xlink:href="#m2c39029203" y="532.8"/>
      </g>
     </g>
     <g id="text_10">
      <!-- 5 -->
      <g transform="translate(258.365 536.11125)scale(0.12 -0.12)">
       <use xlink:href="#BitstreamVeraSans-Roman-35"/>
      </g>
     </g>
    </g>
    <g id="ytick_3">
     <g id="line2d_23">
      <g>
       <use style="stroke:#000000;stroke-width:0.5;" x="270.0" xlink:href="#mcebdb6e010" y="417.6"/>
      </g>
     </g>
     <g id="line2d_24">
      <g>
       <use style="stroke:#000000;stroke-width:0.5;" x="1944.0" xlink:href="#m2c39029203" y="417.6"/>
      </g>
     </g>
     <g id="text_11">
      <!-- 10 -->
      <g transform="translate(250.73 420.91125)scale(0.12 -0.12)">
       <use xlink:href="#BitstreamVeraSans-Roman-31"/>
       <use x="63.623046875" xlink:href="#BitstreamVeraSans-Roman-30"/>
      </g>
     </g>
    </g>
    <g id="ytick_4">
     <g id="line2d_25">
      <g>
       <use style="stroke:#000000;stroke-width:0.5;" x="270.0" xlink:href="#mcebdb6e010" y="302.4"/>
      </g>
     </g>
     <g id="line2d_26">
      <g>
       <use style="stroke:#000000;stroke-width:0.5;" x="1944.0" xlink:href="#m2c39029203" y="302.4"/>
      </g>
     </g>
     <g id="text_12">
      <!-- 15 -->
      <g transform="translate(250.73 305.71125)scale(0.12 -0.12)">
       <use xlink:href="#BitstreamVeraSans-Roman-31"/>
       <use x="63.623046875" xlink:href="#BitstreamVeraSans-Roman-35"/>
      </g>
     </g>
    </g>
    <g id="ytick_5">
     <g id="line2d_27">
      <g>
       <use style="stroke:#000000;stroke-width:0.5;" x="270.0" xlink:href="#mcebdb6e010" y="187.2"/>
      </g>
     </g>
     <g id="line2d_28">
      <g>
       <use style="stroke:#000000;stroke-width:0.5;" x="1944.0" xlink:href="#m2c39029203" y="187.2"/>
      </g>
     </g>
     <g id="text_13">
      <!-- 20 -->
      <g transform="translate(250.73 190.51125)scale(0.12 -0.12)">
       <use xlink:href="#BitstreamVeraSans-Roman-32"/>
       <use x="63.623046875" xlink:href="#BitstreamVeraSans-Roman-30"/>
      </g>
     </g>
    </g>
    <g id="ytick_6">
     <g id="line2d_29">
      <g>
       <use style="stroke:#000000;stroke-width:0.5;" x="270.0" xlink:href="#mcebdb6e010" y="72.0"/>
      </g>
     </g>
     <g id="line2d_30">
      <g>
       <use style="stroke:#000000;stroke-width:0.5;" x="1944.0" xlink:href="#m2c39029203" y="72.0"/>
      </g>
     </g>
     <g id="text_14">
      <!-- 25 -->
      <g transform="translate(250.73 75.31125)scale(0.12 -0.12)">
       <use xlink:href="#BitstreamVeraSans-Roman-32"/>
       <use x="63.623046875" xlink:href="#BitstreamVeraSans-Roman-35"/>
      </g>
     </g>
    </g>
   </g>
  </g>
 </g>
 <defs>
  <clipPath id="p33b27fd68d">
   <rect height="576.0" width="1674.0" x="270.0" y="72.0"/>
  </clipPath>
 </defs>
</svg>
