<?xml version="1.0" encoding="utf-8" standalone="no"?>
<!DOCTYPE svg PUBLIC "-//W3C//DTD SVG 1.1//EN"
  "http://www.w3.org/Graphics/SVG/1.1/DTD/svg11.dtd">
<!-- Created with matplotlib (http://matplotlib.org/) -->
<svg height="720pt" version="1.1" viewBox="0 0 2160 720" width="2160pt" xmlns="http://www.w3.org/2000/svg" xmlns:xlink="http://www.w3.org/1999/xlink">
 <defs>
  <style type="text/css">
*{stroke-linecap:butt;stroke-linejoin:round;stroke-miterlimit:100000;}
  </style>
 </defs>
 <g id="figure_1">
  <g id="patch_1">
   <path d="M 0 720 
L 2160 720 
L 2160 0 
L 0 0 
z
" style="fill:#ffffff;"/>
  </g>
  <g id="axes_1">
   <g id="patch_2">
    <path d="M 270 648 
L 1944 648 
L 1944 72 
L 270 72 
z
" style="fill:#ffffff;"/>
   </g>
   <g id="line2d_1">
    <path clip-path="url(#p501dc3c26f)" d="M 270 474.432 
L 270.358704 541.376 
L 270.717408 497.216 
L 271.79352 452.416 
L 272.152224 519.232 
L 272.510928 552.768 
L 272.869632 544.192 
L 273.228336 510.784 
L 273.58704 496.576 
L 273.945744 524.992 
L 274.663152 510.784 
L 275.380561 516.416 
L 275.739265 472.384 
L 276.097969 553.408 
L 276.815377 614.592 
L 277.174081 554.176 
L 277.532785 539.2 
L 277.891489 512.832 
L 278.250193 471.616 
L 278.967601 548.416 
L 279.685009 549.184 
L 280.043713 518.592 
L 280.761121 525.632 
L 281.119825 456.768 
L 281.478529 316.608 
L 281.837233 517.824 
L 282.913345 566.208 
L 283.272049 483.008 
L 283.630753 532.032 
L 284.348161 498.624 
L 284.706866 546.368 
L 285.06557 543.424 
L 285.424274 331.584 
L 285.782978 532.032 
L 286.85909 457.408 
L 287.217794 542.016 
L 287.576498 547.776 
L 287.935202 490.816 
L 288.293906 456.768 
L 289.011314 463.808 
L 289.370018 552 
L 289.728722 500.8 
L 290.44613 534.976 
L 290.804834 502.976 
L 291.163538 505.024 
L 291.522242 522.176 
L 292.23965 549.824 
L 292.598354 457.408 
L 293.315762 554.816 
L 294.391875 472.384 
L 294.750579 374.976 
L 295.109283 371.392 
L 295.467987 460.992 
L 296.185395 452.416 
L 296.544099 515.776 
L 296.902803 550.592 
L 297.261507 534.208 
L 297.620211 510.784 
L 297.907174 532.032 
L 298.696323 468.8 
L 299.055027 461.632 
L 299.413731 544.832 
L 299.772435 585.408 
L 300.131139 549.184 
L 300.489843 531.392 
L 301.207251 559.808 
L 301.565955 531.392 
L 303.718179 541.376 
L 304.076884 579.776 
L 304.794292 569.792 
L 305.870404 596.032 
L 306.587812 557.632 
L 307.663924 573.376 
L 309.09874 537.024 
L 309.457444 571.968 
L 310.174852 604.608 
L 310.533556 577.6 
L 311.250964 483.776 
L 311.609668 569.792 
L 311.968372 575.424 
L 312.327076 569.024 
L 312.68578 616.768 
L 313.044484 596.8 
L 313.403188 561.984 
L 315.124968 629.568 
L 315.914117 532.8 
L 316.631525 634.432 
L 316.990229 563.392 
L 318.066341 588.992 
L 318.783749 624.576 
L 319.572898 607.424 
L 319.859861 581.824 
L 320.218565 615.232 
L 320.577269 594.624 
L 322.729493 639.424 
L 324.16431 640.192 
L 324.523014 613.184 
L 325.95783 617.408 
L 329.903574 575.424 
L 330.620982 637.376 
L 334.566727 627.392 
L 335.284135 591.808 
L 336.001543 601.024 
L 337.077655 623.808 
L 337.436359 637.376 
L 339.588583 625.984 
L 340.664695 577.6 
L 342.458215 619.584 
L 342.81692 518.592 
L 343.893032 625.984 
L 344.251736 630.208 
L 344.61044 569.792 
L 344.969144 546.368 
L 345.327848 575.424 
L 346.045256 575.424 
L 346.40396 591.168 
L 346.762664 570.432 
L 347.480072 620.224 
L 347.838776 576.192 
L 348.556184 565.568 
L 348.914888 545.6 
L 349.273592 515.776 
L 349.632296 465.216 
L 349.991 468.032 
L 350.349704 499.392 
L 351.067112 482.368 
L 351.425816 489.408 
L 351.78452 433.216 
L 352.501929 537.024 
L 352.860633 369.984 
L 353.219337 511.424 
L 353.578041 490.816 
L 353.936745 441.024 
L 354.295449 320.192 
L 354.654153 318.016 
L 355.012857 527.168 
L 355.371561 534.976 
L 355.730265 497.984 
L 356.088969 492.224 
L 356.447673 464.576 
L 356.806377 492.992 
L 357.165081 473.024 
L 357.523785 530.624 
L 358.241193 397.632 
L 358.599897 417.6 
L 358.958601 466.624 
L 359.317305 541.376 
L 359.676009 446.784 
L 360.034713 483.776 
L 360.393417 376.384 
L 360.752121 425.408 
L 361.110825 441.792 
L 361.469529 406.976 
L 361.828233 431.808 
L 362.186938 409.792 
L 362.545642 484.416 
L 362.904346 477.376 
L 363.26305 389.824 
L 363.621754 372.032 
L 364.339162 497.216 
L 364.697866 484.416 
L 365.05657 492.224 
L 365.415274 548.416 
L 366.491386 564.032 
L 366.85009 480.832 
L 367.208794 455.232 
L 367.567498 497.984 
L 367.926202 564.8 
L 368.284906 485.184 
L 368.64361 525.632 
L 369.002314 471.616 
L 369.361018 490.176 
L 369.719722 529.984 
L 370.078426 515.008 
L 370.43713 583.232 
L 370.795834 574.784 
L 371.154538 512.832 
L 371.871947 485.184 
L 372.230651 413.376 
L 372.948059 535.616 
L 373.306763 524.992 
L 374.024171 477.376 
L 374.382875 558.4 
L 375.100283 497.216 
L 375.458987 608.832 
L 375.817691 477.376 
L 376.535099 465.216 
L 376.893803 464.576 
L 377.252507 559.808 
L 377.611211 504.384 
L 377.969915 543.424 
L 378.328619 542.016 
L 379.046027 454.592 
L 379.404731 480.832 
L 379.763435 489.408 
L 380.122139 478.016 
L 380.480843 570.432 
L 380.839547 422.592 
L 381.556956 518.592 
L 381.91566 534.976 
L 382.274364 483.008 
L 382.633068 588.992 
L 383.70918 452.416 
L 384.067884 564.032 
L 384.426588 524.992 
L 384.785292 473.024 
L 385.143996 535.616 
L 385.5027 497.216 
L 385.861404 520.768 
L 386.578812 488.768 
L 386.937516 486.592 
L 387.29622 510.016 
L 387.654924 516.416 
L 388.372332 466.624 
L 388.731036 472.384 
L 389.08974 485.824 
L 389.807148 451.008 
L 390.165852 475.968 
L 390.524556 515.776 
L 390.88326 493.632 
L 391.241965 505.024 
L 391.600669 468.8 
L 391.959373 497.216 
L 392.318077 473.792 
L 392.676781 552.768 
L 393.394189 498.624 
L 393.752893 538.432 
L 394.111597 552 
L 394.470301 491.584 
L 394.829005 488.768 
L 395.187709 547.008 
L 395.546413 421.184 
L 395.905117 469.568 
L 396.263821 495.168 
L 396.622525 476.608 
L 396.981229 533.568 
L 397.339933 464.576 
L 397.698637 460.224 
L 398.057341 505.024 
L 398.416045 411.2 
L 398.774749 576.832 
L 399.133453 518.592 
L 399.492157 510.784 
L 399.850861 539.968 
L 400.209565 517.824 
L 400.568269 522.176 
L 401.644382 500.8 
L 402.003086 521.408 
L 402.36179 497.216 
L 403.437902 530.624 
L 403.796606 561.984 
L 404.514014 544.192 
L 405.231422 544.832 
L 405.590126 599.616 
L 405.94883 556.992 
L 406.307534 561.216 
L 407.096683 564.8 
L 408.172795 564.032 
L 408.531499 586.816 
L 409.248907 600.384 
L 409.966315 599.616 
L 410.325019 511.424 
L 410.683723 575.424 
L 411.042427 477.376 
L 411.401131 527.168 
L 411.759835 517.184 
L 412.477244 545.6 
L 412.835948 548.416 
L 413.194652 582.592 
L 413.91206 598.976 
L 414.629468 610.368 
L 415.70558 564.032 
L 416.064284 600.384 
L 416.781692 576.832 
L 417.857804 586.816 
L 418.575212 582.592 
L 418.933916 582.592 
L 419.29262 527.168 
L 420.368732 604.608 
L 421.444844 573.376 
L 422.162253 630.208 
L 422.879661 606.784 
L 423.597069 627.392 
L 423.955773 581.824 
L 424.673181 627.392 
L 425.749293 625.216 
L 427.901517 639.424 
L 428.618925 621.632 
L 428.977629 598.208 
L 429.695037 614.592 
L 431.129853 603.2 
L 431.488557 592.576 
L 431.847262 632.384 
L 432.56467 623.168 
L 433.640782 616.768 
L 435.434302 618.816 
L 438.303934 613.184 
L 439.021342 610.368 
L 439.73875 606.784 
L 441.173566 638.784 
L 442.249679 640.832 
L 442.967087 586.816 
L 443.325791 627.392 
L 445.119311 625.984 
L 446.554127 613.184 
L 447.630239 619.584 
L 448.706351 624.576 
L 449.423759 573.376 
L 450.858575 543.424 
L 451.21728 511.424 
L 451.575984 607.424 
L 452.293392 551.232 
L 452.652096 569.792 
L 453.0108 565.568 
L 453.728208 620.224 
L 454.086912 583.232 
L 454.445616 494.4 
L 454.80432 496.576 
L 455.521728 474.432 
L 455.880432 589.632 
L 456.59784 558.4 
L 457.673952 545.6 
L 458.032656 490.176 
L 458.39136 488.768 
L 458.750064 480.832 
L 459.108768 567.616 
L 459.467472 500.8 
L 459.826176 502.976 
L 460.18488 540.608 
L 460.543584 484.416 
L 460.902289 503.616 
L 461.260993 534.208 
L 461.619697 541.376 
L 461.978401 422.592 
L 463.771921 509.376 
L 464.130625 491.584 
L 464.489329 485.824 
L 464.848033 552 
L 465.206737 481.6 
L 465.924145 510.016 
L 466.641553 491.584 
L 467.000257 411.2 
L 467.358961 472.384 
L 467.717665 493.632 
L 468.076369 527.168 
L 468.435073 549.184 
L 469.152481 536.384 
L 469.511185 495.168 
L 469.869889 577.6 
L 470.228593 553.408 
L 470.587298 426.816 
L 470.946002 493.632 
L 471.66341 552 
L 472.022114 568.384 
L 472.739522 556.224 
L 473.098226 546.368 
L 473.45693 473.792 
L 474.174338 555.584 
L 474.891746 485.824 
L 475.25045 510.784 
L 475.609154 496.576 
L 476.326562 518.592 
L 476.685266 541.376 
L 477.04397 433.984 
L 477.402674 514.368 
L 477.761378 502.208 
L 478.120082 539.2 
L 478.83749 542.784 
L 479.196194 514.368 
L 479.554898 524.224 
L 479.913602 551.232 
L 480.272307 569.024 
L 480.631011 515.008 
L 480.989715 549.824 
L 481.348419 527.808 
L 481.707123 492.224 
L 482.424531 449.6 
L 482.783235 583.232 
L 483.500643 570.432 
L 483.859347 569.024 
L 484.935459 565.568 
L 485.652867 476.608 
L 486.011571 534.208 
L 486.370275 527.168 
L 486.728979 545.6 
L 487.446387 505.792 
L 487.805091 516.416 
L 488.163795 564.8 
L 488.522499 561.984 
L 488.881203 465.216 
L 489.239907 633.024 
L 489.598611 539.968 
L 490.31602 490.176 
L 491.033428 493.632 
L 491.392132 490.816 
L 491.750836 544.832 
L 492.10954 527.168 
L 492.468244 490.816 
L 493.185652 561.984 
L 493.544356 528.576 
L 494.261764 492.224 
L 494.620468 534.976 
L 495.337876 561.984 
L 495.69658 502.976 
L 496.055284 598.208 
L 496.413988 538.432 
L 496.772692 442.432 
L 497.131396 534.976 
L 497.848804 561.216 
L 498.566212 515.776 
L 498.924916 470.208 
L 499.28362 523.584 
L 499.642325 594.624 
L 500.359733 596.8 
L 501.077141 541.376 
L 501.794549 529.216 
L 502.153253 516.416 
L 502.870661 591.808 
L 503.229365 570.432 
L 503.588069 583.232 
L 503.946773 469.568 
L 504.664181 574.784 
L 505.022885 577.6 
L 505.381589 590.4 
L 505.740293 575.424 
L 506.098997 505.792 
L 506.457701 539.968 
L 506.816405 505.024 
L 507.175109 574.784 
L 507.892517 549.824 
L 508.251221 584 
L 508.609925 571.968 
L 508.968629 586.176 
L 509.327334 586.176 
L 509.686038 553.408 
L 510.403446 589.632 
L 511.120854 620.224 
L 511.910003 556.992 
L 512.268707 594.624 
L 512.986115 591.168 
L 513.344819 626.624 
L 513.703523 596.032 
L 514.420931 596.032 
L 516.214451 566.976 
L 516.573155 570.432 
L 517.290563 616.768 
L 518.007971 576.192 
L 518.366675 603.968 
L 518.725379 536.384 
L 519.084083 606.784 
L 519.442787 622.4 
L 520.160195 559.168 
L 520.518899 595.392 
L 520.877604 583.232 
L 521.953716 537.024 
L 523.388532 582.592 
L 526.258164 629.568 
L 527.69298 592.576 
L 528.769092 623.168 
L 529.127796 637.376 
L 529.4865 638.016 
L 531.638725 591.168 
L 532.356133 639.424 
L 534.867061 635.968 
L 535.943173 608.192 
L 537.377989 599.616 
L 537.736693 611.008 
L 538.812805 588.992 
L 539.171509 603.968 
L 540.606326 601.024 
L 547.421702 632.384 
L 548.497814 596.032 
L 548.856518 636.608 
L 549.215222 603.2 
L 549.573926 634.432 
L 549.932631 600.384 
L 550.291335 609.6 
L 551.367447 599.616 
L 553.160967 610.368 
L 553.519671 608.832 
L 553.878375 620.224 
L 554.954487 554.816 
L 555.671895 556.992 
L 556.030599 576.192 
L 556.389303 588.992 
L 556.748007 566.208 
L 557.106711 519.232 
L 557.465415 497.216 
L 557.824119 557.632 
L 558.182823 582.592 
L 558.541527 556.992 
L 558.900231 516.416 
L 559.258935 547.008 
L 559.61764 499.392 
L 560.335048 550.592 
L 560.693752 606.784 
L 561.052456 554.176 
L 561.41116 473.024 
L 561.769864 517.824 
L 562.128568 517.824 
L 562.845976 479.424 
L 563.563384 500.8 
L 563.922088 505.792 
L 565.356904 569.024 
L 565.715608 556.224 
L 566.074312 471.616 
L 566.433016 530.624 
L 566.79172 547.776 
L 567.150424 524.224 
L 567.509128 510.784 
L 567.867832 479.424 
L 568.226536 529.984 
L 568.943944 545.6 
L 569.302649 524.224 
L 569.661353 601.024 
L 570.737465 558.4 
L 571.096169 557.632 
L 571.454873 493.632 
L 572.172281 535.616 
L 572.889689 470.208 
L 573.248393 571.2 
L 573.965801 556.992 
L 574.324505 581.824 
L 575.400617 505.792 
L 575.759321 559.168 
L 576.476729 523.584 
L 577.194137 571.2 
L 577.552841 532.032 
L 577.911545 553.408 
L 578.628953 571.2 
L 578.987658 521.408 
L 579.346362 586.816 
L 579.705066 512.832 
L 580.06377 541.376 
L 580.422474 452.416 
L 580.781178 500.8 
L 581.498586 559.168 
L 581.85729 569.792 
L 584.009514 568.384 
L 584.726922 554.816 
L 585.44433 552.768 
L 587.23785 507.968 
L 587.596554 579.008 
L 588.313962 531.392 
L 589.031371 535.616 
L 589.748779 619.584 
L 590.824891 606.784 
L 591.542299 564.032 
L 591.901003 561.984 
L 592.259707 618.176 
L 592.618411 510.784 
L 593.335819 588.224 
L 594.053227 527.168 
L 594.411931 567.616 
L 594.770635 564.8 
L 595.488043 584 
L 595.846747 519.232 
L 596.205451 526.4 
L 596.922859 532.8 
L 597.281563 568.384 
L 597.640267 558.4 
L 598.71638 456 
L 599.075084 554.816 
L 600.151196 594.624 
L 600.5099 510.016 
L 600.868604 464.576 
L 601.227308 594.624 
L 601.944716 542.016 
L 603.738236 576.832 
L 604.09694 510.784 
L 604.455644 583.232 
L 604.814348 605.376 
L 605.173052 599.616 
L 605.89046 568.384 
L 606.249164 547.776 
L 606.607868 496.576 
L 607.325276 571.2 
L 608.042685 560.576 
L 608.401389 572.608 
L 608.760093 524.224 
L 609.118797 544.192 
L 609.836205 548.416 
L 610.194909 583.232 
L 610.912317 509.376 
L 611.271021 566.208 
L 611.629725 586.176 
L 611.988429 614.592 
L 613.064541 616.768 
L 613.781949 604.608 
L 614.858061 602.432 
L 615.575469 589.632 
L 615.934173 562.624 
L 616.292877 625.216 
L 616.651581 537.792 
L 617.368989 622.4 
L 617.727694 508.608 
L 617.799434 598.976 
L 618.158138 564.8 
L 618.516842 599.616 
L 618.875546 598.976 
L 621.027771 582.592 
L 621.745179 618.816 
L 622.103883 581.184 
L 622.462587 593.984 
L 622.821291 625.984 
L 623.538699 611.008 
L 623.897403 558.4 
L 624.256107 610.368 
L 624.614811 562.624 
L 625.690923 633.792 
L 626.049627 586.176 
L 626.767035 602.432 
L 989.847262 519.232 
L 990.56467 582.592 
L 990.923374 520.768 
L 991.282078 602.432 
L 992.35819 563.392 
L 992.716894 561.216 
L 993.075598 505.792 
L 993.434302 551.232 
L 994.510414 456 
L 994.869118 536.384 
L 995.227822 500.032 
L 995.586526 515.008 
L 995.94523 467.392 
L 996.662638 540.608 
L 997.021342 531.392 
L 997.236565 616 
L 997.595269 530.624 
L 997.882232 556.992 
L 998.59964 483.776 
L 999.317048 571.968 
L 999.675752 562.624 
L 1000.034456 584 
L 1000.751864 537.024 
L 1001.110568 533.568 
L 1001.469272 514.368 
L 1002.18668 513.6 
L 1002.545384 490.816 
L 1003.262792 453.184 
L 1003.621497 556.224 
L 1003.90846 544.192 
L 1004.338905 500.032 
L 1004.697609 586.176 
L 1005.415017 490.816 
L 1005.773721 511.424 
L 1006.132425 520.768 
L 1006.491129 517.184 
L 1006.849833 542.016 
L 1007.208537 593.216 
L 1007.567241 570.432 
L 1007.925945 529.984 
L 1008.284649 526.4 
L 1008.643353 508.608 
L 1009.002057 543.424 
L 1009.360761 526.4 
L 1009.719465 566.976 
L 1010.293392 544.192 
L 1013.593469 564.8 
L 1015.100026 569.024 
L 1015.45873 480.832 
L 1015.817434 528.576 
L 1016.176138 510.784 
L 1016.534842 525.632 
L 1017.610954 560.576 
L 1017.969658 525.632 
L 1018.328362 566.976 
L 1018.687066 554.816 
L 1019.04577 555.584 
L 1019.404474 561.984 
L 1019.763178 503.616 
L 1020.121882 497.216 
L 1020.480586 576.832 
L 1020.83929 583.232 
L 1020.911031 564.032 
L 1022.991515 581.184 
L 1023.350219 562.624 
L 1023.708923 596.8 
L 1024.067627 589.632 
L 1024.426331 507.968 
L 1024.785035 488.768 
L 1025.502443 566.976 
L 1025.861147 534.208 
L 1026.219851 474.432 
L 1027.654667 559.168 
L 1028.013371 530.624 
L 1028.730779 567.616 
L 1029.089483 574.784 
L 1030.165595 588.224 
L 1030.883003 582.592 
L 1031.600411 602.432 
L 1032.317819 526.4 
L 1033.035228 611.776 
L 1033.393932 572.608 
L 1034.470044 628.032 
L 1034.828748 588.992 
L 1035.90486 603.968 
L 1036.263564 570.432 
L 1036.622268 593.984 
L 1036.980972 557.632 
L 1037.339676 609.6 
L 1038.415788 567.616 
L 1038.774492 623.808 
L 1039.204937 613.824 
L 1040.209308 618.176 
L 1040.926716 590.4 
L 1042.002828 594.624 
L 1042.361533 625.216 
L 1042.720237 626.624 
L 1043.078941 611.008 
L 1043.437645 614.592 
L 1047.024685 591.168 
L 1047.742093 637.376 
L 1049.535613 613.184 
L 1051.329133 608.832 
L 1052.046542 623.168 
L 1054.916174 640.192 
L 1055.992286 637.376 
L 1057.785806 602.432 
L 1058.861918 616.768 
L 1073.066598 560.576 
L 1079.523271 454.592 
L 1089.136539 563.392 
L 1089.853947 493.632 
L 1090.571355 554.176 
L 1090.930059 573.376 
L 1091.288763 493.632 
L 1091.647467 539.968 
L 1092.364875 571.968 
L 1092.723579 543.424 
L 1093.082283 550.592 
L 1093.440987 534.976 
L 1093.799691 568.384 
L 1094.158395 581.824 
L 1094.5171 510.016 
L 1094.875804 508.608 
L 1095.234508 547.008 
L 1096.31062 586.176 
L 1096.669324 539.2 
L 1097.028028 531.392 
L 1097.386732 512.832 
L 1097.745436 598.208 
L 1098.10414 431.168 
L 1098.821548 567.616 
L 1099.180252 513.6 
L 1099.538956 564.032 
L 1099.89766 511.424 
L 1100.256364 480.832 
L 1100.615068 519.232 
L 1100.973772 513.6 
L 1101.332476 569.024 
L 1101.69118 559.808 
L 1102.049884 528.576 
L 1102.408588 597.568 
L 1102.767292 507.2 
L 1103.4847 498.624 
L 1103.843404 568.384 
L 1104.202109 507.2 
L 1104.560813 544.192 
L 1104.919517 541.376 
L 1105.278221 532.032 
L 1105.636925 601.024 
L 1105.995629 565.568 
L 1106.713037 554.816 
L 1107.071741 579.008 
L 1107.430445 549.184 
L 1108.147853 628.8 
L 1108.506557 510.016 
L 1108.865261 577.6 
L 1109.582669 596.032 
L 1109.941373 506.432 
L 1110.300077 615.232 
L 1110.658781 548.416 
L 1111.017485 503.616 
L 1111.376189 580.416 
L 1111.734893 505.792 
L 1112.452301 554.816 
L 1112.811005 514.368 
L 1113.169709 583.232 
L 1113.528413 529.216 
L 1113.887118 540.608 
L 1114.96323 526.4 
L 1115.321934 582.592 
L 1116.398046 537.024 
L 1116.75675 555.584 
L 1117.115454 562.624 
L 1117.832862 568.384 
L 1118.191566 558.4 
L 1118.55027 504.384 
L 1118.908974 559.808 
L 1119.267678 532.032 
L 1119.626382 563.392 
L 1119.985086 483.008 
L 1120.702494 559.168 
L 1121.419902 495.168 
L 1121.778606 492.224 
L 1122.13731 536.384 
L 1122.496014 492.992 
L 1122.854718 515.008 
L 1123.213422 582.592 
L 1124.289535 579.776 
L 1124.648239 536.384 
L 1125.006943 511.424 
L 1126.083055 569.024 
L 1126.441759 596.032 
L 1126.800463 554.816 
L 1127.159167 606.784 
L 1127.876575 546.368 
L 1128.593983 591.168 
L 1128.952687 573.376 
L 1129.311391 586.176 
L 1129.670095 566.208 
L 1130.028799 515.776 
L 1130.387503 589.632 
L 1130.746207 608.832 
L 1131.104911 570.432 
L 1132.181023 626.624 
L 1132.898431 576.832 
L 1134.691952 630.976 
L 1135.050656 615.232 
L 1135.40936 564.8 
L 1135.768064 636.608 
L 1136.126768 479.424 
L 1136.485472 586.176 
L 1137.20288 597.568 
L 1137.561584 599.616 
L 1138.278992 616.768 
L 1138.637696 571.2 
L 1139.355104 559.808 
L 1140.431216 618.176 
L 1140.78992 594.624 
L 1141.148624 640.832 
L 1141.507328 483.008 
L 1141.866032 581.184 
L 1142.224736 605.376 
L 1142.58344 638.016 
L 1143.300849 615.232 
L 1143.659553 635.968 
L 1144.950887 620.224 
L 1147.246593 621.632 
L 1147.964001 583.232 
L 1148.322705 639.424 
L 1148.681409 639.424 
L 1149.398817 608.832 
L 1150.474929 614.592 
L 1151.192337 608.832 
L 1151.551041 620.992 
L 1151.909745 627.392 
L 1158.007714 635.968 
L 1158.366418 638.784 
L 1159.44253 582.592 
L 1162.670867 638.016 
L 1164.75135 638.784 
L 1166.903574 613.824 
L 1169.916688 634.432 
L 1173.790692 570.432 
L 1174.149396 615.232 
L 1174.149396 533.568 
L 1174.5081 576.192 
L 1175.010285 495.808 
L 1184.695294 460.224 
L 1185.627925 482.368 
L 1185.986629 483.776 
L 1186.345333 465.984 
L 1186.704037 481.6 
L 1187.421445 544.192 
L 1187.780149 420.416 
L 1188.497557 504.384 
L 1188.856261 511.424 
L 1189.214965 560.576 
L 1189.932373 463.808 
L 1190.291077 560.576 
L 1190.649781 443.968 
L 1191.008485 517.184 
L 1191.36719 458.816 
L 1191.725894 515.776 
L 1192.084598 601.024 
L 1192.443302 560.576 
L 1192.730265 564.8 
L 1193.088969 603.968 
L 1193.447673 606.784 
L 1193.806377 503.616 
L 1194.165081 554.816 
L 1194.523785 552.768 
L 1195.241193 539.2 
L 1195.599897 529.216 
L 1195.958601 522.816 
L 1196.317305 524.992 
L 1196.676009 550.592 
L 1197.034713 505.792 
L 1197.393417 534.976 
L 1197.752121 507.968 
L 1198.469529 539.968 
L 1198.828233 558.4 
L 1199.186938 507.968 
L 1199.545642 482.368 
L 1199.904346 561.216 
L 1200.26305 512.192 
L 1200.621754 503.616 
L 1200.980458 512.192 
L 1201.339162 556.224 
L 1201.697866 488 
L 1202.05657 539.2 
L 1202.773978 532.032 
L 1203.132682 526.4 
L 1204.208794 505.792 
L 1204.567498 606.016 
L 1205.284906 571.968 
L 1205.64361 493.632 
L 1206.002314 557.632 
L 1206.361018 522.176 
L 1206.719722 543.424 
L 1207.078426 590.4 
L 1207.795834 510.016 
L 1208.513242 537.792 
L 1208.871947 537.024 
L 1209.589355 532.8 
L 1209.948059 459.584 
L 1210.306763 569.024 
L 1210.665467 603.2 
L 1211.024171 517.824 
L 1211.382875 498.624 
L 1211.741579 537.024 
L 1212.458987 475.968 
L 1212.817691 534.208 
L 1213.176395 522.176 
L 1213.893803 533.568 
L 1214.252507 594.624 
L 1214.611211 537.024 
L 1214.969915 596.8 
L 1215.328619 522.816 
L 1216.046027 524.992 
L 1216.404731 522.176 
L 1216.763435 576.832 
L 1217.122139 520.768 
L 1217.480843 483.008 
L 1217.839547 566.976 
L 1218.556956 587.584 
L 1218.91566 532.032 
L 1219.274364 500.032 
L 1219.991772 520 
L 1220.350476 588.992 
L 1220.70918 562.624 
L 1221.067884 427.584 
L 1221.426588 501.568 
L 1221.785292 538.432 
L 1222.143996 530.624 
L 1222.861404 561.984 
L 1223.220108 522.816 
L 1223.578812 529.216 
L 1223.937516 529.216 
L 1224.29622 497.984 
L 1225.013628 534.208 
L 1225.372332 510.016 
L 1225.731036 550.592 
L 1226.08974 516.416 
L 1226.807148 563.392 
L 1227.165852 599.616 
L 1227.524556 510.016 
L 1227.88326 611.776 
L 1228.600669 539.968 
L 1229.318077 564.8 
L 1229.676781 552.768 
L 1230.035485 475.968 
L 1230.394189 566.208 
L 1230.752893 554.816 
L 1231.829005 556.224 
L 1232.546413 609.6 
L 1232.905117 598.208 
L 1233.263821 608.832 
L 1233.622525 602.432 
L 1234.339933 566.976 
L 1234.698637 587.584 
L 1235.057341 538.432 
L 1235.774749 598.208 
L 1236.133453 588.224 
L 1236.492157 630.976 
L 1236.850861 565.568 
L 1237.209565 565.568 
L 1237.568269 579.008 
L 1237.926974 517.184 
L 1238.644382 631.616 
L 1239.074826 588.224 
L 1240.079198 585.408 
L 1240.437902 626.624 
L 1241.15531 607.424 
L 1241.514014 622.4 
L 1242.231422 606.016 
L 1243.307534 581.184 
L 1244.024942 579.008 
L 1244.383646 586.816 
L 1245.818462 556.992 
L 1246.894574 626.624 
L 1247.253278 620.224 
L 1248.688095 619.584 
L 1250.481615 636.608 
L 1250.840319 613.184 
L 1251.557727 581.824 
L 1251.916431 638.016 
L 1253.709951 609.6 
L 1255.503471 617.408 
L 1255.862175 635.968 
L 1256.220879 605.376 
L 1257.296992 616 
L 1257.655696 599.616 
L 1258.731808 645.184 
L 1261.960144 608.192 
L 1263.39496 638.784 
L 1268.775521 635.2 
L 1269.492929 588.224 
L 1269.851633 638.784 
L 1270.569041 598.208 
L 1273.079969 628.032 
L 1274.514785 616.768 
L 1274.873489 628.8 
L 1275.232193 533.568 
L 1275.590897 602.432 
L 1275.949601 542.016 
L 1276.308305 543.424 
L 1277.025714 593.984 
L 1277.384418 546.368 
L 1278.46053 609.6 
L 1278.819234 538.432 
L 1279.177938 583.232 
L 1279.536642 583.232 
L 1279.895346 525.632 
L 1280.25405 565.568 
L 1280.612754 588.992 
L 1280.971458 469.568 
L 1281.330162 480.832 
L 1282.04757 552 
L 1282.406274 510.784 
L 1282.764978 544.192 
L 1283.123682 555.584 
L 1283.482386 563.392 
L 1283.84109 546.368 
L 1284.558498 471.616 
L 1284.917202 527.168 
L 1285.63461 529.216 
L 1285.993314 528.576 
L 1286.352019 503.616 
L 1286.710723 490.816 
L 1287.428131 452.416 
L 1287.786835 602.432 
L 1288.145539 544.192 
L 1288.862947 516.416 
L 1289.221651 532.032 
L 1289.580355 502.208 
L 1289.939059 544.832 
L 1290.297763 484.416 
L 1290.656467 475.968 
L 1291.015171 545.6 
L 1292.091283 500.032 
L 1292.449987 559.168 
L 1292.808691 593.216 
L 1293.526099 544.832 
L 1293.884803 512.192 
L 1294.243507 557.632 
L 1294.960915 518.592 
L 1295.678323 590.4 
L 1296.037028 587.584 
L 1296.395732 470.208 
L 1297.11314 583.232 
L 1297.471844 455.232 
L 1297.830548 529.984 
L 1298.189252 518.592 
L 1298.547956 495.808 
L 1298.691437 555.584 
L 1299.050141 588.224 
L 1299.408845 495.168 
L 1299.76755 564.032 
L 1300.126254 578.368 
L 1300.843662 549.184 
L 1301.56107 613.184 
L 1302.278478 485.184 
L 1302.637182 586.816 
L 1302.995886 517.184 
L 1303.713294 547.008 
L 1304.071998 428.992 
L 1304.430702 429.632 
L 1304.789406 515.776 
L 1305.506814 511.424 
L 1305.865518 507.2 
L 1306.224222 528.576 
L 1306.94163 503.616 
L 1307.659038 577.6 
L 1308.017742 495.168 
L 1308.376446 524.224 
L 1309.093854 509.376 
L 1309.452559 511.424 
L 1309.811263 615.232 
L 1310.169967 539.2 
L 1310.528671 507.2 
L 1311.246079 497.984 
L 1311.604783 506.432 
L 1311.963487 586.176 
L 1312.322191 509.376 
L 1312.680895 564.032 
L 1313.039599 585.408 
L 1313.398303 535.616 
L 1313.757007 610.368 
L 1314.115711 592.576 
L 1314.474415 526.4 
L 1314.833119 431.168 
L 1316.267935 595.392 
L 1316.626639 520.768 
L 1316.985343 554.176 
L 1317.702751 507.2 
L 1318.061455 555.584 
L 1318.420159 571.2 
L 1318.778863 540.608 
L 1319.137568 549.824 
L 1319.496272 512.832 
L 1319.854976 571.968 
L 1320.572384 561.984 
L 1320.931088 490.816 
L 1321.289792 558.4 
L 1321.648496 529.216 
L 1322.0072 545.6 
L 1323.083312 588.224 
L 1323.80072 520 
L 1324.159424 524.992 
L 1324.518128 516.416 
L 1324.876832 539.2 
L 1325.59424 547.008 
L 1325.952944 519.232 
L 1326.670352 495.808 
L 1327.029056 546.368 
L 1327.38776 485.184 
L 1327.746464 500.032 
L 1328.105168 544.192 
L 1328.463872 510.784 
L 1328.822577 595.392 
L 1329.539985 533.568 
L 1330.257393 519.232 
L 1330.616097 501.568 
L 1330.974801 576.832 
L 1331.333505 591.168 
L 1332.194394 570.432 
L 1332.553098 475.2 
L 1332.911803 598.208 
L 1333.629211 546.368 
L 1333.987915 546.368 
L 1334.346619 551.232 
L 1334.705323 593.984 
L 1335.064027 559.168 
L 1336.140139 601.024 
L 1336.498843 541.376 
L 1336.857547 573.376 
L 1337.216251 579.776 
L 1337.574955 561.216 
L 1338.292363 566.976 
L 1338.651067 556.992 
L 1339.009771 636.608 
L 1339.368475 581.824 
L 1339.727179 628.8 
L 1340.803291 578.368 
L 1341.161995 604.608 
L 1341.520699 559.168 
L 1341.879403 578.368 
L 1342.955516 574.016 
L 1343.31422 614.592 
L 1344.031628 615.232 
L 1345.466444 588.992 
L 1346.542556 574.784 
L 1346.90126 576.832 
L 1347.259964 571.968 
L 1347.618668 580.416 
L 1348.69478 597.568 
L 1349.053484 611.008 
L 1349.412188 583.232 
L 1349.770892 607.424 
L 1350.4883 561.216 
L 1351.205708 625.216 
L 1351.564412 577.6 
L 1351.923116 610.368 
L 1352.640525 564.8 
L 1352.999229 635.2 
L 1353.357933 608.192 
L 1353.716637 638.016 
L 1357.303677 576.832 
L 1357.662381 619.584 
L 1358.021085 603.968 
L 1359.097197 624.576 
L 1359.455901 640.832 
L 1360.173309 599.616 
L 1361.96683 638.784 
L 1362.325534 604.608 
L 1362.684238 625.216 
L 1363.76035 593.984 
L 1364.119054 629.568 
L 1366.988686 634.432 
L 1368.064798 635.2 
L 1368.782206 636.608 
L 1371.651839 630.208 
L 1372.369247 639.424 
L 1373.445359 588.224 
L 1374.162767 628.032 
L 1377.032399 625.216 
L 1378.108511 618.816 
L 1380.619439 639.424 
L 1380.978143 618.816 
L 1381.336848 625.984 
L 1381.695552 559.168 
L 1382.054256 639.424 
L 1382.41296 628.8 
L 1382.771664 601.792 
L 1383.130368 623.808 
L 1383.489072 613.184 
L 1383.847776 630.976 
L 1384.20648 637.376 
L 1384.565184 625.216 
L 1384.923888 638.016 
L 1385.641296 560.576 
L 1386 625.984 
L 1387.076112 612.416 
L 1387.434816 640.832 
L 1387.79352 626.624 
L 1388.152224 593.216 
L 1388.869632 575.424 
L 1390.304448 574.016 
L 1390.663152 579.776 
L 1391.021857 566.976 
L 1391.739265 620.992 
L 1392.097969 608.832 
L 1392.456673 554.176 
L 1392.815377 585.408 
L 1393.532785 605.376 
L 1394.250193 527.168 
L 1394.967601 606.784 
L 1395.326305 558.4 
L 1395.685009 618.816 
L 1396.043713 553.408 
L 1396.402417 532.8 
L 1397.119825 593.984 
L 1397.478529 609.6 
L 1397.837233 536.384 
L 1398.195937 606.016 
L 1398.554641 571.2 
L 1399.272049 561.216 
L 1399.630753 567.616 
L 1399.989457 547.776 
L 1400.348161 571.968 
L 1400.706866 527.808 
L 1401.06557 560.576 
L 1401.424274 576.832 
L 1401.782978 537.024 
L 1402.141682 573.376 
L 1402.500386 569.792 
L 1402.85909 576.192 
L 1403.217794 502.976 
L 1403.576498 584 
L 1403.935202 536.384 
L 1404.65261 591.168 
L 1405.011314 552.768 
L 1406.087426 543.424 
L 1406.804834 592.576 
L 1407.522242 509.376 
L 1407.880946 533.568 
L 1408.23965 578.368 
L 1408.598354 483.776 
L 1408.957058 453.824 
L 1409.315762 551.232 
L 1409.674466 544.832 
L 1410.03317 541.376 
L 1410.391875 544.832 
L 1410.750579 581.184 
L 1411.109283 514.368 
L 1412.185395 579.008 
L 1412.544099 576.832 
L 1413.261507 580.416 
L 1413.620211 574.016 
L 1413.978915 574.016 
L 1414.337619 559.168 
L 1414.696323 598.208 
L 1415.055027 585.408 
L 1415.413731 593.216 
L 1415.772435 554.176 
L 1416.131139 558.4 
L 1416.489843 532.032 
L 1417.565955 533.568 
L 1417.924659 579.776 
L 1418.283363 525.632 
L 1418.642067 594.624 
L 1419.000771 586.816 
L 1419.359475 523.584 
L 1419.718179 534.208 
L 1420.076884 598.208 
L 1420.794292 543.424 
L 1421.152996 490.176 
L 1421.5117 545.6 
L 1421.870404 566.976 
L 1422.229108 613.184 
L 1422.587812 551.232 
L 1422.946516 547.776 
L 1424.022628 546.368 
L 1424.740036 539.968 
L 1425.09874 527.168 
L 1425.816148 612.416 
L 1426.174852 597.568 
L 1426.533556 543.424 
L 1426.89226 620.224 
L 1427.250964 576.192 
L 1427.609668 583.232 
L 1427.968372 580.416 
L 1428.327076 509.376 
L 1428.68578 520.768 
L 1429.044484 526.4 
L 1429.403188 497.216 
L 1429.761893 604.608 
L 1430.120597 607.424 
L 1430.479301 565.568 
L 1430.838005 596.8 
L 1431.196709 574.784 
L 1431.555413 573.376 
L 1431.914117 563.392 
L 1432.272821 528.576 
L 1432.631525 519.232 
L 1432.990229 553.408 
L 1433.348933 548.416 
L 1433.707637 571.968 
L 1434.066341 616.768 
L 1434.425045 527.808 
L 1434.783749 584 
L 1435.142453 571.2 
L 1435.501157 577.6 
L 1435.859861 574.016 
L 1436.218565 574.784 
L 1436.577269 576.192 
L 1437.653381 607.424 
L 1438.370789 610.368 
L 1438.729493 569.792 
L 1439.446902 581.824 
L 1440.16431 581.824 
L 1440.881718 603.968 
L 1441.240422 578.368 
L 1441.599126 620.992 
L 1441.95783 589.632 
L 1442.316534 596.032 
L 1443.033942 603.2 
L 1443.75135 605.376 
L 1444.468758 606.784 
L 1444.827462 603.2 
L 1445.186166 630.208 
L 1445.903574 587.584 
L 1446.262278 605.376 
L 1446.620982 590.4 
L 1447.33839 616 
L 1447.697094 606.016 
L 1448.414502 582.592 
L 1448.773206 593.216 
L 1449.131911 598.976 
L 1449.849319 603.968 
L 1450.208023 566.976 
L 1450.566727 626.624 
L 1450.925431 578.368 
L 1451.284135 614.592 
L 1451.642839 598.976 
L 1452.001543 603.968 
L 1452.718951 605.376 
L 1453.436359 589.632 
L 1454.153767 639.424 
L 1454.512471 592.576 
L 1454.871175 616 
L 1455.229879 623.168 
L 1455.588583 596.032 
L 1455.947287 581.824 
L 1456.305991 622.4 
L 1457.023399 625.216 
L 1457.382103 608.832 
L 1458.099511 639.424 
L 1458.81692 628.032 
L 1459.175624 591.808 
L 1459.534328 594.624 
L 1459.893032 626.624 
L 1460.251736 630.208 
L 1460.969144 601.792 
L 1461.327848 637.376 
L 1462.045256 615.232 
L 1462.40396 628.8 
L 1464.19748 636.608 
L 1466.708408 638.016 
L 1467.425816 637.376 
L 1468.860633 635.2 
L 1469.219337 637.376 
L 1469.578041 638.016 
L 1472.806377 622.4 
L 1473.882489 638.016 
L 1482.132682 616 
L 1482.491386 647.232 
L 1483.567498 623.808 
L 1485.719722 613.824 
L 1486.078426 598.976 
L 1486.43713 628.032 
L 1487.513242 623.808 
L 1487.871947 627.392 
L 1488.589355 638.784 
L 1489.306763 602.432 
L 1489.665467 625.984 
L 1490.024171 616.768 
L 1490.382875 636.608 
L 1491.100283 604.608 
L 1491.458987 629.568 
L 1491.817691 618.816 
L 1492.176395 627.392 
L 1492.535099 569.792 
L 1492.893803 593.216 
L 1493.611211 601.024 
L 1494.328619 598.208 
L 1494.687323 617.408 
L 1495.046027 608.192 
L 1495.763435 628.032 
L 1496.839547 574.784 
L 1497.198251 599.616 
L 1497.556956 608.832 
L 1497.91566 594.624 
L 1498.274364 586.176 
L 1498.633068 584 
L 1498.991772 565.568 
L 1499.350476 590.4 
L 1499.70918 588.224 
L 1500.067884 601.024 
L 1500.785292 549.824 
L 1501.143996 566.976 
L 1501.5027 561.216 
L 1501.861404 618.816 
L 1502.220108 611.776 
L 1502.578812 571.968 
L 1502.937516 584 
L 1503.654924 597.568 
L 1504.013628 577.6 
L 1504.372332 596.8 
L 1505.448444 542.784 
L 1505.807148 563.392 
L 1506.165852 559.808 
L 1506.524556 584.768 
L 1506.88326 535.616 
L 1507.241965 610.368 
L 1507.959373 590.4 
L 1508.318077 506.432 
L 1508.676781 547.776 
L 1509.035485 549.184 
L 1509.752893 596.032 
L 1510.111597 514.368 
L 1510.470301 637.376 
L 1510.829005 465.984 
L 1511.187709 553.408 
L 1511.546413 566.208 
L 1511.905117 527.808 
L 1512.263821 564.8 
L 1512.622525 547.008 
L 1512.981229 542.784 
L 1513.339933 524.224 
L 1513.698637 529.984 
L 1514.057341 560.576 
L 1514.774749 524.992 
L 1515.133453 589.632 
L 1515.276935 531.392 
L 1515.635639 559.808 
L 1515.994343 564.032 
L 1516.353047 537.792 
L 1516.711751 579.008 
L 1517.070455 540.608 
L 1517.429159 593.216 
L 1517.787863 547.776 
L 1518.146567 578.368 
L 1518.505271 588.224 
L 1519.222679 570.432 
L 1519.581383 582.592 
L 1519.940087 570.432 
L 1520.298791 541.376 
L 1520.657496 580.416 
L 1521.733608 517.824 
L 1522.092312 609.6 
L 1522.451016 540.608 
L 1523.168424 566.208 
L 1523.527128 517.824 
L 1523.885832 564.032 
L 1524.60324 531.392 
L 1524.961944 521.408 
L 1525.320648 572.608 
L 1525.679352 591.168 
L 1526.038056 558.4 
L 1526.39676 560.576 
L 1526.755464 596.032 
L 1527.472872 533.568 
L 1528.19028 528.576 
L 1528.548984 515.776 
L 1528.907688 578.368 
L 1529.266392 608.832 
L 1529.9838 523.584 
L 1530.342505 530.624 
L 1530.701209 540.608 
L 1531.059913 562.624 
L 1531.418617 601.024 
L 1531.777321 524.224 
L 1532.136025 554.176 
L 1533.570841 584.768 
L 1533.929545 579.776 
L 1534.288249 530.624 
L 1534.646953 612.416 
L 1535.005657 593.216 
L 1535.364361 515.008 
L 1535.723065 617.408 
L 1536.081769 505.024 
L 1536.799177 562.624 
L 1537.516585 571.968 
L 1538.233993 573.376 
L 1538.592697 571.2 
L 1538.951401 541.376 
L 1539.310105 579.008 
L 1539.668809 517.824 
L 1540.027514 562.624 
L 1540.386218 574.016 
L 1541.103626 523.584 
L 1541.46233 626.624 
L 1541.821034 548.416 
L 1542.179738 560.576 
L 1542.538442 622.4 
L 1543.614554 586.176 
L 1543.973258 589.632 
L 1544.331962 591.168 
L 1544.690666 563.392 
L 1545.408074 559.808 
L 1545.766778 572.608 
L 1546.125482 558.4 
L 1546.84289 546.368 
L 1547.201594 587.584 
L 1547.560298 606.784 
L 1547.919002 609.6 
L 1548.63641 623.808 
L 1549.353818 601.024 
L 1550.071227 550.592 
L 1550.788635 619.584 
L 1551.864747 604.608 
L 1552.223451 605.376 
L 1552.582155 618.176 
L 1552.940859 637.376 
L 1553.299563 593.216 
L 1553.658267 567.616 
L 1554.016971 595.392 
L 1555.451787 616 
L 1555.810491 610.368 
L 1557.245307 636.608 
L 1557.604011 623.808 
L 1558.680123 640.192 
L 1559.038827 618.176 
L 1559.756236 624.576 
L 1561.191052 629.568 
L 1561.90846 588.992 
L 1562.267164 632.384 
L 1562.625868 625.216 
L 1562.984572 636.608 
L 1564.778092 635.968 
L 1566.571612 620.992 
L 1567.28902 627.392 
L 1568.365132 625.216 
L 1569.799949 625.984 
L 1572.310877 601.792 
L 1574.104397 628.8 
L 1575.180509 581.184 
L 1575.539213 613.184 
L 1576.256621 599.616 
L 1576.974029 638.016 
L 1577.332733 628.8 
L 1578.050141 636.608 
L 1579.843662 637.376 
L 1581.637182 636.608 
L 1582.35459 635.968 
L 1582.713294 616.768 
L 1583.789406 615.232 
L 1584.14811 616 
L 1584.506814 630.208 
L 1584.865518 604.608 
L 1585.224222 596.8 
L 1585.582926 623.168 
L 1586.300334 592.576 
L 1586.659038 602.432 
L 1587.017742 618.816 
L 1587.376446 569.792 
L 1587.73515 587.584 
L 1588.093854 617.408 
L 1588.452559 581.184 
L 1588.811263 601.024 
L 1589.169967 608.192 
L 1589.528671 545.6 
L 1589.887375 570.432 
L 1590.246079 537.792 
L 1590.604783 596.032 
L 1590.963487 515.008 
L 1591.322191 476.608 
L 1591.680895 585.408 
L 1592.398303 540.608 
L 1592.757007 552 
L 1593.115711 505.024 
L 1593.833119 468.8 
L 1594.191823 529.984 
L 1594.550527 561.216 
L 1594.909231 495.168 
L 1595.267935 511.424 
L 1595.626639 533.568 
L 1596.344047 486.592 
L 1596.702751 571.2 
L 1597.061455 516.416 
L 1597.420159 567.616 
L 1597.778863 498.624 
L 1598.137568 513.6 
L 1598.496272 382.784 
L 1598.854976 409.792 
L 1599.21368 523.584 
L 1599.572384 492.992 
L 1600.648496 564.8 
L 1601.365904 451.008 
L 1601.724608 495.168 
L 1602.083312 602.432 
L 1602.442016 597.568 
L 1602.80072 574.016 
L 1603.159424 517.824 
L 1603.518128 489.408 
L 1603.876832 520.768 
L 1604.235536 537.024 
L 1604.59424 465.216 
L 1605.311648 577.6 
L 1605.670352 497.216 
L 1606.029056 544.192 
L 1606.38776 480.192 
L 1606.746464 575.424 
L 1607.105168 524.224 
L 1607.463872 540.608 
L 1607.822577 576.832 
L 1608.181281 561.984 
L 1608.539985 529.984 
L 1608.898689 557.632 
L 1609.257393 515.776 
L 1609.616097 568.384 
L 1609.974801 503.616 
L 1610.333505 562.624 
L 1610.692209 512.832 
L 1611.050913 569.792 
L 1611.409617 535.616 
L 1611.768321 439.616 
L 1612.127025 470.208 
L 1612.844433 592.576 
L 1613.203137 543.424 
L 1613.561841 578.368 
L 1613.920545 571.2 
L 1614.279249 623.808 
L 1614.637953 475.968 
L 1614.996657 515.008 
L 1615.355361 540.608 
L 1616.072769 463.808 
L 1616.431473 540.608 
L 1616.790177 549.184 
L 1617.148881 552.768 
L 1617.507586 542.016 
L 1618.224994 542.784 
L 1618.583698 581.184 
L 1618.942402 507.2 
L 1619.301106 567.616 
L 1619.65981 537.024 
L 1620.018514 547.776 
L 1620.520699 515.776 
L 1621.596812 598.208 
L 1621.955516 558.4 
L 1622.31422 628.8 
L 1622.672924 586.816 
L 1623.031628 503.616 
L 1623.390332 574.016 
L 1623.749036 509.376 
L 1624.10774 494.4 
L 1624.466444 491.584 
L 1624.825148 546.368 
L 1625.183852 531.392 
L 1625.542556 524.224 
L 1625.90126 559.808 
L 1626.259964 581.824 
L 1626.618668 426.176 
L 1626.977372 613.824 
L 1628.770892 521.408 
L 1629.129596 577.6 
L 1629.4883 543.424 
L 1630.205708 533.568 
L 1630.564412 542.016 
L 1630.923116 478.016 
L 1631.281821 487.232 
L 1631.640525 473.792 
L 1631.999229 593.984 
L 1632.716637 534.976 
L 1633.075341 566.208 
L 1633.434045 546.368 
L 1633.792749 506.432 
L 1634.510157 598.976 
L 1634.868861 547.008 
L 1635.227565 532.8 
L 1635.586269 552 
L 1635.944973 464.576 
L 1636.303677 500.8 
L 1636.662381 548.416 
L 1637.021085 500.032 
L 1637.379789 538.432 
L 1637.738493 530.624 
L 1638.097197 569.792 
L 1638.455901 585.408 
L 1638.814605 555.584 
L 1639.173309 586.176 
L 1639.890717 490.816 
L 1640.249421 555.584 
L 1640.608125 564.032 
L 1640.96683 612.416 
L 1641.684238 540.608 
L 1642.401646 547.776 
L 1642.76035 507.968 
L 1643.119054 613.184 
L 1643.477758 524.224 
L 1643.836462 546.368 
L 1644.195166 529.984 
L 1644.55387 603.968 
L 1645.988686 534.976 
L 1646.34739 534.976 
L 1646.706094 564.032 
L 1647.064798 556.224 
L 1647.423502 616 
L 1648.14091 533.568 
L 1648.499614 551.232 
L 1649.217022 527.168 
L 1649.93443 618.816 
L 1650.293134 522.816 
L 1650.651839 582.592 
L 1651.010543 601.024 
L 1651.727951 605.376 
L 1652.086655 577.6 
L 1652.804063 603.2 
L 1653.162767 576.832 
L 1653.521471 620.224 
L 1654.238879 627.392 
L 1654.597583 606.016 
L 1654.956287 564.8 
L 1655.314991 580.416 
L 1656.032399 618.176 
L 1656.391103 626.624 
L 1656.749807 534.208 
L 1657.825919 625.984 
L 1658.615068 637.376 
L 1658.973772 563.392 
L 1659.69118 637.376 
L 1659.978143 635.2 
L 1660.336848 635.968 
L 1660.695552 609.6 
L 1661.054256 603.2 
L 1662.560813 617.408 
L 1663.278221 617.408 
L 1663.565184 628.032 
L 1663.995629 629.568 
L 1665.430445 611.776 
L 1665.789149 639.424 
L 1666.147853 635.2 
L 1667.941373 627.392 
L 1670.811005 638.016 
L 1672.891489 635.2 
L 1673.250193 640.192 
L 1673.967601 611.776 
L 1675.474158 627.392 
L 1675.832862 638.016 
L 1679.419902 601.792 
L 1679.778606 626.624 
L 1681.500386 612.416 
L 1681.85909 640.832 
L 1682.217794 635.2 
L 1682.935202 639.424 
L 1683.65261 628.032 
L 1684.083055 640.192 
L 1684.441759 603.2 
L 1684.728722 611.776 
L 1685.159167 638.016 
L 1685.876575 593.216 
L 1686.235279 637.376 
L 1686.522242 638.784 
L 1686.952687 583.232 
L 1687.311391 613.184 
L 1687.957058 608.832 
L 1688.674466 579.776 
L 1689.03317 589.632 
L 1689.391875 589.632 
L 1689.750579 638.784 
L 1690.181023 575.424 
L 1690.539727 594.624 
L 1690.898431 580.416 
L 1691.257136 525.632 
L 1691.61584 630.976 
L 1691.974544 566.208 
L 1692.261507 600.384 
L 1692.620211 490.816 
L 1693.337619 515.776 
L 1693.768064 470.976 
L 1694.055027 535.616 
L 1694.413731 551.232 
L 1695.131139 510.016 
L 1695.561584 522.176 
L 1695.848547 554.816 
L 1696.207251 517.824 
L 1696.565955 550.592 
L 1696.924659 492.992 
L 1697.713808 466.624 
L 1698.072512 516.416 
L 1698.431216 495.808 
L 1698.78992 530.624 
L 1699.148624 554.176 
L 1699.507328 500.8 
L 1699.866032 502.208 
L 1700.224736 547.008 
L 1700.58344 549.824 
L 1700.942145 532.032 
L 1701.659553 524.224 
L 1702.018257 522.816 
L 1702.376961 496.576 
L 1702.735665 488.768 
L 1703.094369 542.016 
L 1703.453073 486.592 
L 1704.170481 543.424 
L 1704.529185 581.184 
L 1704.887889 493.632 
L 1705.246593 460.992 
L 1705.605297 456 
L 1705.964001 536.384 
L 1706.322705 557.632 
L 1706.681409 517.184 
L 1707.040113 544.192 
L 1707.757521 449.6 
L 1708.116225 552.768 
L 1708.474929 610.368 
L 1708.833633 492.224 
L 1709.192337 461.632 
L 1709.551041 610.368 
L 1709.909745 546.368 
L 1710.268449 552.768 
L 1710.627154 584 
L 1711.344562 533.568 
L 1711.703266 534.976 
L 1712.06197 497.984 
L 1712.420674 496.576 
L 1712.779378 559.168 
L 1713.138082 561.216 
L 1713.496786 560.576 
L 1713.85549 500.032 
L 1714.214194 500.032 
L 1714.572898 492.992 
L 1714.931602 532.8 
L 1715.290306 559.168 
L 1715.64901 520 
L 1716.007714 579.008 
L 1716.366418 534.208 
L 1716.725122 571.968 
L 1717.083826 513.6 
L 1717.44253 573.376 
L 1717.801234 498.624 
L 1718.159938 593.984 
L 1718.518642 551.232 
L 1718.877346 560.576 
L 1719.23605 590.4 
L 1719.953458 478.016 
L 1720.312163 557.632 
L 1720.670867 601.024 
L 1721.029571 474.432 
L 1721.746979 578.368 
L 1722.105683 579.776 
L 1722.823091 526.4 
L 1723.181795 566.208 
L 1723.540499 467.392 
L 1723.899203 560.576 
L 1724.257907 546.368 
L 1724.616611 486.592 
L 1724.975315 535.616 
L 1725.334019 515.776 
L 1725.692723 544.832 
L 1726.051427 564.032 
L 1726.410131 554.176 
L 1726.625354 522.176 
L 1726.984058 543.424 
L 1727.342762 585.408 
L 1727.701466 529.216 
L 1728.06017 492.224 
L 1728.418874 557.632 
L 1728.777578 573.376 
L 1729.136282 531.392 
L 1729.85369 558.4 
L 1730.212394 484.416 
L 1730.571098 553.408 
L 1730.929802 570.432 
L 1731.288506 549.184 
L 1731.64721 509.376 
L 1732.005914 505.024 
L 1732.364618 502.208 
L 1732.723322 541.376 
L 1733.082026 500.032 
L 1733.44073 579.776 
L 1734.158138 506.432 
L 1734.516842 545.6 
L 1734.875546 544.192 
L 1735.23425 534.976 
L 1735.592955 549.824 
L 1735.951659 520.768 
L 1736.669067 571.968 
L 1737.027771 527.168 
L 1737.386475 596.032 
L 1738.103883 510.016 
L 1739.179995 553.408 
L 1739.538699 523.584 
L 1739.897403 559.168 
L 1740.256107 542.784 
L 1740.614811 565.568 
L 1740.973515 504.384 
L 1741.332219 585.408 
L 1741.690923 564.032 
L 1742.049627 502.208 
L 1742.767035 552 
L 1743.125739 498.624 
L 1743.484443 481.6 
L 1743.843147 528.576 
L 1744.560555 563.392 
L 1744.919259 608.832 
L 1745.277963 596.032 
L 1745.636668 512.832 
L 1745.995372 527.168 
L 1746.71278 487.232 
L 1747.071484 584.768 
L 1747.430188 579.776 
L 1747.788892 588.224 
L 1748.147596 564.032 
L 1748.5063 547.776 
L 1748.865004 588.992 
L 1749.223708 611.776 
L 1749.582412 603.2 
L 1750.658524 537.024 
L 1751.017228 624.576 
L 1751.375932 633.024 
L 1751.734636 601.024 
L 1752.452044 557.632 
L 1752.810748 562.624 
L 1753.528156 574.784 
L 1753.88686 616.768 
L 1754.245564 558.4 
L 1754.604268 556.224 
L 1754.962972 596.032 
L 1755.321677 537.792 
L 1755.680381 607.424 
L 1756.039085 594.624 
L 1756.397789 571.968 
L 1756.756493 628.8 
L 1757.115197 552 
L 1757.473901 577.6 
L 1757.832605 628.032 
L 1758.191309 553.408 
L 1758.550013 618.176 
L 1758.908717 619.584 
L 1759.267421 611.008 
L 1759.626125 584.768 
L 1759.984829 495.168 
L 1760.702237 590.4 
L 1761.060941 569.024 
L 1761.419645 623.808 
L 1761.778349 575.424 
L 1762.495757 557.632 
L 1762.854461 608.192 
L 1763.213165 638.784 
L 1763.571869 601.792 
L 1763.930573 617.408 
L 1764.289277 606.016 
L 1764.647981 628.032 
L 1765.724094 618.816 
L 1766.082798 591.808 
L 1766.800206 635.2 
L 1767.15891 618.816 
L 1767.517614 642.368 
L 1767.876318 618.816 
L 1768.235022 554.816 
L 1768.95243 637.376 
L 1770.387246 629.568 
L 1770.74595 638.016 
L 1771.463358 638.784 
L 1771.822062 612.416 
L 1772.53947 593.216 
L 1773.256878 600.384 
L 1774.33299 638.016 
L 1775.409103 637.376 
L 1775.767807 634.432 
L 1776.485215 637.376 
L 1777.202623 635.968 
L 1779.713551 613.824 
L 1781.148367 603.968 
L 1782.224479 626.624 
L 1783.300591 623.808 
L 1784.018 623.168 
L 1784.376704 638.016 
L 1785.094112 620.224 
L 1785.452816 630.976 
L 1785.81152 597.568 
L 1786.528928 617.408 
L 1787.246336 618.176 
L 1787.60504 601.024 
L 1788.322448 608.832 
L 1789.039856 618.816 
L 1789.39856 610.368 
L 1790.115968 605.376 
L 1790.474672 587.584 
L 1790.833376 603.968 
L 1791.19208 605.376 
L 1791.550784 596.032 
L 1791.909488 624.576 
L 1792.268192 592.576 
L 1792.626896 588.224 
L 1792.9856 572.608 
L 1793.344304 627.392 
L 1793.703008 591.808 
L 1794.061713 582.592 
L 1794.420417 536.384 
L 1794.779121 520.768 
L 1795.137825 586.816 
L 1795.496529 511.424 
L 1795.855233 531.392 
L 1796.213937 598.976 
L 1796.572641 542.016 
L 1796.931345 466.624 
L 1797.290049 499.392 
L 1797.648753 579.008 
L 1798.007457 556.992 
L 1798.366161 475.2 
L 1799.083569 570.432 
L 1799.442273 525.632 
L 1799.800977 552.768 
L 1800.159681 514.368 
L 1800.518385 448.192 
L 1800.877089 495.808 
L 1801.235793 588.992 
L 1801.594497 538.432 
L 1801.953201 546.368 
L 1802.670609 473.792 
L 1803.029313 549.824 
L 1803.388017 515.776 
L 1803.746722 495.168 
L 1804.105426 437.568 
L 1804.46413 236.224 
L 1804.822834 315.2 
L 1805.181538 150.976 
L 1805.540242 484.416 
L 1805.898946 158.016 
L 1806.25765 219.2 
L 1806.616354 360 
L 1806.975058 300.224 
L 1807.333762 264.768 
L 1807.692466 291.776 
L 1808.05117 548.416 
L 1808.409874 483.776 
L 1808.768578 452.416 
L 1809.127282 531.392 
L 1809.485986 529.984 
L 1809.84469 522.176 
L 1810.203394 539.968 
L 1810.562098 500.8 
L 1810.920802 545.6 
L 1811.279506 483.008 
L 1811.63821 589.632 
L 1811.996914 445.376 
L 1812.355618 524.992 
L 1812.714322 517.824 
L 1813.073026 491.584 
L 1813.431731 524.992 
L 1813.790435 532.8 
L 1814.507843 597.568 
L 1814.866547 438.976 
L 1815.225251 520 
L 1815.583955 537.024 
L 1815.942659 506.432 
L 1816.301363 578.368 
L 1816.660067 563.392 
L 1817.018771 603.968 
L 1817.377475 552.768 
L 1817.736179 473.024 
L 1818.094883 576.832 
L 1818.453587 505.792 
L 1818.812291 544.192 
L 1819.170995 446.784 
L 1819.529699 537.792 
L 1819.888403 485.824 
L 1820.247107 480.832 
L 1820.964515 552 
L 1821.323219 595.392 
L 1821.681923 577.6 
L 1822.040627 500.032 
L 1822.399331 598.976 
L 1822.758035 542.784 
L 1823.475444 592.576 
L 1823.834148 549.184 
L 1824.192852 468.8 
L 1824.551556 582.592 
L 1824.91026 538.432 
L 1825.986372 615.232 
L 1826.345076 534.208 
L 1826.70378 569.792 
L 1827.062484 562.624 
L 1827.421188 520 
L 1827.779892 538.432 
L 1828.138596 581.184 
L 1828.4973 478.784 
L 1828.856004 533.568 
L 1829.214708 464.576 
L 1829.573412 551.232 
L 1829.932116 460.224 
L 1830.29082 576.192 
L 1830.649524 501.568 
L 1831.008228 527.168 
L 1831.366932 569.792 
L 1832.08434 517.824 
L 1832.443044 534.976 
L 1832.514785 563.392 
L 1832.873489 571.2 
L 1833.232193 560.576 
L 1833.590897 510.016 
L 1833.949601 488.768 
L 1834.308305 522.176 
L 1834.66701 572.608 
L 1835.025714 574.016 
L 1835.384418 489.408 
L 1835.743122 531.392 
L 1836.46053 454.592 
L 1836.819234 443.2 
L 1837.177938 561.984 
L 1837.536642 506.432 
L 1837.895346 535.616 
L 1838.25405 487.232 
L 1838.612754 458.816 
L 1838.971458 612.416 
L 1839.688866 534.208 
L 1840.04757 522.176 
L 1840.406274 537.024 
L 1841.123682 582.592 
L 1841.482386 502.976 
L 1842.199794 573.376 
L 1842.558498 569.792 
L 1842.917202 575.424 
L 1843.275906 404.8 
L 1843.993314 579.008 
L 1844.352019 581.824 
L 1844.710723 510.016 
L 1845.069427 526.4 
L 1845.428131 503.616 
L 1845.786835 539.968 
L 1846.145539 507.968 
L 1846.504243 578.368 
L 1846.862947 552.768 
L 1847.221651 558.4 
L 1847.580355 543.424 
L 1847.939059 495.168 
L 1848.297763 506.432 
L 1848.656467 538.432 
L 1849.015171 532.8 
L 1849.732579 582.592 
L 1850.091283 543.424 
L 1850.449987 597.568 
L 1850.808691 588.224 
L 1851.167395 536.384 
L 1851.526099 591.168 
L 1851.884803 587.584 
L 1852.243507 576.832 
L 1852.602211 552 
L 1853.319619 574.784 
L 1853.678323 638.016 
L 1854.037028 591.168 
L 1854.395732 565.568 
L 1854.754436 596.032 
L 1855.471844 574.784 
L 1855.830548 550.592 
L 1856.189252 592.576 
L 1856.547956 556.992 
L 1856.90666 608.192 
L 1857.265364 606.784 
L 1857.624068 591.168 
L 1857.982772 616 
L 1858.341476 558.4 
L 1858.70018 617.408 
L 1859.058884 628.032 
L 1859.417588 625.984 
L 1859.776292 620.992 
L 1860.134996 624.576 
L 1860.4937 614.592 
L 1860.852404 576.192 
L 1861.211108 562.624 
L 1861.569812 638.784 
L 1861.928516 638.784 
L 1862.28722 585.408 
L 1863.004628 626.624 
L 1863.363332 628.8 
L 1863.722037 605.376 
L 1864.080741 595.392 
L 1864.439445 614.592 
L 1865.156853 582.592 
L 1865.80252 638.784 
L 1866.232965 613.824 
L 1866.950373 625.984 
L 1867.309077 620.992 
L 1867.667781 638.784 
L 1868.026485 630.208 
L 1868.385189 639.424 
L 1868.743893 592.576 
L 1869.102597 616.768 
L 1869.461301 611.008 
L 1869.820005 620.224 
L 1870.178709 610.368 
L 1870.896117 638.016 
L 1871.972229 628.032 
L 1872.330933 631.616 
L 1873.048341 626.624 
L 1873.407046 619.584 
L 1873.76575 615.232 
L 1874.124454 593.216 
L 1874.841862 633.024 
L 1875.200566 636.608 
L 1875.55927 635.968 
L 1876.994086 636.608 
L 1877.35279 639.424 
L 1878.070198 638.016 
L 1878.428902 598.976 
L 1878.787606 632.384 
L 1879.14631 635.2 
L 1879.863718 639.424 
L 1880.93983 638.016 
L 1883.092055 607.424 
L 1886.679095 639.424 
L 1888.472615 628.032 
L 1889.548727 638.784 
L 1889.907431 628.032 
L 1890.983543 584.768 
L 1891.342247 640.192 
L 1892.059655 621.632 
L 1892.418359 630.208 
L 1892.777064 613.184 
L 1893.135768 604.608 
L 1893.494472 618.176 
L 1893.853176 648 
L 1894.21188 592.576 
L 1894.570584 592.576 
L 1894.929288 602.432 
L 1895.646696 587.584 
L 1896.0054 618.176 
L 1896.364104 587.584 
L 1896.722808 613.184 
L 1897.081512 601.792 
L 1897.440216 566.208 
L 1897.79892 579.776 
L 1898.157624 540.608 
L 1898.516328 617.408 
L 1898.875032 606.016 
L 1899.233736 544.832 
L 1899.59244 555.584 
L 1899.951144 575.424 
L 1900.309848 502.208 
L 1901.027256 593.984 
L 1901.38596 611.008 
L 1901.744664 579.008 
L 1902.462073 533.568 
L 1902.820777 480.832 
L 1903.179481 481.6 
L 1903.538185 479.424 
L 1903.896889 571.968 
L 1904.255593 532.8 
L 1904.614297 506.432 
L 1904.973001 534.208 
L 1905.331705 425.408 
L 1906.407817 548.416 
L 1906.766521 461.632 
L 1907.125225 404.8 
L 1907.483929 96.832 
L 1907.842633 182.976 
L 1908.201337 466.624 
L 1908.560041 307.392 
L 1908.918745 364.992 
L 1909.277449 453.184 
L 1909.636153 384.832 
L 1909.994857 429.632 
L 1910.353561 564.8 
L 1910.712265 474.432 
L 1911.070969 557.632 
L 1911.788377 480.192 
L 1912.147082 511.424 
L 1912.86449 490.176 
L 1913.223194 549.184 
L 1913.940602 512.832 
L 1914.299306 514.368 
L 1914.65801 480.832 
L 1915.016714 581.824 
L 1915.375418 524.224 
L 1915.734122 596.8 
L 1916.092826 510.784 
L 1916.810234 559.168 
L 1917.168938 449.6 
L 1917.527642 556.992 
L 1917.886346 542.784 
L 1918.24505 522.176 
L 1918.603754 559.808 
L 1918.962458 518.592 
L 1919.321162 515.008 
L 1919.679866 524.992 
L 1920.03857 485.824 
L 1920.397274 492.224 
L 1920.755978 529.216 
L 1921.114682 488.768 
L 1921.473386 549.824 
L 1922.190795 507.968 
L 1922.549499 584.768 
L 1922.908203 548.416 
L 1923.266907 578.368 
L 1923.625611 520 
L 1923.984315 576.832 
L 1924.343019 525.632 
L 1924.701723 535.616 
L 1925.060427 582.592 
L 1925.419131 599.616 
L 1925.777835 575.424 
L 1926.136539 529.984 
L 1926.495243 595.392 
L 1926.853947 516.416 
L 1927.212651 465.216 
L 1927.571355 576.832 
L 1927.930059 497.216 
L 1928.288763 515.008 
L 1928.647467 538.432 
L 1929.006171 592.576 
L 1929.364875 566.208 
L 1929.723579 488.768 
L 1930.082283 554.176 
L 1930.440987 564.8 
L 1930.799691 556.992 
L 1931.158395 431.168 
L 1931.5171 497.216 
L 1931.875804 506.432 
L 1932.234508 508.608 
L 1932.593212 581.184 
L 1932.951916 615.232 
L 1933.31062 512.192 
L 1933.669324 599.616 
L 1934.028028 451.776 
L 1934.745436 512.192 
L 1935.10414 568.384 
L 1935.462844 456.768 
L 1936.108511 492.992 
L 1936.467215 547.776 
L 1936.825919 507.968 
L 1937.184623 559.168 
L 1937.543327 520 
L 1937.830291 640.192 
L 1938.260735 513.6 
L 1938.547699 561.216 
L 1938.906403 528.576 
L 1939.265107 542.016 
L 1939.623811 510.016 
L 1939.982515 575.424 
L 1940.41296 556.224 
L 1940.699923 556.224 
L 1941.058627 554.176 
L 1941.417331 556.992 
L 1941.489072 567.616 
L 1941.847776 591.808 
L 1942.20648 536.384 
L 1942.565184 520.768 
L 1942.923888 485.184 
L 1943.282592 520 
L 1943.641296 527.808 
L 1944 544.832 
L 1944 544.832 
" style="fill:none;stroke:#0000ff;stroke-linecap:square;"/>
   </g>
   <g id="line2d_2">
    <defs>
     <path d="M 0 3 
C 0.795609 3 1.55874 2.683901 2.12132 2.12132 
C 2.683901 1.55874 3 0.795609 3 0 
C 3 -0.795609 2.683901 -1.55874 2.12132 -2.12132 
C 1.55874 -2.683901 0.795609 -3 0 -3 
C -0.795609 -3 -1.55874 -2.683901 -2.12132 -2.12132 
C -2.683901 -1.55874 -3 -0.795609 -3 0 
C -3 0.795609 -2.683901 1.55874 -2.12132 2.12132 
C -1.55874 2.683901 -0.795609 3 0 3 
z
" id="m8575af4a82" style="stroke:#000000;stroke-width:0.5;"/>
    </defs>
    <g clip-path="url(#p501dc3c26f)">
     <use style="fill:#ff0000;stroke:#000000;stroke-width:0.5;" x="352.860632569" xlink:href="#m8575af4a82" y="369.984"/>
     <use style="fill:#ff0000;stroke:#000000;stroke-width:0.5;" x="353.219336614" xlink:href="#m8575af4a82" y="511.424"/>
     <use style="fill:#ff0000;stroke:#000000;stroke-width:0.5;" x="354.29544872" xlink:href="#m8575af4a82" y="320.192"/>
     <use style="fill:#ff0000;stroke:#000000;stroke-width:0.5;" x="1804.4641296" xlink:href="#m8575af4a82" y="236.224"/>
     <use style="fill:#ff0000;stroke:#000000;stroke-width:0.5;" x="1843.27590641" xlink:href="#m8575af4a82" y="404.8"/>
     <use style="fill:#ff0000;stroke:#000000;stroke-width:0.5;" x="1907.48392904" xlink:href="#m8575af4a82" y="96.832"/>
    </g>
   </g>
   <g id="patch_3">
    <path d="M 270 72 
L 1944 72 
" style="fill:none;stroke:#000000;stroke-linecap:square;stroke-linejoin:miter;"/>
   </g>
   <g id="patch_4">
    <path d="M 1944 648 
L 1944 72 
" style="fill:none;stroke:#000000;stroke-linecap:square;stroke-linejoin:miter;"/>
   </g>
   <g id="patch_5">
    <path d="M 270 648 
L 1944 648 
" style="fill:none;stroke:#000000;stroke-linecap:square;stroke-linejoin:miter;"/>
   </g>
   <g id="patch_6">
    <path d="M 270 648 
L 270 72 
" style="fill:none;stroke:#000000;stroke-linecap:square;stroke-linejoin:miter;"/>
   </g>
   <g id="matplotlib.axis_1">
    <g id="xtick_1">
     <g id="line2d_3">
      <defs>
       <path d="M 0 0 
L 0 -4 
" id="m9fe92f4a16" style="stroke:#000000;stroke-width:0.5;"/>
      </defs>
      <g>
       <use style="stroke:#000000;stroke-width:0.5;" x="427.112368226" xlink:href="#m9fe92f4a16" y="648.0"/>
      </g>
     </g>
     <g id="line2d_4">
      <defs>
       <path d="M 0 0 
L 0 4 
" id="m3731e1e84e" style="stroke:#000000;stroke-width:0.5;"/>
      </defs>
      <g>
       <use style="stroke:#000000;stroke-width:0.5;" x="427.112368226" xlink:href="#m3731e1e84e" y="72.0"/>
      </g>
     </g>
     <g id="text_1">
      <!-- Sep 03 2015 -->
      <defs>
       <path d="M 19.1875 8.296875 
L 53.609375 8.296875 
L 53.609375 0 
L 7.328125 0 
L 7.328125 8.296875 
Q 12.9375 14.109375 22.625 23.890625 
Q 32.328125 33.6875 34.8125 36.53125 
Q 39.546875 41.84375 41.421875 45.53125 
Q 43.3125 49.21875 43.3125 52.78125 
Q 43.3125 58.59375 39.234375 62.25 
Q 35.15625 65.921875 28.609375 65.921875 
Q 23.96875 65.921875 18.8125 64.3125 
Q 13.671875 62.703125 7.8125 59.421875 
L 7.8125 69.390625 
Q 13.765625 71.78125 18.9375 73 
Q 24.125 74.21875 28.421875 74.21875 
Q 39.75 74.21875 46.484375 68.546875 
Q 53.21875 62.890625 53.21875 53.421875 
Q 53.21875 48.921875 51.53125 44.890625 
Q 49.859375 40.875 45.40625 35.40625 
Q 44.1875 33.984375 37.640625 27.21875 
Q 31.109375 20.453125 19.1875 8.296875 
" id="BitstreamVeraSans-Roman-32"/>
       <path id="BitstreamVeraSans-Roman-20"/>
       <path d="M 31.78125 66.40625 
Q 24.171875 66.40625 20.328125 58.90625 
Q 16.5 51.421875 16.5 36.375 
Q 16.5 21.390625 20.328125 13.890625 
Q 24.171875 6.390625 31.78125 6.390625 
Q 39.453125 6.390625 43.28125 13.890625 
Q 47.125 21.390625 47.125 36.375 
Q 47.125 51.421875 43.28125 58.90625 
Q 39.453125 66.40625 31.78125 66.40625 
M 31.78125 74.21875 
Q 44.046875 74.21875 50.515625 64.515625 
Q 56.984375 54.828125 56.984375 36.375 
Q 56.984375 17.96875 50.515625 8.265625 
Q 44.046875 -1.421875 31.78125 -1.421875 
Q 19.53125 -1.421875 13.0625 8.265625 
Q 6.59375 17.96875 6.59375 36.375 
Q 6.59375 54.828125 13.0625 64.515625 
Q 19.53125 74.21875 31.78125 74.21875 
" id="BitstreamVeraSans-Roman-30"/>
       <path d="M 12.40625 8.296875 
L 28.515625 8.296875 
L 28.515625 63.921875 
L 10.984375 60.40625 
L 10.984375 69.390625 
L 28.421875 72.90625 
L 38.28125 72.90625 
L 38.28125 8.296875 
L 54.390625 8.296875 
L 54.390625 0 
L 12.40625 0 
z
" id="BitstreamVeraSans-Roman-31"/>
       <path d="M 40.578125 39.3125 
Q 47.65625 37.796875 51.625 33 
Q 55.609375 28.21875 55.609375 21.1875 
Q 55.609375 10.40625 48.1875 4.484375 
Q 40.765625 -1.421875 27.09375 -1.421875 
Q 22.515625 -1.421875 17.65625 -0.515625 
Q 12.796875 0.390625 7.625 2.203125 
L 7.625 11.71875 
Q 11.71875 9.328125 16.59375 8.109375 
Q 21.484375 6.890625 26.8125 6.890625 
Q 36.078125 6.890625 40.9375 10.546875 
Q 45.796875 14.203125 45.796875 21.1875 
Q 45.796875 27.640625 41.28125 31.265625 
Q 36.765625 34.90625 28.71875 34.90625 
L 20.21875 34.90625 
L 20.21875 43.015625 
L 29.109375 43.015625 
Q 36.375 43.015625 40.234375 45.921875 
Q 44.09375 48.828125 44.09375 54.296875 
Q 44.09375 59.90625 40.109375 62.90625 
Q 36.140625 65.921875 28.71875 65.921875 
Q 24.65625 65.921875 20.015625 65.03125 
Q 15.375 64.15625 9.8125 62.3125 
L 9.8125 71.09375 
Q 15.4375 72.65625 20.34375 73.4375 
Q 25.25 74.21875 29.59375 74.21875 
Q 40.828125 74.21875 47.359375 69.109375 
Q 53.90625 64.015625 53.90625 55.328125 
Q 53.90625 49.265625 50.4375 45.09375 
Q 46.96875 40.921875 40.578125 39.3125 
" id="BitstreamVeraSans-Roman-33"/>
       <path d="M 10.796875 72.90625 
L 49.515625 72.90625 
L 49.515625 64.59375 
L 19.828125 64.59375 
L 19.828125 46.734375 
Q 21.96875 47.46875 24.109375 47.828125 
Q 26.265625 48.1875 28.421875 48.1875 
Q 40.625 48.1875 47.75 41.5 
Q 54.890625 34.8125 54.890625 23.390625 
Q 54.890625 11.625 47.5625 5.09375 
Q 40.234375 -1.421875 26.90625 -1.421875 
Q 22.3125 -1.421875 17.546875 -0.640625 
Q 12.796875 0.140625 7.71875 1.703125 
L 7.71875 11.625 
Q 12.109375 9.234375 16.796875 8.0625 
Q 21.484375 6.890625 26.703125 6.890625 
Q 35.15625 6.890625 40.078125 11.328125 
Q 45.015625 15.765625 45.015625 23.390625 
Q 45.015625 31 40.078125 35.4375 
Q 35.15625 39.890625 26.703125 39.890625 
Q 22.75 39.890625 18.8125 39.015625 
Q 14.890625 38.140625 10.796875 36.28125 
z
" id="BitstreamVeraSans-Roman-35"/>
       <path d="M 53.515625 70.515625 
L 53.515625 60.890625 
Q 47.90625 63.578125 42.921875 64.890625 
Q 37.9375 66.21875 33.296875 66.21875 
Q 25.25 66.21875 20.875 63.09375 
Q 16.5 59.96875 16.5 54.203125 
Q 16.5 49.359375 19.40625 46.890625 
Q 22.3125 44.4375 30.421875 42.921875 
L 36.375 41.703125 
Q 47.40625 39.59375 52.65625 34.296875 
Q 57.90625 29 57.90625 20.125 
Q 57.90625 9.515625 50.796875 4.046875 
Q 43.703125 -1.421875 29.984375 -1.421875 
Q 24.8125 -1.421875 18.96875 -0.25 
Q 13.140625 0.921875 6.890625 3.21875 
L 6.890625 13.375 
Q 12.890625 10.015625 18.65625 8.296875 
Q 24.421875 6.59375 29.984375 6.59375 
Q 38.421875 6.59375 43.015625 9.90625 
Q 47.609375 13.234375 47.609375 19.390625 
Q 47.609375 24.75 44.3125 27.78125 
Q 41.015625 30.8125 33.5 32.328125 
L 27.484375 33.5 
Q 16.453125 35.6875 11.515625 40.375 
Q 6.59375 45.0625 6.59375 53.421875 
Q 6.59375 63.09375 13.40625 68.65625 
Q 20.21875 74.21875 32.171875 74.21875 
Q 37.3125 74.21875 42.625 73.28125 
Q 47.953125 72.359375 53.515625 70.515625 
" id="BitstreamVeraSans-Roman-53"/>
       <path d="M 56.203125 29.59375 
L 56.203125 25.203125 
L 14.890625 25.203125 
Q 15.484375 15.921875 20.484375 11.0625 
Q 25.484375 6.203125 34.421875 6.203125 
Q 39.59375 6.203125 44.453125 7.46875 
Q 49.3125 8.734375 54.109375 11.28125 
L 54.109375 2.78125 
Q 49.265625 0.734375 44.1875 -0.34375 
Q 39.109375 -1.421875 33.890625 -1.421875 
Q 20.796875 -1.421875 13.15625 6.1875 
Q 5.515625 13.8125 5.515625 26.8125 
Q 5.515625 40.234375 12.765625 48.109375 
Q 20.015625 56 32.328125 56 
Q 43.359375 56 49.78125 48.890625 
Q 56.203125 41.796875 56.203125 29.59375 
M 47.21875 32.234375 
Q 47.125 39.59375 43.09375 43.984375 
Q 39.0625 48.390625 32.421875 48.390625 
Q 24.90625 48.390625 20.390625 44.140625 
Q 15.875 39.890625 15.1875 32.171875 
z
" id="BitstreamVeraSans-Roman-65"/>
       <path d="M 18.109375 8.203125 
L 18.109375 -20.796875 
L 9.078125 -20.796875 
L 9.078125 54.6875 
L 18.109375 54.6875 
L 18.109375 46.390625 
Q 20.953125 51.265625 25.265625 53.625 
Q 29.59375 56 35.59375 56 
Q 45.5625 56 51.78125 48.09375 
Q 58.015625 40.1875 58.015625 27.296875 
Q 58.015625 14.40625 51.78125 6.484375 
Q 45.5625 -1.421875 35.59375 -1.421875 
Q 29.59375 -1.421875 25.265625 0.953125 
Q 20.953125 3.328125 18.109375 8.203125 
M 48.6875 27.296875 
Q 48.6875 37.203125 44.609375 42.84375 
Q 40.53125 48.484375 33.40625 48.484375 
Q 26.265625 48.484375 22.1875 42.84375 
Q 18.109375 37.203125 18.109375 27.296875 
Q 18.109375 17.390625 22.1875 11.75 
Q 26.265625 6.109375 33.40625 6.109375 
Q 40.53125 6.109375 44.609375 11.75 
Q 48.6875 17.390625 48.6875 27.296875 
" id="BitstreamVeraSans-Roman-70"/>
      </defs>
      <g transform="translate(389.083618226 661.118125)scale(0.12 -0.12)">
       <use xlink:href="#BitstreamVeraSans-Roman-53"/>
       <use x="63.4765625" xlink:href="#BitstreamVeraSans-Roman-65"/>
       <use x="125.0" xlink:href="#BitstreamVeraSans-Roman-70"/>
       <use x="188.4765625" xlink:href="#BitstreamVeraSans-Roman-20"/>
       <use x="220.263671875" xlink:href="#BitstreamVeraSans-Roman-30"/>
       <use x="283.88671875" xlink:href="#BitstreamVeraSans-Roman-33"/>
       <use x="347.509765625" xlink:href="#BitstreamVeraSans-Roman-20"/>
       <use x="379.296875" xlink:href="#BitstreamVeraSans-Roman-32"/>
       <use x="442.919921875" xlink:href="#BitstreamVeraSans-Roman-30"/>
       <use x="506.54296875" xlink:href="#BitstreamVeraSans-Roman-31"/>
       <use x="570.166015625" xlink:href="#BitstreamVeraSans-Roman-35"/>
      </g>
     </g>
    </g>
    <g id="xtick_2">
     <g id="line2d_5">
      <g>
       <use style="stroke:#000000;stroke-width:0.5;" x="633.725893557" xlink:href="#m9fe92f4a16" y="648.0"/>
      </g>
     </g>
     <g id="line2d_6">
      <g>
       <use style="stroke:#000000;stroke-width:0.5;" x="633.725893557" xlink:href="#m3731e1e84e" y="72.0"/>
      </g>
     </g>
     <g id="text_2">
      <!-- Sep 05 2015 -->
      <g transform="translate(595.697143557 661.118125)scale(0.12 -0.12)">
       <use xlink:href="#BitstreamVeraSans-Roman-53"/>
       <use x="63.4765625" xlink:href="#BitstreamVeraSans-Roman-65"/>
       <use x="125.0" xlink:href="#BitstreamVeraSans-Roman-70"/>
       <use x="188.4765625" xlink:href="#BitstreamVeraSans-Roman-20"/>
       <use x="220.263671875" xlink:href="#BitstreamVeraSans-Roman-30"/>
       <use x="283.88671875" xlink:href="#BitstreamVeraSans-Roman-35"/>
       <use x="347.509765625" xlink:href="#BitstreamVeraSans-Roman-20"/>
       <use x="379.296875" xlink:href="#BitstreamVeraSans-Roman-32"/>
       <use x="442.919921875" xlink:href="#BitstreamVeraSans-Roman-30"/>
       <use x="506.54296875" xlink:href="#BitstreamVeraSans-Roman-31"/>
       <use x="570.166015625" xlink:href="#BitstreamVeraSans-Roman-35"/>
      </g>
     </g>
    </g>
    <g id="xtick_3">
     <g id="line2d_7">
      <g>
       <use style="stroke:#000000;stroke-width:0.5;" x="840.339418888" xlink:href="#m9fe92f4a16" y="648.0"/>
      </g>
     </g>
     <g id="line2d_8">
      <g>
       <use style="stroke:#000000;stroke-width:0.5;" x="840.339418888" xlink:href="#m3731e1e84e" y="72.0"/>
      </g>
     </g>
     <g id="text_3">
      <!-- Sep 07 2015 -->
      <defs>
       <path d="M 8.203125 72.90625 
L 55.078125 72.90625 
L 55.078125 68.703125 
L 28.609375 0 
L 18.3125 0 
L 43.21875 64.59375 
L 8.203125 64.59375 
z
" id="BitstreamVeraSans-Roman-37"/>
      </defs>
      <g transform="translate(802.310668888 661.118125)scale(0.12 -0.12)">
       <use xlink:href="#BitstreamVeraSans-Roman-53"/>
       <use x="63.4765625" xlink:href="#BitstreamVeraSans-Roman-65"/>
       <use x="125.0" xlink:href="#BitstreamVeraSans-Roman-70"/>
       <use x="188.4765625" xlink:href="#BitstreamVeraSans-Roman-20"/>
       <use x="220.263671875" xlink:href="#BitstreamVeraSans-Roman-30"/>
       <use x="283.88671875" xlink:href="#BitstreamVeraSans-Roman-37"/>
       <use x="347.509765625" xlink:href="#BitstreamVeraSans-Roman-20"/>
       <use x="379.296875" xlink:href="#BitstreamVeraSans-Roman-32"/>
       <use x="442.919921875" xlink:href="#BitstreamVeraSans-Roman-30"/>
       <use x="506.54296875" xlink:href="#BitstreamVeraSans-Roman-31"/>
       <use x="570.166015625" xlink:href="#BitstreamVeraSans-Roman-35"/>
      </g>
     </g>
    </g>
    <g id="xtick_4">
     <g id="line2d_9">
      <g>
       <use style="stroke:#000000;stroke-width:0.5;" x="1046.95294422" xlink:href="#m9fe92f4a16" y="648.0"/>
      </g>
     </g>
     <g id="line2d_10">
      <g>
       <use style="stroke:#000000;stroke-width:0.5;" x="1046.95294422" xlink:href="#m3731e1e84e" y="72.0"/>
      </g>
     </g>
     <g id="text_4">
      <!-- Sep 09 2015 -->
      <defs>
       <path d="M 10.984375 1.515625 
L 10.984375 10.5 
Q 14.703125 8.734375 18.5 7.8125 
Q 22.3125 6.890625 25.984375 6.890625 
Q 35.75 6.890625 40.890625 13.453125 
Q 46.046875 20.015625 46.78125 33.40625 
Q 43.953125 29.203125 39.59375 26.953125 
Q 35.25 24.703125 29.984375 24.703125 
Q 19.046875 24.703125 12.671875 31.3125 
Q 6.296875 37.9375 6.296875 49.421875 
Q 6.296875 60.640625 12.9375 67.421875 
Q 19.578125 74.21875 30.609375 74.21875 
Q 43.265625 74.21875 49.921875 64.515625 
Q 56.59375 54.828125 56.59375 36.375 
Q 56.59375 19.140625 48.40625 8.859375 
Q 40.234375 -1.421875 26.421875 -1.421875 
Q 22.703125 -1.421875 18.890625 -0.6875 
Q 15.09375 0.046875 10.984375 1.515625 
M 30.609375 32.421875 
Q 37.25 32.421875 41.125 36.953125 
Q 45.015625 41.5 45.015625 49.421875 
Q 45.015625 57.28125 41.125 61.84375 
Q 37.25 66.40625 30.609375 66.40625 
Q 23.96875 66.40625 20.09375 61.84375 
Q 16.21875 57.28125 16.21875 49.421875 
Q 16.21875 41.5 20.09375 36.953125 
Q 23.96875 32.421875 30.609375 32.421875 
" id="BitstreamVeraSans-Roman-39"/>
      </defs>
      <g transform="translate(1008.92419422 661.118125)scale(0.12 -0.12)">
       <use xlink:href="#BitstreamVeraSans-Roman-53"/>
       <use x="63.4765625" xlink:href="#BitstreamVeraSans-Roman-65"/>
       <use x="125.0" xlink:href="#BitstreamVeraSans-Roman-70"/>
       <use x="188.4765625" xlink:href="#BitstreamVeraSans-Roman-20"/>
       <use x="220.263671875" xlink:href="#BitstreamVeraSans-Roman-30"/>
       <use x="283.88671875" xlink:href="#BitstreamVeraSans-Roman-39"/>
       <use x="347.509765625" xlink:href="#BitstreamVeraSans-Roman-20"/>
       <use x="379.296875" xlink:href="#BitstreamVeraSans-Roman-32"/>
       <use x="442.919921875" xlink:href="#BitstreamVeraSans-Roman-30"/>
       <use x="506.54296875" xlink:href="#BitstreamVeraSans-Roman-31"/>
       <use x="570.166015625" xlink:href="#BitstreamVeraSans-Roman-35"/>
      </g>
     </g>
    </g>
    <g id="xtick_5">
     <g id="line2d_11">
      <g>
       <use style="stroke:#000000;stroke-width:0.5;" x="1253.56646954" xlink:href="#m9fe92f4a16" y="648.0"/>
      </g>
     </g>
     <g id="line2d_12">
      <g>
       <use style="stroke:#000000;stroke-width:0.5;" x="1253.56646954" xlink:href="#m3731e1e84e" y="72.0"/>
      </g>
     </g>
     <g id="text_5">
      <!-- Sep 11 2015 -->
      <g transform="translate(1215.53771954 661.118125)scale(0.12 -0.12)">
       <use xlink:href="#BitstreamVeraSans-Roman-53"/>
       <use x="63.4765625" xlink:href="#BitstreamVeraSans-Roman-65"/>
       <use x="125.0" xlink:href="#BitstreamVeraSans-Roman-70"/>
       <use x="188.4765625" xlink:href="#BitstreamVeraSans-Roman-20"/>
       <use x="220.263671875" xlink:href="#BitstreamVeraSans-Roman-31"/>
       <use x="283.88671875" xlink:href="#BitstreamVeraSans-Roman-31"/>
       <use x="347.509765625" xlink:href="#BitstreamVeraSans-Roman-20"/>
       <use x="379.296875" xlink:href="#BitstreamVeraSans-Roman-32"/>
       <use x="442.919921875" xlink:href="#BitstreamVeraSans-Roman-30"/>
       <use x="506.54296875" xlink:href="#BitstreamVeraSans-Roman-31"/>
       <use x="570.166015625" xlink:href="#BitstreamVeraSans-Roman-35"/>
      </g>
     </g>
    </g>
    <g id="xtick_6">
     <g id="line2d_13">
      <g>
       <use style="stroke:#000000;stroke-width:0.5;" x="1460.17999487" xlink:href="#m9fe92f4a16" y="648.0"/>
      </g>
     </g>
     <g id="line2d_14">
      <g>
       <use style="stroke:#000000;stroke-width:0.5;" x="1460.17999487" xlink:href="#m3731e1e84e" y="72.0"/>
      </g>
     </g>
     <g id="text_6">
      <!-- Sep 13 2015 -->
      <g transform="translate(1422.15124487 661.118125)scale(0.12 -0.12)">
       <use xlink:href="#BitstreamVeraSans-Roman-53"/>
       <use x="63.4765625" xlink:href="#BitstreamVeraSans-Roman-65"/>
       <use x="125.0" xlink:href="#BitstreamVeraSans-Roman-70"/>
       <use x="188.4765625" xlink:href="#BitstreamVeraSans-Roman-20"/>
       <use x="220.263671875" xlink:href="#BitstreamVeraSans-Roman-31"/>
       <use x="283.88671875" xlink:href="#BitstreamVeraSans-Roman-33"/>
       <use x="347.509765625" xlink:href="#BitstreamVeraSans-Roman-20"/>
       <use x="379.296875" xlink:href="#BitstreamVeraSans-Roman-32"/>
       <use x="442.919921875" xlink:href="#BitstreamVeraSans-Roman-30"/>
       <use x="506.54296875" xlink:href="#BitstreamVeraSans-Roman-31"/>
       <use x="570.166015625" xlink:href="#BitstreamVeraSans-Roman-35"/>
      </g>
     </g>
    </g>
    <g id="xtick_7">
     <g id="line2d_15">
      <g>
       <use style="stroke:#000000;stroke-width:0.5;" x="1666.7935202" xlink:href="#m9fe92f4a16" y="648.0"/>
      </g>
     </g>
     <g id="line2d_16">
      <g>
       <use style="stroke:#000000;stroke-width:0.5;" x="1666.7935202" xlink:href="#m3731e1e84e" y="72.0"/>
      </g>
     </g>
     <g id="text_7">
      <!-- Sep 15 2015 -->
      <g transform="translate(1628.7647702 661.118125)scale(0.12 -0.12)">
       <use xlink:href="#BitstreamVeraSans-Roman-53"/>
       <use x="63.4765625" xlink:href="#BitstreamVeraSans-Roman-65"/>
       <use x="125.0" xlink:href="#BitstreamVeraSans-Roman-70"/>
       <use x="188.4765625" xlink:href="#BitstreamVeraSans-Roman-20"/>
       <use x="220.263671875" xlink:href="#BitstreamVeraSans-Roman-31"/>
       <use x="283.88671875" xlink:href="#BitstreamVeraSans-Roman-35"/>
       <use x="347.509765625" xlink:href="#BitstreamVeraSans-Roman-20"/>
       <use x="379.296875" xlink:href="#BitstreamVeraSans-Roman-32"/>
       <use x="442.919921875" xlink:href="#BitstreamVeraSans-Roman-30"/>
       <use x="506.54296875" xlink:href="#BitstreamVeraSans-Roman-31"/>
       <use x="570.166015625" xlink:href="#BitstreamVeraSans-Roman-35"/>
      </g>
     </g>
    </g>
    <g id="xtick_8">
     <g id="line2d_17">
      <g>
       <use style="stroke:#000000;stroke-width:0.5;" x="1873.40704553" xlink:href="#m9fe92f4a16" y="648.0"/>
      </g>
     </g>
     <g id="line2d_18">
      <g>
       <use style="stroke:#000000;stroke-width:0.5;" x="1873.40704553" xlink:href="#m3731e1e84e" y="72.0"/>
      </g>
     </g>
     <g id="text_8">
      <!-- Sep 17 2015 -->
      <g transform="translate(1835.37829553 661.118125)scale(0.12 -0.12)">
       <use xlink:href="#BitstreamVeraSans-Roman-53"/>
       <use x="63.4765625" xlink:href="#BitstreamVeraSans-Roman-65"/>
       <use x="125.0" xlink:href="#BitstreamVeraSans-Roman-70"/>
       <use x="188.4765625" xlink:href="#BitstreamVeraSans-Roman-20"/>
       <use x="220.263671875" xlink:href="#BitstreamVeraSans-Roman-31"/>
       <use x="283.88671875" xlink:href="#BitstreamVeraSans-Roman-37"/>
       <use x="347.509765625" xlink:href="#BitstreamVeraSans-Roman-20"/>
       <use x="379.296875" xlink:href="#BitstreamVeraSans-Roman-32"/>
       <use x="442.919921875" xlink:href="#BitstreamVeraSans-Roman-30"/>
       <use x="506.54296875" xlink:href="#BitstreamVeraSans-Roman-31"/>
       <use x="570.166015625" xlink:href="#BitstreamVeraSans-Roman-35"/>
      </g>
     </g>
    </g>
   </g>
   <g id="matplotlib.axis_2">
    <g id="ytick_1">
     <g id="line2d_19">
      <defs>
       <path d="M 0 0 
L 4 0 
" id="m7fd787cde4" style="stroke:#000000;stroke-width:0.5;"/>
      </defs>
      <g>
       <use style="stroke:#000000;stroke-width:0.5;" x="270.0" xlink:href="#m7fd787cde4" y="648.0"/>
      </g>
     </g>
     <g id="line2d_20">
      <defs>
       <path d="M 0 0 
L -4 0 
" id="m57132cf548" style="stroke:#000000;stroke-width:0.5;"/>
      </defs>
      <g>
       <use style="stroke:#000000;stroke-width:0.5;" x="1944.0" xlink:href="#m57132cf548" y="648.0"/>
      </g>
     </g>
     <g id="text_9">
      <!-- 0 -->
      <g transform="translate(258.365 651.31125)scale(0.12 -0.12)">
       <use xlink:href="#BitstreamVeraSans-Roman-30"/>
      </g>
     </g>
    </g>
    <g id="ytick_2">
     <g id="line2d_21">
      <g>
       <use style="stroke:#000000;stroke-width:0.5;" x="270.0" xlink:href="#m7fd787cde4" y="584.0"/>
      </g>
     </g>
     <g id="line2d_22">
      <g>
       <use style="stroke:#000000;stroke-width:0.5;" x="1944.0" xlink:href="#m57132cf548" y="584.0"/>
      </g>
     </g>
     <g id="text_10">
      <!-- 5 -->
      <g transform="translate(258.365 587.31125)scale(0.12 -0.12)">
       <use xlink:href="#BitstreamVeraSans-Roman-35"/>
      </g>
     </g>
    </g>
    <g id="ytick_3">
     <g id="line2d_23">
      <g>
       <use style="stroke:#000000;stroke-width:0.5;" x="270.0" xlink:href="#m7fd787cde4" y="520.0"/>
      </g>
     </g>
     <g id="line2d_24">
      <g>
       <use style="stroke:#000000;stroke-width:0.5;" x="1944.0" xlink:href="#m57132cf548" y="520.0"/>
      </g>
     </g>
     <g id="text_11">
      <!-- 10 -->
      <g transform="translate(250.73 523.31125)scale(0.12 -0.12)">
       <use xlink:href="#BitstreamVeraSans-Roman-31"/>
       <use x="63.623046875" xlink:href="#BitstreamVeraSans-Roman-30"/>
      </g>
     </g>
    </g>
    <g id="ytick_4">
     <g id="line2d_25">
      <g>
       <use style="stroke:#000000;stroke-width:0.5;" x="270.0" xlink:href="#m7fd787cde4" y="456.0"/>
      </g>
     </g>
     <g id="line2d_26">
      <g>
       <use style="stroke:#000000;stroke-width:0.5;" x="1944.0" xlink:href="#m57132cf548" y="456.0"/>
      </g>
     </g>
     <g id="text_12">
      <!-- 15 -->
      <g transform="translate(250.73 459.31125)scale(0.12 -0.12)">
       <use xlink:href="#BitstreamVeraSans-Roman-31"/>
       <use x="63.623046875" xlink:href="#BitstreamVeraSans-Roman-35"/>
      </g>
     </g>
    </g>
    <g id="ytick_5">
     <g id="line2d_27">
      <g>
       <use style="stroke:#000000;stroke-width:0.5;" x="270.0" xlink:href="#m7fd787cde4" y="392.0"/>
      </g>
     </g>
     <g id="line2d_28">
      <g>
       <use style="stroke:#000000;stroke-width:0.5;" x="1944.0" xlink:href="#m57132cf548" y="392.0"/>
      </g>
     </g>
     <g id="text_13">
      <!-- 20 -->
      <g transform="translate(250.73 395.31125)scale(0.12 -0.12)">
       <use xlink:href="#BitstreamVeraSans-Roman-32"/>
       <use x="63.623046875" xlink:href="#BitstreamVeraSans-Roman-30"/>
      </g>
     </g>
    </g>
    <g id="ytick_6">
     <g id="line2d_29">
      <g>
       <use style="stroke:#000000;stroke-width:0.5;" x="270.0" xlink:href="#m7fd787cde4" y="328.0"/>
      </g>
     </g>
     <g id="line2d_30">
      <g>
       <use style="stroke:#000000;stroke-width:0.5;" x="1944.0" xlink:href="#m57132cf548" y="328.0"/>
      </g>
     </g>
     <g id="text_14">
      <!-- 25 -->
      <g transform="translate(250.73 331.31125)scale(0.12 -0.12)">
       <use xlink:href="#BitstreamVeraSans-Roman-32"/>
       <use x="63.623046875" xlink:href="#BitstreamVeraSans-Roman-35"/>
      </g>
     </g>
    </g>
    <g id="ytick_7">
     <g id="line2d_31">
      <g>
       <use style="stroke:#000000;stroke-width:0.5;" x="270.0" xlink:href="#m7fd787cde4" y="264.0"/>
      </g>
     </g>
     <g id="line2d_32">
      <g>
       <use style="stroke:#000000;stroke-width:0.5;" x="1944.0" xlink:href="#m57132cf548" y="264.0"/>
      </g>
     </g>
     <g id="text_15">
      <!-- 30 -->
      <g transform="translate(250.73 267.31125)scale(0.12 -0.12)">
       <use xlink:href="#BitstreamVeraSans-Roman-33"/>
       <use x="63.623046875" xlink:href="#BitstreamVeraSans-Roman-30"/>
      </g>
     </g>
    </g>
    <g id="ytick_8">
     <g id="line2d_33">
      <g>
       <use style="stroke:#000000;stroke-width:0.5;" x="270.0" xlink:href="#m7fd787cde4" y="200.0"/>
      </g>
     </g>
     <g id="line2d_34">
      <g>
       <use style="stroke:#000000;stroke-width:0.5;" x="1944.0" xlink:href="#m57132cf548" y="200.0"/>
      </g>
     </g>
     <g id="text_16">
      <!-- 35 -->
      <g transform="translate(250.73 203.31125)scale(0.12 -0.12)">
       <use xlink:href="#BitstreamVeraSans-Roman-33"/>
       <use x="63.623046875" xlink:href="#BitstreamVeraSans-Roman-35"/>
      </g>
     </g>
    </g>
    <g id="ytick_9">
     <g id="line2d_35">
      <g>
       <use style="stroke:#000000;stroke-width:0.5;" x="270.0" xlink:href="#m7fd787cde4" y="136.0"/>
      </g>
     </g>
     <g id="line2d_36">
      <g>
       <use style="stroke:#000000;stroke-width:0.5;" x="1944.0" xlink:href="#m57132cf548" y="136.0"/>
      </g>
     </g>
     <g id="text_17">
      <!-- 40 -->
      <defs>
       <path d="M 37.796875 64.3125 
L 12.890625 25.390625 
L 37.796875 25.390625 
z
M 35.203125 72.90625 
L 47.609375 72.90625 
L 47.609375 25.390625 
L 58.015625 25.390625 
L 58.015625 17.1875 
L 47.609375 17.1875 
L 47.609375 0 
L 37.796875 0 
L 37.796875 17.1875 
L 4.890625 17.1875 
L 4.890625 26.703125 
z
" id="BitstreamVeraSans-Roman-34"/>
      </defs>
      <g transform="translate(250.73 139.31125)scale(0.12 -0.12)">
       <use xlink:href="#BitstreamVeraSans-Roman-34"/>
       <use x="63.623046875" xlink:href="#BitstreamVeraSans-Roman-30"/>
      </g>
     </g>
    </g>
    <g id="ytick_10">
     <g id="line2d_37">
      <g>
       <use style="stroke:#000000;stroke-width:0.5;" x="270.0" xlink:href="#m7fd787cde4" y="72.0"/>
      </g>
     </g>
     <g id="line2d_38">
      <g>
       <use style="stroke:#000000;stroke-width:0.5;" x="1944.0" xlink:href="#m57132cf548" y="72.0"/>
      </g>
     </g>
     <g id="text_18">
      <!-- 45 -->
      <g transform="translate(250.73 75.31125)scale(0.12 -0.12)">
       <use xlink:href="#BitstreamVeraSans-Roman-34"/>
       <use x="63.623046875" xlink:href="#BitstreamVeraSans-Roman-35"/>
      </g>
     </g>
    </g>
   </g>
  </g>
 </g>
 <defs>
  <clipPath id="p501dc3c26f">
   <rect height="576.0" width="1674.0" x="270.0" y="72.0"/>
  </clipPath>
 </defs>
</svg>
