<?xml version="1.0" encoding="utf-8" standalone="no"?>
<!DOCTYPE svg PUBLIC "-//W3C//DTD SVG 1.1//EN"
  "http://www.w3.org/Graphics/SVG/1.1/DTD/svg11.dtd">
<!-- Created with matplotlib (http://matplotlib.org/) -->
<svg height="720pt" version="1.1" viewBox="0 0 2160 720" width="2160pt" xmlns="http://www.w3.org/2000/svg" xmlns:xlink="http://www.w3.org/1999/xlink">
 <defs>
  <style type="text/css">
*{stroke-linecap:butt;stroke-linejoin:round;stroke-miterlimit:100000;}
  </style>
 </defs>
 <g id="figure_1">
  <g id="patch_1">
   <path d="M 0 720 
L 2160 720 
L 2160 0 
L 0 0 
z
" style="fill:#ffffff;"/>
  </g>
  <g id="axes_1">
   <g id="patch_2">
    <path d="M 270 648 
L 1944 648 
L 1944 72 
L 270 72 
z
" style="fill:#ffffff;"/>
   </g>
   <g id="line2d_1">
    <path clip-path="url(#p69ffad842d)" d="M 270 593.856 
L 270.235476 577.92 
L 270.403673 574.08 
L 270.975544 548.64 
L 271.143741 545.76 
L 271.311939 556.512 
L 271.480136 551.52 
L 271.648333 552.384 
L 271.81653 561.504 
L 272.321122 550.08 
L 272.489319 563.904 
L 272.657517 564.48 
L 272.825714 570.336 
L 273.162108 559.104 
L 273.330306 568.416 
L 273.834897 588.096 
L 274.003095 587.328 
L 274.171292 590.784 
L 274.339489 599.04 
L 274.507686 597.504 
L 275.180475 638.496 
L 275.348673 639.84 
L 275.685067 639.84 
L 275.853264 639.648 
L 276.021462 639.072 
L 276.357856 642.528 
L 277.198843 638.304 
L 289.948194 631.008 
L 290.284589 626.784 
L 290.789181 616.128 
L 290.957378 615.552 
L 291.125575 622.752 
L 291.630167 611.04 
L 291.798364 609.888 
L 292.134759 603.744 
L 292.269317 607.872 
L 292.437514 604.992 
L 292.68981 608.064 
L 292.925286 605.856 
L 293.127123 612.48 
L 293.29532 609.216 
L 293.463517 610.848 
L 294.50634 630.24 
L 294.842735 630.336 
L 296.726544 638.016 
L 296.877921 637.632 
L 297.062938 636.384 
L 297.231136 636.48 
L 297.399333 635.808 
L 298.240319 643.008 
L 314.942307 639.072 
L 316.624279 633.504 
L 316.792476 632.544 
L 316.960674 632.64 
L 317.633463 631.008 
L 319.483632 629.472 
L 323.30171 636.576 
L 337.463919 634.272 
L 337.968511 633.504 
L 340.356912 634.752 
L 341.029701 633.984 
L 342.879871 631.392 
L 343.720857 626.304 
L 344.225449 628.224 
L 344.393646 624.672 
L 344.73004 625.152 
L 345.066435 619.776 
L 345.571027 627.936 
L 346.243816 626.688 
L 346.395193 634.944 
L 347.067982 635.616 
L 347.236179 635.232 
L 361.600225 630.528 
L 362.104817 623.712 
L 362.273014 627.072 
L 362.609409 627.264 
L 362.777606 628.512 
L 365.653779 634.272 
L 366.494765 638.112 
L 367.335751 630.72 
L 367.672146 620.928 
L 367.840343 622.848 
L 368.344935 620.256 
L 368.513132 623.04 
L 368.64769 621.984 
L 368.916806 625.536 
L 369.623234 617.376 
L 369.959629 622.464 
L 370.46422 628.128 
L 370.800615 628.992 
L 371.305207 626.592 
L 371.473404 624 
L 371.809798 629.472 
L 386.274762 634.176 
L 388.293129 636.384 
L 389.588248 638.016 
L 392.279404 630.912 
L 392.952193 632.544 
L 393.624982 628.416 
L 393.79318 629.28 
L 394.129574 629.856 
L 394.465969 627.456 
L 394.802363 628.416 
L 395.306955 626.88 
L 395.475152 626.976 
L 412.631272 633.216 
L 415.23833 636.672 
L 415.406527 636.096 
L 415.911119 631.296 
L 416.583908 609.792 
L 416.752105 609.504 
L 416.768925 610.368 
L 417.088499 614.496 
L 417.424894 610.752 
L 417.593091 614.88 
L 417.761289 613.152 
L 417.929486 598.464 
L 418.26588 608.544 
L 418.434078 608.352 
L 418.602275 616.224 
L 418.770472 612.768 
L 419.106867 620.352 
L 419.275064 619.872 
L 419.947853 626.4 
L 420.284247 626.304 
L 420.452445 628.8 
L 420.788839 628.512 
L 421.125234 629.088 
L 443.360911 534.24 
L 443.529108 544.224 
L 443.932781 519.744 
L 444.100979 535.296 
L 444.437373 584.928 
L 444.941965 624.864 
L 445.278359 632.16 
L 445.614754 639.744 
L 446.119346 639.072 
L 453.20045 642.528 
L 454.209634 639.072 
L 459.423749 635.424 
L 459.591946 636.192 
L 460.769327 637.536 
L 461.105721 636.672 
L 461.273918 635.712 
L 461.946707 624.384 
L 462.114905 625.824 
L 463.124088 618.336 
L 463.965074 627.168 
L 465.815244 639.648 
L 466.319836 639.84 
L 466.656231 640.416 
L 468.338203 640.992 
L 468.674598 639.168 
L 484.43468 638.688 
L 484.972912 638.784 
L 486.31849 630.816 
L 486.654884 630.912 
L 486.991279 630.432 
L 487.327673 633.6 
L 488.505054 631.296 
L 489.34604 632.064 
L 490.187027 632.544 
L 490.355224 633.504 
L 490.523421 631.776 
L 503.811004 638.976 
L 503.979201 638.496 
L 505.661174 635.136 
L 507.679541 633.408 
L 508.015936 633.312 
L 508.688725 635.328 
L 509.361514 635.136 
L 509.630629 634.464 
L 522.901393 645.984 
L 523.06959 638.88 
L 523.237787 639.36 
L 523.742379 639.456 
L 524.91976 639.36 
L 525.087957 638.112 
L 525.424351 641.568 
L 526.433535 645.696 
L 526.601732 642.912 
L 531.143058 628.608 
L 533.329622 636.48 
L 535.347989 634.656 
L 535.516187 627.36 
L 535.684384 629.184 
L 536.188976 626.016 
L 536.357173 631.392 
L 536.693568 630.912 
L 536.861765 628.992 
L 537.029962 629.568 
L 537.534554 617.664 
L 538.039146 624 
L 538.37554 625.248 
L 538.543737 619.008 
L 538.711935 619.968 
L 539.048329 617.472 
L 539.216526 619.776 
L 539.384724 624.48 
L 539.721118 624.384 
L 540.057513 623.808 
L 540.22571 627.744 
L 540.562104 627.072 
L 541.066696 633.6 
L 546.179893 639.648 
L 546.34809 638.784 
L 547.861865 642.624 
L 548.534654 636.864 
L 549.880232 638.88 
L 550.04843 639.648 
L 550.384824 639.744 
L 550.553021 644.928 
L 550.721219 645.312 
L 550.889416 645.216 
L 551.057613 646.848 
L 551.394008 646.848 
L 555.262544 633.888 
L 555.430742 634.56 
L 560.964431 632.544 
L 561.132629 630.432 
L 561.300826 626.496 
L 561.973615 616.8 
L 562.646404 620.352 
L 562.814601 622.752 
L 563.319193 612.96 
L 563.655587 617.664 
L 564.160179 612.576 
L 564.496574 622.368 
L 564.664771 625.728 
L 564.832968 624.864 
L 565.33756 625.248 
L 565.673955 634.848 
L 574.285654 373.632 
L 574.622049 381.024 
L 574.773426 370.464 
L 582.359122 636.192 
L 582.527319 625.344 
L 582.863714 617.856 
L 585.050278 623.424 
L 585.386673 621.6 
L 585.723067 612.48 
L 586.059462 613.248 
L 586.395856 617.28 
L 586.564054 626.784 
L 586.732251 622.56 
L 586.900448 624.192 
L 587.573237 615.168 
L 587.741434 617.184 
L 587.909632 617.376 
L 588.246026 615.84 
L 588.414223 617.568 
L 588.750618 616.512 
L 588.918815 618.624 
L 589.087012 618.72 
L 589.25521 622.176 
L 589.423407 621.792 
L 589.591604 622.944 
L 589.927999 628.032 
L 594.13293 637.92 
L 604.779816 634.176 
L 605.469425 631.68 
L 605.974017 631.968 
L 606.310411 630.816 
L 606.646806 631.008 
L 607.151398 623.232 
L 607.319595 623.904 
L 607.403694 622.56 
L 611.692724 617.376 
L 611.860921 620.448 
L 612.197315 619.872 
L 613.206499 634.368 
L 613.374696 631.104 
L 613.542893 630.336 
L 613.711091 628.704 
L 613.879288 629.472 
L 614.38388 640.8 
L 614.552077 636.864 
L 614.720274 635.808 
L 614.888471 638.592 
L 615.056669 637.824 
L 615.224866 635.904 
L 615.393063 641.952 
L 615.729458 639.264 
L 616.234049 636.96 
L 616.402247 637.248 
L 620.270784 583.68 
L 624.475715 365.664 
L 624.812109 374.592 
L 624.879388 367.296 
L 628.42835 627.552 
L 628.932942 623.04 
L 629.101139 624.768 
L 629.773928 624 
L 629.942126 617.664 
L 630.110323 616.8 
L 630.27852 621.6 
L 630.446717 620.832 
L 630.614915 619.104 
L 630.951309 606.912 
L 631.119506 608.928 
L 631.287704 608.256 
L 631.455901 605.952 
L 631.624098 597.504 
L 632.12869 611.136 
L 632.296887 612.096 
L 632.465085 603.648 
L 632.801479 609.792 
L 633.474268 612.864 
L 633.97886 626.208 
L 635.324438 634.848 
L 635.492635 634.176 
L 635.82903 633.696 
L 635.997227 635.904 
L 636.165424 640.512 
L 636.501819 638.88 
L 637.342805 642.72 
L 637.511002 642.528 
L 637.847397 641.376 
L 638.015594 639.552 
L 654.011153 637.92 
L 654.515745 637.728 
L 655.693125 624.096 
L 655.861323 626.688 
L 656.02952 635.232 
L 658.552479 635.424 
L 662.421016 635.904 
L 662.589213 633.984 
L 675.052629 636.768 
L 676.398208 630.528 
L 676.734602 633.984 
L 676.902799 632.544 
L 677.070997 629.472 
L 677.575588 627.168 
L 677.743786 630.048 
L 678.248377 633.312 
L 678.752969 632.544 
L 678.921166 633.12 
L 679.257561 627.552 
L 679.425758 634.368 
L 679.593955 629.184 
L 679.762153 629.856 
L 680.266744 630.048 
L 680.939533 629.76 
L 681.107731 630.336 
L 683.967084 626.496 
L 684.471676 617.088 
L 684.80807 621.696 
L 684.976268 621.312 
L 685.480859 631.488 
L 685.985451 627.456 
L 686.153648 630.528 
L 686.321846 630.816 
L 705.328135 638.208 
L 705.496333 638.88 
L 705.66453 634.464 
L 706.000924 634.944 
L 706.169122 631.2 
L 706.337319 630.048 
L 706.505516 631.2 
L 707.5147 623.904 
L 707.952013 624.48 
L 708.13703 627.936 
L 708.305227 626.592 
L 708.473424 620.16 
L 708.641621 621.888 
L 709.146213 622.272 
L 709.482608 626.112 
L 709.987199 627.744 
L 725.965939 632.928 
L 749.950867 620.16 
L 752.473826 455.712 
L 752.978418 629.952 
L 753.819404 580.8 
L 753.987601 594.624 
L 754.155798 558.624 
L 754.323996 636.768 
L 754.492193 604.8 
L 754.66039 626.784 
L 754.996785 629.28 
L 755.164982 624.672 
L 755.333179 625.632 
L 755.669574 621.696 
L 756.174166 608.64 
L 756.51056 607.968 
L 756.846955 551.04 
L 757.015152 561.312 
L 757.183349 555.36 
L 757.351546 567.648 
L 757.385186 561.888 
L 758.209352 628.128 
L 758.545747 628.896 
L 758.663485 624.864 
L 761.220083 619.968 
L 762.447923 601.536 
L 767.308824 639.264 
L 770.639129 639.552 
L 770.773687 639.264 
L 780.226373 609.408 
L 780.39457 596.736 
L 780.730965 591.936 
L 780.899162 586.368 
L 781.067359 591.072 
L 781.235557 591.168 
L 781.403754 588 
L 781.740148 570.24 
L 781.941985 572.256 
L 782.27838 565.152 
L 782.446577 578.688 
L 782.614774 579.456 
L 782.782971 565.44 
L 783.119366 556.896 
L 783.287563 542.496 
L 783.623958 592.896 
L 783.792155 593.28 
L 783.960352 620.928 
L 784.128549 620.352 
L 784.464944 633.696 
L 784.801338 635.136 
L 784.969536 639.648 
L 785.137733 637.44 
L 785.30593 637.632 
L 785.978719 630.72 
L 786.483311 630.528 
L 805.472781 639.456 
L 806.818359 643.296 
L 807.154754 642.336 
L 807.322951 641.472 
L 807.491148 641.28 
L 823.570806 638.976 
L 824.075397 636.864 
L 824.243595 631.584 
L 824.748186 631.776 
L 831.661094 638.496 
L 845.789663 634.272 
L 845.95786 633.696 
L 846.294255 633.408 
L 846.462452 632.16 
L 846.630649 632.16 
L 846.798847 632.64 
L 847.303438 632.928 
L 847.471636 630.432 
L 849.6582 629.664 
L 849.994594 630.816 
L 850.499186 630.24 
L 851.693387 624.192 
L 852.029781 629.952 
L 852.366176 627.36 
L 852.534373 628.128 
L 853.207162 613.92 
L 853.543556 615.648 
L 854.048148 631.776 
L 854.384543 627.84 
L 854.55274 623.04 
L 854.889134 625.248 
L 855.057332 629.472 
L 855.393726 632.448 
L 869.522296 635.328 
L 872.818962 637.344 
L 874.837329 632.736 
L 875.005526 636.576 
L 875.341921 627.36 
L 875.678315 633.792 
L 876.182907 622.368 
L 876.351104 622.464 
L 876.519301 614.016 
L 876.687499 613.92 
L 877.023893 609.408 
L 877.528485 595.392 
L 877.696682 596.64 
L 878.201274 575.04 
L 878.369471 574.752 
L 878.537669 576.864 
L 878.874063 568.896 
L 879.04226 559.776 
L 879.210458 563.328 
L 879.378655 570.336 
L 879.546852 571.104 
L 880.000985 612.864 
L 880.337379 632.928 
L 884.542311 636.096 
L 884.878705 633.504 
L 894.297751 632.64 
L 894.465949 634.656 
L 897.762615 625.056 
L 898.099009 633.408 
L 898.771798 619.488 
L 899.612785 619.68 
L 899.780982 617.376 
L 900.117376 607.392 
L 900.436951 615.072 
L 900.790165 614.976 
L 900.958363 612.096 
L 901.12656 618.432 
L 901.277937 614.688 
L 901.462954 620.928 
L 902.118924 625.056 
L 902.287121 622.656 
L 902.623515 624.96 
L 903.128107 620.352 
L 903.313124 613.344 
L 904.305488 632.16 
L 904.473685 634.08 
L 911.403412 636 
L 924.690995 628.8 
L 924.859193 627.456 
L 925.195587 619.488 
L 925.531982 616.128 
L 925.700179 611.616 
L 925.868376 610.464 
L 926.036573 621.408 
L 926.541165 623.424 
L 926.709362 617.472 
L 927.213954 615.168 
L 927.382151 621.888 
L 928.05494 634.464 
L 928.391335 633.312 
L 928.559532 631.488 
L 929.064124 631.584 
L 933.437253 640.224 
L 939.357796 638.496 
L 942.889938 633.6 
L 943.39453 627.168 
L 944.403714 597.984 
L 944.571911 579.648 
L 944.908305 588.192 
L 945.076503 588.96 
L 945.2447 587.424 
L 945.412897 589.248 
L 945.581094 580.224 
L 945.749292 582.24 
L 945.917489 595.584 
L 946.253883 587.712 
L 946.422081 587.04 
L 946.590278 577.344 
L 946.758475 578.4 
L 946.926672 573.792 
L 947.09487 591.648 
L 947.431264 569.376 
L 947.599461 568.128 
L 947.935856 557.472 
L 948.104053 556.992 
L 948.440448 579.936 
L 948.608645 589.152 
L 948.776842 582.432 
L 948.945039 581.856 
L 949.113237 571.2 
L 949.617829 568.704 
L 949.903764 588.768 
L 950.071961 586.944 
L 950.408356 574.848 
L 950.74475 596.16 
L 950.912947 590.304 
L 951.081145 576.768 
L 951.249342 589.344 
L 951.417539 592.608 
L 951.585736 593.184 
L 952.090328 615.168 
L 952.59492 622.176 
L 952.763117 628.8 
L 953.435906 638.304 
L 953.604103 629.856 
L 953.940498 636.672 
L 954.276892 634.08 
L 954.44509 636.48 
L 954.613287 635.52 
L 955.117879 637.536 
L 955.454273 637.44 
L 957.640838 639.84 
L 961.862589 642.048 
L 966.740309 631.2 
L 967.076704 628.704 
L 967.413098 630.24 
L 967.749493 623.52 
L 968.085887 621.12 
L 968.254084 621.216 
L 969.095071 614.88 
L 969.263268 624.96 
L 969.431465 624.864 
L 969.599662 624.288 
L 969.936057 621.216 
L 970.608846 623.904 
L 971.281635 621.6 
L 971.954424 613.92 
L 972.627213 621.312 
L 972.963608 636.288 
L 973.636397 633.408 
L 975.066073 640.224 
L 975.402468 639.552 
L 975.570665 638.208 
L 975.738862 639.072 
L 975.907059 641.76 
L 976.411651 642.816 
L 976.579848 642.24 
L 976.748046 642.624 
L 977.252638 638.88 
L 984.653317 639.168 
L 993.063179 637.152 
L 993.567771 633.024 
L 994.408758 632.736 
L 994.576955 633.696 
L 995.081547 629.28 
L 995.586138 630.528 
L 995.754336 627.744 
L 996.09073 632.448 
L 997.268111 635.136 
L 999.706971 638.592 
L 1014.844724 635.52 
L 1015.181119 632.832 
L 1015.517513 631.392 
L 1015.853908 632.544 
L 1016.022105 626.976 
L 1016.358499 632.256 
L 1016.526697 632.64 
L 1018.376866 635.04 
L 1018.545064 635.616 
L 1018.713261 631.296 
L 1019.049655 629.664 
L 1019.38605 621.12 
L 1019.554247 626.112 
L 1019.890642 608.544 
L 1020.058839 605.856 
L 1020.227036 606.72 
L 1020.563431 617.184 
L 1020.731628 628.416 
L 1021.068022 631.872 
L 1021.404417 631.872 
L 1021.572614 625.44 
L 1021.909009 626.016 
L 1022.077206 614.112 
L 1022.4136 607.872 
L 1022.581798 611.328 
L 1022.749995 620.064 
L 1023.086389 620.736 
L 1023.254587 620.256 
L 1023.422784 623.808 
L 1023.574162 629.952 
L 1023.742359 630.432 
L 1023.910556 630.336 
L 1024.078753 625.632 
L 1024.246951 626.208 
L 1024.415148 628.32 
L 1024.583345 633.024 
L 1024.852461 634.464 
L 1025.020658 632.736 
L 1025.357052 635.328 
L 1026.534433 632.832 
L 1027.711814 638.016 
L 1042.328155 636.096 
L 1044.51472 638.688 
L 1045.355706 629.472 
L 1045.70892 621.408 
L 1045.759379 622.752 
L 1046.701284 629.184 
L 1047.374073 629.472 
L 1047.54227 620.928 
L 1047.710468 623.616 
L 1048.046862 624.672 
L 1048.215059 620.928 
L 1048.887848 624 
L 1049.056046 621.12 
L 1049.224243 624.96 
L 1065.051605 629.664 
L 1066.228985 632.064 
L 1066.397183 632.928 
L 1066.54856 632.736 
L 1066.716757 633.408 
L 1069.576111 635.136 
L 1069.744308 633.6 
L 1070.080703 632.64 
L 1070.417097 619.872 
L 1070.770311 615.744 
L 1070.921689 617.76 
L 1071.258083 614.112 
L 1071.426281 618.624 
L 1071.762675 609.12 
L 1072.09907 610.368 
L 1072.267267 608.352 
L 1072.435464 604.992 
L 1072.603661 609.696 
L 1072.771859 609.216 
L 1072.940056 606.72 
L 1073.108253 612.48 
L 1074.117437 633.696 
L 1074.285634 636.192 
L 1076.3881 632.256 
L 1089.171091 635.904 
L 1089.675683 633.984 
L 1090.012077 633.984 
L 1093.376022 631.2 
L 1093.54422 633.312 
L 1094.217009 630.72 
L 1094.385206 626.4 
L 1094.7216 622.08 
L 1094.889798 610.56 
L 1095.394389 607.104 
L 1095.562587 610.368 
L 1095.898981 597.6 
L 1096.067178 590.784 
L 1096.235376 603.264 
L 1096.57177 597.024 
L 1096.739967 600.768 
L 1096.908165 598.752 
L 1097.076362 609.696 
L 1097.244559 612.576 
L 1097.749151 615.456 
L 1098.085545 620.16 
L 1098.253743 616.896 
L 1098.590137 616.992 
L 1102.963266 640.608 
L 1103.131463 640.416 
L 1111.541326 633.504 
L 1112.550509 635.136 
L 1112.718707 633.888 
L 1112.886904 633.888 
L 1113.055101 634.176 
L 1113.223298 631.584 
L 1114.064285 632.352 
L 1114.232482 632.064 
L 1114.737074 631.488 
L 1114.905271 629.664 
L 1115.073468 630.72 
L 1115.409863 626.784 
L 1115.57806 631.008 
L 1115.746257 628.128 
L 1115.914455 627.744 
L 1116.082652 620.736 
L 1116.250849 626.592 
L 1116.419046 628.032 
L 1116.923638 624.48 
L 1117.091835 627.168 
L 1117.42823 622.08 
L 1117.596427 623.616 
L 1118.942005 604.896 
L 1119.110202 606.816 
L 1119.2784 596.832 
L 1119.446597 597.984 
L 1119.614794 580.896 
L 1119.782991 600.096 
L 1119.951189 581.568 
L 1120.287583 601.056 
L 1120.45578 589.824 
L 1120.623978 588.48 
L 1120.792175 589.44 
L 1120.960372 592.8 
L 1121.128569 599.52 
L 1121.296767 600.864 
L 1121.801358 616.224 
L 1121.969556 615.84 
L 1122.137753 610.752 
L 1122.474147 625.536 
L 1122.642345 629.664 
L 1122.810542 630.816 
L 1122.978739 635.616 
L 1123.483331 639.456 
L 1123.651528 639.552 
L 1123.819725 638.976 
L 1123.987923 642.144 
L 1124.15612 639.072 
L 1124.913008 637.152 
L 1125.081205 638.016 
L 1127.267769 639.936 
L 1128.949742 638.784 
L 1131.321323 642.24 
L 1136.703635 635.904 
L 1137.544622 634.656 
L 1137.712819 636.768 
L 1138.217411 633.12 
L 1138.8902 631.392 
L 1139.058397 628.8 
L 1139.226594 628.32 
L 1139.899383 622.08 
L 1140.06758 623.52 
L 1140.403975 623.904 
L 1140.572172 623.328 
L 1140.908567 626.496 
L 1141.076764 626.4 
L 1141.581356 629.28 
L 1141.91775 632.16 
L 1142.590539 629.856 
L 1142.758736 631.968 
L 1143.936117 637.344 
L 1144.440709 637.056 
L 1144.777103 639.744 
L 1145.113498 636.768 
L 1145.449892 642.144 
L 1145.954484 643.008 
L 1146.459076 641.088 
L 1149.90712 637.824 
L 1162.690111 638.112 
L 1164.372084 632.16 
L 1164.540281 633.216 
L 1164.708478 631.68 
L 1166.726845 635.328 
L 1167.06324 633.408 
L 1167.399634 628.128 
L 1167.567832 628.704 
L 1168.577015 637.536 
L 1184.269819 634.944 
L 1184.438016 636.48 
L 1184.774411 634.656 
L 1185.43038 625.824 
L 1185.951791 609.408 
L 1186.456383 599.904 
L 1186.624581 600.576 
L 1187.28055 554.016 
L 1187.448747 560.832 
L 1187.801961 553.056 
L 1188.289733 548.64 
L 1188.626128 567.072 
L 1188.962522 557.472 
L 1189.635311 546.144 
L 1189.652131 546.624 
L 1190.3081 551.136 
L 1190.476298 561.216 
L 1190.694954 542.592 
L 1191.485481 605.76 
L 1192.006893 617.568 
L 1192.662862 626.976 
L 1192.831059 626.88 
L 1192.999256 627.936 
L 1193.167454 630.24 
L 1193.503848 630.624 
L 1193.705685 627.84 
L 1209.213472 635.616 
L 1211.063642 628.416 
L 1211.568233 628.032 
L 1211.736431 627.36 
L 1211.904628 628.032 
L 1212.40922 621.6 
L 1212.577417 624 
L 1212.745614 622.656 
L 1212.913811 624.864 
L 1213.418403 622.848 
L 1214.091192 634.56 
L 1214.427587 622.752 
L 1214.595784 624.96 
L 1214.763981 621.984 
L 1215.100376 605.376 
L 1215.604968 625.824 
L 1215.941362 632.928 
L 1216.109559 633.696 
L 1216.429134 634.464 
L 1216.647791 162.336 
L 1216.984185 632.448 
L 1217.152382 626.016 
L 1217.32058 628.512 
L 1217.488777 626.784 
L 1217.656974 626.688 
L 1218.161566 609.024 
L 1218.329763 612.864 
L 1218.49796 609.888 
L 1218.834355 617.76 
L 1219.002552 619.2 
L 1219.170749 629.376 
L 1231.112754 634.848 
L 1231.280952 623.232 
L 1233.635713 636.672 
L 1237.336053 637.728 
L 1239.573076 629.28 
L 1240.531801 630.528 
L 1240.699998 631.872 
L 1241.20459 626.976 
L 1241.540984 617.376 
L 1241.709182 621.888 
L 1241.877379 619.104 
L 1242.045576 608.448 
L 1242.213773 608.736 
L 1242.550168 603.264 
L 1243.222957 627.84 
L 1243.391154 631.104 
L 1243.559351 628.608 
L 1243.895746 634.464 
L 1247.091494 625.152 
L 1247.427888 622.272 
L 1247.596085 623.52 
L 1247.764283 627.744 
L 1250.421799 636.384 
L 1255.131322 634.176 
L 1255.29952 627.84 
L 1255.635914 607.872 
L 1259.336254 636.192 
L 1260.513635 634.368 
L 1261.354621 634.08 
L 1263.036593 628.608 
L 1263.204791 633.504 
L 1263.372988 633.792 
L 1263.709382 631.488 
L 1263.87758 624.768 
L 1264.045777 625.344 
L 1264.550369 607.488 
L 1264.886763 566.112 
L 1265.054961 574.368 
L 1265.223158 556.032 
L 1265.391355 554.592 
L 1265.559552 541.632 
L 1265.72775 548.736 
L 1266.064144 526.944 
L 1266.232341 538.272 
L 1266.400539 541.632 
L 1266.568736 559.968 
L 1266.736933 594.72 
L 1267.073328 612.864 
L 1267.241525 599.808 
L 1267.409722 614.4 
L 1267.577919 609.888 
L 1267.746117 621.12 
L 1267.914314 623.52 
L 1272.472459 639.072 
L 1272.640657 639.744 
L 1281.941965 635.808 
L 1282.110162 634.848 
L 1282.278359 635.232 
L 1282.446557 633.216 
L 1282.782951 632.832 
L 1283.623937 628.8 
L 1283.960332 630.432 
L 1284.464924 620.064 
L 1284.633121 620.832 
L 1284.801318 619.008 
L 1284.969516 623.328 
L 1285.137713 619.968 
L 1285.30591 620.256 
L 1285.474107 624 
L 1285.642305 622.656 
L 1285.810502 624.864 
L 1285.978699 624.288 
L 1286.146896 625.536 
L 1286.483291 618.624 
L 1287.15608 610.944 
L 1287.828869 598.176 
L 1287.997066 605.088 
L 1288.333461 594.72 
L 1289.174447 583.104 
L 1289.342644 585.504 
L 1289.510841 578.592 
L 1289.679039 592.032 
L 1289.847236 593.088 
L 1290.18363 584.064 
L 1290.351828 591.648 
L 1290.520025 592.224 
L 1290.856419 605.376 
L 1291.192814 583.392 
L 1291.697406 573.696 
L 1292.0338 576.288 
L 1292.201997 586.56 
L 1292.370195 579.936 
L 1293.211181 634.656 
L 1293.547576 642.24 
L 1293.715773 639.168 
L 1293.88397 639.552 
L 1294.556759 638.112 
L 1295.061351 633.888 
L 1295.229548 628.608 
L 1295.902337 593.952 
L 1296.070534 593.76 
L 1296.238732 594.24 
L 1296.743323 627.168 
L 1296.911521 627.744 
L 1297.416112 635.424 
L 1300.965074 641.952 
L 1301.806061 637.632 
L 1304.160822 629.76 
L 1304.833611 605.568 
L 1305.001809 588.768 
L 1305.338203 622.368 
L 1305.5064 624.96 
L 1305.674598 624.384 
L 1306.010992 618.72 
L 1306.179189 611.328 
L 1306.347387 609.216 
L 1306.515584 613.056 
L 1306.683781 612.96 
L 1307.020176 611.904 
L 1307.37339 620.928 
L 1308.449852 619.104 
L 1309.677692 603.552 
L 1310.384121 614.4 
L 1310.552318 620.256 
L 1311.05691 617.472 
L 1311.393304 625.632 
L 1311.897896 635.52 
L 1312.066093 635.328 
L 1313.916263 639.552 
L 1314.08446 638.976 
L 1338.792637 638.016 
L 1341.147399 638.976 
L 1353.3417 637.44 
L 1353.846291 637.152 
L 1354.687278 631.968 
L 1355.023672 631.104 
L 1355.191869 629.568 
L 1355.864658 631.584 
L 1356.705645 631.008 
L 1357.042039 628.992 
L 1357.714828 631.392 
L 1358.051223 634.368 
L 1358.21942 634.08 
L 1358.387617 634.464 
L 1358.724012 630.624 
L 1359.396801 631.2 
L 1359.564998 630.816 
L 1359.733195 632.544 
L 1360.06959 632.64 
L 1360.237787 632.256 
L 1360.574182 627.168 
L 1360.910576 619.2 
L 1361.078773 621.312 
L 1361.246971 618.816 
L 1361.583365 617.952 
L 1361.751562 623.328 
L 1361.91976 621.984 
L 1362.256154 614.496 
L 1362.424351 614.496 
L 1362.592549 612.768 
L 1362.928943 586.176 
L 1363.09714 556.992 
L 1363.433535 552 
L 1363.769929 559.2 
L 1363.938127 543.264 
L 1364.106324 538.56 
L 1364.610916 626.4 
L 1364.779113 633.792 
L 1366.79748 639.168 
L 1380.421458 635.52 
L 1381.262444 637.92 
L 1381.430641 637.056 
L 1382.776219 634.752 
L 1382.944417 636 
L 1383.617206 639.072 
L 1383.9536 628.608 
L 1384.289995 633.024 
L 1384.609569 625.632 
L 1384.794586 630.912 
L 1385.130981 626.592 
L 1385.467375 615.264 
L 1385.80377 611.616 
L 1385.971967 622.464 
L 1386.140164 617.184 
L 1386.308362 617.28 
L 1386.644756 621.408 
L 1386.981151 632.064 
L 1387.149348 630.144 
L 1387.317545 624.864 
L 1387.485742 624.48 
L 1387.65394 621.6 
L 1387.822137 623.232 
L 1387.990334 620.16 
L 1392.380283 636.576 
L 1403.599039 622.56 
L 1403.935434 606.528 
L 1404.103631 608.736 
L 1404.271828 606.624 
L 1404.440026 605.952 
L 1404.77642 605.184 
L 1404.944617 609.888 
L 1405.112815 610.656 
L 1405.617407 610.56 
L 1405.785604 614.976 
L 1405.953801 613.536 
L 1406.121998 616.704 
L 1406.290196 622.176 
L 1406.62659 619.584 
L 1406.794787 620.736 
L 1406.962985 621.024 
L 1407.635774 606.048 
L 1407.803971 613.152 
L 1407.972168 615.36 
L 1408.140365 613.728 
L 1408.308563 614.208 
L 1408.981352 626.976 
L 1409.149549 625.44 
L 1409.317746 627.936 
L 1409.570042 624.096 
L 1410.32693 623.232 
L 1410.495127 616.32 
L 1410.663324 614.4 
L 1410.831521 609.216 
L 1411.167916 612.288 
L 1411.50431 610.944 
L 1411.672508 606.528 
L 1411.840705 614.976 
L 1412.008902 615.744 
L 1412.177099 620.544 
L 1412.513494 619.104 
L 1413.018086 628.032 
L 1416.43249 622.464 
L 1419.190925 630.72 
L 1432.478508 635.904 
L 1432.814903 632.64 
L 1433.151297 623.808 
L 1433.487692 607.2 
L 1433.992283 585.888 
L 1434.160481 589.152 
L 1434.328678 577.344 
L 1434.496875 573.6 
L 1434.665072 577.536 
L 1434.83327 587.904 
L 1435.001467 588.192 
L 1435.337861 581.088 
L 1435.506059 587.04 
L 1435.674256 583.968 
L 1435.842453 587.616 
L 1436.01065 598.464 
L 1436.178848 599.424 
L 1436.68344 612.384 
L 1436.851637 608.832 
L 1437.019834 608.64 
L 1437.188031 612.48 
L 1437.356229 610.176 
L 1437.692623 623.328 
L 1441.056568 631.104 
L 1441.56116 638.304 
L 1441.897554 638.784 
L 1442.233949 640.032 
L 1449.146856 623.424 
L 1449.483251 609.504 
L 1451.33342 634.656 
L 1451.501618 628.608 
L 1451.669815 633.792 
L 1451.838012 631.968 
L 1452.006209 632.64 
L 1452.174407 631.872 
L 1452.342604 631.68 
L 1452.510801 633.312 
L 1453.18359 629.184 
L 1453.688182 620.928 
L 1453.957298 604.032 
L 1454.697366 614.688 
L 1454.865563 615.168 
L 1455.201957 623.136 
L 1455.538352 620.544 
L 1455.706549 626.496 
L 1456.042944 611.712 
L 1456.211141 615.744 
L 1456.379338 613.824 
L 1456.715733 620.928 
L 1457.220324 597.888 
L 1457.388522 602.304 
L 1457.556719 595.776 
L 1457.724916 598.08 
L 1457.893113 595.488 
L 1458.061311 598.56 
L 1458.229508 589.92 
L 1458.565902 602.976 
L 1458.7341 595.104 
L 1458.902297 595.872 
L 1459.070494 588.672 
L 1459.238691 589.248 
L 1459.406889 598.656 
L 1460.079678 581.76 
L 1460.416072 585.792 
L 1460.584269 597.792 
L 1461.425256 615.456 
L 1461.76165 629.184 
L 1461.929847 631.2 
L 1462.098045 636.768 
L 1462.266242 636.48 
L 1462.602636 638.976 
L 1462.939031 639.264 
L 1463.107228 642.24 
L 1463.275426 639.36 
L 1463.443623 638.88 
L 1464.116412 637.92 
L 1466.302976 640.128 
L 1466.336616 640.032 
L 1474.325985 633.504 
L 1475.83976 636.672 
L 1476.344352 633.024 
L 1476.680747 629.76 
L 1476.848944 620.064 
L 1477.017141 619.968 
L 1477.68993 617.952 
L 1477.858128 620.064 
L 1478.026325 624 
L 1478.362719 623.424 
L 1478.699114 625.92 
L 1479.035508 626.88 
L 1479.371903 627.456 
L 1479.5401 629.952 
L 1479.708297 630.24 
L 1479.876495 636.384 
L 1480.044692 634.752 
L 1480.212889 635.04 
L 1481.558467 637.92 
L 1482.735848 633.312 
L 1483.072242 627.936 
L 1483.24044 626.592 
L 1483.576834 637.056 
L 1483.745031 640.224 
L 1484.081426 640.128 
L 1484.249623 638.592 
L 1485.090609 642.912 
L 1485.595201 641.184 
L 1489.127344 638.4 
L 1501.60758 638.496 
L 1501.775777 638.784 
L 1502.280369 638.976 
L 1503.121355 632.448 
L 1506.148906 637.248 
L 1507.326287 633.696 
L 1507.830878 636.096 
L 1508.503667 636.288 
L 1510.017443 635.712 
L 1510.690232 638.208 
L 1510.858429 637.824 
L 1511.194823 636.768 
L 1511.699415 636.576 
L 1511.867612 635.712 
L 1521.21938 638.688 
L 1521.387577 638.016 
L 1523.405944 636.384 
L 1523.910536 634.368 
L 1524.24693 632.352 
L 1524.415128 633.792 
L 1525.256114 615.648 
L 1525.424311 605.568 
L 1525.592508 605.568 
L 1525.928903 610.176 
L 1526.0971 604.608 
L 1526.769889 611.616 
L 1526.938087 605.952 
L 1527.106284 607.68 
L 1527.274481 612.384 
L 1527.442678 600.288 
L 1527.610876 601.728 
L 1527.779073 599.04 
L 1527.94727 599.712 
L 1528.115467 603.744 
L 1528.283665 616.32 
L 1528.620059 605.952 
L 1528.788256 601.824 
L 1529.107831 607.872 
L 1529.292848 598.752 
L 1529.461045 597.888 
L 1529.629243 597.696 
L 1529.79744 572.448 
L 1529.965637 583.296 
L 1530.133834 560.448 
L 1530.302032 556.416 
L 1530.470229 563.136 
L 1530.638426 550.368 
L 1530.806623 547.584 
L 1530.974821 583.584 
L 1531.479412 603.744 
L 1531.64761 604.608 
L 1531.664429 607.392 
L 1532.488596 621.216 
L 1532.656793 611.712 
L 1532.82499 612.864 
L 1533.161385 621.696 
L 1533.329582 623.808 
L 1533.497779 618.432 
L 1533.834174 623.136 
L 1534.002371 632.352 
L 1536.188936 630.432 
L 1536.357133 629.856 
L 1536.52533 627.36 
L 1536.861725 563.616 
L 1537.181299 581.088 
L 1537.366316 608.544 
L 1537.534514 612.384 
L 1537.702711 580.608 
L 1538.039105 564.384 
L 1538.207303 596.448 
L 1538.3755 606.72 
L 1538.543697 607.008 
L 1538.880092 616.512 
L 1539.552881 619.104 
L 1540.057472 623.808 
L 1540.22567 624.768 
L 1540.393867 628.224 
L 1544.766996 631.872 
L 1545.10339 627.552 
L 1545.473424 584.544 
L 1545.641621 597.6 
L 1545.809819 590.112 
L 1545.978016 590.208 
L 1546.146213 589.056 
L 1546.482608 552.96 
L 1546.650805 547.488 
L 1546.819002 547.104 
L 1546.987199 516.192 
L 1547.155397 527.136 
L 1547.323594 492.384 
L 1547.491791 486.72 
L 1547.659988 499.104 
L 1547.828186 476.448 
L 1547.996383 424.8 
L 1548.500975 470.112 
L 1548.837369 456.672 
L 1549.005566 471.264 
L 1549.173764 469.344 
L 1549.341961 465.504 
L 1549.510158 469.152 
L 1549.678355 443.136 
L 1550.01475 468.672 
L 1550.182947 477.6 
L 1550.351144 578.208 
L 1550.687539 548.352 
L 1551.023933 583.488 
L 1551.192131 582.816 
L 1551.360328 591.168 
L 1551.86492 624.096 
L 1552.033117 625.248 
L 1552.201314 628.512 
L 1552.369511 626.592 
L 1552.874103 628.224 
L 1553.210498 632.928 
L 1553.883287 604.032 
L 1554.051484 600 
L 1554.404698 577.056 
L 1555.228865 558.624 
L 1555.565259 562.464 
L 1555.733457 551.808 
L 1555.901654 554.88 
L 1556.069851 560.448 
L 1556.238048 552.096 
L 1556.406246 555.552 
L 1556.574443 554.688 
L 1556.910837 585.792 
L 1557.079035 593.376 
L 1557.247232 591.744 
L 1557.583626 603.36 
L 1557.751824 599.328 
L 1557.920021 607.68 
L 1558.088218 609.312 
L 1558.59281 629.664 
L 1558.761007 631.392 
L 1560.358881 626.88 
L 1560.712095 430.272 
L 1560.880293 437.76 
L 1561.216687 637.632 
L 1562.394068 636.288 
L 1570.131142 624.48 
L 1570.299339 619.2 
L 1575.008862 631.488 
L 1575.345257 621.888 
L 1575.849848 618.528 
L 1576.018046 620.832 
L 1576.186243 617.568 
L 1576.35444 625.056 
L 1576.522637 625.536 
L 1576.859032 624.96 
L 1577.195426 632.448 
L 1577.363624 630.816 
L 1577.700018 621.504 
L 1577.868215 621.216 
L 1578.372807 601.152 
L 1578.541004 586.08 
L 1578.709202 588.672 
L 1578.978317 596.352 
L 1579.718385 549.024 
L 1579.886582 563.52 
L 1580.05478 524.544 
L 1580.222977 546.24 
L 1580.391174 532.608 
L 1580.559371 530.88 
L 1580.727569 515.616 
L 1581.23216 545.856 
L 1581.568555 576.768 
L 1581.719932 580.608 
L 1581.904949 580.32 
L 1582.073147 591.744 
L 1582.241344 583.296 
L 1582.577738 607.296 
L 1583.08233 629.472 
L 1583.250528 626.592 
L 1583.418725 631.392 
L 1583.586922 631.68 
L 1583.755119 629.568 
L 1584.007415 630.048 
L 1584.680204 601.248 
L 1584.848401 580.032 
L 1585.016599 587.136 
L 1585.184796 587.52 
L 1585.52119 615.36 
L 1585.857585 630.624 
L 1589.389727 634.56 
L 1594.435645 630.144 
L 1594.772039 608.352 
L 1594.940237 608.064 
L 1595.276631 595.392 
L 1595.444828 578.304 
L 1595.613026 573.216 
L 1596.117618 530.784 
L 1596.285815 537.216 
L 1596.790407 490.848 
L 1596.958604 487.488 
L 1597.126801 509.568 
L 1597.294998 549.12 
L 1597.463196 539.04 
L 1597.631393 545.376 
L 1597.967787 584.832 
L 1598.135985 587.232 
L 1598.472379 618.528 
L 1598.808774 600.672 
L 1598.976971 603.36 
L 1599.145168 595.968 
L 1599.313365 604.32 
L 1599.64976 608.832 
L 1599.986154 603.552 
L 1600.322549 607.776 
L 1600.490746 609.12 
L 1600.827141 607.968 
L 1600.995338 609.312 
L 1601.163535 606.432 
L 1601.365372 608.832 
L 1602.172719 596.832 
L 1602.340916 586.56 
L 1602.509113 592.992 
L 1602.67731 590.4 
L 1603.013705 551.712 
L 1603.350099 539.232 
L 1603.518297 523.008 
L 1603.686494 520.32 
L 1603.703314 516.096 
L 1604.174266 568.416 
L 1604.342463 552.768 
L 1604.678858 473.088 
L 1604.847055 478.944 
L 1605.015252 482.88 
L 1605.200269 466.272 
L 1605.351647 508.896 
L 1605.519844 521.376 
L 1605.553484 533.088 
L 1606.276732 601.728 
L 1606.697225 586.752 
L 1606.865422 594.912 
L 1607.033619 597.312 
L 1607.201817 618.528 
L 1608.81651 625.728 
L 1608.984708 620.16 
L 1609.152905 619.776 
L 1609.489299 630.048 
L 1609.657497 630.144 
L 1610.498483 632.352 
L 1610.66668 633.792 
L 1611.339469 633.6 
L 1611.844061 627.456 
L 1612.012258 631.488 
L 1613.542853 638.976 
L 1615.729417 641.664 
L 1616.570404 640.416 
L 1616.738601 639.552 
L 1617.243193 637.728 
L 1617.579587 638.112 
L 1619.934349 636.384 
L 1620.438941 638.4 
L 1620.943532 636.288 
L 1621.11173 637.056 
L 1621.448124 635.424 
L 1621.784519 634.56 
L 1622.120913 634.752 
L 1622.625505 633.6 
L 1622.793702 631.872 
L 1622.961899 633.12 
L 1623.298294 633.504 
L 1623.466491 633.888 
L 1623.802886 632.448 
L 1624.13928 634.272 
L 1624.307477 632.064 
L 1624.475675 633.696 
L 1624.643872 632.832 
L 1625.148464 634.176 
L 1625.316661 636.288 
L 1625.653055 636.096 
L 1625.821253 634.08 
L 1625.98945 636.192 
L 1626.325845 636.288 
L 1626.662239 625.824 
L 1628.007817 636.96 
L 1628.176014 624.768 
L 1628.512409 634.752 
L 1629.017001 637.152 
L 1629.353395 635.04 
L 1629.521592 634.848 
L 1630.026184 637.728 
L 1631.203565 635.904 
L 1631.539959 640.8 
L 1631.708157 641.28 
L 1631.876354 639.552 
L 1632.212748 640.224 
L 1632.380946 639.936 
L 1632.549143 640.608 
L 1632.71734 640.128 
L 1633.221932 641.568 
L 1636.182204 640.8 
L 1642.741897 642.336 
L 1642.910094 643.104 
L 1643.078291 642.912 
L 1643.246488 641.952 
L 1645.60125 635.232 
L 1648.763358 636.96 
L 1650.613528 638.208 
L 1660.032574 639.168 
L 1660.200772 639.552 
L 1660.873561 636.672 
L 1661.378152 637.536 
L 1662.050941 637.536 
L 1662.72373 639.072 
L 1663.413339 638.976 
L 1664.758917 638.976 
L 1664.927115 646.656 
L 1665.095312 639.072 
L 1665.599904 639.744 
L 1666.272693 643.008 
L 1667.113679 644.928 
L 1667.281876 644.832 
L 1667.618271 642.24 
L 1675.927215 638.88 
L 1676.768201 638.688 
L 1686.355445 639.072 
L 1687.86922 640.992 
L 1689.046601 638.88 
L 1689.214798 639.168 
L 1689.551193 638.4 
L 1691.737757 638.784 
L 1692.746941 641.088 
L 1693.587927 635.136 
L 1694.092519 635.328 
L 1694.428913 634.56 
L 1694.59711 634.944 
L 1694.765308 634.656 
L 1695.101702 634.752 
L 1695.606294 634.08 
L 1695.942688 635.616 
L 1696.279083 634.272 
L 1696.615477 636.096 
L 1697.120069 634.752 
L 1697.338726 634.848 
L 1697.67512 633.888 
L 1697.843317 634.368 
L 1698.011515 634.368 
L 1698.179712 633.792 
L 1698.347909 634.656 
L 1698.684304 634.08 
L 1698.852501 633.792 
L 1699.020698 636 
L 1699.188895 635.712 
L 1699.357093 636.192 
L 1699.693487 634.656 
L 1700.198079 636 
L 1700.366276 636 
L 1700.534473 634.656 
L 1700.870868 635.424 
L 1701.039065 634.848 
L 1701.711854 637.152 
L 1702.216446 634.944 
L 1702.721038 634.272 
L 1702.889235 633.216 
L 1703.225629 632.832 
L 1703.562024 635.52 
L 1703.662942 636.096 
L 1709.600305 646.944 
L 1710.441292 641.568 
L 1710.609489 641.28 
L 1710.777686 638.688 
L 1711.618673 640.512 
L 1712.123264 643.776 
L 1713.132448 646.848 
L 1713.300645 644.736 
L 1713.468842 645.024 
L 1720.264011 640.128 
L 1720.398569 641.952 
L 1720.566766 641.664 
L 1722.080542 637.056 
L 1722.299198 634.944 
L 1722.955167 634.752 
L 1723.123365 633.888 
L 1723.291562 634.848 
L 1723.796154 631.968 
L 1723.964351 634.08 
L 1724.132548 632.928 
L 1724.300746 627.648 
L 1724.63714 623.136 
L 1724.973535 631.68 
L 1725.141732 627.264 
L 1725.478126 629.664 
L 1725.646324 633.696 
L 1726.150915 629.28 
L 1726.319113 631.104 
L 1726.655507 630.528 
L 1726.823704 633.216 
L 1726.991902 632.352 
L 1727.160099 626.4 
L 1727.328296 625.536 
L 1727.664691 630.72 
L 1727.832888 630.912 
L 1728.001085 633.984 
L 1729.178466 637.536 
L 1729.683058 636.864 
L 1729.851255 638.112 
L 1731.196833 634.176 
L 1732.206017 630.72 
L 1732.374214 632.736 
L 1732.542411 630.912 
L 1732.878806 633.792 
L 1733.383397 637.152 
L 1733.719792 638.112 
L 1734.560778 642.528 
L 1734.897173 642.432 
L 1735.233567 636.48 
L 1735.401764 636.384 
L 1735.738159 638.784 
L 1735.906356 638.304 
L 1736.579145 638.496 
L 1737.083737 639.168 
L 1737.420131 644.64 
L 1737.588329 645.024 
L 1737.756526 646.752 
L 1738.09292 646.848 
L 1740.447682 638.112 
L 1744.518056 637.536 
L 1744.85445 638.784 
L 1745.022647 638.976 
L 1746.368225 634.656 
L 1747.528786 638.304 
L 1748.050198 632.64 
L 1748.201575 628.896 
L 1748.53797 626.88 
L 1748.722987 613.632 
L 1748.891184 613.536 
L 1749.059381 603.936 
L 1749.227579 605.472 
L 1749.395776 602.208 
L 1749.547154 617.856 
L 1749.900368 606.912 
L 1750.38814 634.08 
L 1750.573157 631.2 
L 1750.741354 631.2 
L 1751.060929 631.584 
L 1751.229126 630.528 
L 1751.58234 634.176 
L 1751.901915 628.128 
L 1752.255129 633.984 
L 1752.423327 636 
L 1756.106846 638.496 
L 1756.947833 638.688 
L 1757.284227 640.032 
L 1757.620622 639.36 
L 1757.788819 639.36 
L 1758.293411 643.2 
L 1758.461608 639.072 
L 1758.629805 639.264 
L 1758.9662 646.176 
L 1759.134397 646.176 
L 1759.302594 639.264 
L 1759.470792 642.72 
L 1759.975383 643.296 
L 1760.143581 642.912 
L 1760.479975 643.008 
L 1760.664992 642.816 
L 1761.152764 642.912 
L 1761.320961 639.84 
L 1761.489159 643.104 
L 1761.657356 642.912 
L 1761.825553 646.272 
L 1761.99375 642.624 
L 1762.161948 642.816 
L 1762.666539 647.04 
L 1762.834737 647.136 
L 1766.703274 636.864 
L 1766.871471 638.4 
L 1767.207865 636.672 
L 1769.629906 636.768 
L 1771.984667 635.616 
L 1772.152865 632.736 
L 1772.321062 631.776 
L 1773.162048 609.12 
L 1773.330245 610.848 
L 1773.498443 604.8 
L 1773.66664 606.336 
L 1774.003034 624.576 
L 1774.171232 625.152 
L 1774.507626 629.76 
L 1775.012218 626.688 
L 1775.51681 635.232 
L 1776.021401 634.464 
L 1776.357796 632.928 
L 1776.525993 630.624 
L 1776.69419 587.808 
L 1776.862388 634.368 
L 1777.703374 634.848 
L 1778.039769 633.6 
L 1780.226333 577.824 
L 1780.562727 203.52 
L 1780.646826 210.048 
L 1781.571911 178.464 
L 1781.773748 185.952 
L 1786.449631 638.016 
L 1786.954223 637.92 
L 1789.477182 637.728 
L 1789.645379 637.344 
L 1789.981774 638.592 
L 1790.149971 636.576 
L 1790.654563 636.672 
L 1790.990957 633.792 
L 1791.327352 632.448 
L 1791.663746 612.384 
L 1792.000141 633.792 
L 1792.168338 633.984 
L 1792.504732 631.2 
L 1792.67293 626.592 
L 1792.942045 632.448 
L 1793.110243 632.736 
L 1793.27844 628.128 
L 1793.446637 633.024 
L 1793.614834 632.16 
L 1793.783032 632.352 
L 1793.951229 629.28 
L 1794.119426 633.024 
L 1794.287623 629.28 
L 1794.455821 633.216 
L 1794.960412 633.696 
L 1795.12861 633.312 
L 1795.465004 636.672 
L 1795.633201 635.232 
L 1795.801399 631.872 
L 1795.969596 633.408 
L 1796.137793 633.6 
L 1796.30599 633.984 
L 1796.474188 632.256 
L 1796.642385 633.024 
L 1796.810582 632.832 
L 1796.978779 630.336 
L 1797.146977 624.096 
L 1797.315174 625.728 
L 1797.483371 625.44 
L 1797.651568 625.44 
L 1797.819766 623.712 
L 1798.15616 618.24 
L 1798.492555 614.304 
L 1798.660752 616.032 
L 1798.828949 616.416 
L 1799.165344 620.736 
L 1799.333541 620.736 
L 1799.669935 634.08 
L 1799.838133 629.184 
L 1800.174527 632.064 
L 1800.342725 628.896 
L 1800.510922 629.088 
L 1800.679119 635.424 
L 1800.729578 635.136 
L 1800.897775 635.136 
L 1801.065973 640.416 
L 1801.23417 640.608 
L 1801.402367 638.88 
L 1801.570564 639.648 
L 1801.738762 638.112 
L 1802.075156 639.84 
L 1802.243353 638.976 
L 1802.411551 636.96 
L 1802.579748 641.28 
L 1802.747945 640.992 
L 1804.766312 632.352 
L 1805.270904 619.008 
L 1805.775496 636.096 
L 1805.943693 633.12 
L 1806.280088 633.216 
L 1806.448285 633.024 
L 1806.784679 636.864 
L 1807.289271 382.176 
L 1807.457468 389.088 
L 1807.793863 376.032 
L 1807.928421 385.92 
L 1808.298455 283.296 
L 1808.483472 278.112 
L 1812.839781 642.144 
L 1813.007978 638.208 
L 1813.51257 637.824 
L 1814.353556 635.04 
L 1815.699134 637.44 
L 1815.867331 637.248 
L 1816.203726 637.632 
L 1819.651769 636.672 
L 1819.988164 636.96 
L 1820.156361 637.824 
L 1820.492756 635.328 
L 1821.670136 635.712 
L 1822.006531 636.576 
L 1822.174728 635.328 
L 1822.511123 637.248 
L 1825.202279 634.944 
L 1827.220646 637.344 
L 1829.239013 637.632 
L 1829.743605 639.456 
L 1830.416394 636.576 
L 1830.752788 637.056 
L 1830.920985 637.152 
L 1831.25738 640.512 
L 1831.425577 640.416 
L 1831.593774 637.824 
L 1831.761972 638.016 
L 1831.930169 637.632 
L 1832.939353 638.88 
L 1833.275747 638.304 
L 1833.948536 638.592 
L 1834.284931 639.168 
L 1834.453128 646.56 
L 1834.621325 638.592 
L 1834.789522 638.784 
L 1834.95772 638.4 
L 1835.125917 640.032 
L 1835.294114 639.936 
L 1835.462311 639.648 
L 1835.798706 642.72 
L 1836.1351 644.352 
L 1836.807889 644.736 
L 1837.144284 642.144 
L 1837.312481 642.528 
L 1837.480678 638.784 
L 1837.648876 638.688 
L 1837.817073 638.88 
L 1837.98527 638.496 
L 1838.321665 638.592 
L 1838.994454 637.44 
L 1839.162651 638.016 
L 1839.667243 638.208 
L 1839.83544 637.92 
L 1841.853807 636.576 
L 1842.190202 636.096 
L 1842.694793 631.008 
L 1843.367582 637.152 
L 1844.074011 638.4 
L 1845.251392 635.52 
L 1845.587786 638.4 
L 1845.755983 635.808 
L 1846.260575 634.944 
L 1846.428772 637.344 
L 1846.765167 635.616 
L 1846.933364 635.808 
L 1847.437956 637.728 
L 1848.951731 638.016 
L 1849.119928 636.288 
L 1849.960915 638.688 
L 1850.129112 636.192 
L 1850.297309 637.056 
L 1850.465507 636.864 
L 1853.493057 638.496 
L 1855.006832 638.4 
L 1855.511424 637.536 
L 1857.361594 638.208 
L 1858.034383 637.536 
L 1859.716356 637.44 
L 1859.884553 638.592 
L 1860.220947 638.688 
L 1860.389145 638.4 
L 1861.90292 638.208 
L 1862.071117 637.824 
L 1863.416695 633.12 
L 1863.921287 631.584 
L 1864.257681 631.392 
L 1864.425879 628.704 
L 1864.594076 632.352 
L 1864.762273 631.872 
L 1865.266865 633.12 
L 1865.435062 632.832 
L 1865.771457 631.968 
L 1865.939654 633.504 
L 1866.107851 631.68 
L 1866.276048 632.544 
L 1866.444246 630.144 
L 1866.612443 631.488 
L 1866.78064 629.376 
L 1866.948837 615.264 
L 1867.117035 632.064 
L 1867.285232 631.392 
L 1867.453429 630.048 
L 1867.789824 632.064 
L 1867.958021 630.912 
L 1868.126218 632.832 
L 1868.294416 631.296 
L 1868.580351 634.944 
L 1868.748548 634.56 
L 1868.916745 633.12 
L 1869.084943 629.76 
L 1869.421337 631.296 
L 1869.757732 634.56 
L 1869.925929 629.088 
L 1870.094126 629.472 
L 1870.262323 631.296 
L 1870.430521 630.816 
L 1870.766915 633.312 
L 1870.935112 623.424 
L 1871.10331 620.64 
L 1871.439704 633.984 
L 1871.607901 634.368 
L 1871.776099 632.544 
L 1871.944296 632.928 
L 1872.112493 632.256 
L 1872.28069 635.424 
L 1872.617085 630.912 
L 1872.785282 631.776 
L 1873.121677 636.096 
L 1873.626269 636.48 
L 1874.299058 637.248 
L 1875.308241 639.264 
L 1875.812833 636.192 
L 1876.990214 635.904 
L 1877.326608 628.992 
L 1882.70892 635.52 
L 1883.549907 634.752 
L 1885.063682 634.272 
L 1885.736471 633.888 
L 1886.072865 634.944 
L 1886.241063 634.56 
L 1886.577457 635.808 
L 1886.745654 635.424 
L 1887.082049 633.888 
L 1887.250246 635.52 
L 1887.418443 636 
L 1888.595824 634.56 
L 1888.764021 634.08 
L 1889.268613 635.04 
L 1889.43681 493.248 
L 1889.605008 481.152 
L 1889.773205 641.28 
L 1889.941402 637.536 
L 1890.277797 635.232 
L 1890.950586 634.464 
L 1891.28698 635.136 
L 1891.455178 634.08 
L 1891.791572 635.424 
L 1892.296164 634.464 
L 1892.464361 629.28 
L 1892.800756 635.424 
L 1892.968953 635.04 
L 1893.13715 633.792 
L 1893.288528 633.984 
L 1893.456725 633.216 
L 1893.624922 633.888 
L 1893.793119 633.888 
L 1893.961317 629.088 
L 1894.129514 627.744 
L 1894.297711 628.608 
L 1894.634106 634.272 
L 1894.9705 635.808 
L 1895.020959 635.712 
L 1895.643289 631.68 
L 1895.979684 632.64 
L 1896.147881 634.176 
L 1896.316078 632.928 
L 1896.484275 633.024 
L 1896.652473 633.696 
L 1897.157064 632.352 
L 1897.325262 634.56 
L 1897.661656 636.48 
L 1898.166248 636.96 
L 1899.175432 636.384 
L 1899.511826 637.152 
L 1899.680023 636.864 
L 1899.848221 638.304 
L 1900.352812 638.112 
L 1901.025601 637.632 
L 1901.193799 637.248 
L 1901.69839 637.728 
L 1904.894138 637.824 
L 1906.407914 637.248 
L 1906.912505 636 
L 1907.585294 638.112 
L 1907.753492 637.92 
L 1909.435464 635.616 
L 1909.940056 637.344 
L 1911.117437 634.464 
L 1911.622028 636.864 
L 1911.790226 637.056 
L 1912.294817 631.968 
L 1912.463015 634.656 
L 1913.135804 636.768 
L 1913.808593 634.752 
L 1913.97679 635.328 
L 1914.144987 638.112 
L 1914.649579 635.808 
L 1915.322368 632.832 
L 1915.490565 636.864 
L 1915.658763 636 
L 1915.995157 636.48 
L 1916.331552 631.488 
L 1916.499749 631.68 
L 1916.836143 627.264 
L 1917.004341 630.432 
L 1917.172538 631.008 
L 1917.340735 630.24 
L 1917.508932 626.496 
L 1917.67713 620.256 
L 1917.845327 619.488 
L 1918.114442 624.384 
L 1918.28264 624.576 
L 1918.450837 627.456 
L 1918.619034 625.632 
L 1918.787231 630.624 
L 1918.955429 629.376 
L 1919.123626 630.624 
L 1919.628218 628.032 
L 1919.964612 632.064 
L 1920.13281 632.064 
L 1920.301007 629.472 
L 1920.637401 633.888 
L 1920.973796 630.816 
L 1921.141993 632.16 
L 1921.31019 631.968 
L 1921.478388 629.664 
L 1921.646585 634.56 
L 1921.814782 631.2 
L 1921.982979 634.272 
L 1922.151177 630.336 
L 1922.319374 631.776 
L 1922.487571 635.904 
L 1922.823966 636.192 
L 1923.16036 635.616 
L 1923.328557 636.384 
L 1923.496755 636.288 
L 1923.833149 636.768 
L 1924.001346 637.728 
L 1924.169544 637.632 
L 1924.505938 638.688 
L 1925.01053 637.824 
L 1925.178727 638.496 
L 1925.346924 637.056 
L 1925.817877 636.48 
L 1926.356108 603.072 
L 1926.692502 602.496 
L 1926.8607 626.976 
L 1927.028897 626.304 
L 1927.365291 597.984 
L 1927.533489 597.408 
L 1927.634407 589.536 
L 1928.038081 626.208 
L 1928.542672 618.912 
L 1928.862247 633.312 
L 1932.747604 637.92 
L 1933.252195 636.96 
L 1933.58859 637.536 
L 1934.093182 636.672 
L 1934.429576 637.728 
L 1934.934168 638.208 
L 1935.102365 637.632 
L 1935.606957 636.864 
L 1935.775154 637.248 
L 1935.943351 637.056 
L 1936.279746 637.44 
L 1936.616141 638.016 
L 1936.784338 637.344 
L 1936.952535 638.304 
L 1937.120732 637.92 
L 1937.28893 638.016 
L 1937.961719 636.96 
L 1938.129916 637.44 
L 1938.46631 636.096 
L 1938.970902 637.344 
L 1939.139099 634.944 
L 1939.475494 636.384 
L 1939.643691 635.424 
L 1939.811888 635.616 
L 1939.980086 636.576 
L 1940.148283 635.136 
L 1940.31648 634.848 
L 1940.484677 636.672 
L 1940.652875 637.056 
L 1940.821072 636.192 
L 1940.989269 636.096 
L 1941.157466 635.328 
L 1941.325664 630.336 
L 1941.662058 627.936 
L 1941.830255 623.904 
L 1941.998453 624.48 
L 1942.16665 627.36 
L 1942.334847 623.808 
L 1942.385306 618.816 
L 1942.721701 629.856 
L 1942.889898 629.376 
L 1943.058095 624.48 
L 1943.226293 609.984 
L 1943.39449 611.04 
L 1943.663605 621.984 
L 1943.831803 618.432 
L 1944 618.72 
L 1944 618.72 
" style="fill:none;stroke:#0000ff;stroke-linecap:square;"/>
   </g>
   <g id="line2d_2">
    <defs>
     <path d="M 0 3 
C 0.795609 3 1.55874 2.683901 2.12132 2.12132 
C 2.683901 1.55874 3 0.795609 3 0 
C 3 -0.795609 2.683901 -1.55874 2.12132 -2.12132 
C 1.55874 -2.683901 0.795609 -3 0 -3 
C -0.795609 -3 -1.55874 -2.683901 -2.12132 -2.12132 
C -2.683901 -1.55874 -3 -0.795609 -3 0 
C -3 0.795609 -2.683901 1.55874 -2.12132 2.12132 
C -1.55874 2.683901 -0.795609 3 0 3 
z
" id="m0afe7f8968" style="stroke:#000000;stroke-width:0.5;"/>
    </defs>
    <g clip-path="url(#p69ffad842d)">
     <use style="fill:#ff0000;stroke:#000000;stroke-width:0.5;" x="574.285654001" xlink:href="#m0afe7f8968" y="373.632"/>
     <use style="fill:#ff0000;stroke:#000000;stroke-width:0.5;" x="752.473825935" xlink:href="#m0afe7f8968" y="455.712"/>
     <use style="fill:#ff0000;stroke:#000000;stroke-width:0.5;" x="1216.64779053" xlink:href="#m0afe7f8968" y="162.336"/>
     <use style="fill:#ff0000;stroke:#000000;stroke-width:0.5;" x="1547.32359384" xlink:href="#m0afe7f8968" y="492.384"/>
     <use style="fill:#ff0000;stroke:#000000;stroke-width:0.5;" x="1597.12680104" xlink:href="#m0afe7f8968" y="509.568"/>
     <use style="fill:#ff0000;stroke:#000000;stroke-width:0.5;" x="1780.56272733" xlink:href="#m0afe7f8968" y="203.52"/>
     <use style="fill:#ff0000;stroke:#000000;stroke-width:0.5;" x="1808.29845468" xlink:href="#m0afe7f8968" y="283.296"/>
    </g>
   </g>
   <g id="patch_3">
    <path d="M 270 72 
L 1944 72 
" style="fill:none;stroke:#000000;stroke-linecap:square;stroke-linejoin:miter;"/>
   </g>
   <g id="patch_4">
    <path d="M 1944 648 
L 1944 72 
" style="fill:none;stroke:#000000;stroke-linecap:square;stroke-linejoin:miter;"/>
   </g>
   <g id="patch_5">
    <path d="M 270 648 
L 1944 648 
" style="fill:none;stroke:#000000;stroke-linecap:square;stroke-linejoin:miter;"/>
   </g>
   <g id="patch_6">
    <path d="M 270 648 
L 270 72 
" style="fill:none;stroke:#000000;stroke-linecap:square;stroke-linejoin:miter;"/>
   </g>
   <g id="matplotlib.axis_1">
    <g id="xtick_1">
     <g id="line2d_3">
      <defs>
       <path d="M 0 0 
L 0 -4 
" id="mf02ddc81dd" style="stroke:#000000;stroke-width:0.5;"/>
      </defs>
      <g>
       <use style="stroke:#000000;stroke-width:0.5;" x="303.908566605" xlink:href="#mf02ddc81dd" y="648.0"/>
      </g>
     </g>
     <g id="line2d_4">
      <defs>
       <path d="M 0 0 
L 0 4 
" id="m3c9dbfb5db" style="stroke:#000000;stroke-width:0.5;"/>
      </defs>
      <g>
       <use style="stroke:#000000;stroke-width:0.5;" x="303.908566605" xlink:href="#m3c9dbfb5db" y="72.0"/>
      </g>
     </g>
     <g id="text_1">
      <!-- Jul 12 2015 -->
      <defs>
       <path d="M 19.1875 8.296875 
L 53.609375 8.296875 
L 53.609375 0 
L 7.328125 0 
L 7.328125 8.296875 
Q 12.9375 14.109375 22.625 23.890625 
Q 32.328125 33.6875 34.8125 36.53125 
Q 39.546875 41.84375 41.421875 45.53125 
Q 43.3125 49.21875 43.3125 52.78125 
Q 43.3125 58.59375 39.234375 62.25 
Q 35.15625 65.921875 28.609375 65.921875 
Q 23.96875 65.921875 18.8125 64.3125 
Q 13.671875 62.703125 7.8125 59.421875 
L 7.8125 69.390625 
Q 13.765625 71.78125 18.9375 73 
Q 24.125 74.21875 28.421875 74.21875 
Q 39.75 74.21875 46.484375 68.546875 
Q 53.21875 62.890625 53.21875 53.421875 
Q 53.21875 48.921875 51.53125 44.890625 
Q 49.859375 40.875 45.40625 35.40625 
Q 44.1875 33.984375 37.640625 27.21875 
Q 31.109375 20.453125 19.1875 8.296875 
" id="BitstreamVeraSans-Roman-32"/>
       <path id="BitstreamVeraSans-Roman-20"/>
       <path d="M 31.78125 66.40625 
Q 24.171875 66.40625 20.328125 58.90625 
Q 16.5 51.421875 16.5 36.375 
Q 16.5 21.390625 20.328125 13.890625 
Q 24.171875 6.390625 31.78125 6.390625 
Q 39.453125 6.390625 43.28125 13.890625 
Q 47.125 21.390625 47.125 36.375 
Q 47.125 51.421875 43.28125 58.90625 
Q 39.453125 66.40625 31.78125 66.40625 
M 31.78125 74.21875 
Q 44.046875 74.21875 50.515625 64.515625 
Q 56.984375 54.828125 56.984375 36.375 
Q 56.984375 17.96875 50.515625 8.265625 
Q 44.046875 -1.421875 31.78125 -1.421875 
Q 19.53125 -1.421875 13.0625 8.265625 
Q 6.59375 17.96875 6.59375 36.375 
Q 6.59375 54.828125 13.0625 64.515625 
Q 19.53125 74.21875 31.78125 74.21875 
" id="BitstreamVeraSans-Roman-30"/>
       <path d="M 12.40625 8.296875 
L 28.515625 8.296875 
L 28.515625 63.921875 
L 10.984375 60.40625 
L 10.984375 69.390625 
L 28.421875 72.90625 
L 38.28125 72.90625 
L 38.28125 8.296875 
L 54.390625 8.296875 
L 54.390625 0 
L 12.40625 0 
z
" id="BitstreamVeraSans-Roman-31"/>
       <path d="M 9.8125 72.90625 
L 19.671875 72.90625 
L 19.671875 5.078125 
Q 19.671875 -8.109375 14.671875 -14.0625 
Q 9.671875 -20.015625 -1.421875 -20.015625 
L -5.171875 -20.015625 
L -5.171875 -11.71875 
L -2.09375 -11.71875 
Q 4.4375 -11.71875 7.125 -8.046875 
Q 9.8125 -4.390625 9.8125 5.078125 
z
" id="BitstreamVeraSans-Roman-4a"/>
       <path d="M 10.796875 72.90625 
L 49.515625 72.90625 
L 49.515625 64.59375 
L 19.828125 64.59375 
L 19.828125 46.734375 
Q 21.96875 47.46875 24.109375 47.828125 
Q 26.265625 48.1875 28.421875 48.1875 
Q 40.625 48.1875 47.75 41.5 
Q 54.890625 34.8125 54.890625 23.390625 
Q 54.890625 11.625 47.5625 5.09375 
Q 40.234375 -1.421875 26.90625 -1.421875 
Q 22.3125 -1.421875 17.546875 -0.640625 
Q 12.796875 0.140625 7.71875 1.703125 
L 7.71875 11.625 
Q 12.109375 9.234375 16.796875 8.0625 
Q 21.484375 6.890625 26.703125 6.890625 
Q 35.15625 6.890625 40.078125 11.328125 
Q 45.015625 15.765625 45.015625 23.390625 
Q 45.015625 31 40.078125 35.4375 
Q 35.15625 39.890625 26.703125 39.890625 
Q 22.75 39.890625 18.8125 39.015625 
Q 14.890625 38.140625 10.796875 36.28125 
z
" id="BitstreamVeraSans-Roman-35"/>
       <path d="M 9.421875 75.984375 
L 18.40625 75.984375 
L 18.40625 0 
L 9.421875 0 
z
" id="BitstreamVeraSans-Roman-6c"/>
       <path d="M 8.5 21.578125 
L 8.5 54.6875 
L 17.484375 54.6875 
L 17.484375 21.921875 
Q 17.484375 14.15625 20.5 10.265625 
Q 23.53125 6.390625 29.59375 6.390625 
Q 36.859375 6.390625 41.078125 11.03125 
Q 45.3125 15.671875 45.3125 23.6875 
L 45.3125 54.6875 
L 54.296875 54.6875 
L 54.296875 0 
L 45.3125 0 
L 45.3125 8.40625 
Q 42.046875 3.421875 37.71875 1 
Q 33.40625 -1.421875 27.6875 -1.421875 
Q 18.265625 -1.421875 13.375 4.4375 
Q 8.5 10.296875 8.5 21.578125 
" id="BitstreamVeraSans-Roman-75"/>
      </defs>
      <g transform="translate(269.950441605 661.118125)scale(0.12 -0.12)">
       <use xlink:href="#BitstreamVeraSans-Roman-4a"/>
       <use x="29.4921875" xlink:href="#BitstreamVeraSans-Roman-75"/>
       <use x="92.87109375" xlink:href="#BitstreamVeraSans-Roman-6c"/>
       <use x="120.654296875" xlink:href="#BitstreamVeraSans-Roman-20"/>
       <use x="152.44140625" xlink:href="#BitstreamVeraSans-Roman-31"/>
       <use x="216.064453125" xlink:href="#BitstreamVeraSans-Roman-32"/>
       <use x="279.6875" xlink:href="#BitstreamVeraSans-Roman-20"/>
       <use x="311.474609375" xlink:href="#BitstreamVeraSans-Roman-32"/>
       <use x="375.09765625" xlink:href="#BitstreamVeraSans-Roman-30"/>
       <use x="438.720703125" xlink:href="#BitstreamVeraSans-Roman-31"/>
       <use x="502.34375" xlink:href="#BitstreamVeraSans-Roman-35"/>
      </g>
     </g>
    </g>
    <g id="xtick_2">
     <g id="line2d_5">
      <g>
       <use style="stroke:#000000;stroke-width:0.5;" x="473.451399636" xlink:href="#mf02ddc81dd" y="648.0"/>
      </g>
     </g>
     <g id="line2d_6">
      <g>
       <use style="stroke:#000000;stroke-width:0.5;" x="473.451399636" xlink:href="#m3c9dbfb5db" y="72.0"/>
      </g>
     </g>
     <g id="text_2">
      <!-- Jul 19 2015 -->
      <defs>
       <path d="M 10.984375 1.515625 
L 10.984375 10.5 
Q 14.703125 8.734375 18.5 7.8125 
Q 22.3125 6.890625 25.984375 6.890625 
Q 35.75 6.890625 40.890625 13.453125 
Q 46.046875 20.015625 46.78125 33.40625 
Q 43.953125 29.203125 39.59375 26.953125 
Q 35.25 24.703125 29.984375 24.703125 
Q 19.046875 24.703125 12.671875 31.3125 
Q 6.296875 37.9375 6.296875 49.421875 
Q 6.296875 60.640625 12.9375 67.421875 
Q 19.578125 74.21875 30.609375 74.21875 
Q 43.265625 74.21875 49.921875 64.515625 
Q 56.59375 54.828125 56.59375 36.375 
Q 56.59375 19.140625 48.40625 8.859375 
Q 40.234375 -1.421875 26.421875 -1.421875 
Q 22.703125 -1.421875 18.890625 -0.6875 
Q 15.09375 0.046875 10.984375 1.515625 
M 30.609375 32.421875 
Q 37.25 32.421875 41.125 36.953125 
Q 45.015625 41.5 45.015625 49.421875 
Q 45.015625 57.28125 41.125 61.84375 
Q 37.25 66.40625 30.609375 66.40625 
Q 23.96875 66.40625 20.09375 61.84375 
Q 16.21875 57.28125 16.21875 49.421875 
Q 16.21875 41.5 20.09375 36.953125 
Q 23.96875 32.421875 30.609375 32.421875 
" id="BitstreamVeraSans-Roman-39"/>
      </defs>
      <g transform="translate(439.493274636 661.118125)scale(0.12 -0.12)">
       <use xlink:href="#BitstreamVeraSans-Roman-4a"/>
       <use x="29.4921875" xlink:href="#BitstreamVeraSans-Roman-75"/>
       <use x="92.87109375" xlink:href="#BitstreamVeraSans-Roman-6c"/>
       <use x="120.654296875" xlink:href="#BitstreamVeraSans-Roman-20"/>
       <use x="152.44140625" xlink:href="#BitstreamVeraSans-Roman-31"/>
       <use x="216.064453125" xlink:href="#BitstreamVeraSans-Roman-39"/>
       <use x="279.6875" xlink:href="#BitstreamVeraSans-Roman-20"/>
       <use x="311.474609375" xlink:href="#BitstreamVeraSans-Roman-32"/>
       <use x="375.09765625" xlink:href="#BitstreamVeraSans-Roman-30"/>
       <use x="438.720703125" xlink:href="#BitstreamVeraSans-Roman-31"/>
       <use x="502.34375" xlink:href="#BitstreamVeraSans-Roman-35"/>
      </g>
     </g>
    </g>
    <g id="xtick_3">
     <g id="line2d_7">
      <g>
       <use style="stroke:#000000;stroke-width:0.5;" x="642.994232666" xlink:href="#mf02ddc81dd" y="648.0"/>
      </g>
     </g>
     <g id="line2d_8">
      <g>
       <use style="stroke:#000000;stroke-width:0.5;" x="642.994232666" xlink:href="#m3c9dbfb5db" y="72.0"/>
      </g>
     </g>
     <g id="text_3">
      <!-- Jul 26 2015 -->
      <defs>
       <path d="M 33.015625 40.375 
Q 26.375 40.375 22.484375 35.828125 
Q 18.609375 31.296875 18.609375 23.390625 
Q 18.609375 15.53125 22.484375 10.953125 
Q 26.375 6.390625 33.015625 6.390625 
Q 39.65625 6.390625 43.53125 10.953125 
Q 47.40625 15.53125 47.40625 23.390625 
Q 47.40625 31.296875 43.53125 35.828125 
Q 39.65625 40.375 33.015625 40.375 
M 52.59375 71.296875 
L 52.59375 62.3125 
Q 48.875 64.0625 45.09375 64.984375 
Q 41.3125 65.921875 37.59375 65.921875 
Q 27.828125 65.921875 22.671875 59.328125 
Q 17.53125 52.734375 16.796875 39.40625 
Q 19.671875 43.65625 24.015625 45.921875 
Q 28.375 48.1875 33.59375 48.1875 
Q 44.578125 48.1875 50.953125 41.515625 
Q 57.328125 34.859375 57.328125 23.390625 
Q 57.328125 12.15625 50.6875 5.359375 
Q 44.046875 -1.421875 33.015625 -1.421875 
Q 20.359375 -1.421875 13.671875 8.265625 
Q 6.984375 17.96875 6.984375 36.375 
Q 6.984375 53.65625 15.1875 63.9375 
Q 23.390625 74.21875 37.203125 74.21875 
Q 40.921875 74.21875 44.703125 73.484375 
Q 48.484375 72.75 52.59375 71.296875 
" id="BitstreamVeraSans-Roman-36"/>
      </defs>
      <g transform="translate(609.036107666 661.118125)scale(0.12 -0.12)">
       <use xlink:href="#BitstreamVeraSans-Roman-4a"/>
       <use x="29.4921875" xlink:href="#BitstreamVeraSans-Roman-75"/>
       <use x="92.87109375" xlink:href="#BitstreamVeraSans-Roman-6c"/>
       <use x="120.654296875" xlink:href="#BitstreamVeraSans-Roman-20"/>
       <use x="152.44140625" xlink:href="#BitstreamVeraSans-Roman-32"/>
       <use x="216.064453125" xlink:href="#BitstreamVeraSans-Roman-36"/>
       <use x="279.6875" xlink:href="#BitstreamVeraSans-Roman-20"/>
       <use x="311.474609375" xlink:href="#BitstreamVeraSans-Roman-32"/>
       <use x="375.09765625" xlink:href="#BitstreamVeraSans-Roman-30"/>
       <use x="438.720703125" xlink:href="#BitstreamVeraSans-Roman-31"/>
       <use x="502.34375" xlink:href="#BitstreamVeraSans-Roman-35"/>
      </g>
     </g>
    </g>
    <g id="xtick_4">
     <g id="line2d_9">
      <g>
       <use style="stroke:#000000;stroke-width:0.5;" x="812.537065692" xlink:href="#mf02ddc81dd" y="648.0"/>
      </g>
     </g>
     <g id="line2d_10">
      <g>
       <use style="stroke:#000000;stroke-width:0.5;" x="812.537065692" xlink:href="#m3c9dbfb5db" y="72.0"/>
      </g>
     </g>
     <g id="text_4">
      <!-- Aug 02 2015 -->
      <defs>
       <path d="M 45.40625 27.984375 
Q 45.40625 37.75 41.375 43.109375 
Q 37.359375 48.484375 30.078125 48.484375 
Q 22.859375 48.484375 18.828125 43.109375 
Q 14.796875 37.75 14.796875 27.984375 
Q 14.796875 18.265625 18.828125 12.890625 
Q 22.859375 7.515625 30.078125 7.515625 
Q 37.359375 7.515625 41.375 12.890625 
Q 45.40625 18.265625 45.40625 27.984375 
M 54.390625 6.78125 
Q 54.390625 -7.171875 48.1875 -13.984375 
Q 42 -20.796875 29.203125 -20.796875 
Q 24.46875 -20.796875 20.265625 -20.09375 
Q 16.0625 -19.390625 12.109375 -17.921875 
L 12.109375 -9.1875 
Q 16.0625 -11.328125 19.921875 -12.34375 
Q 23.78125 -13.375 27.78125 -13.375 
Q 36.625 -13.375 41.015625 -8.765625 
Q 45.40625 -4.15625 45.40625 5.171875 
L 45.40625 9.625 
Q 42.625 4.78125 38.28125 2.390625 
Q 33.9375 0 27.875 0 
Q 17.828125 0 11.671875 7.65625 
Q 5.515625 15.328125 5.515625 27.984375 
Q 5.515625 40.671875 11.671875 48.328125 
Q 17.828125 56 27.875 56 
Q 33.9375 56 38.28125 53.609375 
Q 42.625 51.21875 45.40625 46.390625 
L 45.40625 54.6875 
L 54.390625 54.6875 
z
" id="BitstreamVeraSans-Roman-67"/>
       <path d="M 34.1875 63.1875 
L 20.796875 26.90625 
L 47.609375 26.90625 
z
M 28.609375 72.90625 
L 39.796875 72.90625 
L 67.578125 0 
L 57.328125 0 
L 50.6875 18.703125 
L 17.828125 18.703125 
L 11.1875 0 
L 0.78125 0 
z
" id="BitstreamVeraSans-Roman-41"/>
      </defs>
      <g transform="translate(774.102378192 661.118125)scale(0.12 -0.12)">
       <use xlink:href="#BitstreamVeraSans-Roman-41"/>
       <use x="68.408203125" xlink:href="#BitstreamVeraSans-Roman-75"/>
       <use x="131.787109375" xlink:href="#BitstreamVeraSans-Roman-67"/>
       <use x="195.263671875" xlink:href="#BitstreamVeraSans-Roman-20"/>
       <use x="227.05078125" xlink:href="#BitstreamVeraSans-Roman-30"/>
       <use x="290.673828125" xlink:href="#BitstreamVeraSans-Roman-32"/>
       <use x="354.296875" xlink:href="#BitstreamVeraSans-Roman-20"/>
       <use x="386.083984375" xlink:href="#BitstreamVeraSans-Roman-32"/>
       <use x="449.70703125" xlink:href="#BitstreamVeraSans-Roman-30"/>
       <use x="513.330078125" xlink:href="#BitstreamVeraSans-Roman-31"/>
       <use x="576.953125" xlink:href="#BitstreamVeraSans-Roman-35"/>
      </g>
     </g>
    </g>
    <g id="xtick_5">
     <g id="line2d_11">
      <g>
       <use style="stroke:#000000;stroke-width:0.5;" x="982.079898722" xlink:href="#mf02ddc81dd" y="648.0"/>
      </g>
     </g>
     <g id="line2d_12">
      <g>
       <use style="stroke:#000000;stroke-width:0.5;" x="982.079898722" xlink:href="#m3c9dbfb5db" y="72.0"/>
      </g>
     </g>
     <g id="text_5">
      <!-- Aug 09 2015 -->
      <g transform="translate(943.645211222 661.118125)scale(0.12 -0.12)">
       <use xlink:href="#BitstreamVeraSans-Roman-41"/>
       <use x="68.408203125" xlink:href="#BitstreamVeraSans-Roman-75"/>
       <use x="131.787109375" xlink:href="#BitstreamVeraSans-Roman-67"/>
       <use x="195.263671875" xlink:href="#BitstreamVeraSans-Roman-20"/>
       <use x="227.05078125" xlink:href="#BitstreamVeraSans-Roman-30"/>
       <use x="290.673828125" xlink:href="#BitstreamVeraSans-Roman-39"/>
       <use x="354.296875" xlink:href="#BitstreamVeraSans-Roman-20"/>
       <use x="386.083984375" xlink:href="#BitstreamVeraSans-Roman-32"/>
       <use x="449.70703125" xlink:href="#BitstreamVeraSans-Roman-30"/>
       <use x="513.330078125" xlink:href="#BitstreamVeraSans-Roman-31"/>
       <use x="576.953125" xlink:href="#BitstreamVeraSans-Roman-35"/>
      </g>
     </g>
    </g>
    <g id="xtick_6">
     <g id="line2d_13">
      <g>
       <use style="stroke:#000000;stroke-width:0.5;" x="1151.62273175" xlink:href="#mf02ddc81dd" y="648.0"/>
      </g>
     </g>
     <g id="line2d_14">
      <g>
       <use style="stroke:#000000;stroke-width:0.5;" x="1151.62273175" xlink:href="#m3c9dbfb5db" y="72.0"/>
      </g>
     </g>
     <g id="text_6">
      <!-- Aug 16 2015 -->
      <g transform="translate(1113.18804425 661.118125)scale(0.12 -0.12)">
       <use xlink:href="#BitstreamVeraSans-Roman-41"/>
       <use x="68.408203125" xlink:href="#BitstreamVeraSans-Roman-75"/>
       <use x="131.787109375" xlink:href="#BitstreamVeraSans-Roman-67"/>
       <use x="195.263671875" xlink:href="#BitstreamVeraSans-Roman-20"/>
       <use x="227.05078125" xlink:href="#BitstreamVeraSans-Roman-31"/>
       <use x="290.673828125" xlink:href="#BitstreamVeraSans-Roman-36"/>
       <use x="354.296875" xlink:href="#BitstreamVeraSans-Roman-20"/>
       <use x="386.083984375" xlink:href="#BitstreamVeraSans-Roman-32"/>
       <use x="449.70703125" xlink:href="#BitstreamVeraSans-Roman-30"/>
       <use x="513.330078125" xlink:href="#BitstreamVeraSans-Roman-31"/>
       <use x="576.953125" xlink:href="#BitstreamVeraSans-Roman-35"/>
      </g>
     </g>
    </g>
    <g id="xtick_7">
     <g id="line2d_15">
      <g>
       <use style="stroke:#000000;stroke-width:0.5;" x="1321.16556478" xlink:href="#mf02ddc81dd" y="648.0"/>
      </g>
     </g>
     <g id="line2d_16">
      <g>
       <use style="stroke:#000000;stroke-width:0.5;" x="1321.16556478" xlink:href="#m3c9dbfb5db" y="72.0"/>
      </g>
     </g>
     <g id="text_7">
      <!-- Aug 23 2015 -->
      <defs>
       <path d="M 40.578125 39.3125 
Q 47.65625 37.796875 51.625 33 
Q 55.609375 28.21875 55.609375 21.1875 
Q 55.609375 10.40625 48.1875 4.484375 
Q 40.765625 -1.421875 27.09375 -1.421875 
Q 22.515625 -1.421875 17.65625 -0.515625 
Q 12.796875 0.390625 7.625 2.203125 
L 7.625 11.71875 
Q 11.71875 9.328125 16.59375 8.109375 
Q 21.484375 6.890625 26.8125 6.890625 
Q 36.078125 6.890625 40.9375 10.546875 
Q 45.796875 14.203125 45.796875 21.1875 
Q 45.796875 27.640625 41.28125 31.265625 
Q 36.765625 34.90625 28.71875 34.90625 
L 20.21875 34.90625 
L 20.21875 43.015625 
L 29.109375 43.015625 
Q 36.375 43.015625 40.234375 45.921875 
Q 44.09375 48.828125 44.09375 54.296875 
Q 44.09375 59.90625 40.109375 62.90625 
Q 36.140625 65.921875 28.71875 65.921875 
Q 24.65625 65.921875 20.015625 65.03125 
Q 15.375 64.15625 9.8125 62.3125 
L 9.8125 71.09375 
Q 15.4375 72.65625 20.34375 73.4375 
Q 25.25 74.21875 29.59375 74.21875 
Q 40.828125 74.21875 47.359375 69.109375 
Q 53.90625 64.015625 53.90625 55.328125 
Q 53.90625 49.265625 50.4375 45.09375 
Q 46.96875 40.921875 40.578125 39.3125 
" id="BitstreamVeraSans-Roman-33"/>
      </defs>
      <g transform="translate(1282.73087728 661.118125)scale(0.12 -0.12)">
       <use xlink:href="#BitstreamVeraSans-Roman-41"/>
       <use x="68.408203125" xlink:href="#BitstreamVeraSans-Roman-75"/>
       <use x="131.787109375" xlink:href="#BitstreamVeraSans-Roman-67"/>
       <use x="195.263671875" xlink:href="#BitstreamVeraSans-Roman-20"/>
       <use x="227.05078125" xlink:href="#BitstreamVeraSans-Roman-32"/>
       <use x="290.673828125" xlink:href="#BitstreamVeraSans-Roman-33"/>
       <use x="354.296875" xlink:href="#BitstreamVeraSans-Roman-20"/>
       <use x="386.083984375" xlink:href="#BitstreamVeraSans-Roman-32"/>
       <use x="449.70703125" xlink:href="#BitstreamVeraSans-Roman-30"/>
       <use x="513.330078125" xlink:href="#BitstreamVeraSans-Roman-31"/>
       <use x="576.953125" xlink:href="#BitstreamVeraSans-Roman-35"/>
      </g>
     </g>
    </g>
    <g id="xtick_8">
     <g id="line2d_17">
      <g>
       <use style="stroke:#000000;stroke-width:0.5;" x="1490.70839781" xlink:href="#mf02ddc81dd" y="648.0"/>
      </g>
     </g>
     <g id="line2d_18">
      <g>
       <use style="stroke:#000000;stroke-width:0.5;" x="1490.70839781" xlink:href="#m3c9dbfb5db" y="72.0"/>
      </g>
     </g>
     <g id="text_8">
      <!-- Aug 30 2015 -->
      <g transform="translate(1452.27371031 661.118125)scale(0.12 -0.12)">
       <use xlink:href="#BitstreamVeraSans-Roman-41"/>
       <use x="68.408203125" xlink:href="#BitstreamVeraSans-Roman-75"/>
       <use x="131.787109375" xlink:href="#BitstreamVeraSans-Roman-67"/>
       <use x="195.263671875" xlink:href="#BitstreamVeraSans-Roman-20"/>
       <use x="227.05078125" xlink:href="#BitstreamVeraSans-Roman-33"/>
       <use x="290.673828125" xlink:href="#BitstreamVeraSans-Roman-30"/>
       <use x="354.296875" xlink:href="#BitstreamVeraSans-Roman-20"/>
       <use x="386.083984375" xlink:href="#BitstreamVeraSans-Roman-32"/>
       <use x="449.70703125" xlink:href="#BitstreamVeraSans-Roman-30"/>
       <use x="513.330078125" xlink:href="#BitstreamVeraSans-Roman-31"/>
       <use x="576.953125" xlink:href="#BitstreamVeraSans-Roman-35"/>
      </g>
     </g>
    </g>
    <g id="xtick_9">
     <g id="line2d_19">
      <g>
       <use style="stroke:#000000;stroke-width:0.5;" x="1660.25123084" xlink:href="#mf02ddc81dd" y="648.0"/>
      </g>
     </g>
     <g id="line2d_20">
      <g>
       <use style="stroke:#000000;stroke-width:0.5;" x="1660.25123084" xlink:href="#m3c9dbfb5db" y="72.0"/>
      </g>
     </g>
     <g id="text_9">
      <!-- Sep 06 2015 -->
      <defs>
       <path d="M 56.203125 29.59375 
L 56.203125 25.203125 
L 14.890625 25.203125 
Q 15.484375 15.921875 20.484375 11.0625 
Q 25.484375 6.203125 34.421875 6.203125 
Q 39.59375 6.203125 44.453125 7.46875 
Q 49.3125 8.734375 54.109375 11.28125 
L 54.109375 2.78125 
Q 49.265625 0.734375 44.1875 -0.34375 
Q 39.109375 -1.421875 33.890625 -1.421875 
Q 20.796875 -1.421875 13.15625 6.1875 
Q 5.515625 13.8125 5.515625 26.8125 
Q 5.515625 40.234375 12.765625 48.109375 
Q 20.015625 56 32.328125 56 
Q 43.359375 56 49.78125 48.890625 
Q 56.203125 41.796875 56.203125 29.59375 
M 47.21875 32.234375 
Q 47.125 39.59375 43.09375 43.984375 
Q 39.0625 48.390625 32.421875 48.390625 
Q 24.90625 48.390625 20.390625 44.140625 
Q 15.875 39.890625 15.1875 32.171875 
z
" id="BitstreamVeraSans-Roman-65"/>
       <path d="M 53.515625 70.515625 
L 53.515625 60.890625 
Q 47.90625 63.578125 42.921875 64.890625 
Q 37.9375 66.21875 33.296875 66.21875 
Q 25.25 66.21875 20.875 63.09375 
Q 16.5 59.96875 16.5 54.203125 
Q 16.5 49.359375 19.40625 46.890625 
Q 22.3125 44.4375 30.421875 42.921875 
L 36.375 41.703125 
Q 47.40625 39.59375 52.65625 34.296875 
Q 57.90625 29 57.90625 20.125 
Q 57.90625 9.515625 50.796875 4.046875 
Q 43.703125 -1.421875 29.984375 -1.421875 
Q 24.8125 -1.421875 18.96875 -0.25 
Q 13.140625 0.921875 6.890625 3.21875 
L 6.890625 13.375 
Q 12.890625 10.015625 18.65625 8.296875 
Q 24.421875 6.59375 29.984375 6.59375 
Q 38.421875 6.59375 43.015625 9.90625 
Q 47.609375 13.234375 47.609375 19.390625 
Q 47.609375 24.75 44.3125 27.78125 
Q 41.015625 30.8125 33.5 32.328125 
L 27.484375 33.5 
Q 16.453125 35.6875 11.515625 40.375 
Q 6.59375 45.0625 6.59375 53.421875 
Q 6.59375 63.09375 13.40625 68.65625 
Q 20.21875 74.21875 32.171875 74.21875 
Q 37.3125 74.21875 42.625 73.28125 
Q 47.953125 72.359375 53.515625 70.515625 
" id="BitstreamVeraSans-Roman-53"/>
       <path d="M 18.109375 8.203125 
L 18.109375 -20.796875 
L 9.078125 -20.796875 
L 9.078125 54.6875 
L 18.109375 54.6875 
L 18.109375 46.390625 
Q 20.953125 51.265625 25.265625 53.625 
Q 29.59375 56 35.59375 56 
Q 45.5625 56 51.78125 48.09375 
Q 58.015625 40.1875 58.015625 27.296875 
Q 58.015625 14.40625 51.78125 6.484375 
Q 45.5625 -1.421875 35.59375 -1.421875 
Q 29.59375 -1.421875 25.265625 0.953125 
Q 20.953125 3.328125 18.109375 8.203125 
M 48.6875 27.296875 
Q 48.6875 37.203125 44.609375 42.84375 
Q 40.53125 48.484375 33.40625 48.484375 
Q 26.265625 48.484375 22.1875 42.84375 
Q 18.109375 37.203125 18.109375 27.296875 
Q 18.109375 17.390625 22.1875 11.75 
Q 26.265625 6.109375 33.40625 6.109375 
Q 40.53125 6.109375 44.609375 11.75 
Q 48.6875 17.390625 48.6875 27.296875 
" id="BitstreamVeraSans-Roman-70"/>
      </defs>
      <g transform="translate(1622.22248084 661.118125)scale(0.12 -0.12)">
       <use xlink:href="#BitstreamVeraSans-Roman-53"/>
       <use x="63.4765625" xlink:href="#BitstreamVeraSans-Roman-65"/>
       <use x="125.0" xlink:href="#BitstreamVeraSans-Roman-70"/>
       <use x="188.4765625" xlink:href="#BitstreamVeraSans-Roman-20"/>
       <use x="220.263671875" xlink:href="#BitstreamVeraSans-Roman-30"/>
       <use x="283.88671875" xlink:href="#BitstreamVeraSans-Roman-36"/>
       <use x="347.509765625" xlink:href="#BitstreamVeraSans-Roman-20"/>
       <use x="379.296875" xlink:href="#BitstreamVeraSans-Roman-32"/>
       <use x="442.919921875" xlink:href="#BitstreamVeraSans-Roman-30"/>
       <use x="506.54296875" xlink:href="#BitstreamVeraSans-Roman-31"/>
       <use x="570.166015625" xlink:href="#BitstreamVeraSans-Roman-35"/>
      </g>
     </g>
    </g>
    <g id="xtick_10">
     <g id="line2d_21">
      <g>
       <use style="stroke:#000000;stroke-width:0.5;" x="1829.79406386" xlink:href="#mf02ddc81dd" y="648.0"/>
      </g>
     </g>
     <g id="line2d_22">
      <g>
       <use style="stroke:#000000;stroke-width:0.5;" x="1829.79406386" xlink:href="#m3c9dbfb5db" y="72.0"/>
      </g>
     </g>
     <g id="text_10">
      <!-- Sep 13 2015 -->
      <g transform="translate(1791.76531386 661.118125)scale(0.12 -0.12)">
       <use xlink:href="#BitstreamVeraSans-Roman-53"/>
       <use x="63.4765625" xlink:href="#BitstreamVeraSans-Roman-65"/>
       <use x="125.0" xlink:href="#BitstreamVeraSans-Roman-70"/>
       <use x="188.4765625" xlink:href="#BitstreamVeraSans-Roman-20"/>
       <use x="220.263671875" xlink:href="#BitstreamVeraSans-Roman-31"/>
       <use x="283.88671875" xlink:href="#BitstreamVeraSans-Roman-33"/>
       <use x="347.509765625" xlink:href="#BitstreamVeraSans-Roman-20"/>
       <use x="379.296875" xlink:href="#BitstreamVeraSans-Roman-32"/>
       <use x="442.919921875" xlink:href="#BitstreamVeraSans-Roman-30"/>
       <use x="506.54296875" xlink:href="#BitstreamVeraSans-Roman-31"/>
       <use x="570.166015625" xlink:href="#BitstreamVeraSans-Roman-35"/>
      </g>
     </g>
    </g>
   </g>
   <g id="matplotlib.axis_2">
    <g id="ytick_1">
     <g id="line2d_23">
      <defs>
       <path d="M 0 0 
L 4 0 
" id="m40358dca92" style="stroke:#000000;stroke-width:0.5;"/>
      </defs>
      <g>
       <use style="stroke:#000000;stroke-width:0.5;" x="270.0" xlink:href="#m40358dca92" y="648.0"/>
      </g>
     </g>
     <g id="line2d_24">
      <defs>
       <path d="M 0 0 
L -4 0 
" id="m668ff9f156" style="stroke:#000000;stroke-width:0.5;"/>
      </defs>
      <g>
       <use style="stroke:#000000;stroke-width:0.5;" x="1944.0" xlink:href="#m668ff9f156" y="648.0"/>
      </g>
     </g>
     <g id="text_11">
      <!-- 0 -->
      <g transform="translate(258.365 651.31125)scale(0.12 -0.12)">
       <use xlink:href="#BitstreamVeraSans-Roman-30"/>
      </g>
     </g>
    </g>
    <g id="ytick_2">
     <g id="line2d_25">
      <g>
       <use style="stroke:#000000;stroke-width:0.5;" x="270.0" xlink:href="#m40358dca92" y="552.0"/>
      </g>
     </g>
     <g id="line2d_26">
      <g>
       <use style="stroke:#000000;stroke-width:0.5;" x="1944.0" xlink:href="#m668ff9f156" y="552.0"/>
      </g>
     </g>
     <g id="text_12">
      <!-- 1000 -->
      <g transform="translate(235.46 555.31125)scale(0.12 -0.12)">
       <use xlink:href="#BitstreamVeraSans-Roman-31"/>
       <use x="63.623046875" xlink:href="#BitstreamVeraSans-Roman-30"/>
       <use x="127.24609375" xlink:href="#BitstreamVeraSans-Roman-30"/>
       <use x="190.869140625" xlink:href="#BitstreamVeraSans-Roman-30"/>
      </g>
     </g>
    </g>
    <g id="ytick_3">
     <g id="line2d_27">
      <g>
       <use style="stroke:#000000;stroke-width:0.5;" x="270.0" xlink:href="#m40358dca92" y="456.0"/>
      </g>
     </g>
     <g id="line2d_28">
      <g>
       <use style="stroke:#000000;stroke-width:0.5;" x="1944.0" xlink:href="#m668ff9f156" y="456.0"/>
      </g>
     </g>
     <g id="text_13">
      <!-- 2000 -->
      <g transform="translate(235.46 459.31125)scale(0.12 -0.12)">
       <use xlink:href="#BitstreamVeraSans-Roman-32"/>
       <use x="63.623046875" xlink:href="#BitstreamVeraSans-Roman-30"/>
       <use x="127.24609375" xlink:href="#BitstreamVeraSans-Roman-30"/>
       <use x="190.869140625" xlink:href="#BitstreamVeraSans-Roman-30"/>
      </g>
     </g>
    </g>
    <g id="ytick_4">
     <g id="line2d_29">
      <g>
       <use style="stroke:#000000;stroke-width:0.5;" x="270.0" xlink:href="#m40358dca92" y="360.0"/>
      </g>
     </g>
     <g id="line2d_30">
      <g>
       <use style="stroke:#000000;stroke-width:0.5;" x="1944.0" xlink:href="#m668ff9f156" y="360.0"/>
      </g>
     </g>
     <g id="text_14">
      <!-- 3000 -->
      <g transform="translate(235.46 363.31125)scale(0.12 -0.12)">
       <use xlink:href="#BitstreamVeraSans-Roman-33"/>
       <use x="63.623046875" xlink:href="#BitstreamVeraSans-Roman-30"/>
       <use x="127.24609375" xlink:href="#BitstreamVeraSans-Roman-30"/>
       <use x="190.869140625" xlink:href="#BitstreamVeraSans-Roman-30"/>
      </g>
     </g>
    </g>
    <g id="ytick_5">
     <g id="line2d_31">
      <g>
       <use style="stroke:#000000;stroke-width:0.5;" x="270.0" xlink:href="#m40358dca92" y="264.0"/>
      </g>
     </g>
     <g id="line2d_32">
      <g>
       <use style="stroke:#000000;stroke-width:0.5;" x="1944.0" xlink:href="#m668ff9f156" y="264.0"/>
      </g>
     </g>
     <g id="text_15">
      <!-- 4000 -->
      <defs>
       <path d="M 37.796875 64.3125 
L 12.890625 25.390625 
L 37.796875 25.390625 
z
M 35.203125 72.90625 
L 47.609375 72.90625 
L 47.609375 25.390625 
L 58.015625 25.390625 
L 58.015625 17.1875 
L 47.609375 17.1875 
L 47.609375 0 
L 37.796875 0 
L 37.796875 17.1875 
L 4.890625 17.1875 
L 4.890625 26.703125 
z
" id="BitstreamVeraSans-Roman-34"/>
      </defs>
      <g transform="translate(235.46 267.31125)scale(0.12 -0.12)">
       <use xlink:href="#BitstreamVeraSans-Roman-34"/>
       <use x="63.623046875" xlink:href="#BitstreamVeraSans-Roman-30"/>
       <use x="127.24609375" xlink:href="#BitstreamVeraSans-Roman-30"/>
       <use x="190.869140625" xlink:href="#BitstreamVeraSans-Roman-30"/>
      </g>
     </g>
    </g>
    <g id="ytick_6">
     <g id="line2d_33">
      <g>
       <use style="stroke:#000000;stroke-width:0.5;" x="270.0" xlink:href="#m40358dca92" y="168.0"/>
      </g>
     </g>
     <g id="line2d_34">
      <g>
       <use style="stroke:#000000;stroke-width:0.5;" x="1944.0" xlink:href="#m668ff9f156" y="168.0"/>
      </g>
     </g>
     <g id="text_16">
      <!-- 5000 -->
      <g transform="translate(235.46 171.31125)scale(0.12 -0.12)">
       <use xlink:href="#BitstreamVeraSans-Roman-35"/>
       <use x="63.623046875" xlink:href="#BitstreamVeraSans-Roman-30"/>
       <use x="127.24609375" xlink:href="#BitstreamVeraSans-Roman-30"/>
       <use x="190.869140625" xlink:href="#BitstreamVeraSans-Roman-30"/>
      </g>
     </g>
    </g>
    <g id="ytick_7">
     <g id="line2d_35">
      <g>
       <use style="stroke:#000000;stroke-width:0.5;" x="270.0" xlink:href="#m40358dca92" y="72.0"/>
      </g>
     </g>
     <g id="line2d_36">
      <g>
       <use style="stroke:#000000;stroke-width:0.5;" x="1944.0" xlink:href="#m668ff9f156" y="72.0"/>
      </g>
     </g>
     <g id="text_17">
      <!-- 6000 -->
      <g transform="translate(235.46 75.31125)scale(0.12 -0.12)">
       <use xlink:href="#BitstreamVeraSans-Roman-36"/>
       <use x="63.623046875" xlink:href="#BitstreamVeraSans-Roman-30"/>
       <use x="127.24609375" xlink:href="#BitstreamVeraSans-Roman-30"/>
       <use x="190.869140625" xlink:href="#BitstreamVeraSans-Roman-30"/>
      </g>
     </g>
    </g>
   </g>
  </g>
 </g>
 <defs>
  <clipPath id="p69ffad842d">
   <rect height="576.0" width="1674.0" x="270.0" y="72.0"/>
  </clipPath>
 </defs>
</svg>
