<?xml version="1.0" encoding="utf-8" standalone="no"?>
<!DOCTYPE svg PUBLIC "-//W3C//DTD SVG 1.1//EN"
  "http://www.w3.org/Graphics/SVG/1.1/DTD/svg11.dtd">
<!-- Created with matplotlib (http://matplotlib.org/) -->
<svg height="720pt" version="1.1" viewBox="0 0 2160 720" width="2160pt" xmlns="http://www.w3.org/2000/svg" xmlns:xlink="http://www.w3.org/1999/xlink">
 <defs>
  <style type="text/css">
*{stroke-linecap:butt;stroke-linejoin:round;stroke-miterlimit:100000;}
  </style>
 </defs>
 <g id="figure_1">
  <g id="patch_1">
   <path d="M 0 720 
L 2160 720 
L 2160 0 
L 0 0 
z
" style="fill:#ffffff;"/>
  </g>
  <g id="axes_1">
   <g id="patch_2">
    <path d="M 270 648 
L 1944 648 
L 1944 72 
L 270 72 
z
" style="fill:#ffffff;"/>
   </g>
   <g id="line2d_1">
    <path clip-path="url(#p691d8d52bb)" d="M 270 624.192 
L 270.226974 630.912 
L 270.658224 633.12 
L 272.723686 636.384 
L 272.95066 638.112 
L 273.177633 638.784 
L 277.422044 631.68 
L 283.777311 631.872 
L 284.004285 631.008 
L 284.458232 623.232 
L 284.685206 629.664 
L 295.716134 224.064 
L 296.487845 628.8 
L 297.168766 627.84 
L 297.622714 629.088 
L 297.849687 625.152 
L 298.485214 622.656 
L 298.757583 622.752 
L 298.984557 625.248 
L 299.665478 627.072 
L 300.119426 627.072 
L 300.437189 620.448 
L 331.328326 618.048 
L 331.532602 619.584 
L 331.782273 627.552 
L 332.213524 631.296 
L 332.667471 626.016 
L 333.144116 626.304 
L 334.256288 614.592 
L 336.253657 642.432 
L 337.138855 636.672 
L 337.683593 636.384 
L 338.500698 597.12 
L 339.045435 630.24 
L 339.272409 629.856 
L 339.363199 626.784 
L 339.726357 610.368 
L 339.953331 607.872 
L 340.157607 590.112 
L 340.634252 571.392 
L 340.861226 578.016 
L 341.0882 565.152 
L 341.678332 560.064 
L 342.154977 585.408 
L 342.858596 563.424 
L 343.789188 611.232 
L 344.992149 610.272 
L 347.443467 645.216 
L 348.601033 641.376 
L 348.646428 638.496 
L 349.054981 640.992 
L 349.100376 637.824 
L 350.416824 632.736 
L 351.528995 637.44 
L 360.131303 638.784 
L 364.035253 589.344 
L 364.262227 538.176 
L 365.397096 451.104 
L 365.62407 458.112 
L 365.851043 365.568 
L 366.078017 356.544 
L 366.304991 342.528 
L 366.531965 372.576 
L 366.758939 354.432 
L 366.985912 236.16 
L 367.43986 271.488 
L 367.666834 235.68 
L 368.120782 191.328 
L 368.347755 152.544 
L 368.801703 144.864 
L 368.892493 112.512 
L 374.476048 621.408 
L 374.703022 627.168 
L 374.929996 626.304 
L 375.134273 618.432 
L 375.361246 614.496 
L 375.883286 625.92 
L 376.042168 626.496 
L 376.337234 622.944 
L 384.25862 630.528 
L 411.699755 632.448 
L 412.131005 629.568 
L 415.195151 629.76 
L 415.46752 628.704 
L 416.783968 619.104 
L 425.227394 637.056 
L 425.681342 636.288 
L 426.135289 637.344 
L 430.425095 632.928 
L 430.90174 639.168 
L 438.187599 633.216 
L 439.549442 634.176 
L 440.43464 627.456 
L 442.727076 633.888 
L 443.407997 629.856 
L 443.589576 630.144 
L 444.315892 634.464 
L 445.677735 630.144 
L 448.174447 626.112 
L 448.855369 620.64 
L 449.082342 617.28 
L 449.513593 606.144 
L 449.763264 614.112 
L 449.944843 606.624 
L 460.204059 629.952 
L 460.431033 628.512 
L 460.63531 628.608 
L 461.338929 616.896 
L 461.565902 610.944 
L 461.792876 608.256 
L 462.246824 617.568 
L 464.516562 620.064 
L 464.743536 617.664 
L 465.174786 617.568 
L 466.105379 627.264 
L 467.694195 632.064 
L 469.056038 631.872 
L 469.283012 634.368 
L 471.55275 641.088 
L 472.256369 610.56 
L 472.483343 617.76 
L 472.937291 615.936 
L 473.368541 627.84 
L 475.207029 633.792 
L 487.236641 560.16 
L 487.463615 559.488 
L 487.690589 560.448 
L 487.781378 553.92 
L 493.31954 629.76 
L 493.591908 628.032 
L 493.773487 629.952 
L 494.000461 627.648 
L 494.204737 619.488 
L 494.499803 617.088 
L 494.726777 613.536 
L 494.953751 613.44 
L 495.407699 618.528 
L 495.838949 628.416 
L 496.315594 623.232 
L 496.769542 626.976 
L 497.677437 572.352 
L 497.904411 537.888 
L 498.267569 520.512 
L 498.494543 616.32 
L 498.721516 624.096 
L 499.175464 597.984 
L 499.37974 595.296 
L 499.629412 587.424 
L 503.487967 634.464 
L 504.373164 633.984 
L 504.622836 633.312 
L 504.84981 631.584 
L 505.076783 613.152 
L 505.303757 633.888 
L 505.530731 629.664 
L 505.757705 629.952 
L 505.961981 629.28 
L 506.211652 630.912 
L 506.438626 614.208 
L 506.6656 633.984 
L 506.892574 604.224 
L 507.119548 633.984 
L 507.278429 622.368 
L 507.573495 634.08 
L 507.732377 634.656 
L 507.868561 634.176 
L 508.186325 630.432 
L 508.413298 632.448 
L 508.594877 631.872 
L 508.867246 565.056 
L 509.071523 571.296 
L 509.298496 569.184 
L 509.775141 589.824 
L 510.002115 550.848 
L 510.229089 575.04 
L 510.456063 553.248 
L 510.660339 578.976 
L 510.864616 441.12 
L 511.114287 598.56 
L 511.590932 598.272 
L 512.04488 553.056 
L 512.271853 545.088 
L 512.47613 550.944 
L 512.725801 545.28 
L 512.793893 414.528 
L 513.179749 495.648 
L 513.633696 532.032 
L 513.86067 511.2 
L 514.087644 524.352 
L 514.314618 544.224 
L 514.950144 611.232 
L 515.631066 549.888 
L 515.903434 413.856 
L 516.130408 464.832 
L 516.357382 576.096 
L 525.890282 633.12 
L 526.34423 631.584 
L 526.548506 628.512 
L 527.025152 611.424 
L 527.479099 608.64 
L 527.706073 621.792 
L 528.568573 622.464 
L 529.022521 628.128 
L 529.521864 609.12 
L 532.15476 633.216 
L 532.835681 632.256 
L 533.97055 634.656 
L 534.174827 633.312 
L 535.559367 633.216 
L 538.283053 632.256 
L 538.963974 633.408 
L 539.145553 630.624 
L 540.053449 633.696 
L 546.068255 635.04 
L 547.157729 633.6 
L 554.216615 637.728 
L 554.443589 636.768 
L 554.897536 637.344 
L 556.259379 638.016 
L 556.940301 633.984 
L 557.394248 635.52 
L 558.529117 635.136 
L 558.665302 634.944 
L 559.187342 624.384 
L 559.391618 624.96 
L 559.89096 613.824 
L 560.117934 618.432 
L 560.344908 614.688 
L 560.571882 601.152 
L 560.798856 603.264 
L 561.479777 627.072 
L 561.684054 628.32 
L 561.933725 628.032 
L 562.342278 617.472 
L 562.84162 628.128 
L 563.976489 638.496 
L 564.180766 638.4 
L 564.657411 636.48 
L 564.884384 636 
L 565.111358 634.656 
L 565.338332 630.72 
L 565.814977 632.352 
L 566.246227 631.968 
L 566.927149 628.896 
L 567.08603 629.472 
L 569.401163 630.624 
L 570.331756 630.816 
L 571.239651 631.2 
L 571.988665 633.024 
L 572.37452 636.192 
L 572.601494 643.2 
L 572.828468 635.904 
L 573.963337 634.368 
L 577.140971 624.288 
L 577.345247 628.8 
L 588.966306 123.744 
L 591.031768 631.872 
L 591.916966 629.376 
L 592.166637 629.76 
L 592.393611 620.064 
L 592.620585 627.744 
L 592.824861 629.088 
L 593.755454 621.024 
L 593.937033 622.08 
L 594.436375 600 
L 594.890323 590.88 
L 595.117297 577.344 
L 595.344271 614.976 
L 595.798218 595.2 
L 595.9571 605.376 
L 596.252166 615.84 
L 596.47914 613.056 
L 596.91039 610.56 
L 597.160061 610.08 
L 598.022562 618.72 
L 598.272233 613.536 
L 598.521904 619.776 
L 598.748878 621.792 
L 598.975852 625.344 
L 599.429799 618.048 
L 599.883747 631.872 
L 600.065326 634.944 
L 600.791642 630.912 
L 601.018616 630.624 
L 601.654143 618.048 
L 602.335064 612.672 
L 602.516643 619.008 
L 602.766315 618.336 
L 602.925196 618.624 
L 603.424539 606.144 
L 603.67421 585.504 
L 603.878486 582.336 
L 604.10546 569.088 
L 604.355131 561.504 
L 604.604803 586.272 
L 605.036053 615.456 
L 605.263027 612.288 
L 605.716974 623.136 
L 605.943948 625.056 
L 606.170922 628.8 
L 608.87191 633.984 
L 609.076187 634.752 
L 611.618293 639.456 
L 618.631784 636 
L 619.789351 642.336 
L 620.016325 642.144 
L 620.220601 583.2 
L 620.470272 580.896 
L 620.674549 595.008 
L 621.151194 486.048 
L 624.555801 631.584 
L 625.009749 619.584 
L 625.236723 618.816 
L 625.894947 607.968 
L 626.12192 607.2 
L 626.371592 607.296 
L 626.825539 620.064 
L 627.052513 610.848 
L 627.506461 619.584 
L 627.937711 622.752 
L 628.187382 624.192 
L 628.414356 619.008 
L 628.64133 625.44 
L 629.095277 622.656 
L 629.322251 635.232 
L 629.776199 637.632 
L 630.003173 637.056 
L 630.207449 636.864 
L 630.684094 638.4 
L 630.911068 638.208 
L 631.138042 638.976 
L 631.365016 639.168 
L 631.591989 639.936 
L 631.818963 636.096 
L 633.40778 636.288 
L 635.74561 634.176 
L 636.471927 635.808 
L 636.676203 634.272 
L 636.925874 637.632 
L 637.130151 635.424 
L 638.287717 635.232 
L 639.422586 633.312 
L 640.557455 637.344 
L 640.784429 637.056 
L 641.011403 631.488 
L 643.258444 634.272 
L 643.712391 637.92 
L 644.189036 637.152 
L 644.393313 635.52 
L 646.458775 635.616 
L 652.587068 636.96 
L 653.041015 579.36 
L 653.267989 518.304 
L 653.721937 493.824 
L 653.903516 493.056 
L 658.942335 628.032 
L 659.169308 625.44 
L 659.396282 627.936 
L 659.623256 627.168 
L 659.827532 631.104 
L 660.531151 633.6 
L 660.758125 630.912 
L 660.917007 630.432 
L 661.23477 621.216 
L 661.439047 618.816 
L 661.66602 621.6 
L 661.892994 631.968 
L 663.027863 632.064 
L 663.481811 633.504 
L 664.321614 634.08 
L 665.524575 635.04 
L 665.751549 634.176 
L 665.978523 635.808 
L 666.205497 635.04 
L 666.432471 637.44 
L 666.659444 636.864 
L 667.113392 634.56 
L 668.021287 631.68 
L 669.042669 637.056 
L 669.224249 636.192 
L 669.496617 636.288 
L 669.723591 637.344 
L 669.927867 637.344 
L 670.177539 636.96 
L 670.404512 638.112 
L 670.608789 637.344 
L 670.85846 637.44 
L 671.312408 635.712 
L 671.516684 635.616 
L 672.220303 630.816 
L 672.447277 632.064 
L 672.878527 635.424 
L 673.332475 634.944 
L 673.582146 635.232 
L 673.763725 635.04 
L 674.263067 636.096 
L 674.717015 633.984 
L 674.943989 636 
L 675.375239 636.768 
L 676.078858 635.424 
L 676.305832 634.848 
L 676.532805 636 
L 676.737082 639.36 
L 676.986753 639.264 
L 677.440701 639.552 
L 677.667675 638.304 
L 677.803859 638.208 
L 678.121622 637.728 
L 678.57557 639.936 
L 678.802544 640.32 
L 679.029517 639.936 
L 679.256491 639.264 
L 679.460768 637.824 
L 680.141689 638.592 
L 686.746627 637.632 
L 688.53972 630.528 
L 689.016365 624 
L 689.470313 624.096 
L 690.151235 629.568 
L 690.605182 612.864 
L 690.832156 615.744 
L 691.05913 627.744 
L 691.286104 633.504 
L 691.513077 633.696 
L 692.193999 628.512 
L 692.398275 626.496 
L 692.647947 628.128 
L 692.87492 624.672 
L 693.101894 623.616 
L 693.555842 626.016 
L 694.191368 612.672 
L 694.44104 616.896 
L 694.690711 617.472 
L 694.894987 616.032 
L 695.598606 606.912 
L 695.82558 613.248 
L 696.052554 610.176 
L 696.279528 615.936 
L 696.483804 614.88 
L 697.164726 610.464 
L 697.391699 607.776 
L 697.868344 582.336 
L 698.322292 613.536 
L 700.138083 639.648 
L 700.319662 640.416 
L 700.59203 630.336 
L 700.819004 628.8 
L 701.704202 632.16 
L 706.606836 634.848 
L 709.78447 634.752 
L 713.869999 634.944 
L 716.820658 635.904 
L 717.274606 634.176 
L 718.409475 637.152 
L 718.863423 636.48 
L 719.090396 633.6 
L 720.679213 633.792 
L 721.337437 629.568 
L 722.041056 622.56 
L 722.495004 620.832 
L 722.721977 615.168 
L 722.926254 601.44 
L 723.175925 602.688 
L 723.402899 595.68 
L 723.629873 594.72 
L 724.08382 618.432 
L 724.969018 634.176 
L 725.672637 632.736 
L 725.876913 634.56 
L 726.126585 635.04 
L 726.580532 636.192 
L 726.807506 634.944 
L 727.03448 634.944 
L 727.828888 349.824 
L 729.98514 621.12 
L 730.212113 630.144 
L 730.666061 631.104 
L 730.893035 621.024 
L 731.120009 620.928 
L 731.324285 599.232 
L 733.389747 476.256 
L 734.297642 531.168 
L 734.479221 636.384 
L 734.955866 636 
L 735.160143 635.712 
L 735.409814 637.152 
L 735.659485 636.48 
L 735.886459 612.096 
L 736.113433 634.464 
L 736.476591 580.512 
L 736.771657 633.312 
L 737.248302 633.024 
L 737.475276 600.864 
L 737.702249 633.888 
L 738.156197 602.496 
L 738.383171 568.896 
L 738.610145 518.784 
L 739.041395 622.08 
L 739.268369 525.408 
L 739.51804 546.528 
L 739.745014 585.696 
L 740.652909 577.92 
L 740.857185 534.816 
L 741.311133 547.008 
L 741.492712 497.952 
L 741.787778 519.936 
L 742.241726 475.68 
L 742.4687 437.568 
L 742.672976 538.656 
L 742.922647 579.744 
L 743.149621 577.056 
L 744.239095 567.936 
L 744.738438 571.104 
L 744.965412 613.92 
L 745.396662 610.368 
L 745.850609 632.544 
L 746.327254 372 
L 746.554228 361.152 
L 746.758505 377.472 
L 747.008176 512.16 
L 747.23515 424.224 
L 747.462124 560.736 
L 747.689097 531.072 
L 748.596993 565.248 
L 749.073638 635.328 
L 749.958836 627.744 
L 750.185809 611.232 
L 750.412783 633.216 
L 750.866731 631.104 
L 752.455548 636.576 
L 753.81739 634.272 
L 754.679891 631.968 
L 755.133839 634.08 
L 755.406207 629.472 
L 756.087129 620.928 
L 756.314102 626.304 
L 756.518379 628.416 
L 757.221998 631.296 
L 757.675945 629.28 
L 757.902919 623.712 
L 758.334169 616.512 
L 758.583841 622.272 
L 758.810814 622.08 
L 759.037788 613.632 
L 759.264762 610.752 
L 759.491736 613.44 
L 759.71871 608.352 
L 760.127263 608.928 
L 760.376934 609.6 
L 760.58121 616.512 
L 761.080553 614.016 
L 761.284829 613.44 
L 761.5345 615.648 
L 761.761474 614.976 
L 761.988448 621.696 
L 762.215422 620.256 
L 762.442396 628.416 
L 762.646672 626.688 
L 762.896343 628.608 
L 763.327593 635.52 
L 764.712134 632.928 
L 764.91641 631.2 
L 765.143384 630.912 
L 767.413122 632.064 
L 767.640096 632.544 
L 768.343715 632.928 
L 769.478584 635.52 
L 770.159505 635.712 
L 771.067401 543.168 
L 771.271677 498.624 
L 771.521348 511.392 
L 771.861809 560.544 
L 772.293059 582.624 
L 772.520033 567.456 
L 772.769704 540.768 
L 772.996678 606.72 
L 773.132862 582.432 
L 773.450626 592.896 
L 773.6776 592.32 
L 773.904573 600.096 
L 774.131547 585.984 
L 774.358521 591.456 
L 774.585495 584.352 
L 774.812469 598.368 
L 775.947338 543.648 
L 776.174312 540.192 
L 776.401285 574.752 
L 776.628259 577.728 
L 776.855233 565.44 
L 777.059509 511.68 
L 777.309181 504.768 
L 780.713788 638.208 
L 781.054249 638.304 
L 781.621683 637.248 
L 782.77925 477.888 
L 783.2105 623.904 
L 783.437474 637.824 
L 783.777934 638.112 
L 784.572343 636.96 
L 787.296029 626.688 
L 787.97695 627.264 
L 788.203924 624.672 
L 788.635174 616.8 
L 788.884845 619.104 
L 789.111819 619.392 
L 789.338793 625.344 
L 789.520372 621.888 
L 789.792741 622.752 
L 790.246688 628.704 
L 790.450965 629.184 
L 790.700636 627.936 
L 791.154584 620.256 
L 791.35886 624.864 
L 791.585834 624.384 
L 792.970374 637.056 
L 793.174651 637.536 
L 793.424322 640.992 
L 793.628598 640.8 
L 793.878269 639.168 
L 794.513796 633.6 
L 794.990441 631.584 
L 796.601955 629.28 
L 797.736824 622.176 
L 798.848996 605.568 
L 799.098667 603.552 
L 799.302944 609.12 
L 799.529917 609.408 
L 800.006562 614.4 
L 800.233536 614.784 
L 800.415115 614.688 
L 800.687484 625.44 
L 800.89176 628.32 
L 801.141432 626.112 
L 801.368405 640.704 
L 801.549984 640.416 
L 801.958537 619.008 
L 802.276301 628.704 
L 802.480577 630.432 
L 802.707551 633.504 
L 819.526311 631.68 
L 820.434206 623.136 
L 821.115128 613.44 
L 821.342101 622.656 
L 821.773352 621.6 
L 822.249997 617.088 
L 822.930918 619.488 
L 823.067102 617.376 
L 823.384866 608.736 
L 824.065787 609.408 
L 824.292761 613.92 
L 824.519735 593.28 
L 824.724011 593.088 
L 825.200656 601.632 
L 825.42763 614.4 
L 826.108552 617.856 
L 826.562499 610.272 
L 826.789473 614.784 
L 827.470394 609.312 
L 827.697368 607.296 
L 827.833553 601.248 
L 828.151316 602.88 
L 828.332895 608.256 
L 828.80954 630.72 
L 829.036514 631.968 
L 829.286185 629.952 
L 829.513159 631.104 
L 829.967106 629.376 
L 830.648028 627.936 
L 830.875002 626.592 
L 831.714805 616.608 
L 832.146055 620.928 
L 832.690792 618.72 
L 833.598688 621.6 
L 835.187504 634.656 
L 840.725665 631.584 
L 840.975337 630.72 
L 841.429284 627.456 
L 848.238499 643.68 
L 848.692446 643.008 
L 849.577644 534.912 
L 850.281263 637.344 
L 856.840806 634.752 
L 857.090478 629.088 
L 858.202649 629.472 
L 872.842461 633.408 
L 873.773053 627.36 
L 874.000027 622.56 
L 874.453975 618.048 
L 881.944111 636.768 
L 887.84543 632.544 
L 889.411549 636.864 
L 890.115168 634.08 
L 895.789514 621.12 
L 896.243461 612.48 
L 896.470435 614.208 
L 897.151357 626.784 
L 897.832278 628.992 
L 898.286226 619.392 
L 898.717476 611.136 
L 898.967147 612.576 
L 899.194121 615.744 
L 899.398397 594.144 
L 899.625371 612.864 
L 899.852345 606.144 
L 900.102016 602.688 
L 900.533266 615.264 
L 900.782938 626.88 
L 901.009911 623.424 
L 901.236885 626.4 
L 901.463859 631.872 
L 901.690833 631.488 
L 902.371754 624.192 
L 904.028663 630.24 
L 906.752349 629.376 
L 912.426695 635.52 
L 915.604328 636.48 
L 917.647092 629.184 
L 918.554988 631.008 
L 918.781961 629.088 
L 919.440185 616.128 
L 919.916831 623.616 
L 921.48295 621.696 
L 921.732621 611.616 
L 921.959595 608.64 
L 922.186569 616.224 
L 922.390845 614.304 
L 922.595122 616.8 
L 922.86749 622.08 
L 923.094464 617.952 
L 923.253346 416.736 
L 923.775385 620.448 
L 924.183938 620.736 
L 924.910254 628.032 
L 928.995783 640.896 
L 929.20006 640.992 
L 929.858284 633.216 
L 930.811574 634.56 
L 951.534283 629.088 
L 951.783955 622.464 
L 952.010928 620.448 
L 952.237902 616.608 
L 952.646455 624 
L 953.55435 631.008 
L 953.826719 631.488 
L 954.50764 630.432 
L 954.734614 626.976 
L 954.961588 629.568 
L 955.188562 629.76 
L 955.370141 634.368 
L 959.024419 634.848 
L 959.274091 639.168 
L 959.501064 638.976 
L 960.159288 636.192 
L 968.421135 634.56 
L 983.605684 628.416 
L 984.082329 627.648 
L 984.309303 623.712 
L 984.990224 621.024 
L 985.217198 623.424 
L 985.671146 613.152 
L 985.875422 622.368 
L 986.125093 612.576 
L 987.032988 613.632 
L 987.259962 613.248 
L 987.486936 619.968 
L 987.71391 617.568 
L 987.895489 612.192 
L 988.848779 618.24 
L 989.075753 619.392 
L 989.733977 620.64 
L 990.437596 597.6 
L 990.891543 577.824 
L 991.504373 581.952 
L 995.884967 631.872 
L 996.111941 632.256 
L 1011.72774 638.304 
L 1012.408661 637.056 
L 1012.635635 638.016 
L 1013.066885 637.248 
L 1014.6784 636.768 
L 1016.948138 623.04 
L 1017.379388 618.336 
L 1018.536954 628.608 
L 1018.990902 610.08 
L 1019.217876 617.088 
L 1019.44485 619.968 
L 1019.671824 620.16 
L 1019.898797 621.792 
L 1020.034982 618.816 
L 1020.352745 623.232 
L 1020.557021 622.464 
L 1021.237943 616.128 
L 1021.487614 617.088 
L 1021.714588 628.32 
L 1022.395509 633.6 
L 1022.622483 630.72 
L 1022.849457 631.488 
L 1023.076431 623.616 
L 1024.2113 630.048 
L 1027.842881 628.512 
L 1028.069855 631.776 
L 1029.204724 630.816 
L 1029.431698 632.736 
L 1030.089922 644.16 
L 1030.339593 644.256 
L 1030.748146 634.176 
L 1049.496183 625.536 
L 1049.677762 630.336 
L 1050.177105 629.28 
L 1050.404078 627.552 
L 1052.878093 619.104 
L 1053.105067 617.856 
L 1053.354738 608.448 
L 1053.808686 610.56 
L 1054.03566 603.552 
L 1054.262633 604.992 
L 1054.489607 597.12 
L 1055.352108 615.744 
L 1056.010332 618.144 
L 1056.532372 617.472 
L 1056.963622 613.632 
L 1057.894214 635.328 
L 1058.80211 621.216 
L 1059.029084 623.904 
L 1060.141255 610.944 
L 1060.6179 615.072 
L 1060.844874 614.016 
L 1061.071848 613.92 
L 1061.298822 615.648 
L 1061.752769 627.936 
L 1061.957046 628.512 
L 1062.433691 630.336 
L 1066.723496 633.504 
L 1067.563299 600.192 
L 1068.108036 517.056 
L 1068.403102 491.04 
L 1077.43666 642.528 
L 1077.663634 642.432 
L 1077.890608 633.12 
L 1079.706398 636.576 
L 1080.614294 637.44 
L 1082.430084 630.432 
L 1083.24719 613.056 
L 1084.245875 626.784 
L 1088.036338 616.512 
L 1125.055767 633.984 
L 1128.233401 634.944 
L 1129.095901 636.384 
L 1129.36827 635.328 
L 1129.822217 630.72 
L 1130.026494 623.712 
L 1130.730113 626.016 
L 1131.18406 618.528 
L 1131.411034 618.048 
L 1131.615311 617.952 
L 1131.864982 612.192 
L 1132.296232 630.336 
L 1141.034724 636.192 
L 1141.284395 635.616 
L 1144.893279 635.232 
L 1146.913346 629.376 
L 1147.185714 629.568 
L 1147.412688 630.912 
L 1147.639662 628.32 
L 1148.09361 620.832 
L 1148.320584 619.584 
L 1148.774531 627.072 
L 1149.455453 629.088 
L 1149.9094 623.328 
L 1150.136374 627.744 
L 1150.363348 626.4 
L 1150.998875 621.12 
L 1151.498217 587.712 
L 1151.725191 547.488 
L 1151.952165 541.344 
L 1152.156441 574.656 
L 1152.633086 599.616 
L 1152.837363 578.016 
L 1153.064336 587.808 
L 1153.314008 620.352 
L 1153.518284 617.472 
L 1153.745258 631.968 
L 1154.653153 633.024 
L 1154.902824 632.544 
L 1155.356772 630.624 
L 1155.583746 629.76 
L 1155.81072 633.216 
L 1156.037693 631.68 
L 1157.830787 640.608 
L 1158.080458 631.2 
L 1158.307432 629.76 
L 1158.511708 630.048 
L 1158.988353 634.464 
L 1159.442301 632.928 
L 1159.669274 631.392 
L 1159.896248 631.008 
L 1160.350196 634.56 
L 1161.666644 634.464 
L 1161.939013 633.984 
L 1162.165986 633.12 
L 1162.370263 634.368 
L 1180.074221 633.12 
L 1180.482774 625.728 
L 1180.936721 616.896 
L 1181.186392 617.856 
L 1181.617643 631.68 
L 1181.890011 632.544 
L 1182.548235 630.72 
L 1183.002183 626.688 
L 1183.251854 626.112 
L 1183.478828 624.96 
L 1183.705802 626.976 
L 1183.932776 626.304 
L 1184.159749 626.784 
L 1184.613697 628.416 
L 1184.817974 625.632 
L 1185.294619 622.752 
L 1187.791331 637.056 
L 1187.995607 638.976 
L 1188.245278 637.536 
L 1190.061069 632.928 
L 1190.265345 631.584 
L 1193.011728 618.816 
L 1193.669952 589.632 
L 1194.169295 589.728 
L 1194.328176 581.28 
L 1194.827519 623.04 
L 1208.377856 636.96 
L 1208.60483 637.632 
L 1209.058777 637.152 
L 1209.966673 637.344 
L 1211.555489 634.368 
L 1212.690358 628.128 
L 1212.917332 625.92 
L 1213.167003 618.72 
L 1213.80253 613.344 
L 1214.75582 628.32 
L 1215.641018 620.352 
L 1216.094966 610.848 
L 1216.321939 619.872 
L 1216.571611 616.704 
L 1217.229835 592.416 
L 1217.456809 601.344 
L 1217.683782 595.488 
L 1217.933454 579.84 
L 1218.160427 590.016 
L 1218.614375 601.92 
L 1219.068323 588.48 
L 1219.295296 600.576 
L 1219.749244 593.28 
L 1220.1351 607.68 
L 1220.657139 616.032 
L 1220.861416 621.888 
L 1222.813391 631.968 
L 1240.540046 638.208 
L 1240.76702 637.056 
L 1241.674915 584.16 
L 1241.901889 477.408 
L 1242.128863 477.696 
L 1243.263732 636.288 
L 1243.468008 636.096 
L 1245.53347 631.296 
L 1246.441365 617.088 
L 1246.895313 627.552 
L 1247.099589 628.32 
L 1247.326563 631.392 
L 1247.803208 629.28 
L 1248.030182 626.784 
L 1248.711103 610.176 
L 1249.618999 593.76 
L 1249.845972 597.792 
L 1250.050249 586.944 
L 1250.29992 614.88 
L 1250.526894 616.704 
L 1251.230513 628.896 
L 1251.457486 625.152 
L 1251.68446 611.232 
L 1251.911434 608.352 
L 1252.365382 613.056 
L 1252.592356 610.176 
L 1252.796632 611.904 
L 1253.023606 612.672 
L 1256.655187 630.048 
L 1258.039727 631.008 
L 1258.470977 637.44 
L 1258.720649 637.056 
L 1259.174596 639.36 
L 1259.40157 638.496 
L 1259.583149 630.048 
L 1260.491044 635.424 
L 1273.473947 636.768 
L 1273.950592 609.6 
L 1274.177566 637.056 
L 1276.901251 633.408 
L 1277.332502 632.64 
L 1277.559476 592.896 
L 1278.285792 627.072 
L 1278.444673 624 
L 1278.717042 621.12 
L 1278.921318 623.328 
L 1279.17099 624.384 
L 1279.397963 626.4 
L 1279.851911 631.968 
L 1280.305859 629.28 
L 1280.510135 624.288 
L 1280.759806 621.216 
L 1280.98678 615.936 
L 1281.440728 612.672 
L 1281.667702 615.936 
L 1281.894675 613.536 
L 1282.098952 600 
L 1282.711781 589.248 
L 1283.801256 596.544 
L 1284.119019 578.112 
L 1284.618361 566.976 
L 1284.822638 593.664 
L 1285.072309 583.2 
L 1285.299283 588.864 
L 1285.526257 573.024 
L 1285.934809 580.608 
L 1286.434152 619.488 
L 1286.661126 623.232 
L 1287.342047 629.088 
L 1288.249942 625.536 
L 1288.70389 623.04 
L 1288.908166 625.824 
L 1289.362114 627.36 
L 1290.292707 628.224 
L 1290.973628 631.008 
L 1293.924288 621.504 
L 1294.151262 621.408 
L 1298.463764 630.432 
L 1299.598633 616.512 
L 1314.465418 632.928 
L 1316.303906 630.528 
L 1316.553577 631.968 
L 1317.824631 627.648 
L 1318.596342 631.488 
L 1320.86608 632.928 
L 1325.178583 635.232 
L 1325.405556 629.856 
L 1326.290754 631.488 
L 1326.767399 613.056 
L 1326.971676 611.712 
L 1327.221347 603.072 
L 1327.402926 574.944 
L 1327.652597 594.624 
L 1327.879571 589.824 
L 1328.129242 595.68 
L 1328.310821 620.544 
L 1328.58319 624.672 
L 1339.023985 637.536 
L 1340.658197 636.384 
L 1345.606226 631.968 
L 1346.559516 634.944 
L 1347.013464 637.248 
L 1347.21774 636.576 
L 1347.921359 633.792 
L 1349.237807 630.528 
L 1352.006888 637.248 
L 1352.438138 616.224 
L 1352.914783 611.808 
L 1353.11906 622.944 
L 1353.323336 617.376 
L 1353.595705 614.496 
L 1353.799981 617.088 
L 1354.276626 627.36 
L 1354.730574 620.736 
L 1355.184521 616.224 
L 1355.593074 593.376 
L 1355.865443 598.944 
L 1356.069719 606.624 
L 1356.31939 596.544 
L 1356.546364 598.08 
L 1356.773338 576.576 
L 1356.977614 601.44 
L 1357.181891 609.408 
L 1358.135181 628.896 
L 1358.566431 627.744 
L 1359.043076 633.6 
L 1359.950971 632.448 
L 1361.085841 631.968 
L 1362.674657 631.584 
L 1372.411834 637.056 
L 1373.115453 636.672 
L 1375.680257 631.104 
L 1376.156902 631.872 
L 1376.633547 621.12 
L 1377.110192 623.712 
L 1377.337166 629.856 
L 1377.56414 629.28 
L 1379.606904 621.312 
L 1380.060852 616.416 
L 1380.287826 619.968 
L 1380.492102 618.336 
L 1380.650984 619.296 
L 1380.968747 622.272 
L 1381.422695 623.136 
L 1384.350657 632.16 
L 1384.827302 635.808 
L 1387.324014 633.312 
L 1389.139804 630.912 
L 1390.0477 635.712 
L 1391.137174 631.008 
L 1404.755603 618.432 
L 1405.027972 582.144 
L 1405.232248 576.192 
L 1408.704948 632.256 
L 1408.931921 633.216 
L 1409.158895 632.16 
L 1409.385869 626.4 
L 1409.839817 623.328 
L 1410.498041 632.832 
L 1412.109555 636.096 
L 1412.336529 635.136 
L 1412.563503 636.672 
L 1412.767779 603.36 
L 1412.994753 637.056 
L 1413.698372 631.296 
L 1416.39936 634.464 
L 1416.626334 637.056 
L 1417.012189 639.264 
L 1417.556926 634.56 
L 1417.7839 635.904 
L 1427.679959 633.888 
L 1427.906933 635.328 
L 1429.495749 631.104 
L 1430.35825 603.84 
L 1440.390493 631.68 
L 1440.84444 631.68 
L 1442.637533 627.84 
L 1442.887205 631.2 
L 1443.114178 627.168 
L 1443.568126 633.024 
L 1449.015498 634.368 
L 1449.900696 643.488 
L 1453.75925 633.504 
L 1457.163858 631.584 
L 1457.368134 631.296 
L 1460.704649 630.144 
L 1461.839518 533.76 
L 1462.021097 537.6 
L 1462.293466 548.832 
L 1462.52044 573.984 
L 1462.747414 578.592 
L 1462.928993 574.272 
L 1463.201361 586.656 
L 1463.428335 582.432 
L 1463.655309 582.528 
L 1463.882283 557.76 
L 1464.109257 560.832 
L 1464.313533 567.84 
L 1464.563204 585.312 
L 1465.017152 583.296 
L 1465.244126 556.416 
L 1465.471099 549.312 
L 1465.698073 608.544 
L 1465.90235 628.416 
L 1469.306957 637.92 
L 1469.556628 636.864 
L 1469.738207 637.344 
L 1469.987878 637.44 
L 1470.214852 637.344 
L 1470.441826 637.44 
L 1471.009261 635.904 
L 1471.372419 636.672 
L 1471.599393 636.384 
L 1472.280314 635.808 
L 1473.61946 633.312 
L 1474.323078 631.104 
L 1474.754329 619.584 
L 1475.004 606.816 
L 1475.230974 609.216 
L 1475.457947 613.632 
L 1475.662224 614.304 
L 1475.911895 621.696 
L 1476.365843 624.288 
L 1476.570119 624.096 
L 1476.81979 619.392 
L 1477.046764 617.856 
L 1477.273738 614.208 
L 1477.500712 617.184 
L 1477.931962 627.744 
L 1478.862555 629.376 
L 1479.089529 632.832 
L 1479.293805 629.76 
L 1479.520779 623.904 
L 1479.997424 633.696 
L 1480.224398 632.544 
L 1480.428674 637.632 
L 1481.586241 633.888 
L 1485.399401 630.528 
L 1485.898743 632.448 
L 1486.53427 627.36 
L 1486.761244 627.072 
L 1487.033612 631.872 
L 1487.215191 630.24 
L 1487.48756 635.904 
L 1487.714534 643.968 
L 1487.91881 644.064 
L 1488.123087 637.44 
L 1488.372758 633.408 
L 1488.599732 632.256 
L 1489.076377 634.464 
L 1489.757298 632.448 
L 1492.844142 633.312 
L 1493.29809 618.624 
L 1493.752037 598.848 
L 1493.979011 603.456 
L 1494.205985 584.16 
L 1494.432959 628.512 
L 1503.761583 434.688 
L 1506.258295 633.504 
L 1506.462571 633.504 
L 1507.347769 628.704 
L 1507.620137 625.344 
L 1507.847111 624.672 
L 1508.528033 632.448 
L 1508.98198 631.392 
L 1509.435928 626.496 
L 1509.662902 626.592 
L 1509.889876 625.92 
L 1510.343823 622.176 
L 1510.570797 623.52 
L 1510.775074 619.968 
L 1511.251719 627.648 
L 1511.93264 623.808 
L 1512.159614 619.584 
L 1513.022114 632.16 
L 1514.338562 615.84 
L 1514.860602 587.904 
L 1515.087576 568.512 
L 1515.564221 612.096 
L 1516.018169 619.392 
L 1516.222445 628.032 
L 1516.69909 628.8 
L 1516.926064 622.56 
L 1517.153038 621.504 
L 1517.357314 618.432 
L 1517.606985 623.52 
L 1517.811262 620.736 
L 1518.060933 620.256 
L 1518.287907 618.432 
L 1518.492183 614.688 
L 1518.741855 614.784 
L 1518.855341 613.44 
L 1519.195802 614.4 
L 1519.581658 623.52 
L 1520.534948 632.064 
L 1521.669817 633.12 
L 1540.213578 632.352 
L 1541.575421 629.28 
L 1542.256342 587.712 
L 1542.687592 610.464 
L 1542.891869 631.2 
L 1543.164237 631.488 
L 1543.391211 633.504 
L 1546.750424 628.992 
L 1548.566214 633.12 
L 1554.467534 634.08 
L 1555.579705 632.544 
L 1556.05635 629.856 
L 1556.283324 630.528 
L 1559.233984 636.48 
L 1567.632015 637.728 
L 1568.53991 497.088 
L 1568.766884 506.688 
L 1568.993858 465.6 
L 1569.447806 636.672 
L 1570.582675 636.96 
L 1571.49057 636.864 
L 1574.214256 632.64 
L 1575.803072 636.96 
L 1576.030046 637.248 
L 1581.568207 635.424 
L 1582.703076 634.848 
L 1583.157024 629.472 
L 1587.015579 635.04 
L 1587.242553 634.368 
L 1587.469527 631.968 
L 1587.6965 634.272 
L 1587.87808 633.696 
L 1588.83137 639.744 
L 1589.035646 615.456 
L 1589.26262 608.16 
L 1589.512291 491.136 
L 1589.739265 545.568 
L 1590.170515 597.984 
L 1590.420186 589.248 
L 1590.64716 638.304 
L 1591.101108 638.88 
L 1591.328082 606.432 
L 1601.087956 576.096 
L 1601.31493 528.192 
L 1601.541903 520.32 
L 1601.973154 636.864 
L 1603.13072 637.152 
L 1603.357694 636.672 
L 1603.811642 634.848 
L 1604.038615 635.424 
L 1605.627432 632.16 
L 1605.854406 631.392 
L 1606.08138 633.888 
L 1606.308354 633.696 
L 1608.782368 637.152 
L 1609.259013 633.504 
L 1609.667566 633.504 
L 1612.459344 634.272 
L 1612.935989 632.256 
L 1613.162963 632.64 
L 1615.455398 641.184 
L 1616.13632 632.736 
L 1617.498163 634.944 
L 1619.745204 633.6 
L 1619.972177 634.464 
L 1621.107046 632.448 
L 1621.33402 632.832 
L 1621.787968 632.928 
L 1623.149811 633.024 
L 1624.035009 633.408 
L 1633.590606 636.96 
L 1633.81758 542.208 
L 1634.021857 529.152 
L 1634.226133 504.384 
L 1637.222188 631.488 
L 1637.835017 629.184 
L 1638.334359 614.976 
L 1638.58403 614.976 
L 1639.015281 623.616 
L 1639.264952 630.72 
L 1639.7189 636.48 
L 1640.172847 632.352 
L 1640.399821 626.496 
L 1640.831071 625.632 
L 1640.921861 623.424 
L 1641.171532 629.28 
L 1641.62548 633.312 
L 1642.48798 631.776 
L 1643.395875 632.256 
L 1645.257061 636 
L 1645.711008 639.648 
L 1645.937982 635.904 
L 1646.142259 636.672 
L 1646.618904 635.904 
L 1646.845877 636.576 
L 1647.935352 631.392 
L 1648.888642 641.088 
L 1649.115616 569.376 
L 1649.319892 564.288 
L 1649.77384 643.968 
L 1649.978116 645.888 
L 1650.250485 632.256 
L 1650.704432 633.888 
L 1653.655092 632.16 
L 1653.836671 633.408 
L 1654.789961 633.312 
L 1666.07056 596.928 
L 1666.819573 636.192 
L 1669.316285 631.296 
L 1669.770233 628.608 
L 1669.997207 616.8 
L 1670.224181 610.944 
L 1670.451155 613.248 
L 1670.678128 618.048 
L 1671.109379 632.064 
L 1671.812997 633.696 
L 1672.720893 629.184 
L 1673.401814 618.912 
L 1674.105433 635.712 
L 1677.555435 633.792 
L 1679.371226 633.6 
L 1679.825173 630.432 
L 1680.506095 627.552 
L 1680.687674 629.856 
L 1681.187016 630.24 
L 1681.391293 632.256 
L 1681.640964 627.456 
L 1681.84524 627.36 
L 1682.049517 629.472 
L 1682.321885 626.4 
L 1682.548859 620.64 
L 1682.775833 620.256 
L 1683.002807 619.2 
L 1683.683728 609.792 
L 1684.137676 604.032 
L 1684.319255 603.168 
L 1684.568926 596.64 
L 1684.818597 599.424 
L 1685.045571 597.024 
L 1685.272545 600.288 
L 1685.499519 596.832 
L 1685.953466 612 
L 1686.157743 616.416 
L 1687.996231 634.56 
L 1689.585047 635.232 
L 1689.812021 632.832 
L 1690.038995 634.272 
L 1690.492943 634.752 
L 1692.081759 635.52 
L 1692.535707 636.384 
L 1697.756105 635.04 
L 1698.210052 636.768 
L 1698.437026 635.328 
L 1698.664 635.712 
L 1698.890974 636.96 
L 1699.117948 635.136 
L 1699.254132 635.808 
L 1699.798869 634.944 
L 1700.025843 634.848 
L 1700.933738 635.04 
L 1701.160712 633.984 
L 1701.61466 634.368 
L 1702.068607 626.208 
L 1702.976503 620.448 
L 1703.203476 616.704 
L 1703.43045 616.512 
L 1703.634727 614.016 
L 1703.884398 606.624 
L 1704.111372 608.736 
L 1704.338346 594.72 
L 1704.565319 604.704 
L 1704.769596 599.808 
L 1704.99657 616.8 
L 1705.246241 614.592 
L 1705.473215 628.416 
L 1705.927162 627.456 
L 1706.154136 631.68 
L 1706.38111 631.008 
L 1706.676176 631.584 
L 1706.90315 631.008 
L 1708.28769 639.36 
L 1708.514664 639.072 
L 1708.673545 641.088 
L 1708.968611 639.744 
L 1709.195585 639.456 
L 1709.626836 630.72 
L 1709.853809 633.312 
L 1710.330454 632.736 
L 1710.466639 633.696 
L 1712.373219 629.568 
L 1712.600193 626.688 
L 1713.258417 625.728 
L 1713.48539 627.84 
L 1713.735062 627.264 
L 1713.962035 628.128 
L 1714.166312 620.736 
L 1714.393286 628.32 
L 1714.62026 627.84 
L 1714.869931 630.912 
L 1715.323878 628.896 
L 1715.528155 624.576 
L 1715.777826 625.536 
L 1715.982102 626.976 
L 1716.186379 631.776 
L 1716.458747 641.472 
L 1716.685721 640.992 
L 1716.889998 630.24 
L 1717.593617 615.168 
L 1717.82059 610.464 
L 1718.047564 615.552 
L 1718.456117 630.816 
L 1718.728486 633.216 
L 1719.182433 632.064 
L 1719.409407 632.544 
L 1731.302835 612.384 
L 1734.843627 633.312 
L 1735.047903 632.448 
L 1735.297574 628.416 
L 1735.524548 615.168 
L 1735.751522 616.032 
L 1735.978496 614.304 
L 1736.432443 607.488 
L 1736.659417 611.328 
L 1736.886391 607.104 
L 1737.022575 615.456 
L 1737.340339 616.704 
L 1737.567313 629.664 
L 1738.475208 631.872 
L 1738.702182 631.776 
L 1738.929155 630.624 
L 1739.156129 625.536 
L 1739.360406 624.192 
L 1739.610077 621.12 
L 1739.837051 622.08 
L 1740.200209 628.896 
L 1740.427183 633.12 
L 1740.858433 627.168 
L 1741.176196 624.864 
L 1741.49396 614.592 
L 1741.789026 609.696 
L 1741.993302 620.16 
L 1742.197578 618.624 
L 1742.674223 623.232 
L 1742.923895 623.904 
L 1743.377842 615.168 
L 1743.604816 624.576 
L 1744.058764 635.424 
L 1744.739685 633.888 
L 1745.420607 630.048 
L 1745.624883 627.84 
L 1745.874554 618.72 
L 1746.101528 617.376 
L 1746.555476 611.136 
L 1747.236397 605.856 
L 1748.144292 604.8 
L 1748.371266 609.312 
L 1748.59824 607.2 
L 1748.825214 607.968 
L 1749.279162 611.712 
L 1749.483438 617.664 
L 1749.733109 620.832 
L 1750.187057 622.56 
L 1750.641004 618.72 
L 1751.163044 625.632 
L 1751.390018 625.728 
L 1751.616992 628.8 
L 1752.297913 632.352 
L 1754.113704 631.776 
L 1754.295283 630.72 
L 1754.567651 631.68 
L 1755.248573 639.744 
L 1761.376866 636.576 
L 1763.873578 643.296 
L 1764.327526 636.672 
L 1764.531802 603.168 
L 1764.917658 459.84 
L 1766.37029 636.192 
L 1768.844305 634.272 
L 1770.001871 622.176 
L 1770.206148 625.632 
L 1770.433121 621.024 
L 1770.682793 622.272 
L 1771.341017 632.064 
L 1772.044635 626.592 
L 1772.271609 622.368 
L 1772.498583 623.808 
L 1772.52128 623.616 
L 1775.99398 634.848 
L 1776.243651 634.752 
L 1777.80977 634.752 
L 1778.967337 635.04 
L 1781.464049 625.824 
L 1781.668325 622.656 
L 1781.917997 621.12 
L 1782.14497 615.552 
L 1782.371944 618.912 
L 1782.598918 627.648 
L 1782.825892 631.296 
L 1783.279839 630.528 
L 1783.506813 633.216 
L 1783.733787 631.968 
L 1783.960761 632.544 
L 1784.165037 629.472 
L 1784.414709 630.624 
L 1784.618985 632.832 
L 1784.868656 627.744 
L 1785.09563 625.92 
L 1785.322604 630.912 
L 1785.776551 632.832 
L 1786.457473 633.408 
L 1787.115697 634.272 
L 1788.04629 636.96 
L 1789.385435 634.464 
L 1791.223923 632.928 
L 1796.648597 636.672 
L 1796.898269 636.576 
L 1797.783466 637.248 
L 1799.168007 636.864 
L 1799.372283 636.96 
L 1799.553862 636.864 
L 1799.848928 636 
L 1800.075902 636.672 
L 1801.210771 636.48 
L 1802.118666 635.328 
L 1802.799588 635.712 
L 1804.138733 635.328 
L 1804.819655 637.44 
L 1805.523274 634.656 
L 1805.750247 635.424 
L 1805.977221 635.52 
L 1806.431169 634.944 
L 1806.612748 634.464 
L 1807.747617 635.328 
L 1808.700907 636.576 
L 1809.6315 635.04 
L 1810.085447 634.656 
L 1810.312421 633.792 
L 1810.766369 634.656 
L 1811.243014 635.136 
L 1811.469988 633.408 
L 1811.674264 633.504 
L 1811.923935 631.2 
L 1812.128212 632.256 
L 1812.355186 630.432 
L 1812.582159 631.392 
L 1813.058804 627.648 
L 1813.217686 630.912 
L 1813.739726 633.984 
L 1813.9667 634.368 
L 1814.647621 633.696 
L 1815.101569 633.984 
L 1815.328543 633.216 
L 1815.759793 634.08 
L 1816.236438 632.64 
L 1816.418017 632.928 
L 1816.667688 631.392 
L 1817.325912 635.808 
L 1817.575583 641.664 
L 1817.802557 641.376 
L 1818.029531 644.064 
L 1818.256505 643.968 
L 1818.483479 644.064 
L 1818.687755 644.352 
L 1819.141703 644.352 
L 1819.391374 640.896 
L 1819.618348 642.048 
L 1819.845322 642.24 
L 1820.072295 642.048 
L 1820.526243 635.616 
L 1824.861443 636.384 
L 1825.973615 635.136 
L 1827.562431 636.576 
L 1827.789405 636.096 
L 1828.016379 635.904 
L 1828.243353 636.288 
L 1828.470327 636.288 
L 1828.6973 635.712 
L 1829.151248 636.768 
L 1829.605196 637.056 
L 1830.059143 636.672 
L 1832.555855 632.448 
L 1832.805527 632.544 
L 1833.236777 634.656 
L 1833.463751 633.408 
L 1833.690724 633.024 
L 1833.917698 632.064 
L 1834.144672 626.016 
L 1834.371646 626.208 
L 1834.553225 621.696 
L 1835.052567 632.544 
L 1835.279541 634.656 
L 1835.960463 634.944 
L 1836.187436 634.176 
L 1836.41441 632.64 
L 1837.322306 613.056 
L 1837.549279 611.136 
L 1837.776253 592.512 
L 1838.003227 587.904 
L 1838.230201 611.04 
L 1838.457175 620.256 
L 1838.706846 619.488 
L 1839.138096 612.96 
L 1839.36507 616.704 
L 1839.592044 614.88 
L 1839.819018 621.984 
L 1840.045991 619.872 
L 1840.272965 619.2 
L 1840.454544 621.408 
L 1840.953887 632.736 
L 1841.385137 632.928 
L 1841.612111 631.296 
L 1841.861782 631.488 
L 1842.020664 631.2 
L 1842.247637 633.12 
L 1842.701585 631.2 
L 1844.290402 641.568 
L 1844.971323 632.064 
L 1845.198297 633.6 
L 1845.402573 633.6 
L 1845.879218 634.176 
L 1846.083495 633.984 
L 1846.333166 630.144 
L 1846.537443 633.984 
L 1846.787114 634.176 
L 1847.921983 634.272 
L 1848.126259 634.08 
L 1848.37593 632.832 
L 1848.829878 632.64 
L 1849.5108 633.312 
L 1853.142381 634.944 
L 1853.596328 634.176 
L 1855.639093 635.136 
L 1858.794029 635.424 
L 1860.178569 635.808 
L 1860.405543 635.52 
L 1861.086464 636.384 
L 1861.767386 636.288 
L 1861.948965 637.056 
L 1862.221333 637.248 
L 1862.902255 636.864 
L 1863.81015 635.52 
L 1865.625941 630.816 
L 1865.852914 631.488 
L 1866.057191 633.408 
L 1866.284165 632.832 
L 1866.511139 631.776 
L 1866.76081 628.896 
L 1866.987784 638.304 
L 1867.214757 629.184 
L 1867.441731 636.096 
L 1867.895679 629.568 
L 1868.122653 632.64 
L 1868.349626 633.984 
L 1869.030548 633.696 
L 1871.300286 622.944 
L 1871.504563 620.544 
L 1871.708839 623.328 
L 1871.95851 623.616 
L 1872.321668 632.736 
L 1872.662129 632.352 
L 1873.297656 634.464 
L 1874.023972 635.616 
L 1874.250946 636.288 
L 1874.455222 638.976 
L 1874.682196 639.072 
L 1874.931867 636.768 
L 1875.158841 636.288 
L 1875.363117 636.576 
L 1875.590091 636.192 
L 1876.475289 632.928 
L 1876.656868 632.736 
L 1877.837132 634.752 
L 1877.927922 630.816 
L 1879.221672 635.424 
L 1879.630225 633.792 
L 1879.879896 634.848 
L 1881.037463 634.08 
L 1881.922661 634.368 
L 1882.853253 633.792 
L 1885.100294 633.984 
L 1886.030887 633.504 
L 1886.689111 634.848 
L 1888.981547 636.096 
L 1889.662468 636.192 
L 1890.524968 636.48 
L 1890.797337 635.808 
L 1891.024311 634.848 
L 1891.251285 635.808 
L 1892.15918 636.384 
L 1892.363456 636 
L 1893.067075 636.096 
L 1893.271352 635.712 
L 1893.521023 636.192 
L 1893.747997 635.904 
L 1893.974971 635.808 
L 1894.201944 636 
L 1894.428918 635.904 
L 1894.837471 607.488 
L 1895.10984 637.152 
L 1895.336813 636.768 
L 1896.017735 636.288 
L 1896.244709 636.864 
L 1896.471683 636.192 
L 1896.675959 634.656 
L 1897.379578 634.56 
L 1897.561157 635.616 
L 1898.060499 633.408 
L 1898.287473 633.504 
L 1899.195368 630.72 
L 1899.422342 628.128 
L 1899.649316 619.776 
L 1899.853592 618.336 
L 1900.080566 614.976 
L 1900.30754 619.776 
L 1900.557211 619.008 
L 1901.215435 634.272 
L 1901.442409 634.56 
L 1901.919054 633.12 
L 1902.146028 628.608 
L 1902.373002 627.168 
L 1902.599976 630.144 
L 1902.826949 623.04 
L 1903.008528 610.176 
L 1903.2582 616.896 
L 1903.507871 631.872 
L 1905.096688 635.712 
L 1905.323661 634.752 
L 1905.550635 635.232 
L 1905.732214 635.328 
L 1906.004583 633.792 
L 1906.912478 635.232 
L 1907.366426 633.12 
L 1907.5934 635.712 
L 1907.820373 631.872 
L 1908.001952 633.024 
L 1908.274321 632.928 
L 1909.068729 633.984 
L 1909.318401 631.776 
L 1909.545374 633.888 
L 1909.976625 634.08 
L 1910.203598 632.544 
L 1910.45327 633.6 
L 1910.680244 633.024 
L 1910.907217 634.944 
L 1911.361165 631.68 
L 1911.565441 632.64 
L 1912.246363 632.736 
L 1912.723008 635.04 
L 1912.927284 632.64 
L 1913.630903 634.368 
L 1913.83518 634.176 
L 1914.039456 635.424 
L 1914.311825 634.752 
L 1914.765772 634.656 
L 1914.992746 633.216 
L 1915.423996 635.04 
L 1915.673668 634.464 
L 1915.855247 633.312 
L 1916.104918 635.616 
L 1916.309194 635.232 
L 1916.808537 634.944 
L 1917.03551 635.616 
L 1917.262484 634.848 
L 1917.489458 634.56 
L 1917.716432 635.136 
L 1917.943406 634.176 
L 1918.17038 631.968 
L 1919.305249 557.856 
L 1919.759196 587.04 
L 1919.98617 592.224 
L 1920.213144 541.728 
L 1920.894065 607.776 
L 1921.348013 634.656 
L 1921.574987 636.288 
L 1921.801961 635.52 
L 1922.255908 636.288 
L 1922.482882 635.808 
L 1922.709856 636.192 
L 1922.93683 634.848 
L 1923.390777 635.904 
L 1923.595054 635.52 
L 1928.838149 636.768 
L 1929.042425 636.576 
L 1929.292097 635.328 
L 1929.51907 637.056 
L 1929.746044 635.232 
L 1930.199992 636.096 
L 1930.426966 635.136 
L 1930.858216 633.888 
L 1931.107887 633.792 
L 1931.334861 632.736 
L 1931.539137 633.024 
L 1931.788809 631.968 
L 1932.015782 630.144 
L 1932.90098 618.816 
L 1933.150651 619.776 
L 1933.604599 627.84 
L 1933.831573 629.28 
L 1934.058547 626.304 
L 1934.285521 629.184 
L 1935.193416 606.528 
L 1935.42039 607.008 
L 1935.647363 606.816 
L 1935.874337 603.744 
L 1936.28289 623.424 
L 1936.555259 628.704 
L 1936.782233 637.152 
L 1937.463154 641.28 
L 1937.917102 639.936 
L 1938.144075 633.216 
L 1938.371049 633.12 
L 1938.575326 633.696 
L 1938.8023 632.352 
L 1938.983879 632.832 
L 1939.278945 633.024 
L 1939.483221 634.56 
L 1939.937169 631.008 
L 1940.413814 633.6 
L 1940.640787 633.312 
L 1940.867761 634.272 
L 1941.072038 633.504 
L 1941.548683 633.696 
L 1941.843749 627.072 
L 1942.070723 627.552 
L 1942.297696 627.744 
L 1942.52467 626.016 
L 1942.728947 625.44 
L 1942.95592 623.52 
L 1943.205592 629.856 
L 1943.432565 629.472 
L 1943.795724 627.264 
L 1944 627.936 
L 1944 627.936 
" style="fill:none;stroke:#0000ff;stroke-linecap:square;"/>
   </g>
   <g id="line2d_2">
    <defs>
     <path d="M 0 3 
C 0.795609 3 1.55874 2.683901 2.12132 2.12132 
C 2.683901 1.55874 3 0.795609 3 0 
C 3 -0.795609 2.683901 -1.55874 2.12132 -2.12132 
C 1.55874 -2.683901 0.795609 -3 0 -3 
C -0.795609 -3 -1.55874 -2.683901 -2.12132 -2.12132 
C -2.683901 -1.55874 -3 -0.795609 -3 0 
C -3 0.795609 -2.683901 1.55874 -2.12132 2.12132 
C -1.55874 2.683901 -0.795609 3 0 3 
z
" id="m0193174e6d" style="stroke:#000000;stroke-width:0.5;"/>
    </defs>
    <g clip-path="url(#p691d8d52bb)">
     <use style="fill:#ff0000;stroke:#000000;stroke-width:0.5;" x="510.864615675" xlink:href="#m0193174e6d" y="441.12"/>
     <use style="fill:#ff0000;stroke:#000000;stroke-width:0.5;" x="588.966306452" xlink:href="#m0193174e6d" y="123.744"/>
     <use style="fill:#ff0000;stroke:#000000;stroke-width:0.5;" x="727.828888312" xlink:href="#m0193174e6d" y="349.824"/>
    </g>
   </g>
   <g id="patch_3">
    <path d="M 270 72 
L 1944 72 
" style="fill:none;stroke:#000000;stroke-linecap:square;stroke-linejoin:miter;"/>
   </g>
   <g id="patch_4">
    <path d="M 1944 648 
L 1944 72 
" style="fill:none;stroke:#000000;stroke-linecap:square;stroke-linejoin:miter;"/>
   </g>
   <g id="patch_5">
    <path d="M 270 648 
L 1944 648 
" style="fill:none;stroke:#000000;stroke-linecap:square;stroke-linejoin:miter;"/>
   </g>
   <g id="patch_6">
    <path d="M 270 648 
L 270 72 
" style="fill:none;stroke:#000000;stroke-linecap:square;stroke-linejoin:miter;"/>
   </g>
   <g id="matplotlib.axis_1">
    <g id="xtick_1">
     <g id="line2d_3">
      <defs>
       <path d="M 0 0 
L 0 -4 
" id="m04aba3a50b" style="stroke:#000000;stroke-width:0.5;"/>
      </defs>
      <g>
       <use style="stroke:#000000;stroke-width:0.5;" x="449.854053393" xlink:href="#m04aba3a50b" y="648.0"/>
      </g>
     </g>
     <g id="line2d_4">
      <defs>
       <path d="M 0 0 
L 0 4 
" id="m6532a29ed8" style="stroke:#000000;stroke-width:0.5;"/>
      </defs>
      <g>
       <use style="stroke:#000000;stroke-width:0.5;" x="449.854053393" xlink:href="#m6532a29ed8" y="72.0"/>
      </g>
     </g>
     <g id="text_1">
      <!-- Aug 03 2015 -->
      <defs>
       <path d="M 19.1875 8.296875 
L 53.609375 8.296875 
L 53.609375 0 
L 7.328125 0 
L 7.328125 8.296875 
Q 12.9375 14.109375 22.625 23.890625 
Q 32.328125 33.6875 34.8125 36.53125 
Q 39.546875 41.84375 41.421875 45.53125 
Q 43.3125 49.21875 43.3125 52.78125 
Q 43.3125 58.59375 39.234375 62.25 
Q 35.15625 65.921875 28.609375 65.921875 
Q 23.96875 65.921875 18.8125 64.3125 
Q 13.671875 62.703125 7.8125 59.421875 
L 7.8125 69.390625 
Q 13.765625 71.78125 18.9375 73 
Q 24.125 74.21875 28.421875 74.21875 
Q 39.75 74.21875 46.484375 68.546875 
Q 53.21875 62.890625 53.21875 53.421875 
Q 53.21875 48.921875 51.53125 44.890625 
Q 49.859375 40.875 45.40625 35.40625 
Q 44.1875 33.984375 37.640625 27.21875 
Q 31.109375 20.453125 19.1875 8.296875 
" id="BitstreamVeraSans-Roman-32"/>
       <path id="BitstreamVeraSans-Roman-20"/>
       <path d="M 31.78125 66.40625 
Q 24.171875 66.40625 20.328125 58.90625 
Q 16.5 51.421875 16.5 36.375 
Q 16.5 21.390625 20.328125 13.890625 
Q 24.171875 6.390625 31.78125 6.390625 
Q 39.453125 6.390625 43.28125 13.890625 
Q 47.125 21.390625 47.125 36.375 
Q 47.125 51.421875 43.28125 58.90625 
Q 39.453125 66.40625 31.78125 66.40625 
M 31.78125 74.21875 
Q 44.046875 74.21875 50.515625 64.515625 
Q 56.984375 54.828125 56.984375 36.375 
Q 56.984375 17.96875 50.515625 8.265625 
Q 44.046875 -1.421875 31.78125 -1.421875 
Q 19.53125 -1.421875 13.0625 8.265625 
Q 6.59375 17.96875 6.59375 36.375 
Q 6.59375 54.828125 13.0625 64.515625 
Q 19.53125 74.21875 31.78125 74.21875 
" id="BitstreamVeraSans-Roman-30"/>
       <path d="M 12.40625 8.296875 
L 28.515625 8.296875 
L 28.515625 63.921875 
L 10.984375 60.40625 
L 10.984375 69.390625 
L 28.421875 72.90625 
L 38.28125 72.90625 
L 38.28125 8.296875 
L 54.390625 8.296875 
L 54.390625 0 
L 12.40625 0 
z
" id="BitstreamVeraSans-Roman-31"/>
       <path d="M 40.578125 39.3125 
Q 47.65625 37.796875 51.625 33 
Q 55.609375 28.21875 55.609375 21.1875 
Q 55.609375 10.40625 48.1875 4.484375 
Q 40.765625 -1.421875 27.09375 -1.421875 
Q 22.515625 -1.421875 17.65625 -0.515625 
Q 12.796875 0.390625 7.625 2.203125 
L 7.625 11.71875 
Q 11.71875 9.328125 16.59375 8.109375 
Q 21.484375 6.890625 26.8125 6.890625 
Q 36.078125 6.890625 40.9375 10.546875 
Q 45.796875 14.203125 45.796875 21.1875 
Q 45.796875 27.640625 41.28125 31.265625 
Q 36.765625 34.90625 28.71875 34.90625 
L 20.21875 34.90625 
L 20.21875 43.015625 
L 29.109375 43.015625 
Q 36.375 43.015625 40.234375 45.921875 
Q 44.09375 48.828125 44.09375 54.296875 
Q 44.09375 59.90625 40.109375 62.90625 
Q 36.140625 65.921875 28.71875 65.921875 
Q 24.65625 65.921875 20.015625 65.03125 
Q 15.375 64.15625 9.8125 62.3125 
L 9.8125 71.09375 
Q 15.4375 72.65625 20.34375 73.4375 
Q 25.25 74.21875 29.59375 74.21875 
Q 40.828125 74.21875 47.359375 69.109375 
Q 53.90625 64.015625 53.90625 55.328125 
Q 53.90625 49.265625 50.4375 45.09375 
Q 46.96875 40.921875 40.578125 39.3125 
" id="BitstreamVeraSans-Roman-33"/>
       <path d="M 10.796875 72.90625 
L 49.515625 72.90625 
L 49.515625 64.59375 
L 19.828125 64.59375 
L 19.828125 46.734375 
Q 21.96875 47.46875 24.109375 47.828125 
Q 26.265625 48.1875 28.421875 48.1875 
Q 40.625 48.1875 47.75 41.5 
Q 54.890625 34.8125 54.890625 23.390625 
Q 54.890625 11.625 47.5625 5.09375 
Q 40.234375 -1.421875 26.90625 -1.421875 
Q 22.3125 -1.421875 17.546875 -0.640625 
Q 12.796875 0.140625 7.71875 1.703125 
L 7.71875 11.625 
Q 12.109375 9.234375 16.796875 8.0625 
Q 21.484375 6.890625 26.703125 6.890625 
Q 35.15625 6.890625 40.078125 11.328125 
Q 45.015625 15.765625 45.015625 23.390625 
Q 45.015625 31 40.078125 35.4375 
Q 35.15625 39.890625 26.703125 39.890625 
Q 22.75 39.890625 18.8125 39.015625 
Q 14.890625 38.140625 10.796875 36.28125 
z
" id="BitstreamVeraSans-Roman-35"/>
       <path d="M 34.1875 63.1875 
L 20.796875 26.90625 
L 47.609375 26.90625 
z
M 28.609375 72.90625 
L 39.796875 72.90625 
L 67.578125 0 
L 57.328125 0 
L 50.6875 18.703125 
L 17.828125 18.703125 
L 11.1875 0 
L 0.78125 0 
z
" id="BitstreamVeraSans-Roman-41"/>
       <path d="M 45.40625 27.984375 
Q 45.40625 37.75 41.375 43.109375 
Q 37.359375 48.484375 30.078125 48.484375 
Q 22.859375 48.484375 18.828125 43.109375 
Q 14.796875 37.75 14.796875 27.984375 
Q 14.796875 18.265625 18.828125 12.890625 
Q 22.859375 7.515625 30.078125 7.515625 
Q 37.359375 7.515625 41.375 12.890625 
Q 45.40625 18.265625 45.40625 27.984375 
M 54.390625 6.78125 
Q 54.390625 -7.171875 48.1875 -13.984375 
Q 42 -20.796875 29.203125 -20.796875 
Q 24.46875 -20.796875 20.265625 -20.09375 
Q 16.0625 -19.390625 12.109375 -17.921875 
L 12.109375 -9.1875 
Q 16.0625 -11.328125 19.921875 -12.34375 
Q 23.78125 -13.375 27.78125 -13.375 
Q 36.625 -13.375 41.015625 -8.765625 
Q 45.40625 -4.15625 45.40625 5.171875 
L 45.40625 9.625 
Q 42.625 4.78125 38.28125 2.390625 
Q 33.9375 0 27.875 0 
Q 17.828125 0 11.671875 7.65625 
Q 5.515625 15.328125 5.515625 27.984375 
Q 5.515625 40.671875 11.671875 48.328125 
Q 17.828125 56 27.875 56 
Q 33.9375 56 38.28125 53.609375 
Q 42.625 51.21875 45.40625 46.390625 
L 45.40625 54.6875 
L 54.390625 54.6875 
z
" id="BitstreamVeraSans-Roman-67"/>
       <path d="M 8.5 21.578125 
L 8.5 54.6875 
L 17.484375 54.6875 
L 17.484375 21.921875 
Q 17.484375 14.15625 20.5 10.265625 
Q 23.53125 6.390625 29.59375 6.390625 
Q 36.859375 6.390625 41.078125 11.03125 
Q 45.3125 15.671875 45.3125 23.6875 
L 45.3125 54.6875 
L 54.296875 54.6875 
L 54.296875 0 
L 45.3125 0 
L 45.3125 8.40625 
Q 42.046875 3.421875 37.71875 1 
Q 33.40625 -1.421875 27.6875 -1.421875 
Q 18.265625 -1.421875 13.375 4.4375 
Q 8.5 10.296875 8.5 21.578125 
" id="BitstreamVeraSans-Roman-75"/>
      </defs>
      <g transform="translate(411.419365893 661.118125)scale(0.12 -0.12)">
       <use xlink:href="#BitstreamVeraSans-Roman-41"/>
       <use x="68.408203125" xlink:href="#BitstreamVeraSans-Roman-75"/>
       <use x="131.787109375" xlink:href="#BitstreamVeraSans-Roman-67"/>
       <use x="195.263671875" xlink:href="#BitstreamVeraSans-Roman-20"/>
       <use x="227.05078125" xlink:href="#BitstreamVeraSans-Roman-30"/>
       <use x="290.673828125" xlink:href="#BitstreamVeraSans-Roman-33"/>
       <use x="354.296875" xlink:href="#BitstreamVeraSans-Roman-20"/>
       <use x="386.083984375" xlink:href="#BitstreamVeraSans-Roman-32"/>
       <use x="449.70703125" xlink:href="#BitstreamVeraSans-Roman-30"/>
       <use x="513.330078125" xlink:href="#BitstreamVeraSans-Roman-31"/>
       <use x="576.953125" xlink:href="#BitstreamVeraSans-Roman-35"/>
      </g>
     </g>
    </g>
    <g id="xtick_2">
     <g id="line2d_5">
      <g>
       <use style="stroke:#000000;stroke-width:0.5;" x="678.64366195" xlink:href="#m04aba3a50b" y="648.0"/>
      </g>
     </g>
     <g id="line2d_6">
      <g>
       <use style="stroke:#000000;stroke-width:0.5;" x="678.64366195" xlink:href="#m6532a29ed8" y="72.0"/>
      </g>
     </g>
     <g id="text_2">
      <!-- Aug 10 2015 -->
      <g transform="translate(640.20897445 661.118125)scale(0.12 -0.12)">
       <use xlink:href="#BitstreamVeraSans-Roman-41"/>
       <use x="68.408203125" xlink:href="#BitstreamVeraSans-Roman-75"/>
       <use x="131.787109375" xlink:href="#BitstreamVeraSans-Roman-67"/>
       <use x="195.263671875" xlink:href="#BitstreamVeraSans-Roman-20"/>
       <use x="227.05078125" xlink:href="#BitstreamVeraSans-Roman-31"/>
       <use x="290.673828125" xlink:href="#BitstreamVeraSans-Roman-30"/>
       <use x="354.296875" xlink:href="#BitstreamVeraSans-Roman-20"/>
       <use x="386.083984375" xlink:href="#BitstreamVeraSans-Roman-32"/>
       <use x="449.70703125" xlink:href="#BitstreamVeraSans-Roman-30"/>
       <use x="513.330078125" xlink:href="#BitstreamVeraSans-Roman-31"/>
       <use x="576.953125" xlink:href="#BitstreamVeraSans-Roman-35"/>
      </g>
     </g>
    </g>
    <g id="xtick_3">
     <g id="line2d_7">
      <g>
       <use style="stroke:#000000;stroke-width:0.5;" x="907.43327051" xlink:href="#m04aba3a50b" y="648.0"/>
      </g>
     </g>
     <g id="line2d_8">
      <g>
       <use style="stroke:#000000;stroke-width:0.5;" x="907.43327051" xlink:href="#m6532a29ed8" y="72.0"/>
      </g>
     </g>
     <g id="text_3">
      <!-- Aug 17 2015 -->
      <defs>
       <path d="M 8.203125 72.90625 
L 55.078125 72.90625 
L 55.078125 68.703125 
L 28.609375 0 
L 18.3125 0 
L 43.21875 64.59375 
L 8.203125 64.59375 
z
" id="BitstreamVeraSans-Roman-37"/>
      </defs>
      <g transform="translate(868.99858301 661.118125)scale(0.12 -0.12)">
       <use xlink:href="#BitstreamVeraSans-Roman-41"/>
       <use x="68.408203125" xlink:href="#BitstreamVeraSans-Roman-75"/>
       <use x="131.787109375" xlink:href="#BitstreamVeraSans-Roman-67"/>
       <use x="195.263671875" xlink:href="#BitstreamVeraSans-Roman-20"/>
       <use x="227.05078125" xlink:href="#BitstreamVeraSans-Roman-31"/>
       <use x="290.673828125" xlink:href="#BitstreamVeraSans-Roman-37"/>
       <use x="354.296875" xlink:href="#BitstreamVeraSans-Roman-20"/>
       <use x="386.083984375" xlink:href="#BitstreamVeraSans-Roman-32"/>
       <use x="449.70703125" xlink:href="#BitstreamVeraSans-Roman-30"/>
       <use x="513.330078125" xlink:href="#BitstreamVeraSans-Roman-31"/>
       <use x="576.953125" xlink:href="#BitstreamVeraSans-Roman-35"/>
      </g>
     </g>
    </g>
    <g id="xtick_4">
     <g id="line2d_9">
      <g>
       <use style="stroke:#000000;stroke-width:0.5;" x="1136.22287907" xlink:href="#m04aba3a50b" y="648.0"/>
      </g>
     </g>
     <g id="line2d_10">
      <g>
       <use style="stroke:#000000;stroke-width:0.5;" x="1136.22287907" xlink:href="#m6532a29ed8" y="72.0"/>
      </g>
     </g>
     <g id="text_4">
      <!-- Aug 24 2015 -->
      <defs>
       <path d="M 37.796875 64.3125 
L 12.890625 25.390625 
L 37.796875 25.390625 
z
M 35.203125 72.90625 
L 47.609375 72.90625 
L 47.609375 25.390625 
L 58.015625 25.390625 
L 58.015625 17.1875 
L 47.609375 17.1875 
L 47.609375 0 
L 37.796875 0 
L 37.796875 17.1875 
L 4.890625 17.1875 
L 4.890625 26.703125 
z
" id="BitstreamVeraSans-Roman-34"/>
      </defs>
      <g transform="translate(1097.78819157 661.118125)scale(0.12 -0.12)">
       <use xlink:href="#BitstreamVeraSans-Roman-41"/>
       <use x="68.408203125" xlink:href="#BitstreamVeraSans-Roman-75"/>
       <use x="131.787109375" xlink:href="#BitstreamVeraSans-Roman-67"/>
       <use x="195.263671875" xlink:href="#BitstreamVeraSans-Roman-20"/>
       <use x="227.05078125" xlink:href="#BitstreamVeraSans-Roman-32"/>
       <use x="290.673828125" xlink:href="#BitstreamVeraSans-Roman-34"/>
       <use x="354.296875" xlink:href="#BitstreamVeraSans-Roman-20"/>
       <use x="386.083984375" xlink:href="#BitstreamVeraSans-Roman-32"/>
       <use x="449.70703125" xlink:href="#BitstreamVeraSans-Roman-30"/>
       <use x="513.330078125" xlink:href="#BitstreamVeraSans-Roman-31"/>
       <use x="576.953125" xlink:href="#BitstreamVeraSans-Roman-35"/>
      </g>
     </g>
    </g>
    <g id="xtick_5">
     <g id="line2d_11">
      <g>
       <use style="stroke:#000000;stroke-width:0.5;" x="1365.01248763" xlink:href="#m04aba3a50b" y="648.0"/>
      </g>
     </g>
     <g id="line2d_12">
      <g>
       <use style="stroke:#000000;stroke-width:0.5;" x="1365.01248763" xlink:href="#m6532a29ed8" y="72.0"/>
      </g>
     </g>
     <g id="text_5">
      <!-- Aug 31 2015 -->
      <g transform="translate(1326.57780013 661.118125)scale(0.12 -0.12)">
       <use xlink:href="#BitstreamVeraSans-Roman-41"/>
       <use x="68.408203125" xlink:href="#BitstreamVeraSans-Roman-75"/>
       <use x="131.787109375" xlink:href="#BitstreamVeraSans-Roman-67"/>
       <use x="195.263671875" xlink:href="#BitstreamVeraSans-Roman-20"/>
       <use x="227.05078125" xlink:href="#BitstreamVeraSans-Roman-33"/>
       <use x="290.673828125" xlink:href="#BitstreamVeraSans-Roman-31"/>
       <use x="354.296875" xlink:href="#BitstreamVeraSans-Roman-20"/>
       <use x="386.083984375" xlink:href="#BitstreamVeraSans-Roman-32"/>
       <use x="449.70703125" xlink:href="#BitstreamVeraSans-Roman-30"/>
       <use x="513.330078125" xlink:href="#BitstreamVeraSans-Roman-31"/>
       <use x="576.953125" xlink:href="#BitstreamVeraSans-Roman-35"/>
      </g>
     </g>
    </g>
    <g id="xtick_6">
     <g id="line2d_13">
      <g>
       <use style="stroke:#000000;stroke-width:0.5;" x="1593.80209618" xlink:href="#m04aba3a50b" y="648.0"/>
      </g>
     </g>
     <g id="line2d_14">
      <g>
       <use style="stroke:#000000;stroke-width:0.5;" x="1593.80209618" xlink:href="#m6532a29ed8" y="72.0"/>
      </g>
     </g>
     <g id="text_6">
      <!-- Sep 07 2015 -->
      <defs>
       <path d="M 56.203125 29.59375 
L 56.203125 25.203125 
L 14.890625 25.203125 
Q 15.484375 15.921875 20.484375 11.0625 
Q 25.484375 6.203125 34.421875 6.203125 
Q 39.59375 6.203125 44.453125 7.46875 
Q 49.3125 8.734375 54.109375 11.28125 
L 54.109375 2.78125 
Q 49.265625 0.734375 44.1875 -0.34375 
Q 39.109375 -1.421875 33.890625 -1.421875 
Q 20.796875 -1.421875 13.15625 6.1875 
Q 5.515625 13.8125 5.515625 26.8125 
Q 5.515625 40.234375 12.765625 48.109375 
Q 20.015625 56 32.328125 56 
Q 43.359375 56 49.78125 48.890625 
Q 56.203125 41.796875 56.203125 29.59375 
M 47.21875 32.234375 
Q 47.125 39.59375 43.09375 43.984375 
Q 39.0625 48.390625 32.421875 48.390625 
Q 24.90625 48.390625 20.390625 44.140625 
Q 15.875 39.890625 15.1875 32.171875 
z
" id="BitstreamVeraSans-Roman-65"/>
       <path d="M 53.515625 70.515625 
L 53.515625 60.890625 
Q 47.90625 63.578125 42.921875 64.890625 
Q 37.9375 66.21875 33.296875 66.21875 
Q 25.25 66.21875 20.875 63.09375 
Q 16.5 59.96875 16.5 54.203125 
Q 16.5 49.359375 19.40625 46.890625 
Q 22.3125 44.4375 30.421875 42.921875 
L 36.375 41.703125 
Q 47.40625 39.59375 52.65625 34.296875 
Q 57.90625 29 57.90625 20.125 
Q 57.90625 9.515625 50.796875 4.046875 
Q 43.703125 -1.421875 29.984375 -1.421875 
Q 24.8125 -1.421875 18.96875 -0.25 
Q 13.140625 0.921875 6.890625 3.21875 
L 6.890625 13.375 
Q 12.890625 10.015625 18.65625 8.296875 
Q 24.421875 6.59375 29.984375 6.59375 
Q 38.421875 6.59375 43.015625 9.90625 
Q 47.609375 13.234375 47.609375 19.390625 
Q 47.609375 24.75 44.3125 27.78125 
Q 41.015625 30.8125 33.5 32.328125 
L 27.484375 33.5 
Q 16.453125 35.6875 11.515625 40.375 
Q 6.59375 45.0625 6.59375 53.421875 
Q 6.59375 63.09375 13.40625 68.65625 
Q 20.21875 74.21875 32.171875 74.21875 
Q 37.3125 74.21875 42.625 73.28125 
Q 47.953125 72.359375 53.515625 70.515625 
" id="BitstreamVeraSans-Roman-53"/>
       <path d="M 18.109375 8.203125 
L 18.109375 -20.796875 
L 9.078125 -20.796875 
L 9.078125 54.6875 
L 18.109375 54.6875 
L 18.109375 46.390625 
Q 20.953125 51.265625 25.265625 53.625 
Q 29.59375 56 35.59375 56 
Q 45.5625 56 51.78125 48.09375 
Q 58.015625 40.1875 58.015625 27.296875 
Q 58.015625 14.40625 51.78125 6.484375 
Q 45.5625 -1.421875 35.59375 -1.421875 
Q 29.59375 -1.421875 25.265625 0.953125 
Q 20.953125 3.328125 18.109375 8.203125 
M 48.6875 27.296875 
Q 48.6875 37.203125 44.609375 42.84375 
Q 40.53125 48.484375 33.40625 48.484375 
Q 26.265625 48.484375 22.1875 42.84375 
Q 18.109375 37.203125 18.109375 27.296875 
Q 18.109375 17.390625 22.1875 11.75 
Q 26.265625 6.109375 33.40625 6.109375 
Q 40.53125 6.109375 44.609375 11.75 
Q 48.6875 17.390625 48.6875 27.296875 
" id="BitstreamVeraSans-Roman-70"/>
      </defs>
      <g transform="translate(1555.77334618 661.118125)scale(0.12 -0.12)">
       <use xlink:href="#BitstreamVeraSans-Roman-53"/>
       <use x="63.4765625" xlink:href="#BitstreamVeraSans-Roman-65"/>
       <use x="125.0" xlink:href="#BitstreamVeraSans-Roman-70"/>
       <use x="188.4765625" xlink:href="#BitstreamVeraSans-Roman-20"/>
       <use x="220.263671875" xlink:href="#BitstreamVeraSans-Roman-30"/>
       <use x="283.88671875" xlink:href="#BitstreamVeraSans-Roman-37"/>
       <use x="347.509765625" xlink:href="#BitstreamVeraSans-Roman-20"/>
       <use x="379.296875" xlink:href="#BitstreamVeraSans-Roman-32"/>
       <use x="442.919921875" xlink:href="#BitstreamVeraSans-Roman-30"/>
       <use x="506.54296875" xlink:href="#BitstreamVeraSans-Roman-31"/>
       <use x="570.166015625" xlink:href="#BitstreamVeraSans-Roman-35"/>
      </g>
     </g>
    </g>
    <g id="xtick_7">
     <g id="line2d_15">
      <g>
       <use style="stroke:#000000;stroke-width:0.5;" x="1822.59170474" xlink:href="#m04aba3a50b" y="648.0"/>
      </g>
     </g>
     <g id="line2d_16">
      <g>
       <use style="stroke:#000000;stroke-width:0.5;" x="1822.59170474" xlink:href="#m6532a29ed8" y="72.0"/>
      </g>
     </g>
     <g id="text_7">
      <!-- Sep 14 2015 -->
      <g transform="translate(1784.56295474 661.118125)scale(0.12 -0.12)">
       <use xlink:href="#BitstreamVeraSans-Roman-53"/>
       <use x="63.4765625" xlink:href="#BitstreamVeraSans-Roman-65"/>
       <use x="125.0" xlink:href="#BitstreamVeraSans-Roman-70"/>
       <use x="188.4765625" xlink:href="#BitstreamVeraSans-Roman-20"/>
       <use x="220.263671875" xlink:href="#BitstreamVeraSans-Roman-31"/>
       <use x="283.88671875" xlink:href="#BitstreamVeraSans-Roman-34"/>
       <use x="347.509765625" xlink:href="#BitstreamVeraSans-Roman-20"/>
       <use x="379.296875" xlink:href="#BitstreamVeraSans-Roman-32"/>
       <use x="442.919921875" xlink:href="#BitstreamVeraSans-Roman-30"/>
       <use x="506.54296875" xlink:href="#BitstreamVeraSans-Roman-31"/>
       <use x="570.166015625" xlink:href="#BitstreamVeraSans-Roman-35"/>
      </g>
     </g>
    </g>
   </g>
   <g id="matplotlib.axis_2">
    <g id="ytick_1">
     <g id="line2d_17">
      <defs>
       <path d="M 0 0 
L 4 0 
" id="mc043d89f00" style="stroke:#000000;stroke-width:0.5;"/>
      </defs>
      <g>
       <use style="stroke:#000000;stroke-width:0.5;" x="270.0" xlink:href="#mc043d89f00" y="648.0"/>
      </g>
     </g>
     <g id="line2d_18">
      <defs>
       <path d="M 0 0 
L -4 0 
" id="m555c06d1e9" style="stroke:#000000;stroke-width:0.5;"/>
      </defs>
      <g>
       <use style="stroke:#000000;stroke-width:0.5;" x="1944.0" xlink:href="#m555c06d1e9" y="648.0"/>
      </g>
     </g>
     <g id="text_8">
      <!-- 0 -->
      <g transform="translate(258.365 651.31125)scale(0.12 -0.12)">
       <use xlink:href="#BitstreamVeraSans-Roman-30"/>
      </g>
     </g>
    </g>
    <g id="ytick_2">
     <g id="line2d_19">
      <g>
       <use style="stroke:#000000;stroke-width:0.5;" x="270.0" xlink:href="#mc043d89f00" y="552.0"/>
      </g>
     </g>
     <g id="line2d_20">
      <g>
       <use style="stroke:#000000;stroke-width:0.5;" x="1944.0" xlink:href="#m555c06d1e9" y="552.0"/>
      </g>
     </g>
     <g id="text_9">
      <!-- 1000 -->
      <g transform="translate(235.46 555.31125)scale(0.12 -0.12)">
       <use xlink:href="#BitstreamVeraSans-Roman-31"/>
       <use x="63.623046875" xlink:href="#BitstreamVeraSans-Roman-30"/>
       <use x="127.24609375" xlink:href="#BitstreamVeraSans-Roman-30"/>
       <use x="190.869140625" xlink:href="#BitstreamVeraSans-Roman-30"/>
      </g>
     </g>
    </g>
    <g id="ytick_3">
     <g id="line2d_21">
      <g>
       <use style="stroke:#000000;stroke-width:0.5;" x="270.0" xlink:href="#mc043d89f00" y="456.0"/>
      </g>
     </g>
     <g id="line2d_22">
      <g>
       <use style="stroke:#000000;stroke-width:0.5;" x="1944.0" xlink:href="#m555c06d1e9" y="456.0"/>
      </g>
     </g>
     <g id="text_10">
      <!-- 2000 -->
      <g transform="translate(235.46 459.31125)scale(0.12 -0.12)">
       <use xlink:href="#BitstreamVeraSans-Roman-32"/>
       <use x="63.623046875" xlink:href="#BitstreamVeraSans-Roman-30"/>
       <use x="127.24609375" xlink:href="#BitstreamVeraSans-Roman-30"/>
       <use x="190.869140625" xlink:href="#BitstreamVeraSans-Roman-30"/>
      </g>
     </g>
    </g>
    <g id="ytick_4">
     <g id="line2d_23">
      <g>
       <use style="stroke:#000000;stroke-width:0.5;" x="270.0" xlink:href="#mc043d89f00" y="360.0"/>
      </g>
     </g>
     <g id="line2d_24">
      <g>
       <use style="stroke:#000000;stroke-width:0.5;" x="1944.0" xlink:href="#m555c06d1e9" y="360.0"/>
      </g>
     </g>
     <g id="text_11">
      <!-- 3000 -->
      <g transform="translate(235.46 363.31125)scale(0.12 -0.12)">
       <use xlink:href="#BitstreamVeraSans-Roman-33"/>
       <use x="63.623046875" xlink:href="#BitstreamVeraSans-Roman-30"/>
       <use x="127.24609375" xlink:href="#BitstreamVeraSans-Roman-30"/>
       <use x="190.869140625" xlink:href="#BitstreamVeraSans-Roman-30"/>
      </g>
     </g>
    </g>
    <g id="ytick_5">
     <g id="line2d_25">
      <g>
       <use style="stroke:#000000;stroke-width:0.5;" x="270.0" xlink:href="#mc043d89f00" y="264.0"/>
      </g>
     </g>
     <g id="line2d_26">
      <g>
       <use style="stroke:#000000;stroke-width:0.5;" x="1944.0" xlink:href="#m555c06d1e9" y="264.0"/>
      </g>
     </g>
     <g id="text_12">
      <!-- 4000 -->
      <g transform="translate(235.46 267.31125)scale(0.12 -0.12)">
       <use xlink:href="#BitstreamVeraSans-Roman-34"/>
       <use x="63.623046875" xlink:href="#BitstreamVeraSans-Roman-30"/>
       <use x="127.24609375" xlink:href="#BitstreamVeraSans-Roman-30"/>
       <use x="190.869140625" xlink:href="#BitstreamVeraSans-Roman-30"/>
      </g>
     </g>
    </g>
    <g id="ytick_6">
     <g id="line2d_27">
      <g>
       <use style="stroke:#000000;stroke-width:0.5;" x="270.0" xlink:href="#mc043d89f00" y="168.0"/>
      </g>
     </g>
     <g id="line2d_28">
      <g>
       <use style="stroke:#000000;stroke-width:0.5;" x="1944.0" xlink:href="#m555c06d1e9" y="168.0"/>
      </g>
     </g>
     <g id="text_13">
      <!-- 5000 -->
      <g transform="translate(235.46 171.31125)scale(0.12 -0.12)">
       <use xlink:href="#BitstreamVeraSans-Roman-35"/>
       <use x="63.623046875" xlink:href="#BitstreamVeraSans-Roman-30"/>
       <use x="127.24609375" xlink:href="#BitstreamVeraSans-Roman-30"/>
       <use x="190.869140625" xlink:href="#BitstreamVeraSans-Roman-30"/>
      </g>
     </g>
    </g>
    <g id="ytick_7">
     <g id="line2d_29">
      <g>
       <use style="stroke:#000000;stroke-width:0.5;" x="270.0" xlink:href="#mc043d89f00" y="72.0"/>
      </g>
     </g>
     <g id="line2d_30">
      <g>
       <use style="stroke:#000000;stroke-width:0.5;" x="1944.0" xlink:href="#m555c06d1e9" y="72.0"/>
      </g>
     </g>
     <g id="text_14">
      <!-- 6000 -->
      <defs>
       <path d="M 33.015625 40.375 
Q 26.375 40.375 22.484375 35.828125 
Q 18.609375 31.296875 18.609375 23.390625 
Q 18.609375 15.53125 22.484375 10.953125 
Q 26.375 6.390625 33.015625 6.390625 
Q 39.65625 6.390625 43.53125 10.953125 
Q 47.40625 15.53125 47.40625 23.390625 
Q 47.40625 31.296875 43.53125 35.828125 
Q 39.65625 40.375 33.015625 40.375 
M 52.59375 71.296875 
L 52.59375 62.3125 
Q 48.875 64.0625 45.09375 64.984375 
Q 41.3125 65.921875 37.59375 65.921875 
Q 27.828125 65.921875 22.671875 59.328125 
Q 17.53125 52.734375 16.796875 39.40625 
Q 19.671875 43.65625 24.015625 45.921875 
Q 28.375 48.1875 33.59375 48.1875 
Q 44.578125 48.1875 50.953125 41.515625 
Q 57.328125 34.859375 57.328125 23.390625 
Q 57.328125 12.15625 50.6875 5.359375 
Q 44.046875 -1.421875 33.015625 -1.421875 
Q 20.359375 -1.421875 13.671875 8.265625 
Q 6.984375 17.96875 6.984375 36.375 
Q 6.984375 53.65625 15.1875 63.9375 
Q 23.390625 74.21875 37.203125 74.21875 
Q 40.921875 74.21875 44.703125 73.484375 
Q 48.484375 72.75 52.59375 71.296875 
" id="BitstreamVeraSans-Roman-36"/>
      </defs>
      <g transform="translate(235.46 75.31125)scale(0.12 -0.12)">
       <use xlink:href="#BitstreamVeraSans-Roman-36"/>
       <use x="63.623046875" xlink:href="#BitstreamVeraSans-Roman-30"/>
       <use x="127.24609375" xlink:href="#BitstreamVeraSans-Roman-30"/>
       <use x="190.869140625" xlink:href="#BitstreamVeraSans-Roman-30"/>
      </g>
     </g>
    </g>
   </g>
  </g>
 </g>
 <defs>
  <clipPath id="p691d8d52bb">
   <rect height="576.0" width="1674.0" x="270.0" y="72.0"/>
  </clipPath>
 </defs>
</svg>
