<?xml version="1.0" encoding="utf-8" standalone="no"?>
<!DOCTYPE svg PUBLIC "-//W3C//DTD SVG 1.1//EN"
  "http://www.w3.org/Graphics/SVG/1.1/DTD/svg11.dtd">
<!-- Created with matplotlib (http://matplotlib.org/) -->
<svg height="720pt" version="1.1" viewBox="0 0 2160 720" width="2160pt" xmlns="http://www.w3.org/2000/svg" xmlns:xlink="http://www.w3.org/1999/xlink">
 <defs>
  <style type="text/css">
*{stroke-linecap:butt;stroke-linejoin:round;stroke-miterlimit:100000;}
  </style>
 </defs>
 <g id="figure_1">
  <g id="patch_1">
   <path d="M 0 720 
L 2160 720 
L 2160 0 
L 0 0 
z
" style="fill:#ffffff;"/>
  </g>
  <g id="axes_1">
   <g id="patch_2">
    <path d="M 270 648 
L 1944 648 
L 1944 72 
L 270 72 
z
" style="fill:#ffffff;"/>
   </g>
   <g id="line2d_1">
    <path clip-path="url(#pabcf39a844)" d="M 270 647.997312 
L 281.681539 647.995622 
L 305.044618 647.997312 
L 313.894269 647.992781 
L 325.575809 647.997312 
L 335.487418 647.995622 
L 368.762106 647.995622 
L 392.125185 647.997312 
L 403.806724 647.995622 
L 427.169803 647.997312 
L 432.83358 647.995622 
L 433.187566 638.090752 
L 433.541552 635.379072 
L 433.895538 647.997312 
L 456.904631 647.995622 
L 472.126031 647.993933 
L 472.480017 647.059008 
L 472.834003 312.97088 
L 473.187989 647.384627 
L 473.541975 606.14912 
L 473.895961 647.995622 
L 478.143794 647.995622 
L 478.49778 647.117901 
L 478.851766 313.10848 
L 479.205752 647.505766 
L 479.559738 609.939328 
L 479.913724 647.99616 
L 482.745612 647.997312 
L 483.099598 646.977562 
L 483.453584 315.90336 
L 483.80757 644.886784 
L 484.161556 647.405261 
L 484.515542 608.92128 
L 484.869528 647.995622 
L 485.931487 647.995622 
L 486.285473 647.128154 
L 486.639459 313.3408 
L 486.993445 647.379533 
L 487.347431 604.229248 
L 488.055403 647.992781 
L 488.409389 624.386432 
L 488.763375 647.997312 
L 491.241277 647.997312 
L 491.595263 647.11191 
L 491.949249 312.29184 
L 492.303235 647.994701 
L 492.657221 638.415424 
L 493.011207 617.75104 
L 493.365193 647.995622 
L 498.320998 647.995622 
L 498.674984 647.075021 
L 499.02897 312.29824 
L 499.382956 647.484186 
L 499.736942 607.798016 
L 500.090928 647.992781 
L 501.152886 647.992781 
L 501.506872 647.12823 
L 501.860859 314.19264 
L 502.214845 646.177178 
L 502.568831 638.337216 
L 502.922817 617.15488 
L 503.276803 647.997312 
L 504.692747 647.995622 
L 505.046733 647.028416 
L 505.400719 312.19072 
L 505.754705 647.39561 
L 506.108691 608.910592 
L 506.462677 647.995622 
L 529.825756 647.997312 
L 538.675407 647.992781 
L 547.525058 647.997312 
L 570.534151 647.995622 
L 573.366039 647.997312 
L 573.720025 646.81143 
L 574.074011 311.98144 
L 574.427997 647.413043 
L 574.781984 609.098048 
L 575.13597 647.99447 
L 583.985621 647.995622 
L 584.339607 624.297984 
L 584.693593 647.992781 
L 590.003383 647.995622 
L 590.357369 647.114266 
L 590.711355 313.30624 
L 591.065342 646.92224 
L 591.419328 638.178816 
L 591.773314 618.005632 
L 592.1273 647.99447 
L 594.605202 647.997312 
L 594.959188 647.114445 
L 595.313174 312.8832 
L 595.66716 647.99017 
L 596.021146 638.143552 
L 596.375132 613.989952 
L 596.729118 647.992781 
L 597.791076 647.99616 
L 598.499048 646.232154 
L 598.853034 313.9712 
L 599.207021 647.352218 
L 599.561007 608.48768 
L 599.914993 647.997312 
L 608.764644 647.992781 
L 617.614295 647.997312 
L 640.977374 647.99616 
L 681.331783 647.992781 
L 681.685769 647.11543 
L 682.039755 312.6912 
L 682.393741 647.441638 
L 682.747727 638.59424 
L 683.101713 616.882752 
L 683.455699 647.997312 
L 684.517657 647.997312 
L 684.871643 647.125197 
L 685.225629 324.49728 
L 685.579615 635.904768 
L 685.933601 647.402189 
L 686.287587 608.432512 
L 686.641573 647.995622 
L 688.057517 647.99616 
L 688.411503 647.113574 
L 688.76549 312.71488 
L 689.119476 647.993549 
L 689.473462 637.937408 
L 689.827448 617.595072 
L 690.181434 647.997312 
L 692.30535 647.993933 
L 692.659336 646.986803 
L 693.013322 311.69792 
L 693.367308 647.375386 
L 693.721294 608.807936 
L 694.07528 647.995622 
L 695.84521 647.992781 
L 696.199196 623.654272 
L 696.553182 643.653005 
L 696.907169 646.078336 
L 697.261155 647.565082 
L 697.615141 613.386944 
L 697.969127 636.89088 
L 698.323113 644.206426 
L 698.677099 646.539443 
L 699.031085 639.77888 
L 699.385071 636.520064 
L 699.739057 647.997312 
L 700.093043 623.51936 
L 700.447029 647.104666 
L 700.801015 312.14528 
L 701.155001 647.991322 
L 701.508987 637.71968 
L 701.862973 617.13216 
L 702.216959 647.104858 
L 702.570945 288.11008 
L 702.924931 647.993318 
L 703.278917 637.65024 
L 703.632903 617.917056 
L 703.986889 621.66912 
L 704.340875 619.572992 
L 704.694862 647.5168 
L 705.048848 304.47168 
L 705.402834 636.2512 
L 705.75682 602.769408 
L 706.110806 647.99616 
L 707.880736 647.993242 
L 708.234722 647.117363 
L 708.588708 311.98592 
L 708.942694 647.50953 
L 709.29668 637.98784 
L 709.650666 619.717504 
L 710.004652 647.997312 
L 718.146331 647.995622 
L 718.500317 647.121306 
L 718.854303 310.68544 
L 719.208289 647.995238 
L 719.562275 637.43872 
L 719.916261 617.849152 
L 720.270247 647.99447 
L 741.155424 647.995622 
L 741.50941 647.11552 
L 741.863396 314.66048 
L 742.217382 644.77696 
L 742.571368 647.404902 
L 742.925354 608.112256 
L 743.27934 647.997312 
L 746.111229 647.995622 
L 746.465215 647.109491 
L 746.819201 311.32864 
L 747.173187 647.993011 
L 747.527173 637.417536 
L 747.881159 617.72736 
L 748.235145 647.995622 
L 770.890252 647.992781 
L 778.677945 647.995622 
L 779.031931 647.111258 
L 779.385917 311.21024 
L 779.739903 647.373338 
L 780.093889 637.802944 
L 780.447875 618.149952 
L 780.801861 647.997312 
L 783.987735 647.99447 
L 784.341721 647.867098 
L 784.695707 619.669888 
L 785.049693 646.288282 
L 785.403679 647.151693 
L 785.757665 635.766464 
L 786.111652 637.938496 
L 786.465638 311.01952 
L 786.819624 647.345766 
L 787.17361 615.925632 
L 787.527596 639.174016 
L 787.881582 647.99447 
L 789.651512 647.995622 
L 790.005498 622.810176 
L 790.359484 646.294323 
L 790.71347 646.198413 
L 791.067456 646.529997 
L 791.421442 647.569075 
L 791.775428 647.134131 
L 792.129414 647.600256 
L 794.961303 647.595955 
L 795.315289 645.3328 
L 795.669275 644.51415 
L 796.023261 646.310195 
L 796.377247 644.94944 
L 796.731233 636.719168 
L 797.439205 647.992781 
L 802.041023 647.995622 
L 802.39501 620.021248 
L 802.748996 646.313536 
L 803.102982 647.549261 
L 803.456968 637.781184 
L 803.810954 639.600896 
L 804.16494 647.953306 
L 805.226898 647.995622 
L 814.784521 647.990362 
L 815.138507 619.305792 
L 815.492493 646.298842 
L 815.846479 646.506445 
L 816.554451 636.894016 
L 816.908437 646.068672 
L 817.262423 647.991936 
L 820.802284 647.995622 
L 827.882005 647.997312 
L 828.235991 622.67008 
L 828.589977 647.997312 
L 836.023684 647.992781 
L 844.165363 647.997312 
L 844.519349 622.643456 
L 844.873335 647.997312 
L 849.475153 647.992781 
L 849.829139 646.76105 
L 850.183125 330.47552 
L 850.537111 628.32544 
L 850.891097 647.370266 
L 851.245084 606.927808 
L 851.59907 647.995622 
L 853.369 647.997312 
L 853.722986 622.530368 
L 854.076972 647.995622 
L 881.333897 647.995622 
L 881.687883 646.91168 
L 882.041869 313.69216 
L 882.395855 593.88608 
L 882.749841 647.360973 
L 883.103827 611.10368 
L 883.457813 647.99616 
L 885.227744 647.997312 
L 885.58173 645.256883 
L 885.935716 647.974682 
L 886.289702 310.76544 
L 886.643688 647.412966 
L 886.997674 637.398336 
L 887.35166 616.859072 
L 887.705646 647.997312 
L 888.059632 647.992781 
L 888.413618 622.187456 
L 888.767604 647.995622 
L 889.12159 622.09312 
L 889.475576 647.99447 
L 891.953479 647.997312 
L 892.307465 647.116621 
L 892.661451 310.70976 
L 893.015437 647.989632 
L 893.369423 636.674944 
L 893.723409 616.726656 
L 894.077395 647.992781 
L 895.139353 647.995622 
L 895.493339 634.182208 
L 895.847325 635.085504 
L 896.201311 318.23808 
L 896.555297 640.281984 
L 896.909283 647.39223 
L 897.263269 607.7968 
L 897.617255 647.993933 
L 899.033199 647.992781 
L 899.387185 519.58656 
L 899.741171 647.122227 
L 900.095158 313.08288 
L 900.449144 645.288243 
L 900.80313 647.328205 
L 901.157116 606.059456 
L 901.511102 647.99447 
L 903.281032 647.995622 
L 903.635018 647.101773 
L 903.989004 310.50432 
L 904.34299 647.383475 
L 904.696976 637.049792 
L 905.050962 616.822144 
L 905.404948 647.995622 
L 905.758934 647.997312 
L 906.11292 621.852096 
L 906.466906 647.997312 
L 906.820892 647.995622 
L 907.174878 647.110822 
L 907.528864 604.907712 
L 907.88285 353.4304 
L 908.236837 647.369037 
L 908.590823 606.071424 
L 908.944809 647.997312 
L 914.254599 647.997312 
L 914.608585 646.880358 
L 914.962571 310.3584 
L 915.316557 647.483162 
L 915.670543 636.815744 
L 916.02453 617.70464 
L 916.378516 647.995622 
L 917.79446 647.99616 
L 918.148446 647.010406 
L 918.502432 416.7968 
L 919.210404 647.350835 
L 919.56439 620.88192 
L 920.272362 647.997312 
L 921.688306 647.996237 
L 922.042292 647.105792 
L 922.396278 309.7504 
L 922.750264 647.468134 
L 923.10425 636.742656 
L 923.458236 617.05728 
L 923.812222 647.995622 
L 926.290125 647.997312 
L 926.644111 647.10601 
L 926.998097 309.7792 
L 927.352083 647.380403 
L 927.706069 636.805952 
L 928.060055 617.364608 
L 928.414041 647.995622 
L 951.77712 647.997312 
L 960.626771 647.992243 
L 974.786213 647.997312 
L 983.635864 647.993395 
L 997.795306 647.997312 
L 1005.229012 647.992243 
L 1005.582999 647.046541 
L 1005.936985 309.69664 
L 1006.290971 647.34999 
L 1006.644957 636.767936 
L 1006.998943 617.379648 
L 1007.352929 647.997312 
L 1015.140622 647.993933 
L 1038.857687 647.997312 
L 1047.707338 647.992243 
L 1059.388877 647.997312 
L 1067.17657 647.995622 
L 1146.469444 647.997312 
L 1146.82343 636.08576 
L 1147.177416 645.194752 
L 1147.531402 647.997312 
L 1155.319095 647.992243 
L 1167.000634 647.997312 
L 1167.35462 647.094976 
L 1167.708606 309.55328 
L 1168.062593 647.468416 
L 1168.416579 636.583872 
L 1168.770565 619.24544 
L 1169.124551 647.995085 
L 1178.328188 647.993933 
L 1178.682174 647.773696 
L 1179.03616 646.985229 
L 1179.390146 309.69728 
L 1179.744132 647.375027 
L 1180.098118 606.971776 
L 1180.452104 647.993933 
L 1182.930006 647.99447 
L 1183.283992 647.105357 
L 1183.637978 309.65184 
L 1183.991964 647.994701 
L 1184.345951 636.001856 
L 1184.699937 615.75584 
L 1185.053923 647.997312 
L 1186.469867 647.99447 
L 1186.823853 647.104614 
L 1187.177839 419.52 
L 1187.531825 460.58816 
L 1187.885811 647.332557 
L 1188.239797 612.926848 
L 1188.593783 640.991616 
L 1188.947769 647.99447 
L 1192.841616 647.993933 
L 1193.195602 230.75712 
L 1193.549588 231.58848 
L 1193.903574 229.90976 
L 1194.25756 647.692493 
L 1194.611546 646.89632 
L 1194.965532 232.7264 
L 1195.319518 647.995622 
L 1195.673504 646.895859 
L 1196.02749 231.02784 
L 1196.381476 416.14464 
L 1196.735462 464.22976 
L 1197.089448 647.997312 
L 1200.275322 647.997312 
L 1200.629309 647.446131 
L 1200.983295 643.420211 
L 1201.337281 646.035315 
L 1201.691267 647.306931 
L 1202.045253 647.477606 
L 1202.399239 643.093824 
L 1202.753225 647.338445 
L 1203.107211 646.779802 
L 1203.461197 231.96864 
L 1203.815183 647.983565 
L 1204.169169 635.904768 
L 1204.523155 566.3008 
L 1204.877141 647.400986 
L 1205.231127 647.995622 
L 1206.647071 647.995622 
L 1207.001057 646.933837 
L 1207.355043 231.69408 
L 1207.709029 647.990477 
L 1208.063015 647.329894 
L 1208.417001 605.818176 
L 1208.770988 647.984077 
L 1211.956862 647.993318 
L 1216.55868 647.997312 
L 1216.912667 646.873984 
L 1217.266653 231.408 
L 1217.620639 647.993856 
L 1217.974625 635.75456 
L 1218.328611 613.972352 
L 1218.682597 647.995622 
L 1220.452527 647.992781 
L 1220.806513 646.890342 
L 1221.160499 231.74016 
L 1221.514485 647.455155 
L 1221.868471 636.266176 
L 1222.222457 618.094848 
L 1222.576443 647.997312 
L 1231.426094 647.992243 
L 1243.107634 647.997312 
L 1247.355466 647.99616 
L 1247.709452 621.188736 
L 1248.063438 647.997312 
L 1257.975048 647.992243 
L 1266.824699 647.995622 
L 1289.125819 647.997312 
L 1293.019666 647.992243 
L 1293.373652 647.738074 
L 1293.727638 647.690726 
L 1294.081624 593.230528 
L 1294.789596 647.995622 
L 1302.223303 647.997312 
L 1302.577289 646.953869 
L 1302.931275 234.7648 
L 1303.285261 644.827469 
L 1303.639247 647.315533 
L 1303.993233 605.307584 
L 1304.347219 647.995622 
L 1327.710298 647.997312 
L 1335.497991 647.99447 
L 1344.347642 647.995622 
L 1344.701628 646.876314 
L 1345.055614 231.42336 
L 1345.4096 647.362278 
L 1345.763586 636.142784 
L 1346.117572 611.182848 
L 1346.471558 647.995622 
L 1388.949884 647.995622 
L 1389.30387 646.875226 
L 1389.657856 231.2192 
L 1390.011842 647.370803 
L 1390.365828 636.104384 
L 1390.719814 616.784 
L 1391.0738 647.99447 
L 1394.61366 647.992243 
L 1394.967646 620.785792 
L 1395.321632 647.997312 
L 1401.339395 647.995622 
L 1401.693381 646.936691 
L 1402.047367 234.50432 
L 1402.401353 645.128704 
L 1402.755339 647.32567 
L 1403.109325 605.045696 
L 1403.463311 644.188762 
L 1403.817298 646.212608 
L 1404.171284 644.42743 
L 1404.52527 647.347328 
L 1404.879256 619.413952 
L 1405.233242 647.379712 
L 1405.587228 619.743232 
L 1405.941214 117.73312 
L 1406.2952 628.680512 
L 1406.649186 636.958976 
L 1407.003172 605.503872 
L 1407.357158 647.995622 
L 1407.711144 617.181504 
L 1408.06513 646.301568 
L 1408.773102 636.90144 
L 1409.127088 645.30345 
L 1409.481074 647.995622 
L 1411.60499 647.992781 
L 1411.958977 646.943642 
L 1412.312963 239.38304 
L 1412.666949 639.823808 
L 1413.020935 647.34999 
L 1413.374921 605.661376 
L 1413.728907 646.887731 
L 1414.082893 647.995622 
L 1414.436879 620.085696 
L 1414.790865 647.997312 
L 1415.498837 647.99616 
L 1415.852823 646.895782 
L 1416.206809 230.54656 
L 1416.560795 647.993549 
L 1416.914781 634.714816 
L 1417.268767 616.113536 
L 1417.622753 647.992704 
L 1419.038697 647.996774 
L 1419.392683 647.015987 
L 1419.746669 647.859354 
L 1420.100656 230.58048 
L 1420.454642 647.339008 
L 1420.808628 635.31584 
L 1421.162614 617.510336 
L 1421.5166 647.997312 
L 1428.596321 647.995622 
L 1428.950307 646.87447 
L 1429.304293 230.16576 
L 1429.658279 647.367424 
L 1430.012265 635.269056 
L 1430.366251 616.919424 
L 1430.720237 647.99447 
L 1441.339818 647.997312 
L 1441.693804 619.994944 
L 1442.04779 647.997312 
L 1465.764855 647.99447 
L 1484.172129 647.99447 
L 1484.526115 646.93696 
L 1484.880102 232.59776 
L 1485.234088 644.947251 
L 1485.588074 647.35017 
L 1485.94206 604.038592 
L 1486.296046 647.995622 
L 1494.083739 647.995622 
L 1494.437725 646.936218 
L 1494.791711 233.5744 
L 1495.145697 644.982912 
L 1495.499683 647.312691 
L 1495.853669 604.35648 
L 1496.207655 647.992781 
L 1510.367097 647.997312 
L 1513.198985 647.995622 
L 1513.552971 647.823373 
L 1513.906957 647.997312 
L 1516.030873 647.995622 
L 1516.384859 646.875405 
L 1516.738845 229.78752 
L 1517.092831 647.990656 
L 1517.800804 616.861632 
L 1518.15479 647.996774 
L 1523.110594 647.995622 
L 1523.46458 646.823206 
L 1523.818566 232.96 
L 1524.172552 644.985626 
L 1524.526538 647.354214 
L 1524.880524 603.95232 
L 1525.23451 647.992781 
L 1527.004441 647.995622 
L 1527.358427 646.939802 
L 1527.712413 232.93824 
L 1528.066399 644.954368 
L 1528.420385 647.349146 
L 1528.774371 604.762496 
L 1529.128357 647.99616 
L 1541.163882 647.997312 
L 1541.517868 646.966118 
L 1541.871855 233.79776 
L 1542.225841 644.857702 
L 1542.579827 647.340698 
L 1542.933813 634.988352 
L 1543.287799 615.40928 
L 1543.641785 647.995622 
L 1556.385282 647.99447 
L 1556.739268 646.89024 
L 1557.093254 230.0672 
L 1557.44724 647.477734 
L 1557.801226 634.77824 
L 1558.155213 616.692992 
L 1558.509199 647.996774 
L 1567.004864 647.997312 
L 1567.35885 646.936627 
L 1567.712836 232.86464 
L 1568.066822 645.039821 
L 1568.420808 647.345946 
L 1568.774794 603.484544 
L 1569.12878 647.995622 
L 1588.598012 647.995622 
L 1588.951998 646.877926 
L 1589.305984 230.68224 
L 1589.65997 647.387699 
L 1590.013956 634.837056 
L 1590.367942 617.028288 
L 1590.721929 647.997312 
L 1592.491859 647.997312 
L 1592.845845 646.871898 
L 1593.199831 230.13504 
L 1593.553817 647.992704 
L 1593.907803 647.312026 
L 1594.261789 602.978368 
L 1594.615775 647.995085 
L 1598.155635 647.995622 
L 1598.509621 646.940608 
L 1598.863608 233.0624 
L 1599.217594 644.95703 
L 1599.57158 647.341722 
L 1599.925566 614.07648 
L 1600.279552 637.97888 
L 1600.633538 647.995622 
L 1602.049482 647.997312 
L 1602.403468 646.932454 
L 1602.757454 231.88416 
L 1603.11144 645.851776 
L 1603.465426 647.367603 
L 1603.819412 603.996928 
L 1604.173398 647.995622 
L 1614.085007 647.995622 
L 1614.438993 646.863168 
L 1614.792979 229.64736 
L 1615.146966 647.36791 
L 1615.500952 634.660544 
L 1615.854938 614.769088 
L 1616.208924 647.995622 
L 1617.978854 647.995622 
L 1618.33284 646.869965 
L 1618.686826 229.9232 
L 1619.040812 647.494989 
L 1619.748784 601.922624 
L 1620.10277 647.995622 
L 1621.8727 647.992243 
L 1622.226686 646.885773 
L 1622.580672 231.31712 
L 1622.934658 646.398106 
L 1623.288645 647.333274 
L 1623.642631 602.522496 
L 1623.996617 647.997312 
L 1625.766547 647.997312 
L 1626.120533 646.928026 
L 1626.474519 230.76736 
L 1626.828505 646.734362 
L 1627.182491 647.31607 
L 1627.536477 602.871936 
L 1627.890463 647.992781 
L 1639.572003 647.997312 
L 1648.421654 647.992781 
L 1657.271305 647.997312 
L 1680.280398 647.995622 
L 1703.643476 647.997312 
L 1712.847114 647.997312 
L 1720.988793 647.990976 
L 1721.342779 647.711664 
L 1721.696765 631.145472 
L 1722.050751 647.993088 
L 1724.882639 647.99664 
L 1725.236625 610.691392 
L 1725.590611 176.37632 
L 1725.944597 644.164896 
L 1726.298583 647.184608 
L 1726.652569 631.065408 
L 1727.006555 609.39264 
L 1727.360541 647.997312 
L 1745.767816 647.9952 
L 1764.17509 647.997312 
L 1770.546839 647.990976 
L 1776.918587 647.997312 
L 1795.325862 647.9952 
L 1813.733136 647.997312 
L 1819.396913 647.9952 
L 1819.750899 647.723696 
L 1820.104885 644.443456 
L 1820.458871 637.012032 
L 1820.812857 638.284288 
L 1821.166843 647.993088 
L 1822.582787 647.992416 
L 1822.936773 647.495632 
L 1823.290759 643.1456 
L 1823.644745 647.994528 
L 1826.476634 647.997312 
L 1826.83062 628.601984 
L 1827.184606 639.728192 
L 1827.538592 637.720192 
L 1828.246564 647.997312 
L 1829.662508 647.993088 
L 1830.016494 645.487667 
L 1830.724466 647.997312 
L 1832.14041 647.993088 
L 1832.494396 630.649024 
L 1832.848382 642.50896 
L 1833.202368 637.183104 
L 1833.556354 641.804019 
L 1833.91034 647.9952 
L 1835.326285 647.9952 
L 1835.680271 645.396211 
L 1836.388243 647.9952 
L 1854.795517 647.997312 
L 1860.105308 647.993088 
L 1860.459294 647.136205 
L 1860.81328 644.101952 
L 1861.167266 647.993088 
L 1862.58321 647.9952 
L 1862.937196 646.675405 
L 1863.291182 127.99616 
L 1863.645168 647.987712 
L 1863.999154 647.153536 
L 1864.35314 593.404928 
L 1864.707126 647.993088 
L 1866.477056 647.934576 
L 1866.831042 647.88416 
L 1867.185029 605.464128 
L 1867.539015 647.207776 
L 1867.893001 630.76672 
L 1868.246987 646.974432 
L 1868.600973 647.9952 
L 1910.725312 647.994528 
L 1911.079298 646.658976 
L 1911.433284 128.8736 
L 1911.78727 647.991936 
L 1912.141256 647.171104 
L 1912.495242 588.037632 
L 1912.849228 647.997312 
L 1914.973144 647.9952 
L 1915.32713 646.447155 
L 1915.681117 125.48224 
L 1916.035103 647.354272 
L 1916.743075 611.403648 
L 1917.097061 647.995872 
L 1925.592726 647.997312 
L 1925.946712 646.635533 
L 1926.300698 647.99664 
L 1929.132586 647.888384 
L 1929.486572 644.044352 
L 1929.840558 647.21984 
L 1930.194544 630.510464 
L 1930.54853 647.997312 
L 1944 647.9952 
L 1944 647.9952 
" style="fill:none;stroke:#0000ff;stroke-linecap:square;"/>
   </g>
   <g id="line2d_2">
    <defs>
     <path d="M 0 3 
C 0.795609 3 1.55874 2.683901 2.12132 2.12132 
C 2.683901 1.55874 3 0.795609 3 0 
C 3 -0.795609 2.683901 -1.55874 2.12132 -2.12132 
C 1.55874 -2.683901 0.795609 -3 0 -3 
C -0.795609 -3 -1.55874 -2.683901 -2.12132 -2.12132 
C -2.683901 -1.55874 -3 -0.795609 -3 0 
C -3 0.795609 -2.683901 1.55874 -2.12132 2.12132 
C -1.55874 2.683901 -0.795609 3 0 3 
z
" id="m9501e075ba" style="stroke:#000000;stroke-width:0.5;"/>
    </defs>
    <g clip-path="url(#pabcf39a844)">
     <use style="fill:#ff0000;stroke:#000000;stroke-width:0.5;" x="1187.88581096" xlink:href="#m9501e075ba" y="647.3325568"/>
     <use style="fill:#ff0000;stroke:#000000;stroke-width:0.5;" x="1193.90357369" xlink:href="#m9501e075ba" y="229.90976"/>
    </g>
   </g>
   <g id="patch_3">
    <path d="M 270 72 
L 1944 72 
" style="fill:none;stroke:#000000;stroke-linecap:square;stroke-linejoin:miter;"/>
   </g>
   <g id="patch_4">
    <path d="M 1944 648 
L 1944 72 
" style="fill:none;stroke:#000000;stroke-linecap:square;stroke-linejoin:miter;"/>
   </g>
   <g id="patch_5">
    <path d="M 270 648 
L 1944 648 
" style="fill:none;stroke:#000000;stroke-linecap:square;stroke-linejoin:miter;"/>
   </g>
   <g id="patch_6">
    <path d="M 270 648 
L 270 72 
" style="fill:none;stroke:#000000;stroke-linecap:square;stroke-linejoin:miter;"/>
   </g>
   <g id="matplotlib.axis_1">
    <g id="xtick_1">
     <g id="line2d_3">
      <defs>
       <path d="M 0 0 
L 0 -4 
" id="m40baead396" style="stroke:#000000;stroke-width:0.5;"/>
      </defs>
      <g>
       <use style="stroke:#000000;stroke-width:0.5;" x="399.134108707" xlink:href="#m40baead396" y="648.0"/>
      </g>
     </g>
     <g id="line2d_4">
      <defs>
       <path d="M 0 0 
L 0 4 
" id="m0c9cd70ef8" style="stroke:#000000;stroke-width:0.5;"/>
      </defs>
      <g>
       <use style="stroke:#000000;stroke-width:0.5;" x="399.134108707" xlink:href="#m0c9cd70ef8" y="72.0"/>
      </g>
     </g>
     <g id="text_1">
      <!-- Mar 03 2014 -->
      <defs>
       <path d="M 19.1875 8.296875 
L 53.609375 8.296875 
L 53.609375 0 
L 7.328125 0 
L 7.328125 8.296875 
Q 12.9375 14.109375 22.625 23.890625 
Q 32.328125 33.6875 34.8125 36.53125 
Q 39.546875 41.84375 41.421875 45.53125 
Q 43.3125 49.21875 43.3125 52.78125 
Q 43.3125 58.59375 39.234375 62.25 
Q 35.15625 65.921875 28.609375 65.921875 
Q 23.96875 65.921875 18.8125 64.3125 
Q 13.671875 62.703125 7.8125 59.421875 
L 7.8125 69.390625 
Q 13.765625 71.78125 18.9375 73 
Q 24.125 74.21875 28.421875 74.21875 
Q 39.75 74.21875 46.484375 68.546875 
Q 53.21875 62.890625 53.21875 53.421875 
Q 53.21875 48.921875 51.53125 44.890625 
Q 49.859375 40.875 45.40625 35.40625 
Q 44.1875 33.984375 37.640625 27.21875 
Q 31.109375 20.453125 19.1875 8.296875 
" id="BitstreamVeraSans-Roman-32"/>
       <path d="M 40.578125 39.3125 
Q 47.65625 37.796875 51.625 33 
Q 55.609375 28.21875 55.609375 21.1875 
Q 55.609375 10.40625 48.1875 4.484375 
Q 40.765625 -1.421875 27.09375 -1.421875 
Q 22.515625 -1.421875 17.65625 -0.515625 
Q 12.796875 0.390625 7.625 2.203125 
L 7.625 11.71875 
Q 11.71875 9.328125 16.59375 8.109375 
Q 21.484375 6.890625 26.8125 6.890625 
Q 36.078125 6.890625 40.9375 10.546875 
Q 45.796875 14.203125 45.796875 21.1875 
Q 45.796875 27.640625 41.28125 31.265625 
Q 36.765625 34.90625 28.71875 34.90625 
L 20.21875 34.90625 
L 20.21875 43.015625 
L 29.109375 43.015625 
Q 36.375 43.015625 40.234375 45.921875 
Q 44.09375 48.828125 44.09375 54.296875 
Q 44.09375 59.90625 40.109375 62.90625 
Q 36.140625 65.921875 28.71875 65.921875 
Q 24.65625 65.921875 20.015625 65.03125 
Q 15.375 64.15625 9.8125 62.3125 
L 9.8125 71.09375 
Q 15.4375 72.65625 20.34375 73.4375 
Q 25.25 74.21875 29.59375 74.21875 
Q 40.828125 74.21875 47.359375 69.109375 
Q 53.90625 64.015625 53.90625 55.328125 
Q 53.90625 49.265625 50.4375 45.09375 
Q 46.96875 40.921875 40.578125 39.3125 
" id="BitstreamVeraSans-Roman-33"/>
       <path d="M 31.78125 66.40625 
Q 24.171875 66.40625 20.328125 58.90625 
Q 16.5 51.421875 16.5 36.375 
Q 16.5 21.390625 20.328125 13.890625 
Q 24.171875 6.390625 31.78125 6.390625 
Q 39.453125 6.390625 43.28125 13.890625 
Q 47.125 21.390625 47.125 36.375 
Q 47.125 51.421875 43.28125 58.90625 
Q 39.453125 66.40625 31.78125 66.40625 
M 31.78125 74.21875 
Q 44.046875 74.21875 50.515625 64.515625 
Q 56.984375 54.828125 56.984375 36.375 
Q 56.984375 17.96875 50.515625 8.265625 
Q 44.046875 -1.421875 31.78125 -1.421875 
Q 19.53125 -1.421875 13.0625 8.265625 
Q 6.59375 17.96875 6.59375 36.375 
Q 6.59375 54.828125 13.0625 64.515625 
Q 19.53125 74.21875 31.78125 74.21875 
" id="BitstreamVeraSans-Roman-30"/>
       <path d="M 9.8125 72.90625 
L 24.515625 72.90625 
L 43.109375 23.296875 
L 61.8125 72.90625 
L 76.515625 72.90625 
L 76.515625 0 
L 66.890625 0 
L 66.890625 64.015625 
L 48.09375 14.015625 
L 38.1875 14.015625 
L 19.390625 64.015625 
L 19.390625 0 
L 9.8125 0 
z
" id="BitstreamVeraSans-Roman-4d"/>
       <path d="M 37.796875 64.3125 
L 12.890625 25.390625 
L 37.796875 25.390625 
z
M 35.203125 72.90625 
L 47.609375 72.90625 
L 47.609375 25.390625 
L 58.015625 25.390625 
L 58.015625 17.1875 
L 47.609375 17.1875 
L 47.609375 0 
L 37.796875 0 
L 37.796875 17.1875 
L 4.890625 17.1875 
L 4.890625 26.703125 
z
" id="BitstreamVeraSans-Roman-34"/>
       <path id="BitstreamVeraSans-Roman-20"/>
       <path d="M 34.28125 27.484375 
Q 23.390625 27.484375 19.1875 25 
Q 14.984375 22.515625 14.984375 16.5 
Q 14.984375 11.71875 18.140625 8.90625 
Q 21.296875 6.109375 26.703125 6.109375 
Q 34.1875 6.109375 38.703125 11.40625 
Q 43.21875 16.703125 43.21875 25.484375 
L 43.21875 27.484375 
z
M 52.203125 31.203125 
L 52.203125 0 
L 43.21875 0 
L 43.21875 8.296875 
Q 40.140625 3.328125 35.546875 0.953125 
Q 30.953125 -1.421875 24.3125 -1.421875 
Q 15.921875 -1.421875 10.953125 3.296875 
Q 6 8.015625 6 15.921875 
Q 6 25.140625 12.171875 29.828125 
Q 18.359375 34.515625 30.609375 34.515625 
L 43.21875 34.515625 
L 43.21875 35.40625 
Q 43.21875 41.609375 39.140625 45 
Q 35.0625 48.390625 27.6875 48.390625 
Q 23 48.390625 18.546875 47.265625 
Q 14.109375 46.140625 10.015625 43.890625 
L 10.015625 52.203125 
Q 14.9375 54.109375 19.578125 55.046875 
Q 24.21875 56 28.609375 56 
Q 40.484375 56 46.34375 49.84375 
Q 52.203125 43.703125 52.203125 31.203125 
" id="BitstreamVeraSans-Roman-61"/>
       <path d="M 12.40625 8.296875 
L 28.515625 8.296875 
L 28.515625 63.921875 
L 10.984375 60.40625 
L 10.984375 69.390625 
L 28.421875 72.90625 
L 38.28125 72.90625 
L 38.28125 8.296875 
L 54.390625 8.296875 
L 54.390625 0 
L 12.40625 0 
z
" id="BitstreamVeraSans-Roman-31"/>
       <path d="M 41.109375 46.296875 
Q 39.59375 47.171875 37.8125 47.578125 
Q 36.03125 48 33.890625 48 
Q 26.265625 48 22.1875 43.046875 
Q 18.109375 38.09375 18.109375 28.8125 
L 18.109375 0 
L 9.078125 0 
L 9.078125 54.6875 
L 18.109375 54.6875 
L 18.109375 46.1875 
Q 20.953125 51.171875 25.484375 53.578125 
Q 30.03125 56 36.53125 56 
Q 37.453125 56 38.578125 55.875 
Q 39.703125 55.765625 41.0625 55.515625 
z
" id="BitstreamVeraSans-Roman-72"/>
      </defs>
      <g transform="translate(361.095046207 661.118125)scale(0.12 -0.12)">
       <use xlink:href="#BitstreamVeraSans-Roman-4d"/>
       <use x="86.279296875" xlink:href="#BitstreamVeraSans-Roman-61"/>
       <use x="147.55859375" xlink:href="#BitstreamVeraSans-Roman-72"/>
       <use x="188.671875" xlink:href="#BitstreamVeraSans-Roman-20"/>
       <use x="220.458984375" xlink:href="#BitstreamVeraSans-Roman-30"/>
       <use x="284.08203125" xlink:href="#BitstreamVeraSans-Roman-33"/>
       <use x="347.705078125" xlink:href="#BitstreamVeraSans-Roman-20"/>
       <use x="379.4921875" xlink:href="#BitstreamVeraSans-Roman-32"/>
       <use x="443.115234375" xlink:href="#BitstreamVeraSans-Roman-30"/>
       <use x="506.73828125" xlink:href="#BitstreamVeraSans-Roman-31"/>
       <use x="570.361328125" xlink:href="#BitstreamVeraSans-Roman-34"/>
      </g>
     </g>
    </g>
    <g id="xtick_2">
     <g id="line2d_5">
      <g>
       <use style="stroke:#000000;stroke-width:0.5;" x="603.030069783" xlink:href="#m40baead396" y="648.0"/>
      </g>
     </g>
     <g id="line2d_6">
      <g>
       <use style="stroke:#000000;stroke-width:0.5;" x="603.030069783" xlink:href="#m0c9cd70ef8" y="72.0"/>
      </g>
     </g>
     <g id="text_2">
      <!-- Mar 05 2014 -->
      <defs>
       <path d="M 10.796875 72.90625 
L 49.515625 72.90625 
L 49.515625 64.59375 
L 19.828125 64.59375 
L 19.828125 46.734375 
Q 21.96875 47.46875 24.109375 47.828125 
Q 26.265625 48.1875 28.421875 48.1875 
Q 40.625 48.1875 47.75 41.5 
Q 54.890625 34.8125 54.890625 23.390625 
Q 54.890625 11.625 47.5625 5.09375 
Q 40.234375 -1.421875 26.90625 -1.421875 
Q 22.3125 -1.421875 17.546875 -0.640625 
Q 12.796875 0.140625 7.71875 1.703125 
L 7.71875 11.625 
Q 12.109375 9.234375 16.796875 8.0625 
Q 21.484375 6.890625 26.703125 6.890625 
Q 35.15625 6.890625 40.078125 11.328125 
Q 45.015625 15.765625 45.015625 23.390625 
Q 45.015625 31 40.078125 35.4375 
Q 35.15625 39.890625 26.703125 39.890625 
Q 22.75 39.890625 18.8125 39.015625 
Q 14.890625 38.140625 10.796875 36.28125 
z
" id="BitstreamVeraSans-Roman-35"/>
      </defs>
      <g transform="translate(564.991007283 661.118125)scale(0.12 -0.12)">
       <use xlink:href="#BitstreamVeraSans-Roman-4d"/>
       <use x="86.279296875" xlink:href="#BitstreamVeraSans-Roman-61"/>
       <use x="147.55859375" xlink:href="#BitstreamVeraSans-Roman-72"/>
       <use x="188.671875" xlink:href="#BitstreamVeraSans-Roman-20"/>
       <use x="220.458984375" xlink:href="#BitstreamVeraSans-Roman-30"/>
       <use x="284.08203125" xlink:href="#BitstreamVeraSans-Roman-35"/>
       <use x="347.705078125" xlink:href="#BitstreamVeraSans-Roman-20"/>
       <use x="379.4921875" xlink:href="#BitstreamVeraSans-Roman-32"/>
       <use x="443.115234375" xlink:href="#BitstreamVeraSans-Roman-30"/>
       <use x="506.73828125" xlink:href="#BitstreamVeraSans-Roman-31"/>
       <use x="570.361328125" xlink:href="#BitstreamVeraSans-Roman-34"/>
      </g>
     </g>
    </g>
    <g id="xtick_3">
     <g id="line2d_7">
      <g>
       <use style="stroke:#000000;stroke-width:0.5;" x="806.926030874" xlink:href="#m40baead396" y="648.0"/>
      </g>
     </g>
     <g id="line2d_8">
      <g>
       <use style="stroke:#000000;stroke-width:0.5;" x="806.926030874" xlink:href="#m0c9cd70ef8" y="72.0"/>
      </g>
     </g>
     <g id="text_3">
      <!-- Mar 07 2014 -->
      <defs>
       <path d="M 8.203125 72.90625 
L 55.078125 72.90625 
L 55.078125 68.703125 
L 28.609375 0 
L 18.3125 0 
L 43.21875 64.59375 
L 8.203125 64.59375 
z
" id="BitstreamVeraSans-Roman-37"/>
      </defs>
      <g transform="translate(768.886968374 661.118125)scale(0.12 -0.12)">
       <use xlink:href="#BitstreamVeraSans-Roman-4d"/>
       <use x="86.279296875" xlink:href="#BitstreamVeraSans-Roman-61"/>
       <use x="147.55859375" xlink:href="#BitstreamVeraSans-Roman-72"/>
       <use x="188.671875" xlink:href="#BitstreamVeraSans-Roman-20"/>
       <use x="220.458984375" xlink:href="#BitstreamVeraSans-Roman-30"/>
       <use x="284.08203125" xlink:href="#BitstreamVeraSans-Roman-37"/>
       <use x="347.705078125" xlink:href="#BitstreamVeraSans-Roman-20"/>
       <use x="379.4921875" xlink:href="#BitstreamVeraSans-Roman-32"/>
       <use x="443.115234375" xlink:href="#BitstreamVeraSans-Roman-30"/>
       <use x="506.73828125" xlink:href="#BitstreamVeraSans-Roman-31"/>
       <use x="570.361328125" xlink:href="#BitstreamVeraSans-Roman-34"/>
      </g>
     </g>
    </g>
    <g id="xtick_4">
     <g id="line2d_9">
      <g>
       <use style="stroke:#000000;stroke-width:0.5;" x="1010.82199197" xlink:href="#m40baead396" y="648.0"/>
      </g>
     </g>
     <g id="line2d_10">
      <g>
       <use style="stroke:#000000;stroke-width:0.5;" x="1010.82199197" xlink:href="#m0c9cd70ef8" y="72.0"/>
      </g>
     </g>
     <g id="text_4">
      <!-- Mar 09 2014 -->
      <defs>
       <path d="M 10.984375 1.515625 
L 10.984375 10.5 
Q 14.703125 8.734375 18.5 7.8125 
Q 22.3125 6.890625 25.984375 6.890625 
Q 35.75 6.890625 40.890625 13.453125 
Q 46.046875 20.015625 46.78125 33.40625 
Q 43.953125 29.203125 39.59375 26.953125 
Q 35.25 24.703125 29.984375 24.703125 
Q 19.046875 24.703125 12.671875 31.3125 
Q 6.296875 37.9375 6.296875 49.421875 
Q 6.296875 60.640625 12.9375 67.421875 
Q 19.578125 74.21875 30.609375 74.21875 
Q 43.265625 74.21875 49.921875 64.515625 
Q 56.59375 54.828125 56.59375 36.375 
Q 56.59375 19.140625 48.40625 8.859375 
Q 40.234375 -1.421875 26.421875 -1.421875 
Q 22.703125 -1.421875 18.890625 -0.6875 
Q 15.09375 0.046875 10.984375 1.515625 
M 30.609375 32.421875 
Q 37.25 32.421875 41.125 36.953125 
Q 45.015625 41.5 45.015625 49.421875 
Q 45.015625 57.28125 41.125 61.84375 
Q 37.25 66.40625 30.609375 66.40625 
Q 23.96875 66.40625 20.09375 61.84375 
Q 16.21875 57.28125 16.21875 49.421875 
Q 16.21875 41.5 20.09375 36.953125 
Q 23.96875 32.421875 30.609375 32.421875 
" id="BitstreamVeraSans-Roman-39"/>
      </defs>
      <g transform="translate(972.782929465 661.118125)scale(0.12 -0.12)">
       <use xlink:href="#BitstreamVeraSans-Roman-4d"/>
       <use x="86.279296875" xlink:href="#BitstreamVeraSans-Roman-61"/>
       <use x="147.55859375" xlink:href="#BitstreamVeraSans-Roman-72"/>
       <use x="188.671875" xlink:href="#BitstreamVeraSans-Roman-20"/>
       <use x="220.458984375" xlink:href="#BitstreamVeraSans-Roman-30"/>
       <use x="284.08203125" xlink:href="#BitstreamVeraSans-Roman-39"/>
       <use x="347.705078125" xlink:href="#BitstreamVeraSans-Roman-20"/>
       <use x="379.4921875" xlink:href="#BitstreamVeraSans-Roman-32"/>
       <use x="443.115234375" xlink:href="#BitstreamVeraSans-Roman-30"/>
       <use x="506.73828125" xlink:href="#BitstreamVeraSans-Roman-31"/>
       <use x="570.361328125" xlink:href="#BitstreamVeraSans-Roman-34"/>
      </g>
     </g>
    </g>
    <g id="xtick_5">
     <g id="line2d_11">
      <g>
       <use style="stroke:#000000;stroke-width:0.5;" x="1214.71795306" xlink:href="#m40baead396" y="648.0"/>
      </g>
     </g>
     <g id="line2d_12">
      <g>
       <use style="stroke:#000000;stroke-width:0.5;" x="1214.71795306" xlink:href="#m0c9cd70ef8" y="72.0"/>
      </g>
     </g>
     <g id="text_5">
      <!-- Mar 11 2014 -->
      <g transform="translate(1176.67889056 661.118125)scale(0.12 -0.12)">
       <use xlink:href="#BitstreamVeraSans-Roman-4d"/>
       <use x="86.279296875" xlink:href="#BitstreamVeraSans-Roman-61"/>
       <use x="147.55859375" xlink:href="#BitstreamVeraSans-Roman-72"/>
       <use x="188.671875" xlink:href="#BitstreamVeraSans-Roman-20"/>
       <use x="220.458984375" xlink:href="#BitstreamVeraSans-Roman-31"/>
       <use x="284.08203125" xlink:href="#BitstreamVeraSans-Roman-31"/>
       <use x="347.705078125" xlink:href="#BitstreamVeraSans-Roman-20"/>
       <use x="379.4921875" xlink:href="#BitstreamVeraSans-Roman-32"/>
       <use x="443.115234375" xlink:href="#BitstreamVeraSans-Roman-30"/>
       <use x="506.73828125" xlink:href="#BitstreamVeraSans-Roman-31"/>
       <use x="570.361328125" xlink:href="#BitstreamVeraSans-Roman-34"/>
      </g>
     </g>
    </g>
    <g id="xtick_6">
     <g id="line2d_13">
      <g>
       <use style="stroke:#000000;stroke-width:0.5;" x="1418.61391415" xlink:href="#m40baead396" y="648.0"/>
      </g>
     </g>
     <g id="line2d_14">
      <g>
       <use style="stroke:#000000;stroke-width:0.5;" x="1418.61391415" xlink:href="#m0c9cd70ef8" y="72.0"/>
      </g>
     </g>
     <g id="text_6">
      <!-- Mar 13 2014 -->
      <g transform="translate(1380.57485165 661.118125)scale(0.12 -0.12)">
       <use xlink:href="#BitstreamVeraSans-Roman-4d"/>
       <use x="86.279296875" xlink:href="#BitstreamVeraSans-Roman-61"/>
       <use x="147.55859375" xlink:href="#BitstreamVeraSans-Roman-72"/>
       <use x="188.671875" xlink:href="#BitstreamVeraSans-Roman-20"/>
       <use x="220.458984375" xlink:href="#BitstreamVeraSans-Roman-31"/>
       <use x="284.08203125" xlink:href="#BitstreamVeraSans-Roman-33"/>
       <use x="347.705078125" xlink:href="#BitstreamVeraSans-Roman-20"/>
       <use x="379.4921875" xlink:href="#BitstreamVeraSans-Roman-32"/>
       <use x="443.115234375" xlink:href="#BitstreamVeraSans-Roman-30"/>
       <use x="506.73828125" xlink:href="#BitstreamVeraSans-Roman-31"/>
       <use x="570.361328125" xlink:href="#BitstreamVeraSans-Roman-34"/>
      </g>
     </g>
    </g>
    <g id="xtick_7">
     <g id="line2d_15">
      <g>
       <use style="stroke:#000000;stroke-width:0.5;" x="1622.50987524" xlink:href="#m40baead396" y="648.0"/>
      </g>
     </g>
     <g id="line2d_16">
      <g>
       <use style="stroke:#000000;stroke-width:0.5;" x="1622.50987524" xlink:href="#m0c9cd70ef8" y="72.0"/>
      </g>
     </g>
     <g id="text_7">
      <!-- Mar 15 2014 -->
      <g transform="translate(1584.47081274 661.118125)scale(0.12 -0.12)">
       <use xlink:href="#BitstreamVeraSans-Roman-4d"/>
       <use x="86.279296875" xlink:href="#BitstreamVeraSans-Roman-61"/>
       <use x="147.55859375" xlink:href="#BitstreamVeraSans-Roman-72"/>
       <use x="188.671875" xlink:href="#BitstreamVeraSans-Roman-20"/>
       <use x="220.458984375" xlink:href="#BitstreamVeraSans-Roman-31"/>
       <use x="284.08203125" xlink:href="#BitstreamVeraSans-Roman-35"/>
       <use x="347.705078125" xlink:href="#BitstreamVeraSans-Roman-20"/>
       <use x="379.4921875" xlink:href="#BitstreamVeraSans-Roman-32"/>
       <use x="443.115234375" xlink:href="#BitstreamVeraSans-Roman-30"/>
       <use x="506.73828125" xlink:href="#BitstreamVeraSans-Roman-31"/>
       <use x="570.361328125" xlink:href="#BitstreamVeraSans-Roman-34"/>
      </g>
     </g>
    </g>
    <g id="xtick_8">
     <g id="line2d_17">
      <g>
       <use style="stroke:#000000;stroke-width:0.5;" x="1826.40583633" xlink:href="#m40baead396" y="648.0"/>
      </g>
     </g>
     <g id="line2d_18">
      <g>
       <use style="stroke:#000000;stroke-width:0.5;" x="1826.40583633" xlink:href="#m0c9cd70ef8" y="72.0"/>
      </g>
     </g>
     <g id="text_8">
      <!-- Mar 17 2014 -->
      <g transform="translate(1788.36677383 661.118125)scale(0.12 -0.12)">
       <use xlink:href="#BitstreamVeraSans-Roman-4d"/>
       <use x="86.279296875" xlink:href="#BitstreamVeraSans-Roman-61"/>
       <use x="147.55859375" xlink:href="#BitstreamVeraSans-Roman-72"/>
       <use x="188.671875" xlink:href="#BitstreamVeraSans-Roman-20"/>
       <use x="220.458984375" xlink:href="#BitstreamVeraSans-Roman-31"/>
       <use x="284.08203125" xlink:href="#BitstreamVeraSans-Roman-37"/>
       <use x="347.705078125" xlink:href="#BitstreamVeraSans-Roman-20"/>
       <use x="379.4921875" xlink:href="#BitstreamVeraSans-Roman-32"/>
       <use x="443.115234375" xlink:href="#BitstreamVeraSans-Roman-30"/>
       <use x="506.73828125" xlink:href="#BitstreamVeraSans-Roman-31"/>
       <use x="570.361328125" xlink:href="#BitstreamVeraSans-Roman-34"/>
      </g>
     </g>
    </g>
   </g>
   <g id="matplotlib.axis_2">
    <g id="ytick_1">
     <g id="line2d_19">
      <defs>
       <path d="M 0 0 
L 4 0 
" id="m37ab7f3783" style="stroke:#000000;stroke-width:0.5;"/>
      </defs>
      <g>
       <use style="stroke:#000000;stroke-width:0.5;" x="270.0" xlink:href="#m37ab7f3783" y="648.0"/>
      </g>
     </g>
     <g id="line2d_20">
      <defs>
       <path d="M 0 0 
L -4 0 
" id="mc0a6d2bcf1" style="stroke:#000000;stroke-width:0.5;"/>
      </defs>
      <g>
       <use style="stroke:#000000;stroke-width:0.5;" x="1944.0" xlink:href="#mc0a6d2bcf1" y="648.0"/>
      </g>
     </g>
     <g id="text_9">
      <!-- 0 -->
      <g transform="translate(258.365 651.31125)scale(0.12 -0.12)">
       <use xlink:href="#BitstreamVeraSans-Roman-30"/>
      </g>
     </g>
    </g>
    <g id="ytick_2">
     <g id="line2d_21">
      <g>
       <use style="stroke:#000000;stroke-width:0.5;" x="270.0" xlink:href="#m37ab7f3783" y="584.0"/>
      </g>
     </g>
     <g id="line2d_22">
      <g>
       <use style="stroke:#000000;stroke-width:0.5;" x="1944.0" xlink:href="#mc0a6d2bcf1" y="584.0"/>
      </g>
     </g>
     <g id="text_10">
      <!-- 1000000 -->
      <g transform="translate(212.555 587.31125)scale(0.12 -0.12)">
       <use xlink:href="#BitstreamVeraSans-Roman-31"/>
       <use x="63.623046875" xlink:href="#BitstreamVeraSans-Roman-30"/>
       <use x="127.24609375" xlink:href="#BitstreamVeraSans-Roman-30"/>
       <use x="190.869140625" xlink:href="#BitstreamVeraSans-Roman-30"/>
       <use x="254.4921875" xlink:href="#BitstreamVeraSans-Roman-30"/>
       <use x="318.115234375" xlink:href="#BitstreamVeraSans-Roman-30"/>
       <use x="381.73828125" xlink:href="#BitstreamVeraSans-Roman-30"/>
      </g>
     </g>
    </g>
    <g id="ytick_3">
     <g id="line2d_23">
      <g>
       <use style="stroke:#000000;stroke-width:0.5;" x="270.0" xlink:href="#m37ab7f3783" y="520.0"/>
      </g>
     </g>
     <g id="line2d_24">
      <g>
       <use style="stroke:#000000;stroke-width:0.5;" x="1944.0" xlink:href="#mc0a6d2bcf1" y="520.0"/>
      </g>
     </g>
     <g id="text_11">
      <!-- 2000000 -->
      <g transform="translate(212.555 523.31125)scale(0.12 -0.12)">
       <use xlink:href="#BitstreamVeraSans-Roman-32"/>
       <use x="63.623046875" xlink:href="#BitstreamVeraSans-Roman-30"/>
       <use x="127.24609375" xlink:href="#BitstreamVeraSans-Roman-30"/>
       <use x="190.869140625" xlink:href="#BitstreamVeraSans-Roman-30"/>
       <use x="254.4921875" xlink:href="#BitstreamVeraSans-Roman-30"/>
       <use x="318.115234375" xlink:href="#BitstreamVeraSans-Roman-30"/>
       <use x="381.73828125" xlink:href="#BitstreamVeraSans-Roman-30"/>
      </g>
     </g>
    </g>
    <g id="ytick_4">
     <g id="line2d_25">
      <g>
       <use style="stroke:#000000;stroke-width:0.5;" x="270.0" xlink:href="#m37ab7f3783" y="456.0"/>
      </g>
     </g>
     <g id="line2d_26">
      <g>
       <use style="stroke:#000000;stroke-width:0.5;" x="1944.0" xlink:href="#mc0a6d2bcf1" y="456.0"/>
      </g>
     </g>
     <g id="text_12">
      <!-- 3000000 -->
      <g transform="translate(212.555 459.31125)scale(0.12 -0.12)">
       <use xlink:href="#BitstreamVeraSans-Roman-33"/>
       <use x="63.623046875" xlink:href="#BitstreamVeraSans-Roman-30"/>
       <use x="127.24609375" xlink:href="#BitstreamVeraSans-Roman-30"/>
       <use x="190.869140625" xlink:href="#BitstreamVeraSans-Roman-30"/>
       <use x="254.4921875" xlink:href="#BitstreamVeraSans-Roman-30"/>
       <use x="318.115234375" xlink:href="#BitstreamVeraSans-Roman-30"/>
       <use x="381.73828125" xlink:href="#BitstreamVeraSans-Roman-30"/>
      </g>
     </g>
    </g>
    <g id="ytick_5">
     <g id="line2d_27">
      <g>
       <use style="stroke:#000000;stroke-width:0.5;" x="270.0" xlink:href="#m37ab7f3783" y="392.0"/>
      </g>
     </g>
     <g id="line2d_28">
      <g>
       <use style="stroke:#000000;stroke-width:0.5;" x="1944.0" xlink:href="#mc0a6d2bcf1" y="392.0"/>
      </g>
     </g>
     <g id="text_13">
      <!-- 4000000 -->
      <g transform="translate(212.555 395.31125)scale(0.12 -0.12)">
       <use xlink:href="#BitstreamVeraSans-Roman-34"/>
       <use x="63.623046875" xlink:href="#BitstreamVeraSans-Roman-30"/>
       <use x="127.24609375" xlink:href="#BitstreamVeraSans-Roman-30"/>
       <use x="190.869140625" xlink:href="#BitstreamVeraSans-Roman-30"/>
       <use x="254.4921875" xlink:href="#BitstreamVeraSans-Roman-30"/>
       <use x="318.115234375" xlink:href="#BitstreamVeraSans-Roman-30"/>
       <use x="381.73828125" xlink:href="#BitstreamVeraSans-Roman-30"/>
      </g>
     </g>
    </g>
    <g id="ytick_6">
     <g id="line2d_29">
      <g>
       <use style="stroke:#000000;stroke-width:0.5;" x="270.0" xlink:href="#m37ab7f3783" y="328.0"/>
      </g>
     </g>
     <g id="line2d_30">
      <g>
       <use style="stroke:#000000;stroke-width:0.5;" x="1944.0" xlink:href="#mc0a6d2bcf1" y="328.0"/>
      </g>
     </g>
     <g id="text_14">
      <!-- 5000000 -->
      <g transform="translate(212.555 331.31125)scale(0.12 -0.12)">
       <use xlink:href="#BitstreamVeraSans-Roman-35"/>
       <use x="63.623046875" xlink:href="#BitstreamVeraSans-Roman-30"/>
       <use x="127.24609375" xlink:href="#BitstreamVeraSans-Roman-30"/>
       <use x="190.869140625" xlink:href="#BitstreamVeraSans-Roman-30"/>
       <use x="254.4921875" xlink:href="#BitstreamVeraSans-Roman-30"/>
       <use x="318.115234375" xlink:href="#BitstreamVeraSans-Roman-30"/>
       <use x="381.73828125" xlink:href="#BitstreamVeraSans-Roman-30"/>
      </g>
     </g>
    </g>
    <g id="ytick_7">
     <g id="line2d_31">
      <g>
       <use style="stroke:#000000;stroke-width:0.5;" x="270.0" xlink:href="#m37ab7f3783" y="264.0"/>
      </g>
     </g>
     <g id="line2d_32">
      <g>
       <use style="stroke:#000000;stroke-width:0.5;" x="1944.0" xlink:href="#mc0a6d2bcf1" y="264.0"/>
      </g>
     </g>
     <g id="text_15">
      <!-- 6000000 -->
      <defs>
       <path d="M 33.015625 40.375 
Q 26.375 40.375 22.484375 35.828125 
Q 18.609375 31.296875 18.609375 23.390625 
Q 18.609375 15.53125 22.484375 10.953125 
Q 26.375 6.390625 33.015625 6.390625 
Q 39.65625 6.390625 43.53125 10.953125 
Q 47.40625 15.53125 47.40625 23.390625 
Q 47.40625 31.296875 43.53125 35.828125 
Q 39.65625 40.375 33.015625 40.375 
M 52.59375 71.296875 
L 52.59375 62.3125 
Q 48.875 64.0625 45.09375 64.984375 
Q 41.3125 65.921875 37.59375 65.921875 
Q 27.828125 65.921875 22.671875 59.328125 
Q 17.53125 52.734375 16.796875 39.40625 
Q 19.671875 43.65625 24.015625 45.921875 
Q 28.375 48.1875 33.59375 48.1875 
Q 44.578125 48.1875 50.953125 41.515625 
Q 57.328125 34.859375 57.328125 23.390625 
Q 57.328125 12.15625 50.6875 5.359375 
Q 44.046875 -1.421875 33.015625 -1.421875 
Q 20.359375 -1.421875 13.671875 8.265625 
Q 6.984375 17.96875 6.984375 36.375 
Q 6.984375 53.65625 15.1875 63.9375 
Q 23.390625 74.21875 37.203125 74.21875 
Q 40.921875 74.21875 44.703125 73.484375 
Q 48.484375 72.75 52.59375 71.296875 
" id="BitstreamVeraSans-Roman-36"/>
      </defs>
      <g transform="translate(212.555 267.31125)scale(0.12 -0.12)">
       <use xlink:href="#BitstreamVeraSans-Roman-36"/>
       <use x="63.623046875" xlink:href="#BitstreamVeraSans-Roman-30"/>
       <use x="127.24609375" xlink:href="#BitstreamVeraSans-Roman-30"/>
       <use x="190.869140625" xlink:href="#BitstreamVeraSans-Roman-30"/>
       <use x="254.4921875" xlink:href="#BitstreamVeraSans-Roman-30"/>
       <use x="318.115234375" xlink:href="#BitstreamVeraSans-Roman-30"/>
       <use x="381.73828125" xlink:href="#BitstreamVeraSans-Roman-30"/>
      </g>
     </g>
    </g>
    <g id="ytick_8">
     <g id="line2d_33">
      <g>
       <use style="stroke:#000000;stroke-width:0.5;" x="270.0" xlink:href="#m37ab7f3783" y="200.0"/>
      </g>
     </g>
     <g id="line2d_34">
      <g>
       <use style="stroke:#000000;stroke-width:0.5;" x="1944.0" xlink:href="#mc0a6d2bcf1" y="200.0"/>
      </g>
     </g>
     <g id="text_16">
      <!-- 7000000 -->
      <g transform="translate(212.555 203.31125)scale(0.12 -0.12)">
       <use xlink:href="#BitstreamVeraSans-Roman-37"/>
       <use x="63.623046875" xlink:href="#BitstreamVeraSans-Roman-30"/>
       <use x="127.24609375" xlink:href="#BitstreamVeraSans-Roman-30"/>
       <use x="190.869140625" xlink:href="#BitstreamVeraSans-Roman-30"/>
       <use x="254.4921875" xlink:href="#BitstreamVeraSans-Roman-30"/>
       <use x="318.115234375" xlink:href="#BitstreamVeraSans-Roman-30"/>
       <use x="381.73828125" xlink:href="#BitstreamVeraSans-Roman-30"/>
      </g>
     </g>
    </g>
    <g id="ytick_9">
     <g id="line2d_35">
      <g>
       <use style="stroke:#000000;stroke-width:0.5;" x="270.0" xlink:href="#m37ab7f3783" y="136.0"/>
      </g>
     </g>
     <g id="line2d_36">
      <g>
       <use style="stroke:#000000;stroke-width:0.5;" x="1944.0" xlink:href="#mc0a6d2bcf1" y="136.0"/>
      </g>
     </g>
     <g id="text_17">
      <!-- 8000000 -->
      <defs>
       <path d="M 31.78125 34.625 
Q 24.75 34.625 20.71875 30.859375 
Q 16.703125 27.09375 16.703125 20.515625 
Q 16.703125 13.921875 20.71875 10.15625 
Q 24.75 6.390625 31.78125 6.390625 
Q 38.8125 6.390625 42.859375 10.171875 
Q 46.921875 13.96875 46.921875 20.515625 
Q 46.921875 27.09375 42.890625 30.859375 
Q 38.875 34.625 31.78125 34.625 
M 21.921875 38.8125 
Q 15.578125 40.375 12.03125 44.71875 
Q 8.5 49.078125 8.5 55.328125 
Q 8.5 64.0625 14.71875 69.140625 
Q 20.953125 74.21875 31.78125 74.21875 
Q 42.671875 74.21875 48.875 69.140625 
Q 55.078125 64.0625 55.078125 55.328125 
Q 55.078125 49.078125 51.53125 44.71875 
Q 48 40.375 41.703125 38.8125 
Q 48.828125 37.15625 52.796875 32.3125 
Q 56.78125 27.484375 56.78125 20.515625 
Q 56.78125 9.90625 50.3125 4.234375 
Q 43.84375 -1.421875 31.78125 -1.421875 
Q 19.734375 -1.421875 13.25 4.234375 
Q 6.78125 9.90625 6.78125 20.515625 
Q 6.78125 27.484375 10.78125 32.3125 
Q 14.796875 37.15625 21.921875 38.8125 
M 18.3125 54.390625 
Q 18.3125 48.734375 21.84375 45.5625 
Q 25.390625 42.390625 31.78125 42.390625 
Q 38.140625 42.390625 41.71875 45.5625 
Q 45.3125 48.734375 45.3125 54.390625 
Q 45.3125 60.0625 41.71875 63.234375 
Q 38.140625 66.40625 31.78125 66.40625 
Q 25.390625 66.40625 21.84375 63.234375 
Q 18.3125 60.0625 18.3125 54.390625 
" id="BitstreamVeraSans-Roman-38"/>
      </defs>
      <g transform="translate(212.555 139.31125)scale(0.12 -0.12)">
       <use xlink:href="#BitstreamVeraSans-Roman-38"/>
       <use x="63.623046875" xlink:href="#BitstreamVeraSans-Roman-30"/>
       <use x="127.24609375" xlink:href="#BitstreamVeraSans-Roman-30"/>
       <use x="190.869140625" xlink:href="#BitstreamVeraSans-Roman-30"/>
       <use x="254.4921875" xlink:href="#BitstreamVeraSans-Roman-30"/>
       <use x="318.115234375" xlink:href="#BitstreamVeraSans-Roman-30"/>
       <use x="381.73828125" xlink:href="#BitstreamVeraSans-Roman-30"/>
      </g>
     </g>
    </g>
    <g id="ytick_10">
     <g id="line2d_37">
      <g>
       <use style="stroke:#000000;stroke-width:0.5;" x="270.0" xlink:href="#m37ab7f3783" y="72.0"/>
      </g>
     </g>
     <g id="line2d_38">
      <g>
       <use style="stroke:#000000;stroke-width:0.5;" x="1944.0" xlink:href="#mc0a6d2bcf1" y="72.0"/>
      </g>
     </g>
     <g id="text_18">
      <!-- 9000000 -->
      <g transform="translate(212.555 75.31125)scale(0.12 -0.12)">
       <use xlink:href="#BitstreamVeraSans-Roman-39"/>
       <use x="63.623046875" xlink:href="#BitstreamVeraSans-Roman-30"/>
       <use x="127.24609375" xlink:href="#BitstreamVeraSans-Roman-30"/>
       <use x="190.869140625" xlink:href="#BitstreamVeraSans-Roman-30"/>
       <use x="254.4921875" xlink:href="#BitstreamVeraSans-Roman-30"/>
       <use x="318.115234375" xlink:href="#BitstreamVeraSans-Roman-30"/>
       <use x="381.73828125" xlink:href="#BitstreamVeraSans-Roman-30"/>
      </g>
     </g>
    </g>
   </g>
  </g>
 </g>
 <defs>
  <clipPath id="pabcf39a844">
   <rect height="576.0" width="1674.0" x="270.0" y="72.0"/>
  </clipPath>
 </defs>
</svg>
