<?xml version="1.0" encoding="utf-8" standalone="no"?>
<!DOCTYPE svg PUBLIC "-//W3C//DTD SVG 1.1//EN"
  "http://www.w3.org/Graphics/SVG/1.1/DTD/svg11.dtd">
<!-- Created with matplotlib (http://matplotlib.org/) -->
<svg height="720pt" version="1.1" viewBox="0 0 2160 720" width="2160pt" xmlns="http://www.w3.org/2000/svg" xmlns:xlink="http://www.w3.org/1999/xlink">
 <defs>
  <style type="text/css">
*{stroke-linecap:butt;stroke-linejoin:round;stroke-miterlimit:100000;}
  </style>
 </defs>
 <g id="figure_1">
  <g id="patch_1">
   <path d="M 0 720 
L 2160 720 
L 2160 0 
L 0 0 
z
" style="fill:#ffffff;"/>
  </g>
  <g id="axes_1">
   <g id="patch_2">
    <path d="M 270 648 
L 1944 648 
L 1944 72 
L 270 72 
z
" style="fill:#ffffff;"/>
   </g>
   <g id="line2d_1">
    <path clip-path="url(#pb9c2fda6e3)" d="M 270 648 
L 314.435128 648 
L 314.850409 187.2 
L 319.418507 187.2 
L 319.833788 95.04 
L 324.401885 95.04 
L 324.817167 76.608 
L 329.385264 76.608 
L 329.800546 72.9216 
L 334.368643 72.9216 
L 334.783925 72.18432 
L 339.352022 72.18432 
L 339.767303 72.036864 
L 359.285537 72.000295 
L 359.700819 532.800059 
L 364.268916 532.800059 
L 364.684197 624.960012 
L 369.252295 624.960012 
L 369.667576 643.392002 
L 374.235674 643.392002 
L 374.650955 647.0784 
L 379.219052 647.0784 
L 379.634334 647.81568 
L 384.202431 647.81568 
L 384.617713 647.963136 
L 434.036219 648 
L 434.451501 187.2 
L 439.019598 187.2 
L 439.43488 95.04 
L 444.002977 95.04 
L 444.418259 76.608 
L 448.986356 76.608 
L 449.401637 72.9216 
L 453.969735 72.9216 
L 454.385016 72.18432 
L 458.953113 72.18432 
L 459.368395 72.036864 
L 478.886629 72.000295 
L 479.30191 532.800059 
L 483.870007 532.800059 
L 484.285289 624.960012 
L 488.853386 624.960012 
L 489.268668 643.392002 
L 493.836765 643.392002 
L 494.252047 647.0784 
L 498.820144 647.0784 
L 499.235425 647.81568 
L 503.803523 647.81568 
L 504.218804 647.963136 
L 553.637311 648 
L 554.052592 187.2 
L 558.62069 187.2 
L 559.035971 95.04 
L 563.604068 95.04 
L 564.01935 76.608 
L 568.587447 76.608 
L 569.002729 72.9216 
L 573.570826 72.9216 
L 573.986108 72.18432 
L 578.554205 72.18432 
L 578.969486 72.036864 
L 598.48772 72.000295 
L 598.903002 532.800059 
L 603.471099 532.800059 
L 603.886381 624.960012 
L 608.454478 624.960012 
L 608.869759 643.392002 
L 613.437857 643.392002 
L 613.853138 647.0784 
L 618.421235 647.0784 
L 618.836517 647.81568 
L 623.404614 647.81568 
L 623.819896 647.963136 
L 673.238402 648 
L 673.653684 187.2 
L 678.221781 187.2 
L 678.637063 95.04 
L 683.20516 95.04 
L 683.620442 76.608 
L 688.188539 76.608 
L 688.60382 72.9216 
L 693.171918 72.9216 
L 693.587199 72.18432 
L 698.155296 72.18432 
L 698.570578 72.036864 
L 718.088812 72.000295 
L 718.504093 532.800059 
L 723.072191 532.800059 
L 723.487472 624.960012 
L 728.055569 624.960012 
L 728.470851 643.392002 
L 733.038948 643.392002 
L 733.45423 647.0784 
L 738.022327 647.0784 
L 738.437609 647.81568 
L 743.005706 647.81568 
L 743.420987 647.963136 
L 792.839494 648 
L 793.254775 187.2 
L 797.822873 187.2 
L 798.238154 95.04 
L 802.806252 95.04 
L 803.221533 76.608 
L 807.78963 76.608 
L 808.204912 72.9216 
L 812.773009 72.9216 
L 813.188291 72.18432 
L 817.756388 72.18432 
L 818.17167 72.036864 
L 837.689903 72.000295 
L 838.105185 532.800059 
L 842.673282 532.800059 
L 843.088564 624.960012 
L 847.656661 624.960012 
L 848.071942 643.392002 
L 852.64004 643.392002 
L 853.055321 647.0784 
L 857.623419 647.0784 
L 858.0387 647.81568 
L 862.606797 647.81568 
L 863.022079 647.963136 
L 912.440585 648 
L 912.855867 187.2 
L 917.423964 187.2 
L 917.839246 95.04 
L 922.407343 95.04 
L 922.822625 76.608 
L 927.390722 76.608 
L 927.806003 72.9216 
L 932.374101 72.9216 
L 932.789382 72.18432 
L 937.35748 72.18432 
L 937.772761 72.036864 
L 957.290995 72.000295 
L 957.706276 532.800059 
L 962.274374 532.800059 
L 962.689655 624.960012 
L 967.257752 624.960012 
L 967.673034 643.392002 
L 972.241131 643.392002 
L 972.656413 647.0784 
L 977.22451 647.0784 
L 977.639792 647.81568 
L 982.207889 647.81568 
L 982.62317 647.963136 
L 1032.041677 648 
L 1032.456959 187.2 
L 1037.025056 187.2 
L 1037.440337 95.04 
L 1042.008435 95.04 
L 1042.423716 76.608 
L 1046.991813 76.608 
L 1047.407095 72.9216 
L 1051.975192 72.9216 
L 1052.390474 72.18432 
L 1056.958571 72.18432 
L 1057.373853 72.036864 
L 1076.892086 72.000295 
L 1077.307368 532.800059 
L 1081.875465 532.800059 
L 1082.290747 624.960012 
L 1086.858844 624.960012 
L 1087.274126 643.392002 
L 1091.842223 643.392002 
L 1092.257504 647.0784 
L 1096.825602 647.0784 
L 1097.240883 647.81568 
L 1101.80898 647.81568 
L 1102.224262 647.963136 
L 1151.642769 648 
L 1152.05805 187.2 
L 1156.626147 187.2 
L 1157.041429 95.04 
L 1161.609526 95.04 
L 1162.024808 76.608 
L 1166.592905 76.608 
L 1167.008187 72.9216 
L 1171.576284 72.9216 
L 1171.991565 72.18432 
L 1176.559663 72.18432 
L 1176.974944 72.036864 
L 1196.493178 72.000295 
L 1196.908459 532.800059 
L 1201.476557 532.800059 
L 1201.891838 624.960012 
L 1206.459936 624.960012 
L 1206.875217 643.392002 
L 1211.443314 643.392002 
L 1211.858596 647.0784 
L 1216.426693 647.0784 
L 1216.841975 647.81568 
L 1221.410072 647.81568 
L 1221.825354 647.963136 
L 1271.24386 648 
L 1271.659142 187.2 
L 1276.227239 187.2 
L 1276.64252 95.04 
L 1281.210618 95.04 
L 1281.625899 76.608 
L 1286.193997 76.608 
L 1286.609278 72.9216 
L 1291.177375 72.9216 
L 1291.592657 72.18432 
L 1296.160754 72.18432 
L 1296.576036 72.036864 
L 1316.094269 72.000295 
L 1316.509551 532.800059 
L 1321.077648 532.800059 
L 1321.49293 624.960012 
L 1326.061027 624.960012 
L 1326.476309 643.392002 
L 1331.044406 643.392002 
L 1331.459687 647.0784 
L 1336.027785 647.0784 
L 1336.443066 647.81568 
L 1341.011163 647.81568 
L 1341.426445 647.963136 
L 1390.844952 648 
L 1391.260233 187.2 
L 1395.82833 187.2 
L 1396.243612 95.04 
L 1400.811709 95.04 
L 1401.226991 76.608 
L 1405.795088 76.608 
L 1406.21037 72.9216 
L 1410.778467 72.9216 
L 1411.193748 72.18432 
L 1415.761846 72.18432 
L 1416.177127 72.036864 
L 1435.695361 72.000295 
L 1436.110643 532.800059 
L 1440.67874 532.800059 
L 1441.094021 624.960012 
L 1445.662119 624.960012 
L 1446.0774 643.392002 
L 1450.645497 643.392002 
L 1451.060779 647.0784 
L 1455.628876 647.0784 
L 1456.044158 647.81568 
L 1460.612255 647.81568 
L 1461.027537 647.963136 
L 1510.446043 648 
L 1510.861325 187.2 
L 1515.429422 187.2 
L 1515.844704 95.04 
L 1520.412801 95.04 
L 1520.828082 76.608 
L 1525.39618 76.608 
L 1525.811461 72.9216 
L 1530.379558 72.9216 
L 1530.79484 72.18432 
L 1535.362937 72.18432 
L 1535.778219 72.036864 
L 1555.296452 72.000295 
L 1555.711734 532.800059 
L 1560.279831 532.800059 
L 1560.695113 624.960012 
L 1565.26321 624.960012 
L 1565.678492 643.392002 
L 1570.246589 643.392002 
L 1570.661871 647.0784 
L 1575.229968 647.0784 
L 1575.645249 647.81568 
L 1580.213347 647.81568 
L 1580.628628 647.963136 
L 1630.047135 648 
L 1630.462416 187.2 
L 1635.030514 187.2 
L 1635.445795 95.04 
L 1640.013892 95.04 
L 1640.429174 76.608 
L 1644.997271 76.608 
L 1645.412553 72.9216 
L 1649.98065 72.9216 
L 1650.395932 72.18432 
L 1654.964029 72.18432 
L 1655.37931 72.036864 
L 1674.897544 72.000295 
L 1675.312826 532.800059 
L 1679.880923 532.800059 
L 1680.296204 624.960012 
L 1684.864302 624.960012 
L 1685.279583 643.392002 
L 1689.84768 643.392002 
L 1690.262962 647.0784 
L 1694.831059 647.0784 
L 1695.246341 647.81568 
L 1699.814438 647.81568 
L 1700.22972 647.963136 
L 1749.648226 648 
L 1750.063508 187.2 
L 1754.631605 187.2 
L 1755.046887 95.04 
L 1759.614984 95.04 
L 1760.030265 76.608 
L 1764.598363 76.608 
L 1765.013644 72.9216 
L 1769.581742 72.9216 
L 1769.997023 72.18432 
L 1774.56512 72.18432 
L 1774.980402 72.036864 
L 1794.498636 72.000295 
L 1794.913917 532.800059 
L 1799.482014 532.800059 
L 1799.897296 624.960012 
L 1804.465393 624.960012 
L 1804.880675 643.392002 
L 1809.448772 643.392002 
L 1809.864054 647.0784 
L 1814.432151 647.0784 
L 1814.847432 647.81568 
L 1819.41553 647.81568 
L 1819.830811 647.963136 
L 1869.249318 648 
L 1869.664599 187.2 
L 1874.232697 187.2 
L 1874.647978 95.04 
L 1879.216075 95.04 
L 1879.631357 76.608 
L 1884.199454 76.608 
L 1884.614736 72.9216 
L 1889.182833 72.9216 
L 1889.598115 72.18432 
L 1894.166212 72.18432 
L 1894.581493 72.036864 
L 1914.099727 72.000295 
L 1914.515009 532.800059 
L 1919.083106 532.800059 
L 1919.498388 624.960012 
L 1924.066485 624.960012 
L 1924.481766 643.392002 
L 1929.049864 643.392002 
L 1929.465145 647.0784 
L 1934.033242 647.0784 
L 1934.448524 647.81568 
L 1939.016621 647.81568 
L 1939.431903 647.963136 
L 1944 647.963136 
L 1944 647.963136 
" style="fill:none;stroke:#0000ff;stroke-linecap:square;"/>
   </g>
   <g id="line2d_2"/>
   <g id="patch_3">
    <path d="M 270 72 
L 1944 72 
" style="fill:none;stroke:#000000;stroke-linecap:square;stroke-linejoin:miter;"/>
   </g>
   <g id="patch_4">
    <path d="M 1944 648 
L 1944 72 
" style="fill:none;stroke:#000000;stroke-linecap:square;stroke-linejoin:miter;"/>
   </g>
   <g id="patch_5">
    <path d="M 270 648 
L 1944 648 
" style="fill:none;stroke:#000000;stroke-linecap:square;stroke-linejoin:miter;"/>
   </g>
   <g id="patch_6">
    <path d="M 270 648 
L 270 72 
" style="fill:none;stroke:#000000;stroke-linecap:square;stroke-linejoin:miter;"/>
   </g>
   <g id="matplotlib.axis_1">
    <g id="xtick_1">
     <g id="line2d_3">
      <defs>
       <path d="M 0 0 
L 0 -4 
" id="mb1ad48f455" style="stroke:#000000;stroke-width:0.5;"/>
      </defs>
      <g>
       <use style="stroke:#000000;stroke-width:0.5;" x="270.0" xlink:href="#mb1ad48f455" y="648.0"/>
      </g>
     </g>
     <g id="line2d_4">
      <defs>
       <path d="M 0 0 
L 0 4 
" id="m453e879b6d" style="stroke:#000000;stroke-width:0.5;"/>
      </defs>
      <g>
       <use style="stroke:#000000;stroke-width:0.5;" x="270.0" xlink:href="#m453e879b6d" y="72.0"/>
      </g>
     </g>
     <g id="text_1">
      <!-- Apr 01 2014 -->
      <defs>
       <path d="M 19.1875 8.296875 
L 53.609375 8.296875 
L 53.609375 0 
L 7.328125 0 
L 7.328125 8.296875 
Q 12.9375 14.109375 22.625 23.890625 
Q 32.328125 33.6875 34.8125 36.53125 
Q 39.546875 41.84375 41.421875 45.53125 
Q 43.3125 49.21875 43.3125 52.78125 
Q 43.3125 58.59375 39.234375 62.25 
Q 35.15625 65.921875 28.609375 65.921875 
Q 23.96875 65.921875 18.8125 64.3125 
Q 13.671875 62.703125 7.8125 59.421875 
L 7.8125 69.390625 
Q 13.765625 71.78125 18.9375 73 
Q 24.125 74.21875 28.421875 74.21875 
Q 39.75 74.21875 46.484375 68.546875 
Q 53.21875 62.890625 53.21875 53.421875 
Q 53.21875 48.921875 51.53125 44.890625 
Q 49.859375 40.875 45.40625 35.40625 
Q 44.1875 33.984375 37.640625 27.21875 
Q 31.109375 20.453125 19.1875 8.296875 
" id="BitstreamVeraSans-Roman-32"/>
       <path id="BitstreamVeraSans-Roman-20"/>
       <path d="M 31.78125 66.40625 
Q 24.171875 66.40625 20.328125 58.90625 
Q 16.5 51.421875 16.5 36.375 
Q 16.5 21.390625 20.328125 13.890625 
Q 24.171875 6.390625 31.78125 6.390625 
Q 39.453125 6.390625 43.28125 13.890625 
Q 47.125 21.390625 47.125 36.375 
Q 47.125 51.421875 43.28125 58.90625 
Q 39.453125 66.40625 31.78125 66.40625 
M 31.78125 74.21875 
Q 44.046875 74.21875 50.515625 64.515625 
Q 56.984375 54.828125 56.984375 36.375 
Q 56.984375 17.96875 50.515625 8.265625 
Q 44.046875 -1.421875 31.78125 -1.421875 
Q 19.53125 -1.421875 13.0625 8.265625 
Q 6.59375 17.96875 6.59375 36.375 
Q 6.59375 54.828125 13.0625 64.515625 
Q 19.53125 74.21875 31.78125 74.21875 
" id="BitstreamVeraSans-Roman-30"/>
       <path d="M 12.40625 8.296875 
L 28.515625 8.296875 
L 28.515625 63.921875 
L 10.984375 60.40625 
L 10.984375 69.390625 
L 28.421875 72.90625 
L 38.28125 72.90625 
L 38.28125 8.296875 
L 54.390625 8.296875 
L 54.390625 0 
L 12.40625 0 
z
" id="BitstreamVeraSans-Roman-31"/>
       <path d="M 37.796875 64.3125 
L 12.890625 25.390625 
L 37.796875 25.390625 
z
M 35.203125 72.90625 
L 47.609375 72.90625 
L 47.609375 25.390625 
L 58.015625 25.390625 
L 58.015625 17.1875 
L 47.609375 17.1875 
L 47.609375 0 
L 37.796875 0 
L 37.796875 17.1875 
L 4.890625 17.1875 
L 4.890625 26.703125 
z
" id="BitstreamVeraSans-Roman-34"/>
       <path d="M 34.1875 63.1875 
L 20.796875 26.90625 
L 47.609375 26.90625 
z
M 28.609375 72.90625 
L 39.796875 72.90625 
L 67.578125 0 
L 57.328125 0 
L 50.6875 18.703125 
L 17.828125 18.703125 
L 11.1875 0 
L 0.78125 0 
z
" id="BitstreamVeraSans-Roman-41"/>
       <path d="M 41.109375 46.296875 
Q 39.59375 47.171875 37.8125 47.578125 
Q 36.03125 48 33.890625 48 
Q 26.265625 48 22.1875 43.046875 
Q 18.109375 38.09375 18.109375 28.8125 
L 18.109375 0 
L 9.078125 0 
L 9.078125 54.6875 
L 18.109375 54.6875 
L 18.109375 46.1875 
Q 20.953125 51.171875 25.484375 53.578125 
Q 30.03125 56 36.53125 56 
Q 37.453125 56 38.578125 55.875 
Q 39.703125 55.765625 41.0625 55.515625 
z
" id="BitstreamVeraSans-Roman-72"/>
       <path d="M 18.109375 8.203125 
L 18.109375 -20.796875 
L 9.078125 -20.796875 
L 9.078125 54.6875 
L 18.109375 54.6875 
L 18.109375 46.390625 
Q 20.953125 51.265625 25.265625 53.625 
Q 29.59375 56 35.59375 56 
Q 45.5625 56 51.78125 48.09375 
Q 58.015625 40.1875 58.015625 27.296875 
Q 58.015625 14.40625 51.78125 6.484375 
Q 45.5625 -1.421875 35.59375 -1.421875 
Q 29.59375 -1.421875 25.265625 0.953125 
Q 20.953125 3.328125 18.109375 8.203125 
M 48.6875 27.296875 
Q 48.6875 37.203125 44.609375 42.84375 
Q 40.53125 48.484375 33.40625 48.484375 
Q 26.265625 48.484375 22.1875 42.84375 
Q 18.109375 37.203125 18.109375 27.296875 
Q 18.109375 17.390625 22.1875 11.75 
Q 26.265625 6.109375 33.40625 6.109375 
Q 40.53125 6.109375 44.609375 11.75 
Q 48.6875 17.390625 48.6875 27.296875 
" id="BitstreamVeraSans-Roman-70"/>
      </defs>
      <g transform="translate(232.90125 661.118125)scale(0.12 -0.12)">
       <use xlink:href="#BitstreamVeraSans-Roman-41"/>
       <use x="68.408203125" xlink:href="#BitstreamVeraSans-Roman-70"/>
       <use x="131.884765625" xlink:href="#BitstreamVeraSans-Roman-72"/>
       <use x="172.998046875" xlink:href="#BitstreamVeraSans-Roman-20"/>
       <use x="204.78515625" xlink:href="#BitstreamVeraSans-Roman-30"/>
       <use x="268.408203125" xlink:href="#BitstreamVeraSans-Roman-31"/>
       <use x="332.03125" xlink:href="#BitstreamVeraSans-Roman-20"/>
       <use x="363.818359375" xlink:href="#BitstreamVeraSans-Roman-32"/>
       <use x="427.44140625" xlink:href="#BitstreamVeraSans-Roman-30"/>
       <use x="491.064453125" xlink:href="#BitstreamVeraSans-Roman-31"/>
       <use x="554.6875" xlink:href="#BitstreamVeraSans-Roman-34"/>
      </g>
     </g>
    </g>
    <g id="xtick_2">
     <g id="line2d_5">
      <g>
       <use style="stroke:#000000;stroke-width:0.5;" x="509.202183083" xlink:href="#mb1ad48f455" y="648.0"/>
      </g>
     </g>
     <g id="line2d_6">
      <g>
       <use style="stroke:#000000;stroke-width:0.5;" x="509.202183083" xlink:href="#m453e879b6d" y="72.0"/>
      </g>
     </g>
     <g id="text_2">
      <!-- Apr 03 2014 -->
      <defs>
       <path d="M 40.578125 39.3125 
Q 47.65625 37.796875 51.625 33 
Q 55.609375 28.21875 55.609375 21.1875 
Q 55.609375 10.40625 48.1875 4.484375 
Q 40.765625 -1.421875 27.09375 -1.421875 
Q 22.515625 -1.421875 17.65625 -0.515625 
Q 12.796875 0.390625 7.625 2.203125 
L 7.625 11.71875 
Q 11.71875 9.328125 16.59375 8.109375 
Q 21.484375 6.890625 26.8125 6.890625 
Q 36.078125 6.890625 40.9375 10.546875 
Q 45.796875 14.203125 45.796875 21.1875 
Q 45.796875 27.640625 41.28125 31.265625 
Q 36.765625 34.90625 28.71875 34.90625 
L 20.21875 34.90625 
L 20.21875 43.015625 
L 29.109375 43.015625 
Q 36.375 43.015625 40.234375 45.921875 
Q 44.09375 48.828125 44.09375 54.296875 
Q 44.09375 59.90625 40.109375 62.90625 
Q 36.140625 65.921875 28.71875 65.921875 
Q 24.65625 65.921875 20.015625 65.03125 
Q 15.375 64.15625 9.8125 62.3125 
L 9.8125 71.09375 
Q 15.4375 72.65625 20.34375 73.4375 
Q 25.25 74.21875 29.59375 74.21875 
Q 40.828125 74.21875 47.359375 69.109375 
Q 53.90625 64.015625 53.90625 55.328125 
Q 53.90625 49.265625 50.4375 45.09375 
Q 46.96875 40.921875 40.578125 39.3125 
" id="BitstreamVeraSans-Roman-33"/>
      </defs>
      <g transform="translate(472.103433083 661.118125)scale(0.12 -0.12)">
       <use xlink:href="#BitstreamVeraSans-Roman-41"/>
       <use x="68.408203125" xlink:href="#BitstreamVeraSans-Roman-70"/>
       <use x="131.884765625" xlink:href="#BitstreamVeraSans-Roman-72"/>
       <use x="172.998046875" xlink:href="#BitstreamVeraSans-Roman-20"/>
       <use x="204.78515625" xlink:href="#BitstreamVeraSans-Roman-30"/>
       <use x="268.408203125" xlink:href="#BitstreamVeraSans-Roman-33"/>
       <use x="332.03125" xlink:href="#BitstreamVeraSans-Roman-20"/>
       <use x="363.818359375" xlink:href="#BitstreamVeraSans-Roman-32"/>
       <use x="427.44140625" xlink:href="#BitstreamVeraSans-Roman-30"/>
       <use x="491.064453125" xlink:href="#BitstreamVeraSans-Roman-31"/>
       <use x="554.6875" xlink:href="#BitstreamVeraSans-Roman-34"/>
      </g>
     </g>
    </g>
    <g id="xtick_3">
     <g id="line2d_7">
      <g>
       <use style="stroke:#000000;stroke-width:0.5;" x="748.404366165" xlink:href="#mb1ad48f455" y="648.0"/>
      </g>
     </g>
     <g id="line2d_8">
      <g>
       <use style="stroke:#000000;stroke-width:0.5;" x="748.404366165" xlink:href="#m453e879b6d" y="72.0"/>
      </g>
     </g>
     <g id="text_3">
      <!-- Apr 05 2014 -->
      <defs>
       <path d="M 10.796875 72.90625 
L 49.515625 72.90625 
L 49.515625 64.59375 
L 19.828125 64.59375 
L 19.828125 46.734375 
Q 21.96875 47.46875 24.109375 47.828125 
Q 26.265625 48.1875 28.421875 48.1875 
Q 40.625 48.1875 47.75 41.5 
Q 54.890625 34.8125 54.890625 23.390625 
Q 54.890625 11.625 47.5625 5.09375 
Q 40.234375 -1.421875 26.90625 -1.421875 
Q 22.3125 -1.421875 17.546875 -0.640625 
Q 12.796875 0.140625 7.71875 1.703125 
L 7.71875 11.625 
Q 12.109375 9.234375 16.796875 8.0625 
Q 21.484375 6.890625 26.703125 6.890625 
Q 35.15625 6.890625 40.078125 11.328125 
Q 45.015625 15.765625 45.015625 23.390625 
Q 45.015625 31 40.078125 35.4375 
Q 35.15625 39.890625 26.703125 39.890625 
Q 22.75 39.890625 18.8125 39.015625 
Q 14.890625 38.140625 10.796875 36.28125 
z
" id="BitstreamVeraSans-Roman-35"/>
      </defs>
      <g transform="translate(711.305616165 661.118125)scale(0.12 -0.12)">
       <use xlink:href="#BitstreamVeraSans-Roman-41"/>
       <use x="68.408203125" xlink:href="#BitstreamVeraSans-Roman-70"/>
       <use x="131.884765625" xlink:href="#BitstreamVeraSans-Roman-72"/>
       <use x="172.998046875" xlink:href="#BitstreamVeraSans-Roman-20"/>
       <use x="204.78515625" xlink:href="#BitstreamVeraSans-Roman-30"/>
       <use x="268.408203125" xlink:href="#BitstreamVeraSans-Roman-35"/>
       <use x="332.03125" xlink:href="#BitstreamVeraSans-Roman-20"/>
       <use x="363.818359375" xlink:href="#BitstreamVeraSans-Roman-32"/>
       <use x="427.44140625" xlink:href="#BitstreamVeraSans-Roman-30"/>
       <use x="491.064453125" xlink:href="#BitstreamVeraSans-Roman-31"/>
       <use x="554.6875" xlink:href="#BitstreamVeraSans-Roman-34"/>
      </g>
     </g>
    </g>
    <g id="xtick_4">
     <g id="line2d_9">
      <g>
       <use style="stroke:#000000;stroke-width:0.5;" x="987.606549248" xlink:href="#mb1ad48f455" y="648.0"/>
      </g>
     </g>
     <g id="line2d_10">
      <g>
       <use style="stroke:#000000;stroke-width:0.5;" x="987.606549248" xlink:href="#m453e879b6d" y="72.0"/>
      </g>
     </g>
     <g id="text_4">
      <!-- Apr 07 2014 -->
      <defs>
       <path d="M 8.203125 72.90625 
L 55.078125 72.90625 
L 55.078125 68.703125 
L 28.609375 0 
L 18.3125 0 
L 43.21875 64.59375 
L 8.203125 64.59375 
z
" id="BitstreamVeraSans-Roman-37"/>
      </defs>
      <g transform="translate(950.507799248 661.118125)scale(0.12 -0.12)">
       <use xlink:href="#BitstreamVeraSans-Roman-41"/>
       <use x="68.408203125" xlink:href="#BitstreamVeraSans-Roman-70"/>
       <use x="131.884765625" xlink:href="#BitstreamVeraSans-Roman-72"/>
       <use x="172.998046875" xlink:href="#BitstreamVeraSans-Roman-20"/>
       <use x="204.78515625" xlink:href="#BitstreamVeraSans-Roman-30"/>
       <use x="268.408203125" xlink:href="#BitstreamVeraSans-Roman-37"/>
       <use x="332.03125" xlink:href="#BitstreamVeraSans-Roman-20"/>
       <use x="363.818359375" xlink:href="#BitstreamVeraSans-Roman-32"/>
       <use x="427.44140625" xlink:href="#BitstreamVeraSans-Roman-30"/>
       <use x="491.064453125" xlink:href="#BitstreamVeraSans-Roman-31"/>
       <use x="554.6875" xlink:href="#BitstreamVeraSans-Roman-34"/>
      </g>
     </g>
    </g>
    <g id="xtick_5">
     <g id="line2d_11">
      <g>
       <use style="stroke:#000000;stroke-width:0.5;" x="1226.80873233" xlink:href="#mb1ad48f455" y="648.0"/>
      </g>
     </g>
     <g id="line2d_12">
      <g>
       <use style="stroke:#000000;stroke-width:0.5;" x="1226.80873233" xlink:href="#m453e879b6d" y="72.0"/>
      </g>
     </g>
     <g id="text_5">
      <!-- Apr 09 2014 -->
      <defs>
       <path d="M 10.984375 1.515625 
L 10.984375 10.5 
Q 14.703125 8.734375 18.5 7.8125 
Q 22.3125 6.890625 25.984375 6.890625 
Q 35.75 6.890625 40.890625 13.453125 
Q 46.046875 20.015625 46.78125 33.40625 
Q 43.953125 29.203125 39.59375 26.953125 
Q 35.25 24.703125 29.984375 24.703125 
Q 19.046875 24.703125 12.671875 31.3125 
Q 6.296875 37.9375 6.296875 49.421875 
Q 6.296875 60.640625 12.9375 67.421875 
Q 19.578125 74.21875 30.609375 74.21875 
Q 43.265625 74.21875 49.921875 64.515625 
Q 56.59375 54.828125 56.59375 36.375 
Q 56.59375 19.140625 48.40625 8.859375 
Q 40.234375 -1.421875 26.421875 -1.421875 
Q 22.703125 -1.421875 18.890625 -0.6875 
Q 15.09375 0.046875 10.984375 1.515625 
M 30.609375 32.421875 
Q 37.25 32.421875 41.125 36.953125 
Q 45.015625 41.5 45.015625 49.421875 
Q 45.015625 57.28125 41.125 61.84375 
Q 37.25 66.40625 30.609375 66.40625 
Q 23.96875 66.40625 20.09375 61.84375 
Q 16.21875 57.28125 16.21875 49.421875 
Q 16.21875 41.5 20.09375 36.953125 
Q 23.96875 32.421875 30.609375 32.421875 
" id="BitstreamVeraSans-Roman-39"/>
      </defs>
      <g transform="translate(1189.70998233 661.118125)scale(0.12 -0.12)">
       <use xlink:href="#BitstreamVeraSans-Roman-41"/>
       <use x="68.408203125" xlink:href="#BitstreamVeraSans-Roman-70"/>
       <use x="131.884765625" xlink:href="#BitstreamVeraSans-Roman-72"/>
       <use x="172.998046875" xlink:href="#BitstreamVeraSans-Roman-20"/>
       <use x="204.78515625" xlink:href="#BitstreamVeraSans-Roman-30"/>
       <use x="268.408203125" xlink:href="#BitstreamVeraSans-Roman-39"/>
       <use x="332.03125" xlink:href="#BitstreamVeraSans-Roman-20"/>
       <use x="363.818359375" xlink:href="#BitstreamVeraSans-Roman-32"/>
       <use x="427.44140625" xlink:href="#BitstreamVeraSans-Roman-30"/>
       <use x="491.064453125" xlink:href="#BitstreamVeraSans-Roman-31"/>
       <use x="554.6875" xlink:href="#BitstreamVeraSans-Roman-34"/>
      </g>
     </g>
    </g>
    <g id="xtick_6">
     <g id="line2d_13">
      <g>
       <use style="stroke:#000000;stroke-width:0.5;" x="1466.01091541" xlink:href="#mb1ad48f455" y="648.0"/>
      </g>
     </g>
     <g id="line2d_14">
      <g>
       <use style="stroke:#000000;stroke-width:0.5;" x="1466.01091541" xlink:href="#m453e879b6d" y="72.0"/>
      </g>
     </g>
     <g id="text_6">
      <!-- Apr 11 2014 -->
      <g transform="translate(1428.91216541 661.118125)scale(0.12 -0.12)">
       <use xlink:href="#BitstreamVeraSans-Roman-41"/>
       <use x="68.408203125" xlink:href="#BitstreamVeraSans-Roman-70"/>
       <use x="131.884765625" xlink:href="#BitstreamVeraSans-Roman-72"/>
       <use x="172.998046875" xlink:href="#BitstreamVeraSans-Roman-20"/>
       <use x="204.78515625" xlink:href="#BitstreamVeraSans-Roman-31"/>
       <use x="268.408203125" xlink:href="#BitstreamVeraSans-Roman-31"/>
       <use x="332.03125" xlink:href="#BitstreamVeraSans-Roman-20"/>
       <use x="363.818359375" xlink:href="#BitstreamVeraSans-Roman-32"/>
       <use x="427.44140625" xlink:href="#BitstreamVeraSans-Roman-30"/>
       <use x="491.064453125" xlink:href="#BitstreamVeraSans-Roman-31"/>
       <use x="554.6875" xlink:href="#BitstreamVeraSans-Roman-34"/>
      </g>
     </g>
    </g>
    <g id="xtick_7">
     <g id="line2d_15">
      <g>
       <use style="stroke:#000000;stroke-width:0.5;" x="1705.2130985" xlink:href="#mb1ad48f455" y="648.0"/>
      </g>
     </g>
     <g id="line2d_16">
      <g>
       <use style="stroke:#000000;stroke-width:0.5;" x="1705.2130985" xlink:href="#m453e879b6d" y="72.0"/>
      </g>
     </g>
     <g id="text_7">
      <!-- Apr 13 2014 -->
      <g transform="translate(1668.1143485 661.118125)scale(0.12 -0.12)">
       <use xlink:href="#BitstreamVeraSans-Roman-41"/>
       <use x="68.408203125" xlink:href="#BitstreamVeraSans-Roman-70"/>
       <use x="131.884765625" xlink:href="#BitstreamVeraSans-Roman-72"/>
       <use x="172.998046875" xlink:href="#BitstreamVeraSans-Roman-20"/>
       <use x="204.78515625" xlink:href="#BitstreamVeraSans-Roman-31"/>
       <use x="268.408203125" xlink:href="#BitstreamVeraSans-Roman-33"/>
       <use x="332.03125" xlink:href="#BitstreamVeraSans-Roman-20"/>
       <use x="363.818359375" xlink:href="#BitstreamVeraSans-Roman-32"/>
       <use x="427.44140625" xlink:href="#BitstreamVeraSans-Roman-30"/>
       <use x="491.064453125" xlink:href="#BitstreamVeraSans-Roman-31"/>
       <use x="554.6875" xlink:href="#BitstreamVeraSans-Roman-34"/>
      </g>
     </g>
    </g>
   </g>
   <g id="matplotlib.axis_2">
    <g id="ytick_1">
     <g id="line2d_17">
      <defs>
       <path d="M 0 0 
L 4 0 
" id="m5c6625eb66" style="stroke:#000000;stroke-width:0.5;"/>
      </defs>
      <g>
       <use style="stroke:#000000;stroke-width:0.5;" x="270.0" xlink:href="#m5c6625eb66" y="648.0"/>
      </g>
     </g>
     <g id="line2d_18">
      <defs>
       <path d="M 0 0 
L -4 0 
" id="m9e168f3ff3" style="stroke:#000000;stroke-width:0.5;"/>
      </defs>
      <g>
       <use style="stroke:#000000;stroke-width:0.5;" x="1944.0" xlink:href="#m9e168f3ff3" y="648.0"/>
      </g>
     </g>
     <g id="text_8">
      <!-- 20 -->
      <g transform="translate(250.73 651.31125)scale(0.12 -0.12)">
       <use xlink:href="#BitstreamVeraSans-Roman-32"/>
       <use x="63.623046875" xlink:href="#BitstreamVeraSans-Roman-30"/>
      </g>
     </g>
    </g>
    <g id="ytick_2">
     <g id="line2d_19">
      <g>
       <use style="stroke:#000000;stroke-width:0.5;" x="270.0" xlink:href="#m5c6625eb66" y="552.0"/>
      </g>
     </g>
     <g id="line2d_20">
      <g>
       <use style="stroke:#000000;stroke-width:0.5;" x="1944.0" xlink:href="#m9e168f3ff3" y="552.0"/>
      </g>
     </g>
     <g id="text_9">
      <!-- 30 -->
      <g transform="translate(250.73 555.31125)scale(0.12 -0.12)">
       <use xlink:href="#BitstreamVeraSans-Roman-33"/>
       <use x="63.623046875" xlink:href="#BitstreamVeraSans-Roman-30"/>
      </g>
     </g>
    </g>
    <g id="ytick_3">
     <g id="line2d_21">
      <g>
       <use style="stroke:#000000;stroke-width:0.5;" x="270.0" xlink:href="#m5c6625eb66" y="456.0"/>
      </g>
     </g>
     <g id="line2d_22">
      <g>
       <use style="stroke:#000000;stroke-width:0.5;" x="1944.0" xlink:href="#m9e168f3ff3" y="456.0"/>
      </g>
     </g>
     <g id="text_10">
      <!-- 40 -->
      <g transform="translate(250.73 459.31125)scale(0.12 -0.12)">
       <use xlink:href="#BitstreamVeraSans-Roman-34"/>
       <use x="63.623046875" xlink:href="#BitstreamVeraSans-Roman-30"/>
      </g>
     </g>
    </g>
    <g id="ytick_4">
     <g id="line2d_23">
      <g>
       <use style="stroke:#000000;stroke-width:0.5;" x="270.0" xlink:href="#m5c6625eb66" y="360.0"/>
      </g>
     </g>
     <g id="line2d_24">
      <g>
       <use style="stroke:#000000;stroke-width:0.5;" x="1944.0" xlink:href="#m9e168f3ff3" y="360.0"/>
      </g>
     </g>
     <g id="text_11">
      <!-- 50 -->
      <g transform="translate(250.73 363.31125)scale(0.12 -0.12)">
       <use xlink:href="#BitstreamVeraSans-Roman-35"/>
       <use x="63.623046875" xlink:href="#BitstreamVeraSans-Roman-30"/>
      </g>
     </g>
    </g>
    <g id="ytick_5">
     <g id="line2d_25">
      <g>
       <use style="stroke:#000000;stroke-width:0.5;" x="270.0" xlink:href="#m5c6625eb66" y="264.0"/>
      </g>
     </g>
     <g id="line2d_26">
      <g>
       <use style="stroke:#000000;stroke-width:0.5;" x="1944.0" xlink:href="#m9e168f3ff3" y="264.0"/>
      </g>
     </g>
     <g id="text_12">
      <!-- 60 -->
      <defs>
       <path d="M 33.015625 40.375 
Q 26.375 40.375 22.484375 35.828125 
Q 18.609375 31.296875 18.609375 23.390625 
Q 18.609375 15.53125 22.484375 10.953125 
Q 26.375 6.390625 33.015625 6.390625 
Q 39.65625 6.390625 43.53125 10.953125 
Q 47.40625 15.53125 47.40625 23.390625 
Q 47.40625 31.296875 43.53125 35.828125 
Q 39.65625 40.375 33.015625 40.375 
M 52.59375 71.296875 
L 52.59375 62.3125 
Q 48.875 64.0625 45.09375 64.984375 
Q 41.3125 65.921875 37.59375 65.921875 
Q 27.828125 65.921875 22.671875 59.328125 
Q 17.53125 52.734375 16.796875 39.40625 
Q 19.671875 43.65625 24.015625 45.921875 
Q 28.375 48.1875 33.59375 48.1875 
Q 44.578125 48.1875 50.953125 41.515625 
Q 57.328125 34.859375 57.328125 23.390625 
Q 57.328125 12.15625 50.6875 5.359375 
Q 44.046875 -1.421875 33.015625 -1.421875 
Q 20.359375 -1.421875 13.671875 8.265625 
Q 6.984375 17.96875 6.984375 36.375 
Q 6.984375 53.65625 15.1875 63.9375 
Q 23.390625 74.21875 37.203125 74.21875 
Q 40.921875 74.21875 44.703125 73.484375 
Q 48.484375 72.75 52.59375 71.296875 
" id="BitstreamVeraSans-Roman-36"/>
      </defs>
      <g transform="translate(250.73 267.31125)scale(0.12 -0.12)">
       <use xlink:href="#BitstreamVeraSans-Roman-36"/>
       <use x="63.623046875" xlink:href="#BitstreamVeraSans-Roman-30"/>
      </g>
     </g>
    </g>
    <g id="ytick_6">
     <g id="line2d_27">
      <g>
       <use style="stroke:#000000;stroke-width:0.5;" x="270.0" xlink:href="#m5c6625eb66" y="168.0"/>
      </g>
     </g>
     <g id="line2d_28">
      <g>
       <use style="stroke:#000000;stroke-width:0.5;" x="1944.0" xlink:href="#m9e168f3ff3" y="168.0"/>
      </g>
     </g>
     <g id="text_13">
      <!-- 70 -->
      <g transform="translate(250.73 171.31125)scale(0.12 -0.12)">
       <use xlink:href="#BitstreamVeraSans-Roman-37"/>
       <use x="63.623046875" xlink:href="#BitstreamVeraSans-Roman-30"/>
      </g>
     </g>
    </g>
    <g id="ytick_7">
     <g id="line2d_29">
      <g>
       <use style="stroke:#000000;stroke-width:0.5;" x="270.0" xlink:href="#m5c6625eb66" y="72.0"/>
      </g>
     </g>
     <g id="line2d_30">
      <g>
       <use style="stroke:#000000;stroke-width:0.5;" x="1944.0" xlink:href="#m9e168f3ff3" y="72.0"/>
      </g>
     </g>
     <g id="text_14">
      <!-- 80 -->
      <defs>
       <path d="M 31.78125 34.625 
Q 24.75 34.625 20.71875 30.859375 
Q 16.703125 27.09375 16.703125 20.515625 
Q 16.703125 13.921875 20.71875 10.15625 
Q 24.75 6.390625 31.78125 6.390625 
Q 38.8125 6.390625 42.859375 10.171875 
Q 46.921875 13.96875 46.921875 20.515625 
Q 46.921875 27.09375 42.890625 30.859375 
Q 38.875 34.625 31.78125 34.625 
M 21.921875 38.8125 
Q 15.578125 40.375 12.03125 44.71875 
Q 8.5 49.078125 8.5 55.328125 
Q 8.5 64.0625 14.71875 69.140625 
Q 20.953125 74.21875 31.78125 74.21875 
Q 42.671875 74.21875 48.875 69.140625 
Q 55.078125 64.0625 55.078125 55.328125 
Q 55.078125 49.078125 51.53125 44.71875 
Q 48 40.375 41.703125 38.8125 
Q 48.828125 37.15625 52.796875 32.3125 
Q 56.78125 27.484375 56.78125 20.515625 
Q 56.78125 9.90625 50.3125 4.234375 
Q 43.84375 -1.421875 31.78125 -1.421875 
Q 19.734375 -1.421875 13.25 4.234375 
Q 6.78125 9.90625 6.78125 20.515625 
Q 6.78125 27.484375 10.78125 32.3125 
Q 14.796875 37.15625 21.921875 38.8125 
M 18.3125 54.390625 
Q 18.3125 48.734375 21.84375 45.5625 
Q 25.390625 42.390625 31.78125 42.390625 
Q 38.140625 42.390625 41.71875 45.5625 
Q 45.3125 48.734375 45.3125 54.390625 
Q 45.3125 60.0625 41.71875 63.234375 
Q 38.140625 66.40625 31.78125 66.40625 
Q 25.390625 66.40625 21.84375 63.234375 
Q 18.3125 60.0625 18.3125 54.390625 
" id="BitstreamVeraSans-Roman-38"/>
      </defs>
      <g transform="translate(250.73 75.31125)scale(0.12 -0.12)">
       <use xlink:href="#BitstreamVeraSans-Roman-38"/>
       <use x="63.623046875" xlink:href="#BitstreamVeraSans-Roman-30"/>
      </g>
     </g>
    </g>
   </g>
  </g>
 </g>
 <defs>
  <clipPath id="pb9c2fda6e3">
   <rect height="576.0" width="1674.0" x="270.0" y="72.0"/>
  </clipPath>
 </defs>
</svg>
