<?xml version="1.0" encoding="utf-8" standalone="no"?>
<!DOCTYPE svg PUBLIC "-//W3C//DTD SVG 1.1//EN"
  "http://www.w3.org/Graphics/SVG/1.1/DTD/svg11.dtd">
<!-- Created with matplotlib (http://matplotlib.org/) -->
<svg height="720pt" version="1.1" viewBox="0 0 2160 720" width="2160pt" xmlns="http://www.w3.org/2000/svg" xmlns:xlink="http://www.w3.org/1999/xlink">
 <defs>
  <style type="text/css">
*{stroke-linecap:butt;stroke-linejoin:round;stroke-miterlimit:100000;}
  </style>
 </defs>
 <g id="figure_1">
  <g id="patch_1">
   <path d="M 0 720 
L 2160 720 
L 2160 0 
L 0 0 
z
" style="fill:#ffffff;"/>
  </g>
  <g id="axes_1">
   <g id="patch_2">
    <path d="M 270 648 
L 1944 648 
L 1944 72 
L 270 72 
z
" style="fill:#ffffff;"/>
   </g>
   <g id="line2d_1">
    <path clip-path="url(#p094f81307c)" d="M 270 180.8 
L 270.638639 251.2 
L 272.554555 225.6 
L 275.10911 206.4 
L 275.747749 232 
L 276.130932 161.6 
L 276.769571 232 
L 279.196399 257.6 
L 280.473676 232 
L 283.028231 212.8 
L 283.66687 225.6 
L 284.305509 219.2 
L 284.944148 232 
L 285.582787 219.2 
L 286.221425 219.2 
L 287.498703 206.4 
L 289.414619 212.8 
L 290.053258 212.8 
L 290.691897 219.2 
L 293.885091 225.6 
L 294.52373 212.8 
L 297.716924 206.4 
L 298.355562 232 
L 298.994201 200 
L 299.377384 225.6 
L 300.910118 232 
L 305.252861 238.4 
L 307.296505 225.6 
L 307.935144 206.4 
L 308.573783 238.4 
L 310.489699 206.4 
L 312.405616 232 
L 313.044255 212.8 
L 313.682893 219.2 
L 314.321532 206.4 
L 314.960171 225.6 
L 315.59881 206.4 
L 316.237448 225.6 
L 316.876087 232 
L 317.514726 225.6 
L 318.153365 232 
L 318.281093 238.4 
L 323.262475 200 
L 324.539753 206.4 
L 325.178392 225.6 
L 325.81703 212.8 
L 327.094308 193.6 
L 335.396612 244.8 
L 337.951167 219.2 
L 339.228445 251.2 
L 340.505723 238.4 
L 341.783 270.4 
L 342.421639 232 
L 345.614833 276.8 
L 346.89211 238.4 
L 353.278498 244.8 
L 354.555776 225.6 
L 359.026248 225.6 
L 360.942164 264 
L 365.412635 283.2 
L 374.353579 276.8 
L 422.634671 206.4 
L 436.173814 200 
L 441.027468 225.6 
L 444.220662 212.8 
L 445.49794 232 
L 446.136579 212.8 
L 446.775217 212.8 
L 447.413856 200 
L 448.052495 219.2 
L 449.329773 180.8 
L 449.968411 155.2 
L 450.60705 168 
L 451.245689 193.6 
L 451.884328 180.8 
L 454.438883 212.8 
L 455.077522 276.8 
L 456.993438 232 
L 460.825271 232 
L 462.741187 225.6 
L 465.295742 174.4 
L 468.488936 238.4 
L 469.127575 212.8 
L 469.766214 232 
L 470.404853 206.4 
L 471.043492 200 
L 471.68213 238.4 
L 472.959408 232 
L 473.598047 219.2 
L 476.791241 212.8 
L 478.068518 225.6 
L 478.707157 244.8 
L 479.984435 212.8 
L 480.623073 212.8 
L 481.261712 180.8 
L 481.900351 142.4 
L 482.53899 238.4 
L 483.177629 219.2 
L 484.454906 251.2 
L 485.093545 212.8 
L 485.732184 200 
L 488.286739 219.2 
L 488.925378 200 
L 490.202655 232 
L 491.479933 219.2 
L 492.75721 193.6 
L 493.395849 206.4 
L 494.034488 238.4 
L 495.311766 251.2 
L 496.589043 340.8 
L 497.227682 289.6 
L 497.866321 321.6 
L 498.50496 264 
L 499.143598 372.8 
L 499.782237 251.2 
L 500.420876 200 
L 501.059515 232 
L 502.336792 200 
L 502.975431 219.2 
L 504.252709 200 
L 504.891347 219.2 
L 505.529986 206.4 
L 506.168625 206.4 
L 507.445903 212.8 
L 508.084541 219.2 
L 510.639097 225.6 
L 515.109568 244.8 
L 516.386846 212.8 
L 518.302762 212.8 
L 519.58004 232 
L 520.218678 264 
L 520.857317 232 
L 522.773234 238.4 
L 525.327789 283.2 
L 527.243705 283.2 
L 529.159622 251.2 
L 529.79826 296 
L 531.714177 257.6 
L 532.352816 257.6 
L 537.461926 276.8 
L 538.483748 232 
L 545.76423 232 
L 547.680147 251.2 
L 591.107584 212.8 
L 592.640317 257.6 
L 609.883565 251.2 
L 612.182664 180.8 
L 614.098581 200 
L 615.375858 232 
L 616.653136 232 
L 619.207691 257.6 
L 620.484969 238.4 
L 621.123608 251.2 
L 623.678163 168 
L 624.189074 225.6 
L 625.466351 193.6 
L 626.10499 225.6 
L 628.020906 219.2 
L 628.659545 232 
L 629.298184 219.2 
L 630.575462 219.2 
L 631.2141 232 
L 631.852739 212.8 
L 636.323211 238.4 
L 637.600488 187.2 
L 638.239127 251.2 
L 638.877766 187.2 
L 639.516405 187.2 
L 640.155044 212.8 
L 641.432321 238.4 
L 642.07096 244.8 
L 645.264154 232 
L 645.902793 187.2 
L 647.818709 219.2 
L 649.095987 225.6 
L 650.373264 193.6 
L 652.289181 193.6 
L 653.566458 219.2 
L 654.205097 212.8 
L 656.121013 232 
L 656.759652 200 
L 658.03693 193.6 
L 659.952846 232 
L 660.591485 206.4 
L 663.14604 206.4 
L 663.784679 193.6 
L 664.423318 238.4 
L 665.061956 238.4 
L 665.700595 225.6 
L 666.339234 161.6 
L 666.977873 238.4 
L 667.616512 219.2 
L 668.25515 238.4 
L 668.893789 200 
L 669.532428 200 
L 670.171067 212.8 
L 670.809705 206.4 
L 671.448344 212.8 
L 672.725622 212.8 
L 673.364261 206.4 
L 674.002899 244.8 
L 674.641538 219.2 
L 675.280177 225.6 
L 675.918816 212.8 
L 676.557455 225.6 
L 677.196093 219.2 
L 677.834732 219.2 
L 678.473371 212.8 
L 679.11201 238.4 
L 679.750649 219.2 
L 680.389287 251.2 
L 681.027926 219.2 
L 681.666565 225.6 
L 682.943843 225.6 
L 683.582481 219.2 
L 684.22112 251.2 
L 684.859759 244.8 
L 685.498398 225.6 
L 688.052953 200 
L 688.691592 200 
L 689.33023 219.2 
L 691.246147 225.6 
L 691.884786 212.8 
L 692.523424 193.6 
L 693.162063 251.2 
L 693.800702 212.8 
L 698.271174 251.2 
L 698.909812 238.4 
L 700.18709 206.4 
L 701.464367 244.8 
L 702.103006 238.4 
L 709.766672 251.2 
L 711.043949 206.4 
L 712.959866 232 
L 716.791698 289.6 
L 718.707615 238.4 
L 730.203113 200 
L 730.841752 257.6 
L 774.26919 238.4 
L 776.823745 212.8 
L 780.655578 232 
L 783.210133 200 
L 783.848772 232 
L 785.764688 232 
L 787.041966 200 
L 787.680604 180.8 
L 790.235159 206.4 
L 795.34427 232 
L 799.176103 212.8 
L 799.814741 206.4 
L 803.007935 193.6 
L 803.646574 200 
L 804.923852 238.4 
L 805.56249 212.8 
L 806.201129 200 
L 808.117046 225.6 
L 808.755684 193.6 
L 810.032962 212.8 
L 812.587517 244.8 
L 814.12025 225.6 
L 815.397528 232 
L 819.229361 206.4 
L 820.506638 200 
L 821.145277 219.2 
L 821.783916 244.8 
L 822.422555 212.8 
L 823.699832 193.6 
L 824.97711 264 
L 826.254387 129.6 
L 829.447581 206.4 
L 830.08622 193.6 
L 830.724859 238.4 
L 831.363498 232 
L 832.002136 206.4 
L 833.279414 225.6 
L 835.19533 232 
L 835.833969 219.2 
L 837.111247 219.2 
L 837.749886 225.6 
L 838.388524 206.4 
L 839.027163 200 
L 840.304441 232 
L 841.581718 212.8 
L 842.220357 212.8 
L 842.858996 225.6 
L 843.497635 219.2 
L 844.774912 225.6 
L 845.413551 219.2 
L 846.690829 225.6 
L 847.329467 232 
L 848.606745 206.4 
L 849.245384 206.4 
L 849.884023 200 
L 850.522661 219.2 
L 851.1613 212.8 
L 851.799939 238.4 
L 852.438578 225.6 
L 853.077217 225.6 
L 853.715855 251.2 
L 854.354494 225.6 
L 854.993133 264 
L 855.631772 225.6 
L 856.270411 212.8 
L 856.909049 238.4 
L 857.547688 225.6 
L 858.186327 264 
L 858.824966 200 
L 859.463604 232 
L 860.102243 270.4 
L 860.740882 500.8 
L 861.379521 315.2 
L 862.01816 289.6 
L 862.656798 219.2 
L 863.295437 244.8 
L 863.934076 257.6 
L 864.572715 232 
L 865.211354 244.8 
L 865.849992 251.2 
L 866.488631 225.6 
L 867.12727 251.2 
L 867.765909 200 
L 868.404548 212.8 
L 869.043186 206.4 
L 870.320464 206.4 
L 870.959103 238.4 
L 871.853197 200 
L 872.491836 232 
L 873.130475 200 
L 874.407752 238.4 
L 875.046391 219.2 
L 875.68503 219.2 
L 876.962307 212.8 
L 878.239585 212.8 
L 881.432779 244.8 
L 883.348695 251.2 
L 883.987334 206.4 
L 886.541889 276.8 
L 887.819167 257.6 
L 889.096444 244.8 
L 890.373722 251.2 
L 891.651 225.6 
L 892.289638 232 
L 893.566916 264 
L 896.121471 238.4 
L 899.953304 270.4 
L 900.591943 289.6 
L 900.975126 347.2 
L 903.146498 264 
L 906.339692 289.6 
L 914.003357 283.2 
L 918.473829 142.4 
L 922.305662 251.2 
L 938.91027 238.4 
L 944.658019 276.8 
L 955.514879 148.8 
L 968.926293 168 
L 971.480848 193.6 
L 975.312681 200 
L 976.589959 180.8 
L 977.867236 200 
L 979.783153 200 
L 983.614986 136 
L 984.892263 225.6 
L 987.446818 212.8 
L 988.085457 161.6 
L 988.724096 225.6 
L 992.555929 206.4 
L 993.833206 206.4 
L 995.110484 200 
L 998.942317 187.2 
L 999.580955 219.2 
L 1000.219594 193.6 
L 1001.496872 238.4 
L 1004.690066 219.2 
L 1005.967343 168 
L 1006.605982 212.8 
L 1009.160537 219.2 
L 1009.799176 193.6 
L 1010.437815 232 
L 1011.715092 219.2 
L 1012.353731 155.2 
L 1012.99237 219.2 
L 1014.269647 219.2 
L 1014.908286 212.8 
L 1016.824203 200 
L 1017.462841 219.2 
L 1018.10148 251.2 
L 1018.740119 219.2 
L 1020.656035 219.2 
L 1021.294674 232 
L 1025.765146 180.8 
L 1026.403785 206.4 
L 1027.681062 200 
L 1028.95834 200 
L 1030.874256 206.4 
L 1031.512895 187.2 
L 1032.790172 200 
L 1033.428811 238.4 
L 1034.06745 212.8 
L 1035.344728 225.6 
L 1035.983366 187.2 
L 1036.622005 193.6 
L 1037.260644 212.8 
L 1037.899283 225.6 
L 1038.537922 200 
L 1039.17656 212.8 
L 1040.453838 232 
L 1041.092477 187.2 
L 1041.731116 232 
L 1043.008393 193.6 
L 1043.647032 232 
L 1044.285671 238.4 
L 1044.924309 206.4 
L 1045.562948 212.8 
L 1046.201587 187.2 
L 1046.840226 193.6 
L 1047.478865 206.4 
L 1049.394781 193.6 
L 1052.587975 206.4 
L 1057.058447 180.8 
L 1059.613002 200 
L 1062.167557 212.8 
L 1064.722112 251.2 
L 1065.360751 206.4 
L 1067.915306 187.2 
L 1068.553945 232 
L 1070.469861 264 
L 1073.663055 251.2 
L 1076.21761 225.6 
L 1080.049443 212.8 
L 1081.965359 244.8 
L 1083.881276 200 
L 1090.906302 174.4 
L 1092.822219 251.2 
L 1093.460858 270.4 
L 1096.654052 270.4 
L 1150.29971 251.2 
L 1160.517931 200 
L 1161.795208 251.2 
L 1164.988402 219.2 
L 1172.013429 206.4 
L 1172.652068 187.2 
L 1174.567984 219.2 
L 1177.761178 206.4 
L 1178.399817 187.2 
L 1179.038456 232 
L 1182.870288 161.6 
L 1183.508927 219.2 
L 1184.147566 187.2 
L 1185.424844 200 
L 1186.063482 232 
L 1187.979399 193.6 
L 1188.618038 206.4 
L 1190.533954 238.4 
L 1191.172593 219.2 
L 1191.811232 206.4 
L 1193.088509 225.6 
L 1195.004425 180.8 
L 1195.643064 200 
L 1196.281703 225.6 
L 1199.091714 225.6 
L 1199.730353 200 
L 1200.368991 219.2 
L 1201.00763 187.2 
L 1202.284908 225.6 
L 1202.923546 212.8 
L 1203.562185 232 
L 1204.839463 219.2 
L 1205.478102 238.4 
L 1206.755379 225.6 
L 1207.394018 212.8 
L 1209.309934 212.8 
L 1210.587212 219.2 
L 1211.225851 270.4 
L 1212.503128 238.4 
L 1213.780406 219.2 
L 1214.419045 232 
L 1216.9736 219.2 
L 1218.250877 225.6 
L 1218.889516 212.8 
L 1219.528155 225.6 
L 1220.166794 187.2 
L 1220.805433 193.6 
L 1221.444071 206.4 
L 1223.359988 257.6 
L 1223.998627 219.2 
L 1225.275904 225.6 
L 1226.553182 174.4 
L 1229.107737 232 
L 1229.746376 206.4 
L 1230.385015 238.4 
L 1231.023653 219.2 
L 1232.300931 206.4 
L 1232.93957 251.2 
L 1233.578208 244.8 
L 1236.132764 180.8 
L 1236.771402 238.4 
L 1237.410041 219.2 
L 1238.04868 232 
L 1239.325958 219.2 
L 1240.603235 232 
L 1241.241874 174.4 
L 1242.519152 232 
L 1243.15779 200 
L 1243.796429 200 
L 1244.435068 206.4 
L 1245.712346 206.4 
L 1246.989623 244.8 
L 1247.628262 244.8 
L 1250.182817 232 
L 1251.460095 289.6 
L 1252.098733 206.4 
L 1255.291927 244.8 
L 1257.846483 225.6 
L 1259.12376 225.6 
L 1259.762399 238.4 
L 1262.316954 212.8 
L 1264.871509 296 
L 1275.08973 168 
L 1275.728369 206.4 
L 1280.837479 251.2 
L 1288.501145 212.8 
L 1329.374027 225.6 
L 1332.567221 225.6 
L 1333.844499 168 
L 1336.399054 232 
L 1337.676331 193.6 
L 1338.953609 206.4 
L 1341.508164 219.2 
L 1342.146803 212.8 
L 1342.785442 219.2 
L 1344.062719 193.6 
L 1345.339997 219.2 
L 1347.255913 232 
L 1349.17183 225.6 
L 1349.810468 238.4 
L 1351.726385 264 
L 1352.365024 206.4 
L 1353.642301 225.6 
L 1354.28094 180.8 
L 1354.919579 200 
L 1356.196856 187.2 
L 1356.835495 251.2 
L 1357.474134 200 
L 1358.112773 206.4 
L 1359.39005 206.4 
L 1360.028689 193.6 
L 1360.667328 212.8 
L 1362.583244 244.8 
L 1363.221883 212.8 
L 1363.860522 212.8 
L 1364.499161 225.6 
L 1365.1378 200 
L 1366.415077 200 
L 1367.053716 232 
L 1368.969632 174.4 
L 1370.885549 238.4 
L 1371.524187 200 
L 1372.162826 200 
L 1372.801465 225.6 
L 1374.078743 219.2 
L 1376.633298 244.8 
L 1377.271937 200 
L 1377.910575 244.8 
L 1379.187853 193.6 
L 1379.826492 251.2 
L 1381.103769 219.2 
L 1381.742408 212.8 
L 1382.381047 180.8 
L 1383.019686 219.2 
L 1385.829696 232 
L 1386.468335 244.8 
L 1387.106974 187.2 
L 1388.384252 232 
L 1389.02289 238.4 
L 1389.661529 193.6 
L 1390.300168 225.6 
L 1390.938807 270.4 
L 1393.493362 283.2 
L 1394.132001 225.6 
L 1394.770639 193.6 
L 1396.047917 206.4 
L 1396.686556 219.2 
L 1397.325195 225.6 
L 1397.963833 219.2 
L 1398.602472 232 
L 1399.241111 200 
L 1400.518389 225.6 
L 1401.157027 225.6 
L 1401.795666 257.6 
L 1403.072944 212.8 
L 1403.711582 206.4 
L 1404.350221 244.8 
L 1405.627499 219.2 
L 1406.904776 232 
L 1407.543415 219.2 
L 1409.459332 232 
L 1410.09797 225.6 
L 1411.375248 238.4 
L 1412.013887 225.6 
L 1412.652526 251.2 
L 1413.291164 232 
L 1413.929803 219.2 
L 1414.568442 270.4 
L 1415.207081 417.6 
L 1415.84572 513.6 
L 1416.484358 315.2 
L 1417.122997 264 
L 1417.761636 321.6 
L 1418.400275 212.8 
L 1419.038913 264 
L 1419.677552 379.2 
L 1420.316191 232 
L 1420.95483 270.4 
L 1421.593469 206.4 
L 1422.232107 212.8 
L 1422.870746 225.6 
L 1424.786663 225.6 
L 1425.425301 212.8 
L 1426.06394 219.2 
L 1426.702579 219.2 
L 1427.979857 232 
L 1428.618495 225.6 
L 1430.023501 212.8 
L 1430.534412 212.8 
L 1431.811689 225.6 
L 1432.450328 206.4 
L 1433.727606 238.4 
L 1434.366244 212.8 
L 1435.643522 232 
L 1437.559438 232 
L 1438.836716 225.6 
L 1439.475355 276.8 
L 1440.113994 193.6 
L 1440.752632 257.6 
L 1441.391271 187.2 
L 1442.02991 238.4 
L 1442.668549 238.4 
L 1443.307188 219.2 
L 1443.945826 232 
L 1449.693575 232 
L 1450.970853 174.4 
L 1453.653136 257.6 
L 1455.569052 264 
L 1456.718602 238.4 
L 1457.99588 225.6 
L 1458.634519 225.6 
L 1459.273157 200 
L 1496.952846 251.2 
L 1500.14604 238.4 
L 1502.828323 257.6 
L 1505.893789 72 
L 1509.85335 264 
L 1510.491988 225.6 
L 1511.769266 244.8 
L 1512.407905 161.6 
L 1513.046544 289.6 
L 1514.834732 187.2 
L 1519.943843 225.6 
L 1522.626125 219.2 
L 1523.264764 244.8 
L 1523.903403 219.2 
L 1524.542042 200 
L 1525.180681 200 
L 1525.819319 193.6 
L 1527.735236 251.2 
L 1528.373875 206.4 
L 1529.012513 219.2 
L 1530.92843 225.6 
L 1532.205707 232 
L 1532.844346 257.6 
L 1533.482985 212.8 
L 1534.760262 225.6 
L 1535.398901 219.2 
L 1536.03754 225.6 
L 1536.676179 225.6 
L 1537.314818 200 
L 1537.953456 193.6 
L 1539.230734 232 
L 1539.869373 244.8 
L 1541.785289 244.8 
L 1542.423928 251.2 
L 1543.062567 232 
L 1543.701206 257.6 
L 1544.978483 187.2 
L 1546.8944 219.2 
L 1548.171677 225.6 
L 1548.810316 174.4 
L 1549.448955 225.6 
L 1550.087593 200 
L 1550.726232 219.2 
L 1553.280787 212.8 
L 1553.919426 225.6 
L 1554.558065 232 
L 1555.196704 264 
L 1556.473981 225.6 
L 1557.11262 219.2 
L 1557.751259 225.6 
L 1558.389898 219.2 
L 1559.028537 225.6 
L 1560.944453 206.4 
L 1561.583092 206.4 
L 1562.221731 193.6 
L 1562.860369 238.4 
L 1563.499008 206.4 
L 1565.414924 225.6 
L 1566.053563 212.8 
L 1566.692202 187.2 
L 1567.330841 225.6 
L 1567.96948 251.2 
L 1568.608118 193.6 
L 1569.246757 174.4 
L 1569.885396 232 
L 1570.524035 257.6 
L 1571.162674 244.8 
L 1571.801312 225.6 
L 1573.07859 264 
L 1573.717229 270.4 
L 1574.355868 264 
L 1576.016328 372.8 
L 1576.654967 270.4 
L 1577.932245 379.2 
L 1579.209522 584 
L 1579.848161 596.8 
L 1580.4868 353.6 
L 1581.125439 232 
L 1581.764078 212.8 
L 1582.402716 219.2 
L 1583.041355 238.4 
L 1583.679994 219.2 
L 1584.318633 251.2 
L 1584.957271 225.6 
L 1586.234549 212.8 
L 1587.511827 232 
L 1588.150465 232 
L 1588.789104 212.8 
L 1590.066382 238.4 
L 1590.705021 238.4 
L 1591.343659 244.8 
L 1591.982298 244.8 
L 1592.620937 219.2 
L 1593.259576 244.8 
L 1593.898215 225.6 
L 1594.536853 219.2 
L 1595.175492 232 
L 1595.814131 232 
L 1596.45277 238.4 
L 1597.091409 206.4 
L 1597.730047 232 
L 1598.368686 232 
L 1599.007325 251.2 
L 1600.284602 315.2 
L 1600.923241 321.6 
L 1601.56188 251.2 
L 1602.200519 270.4 
L 1603.477796 212.8 
L 1604.116435 238.4 
L 1606.032352 219.2 
L 1606.67099 244.8 
L 1607.948268 270.4 
L 1608.586907 212.8 
L 1609.225546 225.6 
L 1609.864184 225.6 
L 1611.141462 238.4 
L 1611.780101 200 
L 1612.41874 219.2 
L 1613.057378 244.8 
L 1614.334656 238.4 
L 1614.973295 232 
L 1615.611933 238.4 
L 1616.250572 264 
L 1616.889211 232 
L 1617.52785 206.4 
L 1618.166489 244.8 
L 1618.805127 270.4 
L 1619.443766 206.4 
L 1620.082405 264 
L 1620.721044 264 
L 1621.359683 270.4 
L 1622.63696 251.2 
L 1623.275599 257.6 
L 1624.552877 276.8 
L 1625.191515 244.8 
L 1625.830154 232 
L 1627.746071 283.2 
L 1628.384709 251.2 
L 1629.661987 251.2 
L 1631.577903 238.4 
L 1632.855181 244.8 
L 1637.964291 283.2 
L 1641.157485 270.4 
L 1642.434763 219.2 
L 1646.905234 232 
L 1647.543873 257.6 
L 1648.182512 257.6 
L 1648.821151 264 
L 1658.400732 219.2 
L 1665.425759 283.2 
L 1669.896231 270.4 
L 1675.64398 264 
L 1688.416756 276.8 
L 1692.887227 206.4 
L 1694.164505 251.2 
L 1695.441782 232 
L 1696.71906 232 
L 1699.273615 257.6 
L 1699.912254 238.4 
L 1701.189532 232 
L 1703.105448 232 
L 1703.744087 225.6 
L 1705.021364 257.6 
L 1708.214558 238.4 
L 1708.853197 206.4 
L 1709.491836 270.4 
L 1710.130475 193.6 
L 1711.407752 225.6 
L 1712.046391 225.6 
L 1713.323669 212.8 
L 1713.962307 238.4 
L 1714.600946 212.8 
L 1715.239585 206.4 
L 1715.878224 193.6 
L 1716.516863 225.6 
L 1717.155501 200 
L 1718.432779 193.6 
L 1719.710056 212.8 
L 1720.348695 251.2 
L 1720.987334 219.2 
L 1721.625973 244.8 
L 1722.264612 193.6 
L 1722.90325 238.4 
L 1724.180528 200 
L 1725.457806 219.2 
L 1726.735083 219.2 
L 1728.012361 225.6 
L 1728.651 257.6 
L 1729.289638 206.4 
L 1729.928277 219.2 
L 1730.566916 200 
L 1731.205555 193.6 
L 1731.844194 219.2 
L 1732.482832 270.4 
L 1733.121471 206.4 
L 1734.398749 206.4 
L 1735.037387 212.8 
L 1735.676026 187.2 
L 1736.314665 212.8 
L 1736.953304 251.2 
L 1738.230581 225.6 
L 1738.86922 264 
L 1740.146498 193.6 
L 1740.785137 289.6 
L 1741.423775 244.8 
L 1742.062414 219.2 
L 1742.701053 238.4 
L 1743.978331 219.2 
L 1744.616969 251.2 
L 1745.894247 232 
L 1746.532886 225.6 
L 1747.171525 232 
L 1747.810163 180.8 
L 1749.087441 251.2 
L 1749.72608 212.8 
L 1750.364718 251.2 
L 1751.003357 219.2 
L 1751.641996 244.8 
L 1752.280635 212.8 
L 1752.919274 206.4 
L 1753.557912 206.4 
L 1754.83519 257.6 
L 1755.473829 180.8 
L 1756.112468 225.6 
L 1756.751106 321.6 
L 1757.389745 328 
L 1758.028384 430.4 
L 1758.667023 494.4 
L 1759.305662 603.2 
L 1759.9443 558.4 
L 1760.582939 603.2 
L 1761.221578 443.2 
L 1761.860217 539.2 
L 1762.498856 596.8 
L 1763.137494 609.6 
L 1763.265222 596.8 
L 1763.903861 520 
L 1764.5425 596.8 
L 1765.181138 500.8 
L 1765.819777 174.4 
L 1766.458416 232 
L 1767.097055 219.2 
L 1767.735694 174.4 
L 1768.374332 270.4 
L 1769.012971 232 
L 1769.65161 238.4 
L 1770.290249 238.4 
L 1770.928888 212.8 
L 1771.567526 180.8 
L 1772.206165 193.6 
L 1772.844804 219.2 
L 1773.483443 225.6 
L 1774.122082 212.8 
L 1774.76072 232 
L 1775.399359 283.2 
L 1776.037998 200 
L 1776.676637 225.6 
L 1777.315275 225.6 
L 1777.953914 232 
L 1778.592553 225.6 
L 1779.231192 238.4 
L 1779.869831 296 
L 1780.508469 456 
L 1781.147108 577.6 
L 1781.785747 571.2 
L 1782.424386 436.8 
L 1783.063025 372.8 
L 1783.701663 641.6 
L 1784.340302 526.4 
L 1784.978941 500.8 
L 1785.61758 308.8 
L 1786.256219 264 
L 1786.894857 289.6 
L 1787.533496 366.4 
L 1788.172135 283.2 
L 1788.810774 296 
L 1789.449412 244.8 
L 1790.088051 212.8 
L 1790.72669 200 
L 1791.365329 251.2 
L 1792.003968 225.6 
L 1793.281245 212.8 
L 1794.558523 225.6 
L 1795.197162 212.8 
L 1795.8358 206.4 
L 1796.474439 212.8 
L 1797.113078 193.6 
L 1798.390356 219.2 
L 1799.028994 238.4 
L 1800.944911 238.4 
L 1801.58355 244.8 
L 1802.222188 232 
L 1802.860827 238.4 
L 1804.138105 225.6 
L 1805.415382 244.8 
L 1806.054021 219.2 
L 1806.69266 251.2 
L 1807.331299 257.6 
L 1807.969937 251.2 
L 1808.608576 232 
L 1810.524493 270.4 
L 1811.163131 289.6 
L 1811.80177 232 
L 1812.440409 244.8 
L 1813.079048 219.2 
L 1813.717687 244.8 
L 1814.356325 283.2 
L 1814.994964 276.8 
L 1816.272242 212.8 
L 1818.188158 251.2 
L 1818.826797 238.4 
L 1820.104075 225.6 
L 1821.381352 232 
L 1822.530902 283.2 
L 1823.297268 257.6 
L 1823.935907 276.8 
L 1824.574546 251.2 
L 1825.851824 257.6 
L 1826.490462 244.8 
L 1827.76774 270.4 
L 1829.683656 238.4 
L 1832.87685 238.4 
L 1835.431405 270.4 
L 1837.347322 225.6 
L 1841.817793 244.8 
L 1844.372349 283.2 
L 1848.84282 289.6 
L 1850.758736 308.8 
L 1852.674653 225.6 
L 1857.783763 257.6 
L 1861.615596 289.6 
L 1871.195178 276.8 
L 1873.749733 251.2 
L 1875.665649 238.4 
L 1876.304288 232 
L 1878.220205 180.8 
L 1878.858843 244.8 
L 1879.497482 244.8 
L 1880.136121 225.6 
L 1880.77476 251.2 
L 1881.413398 187.2 
L 1884.606592 315.2 
L 1885.245231 257.6 
L 1885.88387 321.6 
L 1887.161148 238.4 
L 1889.077064 264 
L 1889.715703 270.4 
L 1890.354342 404.8 
L 1890.99298 308.8 
L 1891.631619 289.6 
L 1892.908897 308.8 
L 1894.186174 212.8 
L 1894.824813 289.6 
L 1895.463452 251.2 
L 1896.102091 232 
L 1896.740729 257.6 
L 1897.379368 238.4 
L 1898.018007 264 
L 1898.656646 276.8 
L 1899.295285 251.2 
L 1899.933923 219.2 
L 1900.572562 257.6 
L 1901.211201 270.4 
L 1901.84984 264 
L 1902.488479 270.4 
L 1903.127117 270.4 
L 1903.765756 244.8 
L 1904.404395 296 
L 1905.043034 302.4 
L 1905.681673 238.4 
L 1906.320311 244.8 
L 1906.95895 219.2 
L 1907.597589 251.2 
L 1908.236228 219.2 
L 1910.152144 257.6 
L 1910.790783 206.4 
L 1911.429422 232 
L 1912.06806 244.8 
L 1912.706699 232 
L 1913.345338 193.6 
L 1913.983977 225.6 
L 1914.622616 238.4 
L 1915.261254 257.6 
L 1915.899893 232 
L 1916.538532 232 
L 1917.177171 251.2 
L 1918.454448 238.4 
L 1919.093087 257.6 
L 1919.731726 270.4 
L 1920.370365 238.4 
L 1921.009004 296 
L 1921.647642 251.2 
L 1922.286281 257.6 
L 1922.92492 225.6 
L 1923.563559 257.6 
L 1924.202197 206.4 
L 1924.840836 225.6 
L 1925.479475 212.8 
L 1926.118114 206.4 
L 1926.756753 225.6 
L 1927.395391 225.6 
L 1928.03403 238.4 
L 1928.672669 244.8 
L 1929.311308 212.8 
L 1930.588585 251.2 
L 1931.227224 225.6 
L 1931.865863 193.6 
L 1932.504502 219.2 
L 1933.143141 225.6 
L 1933.781779 251.2 
L 1935.059057 251.2 
L 1936.336335 289.6 
L 1936.974973 385.6 
L 1937.613612 244.8 
L 1938.252251 353.6 
L 1938.89089 347.2 
L 1939.529528 244.8 
L 1940.168167 328 
L 1940.806806 353.6 
L 1941.445445 436.8 
L 1942.084084 500.8 
L 1942.722722 481.6 
L 1943.361361 526.4 
L 1944 475.2 
L 1944 475.2 
" style="fill:none;stroke:#0000ff;stroke-linecap:square;"/>
   </g>
   <g id="line2d_2"/>
   <g id="patch_3">
    <path d="M 270 72 
L 1944 72 
" style="fill:none;stroke:#000000;stroke-linecap:square;stroke-linejoin:miter;"/>
   </g>
   <g id="patch_4">
    <path d="M 1944 648 
L 1944 72 
" style="fill:none;stroke:#000000;stroke-linecap:square;stroke-linejoin:miter;"/>
   </g>
   <g id="patch_5">
    <path d="M 270 648 
L 1944 648 
" style="fill:none;stroke:#000000;stroke-linecap:square;stroke-linejoin:miter;"/>
   </g>
   <g id="patch_6">
    <path d="M 270 648 
L 270 72 
" style="fill:none;stroke:#000000;stroke-linecap:square;stroke-linejoin:miter;"/>
   </g>
   <g id="matplotlib.axis_1">
    <g id="xtick_1">
     <g id="line2d_3">
      <defs>
       <path d="M 0 0 
L 0 -4 
" id="m0c33f7cc35" style="stroke:#000000;stroke-width:0.5;"/>
      </defs>
      <g>
       <use style="stroke:#000000;stroke-width:0.5;" x="364.646268874" xlink:href="#m0c33f7cc35" y="648.0"/>
      </g>
     </g>
     <g id="line2d_4">
      <defs>
       <path d="M 0 0 
L 0 4 
" id="m23b0f801f8" style="stroke:#000000;stroke-width:0.5;"/>
      </defs>
      <g>
       <use style="stroke:#000000;stroke-width:0.5;" x="364.646268874" xlink:href="#m23b0f801f8" y="72.0"/>
      </g>
     </g>
     <g id="text_1">
      <!-- Sep 09 2015 -->
      <defs>
       <path d="M 19.1875 8.296875 
L 53.609375 8.296875 
L 53.609375 0 
L 7.328125 0 
L 7.328125 8.296875 
Q 12.9375 14.109375 22.625 23.890625 
Q 32.328125 33.6875 34.8125 36.53125 
Q 39.546875 41.84375 41.421875 45.53125 
Q 43.3125 49.21875 43.3125 52.78125 
Q 43.3125 58.59375 39.234375 62.25 
Q 35.15625 65.921875 28.609375 65.921875 
Q 23.96875 65.921875 18.8125 64.3125 
Q 13.671875 62.703125 7.8125 59.421875 
L 7.8125 69.390625 
Q 13.765625 71.78125 18.9375 73 
Q 24.125 74.21875 28.421875 74.21875 
Q 39.75 74.21875 46.484375 68.546875 
Q 53.21875 62.890625 53.21875 53.421875 
Q 53.21875 48.921875 51.53125 44.890625 
Q 49.859375 40.875 45.40625 35.40625 
Q 44.1875 33.984375 37.640625 27.21875 
Q 31.109375 20.453125 19.1875 8.296875 
" id="BitstreamVeraSans-Roman-32"/>
       <path id="BitstreamVeraSans-Roman-20"/>
       <path d="M 31.78125 66.40625 
Q 24.171875 66.40625 20.328125 58.90625 
Q 16.5 51.421875 16.5 36.375 
Q 16.5 21.390625 20.328125 13.890625 
Q 24.171875 6.390625 31.78125 6.390625 
Q 39.453125 6.390625 43.28125 13.890625 
Q 47.125 21.390625 47.125 36.375 
Q 47.125 51.421875 43.28125 58.90625 
Q 39.453125 66.40625 31.78125 66.40625 
M 31.78125 74.21875 
Q 44.046875 74.21875 50.515625 64.515625 
Q 56.984375 54.828125 56.984375 36.375 
Q 56.984375 17.96875 50.515625 8.265625 
Q 44.046875 -1.421875 31.78125 -1.421875 
Q 19.53125 -1.421875 13.0625 8.265625 
Q 6.59375 17.96875 6.59375 36.375 
Q 6.59375 54.828125 13.0625 64.515625 
Q 19.53125 74.21875 31.78125 74.21875 
" id="BitstreamVeraSans-Roman-30"/>
       <path d="M 12.40625 8.296875 
L 28.515625 8.296875 
L 28.515625 63.921875 
L 10.984375 60.40625 
L 10.984375 69.390625 
L 28.421875 72.90625 
L 38.28125 72.90625 
L 38.28125 8.296875 
L 54.390625 8.296875 
L 54.390625 0 
L 12.40625 0 
z
" id="BitstreamVeraSans-Roman-31"/>
       <path d="M 10.796875 72.90625 
L 49.515625 72.90625 
L 49.515625 64.59375 
L 19.828125 64.59375 
L 19.828125 46.734375 
Q 21.96875 47.46875 24.109375 47.828125 
Q 26.265625 48.1875 28.421875 48.1875 
Q 40.625 48.1875 47.75 41.5 
Q 54.890625 34.8125 54.890625 23.390625 
Q 54.890625 11.625 47.5625 5.09375 
Q 40.234375 -1.421875 26.90625 -1.421875 
Q 22.3125 -1.421875 17.546875 -0.640625 
Q 12.796875 0.140625 7.71875 1.703125 
L 7.71875 11.625 
Q 12.109375 9.234375 16.796875 8.0625 
Q 21.484375 6.890625 26.703125 6.890625 
Q 35.15625 6.890625 40.078125 11.328125 
Q 45.015625 15.765625 45.015625 23.390625 
Q 45.015625 31 40.078125 35.4375 
Q 35.15625 39.890625 26.703125 39.890625 
Q 22.75 39.890625 18.8125 39.015625 
Q 14.890625 38.140625 10.796875 36.28125 
z
" id="BitstreamVeraSans-Roman-35"/>
       <path d="M 10.984375 1.515625 
L 10.984375 10.5 
Q 14.703125 8.734375 18.5 7.8125 
Q 22.3125 6.890625 25.984375 6.890625 
Q 35.75 6.890625 40.890625 13.453125 
Q 46.046875 20.015625 46.78125 33.40625 
Q 43.953125 29.203125 39.59375 26.953125 
Q 35.25 24.703125 29.984375 24.703125 
Q 19.046875 24.703125 12.671875 31.3125 
Q 6.296875 37.9375 6.296875 49.421875 
Q 6.296875 60.640625 12.9375 67.421875 
Q 19.578125 74.21875 30.609375 74.21875 
Q 43.265625 74.21875 49.921875 64.515625 
Q 56.59375 54.828125 56.59375 36.375 
Q 56.59375 19.140625 48.40625 8.859375 
Q 40.234375 -1.421875 26.421875 -1.421875 
Q 22.703125 -1.421875 18.890625 -0.6875 
Q 15.09375 0.046875 10.984375 1.515625 
M 30.609375 32.421875 
Q 37.25 32.421875 41.125 36.953125 
Q 45.015625 41.5 45.015625 49.421875 
Q 45.015625 57.28125 41.125 61.84375 
Q 37.25 66.40625 30.609375 66.40625 
Q 23.96875 66.40625 20.09375 61.84375 
Q 16.21875 57.28125 16.21875 49.421875 
Q 16.21875 41.5 20.09375 36.953125 
Q 23.96875 32.421875 30.609375 32.421875 
" id="BitstreamVeraSans-Roman-39"/>
       <path d="M 53.515625 70.515625 
L 53.515625 60.890625 
Q 47.90625 63.578125 42.921875 64.890625 
Q 37.9375 66.21875 33.296875 66.21875 
Q 25.25 66.21875 20.875 63.09375 
Q 16.5 59.96875 16.5 54.203125 
Q 16.5 49.359375 19.40625 46.890625 
Q 22.3125 44.4375 30.421875 42.921875 
L 36.375 41.703125 
Q 47.40625 39.59375 52.65625 34.296875 
Q 57.90625 29 57.90625 20.125 
Q 57.90625 9.515625 50.796875 4.046875 
Q 43.703125 -1.421875 29.984375 -1.421875 
Q 24.8125 -1.421875 18.96875 -0.25 
Q 13.140625 0.921875 6.890625 3.21875 
L 6.890625 13.375 
Q 12.890625 10.015625 18.65625 8.296875 
Q 24.421875 6.59375 29.984375 6.59375 
Q 38.421875 6.59375 43.015625 9.90625 
Q 47.609375 13.234375 47.609375 19.390625 
Q 47.609375 24.75 44.3125 27.78125 
Q 41.015625 30.8125 33.5 32.328125 
L 27.484375 33.5 
Q 16.453125 35.6875 11.515625 40.375 
Q 6.59375 45.0625 6.59375 53.421875 
Q 6.59375 63.09375 13.40625 68.65625 
Q 20.21875 74.21875 32.171875 74.21875 
Q 37.3125 74.21875 42.625 73.28125 
Q 47.953125 72.359375 53.515625 70.515625 
" id="BitstreamVeraSans-Roman-53"/>
       <path d="M 56.203125 29.59375 
L 56.203125 25.203125 
L 14.890625 25.203125 
Q 15.484375 15.921875 20.484375 11.0625 
Q 25.484375 6.203125 34.421875 6.203125 
Q 39.59375 6.203125 44.453125 7.46875 
Q 49.3125 8.734375 54.109375 11.28125 
L 54.109375 2.78125 
Q 49.265625 0.734375 44.1875 -0.34375 
Q 39.109375 -1.421875 33.890625 -1.421875 
Q 20.796875 -1.421875 13.15625 6.1875 
Q 5.515625 13.8125 5.515625 26.8125 
Q 5.515625 40.234375 12.765625 48.109375 
Q 20.015625 56 32.328125 56 
Q 43.359375 56 49.78125 48.890625 
Q 56.203125 41.796875 56.203125 29.59375 
M 47.21875 32.234375 
Q 47.125 39.59375 43.09375 43.984375 
Q 39.0625 48.390625 32.421875 48.390625 
Q 24.90625 48.390625 20.390625 44.140625 
Q 15.875 39.890625 15.1875 32.171875 
z
" id="BitstreamVeraSans-Roman-65"/>
       <path d="M 18.109375 8.203125 
L 18.109375 -20.796875 
L 9.078125 -20.796875 
L 9.078125 54.6875 
L 18.109375 54.6875 
L 18.109375 46.390625 
Q 20.953125 51.265625 25.265625 53.625 
Q 29.59375 56 35.59375 56 
Q 45.5625 56 51.78125 48.09375 
Q 58.015625 40.1875 58.015625 27.296875 
Q 58.015625 14.40625 51.78125 6.484375 
Q 45.5625 -1.421875 35.59375 -1.421875 
Q 29.59375 -1.421875 25.265625 0.953125 
Q 20.953125 3.328125 18.109375 8.203125 
M 48.6875 27.296875 
Q 48.6875 37.203125 44.609375 42.84375 
Q 40.53125 48.484375 33.40625 48.484375 
Q 26.265625 48.484375 22.1875 42.84375 
Q 18.109375 37.203125 18.109375 27.296875 
Q 18.109375 17.390625 22.1875 11.75 
Q 26.265625 6.109375 33.40625 6.109375 
Q 40.53125 6.109375 44.609375 11.75 
Q 48.6875 17.390625 48.6875 27.296875 
" id="BitstreamVeraSans-Roman-70"/>
      </defs>
      <g transform="translate(326.617518874 661.118125)scale(0.12 -0.12)">
       <use xlink:href="#BitstreamVeraSans-Roman-53"/>
       <use x="63.4765625" xlink:href="#BitstreamVeraSans-Roman-65"/>
       <use x="125.0" xlink:href="#BitstreamVeraSans-Roman-70"/>
       <use x="188.4765625" xlink:href="#BitstreamVeraSans-Roman-20"/>
       <use x="220.263671875" xlink:href="#BitstreamVeraSans-Roman-30"/>
       <use x="283.88671875" xlink:href="#BitstreamVeraSans-Roman-39"/>
       <use x="347.509765625" xlink:href="#BitstreamVeraSans-Roman-20"/>
       <use x="379.296875" xlink:href="#BitstreamVeraSans-Roman-32"/>
       <use x="442.919921875" xlink:href="#BitstreamVeraSans-Roman-30"/>
       <use x="506.54296875" xlink:href="#BitstreamVeraSans-Roman-31"/>
       <use x="570.166015625" xlink:href="#BitstreamVeraSans-Roman-35"/>
      </g>
     </g>
    </g>
    <g id="xtick_2">
     <g id="line2d_5">
      <g>
       <use style="stroke:#000000;stroke-width:0.5;" x="548.574240804" xlink:href="#m0c33f7cc35" y="648.0"/>
      </g>
     </g>
     <g id="line2d_6">
      <g>
       <use style="stroke:#000000;stroke-width:0.5;" x="548.574240804" xlink:href="#m23b0f801f8" y="72.0"/>
      </g>
     </g>
     <g id="text_2">
      <!-- Sep 10 2015 -->
      <g transform="translate(510.545490804 661.118125)scale(0.12 -0.12)">
       <use xlink:href="#BitstreamVeraSans-Roman-53"/>
       <use x="63.4765625" xlink:href="#BitstreamVeraSans-Roman-65"/>
       <use x="125.0" xlink:href="#BitstreamVeraSans-Roman-70"/>
       <use x="188.4765625" xlink:href="#BitstreamVeraSans-Roman-20"/>
       <use x="220.263671875" xlink:href="#BitstreamVeraSans-Roman-31"/>
       <use x="283.88671875" xlink:href="#BitstreamVeraSans-Roman-30"/>
       <use x="347.509765625" xlink:href="#BitstreamVeraSans-Roman-20"/>
       <use x="379.296875" xlink:href="#BitstreamVeraSans-Roman-32"/>
       <use x="442.919921875" xlink:href="#BitstreamVeraSans-Roman-30"/>
       <use x="506.54296875" xlink:href="#BitstreamVeraSans-Roman-31"/>
       <use x="570.166015625" xlink:href="#BitstreamVeraSans-Roman-35"/>
      </g>
     </g>
    </g>
    <g id="xtick_3">
     <g id="line2d_7">
      <g>
       <use style="stroke:#000000;stroke-width:0.5;" x="732.502212733" xlink:href="#m0c33f7cc35" y="648.0"/>
      </g>
     </g>
     <g id="line2d_8">
      <g>
       <use style="stroke:#000000;stroke-width:0.5;" x="732.502212733" xlink:href="#m23b0f801f8" y="72.0"/>
      </g>
     </g>
     <g id="text_3">
      <!-- Sep 11 2015 -->
      <g transform="translate(694.473462733 661.118125)scale(0.12 -0.12)">
       <use xlink:href="#BitstreamVeraSans-Roman-53"/>
       <use x="63.4765625" xlink:href="#BitstreamVeraSans-Roman-65"/>
       <use x="125.0" xlink:href="#BitstreamVeraSans-Roman-70"/>
       <use x="188.4765625" xlink:href="#BitstreamVeraSans-Roman-20"/>
       <use x="220.263671875" xlink:href="#BitstreamVeraSans-Roman-31"/>
       <use x="283.88671875" xlink:href="#BitstreamVeraSans-Roman-31"/>
       <use x="347.509765625" xlink:href="#BitstreamVeraSans-Roman-20"/>
       <use x="379.296875" xlink:href="#BitstreamVeraSans-Roman-32"/>
       <use x="442.919921875" xlink:href="#BitstreamVeraSans-Roman-30"/>
       <use x="506.54296875" xlink:href="#BitstreamVeraSans-Roman-31"/>
       <use x="570.166015625" xlink:href="#BitstreamVeraSans-Roman-35"/>
      </g>
     </g>
    </g>
    <g id="xtick_4">
     <g id="line2d_9">
      <g>
       <use style="stroke:#000000;stroke-width:0.5;" x="916.430184662" xlink:href="#m0c33f7cc35" y="648.0"/>
      </g>
     </g>
     <g id="line2d_10">
      <g>
       <use style="stroke:#000000;stroke-width:0.5;" x="916.430184662" xlink:href="#m23b0f801f8" y="72.0"/>
      </g>
     </g>
     <g id="text_4">
      <!-- Sep 12 2015 -->
      <g transform="translate(878.401434662 661.118125)scale(0.12 -0.12)">
       <use xlink:href="#BitstreamVeraSans-Roman-53"/>
       <use x="63.4765625" xlink:href="#BitstreamVeraSans-Roman-65"/>
       <use x="125.0" xlink:href="#BitstreamVeraSans-Roman-70"/>
       <use x="188.4765625" xlink:href="#BitstreamVeraSans-Roman-20"/>
       <use x="220.263671875" xlink:href="#BitstreamVeraSans-Roman-31"/>
       <use x="283.88671875" xlink:href="#BitstreamVeraSans-Roman-32"/>
       <use x="347.509765625" xlink:href="#BitstreamVeraSans-Roman-20"/>
       <use x="379.296875" xlink:href="#BitstreamVeraSans-Roman-32"/>
       <use x="442.919921875" xlink:href="#BitstreamVeraSans-Roman-30"/>
       <use x="506.54296875" xlink:href="#BitstreamVeraSans-Roman-31"/>
       <use x="570.166015625" xlink:href="#BitstreamVeraSans-Roman-35"/>
      </g>
     </g>
    </g>
    <g id="xtick_5">
     <g id="line2d_11">
      <g>
       <use style="stroke:#000000;stroke-width:0.5;" x="1100.35815659" xlink:href="#m0c33f7cc35" y="648.0"/>
      </g>
     </g>
     <g id="line2d_12">
      <g>
       <use style="stroke:#000000;stroke-width:0.5;" x="1100.35815659" xlink:href="#m23b0f801f8" y="72.0"/>
      </g>
     </g>
     <g id="text_5">
      <!-- Sep 13 2015 -->
      <defs>
       <path d="M 40.578125 39.3125 
Q 47.65625 37.796875 51.625 33 
Q 55.609375 28.21875 55.609375 21.1875 
Q 55.609375 10.40625 48.1875 4.484375 
Q 40.765625 -1.421875 27.09375 -1.421875 
Q 22.515625 -1.421875 17.65625 -0.515625 
Q 12.796875 0.390625 7.625 2.203125 
L 7.625 11.71875 
Q 11.71875 9.328125 16.59375 8.109375 
Q 21.484375 6.890625 26.8125 6.890625 
Q 36.078125 6.890625 40.9375 10.546875 
Q 45.796875 14.203125 45.796875 21.1875 
Q 45.796875 27.640625 41.28125 31.265625 
Q 36.765625 34.90625 28.71875 34.90625 
L 20.21875 34.90625 
L 20.21875 43.015625 
L 29.109375 43.015625 
Q 36.375 43.015625 40.234375 45.921875 
Q 44.09375 48.828125 44.09375 54.296875 
Q 44.09375 59.90625 40.109375 62.90625 
Q 36.140625 65.921875 28.71875 65.921875 
Q 24.65625 65.921875 20.015625 65.03125 
Q 15.375 64.15625 9.8125 62.3125 
L 9.8125 71.09375 
Q 15.4375 72.65625 20.34375 73.4375 
Q 25.25 74.21875 29.59375 74.21875 
Q 40.828125 74.21875 47.359375 69.109375 
Q 53.90625 64.015625 53.90625 55.328125 
Q 53.90625 49.265625 50.4375 45.09375 
Q 46.96875 40.921875 40.578125 39.3125 
" id="BitstreamVeraSans-Roman-33"/>
      </defs>
      <g transform="translate(1062.32940659 661.118125)scale(0.12 -0.12)">
       <use xlink:href="#BitstreamVeraSans-Roman-53"/>
       <use x="63.4765625" xlink:href="#BitstreamVeraSans-Roman-65"/>
       <use x="125.0" xlink:href="#BitstreamVeraSans-Roman-70"/>
       <use x="188.4765625" xlink:href="#BitstreamVeraSans-Roman-20"/>
       <use x="220.263671875" xlink:href="#BitstreamVeraSans-Roman-31"/>
       <use x="283.88671875" xlink:href="#BitstreamVeraSans-Roman-33"/>
       <use x="347.509765625" xlink:href="#BitstreamVeraSans-Roman-20"/>
       <use x="379.296875" xlink:href="#BitstreamVeraSans-Roman-32"/>
       <use x="442.919921875" xlink:href="#BitstreamVeraSans-Roman-30"/>
       <use x="506.54296875" xlink:href="#BitstreamVeraSans-Roman-31"/>
       <use x="570.166015625" xlink:href="#BitstreamVeraSans-Roman-35"/>
      </g>
     </g>
    </g>
    <g id="xtick_6">
     <g id="line2d_13">
      <g>
       <use style="stroke:#000000;stroke-width:0.5;" x="1284.28612849" xlink:href="#m0c33f7cc35" y="648.0"/>
      </g>
     </g>
     <g id="line2d_14">
      <g>
       <use style="stroke:#000000;stroke-width:0.5;" x="1284.28612849" xlink:href="#m23b0f801f8" y="72.0"/>
      </g>
     </g>
     <g id="text_6">
      <!-- Sep 14 2015 -->
      <defs>
       <path d="M 37.796875 64.3125 
L 12.890625 25.390625 
L 37.796875 25.390625 
z
M 35.203125 72.90625 
L 47.609375 72.90625 
L 47.609375 25.390625 
L 58.015625 25.390625 
L 58.015625 17.1875 
L 47.609375 17.1875 
L 47.609375 0 
L 37.796875 0 
L 37.796875 17.1875 
L 4.890625 17.1875 
L 4.890625 26.703125 
z
" id="BitstreamVeraSans-Roman-34"/>
      </defs>
      <g transform="translate(1246.25737849 661.118125)scale(0.12 -0.12)">
       <use xlink:href="#BitstreamVeraSans-Roman-53"/>
       <use x="63.4765625" xlink:href="#BitstreamVeraSans-Roman-65"/>
       <use x="125.0" xlink:href="#BitstreamVeraSans-Roman-70"/>
       <use x="188.4765625" xlink:href="#BitstreamVeraSans-Roman-20"/>
       <use x="220.263671875" xlink:href="#BitstreamVeraSans-Roman-31"/>
       <use x="283.88671875" xlink:href="#BitstreamVeraSans-Roman-34"/>
       <use x="347.509765625" xlink:href="#BitstreamVeraSans-Roman-20"/>
       <use x="379.296875" xlink:href="#BitstreamVeraSans-Roman-32"/>
       <use x="442.919921875" xlink:href="#BitstreamVeraSans-Roman-30"/>
       <use x="506.54296875" xlink:href="#BitstreamVeraSans-Roman-31"/>
       <use x="570.166015625" xlink:href="#BitstreamVeraSans-Roman-35"/>
      </g>
     </g>
    </g>
    <g id="xtick_7">
     <g id="line2d_15">
      <g>
       <use style="stroke:#000000;stroke-width:0.5;" x="1468.21410042" xlink:href="#m0c33f7cc35" y="648.0"/>
      </g>
     </g>
     <g id="line2d_16">
      <g>
       <use style="stroke:#000000;stroke-width:0.5;" x="1468.21410042" xlink:href="#m23b0f801f8" y="72.0"/>
      </g>
     </g>
     <g id="text_7">
      <!-- Sep 15 2015 -->
      <g transform="translate(1430.18535042 661.118125)scale(0.12 -0.12)">
       <use xlink:href="#BitstreamVeraSans-Roman-53"/>
       <use x="63.4765625" xlink:href="#BitstreamVeraSans-Roman-65"/>
       <use x="125.0" xlink:href="#BitstreamVeraSans-Roman-70"/>
       <use x="188.4765625" xlink:href="#BitstreamVeraSans-Roman-20"/>
       <use x="220.263671875" xlink:href="#BitstreamVeraSans-Roman-31"/>
       <use x="283.88671875" xlink:href="#BitstreamVeraSans-Roman-35"/>
       <use x="347.509765625" xlink:href="#BitstreamVeraSans-Roman-20"/>
       <use x="379.296875" xlink:href="#BitstreamVeraSans-Roman-32"/>
       <use x="442.919921875" xlink:href="#BitstreamVeraSans-Roman-30"/>
       <use x="506.54296875" xlink:href="#BitstreamVeraSans-Roman-31"/>
       <use x="570.166015625" xlink:href="#BitstreamVeraSans-Roman-35"/>
      </g>
     </g>
    </g>
    <g id="xtick_8">
     <g id="line2d_17">
      <g>
       <use style="stroke:#000000;stroke-width:0.5;" x="1652.14207235" xlink:href="#m0c33f7cc35" y="648.0"/>
      </g>
     </g>
     <g id="line2d_18">
      <g>
       <use style="stroke:#000000;stroke-width:0.5;" x="1652.14207235" xlink:href="#m23b0f801f8" y="72.0"/>
      </g>
     </g>
     <g id="text_8">
      <!-- Sep 16 2015 -->
      <defs>
       <path d="M 33.015625 40.375 
Q 26.375 40.375 22.484375 35.828125 
Q 18.609375 31.296875 18.609375 23.390625 
Q 18.609375 15.53125 22.484375 10.953125 
Q 26.375 6.390625 33.015625 6.390625 
Q 39.65625 6.390625 43.53125 10.953125 
Q 47.40625 15.53125 47.40625 23.390625 
Q 47.40625 31.296875 43.53125 35.828125 
Q 39.65625 40.375 33.015625 40.375 
M 52.59375 71.296875 
L 52.59375 62.3125 
Q 48.875 64.0625 45.09375 64.984375 
Q 41.3125 65.921875 37.59375 65.921875 
Q 27.828125 65.921875 22.671875 59.328125 
Q 17.53125 52.734375 16.796875 39.40625 
Q 19.671875 43.65625 24.015625 45.921875 
Q 28.375 48.1875 33.59375 48.1875 
Q 44.578125 48.1875 50.953125 41.515625 
Q 57.328125 34.859375 57.328125 23.390625 
Q 57.328125 12.15625 50.6875 5.359375 
Q 44.046875 -1.421875 33.015625 -1.421875 
Q 20.359375 -1.421875 13.671875 8.265625 
Q 6.984375 17.96875 6.984375 36.375 
Q 6.984375 53.65625 15.1875 63.9375 
Q 23.390625 74.21875 37.203125 74.21875 
Q 40.921875 74.21875 44.703125 73.484375 
Q 48.484375 72.75 52.59375 71.296875 
" id="BitstreamVeraSans-Roman-36"/>
      </defs>
      <g transform="translate(1614.11332235 661.118125)scale(0.12 -0.12)">
       <use xlink:href="#BitstreamVeraSans-Roman-53"/>
       <use x="63.4765625" xlink:href="#BitstreamVeraSans-Roman-65"/>
       <use x="125.0" xlink:href="#BitstreamVeraSans-Roman-70"/>
       <use x="188.4765625" xlink:href="#BitstreamVeraSans-Roman-20"/>
       <use x="220.263671875" xlink:href="#BitstreamVeraSans-Roman-31"/>
       <use x="283.88671875" xlink:href="#BitstreamVeraSans-Roman-36"/>
       <use x="347.509765625" xlink:href="#BitstreamVeraSans-Roman-20"/>
       <use x="379.296875" xlink:href="#BitstreamVeraSans-Roman-32"/>
       <use x="442.919921875" xlink:href="#BitstreamVeraSans-Roman-30"/>
       <use x="506.54296875" xlink:href="#BitstreamVeraSans-Roman-31"/>
       <use x="570.166015625" xlink:href="#BitstreamVeraSans-Roman-35"/>
      </g>
     </g>
    </g>
    <g id="xtick_9">
     <g id="line2d_19">
      <g>
       <use style="stroke:#000000;stroke-width:0.5;" x="1836.07004428" xlink:href="#m0c33f7cc35" y="648.0"/>
      </g>
     </g>
     <g id="line2d_20">
      <g>
       <use style="stroke:#000000;stroke-width:0.5;" x="1836.07004428" xlink:href="#m23b0f801f8" y="72.0"/>
      </g>
     </g>
     <g id="text_9">
      <!-- Sep 17 2015 -->
      <defs>
       <path d="M 8.203125 72.90625 
L 55.078125 72.90625 
L 55.078125 68.703125 
L 28.609375 0 
L 18.3125 0 
L 43.21875 64.59375 
L 8.203125 64.59375 
z
" id="BitstreamVeraSans-Roman-37"/>
      </defs>
      <g transform="translate(1798.04129428 661.118125)scale(0.12 -0.12)">
       <use xlink:href="#BitstreamVeraSans-Roman-53"/>
       <use x="63.4765625" xlink:href="#BitstreamVeraSans-Roman-65"/>
       <use x="125.0" xlink:href="#BitstreamVeraSans-Roman-70"/>
       <use x="188.4765625" xlink:href="#BitstreamVeraSans-Roman-20"/>
       <use x="220.263671875" xlink:href="#BitstreamVeraSans-Roman-31"/>
       <use x="283.88671875" xlink:href="#BitstreamVeraSans-Roman-37"/>
       <use x="347.509765625" xlink:href="#BitstreamVeraSans-Roman-20"/>
       <use x="379.296875" xlink:href="#BitstreamVeraSans-Roman-32"/>
       <use x="442.919921875" xlink:href="#BitstreamVeraSans-Roman-30"/>
       <use x="506.54296875" xlink:href="#BitstreamVeraSans-Roman-31"/>
       <use x="570.166015625" xlink:href="#BitstreamVeraSans-Roman-35"/>
      </g>
     </g>
    </g>
   </g>
   <g id="matplotlib.axis_2">
    <g id="ytick_1">
     <g id="line2d_21">
      <defs>
       <path d="M 0 0 
L 4 0 
" id="m7a73e29900" style="stroke:#000000;stroke-width:0.5;"/>
      </defs>
      <g>
       <use style="stroke:#000000;stroke-width:0.5;" x="270.0" xlink:href="#m7a73e29900" y="648.0"/>
      </g>
     </g>
     <g id="line2d_22">
      <defs>
       <path d="M 0 0 
L -4 0 
" id="m72692b8632" style="stroke:#000000;stroke-width:0.5;"/>
      </defs>
      <g>
       <use style="stroke:#000000;stroke-width:0.5;" x="1944.0" xlink:href="#m72692b8632" y="648.0"/>
      </g>
     </g>
     <g id="text_10">
      <!-- 0 -->
      <g transform="translate(258.365 651.31125)scale(0.12 -0.12)">
       <use xlink:href="#BitstreamVeraSans-Roman-30"/>
      </g>
     </g>
    </g>
    <g id="ytick_2">
     <g id="line2d_23">
      <g>
       <use style="stroke:#000000;stroke-width:0.5;" x="270.0" xlink:href="#m7a73e29900" y="584.0"/>
      </g>
     </g>
     <g id="line2d_24">
      <g>
       <use style="stroke:#000000;stroke-width:0.5;" x="1944.0" xlink:href="#m72692b8632" y="584.0"/>
      </g>
     </g>
     <g id="text_11">
      <!-- 10 -->
      <g transform="translate(250.73 587.31125)scale(0.12 -0.12)">
       <use xlink:href="#BitstreamVeraSans-Roman-31"/>
       <use x="63.623046875" xlink:href="#BitstreamVeraSans-Roman-30"/>
      </g>
     </g>
    </g>
    <g id="ytick_3">
     <g id="line2d_25">
      <g>
       <use style="stroke:#000000;stroke-width:0.5;" x="270.0" xlink:href="#m7a73e29900" y="520.0"/>
      </g>
     </g>
     <g id="line2d_26">
      <g>
       <use style="stroke:#000000;stroke-width:0.5;" x="1944.0" xlink:href="#m72692b8632" y="520.0"/>
      </g>
     </g>
     <g id="text_12">
      <!-- 20 -->
      <g transform="translate(250.73 523.31125)scale(0.12 -0.12)">
       <use xlink:href="#BitstreamVeraSans-Roman-32"/>
       <use x="63.623046875" xlink:href="#BitstreamVeraSans-Roman-30"/>
      </g>
     </g>
    </g>
    <g id="ytick_4">
     <g id="line2d_27">
      <g>
       <use style="stroke:#000000;stroke-width:0.5;" x="270.0" xlink:href="#m7a73e29900" y="456.0"/>
      </g>
     </g>
     <g id="line2d_28">
      <g>
       <use style="stroke:#000000;stroke-width:0.5;" x="1944.0" xlink:href="#m72692b8632" y="456.0"/>
      </g>
     </g>
     <g id="text_13">
      <!-- 30 -->
      <g transform="translate(250.73 459.31125)scale(0.12 -0.12)">
       <use xlink:href="#BitstreamVeraSans-Roman-33"/>
       <use x="63.623046875" xlink:href="#BitstreamVeraSans-Roman-30"/>
      </g>
     </g>
    </g>
    <g id="ytick_5">
     <g id="line2d_29">
      <g>
       <use style="stroke:#000000;stroke-width:0.5;" x="270.0" xlink:href="#m7a73e29900" y="392.0"/>
      </g>
     </g>
     <g id="line2d_30">
      <g>
       <use style="stroke:#000000;stroke-width:0.5;" x="1944.0" xlink:href="#m72692b8632" y="392.0"/>
      </g>
     </g>
     <g id="text_14">
      <!-- 40 -->
      <g transform="translate(250.73 395.31125)scale(0.12 -0.12)">
       <use xlink:href="#BitstreamVeraSans-Roman-34"/>
       <use x="63.623046875" xlink:href="#BitstreamVeraSans-Roman-30"/>
      </g>
     </g>
    </g>
    <g id="ytick_6">
     <g id="line2d_31">
      <g>
       <use style="stroke:#000000;stroke-width:0.5;" x="270.0" xlink:href="#m7a73e29900" y="328.0"/>
      </g>
     </g>
     <g id="line2d_32">
      <g>
       <use style="stroke:#000000;stroke-width:0.5;" x="1944.0" xlink:href="#m72692b8632" y="328.0"/>
      </g>
     </g>
     <g id="text_15">
      <!-- 50 -->
      <g transform="translate(250.73 331.31125)scale(0.12 -0.12)">
       <use xlink:href="#BitstreamVeraSans-Roman-35"/>
       <use x="63.623046875" xlink:href="#BitstreamVeraSans-Roman-30"/>
      </g>
     </g>
    </g>
    <g id="ytick_7">
     <g id="line2d_33">
      <g>
       <use style="stroke:#000000;stroke-width:0.5;" x="270.0" xlink:href="#m7a73e29900" y="264.0"/>
      </g>
     </g>
     <g id="line2d_34">
      <g>
       <use style="stroke:#000000;stroke-width:0.5;" x="1944.0" xlink:href="#m72692b8632" y="264.0"/>
      </g>
     </g>
     <g id="text_16">
      <!-- 60 -->
      <g transform="translate(250.73 267.31125)scale(0.12 -0.12)">
       <use xlink:href="#BitstreamVeraSans-Roman-36"/>
       <use x="63.623046875" xlink:href="#BitstreamVeraSans-Roman-30"/>
      </g>
     </g>
    </g>
    <g id="ytick_8">
     <g id="line2d_35">
      <g>
       <use style="stroke:#000000;stroke-width:0.5;" x="270.0" xlink:href="#m7a73e29900" y="200.0"/>
      </g>
     </g>
     <g id="line2d_36">
      <g>
       <use style="stroke:#000000;stroke-width:0.5;" x="1944.0" xlink:href="#m72692b8632" y="200.0"/>
      </g>
     </g>
     <g id="text_17">
      <!-- 70 -->
      <g transform="translate(250.73 203.31125)scale(0.12 -0.12)">
       <use xlink:href="#BitstreamVeraSans-Roman-37"/>
       <use x="63.623046875" xlink:href="#BitstreamVeraSans-Roman-30"/>
      </g>
     </g>
    </g>
    <g id="ytick_9">
     <g id="line2d_37">
      <g>
       <use style="stroke:#000000;stroke-width:0.5;" x="270.0" xlink:href="#m7a73e29900" y="136.0"/>
      </g>
     </g>
     <g id="line2d_38">
      <g>
       <use style="stroke:#000000;stroke-width:0.5;" x="1944.0" xlink:href="#m72692b8632" y="136.0"/>
      </g>
     </g>
     <g id="text_18">
      <!-- 80 -->
      <defs>
       <path d="M 31.78125 34.625 
Q 24.75 34.625 20.71875 30.859375 
Q 16.703125 27.09375 16.703125 20.515625 
Q 16.703125 13.921875 20.71875 10.15625 
Q 24.75 6.390625 31.78125 6.390625 
Q 38.8125 6.390625 42.859375 10.171875 
Q 46.921875 13.96875 46.921875 20.515625 
Q 46.921875 27.09375 42.890625 30.859375 
Q 38.875 34.625 31.78125 34.625 
M 21.921875 38.8125 
Q 15.578125 40.375 12.03125 44.71875 
Q 8.5 49.078125 8.5 55.328125 
Q 8.5 64.0625 14.71875 69.140625 
Q 20.953125 74.21875 31.78125 74.21875 
Q 42.671875 74.21875 48.875 69.140625 
Q 55.078125 64.0625 55.078125 55.328125 
Q 55.078125 49.078125 51.53125 44.71875 
Q 48 40.375 41.703125 38.8125 
Q 48.828125 37.15625 52.796875 32.3125 
Q 56.78125 27.484375 56.78125 20.515625 
Q 56.78125 9.90625 50.3125 4.234375 
Q 43.84375 -1.421875 31.78125 -1.421875 
Q 19.734375 -1.421875 13.25 4.234375 
Q 6.78125 9.90625 6.78125 20.515625 
Q 6.78125 27.484375 10.78125 32.3125 
Q 14.796875 37.15625 21.921875 38.8125 
M 18.3125 54.390625 
Q 18.3125 48.734375 21.84375 45.5625 
Q 25.390625 42.390625 31.78125 42.390625 
Q 38.140625 42.390625 41.71875 45.5625 
Q 45.3125 48.734375 45.3125 54.390625 
Q 45.3125 60.0625 41.71875 63.234375 
Q 38.140625 66.40625 31.78125 66.40625 
Q 25.390625 66.40625 21.84375 63.234375 
Q 18.3125 60.0625 18.3125 54.390625 
" id="BitstreamVeraSans-Roman-38"/>
      </defs>
      <g transform="translate(250.73 139.31125)scale(0.12 -0.12)">
       <use xlink:href="#BitstreamVeraSans-Roman-38"/>
       <use x="63.623046875" xlink:href="#BitstreamVeraSans-Roman-30"/>
      </g>
     </g>
    </g>
    <g id="ytick_10">
     <g id="line2d_39">
      <g>
       <use style="stroke:#000000;stroke-width:0.5;" x="270.0" xlink:href="#m7a73e29900" y="72.0"/>
      </g>
     </g>
     <g id="line2d_40">
      <g>
       <use style="stroke:#000000;stroke-width:0.5;" x="1944.0" xlink:href="#m72692b8632" y="72.0"/>
      </g>
     </g>
     <g id="text_19">
      <!-- 90 -->
      <g transform="translate(250.73 75.31125)scale(0.12 -0.12)">
       <use xlink:href="#BitstreamVeraSans-Roman-39"/>
       <use x="63.623046875" xlink:href="#BitstreamVeraSans-Roman-30"/>
      </g>
     </g>
    </g>
   </g>
  </g>
 </g>
 <defs>
  <clipPath id="p094f81307c">
   <rect height="576.0" width="1674.0" x="270.0" y="72.0"/>
  </clipPath>
 </defs>
</svg>
