<?xml version="1.0" encoding="utf-8" standalone="no"?>
<!DOCTYPE svg PUBLIC "-//W3C//DTD SVG 1.1//EN"
  "http://www.w3.org/Graphics/SVG/1.1/DTD/svg11.dtd">
<!-- Created with matplotlib (http://matplotlib.org/) -->
<svg height="720pt" version="1.1" viewBox="0 0 2160 720" width="2160pt" xmlns="http://www.w3.org/2000/svg" xmlns:xlink="http://www.w3.org/1999/xlink">
 <defs>
  <style type="text/css">
*{stroke-linecap:butt;stroke-linejoin:round;stroke-miterlimit:100000;}
  </style>
 </defs>
 <g id="figure_1">
  <g id="patch_1">
   <path d="M 0 720 
L 2160 720 
L 2160 0 
L 0 0 
z
" style="fill:#ffffff;"/>
  </g>
  <g id="axes_1">
   <g id="patch_2">
    <path d="M 270 648 
L 1944 648 
L 1944 72 
L 270 72 
z
" style="fill:#ffffff;"/>
   </g>
   <g id="line2d_1">
    <path clip-path="url(#p405efa311f)" d="M 270 200 
L 270.687136 264 
L 272.404975 238.4 
L 273.092111 174.4 
L 273.435679 200 
L 273.779246 193.6 
L 275.840653 379.2 
L 277.558493 161.6 
L 278.589196 296 
L 279.6199 238.4 
L 279.963468 225.6 
L 280.307036 180.8 
L 282.368443 334.4 
L 282.712011 212.8 
L 283.055578 321.6 
L 284.086282 302.4 
L 284.773418 340.8 
L 285.460553 212.8 
L 286.147689 321.6 
L 286.491257 219.2 
L 286.834825 251.2 
L 291.644775 340.8 
L 293.019046 308.8 
L 293.706182 334.4 
L 294.393317 500.8 
L 294.736885 475.2 
L 296.454725 308.8 
L 297.828996 244.8 
L 299.546835 219.2 
L 300.921107 283.2 
L 302.982514 264 
L 304.013217 334.4 
L 304.700353 372.8 
L 305.731057 276.8 
L 307.448896 353.6 
L 308.823167 315.2 
L 309.166735 430.4 
L 310.197439 251.2 
L 311.57171 187.2 
L 312.258846 372.8 
L 313.289549 334.4 
L 313.976685 155.2 
L 314.663821 232 
L 315.213529 225.6 
L 315.557097 238.4 
L 315.900665 212.8 
L 316.587801 276.8 
L 316.931369 212.8 
L 317.274936 264 
L 318.649208 296 
L 318.992776 212.8 
L 319.336343 334.4 
L 319.679911 238.4 
L 320.023479 289.6 
L 320.367047 238.4 
L 320.710615 219.2 
L 321.054183 219.2 
L 321.397751 347.2 
L 321.741318 379.2 
L 322.084886 238.4 
L 322.428454 206.4 
L 322.772022 257.6 
L 323.11559 238.4 
L 323.459158 232 
L 323.802726 206.4 
L 324.146293 257.6 
L 324.833429 193.6 
L 325.176997 251.2 
L 325.520565 174.4 
L 325.864133 232 
L 326.207701 123.2 
L 326.551268 289.6 
L 326.894836 225.6 
L 327.238404 219.2 
L 328.269108 244.8 
L 328.612675 180.8 
L 329.299811 264 
L 329.643379 219.2 
L 329.986947 296 
L 330.330515 296 
L 330.674083 340.8 
L 331.01765 174.4 
L 331.361218 283.2 
L 331.704786 251.2 
L 332.048354 174.4 
L 332.391922 276.8 
L 333.766193 238.4 
L 334.796897 251.2 
L 335.140465 136 
L 335.8276 340.8 
L 336.858304 257.6 
L 337.54544 180.8 
L 337.889007 193.6 
L 338.232575 276.8 
L 338.50743 283.2 
L 338.919711 232 
L 339.263279 238.4 
L 339.606847 315.2 
L 340.293982 404.8 
L 340.63755 264 
L 341.668254 353.6 
L 342.011822 225.6 
L 342.35539 302.4 
L 342.698957 225.6 
L 343.042525 321.6 
L 343.386093 219.2 
L 344.416797 308.8 
L 345.4475 289.6 
L 345.791068 353.6 
L 346.478204 340.8 
L 346.821772 225.6 
L 347.508907 200 
L 348.196043 244.8 
L 349.226747 296 
L 349.570314 238.4 
L 349.913882 212.8 
L 350.25745 232 
L 350.601018 187.2 
L 350.944586 174.4 
L 351.288154 187.2 
L 352.318857 283.2 
L 352.662425 180.8 
L 353.349561 283.2 
L 353.693129 308.8 
L 354.036697 212.8 
L 354.380264 289.6 
L 354.723832 180.8 
L 356.441671 289.6 
L 364.343732 219.2 
L 365.030868 200 
L 365.374436 193.6 
L 365.718003 123.2 
L 366.405139 296 
L 367.092275 340.8 
L 368.122978 257.6 
L 370.527953 180.8 
L 370.871521 180.8 
L 371.558657 238.4 
L 371.902225 219.2 
L 372.245793 264 
L 372.932928 225.6 
L 373.276496 347.2 
L 373.620064 174.4 
L 374.3072 270.4 
L 375.337903 328 
L 375.681471 251.2 
L 376.368607 212.8 
L 377.055743 232 
L 377.39931 315.2 
L 377.742878 276.8 
L 378.773582 270.4 
L 379.460718 264 
L 380.147853 360 
L 381.522125 264 
L 382.552828 334.4 
L 385.988507 193.6 
L 386.332075 155.2 
L 386.675642 174.4 
L 387.01921 161.6 
L 388.118627 283.2 
L 388.393482 270.4 
L 388.73705 276.8 
L 389.424185 321.6 
L 390.798457 212.8 
L 392.172728 289.6 
L 392.516296 321.6 
L 393.203432 366.4 
L 393.546999 353.6 
L 394.577703 302.4 
L 396.295542 328 
L 398.700517 296 
L 401.105492 270.4 
L 402.136196 321.6 
L 403.166899 302.4 
L 405.228306 148.8 
L 406.946146 187.2 
L 409.694688 353.6 
L 410.038256 347.2 
L 410.381824 398.4 
L 411.06896 200 
L 412.099663 321.6 
L 412.786799 219.2 
L 413.130367 206.4 
L 413.817503 270.4 
L 414.161071 283.2 
L 414.504638 238.4 
L 414.848206 238.4 
L 415.87891 180.8 
L 416.222478 244.8 
L 416.566045 212.8 
L 416.909613 200 
L 417.253181 206.4 
L 417.596749 238.4 
L 417.940317 212.8 
L 418.283885 168 
L 418.97102 270.4 
L 419.314588 206.4 
L 419.658156 270.4 
L 420.001724 296 
L 420.345292 238.4 
L 420.68886 244.8 
L 421.375995 366.4 
L 421.719563 296 
L 422.063131 315.2 
L 422.406699 212.8 
L 422.750267 289.6 
L 423.093835 308.8 
L 423.437403 225.6 
L 423.78097 219.2 
L 424.124538 219.2 
L 424.468106 244.8 
L 424.811674 212.8 
L 425.155242 232 
L 425.49881 244.8 
L 425.842377 225.6 
L 426.185945 238.4 
L 426.529513 315.2 
L 427.560217 225.6 
L 428.247352 334.4 
L 428.59092 411.2 
L 428.934488 244.8 
L 429.278056 200 
L 429.965192 372.8 
L 430.652327 232 
L 431.339463 308.8 
L 431.683031 244.8 
L 432.026599 302.4 
L 432.713735 347.2 
L 433.057302 206.4 
L 433.40087 206.4 
L 434.088006 257.6 
L 434.431574 206.4 
L 434.775142 296 
L 435.118709 283.2 
L 435.462277 347.2 
L 435.805845 200 
L 436.149413 212.8 
L 436.492981 161.6 
L 436.836549 270.4 
L 437.523684 206.4 
L 438.554388 180.8 
L 438.897956 315.2 
L 439.241524 180.8 
L 439.585092 315.2 
L 439.928659 289.6 
L 441.646499 225.6 
L 441.990066 276.8 
L 442.333634 206.4 
L 442.677202 296 
L 443.364338 219.2 
L 444.051474 244.8 
L 444.395041 283.2 
L 444.738609 187.2 
L 445.082177 251.2 
L 446.112881 251.2 
L 446.456449 238.4 
L 446.800016 296 
L 447.143584 270.4 
L 447.487152 315.2 
L 447.83072 161.6 
L 448.174288 296 
L 448.517856 353.6 
L 448.861424 206.4 
L 449.204991 302.4 
L 449.548559 219.2 
L 450.235695 257.6 
L 450.922831 200 
L 451.266398 270.4 
L 451.609966 251.2 
L 451.953534 180.8 
L 452.297102 321.6 
L 453.671373 155.2 
L 454.358509 257.6 
L 454.702077 232 
L 455.045645 276.8 
L 455.389213 276.8 
L 455.732781 328 
L 456.076348 142.4 
L 456.419916 232 
L 456.763484 148.8 
L 457.107052 251.2 
L 457.45062 302.4 
L 458.481323 238.4 
L 459.168459 180.8 
L 459.512027 200 
L 459.855595 193.6 
L 460.199163 283.2 
L 461.573434 244.8 
L 461.917002 264 
L 462.26057 238.4 
L 462.947705 276.8 
L 463.634841 264 
L 464.665545 308.8 
L 465.35268 264 
L 466.726952 251.2 
L 467.07052 270.4 
L 467.414088 340.8 
L 467.757655 296 
L 468.444791 174.4 
L 468.788359 289.6 
L 469.475495 180.8 
L 469.819062 283.2 
L 470.849766 212.8 
L 471.193334 148.8 
L 471.536902 257.6 
L 471.949183 276.8 
L 472.292751 257.6 
L 473.667022 219.2 
L 474.354158 174.4 
L 475.384862 193.6 
L 477.789837 257.6 
L 478.476972 232 
L 478.751827 180.8 
L 480.194812 257.6 
L 480.881947 315.2 
L 481.225515 193.6 
L 481.912651 315.2 
L 482.256219 315.2 
L 483.63049 251.2 
L 484.317626 302.4 
L 485.348329 206.4 
L 485.691897 296 
L 486.379033 302.4 
L 490.501847 251.2 
L 491.188983 308.8 
L 491.876119 379.2 
L 492.563254 353.6 
L 493.593958 321.6 
L 494.624661 187.2 
L 496.686068 340.8 
L 497.029636 308.8 
L 498.747476 270.4 
L 499.091043 270.4 
L 499.434611 289.6 
L 500.121747 264 
L 500.465315 270.4 
L 500.808883 244.8 
L 504.244561 308.8 
L 504.931697 366.4 
L 505.275265 366.4 
L 506.649536 308.8 
L 506.993104 321.6 
L 508.023808 347.2 
L 508.367375 302.4 
L 508.710943 238.4 
L 510.085215 200 
L 511.459486 340.8 
L 512.146622 187.2 
L 512.49019 219.2 
L 513.177325 321.6 
L 513.520893 200 
L 513.864461 212.8 
L 514.208029 180.8 
L 514.551597 193.6 
L 514.895165 180.8 
L 515.238732 244.8 
L 515.5823 251.2 
L 515.925868 206.4 
L 516.269436 225.6 
L 516.613004 212.8 
L 516.956572 264 
L 517.30014 155.2 
L 517.643707 174.4 
L 518.330843 225.6 
L 518.674411 180.8 
L 519.017979 225.6 
L 519.361547 206.4 
L 519.705115 347.2 
L 520.048682 174.4 
L 520.39225 206.4 
L 520.735818 225.6 
L 521.079386 251.2 
L 521.422954 264 
L 521.766522 193.6 
L 522.453657 206.4 
L 523.140793 302.4 
L 523.484361 174.4 
L 523.827929 289.6 
L 524.171497 212.8 
L 524.858632 187.2 
L 525.2022 276.8 
L 525.545768 276.8 
L 525.889336 296 
L 526.232904 321.6 
L 526.920039 200 
L 527.263607 219.2 
L 527.950743 174.4 
L 528.294311 283.2 
L 528.637879 251.2 
L 529.325014 219.2 
L 529.668582 321.6 
L 530.01215 270.4 
L 530.355718 174.4 
L 530.699286 148.8 
L 531.042854 244.8 
L 532.073557 328 
L 532.417125 283.2 
L 532.760693 308.8 
L 533.104261 244.8 
L 533.447829 206.4 
L 534.134964 392 
L 534.478532 308.8 
L 534.8221 193.6 
L 535.165668 264 
L 535.509236 251.2 
L 535.852804 161.6 
L 536.539939 270.4 
L 536.883507 251.2 
L 537.570643 238.4 
L 537.914211 302.4 
L 538.257779 212.8 
L 538.944914 225.6 
L 539.63205 174.4 
L 540.662753 308.8 
L 541.006321 244.8 
L 541.349889 289.6 
L 541.693457 276.8 
L 542.037025 289.6 
L 542.724161 187.2 
L 543.411296 244.8 
L 543.754864 289.6 
L 544.098432 276.8 
L 544.442 155.2 
L 545.129136 334.4 
L 545.472703 321.6 
L 546.159839 187.2 
L 546.503407 193.6 
L 546.846975 187.2 
L 547.534111 283.2 
L 547.877678 238.4 
L 548.908382 257.6 
L 549.25195 379.2 
L 549.595518 244.8 
L 549.939085 251.2 
L 550.282653 161.6 
L 550.626221 161.6 
L 550.969789 206.4 
L 551.656925 123.2 
L 552.000493 206.4 
L 552.687628 251.2 
L 553.031196 264 
L 553.374764 219.2 
L 553.718332 232 
L 554.0619 321.6 
L 554.405468 308.8 
L 554.749035 315.2 
L 555.092603 174.4 
L 555.436171 308.8 
L 555.779739 244.8 
L 556.123307 206.4 
L 556.466875 244.8 
L 556.810442 193.6 
L 557.497578 193.6 
L 559.215417 315.2 
L 559.558985 251.2 
L 559.902553 321.6 
L 560.246121 264 
L 560.933257 219.2 
L 561.276825 257.6 
L 561.620392 155.2 
L 561.96396 238.4 
L 562.307528 212.8 
L 562.651096 225.6 
L 562.994664 257.6 
L 563.6818 193.6 
L 564.025367 270.4 
L 564.712503 142.4 
L 565.056071 187.2 
L 565.399639 257.6 
L 566.086774 232 
L 566.430342 251.2 
L 566.77391 276.8 
L 567.804614 219.2 
L 568.148182 328 
L 568.835317 238.4 
L 569.866021 232 
L 570.209589 276.8 
L 570.896724 193.6 
L 571.240292 270.4 
L 573.713981 219.2 
L 574.401116 302.4 
L 574.744684 200 
L 575.088252 257.6 
L 575.43182 206.4 
L 577.493227 148.8 
L 577.836795 257.6 
L 580.585338 283.2 
L 581.959609 193.6 
L 583.333881 219.2 
L 583.677448 244.8 
L 587.456695 360 
L 587.800263 219.2 
L 588.143831 315.2 
L 588.830966 168 
L 589.86167 225.6 
L 590.205238 264 
L 590.548806 379.2 
L 591.579509 315.2 
L 591.923077 276.8 
L 592.95378 302.4 
L 594.67162 238.4 
L 596.045891 212.8 
L 600.168705 315.2 
L 601.886545 321.6 
L 602.230112 315.2 
L 603.260816 308.8 
L 604.29152 257.6 
L 606.696495 257.6 
L 608.070766 187.2 
L 609.10147 270.4 
L 610.132173 168 
L 611.506444 289.6 
L 611.850012 251.2 
L 612.19358 283.2 
L 612.880716 270.4 
L 613.224284 219.2 
L 613.567852 219.2 
L 613.911419 238.4 
L 614.254987 225.6 
L 614.598555 238.4 
L 615.285691 270.4 
L 615.629259 244.8 
L 615.972827 251.2 
L 616.316394 251.2 
L 616.659962 232 
L 617.00353 244.8 
L 617.347098 238.4 
L 617.690666 238.4 
L 618.034234 244.8 
L 618.721369 315.2 
L 619.064937 212.8 
L 619.408505 257.6 
L 619.752073 225.6 
L 620.439209 180.8 
L 620.782776 276.8 
L 621.126344 264 
L 621.469912 168 
L 622.157048 264 
L 622.500616 200 
L 622.844184 200 
L 623.187751 251.2 
L 623.531319 136 
L 623.874887 276.8 
L 624.218455 321.6 
L 624.562023 225.6 
L 624.905591 296 
L 625.249159 270.4 
L 625.592726 200 
L 626.62343 264 
L 626.966998 225.6 
L 627.997701 257.6 
L 628.341269 244.8 
L 629.371973 308.8 
L 630.059108 257.6 
L 630.402676 283.2 
L 630.746244 238.4 
L 631.089812 347.2 
L 632.120516 200 
L 632.464083 257.6 
L 632.807651 225.6 
L 633.151219 206.4 
L 633.494787 155.2 
L 633.838355 257.6 
L 634.181923 251.2 
L 634.525491 193.6 
L 635.212626 283.2 
L 635.556194 264 
L 635.899762 200 
L 636.586898 244.8 
L 637.274033 257.6 
L 637.617601 142.4 
L 637.961169 219.2 
L 638.304737 347.2 
L 638.648305 238.4 
L 638.991873 238.4 
L 639.33544 257.6 
L 640.366144 219.2 
L 641.396848 276.8 
L 641.740415 212.8 
L 642.083983 308.8 
L 642.427551 136 
L 643.114687 238.4 
L 643.458255 187.2 
L 643.801823 212.8 
L 644.488958 232 
L 644.832526 276.8 
L 646.206797 180.8 
L 646.893933 232 
L 647.237501 187.2 
L 647.581069 289.6 
L 647.924637 193.6 
L 648.268205 206.4 
L 648.611772 251.2 
L 648.95534 193.6 
L 649.298908 238.4 
L 649.642476 244.8 
L 649.986044 308.8 
L 650.67318 161.6 
L 651.016747 276.8 
L 651.360315 283.2 
L 652.047451 251.2 
L 653.078155 251.2 
L 653.421722 264 
L 654.108858 193.6 
L 654.795994 219.2 
L 655.139562 187.2 
L 655.483129 200 
L 656.170265 180.8 
L 656.857401 232 
L 657.200969 161.6 
L 657.888104 264 
L 658.231672 232 
L 658.918808 244.8 
L 659.262376 302.4 
L 659.605944 232 
L 659.949512 289.6 
L 660.293079 193.6 
L 660.636647 155.2 
L 660.980215 168 
L 661.323783 244.8 
L 661.667351 193.6 
L 662.010919 193.6 
L 662.354486 174.4 
L 662.698054 238.4 
L 663.041622 155.2 
L 663.38519 161.6 
L 664.415894 206.4 
L 664.759461 161.6 
L 665.103029 244.8 
L 665.446597 270.4 
L 665.790165 238.4 
L 666.133733 289.6 
L 666.477301 200 
L 666.820869 180.8 
L 667.508004 270.4 
L 667.851572 155.2 
L 668.19514 251.2 
L 668.538708 219.2 
L 668.882276 257.6 
L 669.225844 219.2 
L 669.912979 276.8 
L 670.256547 276.8 
L 670.600115 264 
L 671.287251 264 
L 671.630818 180.8 
L 672.317954 302.4 
L 672.661522 238.4 
L 673.348658 264 
L 673.692226 244.8 
L 674.104507 212.8 
L 674.448075 142.4 
L 674.791643 270.4 
L 675.135211 238.4 
L 675.822346 321.6 
L 676.165914 142.4 
L 676.85305 270.4 
L 677.540186 206.4 
L 677.883753 244.8 
L 679.258025 148.8 
L 680.288728 257.6 
L 681.319432 276.8 
L 681.663 206.4 
L 682.350135 264 
L 683.58698 187.2 
L 1030.453083 174.4 
L 1031.140218 264 
L 1031.483786 232 
L 1031.827354 187.2 
L 1032.170922 328 
L 1032.51449 244.8 
L 1033.201625 347.2 
L 1033.545193 148.8 
L 1033.888761 206.4 
L 1034.575897 123.2 
L 1035.263033 225.6 
L 1036.293736 276.8 
L 1036.637304 238.4 
L 1036.980872 180.8 
L 1037.187013 219.2 
L 1037.805435 219.2 
L 1038.49257 283.2 
L 1038.836138 244.8 
L 1039.179706 264 
L 1039.523274 187.2 
L 1039.866842 193.6 
L 1040.553978 200 
L 1041.241113 232 
L 1041.928249 257.6 
L 1042.271817 302.4 
L 1042.615385 206.4 
L 1042.958952 264 
L 1043.30252 296 
L 1043.577375 244.8 
L 1043.989656 257.6 
L 1044.333224 238.4 
L 1045.02036 206.4 
L 1045.707495 168 
L 1046.051063 193.6 
L 1046.394631 385.6 
L 1047.081767 193.6 
L 1047.425335 212.8 
L 1047.768902 302.4 
L 1048.11247 193.6 
L 1048.456038 238.4 
L 1048.799606 193.6 
L 1049.486742 257.6 
L 1049.692882 206.4 
L 1050.517445 257.6 
L 1052.853707 187.2 
L 1053.953124 296 
L 1054.296692 200 
L 1054.640259 187.2 
L 1054.983827 315.2 
L 1055.670963 187.2 
L 1056.358099 97.6 
L 1056.701667 180.8 
L 1057.388802 174.4 
L 1057.73237 206.4 
L 1058.075938 180.8 
L 1058.419506 296 
L 1059.106641 251.2 
L 1059.450209 276.8 
L 1059.793777 238.4 
L 1061.855184 187.2 
L 1062.198752 276.8 
L 1062.54232 302.4 
L 1062.885888 168 
L 1063.229456 212.8 
L 1063.916591 340.8 
L 1064.260159 302.4 
L 1064.603727 296 
L 1065.290863 257.6 
L 1065.977999 251.2 
L 1066.665134 187.2 
L 1067.008702 347.2 
L 1067.35227 232 
L 1067.695838 219.2 
L 1068.726541 321.6 
L 1069.070109 257.6 
L 1070.100813 264 
L 1070.787948 212.8 
L 1071.131516 155.2 
L 1071.475084 379.2 
L 1072.16222 219.2 
L 1072.849356 187.2 
L 1073.536491 372.8 
L 1073.880059 225.6 
L 1075.597898 283.2 
L 1075.941466 283.2 
L 1076.285034 251.2 
L 1076.97217 200 
L 1077.384451 180.8 
L 1078.346441 289.6 
L 1079.033577 302.4 
L 1080.06428 276.8 
L 1080.407848 244.8 
L 1084.530663 296 
L 1086.59207 257.6 
L 1089.68418 219.2 
L 1092.432723 321.6 
L 1097.929809 206.4 
L 1109.817256 238.4 
L 1116.001478 225.6 
L 1123.285116 187.2 
L 1125.209096 168 
L 1125.552664 219.2 
L 1125.896232 200 
L 1126.583368 244.8 
L 1127.270503 225.6 
L 1127.614071 244.8 
L 1128.301207 276.8 
L 1128.988343 328 
L 1129.675478 334.4 
L 1130.019046 302.4 
L 1130.706182 289.6 
L 1131.393317 334.4 
L 1131.736885 283.2 
L 1132.767589 257.6 
L 1133.111157 257.6 
L 1133.454725 212.8 
L 1134.14186 232 
L 1135.172564 257.6 
L 1135.8597 161.6 
L 1136.203267 187.2 
L 1137.233971 251.2 
L 1137.921107 219.2 
L 1138.264674 283.2 
L 1138.608242 193.6 
L 1139.295378 193.6 
L 1139.638946 289.6 
L 1139.982514 155.2 
L 1141.013217 206.4 
L 1141.700353 296 
L 1142.043921 193.6 
L 1143.418192 296 
L 1143.76176 200 
L 1144.105328 340.8 
L 1144.792464 174.4 
L 1145.479599 180.8 
L 1146.853871 321.6 
L 1147.197439 276.8 
L 1147.541006 276.8 
L 1147.884574 225.6 
L 1148.228142 276.8 
L 1148.57171 264 
L 1148.915278 238.4 
L 1149.602414 200 
L 1149.945981 257.6 
L 1150.633117 296 
L 1150.976685 148.8 
L 1151.320253 225.6 
L 1152.350956 187.2 
L 1152.694524 200 
L 1153.38166 264 
L 1153.725228 174.4 
L 1154.068796 276.8 
L 1154.412364 296 
L 1154.755931 270.4 
L 1155.443067 289.6 
L 1155.786635 225.6 
L 1156.130203 264 
L 1156.473771 219.2 
L 1158.19161 302.4 
L 1158.878746 302.4 
L 1159.222313 270.4 
L 1159.565881 264 
L 1160.253017 244.8 
L 1160.596585 136 
L 1160.940153 276.8 
L 1161.970856 276.8 
L 1162.314424 206.4 
L 1162.657992 257.6 
L 1163.345128 270.4 
L 1164.375831 187.2 
L 1165.406535 276.8 
L 1165.750103 232 
L 1166.09367 283.2 
L 1166.437238 212.8 
L 1167.467942 276.8 
L 1167.81151 244.8 
L 1168.155078 340.8 
L 1168.498645 340.8 
L 1169.529349 244.8 
L 1169.872917 257.6 
L 1170.560053 244.8 
L 1171.247188 174.4 
L 1171.590756 251.2 
L 1171.934324 366.4 
L 1172.277892 283.2 
L 1172.62146 276.8 
L 1173.652163 385.6 
L 1173.995731 264 
L 1174.339299 411.2 
L 1174.682867 264 
L 1175.71357 308.8 
L 1176.057138 270.4 
L 1176.400706 360 
L 1177.087842 372.8 
L 1177.43141 340.8 
L 1178.118545 315.2 
L 1178.324686 340.8 
L 1178.668254 289.6 
L 1184.302767 244.8 
L 1185.33347 257.6 
L 1186.364174 340.8 
L 1187.394877 340.8 
L 1187.738445 398.4 
L 1188.082013 411.2 
L 1188.425581 411.2 
L 1188.769149 372.8 
L 1190.486988 308.8 
L 1191.861259 289.6 
L 1192.548395 283.2 
L 1193.235531 334.4 
L 1193.579099 308.8 
L 1193.922666 328 
L 1206.291109 200 
L 1206.634677 232 
L 1206.978245 244.8 
L 1207.45924 276.8 
L 1216.735572 232 
L 1217.628848 283.2 
L 1217.972416 193.6 
L 1218.315984 212.8 
L 1219.00312 187.2 
L 1219.690255 168 
L 1220.033823 302.4 
L 1220.377391 174.4 
L 1220.720959 404.8 
L 1221.064527 212.8 
L 1221.408095 219.2 
L 1221.751662 251.2 
L 1222.09523 232 
L 1222.782366 321.6 
L 1223.125934 225.6 
L 1223.469502 270.4 
L 1223.81307 276.8 
L 1224.156637 225.6 
L 1224.431492 257.6 
L 1225.118627 302.4 
L 1225.462195 283.2 
L 1226.149331 148.8 
L 1226.492899 148.8 
L 1226.836467 334.4 
L 1227.86717 232 
L 1228.210738 232 
L 1228.554306 212.8 
L 1228.897874 360 
L 1229.585009 155.2 
L 1229.928577 200 
L 1230.615713 200 
L 1231.302849 168 
L 1231.989984 289.6 
L 1232.333552 276.8 
L 1233.020688 270.4 
L 1233.364256 270.4 
L 1234.051392 257.6 
L 1234.394959 257.6 
L 1234.738527 283.2 
L 1237.143502 219.2 
L 1237.48707 200 
L 1237.830638 257.6 
L 1238.174206 168 
L 1238.517774 219.2 
L 1239.204909 276.8 
L 1240.235613 232 
L 1240.579181 232 
L 1241.266316 212.8 
L 1241.609884 174.4 
L 1242.29702 296 
L 1244.014859 302.4 
L 1244.358427 232 
L 1244.701995 257.6 
L 1245.389131 264 
L 1245.732698 225.6 
L 1246.076266 238.4 
L 1246.419834 168 
L 1247.10697 225.6 
L 1247.450538 200 
L 1247.794106 187.2 
L 1248.137673 193.6 
L 1248.481241 251.2 
L 1248.824809 232 
L 1249.168377 315.2 
L 1249.511945 200 
L 1249.855513 296 
L 1250.542648 200 
L 1250.886216 283.2 
L 1251.573352 232 
L 1252.260488 283.2 
L 1252.604055 206.4 
L 1252.947623 193.6 
L 1253.634759 238.4 
L 1253.978327 219.2 
L 1255.00903 238.4 
L 1255.352598 360 
L 1255.696166 276.8 
L 1256.383302 142.4 
L 1256.72687 296 
L 1257.070438 270.4 
L 1257.414005 212.8 
L 1258.101141 225.6 
L 1258.444709 225.6 
L 1258.788277 296 
L 1259.131845 219.2 
L 1259.475413 219.2 
L 1259.81898 283.2 
L 1260.162548 193.6 
L 1260.849684 257.6 
L 1261.193252 276.8 
L 1262.223955 315.2 
L 1262.567523 270.4 
L 1263.254659 238.4 
L 1263.941795 340.8 
L 1264.62893 328 
L 1265.316066 200 
L 1265.659634 225.6 
L 1266.34677 251.2 
L 1267.033905 193.6 
L 1268.408177 270.4 
L 1269.164026 257.6 
L 1269.43888 276.8 
L 1270.126016 238.4 
L 1270.813152 174.4 
L 1271.156719 257.6 
L 1271.500287 270.4 
L 1272.530991 244.8 
L 1272.874559 187.2 
L 1273.218127 206.4 
L 1273.561694 270.4 
L 1275.279534 257.6 
L 1276.310237 187.2 
L 1276.653805 200 
L 1276.997373 276.8 
L 1277.684509 232 
L 1278.371644 174.4 
L 1279.05878 315.2 
L 1281.120187 276.8 
L 1281.463755 321.6 
L 1282.494459 360 
L 1282.838026 366.4 
L 1284.212298 334.4 
L 1287.304409 238.4 
L 1287.991544 283.2 
L 1289.022248 321.6 
L 1289.709383 315.2 
L 1291.770791 264 
L 1292.457926 283.2 
L 1293.145062 328 
L 1294.862901 257.6 
L 1295.893605 232 
L 1296.924308 238.4 
L 1297.267876 225.6 
L 1298.29858 289.6 
L 1299.672851 244.8 
L 1300.016419 244.8 
L 1300.359987 289.6 
L 1301.047123 257.6 
L 1302.421394 308.8 
L 1302.764962 257.6 
L 1304.482801 168 
L 1304.826369 206.4 
L 1305.513505 232 
L 1305.857073 219.2 
L 1306.20064 161.6 
L 1306.887776 212.8 
L 1307.231344 270.4 
L 1307.574912 244.8 
L 1307.91848 206.4 
L 1308.262047 200 
L 1308.605615 206.4 
L 1308.949183 257.6 
L 1309.292751 206.4 
L 1309.636319 219.2 
L 1309.979887 180.8 
L 1310.323455 270.4 
L 1310.667022 257.6 
L 1311.01059 251.2 
L 1311.354158 225.6 
L 1311.697726 225.6 
L 1312.041294 353.6 
L 1312.384862 283.2 
L 1312.72843 257.6 
L 1313.071997 270.4 
L 1313.415565 232 
L 1313.759133 251.2 
L 1314.102701 257.6 
L 1314.446269 200 
L 1314.789837 347.2 
L 1315.476972 238.4 
L 1316.164108 302.4 
L 1316.507676 296 
L 1316.851244 225.6 
L 1317.194812 296 
L 1317.538379 296 
L 1317.881947 276.8 
L 1318.225515 238.4 
L 1318.912651 238.4 
L 1319.256219 264 
L 1319.599787 219.2 
L 1319.943354 219.2 
L 1320.63049 296 
L 1320.974058 257.6 
L 1321.317626 283.2 
L 1321.661194 142.4 
L 1322.004762 283.2 
L 1322.348329 225.6 
L 1322.691897 366.4 
L 1324.066169 308.8 
L 1324.409736 244.8 
L 1325.096872 315.2 
L 1326.265003 225.6 
L 1326.952139 225.6 
L 1327.295706 219.2 
L 1327.639274 200 
L 1327.982842 232 
L 1328.32641 251.2 
L 1328.669978 264 
L 1329.013546 180.8 
L 1329.700681 289.6 
L 1330.044249 244.8 
L 1330.387817 219.2 
L 1330.731385 257.6 
L 1331.074953 264 
L 1331.418521 244.8 
L 1331.762089 212.8 
L 1332.105656 308.8 
L 1332.449224 372.8 
L 1332.792792 289.6 
L 1333.13636 264 
L 1333.479928 251.2 
L 1333.823496 315.2 
L 1334.167063 257.6 
L 1334.510631 219.2 
L 1335.197767 244.8 
L 1335.541335 244.8 
L 1335.884903 193.6 
L 1336.228471 257.6 
L 1336.572038 289.6 
L 1336.915606 206.4 
L 1337.602742 225.6 
L 1337.94631 193.6 
L 1338.289878 296 
L 1338.633446 296 
L 1338.977013 206.4 
L 1339.320581 200 
L 1339.664149 276.8 
L 1340.007717 225.6 
L 1340.694853 296 
L 1341.03842 276.8 
L 1341.381988 238.4 
L 1341.725556 283.2 
L 1342.069124 212.8 
L 1342.412692 334.4 
L 1342.75626 276.8 
L 1343.099828 257.6 
L 1343.443395 206.4 
L 1343.786963 251.2 
L 1344.130531 334.4 
L 1344.474099 289.6 
L 1344.817667 206.4 
L 1345.84837 276.8 
L 1346.191938 193.6 
L 1346.535506 296 
L 1346.879074 225.6 
L 1347.222642 187.2 
L 1347.56621 232 
L 1347.909778 232 
L 1348.253345 302.4 
L 1348.596913 251.2 
L 1349.284049 372.8 
L 1349.627617 238.4 
L 1349.971185 232 
L 1350.314752 200 
L 1350.65832 436.8 
L 1351.001888 251.2 
L 1351.345456 264 
L 1351.689024 187.2 
L 1352.032592 264 
L 1352.37616 270.4 
L 1352.719727 244.8 
L 1353.063295 283.2 
L 1353.406863 270.4 
L 1353.750431 289.6 
L 1354.093999 206.4 
L 1354.437567 232 
L 1354.781135 193.6 
L 1355.124702 283.2 
L 1355.46827 238.4 
L 1355.811838 257.6 
L 1356.155406 232 
L 1356.498974 174.4 
L 1356.842542 264 
L 1357.18611 219.2 
L 1357.667105 264 
L 1358.010672 270.4 
L 1358.35424 321.6 
L 1358.697808 238.4 
L 1359.041376 232 
L 1359.728512 155.2 
L 1360.072079 270.4 
L 1360.415647 206.4 
L 1360.759215 283.2 
L 1361.102783 257.6 
L 1361.446351 251.2 
L 1361.789919 308.8 
L 1362.477054 200 
L 1363.16419 206.4 
L 1363.851326 180.8 
L 1364.194894 225.6 
L 1364.538462 296 
L 1365.912733 283.2 
L 1366.943437 187.2 
L 1367.287004 360 
L 1367.630572 238.4 
L 1367.97414 174.4 
L 1368.317708 321.6 
L 1368.661276 328 
L 1369.004844 232 
L 1369.348411 180.8 
L 1369.691979 180.8 
L 1370.722683 238.4 
L 1371.066251 289.6 
L 1371.753386 168 
L 1372.440522 200 
L 1372.78409 315.2 
L 1373.814794 244.8 
L 1374.158361 283.2 
L 1374.845497 244.8 
L 1376.219768 264 
L 1376.563336 289.6 
L 1377.250472 238.4 
L 1377.59404 251.2 
L 1378.281176 283.2 
L 1378.624743 334.4 
L 1379.999015 225.6 
L 1380.342583 136 
L 1382.40399 321.6 
L 1383.434693 379.2 
L 1383.778261 315.2 
L 1384.808965 417.6 
L 1385.152533 424 
L 1385.839668 340.8 
L 1387.557508 168 
L 1387.901075 174.4 
L 1391.336754 328 
L 1393.741729 276.8 
L 1397.177407 187.2 
L 1398.551679 200 
L 1400.613086 328 
L 1400.956654 315.2 
L 1401.643789 308.8 
L 1402.674493 238.4 
L 1403.705197 264 
L 1405.079468 251.2 
L 1405.423036 289.6 
L 1406.110172 321.6 
L 1406.797307 238.4 
L 1407.484443 238.4 
L 1408.171579 187.2 
L 1409.889418 193.6 
L 1410.232986 251.2 
L 1410.576554 264 
L 1411.607257 200 
L 1411.950825 136 
L 1412.637961 148.8 
L 1412.981529 244.8 
L 1413.668664 251.2 
L 1414.012232 193.6 
L 1414.3558 212.8 
L 1415.042936 232 
L 1415.386504 212.8 
L 1415.730071 270.4 
L 1416.073639 155.2 
L 1416.417207 302.4 
L 1416.760775 155.2 
L 1417.104343 244.8 
L 1417.791479 334.4 
L 1418.478614 225.6 
L 1418.822182 264 
L 1419.16575 168 
L 1419.509318 219.2 
L 1419.852886 161.6 
L 1420.196453 136 
L 1420.540021 123.2 
L 1421.227157 193.6 
L 1421.570725 264 
L 1422.257861 155.2 
L 1422.944996 200 
L 1423.288564 276.8 
L 1423.632132 78.4 
L 1424.319268 232 
L 1425.006403 180.8 
L 1425.349971 174.4 
L 1425.693539 142.4 
L 1426.037107 264 
L 1426.380675 200 
L 1426.724243 193.6 
L 1427.067811 238.4 
L 1427.411378 187.2 
L 1427.754946 168 
L 1428.098514 225.6 
L 1428.442082 257.6 
L 1428.78565 155.2 
L 1429.129218 225.6 
L 1429.472785 251.2 
L 1430.159921 257.6 
L 1430.503489 257.6 
L 1430.847057 283.2 
L 1431.190625 206.4 
L 1432.221328 206.4 
L 1432.564896 219.2 
L 1432.908464 289.6 
L 1433.252032 142.4 
L 1433.939168 200 
L 1434.282735 155.2 
L 1434.626303 270.4 
L 1434.969871 225.6 
L 1435.313439 206.4 
L 1436.000575 238.4 
L 1436.344143 289.6 
L 1437.374846 219.2 
L 1438.061982 264 
L 1438.40555 315.2 
L 1439.092685 232 
L 1439.436253 251.2 
L 1439.779821 206.4 
L 1440.123389 225.6 
L 1440.466957 257.6 
L 1440.810525 148.8 
L 1441.49766 270.4 
L 1441.841228 232 
L 1442.528364 257.6 
L 1442.871932 148.8 
L 1443.559067 315.2 
L 1443.902635 206.4 
L 1444.246203 174.4 
L 1444.933339 180.8 
L 1445.276907 225.6 
L 1445.964042 264 
L 1446.30761 212.8 
L 1446.651178 251.2 
L 1446.994746 219.2 
L 1447.338314 212.8 
L 1448.025449 347.2 
L 1448.369017 270.4 
L 1448.712585 219.2 
L 1449.056153 296 
L 1449.399721 225.6 
L 1450.086857 187.2 
L 1450.430424 257.6 
L 1450.773992 193.6 
L 1451.461128 232 
L 1451.804696 244.8 
L 1452.148264 161.6 
L 1452.491832 276.8 
L 1452.835399 232 
L 1453.178967 340.8 
L 1453.866103 212.8 
L 1454.209671 270.4 
L 1454.553239 161.6 
L 1454.896807 212.8 
L 1455.240374 206.4 
L 1455.583942 206.4 
L 1455.92751 187.2 
L 1456.271078 155.2 
L 1456.614646 225.6 
L 1456.958214 225.6 
L 1457.301781 251.2 
L 1457.645349 257.6 
L 1458.332485 289.6 
L 1458.676053 161.6 
L 1459.019621 270.4 
L 1459.363189 155.2 
L 1460.050324 264 
L 1460.393892 161.6 
L 1461.424596 174.4 
L 1462.111731 296 
L 1462.455299 212.8 
L 1462.798867 206.4 
L 1463.486003 212.8 
L 1463.829571 180.8 
L 1464.173138 264 
L 1464.860274 193.6 
L 1465.54741 180.8 
L 1466.578113 232 
L 1467.265249 225.6 
L 1468.295953 219.2 
L 1468.639521 193.6 
L 1468.983088 238.4 
L 1469.326656 264 
L 1469.670224 225.6 
L 1470.013792 212.8 
L 1470.35736 302.4 
L 1471.388063 276.8 
L 1472.075199 238.4 
L 1473.105903 212.8 
L 1473.44947 360 
L 1473.793038 225.6 
L 1474.136606 219.2 
L 1474.823742 251.2 
L 1475.16731 232 
L 1475.510878 193.6 
L 1476.198013 257.6 
L 1476.541581 244.8 
L 1477.228717 180.8 
L 1478.25942 136 
L 1478.602988 200 
L 1479.290124 212.8 
L 1479.97726 193.6 
L 1481.695099 270.4 
L 1482.038667 232 
L 1482.382235 257.6 
L 1490.284295 219.2 
L 1490.627863 225.6 
L 1491.314999 302.4 
L 1492.68927 283.2 
L 1499.904195 238.4 
L 1500.247763 238.4 
L 1500.591331 200 
L 1502.652738 225.6 
L 1506.088416 200 
L 1506.775552 161.6 
L 1508.149824 264 
L 1508.493391 238.4 
L 1510.211231 238.4 
L 1510.554798 251.2 
L 1510.898366 225.6 
L 1511.92907 251.2 
L 1512.616206 232 
L 1513.303341 161.6 
L 1513.646909 193.6 
L 1514.677613 232 
L 1515.708316 155.2 
L 1516.395452 251.2 
L 1517.426155 264 
L 1518.113291 168 
L 1518.456859 212.8 
L 1518.800427 206.4 
L 1519.83113 168 
L 1520.174698 219.2 
L 1520.861834 270.4 
L 1521.205402 308.8 
L 1521.892538 206.4 
L 1522.236105 219.2 
L 1522.579673 302.4 
L 1523.266809 174.4 
L 1523.610377 193.6 
L 1524.64108 302.4 
L 1525.328216 187.2 
L 1525.671784 244.8 
L 1526.35892 264 
L 1526.702487 174.4 
L 1527.046055 347.2 
L 1527.733191 283.2 
L 1528.076759 232 
L 1528.420327 238.4 
L 1528.763895 200 
L 1529.107462 206.4 
L 1529.45103 251.2 
L 1529.794598 225.6 
L 1530.138166 283.2 
L 1530.481734 257.6 
L 1530.825302 200 
L 1531.16887 238.4 
L 1531.512437 257.6 
L 1531.856005 193.6 
L 1532.199573 257.6 
L 1532.886709 283.2 
L 1533.230277 276.8 
L 1533.711272 129.6 
L 1534.05484 328 
L 1534.398407 238.4 
L 1535.085543 180.8 
L 1535.429111 219.2 
L 1535.772679 161.6 
L 1536.459814 315.2 
L 1537.14695 155.2 
L 1537.490518 244.8 
L 1537.834086 219.2 
L 1538.177654 225.6 
L 1538.521222 116.8 
L 1539.551925 251.2 
L 1540.239061 212.8 
L 1540.926197 238.4 
L 1541.269764 206.4 
L 1541.613332 232 
L 1541.9569 200 
L 1542.644036 238.4 
L 1543.331171 219.2 
L 1543.674739 193.6 
L 1544.018307 283.2 
L 1544.361875 219.2 
L 1544.705443 251.2 
L 1545.392579 251.2 
L 1545.736146 232 
L 1546.079714 270.4 
L 1546.423282 174.4 
L 1546.76685 225.6 
L 1547.110418 302.4 
L 1547.453986 244.8 
L 1547.797554 270.4 
L 1548.141121 244.8 
L 1548.484689 232 
L 1548.828257 264 
L 1549.171825 257.6 
L 1549.515393 257.6 
L 1549.858961 193.6 
L 1550.546096 225.6 
L 1550.889664 225.6 
L 1551.233232 251.2 
L 1551.5768 206.4 
L 1552.263936 289.6 
L 1552.607504 174.4 
L 1552.951071 200 
L 1553.294639 206.4 
L 1553.638207 193.6 
L 1553.981775 219.2 
L 1554.325343 270.4 
L 1554.668911 174.4 
L 1555.012478 270.4 
L 1555.356046 238.4 
L 1556.043182 264 
L 1556.38675 212.8 
L 1556.730318 238.4 
L 1557.073886 200 
L 1557.417453 225.6 
L 1558.104589 302.4 
L 1558.448157 212.8 
L 1558.791725 168 
L 1559.135293 232 
L 1559.822428 289.6 
L 1560.165996 180.8 
L 1560.509564 264 
L 1561.1967 212.8 
L 1561.883835 283.2 
L 1562.227403 174.4 
L 1562.570971 174.4 
L 1562.914539 225.6 
L 1563.258107 302.4 
L 1563.601675 340.8 
L 1563.945243 289.6 
L 1564.28881 283.2 
L 1564.975946 206.4 
L 1565.319514 219.2 
L 1565.663082 270.4 
L 1566.350218 315.2 
L 1566.693785 283.2 
L 1567.037353 193.6 
L 1567.380921 206.4 
L 1567.724489 174.4 
L 1568.068057 334.4 
L 1568.411625 232 
L 1570.129464 270.4 
L 1571.503735 212.8 
L 1572.190871 257.6 
L 1573.221575 270.4 
L 1573.565142 219.2 
L 1573.90871 276.8 
L 1574.252278 212.8 
L 1574.595846 180.8 
L 1575.62655 321.6 
L 1576.313685 276.8 
L 1576.657253 219.2 
L 1577.344389 270.4 
L 1577.687957 283.2 
L 1578.031525 270.4 
L 1578.71866 270.4 
L 1579.474509 334.4 
L 1579.749364 321.6 
L 1580.780067 251.2 
L 1581.810771 206.4 
L 1584.215746 264 
L 1585.933585 289.6 
L 1587.307857 257.6 
L 1587.651424 257.6 
L 1588.33856 225.6 
L 1589.369264 212.8 
L 1589.712831 244.8 
L 1590.056399 289.6 
L 1591.087103 289.6 
L 1591.430671 257.6 
L 1593.14851 302.4 
L 1594.179214 315.2 
L 1594.522781 347.2 
L 1594.866349 321.6 
L 1595.209917 283.2 
L 1596.240621 283.2 
L 1596.584188 340.8 
L 1597.614892 264 
L 1597.95846 302.4 
L 1598.989163 155.2 
L 1599.332731 200 
L 1599.676299 206.4 
L 1600.019867 340.8 
L 1600.363435 238.4 
L 1600.707003 257.6 
L 1601.050571 168 
L 1601.394138 289.6 
L 1602.081274 289.6 
L 1602.424842 219.2 
L 1602.76841 225.6 
L 1603.111978 238.4 
L 1603.455546 180.8 
L 1603.799113 276.8 
L 1604.142681 193.6 
L 1604.486249 219.2 
L 1604.829817 257.6 
L 1605.173385 225.6 
L 1605.516953 225.6 
L 1605.86052 321.6 
L 1606.204088 232 
L 1606.891224 289.6 
L 1607.234792 193.6 
L 1614.106149 200 
L 1614.449717 251.2 
L 1614.793285 270.4 
L 1615.136852 219.2 
L 1615.48042 212.8 
L 1615.823988 225.6 
L 1616.167556 244.8 
L 1616.511124 251.2 
L 1616.854692 219.2 
L 1617.19826 225.6 
L 1617.541827 302.4 
L 1618.228963 276.8 
L 1618.572531 232 
L 1618.916099 334.4 
L 1619.259667 264 
L 1619.603235 283.2 
L 1619.946802 244.8 
L 1620.29037 251.2 
L 1620.633938 219.2 
L 1620.977506 212.8 
L 1621.321074 232 
L 1621.664642 296 
L 1622.00821 168 
L 1622.351777 180.8 
L 1623.038913 283.2 
L 1623.382481 257.6 
L 1623.726049 276.8 
L 1624.069617 276.8 
L 1624.413184 270.4 
L 1624.756752 187.2 
L 1625.10032 296 
L 1626.474592 296 
L 1627.161727 328 
L 1627.505295 270.4 
L 1628.192431 308.8 
L 1628.535999 219.2 
L 1628.879567 238.4 
L 1629.566702 302.4 
L 1629.91027 366.4 
L 1630.253838 251.2 
L 1630.597406 225.6 
L 1630.940974 148.8 
L 1631.971677 264 
L 1632.315245 212.8 
L 1633.345949 289.6 
L 1633.689516 296 
L 1634.033084 200 
L 1634.170511 270.4 
L 1634.514079 200 
L 1634.857647 289.6 
L 1635.544783 187.2 
L 1635.888351 238.4 
L 1636.231919 219.2 
L 1636.919054 206.4 
L 1637.262622 372.8 
L 1637.60619 276.8 
L 1637.949758 244.8 
L 1638.293326 302.4 
L 1638.636894 142.4 
L 1638.980461 308.8 
L 1639.324029 187.2 
L 1640.011165 238.4 
L 1640.698301 212.8 
L 1641.041868 187.2 
L 1641.385436 251.2 
L 1641.729004 219.2 
L 1642.072572 219.2 
L 1642.41614 187.2 
L 1642.759708 270.4 
L 1643.103276 193.6 
L 1643.446843 251.2 
L 1643.790411 174.4 
L 1644.477547 276.8 
L 1644.821115 257.6 
L 1645.164683 283.2 
L 1645.508251 257.6 
L 1645.851818 251.2 
L 1646.195386 321.6 
L 1646.538954 257.6 
L 1646.882522 244.8 
L 1647.22609 251.2 
L 1647.569658 180.8 
L 1647.913226 238.4 
L 1648.256793 174.4 
L 1648.600361 302.4 
L 1648.943929 219.2 
L 1649.287497 289.6 
L 1649.631065 148.8 
L 1650.3182 238.4 
L 1650.661768 264 
L 1651.005336 244.8 
L 1651.348904 353.6 
L 1651.692472 308.8 
L 1652.03604 238.4 
L 1652.379608 212.8 
L 1652.723175 334.4 
L 1653.066743 193.6 
L 1653.410311 225.6 
L 1653.753879 270.4 
L 1654.097447 244.8 
L 1654.441015 238.4 
L 1654.784583 321.6 
L 1655.12815 264 
L 1655.471718 372.8 
L 1655.815286 244.8 
L 1656.158854 232 
L 1656.84599 251.2 
L 1657.189558 200 
L 1657.945407 225.6 
L 1658.220261 244.8 
L 1658.907397 200 
L 1659.250965 225.6 
L 1659.9381 289.6 
L 1660.281668 232 
L 1660.625236 200 
L 1660.968804 308.8 
L 1661.312372 264 
L 1661.65594 244.8 
L 1662.343075 174.4 
L 1662.686643 276.8 
L 1663.030211 244.8 
L 1663.373779 302.4 
L 1663.717347 257.6 
L 1664.060915 251.2 
L 1665.435186 219.2 
L 1665.778754 225.6 
L 1666.053608 244.8 
L 1666.465889 417.6 
L 1666.809457 289.6 
L 1667.840161 251.2 
L 1668.527297 276.8 
L 1669.214432 193.6 
L 1669.901568 219.2 
L 1670.313849 251.2 
L 1670.657417 302.4 
L 1671.688121 219.2 
L 1671.962975 353.6 
L 1672.306543 289.6 
L 1672.993679 270.4 
L 1674.436664 296 
L 1674.780232 238.4 
L 1675.123799 276.8 
L 1675.398654 232 
L 1676.154503 174.4 
L 1676.498071 296 
L 1676.841639 296 
L 1677.185206 328 
L 1677.872342 360 
L 1678.21591 404.8 
L 1678.903046 392 
L 1679.246614 392 
L 1679.590181 398.4 
L 1679.865036 411.2 
L 1681.239307 353.6 
L 1682.338724 296 
L 1683.300714 308.8 
L 1683.644282 360 
L 1684.331418 340.8 
L 1685.018553 302.4 
L 1685.362121 296 
L 1685.705689 315.2 
L 1686.049257 360 
L 1686.392825 353.6 
L 1687.148674 385.6 
L 1687.492242 347.2 
L 1688.866513 212.8 
L 1689.553649 264 
L 1690.584353 302.4 
L 1690.927921 308.8 
L 1691.546343 366.4 
L 1692.233478 251.2 
L 1692.577046 283.2 
L 1692.920614 219.2 
L 1693.60775 219.2 
L 1693.951318 193.6 
L 1694.294885 219.2 
L 1695.394303 321.6 
L 1695.669157 347.2 
L 1696.081438 232 
L 1696.425006 232 
L 1696.768574 200 
L 1697.386996 225.6 
L 1698.142845 225.6 
L 1698.486413 328 
L 1698.761268 276.8 
L 1699.173549 270.4 
L 1699.448403 219.2 
L 1699.791971 219.2 
L 1700.135539 270.4 
L 1700.479107 276.8 
L 1700.891388 270.4 
L 1701.234956 308.8 
L 1701.578524 232 
L 1702.26566 251.2 
L 1702.609227 168 
L 1702.884082 232 
L 1703.22765 206.4 
L 1703.571217 200 
L 1703.914785 174.4 
L 1704.327067 264 
L 1704.601921 206.4 
L 1704.945489 219.2 
L 1705.289057 238.4 
L 1705.632625 161.6 
L 1706.044906 264 
L 1706.31976 270.4 
L 1706.663328 264 
L 1707.006896 366.4 
L 1707.350464 302.4 
L 1707.762745 257.6 
L 1708.106313 244.8 
L 1708.449881 206.4 
L 1708.793449 225.6 
L 1709.137017 212.8 
L 1709.480585 276.8 
L 1709.824152 232 
L 1710.16772 238.4 
L 1710.511288 328 
L 1710.854856 315.2 
L 1711.198424 155.2 
L 1711.541992 193.6 
L 1712.229127 302.4 
L 1712.572695 193.6 
L 1712.916263 321.6 
L 1713.259831 212.8 
L 1713.603399 168 
L 1713.946967 264 
L 1714.290534 308.8 
L 1714.634102 244.8 
L 1714.97767 276.8 
L 1715.321238 296 
L 1715.664806 296 
L 1716.008374 385.6 
L 1716.351942 161.6 
L 1716.695509 238.4 
L 1717.039077 251.2 
L 1717.382645 302.4 
L 1717.726213 225.6 
L 1718.069781 328 
L 1718.413349 193.6 
L 1718.756917 315.2 
L 1719.100484 270.4 
L 1719.78762 270.4 
L 1720.131188 264 
L 1720.474756 232 
L 1721.161891 206.4 
L 1721.849027 193.6 
L 1722.192595 276.8 
L 1722.536163 193.6 
L 1722.879731 238.4 
L 1723.223299 315.2 
L 1723.910434 251.2 
L 1724.59757 251.2 
L 1724.941138 257.6 
L 1725.284706 238.4 
L 1725.971841 142.4 
L 1726.315409 251.2 
L 1726.658977 251.2 
L 1727.002545 289.6 
L 1727.346113 360 
L 1727.689681 219.2 
L 1728.033248 289.6 
L 1728.376816 289.6 
L 1728.720384 206.4 
L 1729.063952 315.2 
L 1729.40752 340.8 
L 1729.751088 257.6 
L 1730.094656 219.2 
L 1730.438223 244.8 
L 1731.125359 212.8 
L 1731.468927 238.4 
L 1731.812495 276.8 
L 1732.156063 289.6 
L 1732.499631 296 
L 1732.843198 200 
L 1733.186766 212.8 
L 1733.530334 264 
L 1733.873902 296 
L 1734.21747 264 
L 1734.561038 187.2 
L 1735.248173 187.2 
L 1735.591741 200 
L 1736.14145 238.4 
L 1736.485018 276.8 
L 1736.828586 270.4 
L 1737.172153 251.2 
L 1737.515721 200 
L 1737.859289 283.2 
L 1738.202857 219.2 
L 1738.546425 315.2 
L 1738.889993 238.4 
L 1739.23356 302.4 
L 1739.577128 212.8 
L 1739.920696 244.8 
L 1740.607832 289.6 
L 1740.9514 232 
L 1741.638535 232 
L 1741.982103 136 
L 1742.325671 232 
L 1742.669239 225.6 
L 1743.012807 238.4 
L 1743.356375 168 
L 1743.699943 187.2 
L 1744.04351 283.2 
L 1744.387078 244.8 
L 1744.730646 270.4 
L 1745.074214 257.6 
L 1745.417782 270.4 
L 1745.76135 148.8 
L 1746.104917 328 
L 1746.448485 232 
L 1746.792053 200 
L 1747.135621 200 
L 1747.479189 180.8 
L 1747.822757 200 
L 1748.166325 296 
L 1748.509892 276.8 
L 1748.85346 180.8 
L 1749.197028 296 
L 1749.540596 276.8 
L 1749.884164 264 
L 1750.227732 212.8 
L 1750.5713 238.4 
L 1750.914867 225.6 
L 1751.258435 232 
L 1751.602003 232 
L 1751.945571 302.4 
L 1752.289139 187.2 
L 1752.976275 315.2 
L 1753.319842 289.6 
L 1753.66341 174.4 
L 1754.006978 187.2 
L 1754.350546 334.4 
L 1755.381249 200 
L 1755.724817 219.2 
L 1756.068385 225.6 
L 1756.411953 225.6 
L 1756.755521 251.2 
L 1757.099089 264 
L 1757.786224 302.4 
L 1758.47336 219.2 
L 1758.816928 321.6 
L 1759.160496 264 
L 1759.847632 334.4 
L 1760.191199 257.6 
L 1760.534767 340.8 
L 1760.878335 193.6 
L 1761.221903 251.2 
L 1761.565471 283.2 
L 1762.252607 308.8 
L 1762.939742 244.8 
L 1763.626878 340.8 
L 1764.314014 212.8 
L 1765.001149 283.2 
L 1765.344717 315.2 
L 1766.031853 257.6 
L 1766.375421 244.8 
L 1766.718989 289.6 
L 1767.062556 308.8 
L 1767.406124 366.4 
L 1767.749692 296 
L 1768.09326 270.4 
L 1769.123964 334.4 
L 1769.811099 276.8 
L 1770.498235 321.6 
L 1770.841803 283.2 
L 1771.528939 219.2 
L 1772.216074 315.2 
L 1773.246778 187.2 
L 1773.590346 225.6 
L 1773.933913 244.8 
L 1774.621049 206.4 
L 1774.964617 219.2 
L 1775.651753 257.6 
L 1775.995321 315.2 
L 1776.682456 270.4 
L 1777.026024 328 
L 1778.056728 276.8 
L 1778.400296 251.2 
L 1778.743863 193.6 
L 1779.430999 155.2 
L 1779.774567 116.8 
L 1780.461703 129.6 
L 1780.805271 104 
L 1781.148838 104 
L 1781.835974 206.4 
L 1782.179542 187.2 
L 1782.52311 193.6 
L 1782.866678 193.6 
L 1783.210245 168 
L 1783.553813 187.2 
L 1783.897381 174.4 
L 1784.240949 212.8 
L 1785.958788 379.2 
L 1786.302356 308.8 
L 1787.33306 219.2 
L 1788.707331 315.2 
L 1789.050899 347.2 
L 1789.394467 334.4 
L 1789.738035 411.2 
L 1790.081602 411.2 
L 1791.112306 232 
L 1791.799442 302.4 
L 1792.14301 289.6 
L 1792.486577 328 
L 1792.830145 264 
L 1793.173713 264 
L 1793.517281 238.4 
L 1793.860849 244.8 
L 1794.547985 264 
L 1794.891552 296 
L 1795.922256 206.4 
L 1796.265824 232 
L 1796.95296 244.8 
L 1798.670799 180.8 
L 1799.014367 200 
L 1799.357934 97.6 
L 1799.701502 174.4 
L 1800.04507 302.4 
L 1800.732206 148.8 
L 1801.075774 219.2 
L 1801.419342 251.2 
L 1801.762909 168 
L 1802.450045 225.6 
L 1802.793613 257.6 
L 1803.137181 302.4 
L 1803.480749 264 
L 1803.824317 321.6 
L 1804.167884 225.6 
L 1804.511452 296 
L 1804.85502 251.2 
L 1805.198588 232 
L 1805.542156 193.6 
L 1805.885724 289.6 
L 1806.229292 238.4 
L 1806.572859 251.2 
L 1806.916427 283.2 
L 1807.259995 238.4 
L 1807.603563 283.2 
L 1808.290699 168 
L 1808.977834 257.6 
L 1809.321402 238.4 
L 1809.66497 238.4 
L 1810.008538 193.6 
L 1810.352106 225.6 
L 1810.695674 225.6 
L 1811.039241 283.2 
L 1811.382809 283.2 
L 1812.069945 225.6 
L 1812.413513 238.4 
L 1812.757081 366.4 
L 1813.100649 244.8 
L 1813.444216 264 
L 1813.787784 276.8 
L 1814.131352 168 
L 1814.47492 180.8 
L 1814.818488 308.8 
L 1815.162056 225.6 
L 1815.505624 379.2 
L 1815.849191 225.6 
L 1816.192759 238.4 
L 1816.536327 276.8 
L 1816.879895 276.8 
L 1817.223463 270.4 
L 1817.910598 193.6 
L 1818.254166 328 
L 1818.597734 289.6 
L 1818.941302 180.8 
L 1819.628438 244.8 
L 1819.972006 257.6 
L 1820.315573 200 
L 1820.659141 161.6 
L 1821.002709 257.6 
L 1821.346277 212.8 
L 1821.689845 328 
L 1822.033413 302.4 
L 1822.376981 366.4 
L 1822.720548 257.6 
L 1823.064116 289.6 
L 1823.407684 308.8 
L 1823.751252 244.8 
L 1824.438388 244.8 
L 1824.781956 379.2 
L 1825.125523 340.8 
L 1825.469091 238.4 
L 1825.812659 289.6 
L 1826.156227 257.6 
L 1826.499795 180.8 
L 1826.843363 187.2 
L 1827.18693 340.8 
L 1827.530498 238.4 
L 1827.874066 244.8 
L 1828.217634 232 
L 1828.561202 321.6 
L 1828.90477 276.8 
L 1829.248338 283.2 
L 1829.591905 283.2 
L 1829.935473 212.8 
L 1830.279041 264 
L 1830.622609 206.4 
L 1830.966177 206.4 
L 1831.653313 315.2 
L 1831.99688 212.8 
L 1832.340448 315.2 
L 1832.684016 232 
L 1833.027584 232 
L 1833.371152 206.4 
L 1833.71472 251.2 
L 1834.058288 219.2 
L 1834.745423 334.4 
L 1835.432559 219.2 
L 1836.119695 276.8 
L 1836.463262 193.6 
L 1837.150398 308.8 
L 1837.219112 296 
L 1837.56268 296 
L 1837.906247 244.8 
L 1838.593383 238.4 
L 1838.936951 232 
L 1839.280519 232 
L 1839.624087 225.6 
L 1839.967655 270.4 
L 1840.311222 232 
L 1840.65479 244.8 
L 1840.998358 276.8 
L 1841.341926 174.4 
L 1842.029062 308.8 
L 1842.37263 347.2 
L 1842.716197 244.8 
L 1843.059765 257.6 
L 1843.403333 244.8 
L 1843.746901 340.8 
L 1844.090469 283.2 
L 1844.434037 328 
L 1844.777604 296 
L 1845.121172 302.4 
L 1845.46474 219.2 
L 1845.808308 232 
L 1846.151876 180.8 
L 1846.495444 296 
L 1847.182579 142.4 
L 1847.526147 238.4 
L 1847.869715 219.2 
L 1848.213283 251.2 
L 1848.556851 238.4 
L 1848.900419 289.6 
L 1849.243987 148.8 
L 1849.587554 219.2 
L 1849.931122 174.4 
L 1850.618258 187.2 
L 1851.305394 289.6 
L 1851.648961 321.6 
L 1851.992529 238.4 
L 1852.679665 200 
L 1853.023233 289.6 
L 1854.053936 168 
L 1854.741072 315.2 
L 1855.08464 244.8 
L 1855.428208 340.8 
L 1855.771776 180.8 
L 1856.115344 289.6 
L 1856.458911 180.8 
L 1856.802479 180.8 
L 1857.146047 212.8 
L 1857.489615 180.8 
L 1857.833183 238.4 
L 1858.176751 321.6 
L 1858.520319 315.2 
L 1858.863886 270.4 
L 1859.207454 270.4 
L 1859.551022 212.8 
L 1859.89459 264 
L 1860.238158 366.4 
L 1860.925293 206.4 
L 1861.268861 251.2 
L 1861.612429 225.6 
L 1861.955997 257.6 
L 1862.299565 334.4 
L 1862.643133 340.8 
L 1862.986701 225.6 
L 1863.330268 180.8 
L 1863.673836 289.6 
L 1864.017404 264 
L 1865.048108 264 
L 1865.391676 251.2 
L 1866.078811 283.2 
L 1866.422379 276.8 
L 1866.765947 289.6 
L 1867.109515 308.8 
L 1867.453083 372.8 
L 1867.796651 372.8 
L 1868.483786 251.2 
L 1868.827354 302.4 
L 1869.102208 296 
L 1869.51449 296 
L 1869.858058 206.4 
L 1870.201625 161.6 
L 1870.545193 296 
L 1870.888761 289.6 
L 1871.232329 206.4 
L 1872.263033 180.8 
L 1872.6066 232 
L 1872.950168 308.8 
L 1873.637304 257.6 
L 1875.011575 372.8 
L 1875.355143 360 
L 1875.698711 353.6 
L 1876.385847 296 
L 1877.072983 404.8 
L 1877.41655 411.2 
L 1878.103686 276.8 
L 1879.821525 257.6 
L 1880.439947 244.8 
L 1880.852229 302.4 
L 1881.539365 340.8 
L 1882.2265 302.4 
L 1883.257204 321.6 
L 1883.600772 308.8 
L 1883.94434 302.4 
L 1884.287907 264 
L 1884.631475 276.8 
L 1884.975043 283.2 
L 1885.662179 244.8 
L 1886.005747 244.8 
L 1886.349315 238.4 
L 1887.03645 193.6 
L 1887.380018 180.8 
L 1887.723586 180.8 
L 1888.067154 193.6 
L 1888.410722 212.8 
L 1888.754289 238.4 
L 1889.097857 225.6 
L 1889.784993 308.8 
L 1890.128561 321.6 
L 1890.815697 328 
L 1891.159264 334.4 
L 1891.8464 251.2 
L 1892.189968 334.4 
L 1892.533536 328 
L 1892.877104 366.4 
L 1893.220672 353.6 
L 1893.564239 296 
L 1893.907807 257.6 
L 1894.251375 264 
L 1894.594943 238.4 
L 1894.938511 232 
L 1895.282079 219.2 
L 1895.969214 321.6 
L 1896.312782 308.8 
L 1896.65635 302.4 
L 1896.999918 232 
L 1897.343486 251.2 
L 1897.687054 244.8 
L 1898.030621 232 
L 1898.374189 200 
L 1898.717757 251.2 
L 1899.061325 219.2 
L 1899.404893 212.8 
L 1899.748461 276.8 
L 1900.092029 212.8 
L 1900.435596 232 
L 1900.779164 257.6 
L 1901.122732 251.2 
L 1901.4663 289.6 
L 1901.809868 212.8 
L 1902.153436 244.8 
L 1902.497004 308.8 
L 1902.840571 296 
L 1903.184139 321.6 
L 1903.527707 296 
L 1903.871275 302.4 
L 1904.214843 264 
L 1904.558411 379.2 
L 1904.901978 353.6 
L 1905.245546 596.8 
L 1905.589114 340.8 
L 1905.932682 398.4 
L 1906.27625 648 
L 1906.619818 347.2 
L 1906.963386 385.6 
L 1907.306953 398.4 
L 1907.650521 590.4 
L 1908.337657 225.6 
L 1908.681225 264 
L 1909.024793 340.8 
L 1909.711928 206.4 
L 1910.399064 206.4 
L 1910.742632 219.2 
L 1911.0862 257.6 
L 1911.429768 251.2 
L 1911.773336 251.2 
L 1912.460471 436.8 
L 1912.804039 334.4 
L 1913.147607 321.6 
L 1913.491175 436.8 
L 1913.834743 328 
L 1914.17831 315.2 
L 1914.521878 296 
L 1914.865446 302.4 
L 1915.209014 219.2 
L 1915.552582 328 
L 1915.89615 283.2 
L 1916.926853 366.4 
L 1917.270421 340.8 
L 1917.613989 232 
L 1917.957557 328 
L 1918.301125 353.6 
L 1918.644693 264 
L 1918.98826 296 
L 1919.675396 308.8 
L 1920.018964 347.2 
L 1920.362532 360 
L 1920.7061 270.4 
L 1921.049668 276.8 
L 1921.393235 289.6 
L 1922.080371 193.6 
L 1922.767507 251.2 
L 1923.111075 187.2 
L 1923.454642 244.8 
L 1923.79821 251.2 
L 1924.141778 244.8 
L 1924.485346 347.2 
L 1924.828914 206.4 
L 1925.172482 264 
L 1925.51605 270.4 
L 1925.859617 219.2 
L 1926.203185 219.2 
L 1926.546753 283.2 
L 1926.890321 264 
L 1927.233889 238.4 
L 1927.577457 200 
L 1927.921025 219.2 
L 1928.264592 251.2 
L 1928.60816 244.8 
L 1928.951728 283.2 
L 1929.638864 155.2 
L 1929.982432 219.2 
L 1930.326 193.6 
L 1930.669567 296 
L 1931.013135 206.4 
L 1931.356703 283.2 
L 1931.700271 296 
L 1932.043839 244.8 
L 1932.387407 232 
L 1932.730974 244.8 
L 1933.074542 283.2 
L 1933.41811 296 
L 1933.761678 315.2 
L 1934.448814 238.4 
L 1934.792382 321.6 
L 1935.135949 264 
L 1935.479517 321.6 
L 1935.823085 270.4 
L 1936.166653 244.8 
L 1936.441507 212.8 
L 1936.785075 276.8 
L 1937.128643 155.2 
L 1937.472211 257.6 
L 1937.815779 180.8 
L 1938.090633 283.2 
L 1938.502914 257.6 
L 1938.777769 302.4 
L 1939.121337 200 
L 1939.464904 283.2 
L 1939.808472 264 
L 1940.15204 212.8 
L 1940.564321 238.4 
L 1940.839176 276.8 
L 1941.182744 193.6 
L 1941.595025 264 
L 1941.938593 283.2 
L 1942.282161 251.2 
L 1942.625729 257.6 
L 1942.969296 206.4 
L 1943.312864 219.2 
L 1943.656432 251.2 
L 1944 244.8 
L 1944 244.8 
" style="fill:none;stroke:#0000ff;stroke-linecap:square;"/>
   </g>
   <g id="line2d_2">
    <defs>
     <path d="M 0 3 
C 0.795609 3 1.55874 2.683901 2.12132 2.12132 
C 2.683901 1.55874 3 0.795609 3 0 
C 3 -0.795609 2.683901 -1.55874 2.12132 -2.12132 
C 1.55874 -2.683901 0.795609 -3 0 -3 
C -0.795609 -3 -1.55874 -2.683901 -2.12132 -2.12132 
C -2.683901 -1.55874 -3 -0.795609 -3 0 
C -3 0.795609 -2.683901 1.55874 -2.12132 2.12132 
C -1.55874 2.683901 -0.795609 3 0 3 
z
" id="m7e8d682ebe" style="stroke:#000000;stroke-width:0.5;"/>
    </defs>
    <g clip-path="url(#p405efa311f)">
     <use style="fill:#ff0000;stroke:#000000;stroke-width:0.5;" x="1905.24554634" xlink:href="#m7e8d682ebe" y="596.8"/>
     <use style="fill:#ff0000;stroke:#000000;stroke-width:0.5;" x="1906.2762499" xlink:href="#m7e8d682ebe" y="648.0"/>
     <use style="fill:#ff0000;stroke:#000000;stroke-width:0.5;" x="1907.65052131" xlink:href="#m7e8d682ebe" y="590.4"/>
    </g>
   </g>
   <g id="patch_3">
    <path d="M 270 72 
L 1944 72 
" style="fill:none;stroke:#000000;stroke-linecap:square;stroke-linejoin:miter;"/>
   </g>
   <g id="patch_4">
    <path d="M 1944 648 
L 1944 72 
" style="fill:none;stroke:#000000;stroke-linecap:square;stroke-linejoin:miter;"/>
   </g>
   <g id="patch_5">
    <path d="M 270 648 
L 1944 648 
" style="fill:none;stroke:#000000;stroke-linecap:square;stroke-linejoin:miter;"/>
   </g>
   <g id="patch_6">
    <path d="M 270 648 
L 270 72 
" style="fill:none;stroke:#000000;stroke-linecap:square;stroke-linejoin:miter;"/>
   </g>
   <g id="matplotlib.axis_1">
    <g id="xtick_1">
     <g id="line2d_3">
      <defs>
       <path d="M 0 0 
L 0 -4 
" id="m095a1751fd" style="stroke:#000000;stroke-width:0.5;"/>
      </defs>
      <g>
       <use style="stroke:#000000;stroke-width:0.5;" x="293.225186765" xlink:href="#m095a1751fd" y="648.0"/>
      </g>
     </g>
     <g id="line2d_4">
      <defs>
       <path d="M 0 0 
L 0 4 
" id="m51c610c233" style="stroke:#000000;stroke-width:0.5;"/>
      </defs>
      <g>
       <use style="stroke:#000000;stroke-width:0.5;" x="293.225186765" xlink:href="#m51c610c233" y="72.0"/>
      </g>
     </g>
     <g id="text_1">
      <!-- Sep 01 2015 -->
      <defs>
       <path d="M 19.1875 8.296875 
L 53.609375 8.296875 
L 53.609375 0 
L 7.328125 0 
L 7.328125 8.296875 
Q 12.9375 14.109375 22.625 23.890625 
Q 32.328125 33.6875 34.8125 36.53125 
Q 39.546875 41.84375 41.421875 45.53125 
Q 43.3125 49.21875 43.3125 52.78125 
Q 43.3125 58.59375 39.234375 62.25 
Q 35.15625 65.921875 28.609375 65.921875 
Q 23.96875 65.921875 18.8125 64.3125 
Q 13.671875 62.703125 7.8125 59.421875 
L 7.8125 69.390625 
Q 13.765625 71.78125 18.9375 73 
Q 24.125 74.21875 28.421875 74.21875 
Q 39.75 74.21875 46.484375 68.546875 
Q 53.21875 62.890625 53.21875 53.421875 
Q 53.21875 48.921875 51.53125 44.890625 
Q 49.859375 40.875 45.40625 35.40625 
Q 44.1875 33.984375 37.640625 27.21875 
Q 31.109375 20.453125 19.1875 8.296875 
" id="BitstreamVeraSans-Roman-32"/>
       <path id="BitstreamVeraSans-Roman-20"/>
       <path d="M 31.78125 66.40625 
Q 24.171875 66.40625 20.328125 58.90625 
Q 16.5 51.421875 16.5 36.375 
Q 16.5 21.390625 20.328125 13.890625 
Q 24.171875 6.390625 31.78125 6.390625 
Q 39.453125 6.390625 43.28125 13.890625 
Q 47.125 21.390625 47.125 36.375 
Q 47.125 51.421875 43.28125 58.90625 
Q 39.453125 66.40625 31.78125 66.40625 
M 31.78125 74.21875 
Q 44.046875 74.21875 50.515625 64.515625 
Q 56.984375 54.828125 56.984375 36.375 
Q 56.984375 17.96875 50.515625 8.265625 
Q 44.046875 -1.421875 31.78125 -1.421875 
Q 19.53125 -1.421875 13.0625 8.265625 
Q 6.59375 17.96875 6.59375 36.375 
Q 6.59375 54.828125 13.0625 64.515625 
Q 19.53125 74.21875 31.78125 74.21875 
" id="BitstreamVeraSans-Roman-30"/>
       <path d="M 12.40625 8.296875 
L 28.515625 8.296875 
L 28.515625 63.921875 
L 10.984375 60.40625 
L 10.984375 69.390625 
L 28.421875 72.90625 
L 38.28125 72.90625 
L 38.28125 8.296875 
L 54.390625 8.296875 
L 54.390625 0 
L 12.40625 0 
z
" id="BitstreamVeraSans-Roman-31"/>
       <path d="M 10.796875 72.90625 
L 49.515625 72.90625 
L 49.515625 64.59375 
L 19.828125 64.59375 
L 19.828125 46.734375 
Q 21.96875 47.46875 24.109375 47.828125 
Q 26.265625 48.1875 28.421875 48.1875 
Q 40.625 48.1875 47.75 41.5 
Q 54.890625 34.8125 54.890625 23.390625 
Q 54.890625 11.625 47.5625 5.09375 
Q 40.234375 -1.421875 26.90625 -1.421875 
Q 22.3125 -1.421875 17.546875 -0.640625 
Q 12.796875 0.140625 7.71875 1.703125 
L 7.71875 11.625 
Q 12.109375 9.234375 16.796875 8.0625 
Q 21.484375 6.890625 26.703125 6.890625 
Q 35.15625 6.890625 40.078125 11.328125 
Q 45.015625 15.765625 45.015625 23.390625 
Q 45.015625 31 40.078125 35.4375 
Q 35.15625 39.890625 26.703125 39.890625 
Q 22.75 39.890625 18.8125 39.015625 
Q 14.890625 38.140625 10.796875 36.28125 
z
" id="BitstreamVeraSans-Roman-35"/>
       <path d="M 53.515625 70.515625 
L 53.515625 60.890625 
Q 47.90625 63.578125 42.921875 64.890625 
Q 37.9375 66.21875 33.296875 66.21875 
Q 25.25 66.21875 20.875 63.09375 
Q 16.5 59.96875 16.5 54.203125 
Q 16.5 49.359375 19.40625 46.890625 
Q 22.3125 44.4375 30.421875 42.921875 
L 36.375 41.703125 
Q 47.40625 39.59375 52.65625 34.296875 
Q 57.90625 29 57.90625 20.125 
Q 57.90625 9.515625 50.796875 4.046875 
Q 43.703125 -1.421875 29.984375 -1.421875 
Q 24.8125 -1.421875 18.96875 -0.25 
Q 13.140625 0.921875 6.890625 3.21875 
L 6.890625 13.375 
Q 12.890625 10.015625 18.65625 8.296875 
Q 24.421875 6.59375 29.984375 6.59375 
Q 38.421875 6.59375 43.015625 9.90625 
Q 47.609375 13.234375 47.609375 19.390625 
Q 47.609375 24.75 44.3125 27.78125 
Q 41.015625 30.8125 33.5 32.328125 
L 27.484375 33.5 
Q 16.453125 35.6875 11.515625 40.375 
Q 6.59375 45.0625 6.59375 53.421875 
Q 6.59375 63.09375 13.40625 68.65625 
Q 20.21875 74.21875 32.171875 74.21875 
Q 37.3125 74.21875 42.625 73.28125 
Q 47.953125 72.359375 53.515625 70.515625 
" id="BitstreamVeraSans-Roman-53"/>
       <path d="M 56.203125 29.59375 
L 56.203125 25.203125 
L 14.890625 25.203125 
Q 15.484375 15.921875 20.484375 11.0625 
Q 25.484375 6.203125 34.421875 6.203125 
Q 39.59375 6.203125 44.453125 7.46875 
Q 49.3125 8.734375 54.109375 11.28125 
L 54.109375 2.78125 
Q 49.265625 0.734375 44.1875 -0.34375 
Q 39.109375 -1.421875 33.890625 -1.421875 
Q 20.796875 -1.421875 13.15625 6.1875 
Q 5.515625 13.8125 5.515625 26.8125 
Q 5.515625 40.234375 12.765625 48.109375 
Q 20.015625 56 32.328125 56 
Q 43.359375 56 49.78125 48.890625 
Q 56.203125 41.796875 56.203125 29.59375 
M 47.21875 32.234375 
Q 47.125 39.59375 43.09375 43.984375 
Q 39.0625 48.390625 32.421875 48.390625 
Q 24.90625 48.390625 20.390625 44.140625 
Q 15.875 39.890625 15.1875 32.171875 
z
" id="BitstreamVeraSans-Roman-65"/>
       <path d="M 18.109375 8.203125 
L 18.109375 -20.796875 
L 9.078125 -20.796875 
L 9.078125 54.6875 
L 18.109375 54.6875 
L 18.109375 46.390625 
Q 20.953125 51.265625 25.265625 53.625 
Q 29.59375 56 35.59375 56 
Q 45.5625 56 51.78125 48.09375 
Q 58.015625 40.1875 58.015625 27.296875 
Q 58.015625 14.40625 51.78125 6.484375 
Q 45.5625 -1.421875 35.59375 -1.421875 
Q 29.59375 -1.421875 25.265625 0.953125 
Q 20.953125 3.328125 18.109375 8.203125 
M 48.6875 27.296875 
Q 48.6875 37.203125 44.609375 42.84375 
Q 40.53125 48.484375 33.40625 48.484375 
Q 26.265625 48.484375 22.1875 42.84375 
Q 18.109375 37.203125 18.109375 27.296875 
Q 18.109375 17.390625 22.1875 11.75 
Q 26.265625 6.109375 33.40625 6.109375 
Q 40.53125 6.109375 44.609375 11.75 
Q 48.6875 17.390625 48.6875 27.296875 
" id="BitstreamVeraSans-Roman-70"/>
      </defs>
      <g transform="translate(255.196436765 661.118125)scale(0.12 -0.12)">
       <use xlink:href="#BitstreamVeraSans-Roman-53"/>
       <use x="63.4765625" xlink:href="#BitstreamVeraSans-Roman-65"/>
       <use x="125.0" xlink:href="#BitstreamVeraSans-Roman-70"/>
       <use x="188.4765625" xlink:href="#BitstreamVeraSans-Roman-20"/>
       <use x="220.263671875" xlink:href="#BitstreamVeraSans-Roman-30"/>
       <use x="283.88671875" xlink:href="#BitstreamVeraSans-Roman-31"/>
       <use x="347.509765625" xlink:href="#BitstreamVeraSans-Roman-20"/>
       <use x="379.296875" xlink:href="#BitstreamVeraSans-Roman-32"/>
       <use x="442.919921875" xlink:href="#BitstreamVeraSans-Roman-30"/>
       <use x="506.54296875" xlink:href="#BitstreamVeraSans-Roman-31"/>
       <use x="570.166015625" xlink:href="#BitstreamVeraSans-Roman-35"/>
      </g>
     </g>
    </g>
    <g id="xtick_2">
     <g id="line2d_5">
      <g>
       <use style="stroke:#000000;stroke-width:0.5;" x="491.120269269" xlink:href="#m095a1751fd" y="648.0"/>
      </g>
     </g>
     <g id="line2d_6">
      <g>
       <use style="stroke:#000000;stroke-width:0.5;" x="491.120269269" xlink:href="#m51c610c233" y="72.0"/>
      </g>
     </g>
     <g id="text_2">
      <!-- Sep 03 2015 -->
      <defs>
       <path d="M 40.578125 39.3125 
Q 47.65625 37.796875 51.625 33 
Q 55.609375 28.21875 55.609375 21.1875 
Q 55.609375 10.40625 48.1875 4.484375 
Q 40.765625 -1.421875 27.09375 -1.421875 
Q 22.515625 -1.421875 17.65625 -0.515625 
Q 12.796875 0.390625 7.625 2.203125 
L 7.625 11.71875 
Q 11.71875 9.328125 16.59375 8.109375 
Q 21.484375 6.890625 26.8125 6.890625 
Q 36.078125 6.890625 40.9375 10.546875 
Q 45.796875 14.203125 45.796875 21.1875 
Q 45.796875 27.640625 41.28125 31.265625 
Q 36.765625 34.90625 28.71875 34.90625 
L 20.21875 34.90625 
L 20.21875 43.015625 
L 29.109375 43.015625 
Q 36.375 43.015625 40.234375 45.921875 
Q 44.09375 48.828125 44.09375 54.296875 
Q 44.09375 59.90625 40.109375 62.90625 
Q 36.140625 65.921875 28.71875 65.921875 
Q 24.65625 65.921875 20.015625 65.03125 
Q 15.375 64.15625 9.8125 62.3125 
L 9.8125 71.09375 
Q 15.4375 72.65625 20.34375 73.4375 
Q 25.25 74.21875 29.59375 74.21875 
Q 40.828125 74.21875 47.359375 69.109375 
Q 53.90625 64.015625 53.90625 55.328125 
Q 53.90625 49.265625 50.4375 45.09375 
Q 46.96875 40.921875 40.578125 39.3125 
" id="BitstreamVeraSans-Roman-33"/>
      </defs>
      <g transform="translate(453.091519269 661.118125)scale(0.12 -0.12)">
       <use xlink:href="#BitstreamVeraSans-Roman-53"/>
       <use x="63.4765625" xlink:href="#BitstreamVeraSans-Roman-65"/>
       <use x="125.0" xlink:href="#BitstreamVeraSans-Roman-70"/>
       <use x="188.4765625" xlink:href="#BitstreamVeraSans-Roman-20"/>
       <use x="220.263671875" xlink:href="#BitstreamVeraSans-Roman-30"/>
       <use x="283.88671875" xlink:href="#BitstreamVeraSans-Roman-33"/>
       <use x="347.509765625" xlink:href="#BitstreamVeraSans-Roman-20"/>
       <use x="379.296875" xlink:href="#BitstreamVeraSans-Roman-32"/>
       <use x="442.919921875" xlink:href="#BitstreamVeraSans-Roman-30"/>
       <use x="506.54296875" xlink:href="#BitstreamVeraSans-Roman-31"/>
       <use x="570.166015625" xlink:href="#BitstreamVeraSans-Roman-35"/>
      </g>
     </g>
    </g>
    <g id="xtick_3">
     <g id="line2d_7">
      <g>
       <use style="stroke:#000000;stroke-width:0.5;" x="689.015351787" xlink:href="#m095a1751fd" y="648.0"/>
      </g>
     </g>
     <g id="line2d_8">
      <g>
       <use style="stroke:#000000;stroke-width:0.5;" x="689.015351787" xlink:href="#m51c610c233" y="72.0"/>
      </g>
     </g>
     <g id="text_3">
      <!-- Sep 05 2015 -->
      <g transform="translate(650.986601787 661.118125)scale(0.12 -0.12)">
       <use xlink:href="#BitstreamVeraSans-Roman-53"/>
       <use x="63.4765625" xlink:href="#BitstreamVeraSans-Roman-65"/>
       <use x="125.0" xlink:href="#BitstreamVeraSans-Roman-70"/>
       <use x="188.4765625" xlink:href="#BitstreamVeraSans-Roman-20"/>
       <use x="220.263671875" xlink:href="#BitstreamVeraSans-Roman-30"/>
       <use x="283.88671875" xlink:href="#BitstreamVeraSans-Roman-35"/>
       <use x="347.509765625" xlink:href="#BitstreamVeraSans-Roman-20"/>
       <use x="379.296875" xlink:href="#BitstreamVeraSans-Roman-32"/>
       <use x="442.919921875" xlink:href="#BitstreamVeraSans-Roman-30"/>
       <use x="506.54296875" xlink:href="#BitstreamVeraSans-Roman-31"/>
       <use x="570.166015625" xlink:href="#BitstreamVeraSans-Roman-35"/>
      </g>
     </g>
    </g>
    <g id="xtick_4">
     <g id="line2d_9">
      <g>
       <use style="stroke:#000000;stroke-width:0.5;" x="886.910434291" xlink:href="#m095a1751fd" y="648.0"/>
      </g>
     </g>
     <g id="line2d_10">
      <g>
       <use style="stroke:#000000;stroke-width:0.5;" x="886.910434291" xlink:href="#m51c610c233" y="72.0"/>
      </g>
     </g>
     <g id="text_4">
      <!-- Sep 07 2015 -->
      <defs>
       <path d="M 8.203125 72.90625 
L 55.078125 72.90625 
L 55.078125 68.703125 
L 28.609375 0 
L 18.3125 0 
L 43.21875 64.59375 
L 8.203125 64.59375 
z
" id="BitstreamVeraSans-Roman-37"/>
      </defs>
      <g transform="translate(848.881684291 661.118125)scale(0.12 -0.12)">
       <use xlink:href="#BitstreamVeraSans-Roman-53"/>
       <use x="63.4765625" xlink:href="#BitstreamVeraSans-Roman-65"/>
       <use x="125.0" xlink:href="#BitstreamVeraSans-Roman-70"/>
       <use x="188.4765625" xlink:href="#BitstreamVeraSans-Roman-20"/>
       <use x="220.263671875" xlink:href="#BitstreamVeraSans-Roman-30"/>
       <use x="283.88671875" xlink:href="#BitstreamVeraSans-Roman-37"/>
       <use x="347.509765625" xlink:href="#BitstreamVeraSans-Roman-20"/>
       <use x="379.296875" xlink:href="#BitstreamVeraSans-Roman-32"/>
       <use x="442.919921875" xlink:href="#BitstreamVeraSans-Roman-30"/>
       <use x="506.54296875" xlink:href="#BitstreamVeraSans-Roman-31"/>
       <use x="570.166015625" xlink:href="#BitstreamVeraSans-Roman-35"/>
      </g>
     </g>
    </g>
    <g id="xtick_5">
     <g id="line2d_11">
      <g>
       <use style="stroke:#000000;stroke-width:0.5;" x="1084.80551679" xlink:href="#m095a1751fd" y="648.0"/>
      </g>
     </g>
     <g id="line2d_12">
      <g>
       <use style="stroke:#000000;stroke-width:0.5;" x="1084.80551679" xlink:href="#m51c610c233" y="72.0"/>
      </g>
     </g>
     <g id="text_5">
      <!-- Sep 09 2015 -->
      <defs>
       <path d="M 10.984375 1.515625 
L 10.984375 10.5 
Q 14.703125 8.734375 18.5 7.8125 
Q 22.3125 6.890625 25.984375 6.890625 
Q 35.75 6.890625 40.890625 13.453125 
Q 46.046875 20.015625 46.78125 33.40625 
Q 43.953125 29.203125 39.59375 26.953125 
Q 35.25 24.703125 29.984375 24.703125 
Q 19.046875 24.703125 12.671875 31.3125 
Q 6.296875 37.9375 6.296875 49.421875 
Q 6.296875 60.640625 12.9375 67.421875 
Q 19.578125 74.21875 30.609375 74.21875 
Q 43.265625 74.21875 49.921875 64.515625 
Q 56.59375 54.828125 56.59375 36.375 
Q 56.59375 19.140625 48.40625 8.859375 
Q 40.234375 -1.421875 26.421875 -1.421875 
Q 22.703125 -1.421875 18.890625 -0.6875 
Q 15.09375 0.046875 10.984375 1.515625 
M 30.609375 32.421875 
Q 37.25 32.421875 41.125 36.953125 
Q 45.015625 41.5 45.015625 49.421875 
Q 45.015625 57.28125 41.125 61.84375 
Q 37.25 66.40625 30.609375 66.40625 
Q 23.96875 66.40625 20.09375 61.84375 
Q 16.21875 57.28125 16.21875 49.421875 
Q 16.21875 41.5 20.09375 36.953125 
Q 23.96875 32.421875 30.609375 32.421875 
" id="BitstreamVeraSans-Roman-39"/>
      </defs>
      <g transform="translate(1046.77676679 661.118125)scale(0.12 -0.12)">
       <use xlink:href="#BitstreamVeraSans-Roman-53"/>
       <use x="63.4765625" xlink:href="#BitstreamVeraSans-Roman-65"/>
       <use x="125.0" xlink:href="#BitstreamVeraSans-Roman-70"/>
       <use x="188.4765625" xlink:href="#BitstreamVeraSans-Roman-20"/>
       <use x="220.263671875" xlink:href="#BitstreamVeraSans-Roman-30"/>
       <use x="283.88671875" xlink:href="#BitstreamVeraSans-Roman-39"/>
       <use x="347.509765625" xlink:href="#BitstreamVeraSans-Roman-20"/>
       <use x="379.296875" xlink:href="#BitstreamVeraSans-Roman-32"/>
       <use x="442.919921875" xlink:href="#BitstreamVeraSans-Roman-30"/>
       <use x="506.54296875" xlink:href="#BitstreamVeraSans-Roman-31"/>
       <use x="570.166015625" xlink:href="#BitstreamVeraSans-Roman-35"/>
      </g>
     </g>
    </g>
    <g id="xtick_6">
     <g id="line2d_13">
      <g>
       <use style="stroke:#000000;stroke-width:0.5;" x="1282.7005993" xlink:href="#m095a1751fd" y="648.0"/>
      </g>
     </g>
     <g id="line2d_14">
      <g>
       <use style="stroke:#000000;stroke-width:0.5;" x="1282.7005993" xlink:href="#m51c610c233" y="72.0"/>
      </g>
     </g>
     <g id="text_6">
      <!-- Sep 11 2015 -->
      <g transform="translate(1244.6718493 661.118125)scale(0.12 -0.12)">
       <use xlink:href="#BitstreamVeraSans-Roman-53"/>
       <use x="63.4765625" xlink:href="#BitstreamVeraSans-Roman-65"/>
       <use x="125.0" xlink:href="#BitstreamVeraSans-Roman-70"/>
       <use x="188.4765625" xlink:href="#BitstreamVeraSans-Roman-20"/>
       <use x="220.263671875" xlink:href="#BitstreamVeraSans-Roman-31"/>
       <use x="283.88671875" xlink:href="#BitstreamVeraSans-Roman-31"/>
       <use x="347.509765625" xlink:href="#BitstreamVeraSans-Roman-20"/>
       <use x="379.296875" xlink:href="#BitstreamVeraSans-Roman-32"/>
       <use x="442.919921875" xlink:href="#BitstreamVeraSans-Roman-30"/>
       <use x="506.54296875" xlink:href="#BitstreamVeraSans-Roman-31"/>
       <use x="570.166015625" xlink:href="#BitstreamVeraSans-Roman-35"/>
      </g>
     </g>
    </g>
    <g id="xtick_7">
     <g id="line2d_15">
      <g>
       <use style="stroke:#000000;stroke-width:0.5;" x="1480.5956818" xlink:href="#m095a1751fd" y="648.0"/>
      </g>
     </g>
     <g id="line2d_16">
      <g>
       <use style="stroke:#000000;stroke-width:0.5;" x="1480.5956818" xlink:href="#m51c610c233" y="72.0"/>
      </g>
     </g>
     <g id="text_7">
      <!-- Sep 13 2015 -->
      <g transform="translate(1442.5669318 661.118125)scale(0.12 -0.12)">
       <use xlink:href="#BitstreamVeraSans-Roman-53"/>
       <use x="63.4765625" xlink:href="#BitstreamVeraSans-Roman-65"/>
       <use x="125.0" xlink:href="#BitstreamVeraSans-Roman-70"/>
       <use x="188.4765625" xlink:href="#BitstreamVeraSans-Roman-20"/>
       <use x="220.263671875" xlink:href="#BitstreamVeraSans-Roman-31"/>
       <use x="283.88671875" xlink:href="#BitstreamVeraSans-Roman-33"/>
       <use x="347.509765625" xlink:href="#BitstreamVeraSans-Roman-20"/>
       <use x="379.296875" xlink:href="#BitstreamVeraSans-Roman-32"/>
       <use x="442.919921875" xlink:href="#BitstreamVeraSans-Roman-30"/>
       <use x="506.54296875" xlink:href="#BitstreamVeraSans-Roman-31"/>
       <use x="570.166015625" xlink:href="#BitstreamVeraSans-Roman-35"/>
      </g>
     </g>
    </g>
    <g id="xtick_8">
     <g id="line2d_17">
      <g>
       <use style="stroke:#000000;stroke-width:0.5;" x="1678.4907643" xlink:href="#m095a1751fd" y="648.0"/>
      </g>
     </g>
     <g id="line2d_18">
      <g>
       <use style="stroke:#000000;stroke-width:0.5;" x="1678.4907643" xlink:href="#m51c610c233" y="72.0"/>
      </g>
     </g>
     <g id="text_8">
      <!-- Sep 15 2015 -->
      <g transform="translate(1640.4620143 661.118125)scale(0.12 -0.12)">
       <use xlink:href="#BitstreamVeraSans-Roman-53"/>
       <use x="63.4765625" xlink:href="#BitstreamVeraSans-Roman-65"/>
       <use x="125.0" xlink:href="#BitstreamVeraSans-Roman-70"/>
       <use x="188.4765625" xlink:href="#BitstreamVeraSans-Roman-20"/>
       <use x="220.263671875" xlink:href="#BitstreamVeraSans-Roman-31"/>
       <use x="283.88671875" xlink:href="#BitstreamVeraSans-Roman-35"/>
       <use x="347.509765625" xlink:href="#BitstreamVeraSans-Roman-20"/>
       <use x="379.296875" xlink:href="#BitstreamVeraSans-Roman-32"/>
       <use x="442.919921875" xlink:href="#BitstreamVeraSans-Roman-30"/>
       <use x="506.54296875" xlink:href="#BitstreamVeraSans-Roman-31"/>
       <use x="570.166015625" xlink:href="#BitstreamVeraSans-Roman-35"/>
      </g>
     </g>
    </g>
    <g id="xtick_9">
     <g id="line2d_19">
      <g>
       <use style="stroke:#000000;stroke-width:0.5;" x="1876.38584681" xlink:href="#m095a1751fd" y="648.0"/>
      </g>
     </g>
     <g id="line2d_20">
      <g>
       <use style="stroke:#000000;stroke-width:0.5;" x="1876.38584681" xlink:href="#m51c610c233" y="72.0"/>
      </g>
     </g>
     <g id="text_9">
      <!-- Sep 17 2015 -->
      <g transform="translate(1838.35709681 661.118125)scale(0.12 -0.12)">
       <use xlink:href="#BitstreamVeraSans-Roman-53"/>
       <use x="63.4765625" xlink:href="#BitstreamVeraSans-Roman-65"/>
       <use x="125.0" xlink:href="#BitstreamVeraSans-Roman-70"/>
       <use x="188.4765625" xlink:href="#BitstreamVeraSans-Roman-20"/>
       <use x="220.263671875" xlink:href="#BitstreamVeraSans-Roman-31"/>
       <use x="283.88671875" xlink:href="#BitstreamVeraSans-Roman-37"/>
       <use x="347.509765625" xlink:href="#BitstreamVeraSans-Roman-20"/>
       <use x="379.296875" xlink:href="#BitstreamVeraSans-Roman-32"/>
       <use x="442.919921875" xlink:href="#BitstreamVeraSans-Roman-30"/>
       <use x="506.54296875" xlink:href="#BitstreamVeraSans-Roman-31"/>
       <use x="570.166015625" xlink:href="#BitstreamVeraSans-Roman-35"/>
      </g>
     </g>
    </g>
   </g>
   <g id="matplotlib.axis_2">
    <g id="ytick_1">
     <g id="line2d_21">
      <defs>
       <path d="M 0 0 
L 4 0 
" id="m641d58a75a" style="stroke:#000000;stroke-width:0.5;"/>
      </defs>
      <g>
       <use style="stroke:#000000;stroke-width:0.5;" x="270.0" xlink:href="#m641d58a75a" y="648.0"/>
      </g>
     </g>
     <g id="line2d_22">
      <defs>
       <path d="M 0 0 
L -4 0 
" id="md44f39a052" style="stroke:#000000;stroke-width:0.5;"/>
      </defs>
      <g>
       <use style="stroke:#000000;stroke-width:0.5;" x="1944.0" xlink:href="#md44f39a052" y="648.0"/>
      </g>
     </g>
     <g id="text_10">
      <!-- 20 -->
      <g transform="translate(250.73 651.31125)scale(0.12 -0.12)">
       <use xlink:href="#BitstreamVeraSans-Roman-32"/>
       <use x="63.623046875" xlink:href="#BitstreamVeraSans-Roman-30"/>
      </g>
     </g>
    </g>
    <g id="ytick_2">
     <g id="line2d_23">
      <g>
       <use style="stroke:#000000;stroke-width:0.5;" x="270.0" xlink:href="#m641d58a75a" y="584.0"/>
      </g>
     </g>
     <g id="line2d_24">
      <g>
       <use style="stroke:#000000;stroke-width:0.5;" x="1944.0" xlink:href="#md44f39a052" y="584.0"/>
      </g>
     </g>
     <g id="text_11">
      <!-- 30 -->
      <g transform="translate(250.73 587.31125)scale(0.12 -0.12)">
       <use xlink:href="#BitstreamVeraSans-Roman-33"/>
       <use x="63.623046875" xlink:href="#BitstreamVeraSans-Roman-30"/>
      </g>
     </g>
    </g>
    <g id="ytick_3">
     <g id="line2d_25">
      <g>
       <use style="stroke:#000000;stroke-width:0.5;" x="270.0" xlink:href="#m641d58a75a" y="520.0"/>
      </g>
     </g>
     <g id="line2d_26">
      <g>
       <use style="stroke:#000000;stroke-width:0.5;" x="1944.0" xlink:href="#md44f39a052" y="520.0"/>
      </g>
     </g>
     <g id="text_12">
      <!-- 40 -->
      <defs>
       <path d="M 37.796875 64.3125 
L 12.890625 25.390625 
L 37.796875 25.390625 
z
M 35.203125 72.90625 
L 47.609375 72.90625 
L 47.609375 25.390625 
L 58.015625 25.390625 
L 58.015625 17.1875 
L 47.609375 17.1875 
L 47.609375 0 
L 37.796875 0 
L 37.796875 17.1875 
L 4.890625 17.1875 
L 4.890625 26.703125 
z
" id="BitstreamVeraSans-Roman-34"/>
      </defs>
      <g transform="translate(250.73 523.31125)scale(0.12 -0.12)">
       <use xlink:href="#BitstreamVeraSans-Roman-34"/>
       <use x="63.623046875" xlink:href="#BitstreamVeraSans-Roman-30"/>
      </g>
     </g>
    </g>
    <g id="ytick_4">
     <g id="line2d_27">
      <g>
       <use style="stroke:#000000;stroke-width:0.5;" x="270.0" xlink:href="#m641d58a75a" y="456.0"/>
      </g>
     </g>
     <g id="line2d_28">
      <g>
       <use style="stroke:#000000;stroke-width:0.5;" x="1944.0" xlink:href="#md44f39a052" y="456.0"/>
      </g>
     </g>
     <g id="text_13">
      <!-- 50 -->
      <g transform="translate(250.73 459.31125)scale(0.12 -0.12)">
       <use xlink:href="#BitstreamVeraSans-Roman-35"/>
       <use x="63.623046875" xlink:href="#BitstreamVeraSans-Roman-30"/>
      </g>
     </g>
    </g>
    <g id="ytick_5">
     <g id="line2d_29">
      <g>
       <use style="stroke:#000000;stroke-width:0.5;" x="270.0" xlink:href="#m641d58a75a" y="392.0"/>
      </g>
     </g>
     <g id="line2d_30">
      <g>
       <use style="stroke:#000000;stroke-width:0.5;" x="1944.0" xlink:href="#md44f39a052" y="392.0"/>
      </g>
     </g>
     <g id="text_14">
      <!-- 60 -->
      <defs>
       <path d="M 33.015625 40.375 
Q 26.375 40.375 22.484375 35.828125 
Q 18.609375 31.296875 18.609375 23.390625 
Q 18.609375 15.53125 22.484375 10.953125 
Q 26.375 6.390625 33.015625 6.390625 
Q 39.65625 6.390625 43.53125 10.953125 
Q 47.40625 15.53125 47.40625 23.390625 
Q 47.40625 31.296875 43.53125 35.828125 
Q 39.65625 40.375 33.015625 40.375 
M 52.59375 71.296875 
L 52.59375 62.3125 
Q 48.875 64.0625 45.09375 64.984375 
Q 41.3125 65.921875 37.59375 65.921875 
Q 27.828125 65.921875 22.671875 59.328125 
Q 17.53125 52.734375 16.796875 39.40625 
Q 19.671875 43.65625 24.015625 45.921875 
Q 28.375 48.1875 33.59375 48.1875 
Q 44.578125 48.1875 50.953125 41.515625 
Q 57.328125 34.859375 57.328125 23.390625 
Q 57.328125 12.15625 50.6875 5.359375 
Q 44.046875 -1.421875 33.015625 -1.421875 
Q 20.359375 -1.421875 13.671875 8.265625 
Q 6.984375 17.96875 6.984375 36.375 
Q 6.984375 53.65625 15.1875 63.9375 
Q 23.390625 74.21875 37.203125 74.21875 
Q 40.921875 74.21875 44.703125 73.484375 
Q 48.484375 72.75 52.59375 71.296875 
" id="BitstreamVeraSans-Roman-36"/>
      </defs>
      <g transform="translate(250.73 395.31125)scale(0.12 -0.12)">
       <use xlink:href="#BitstreamVeraSans-Roman-36"/>
       <use x="63.623046875" xlink:href="#BitstreamVeraSans-Roman-30"/>
      </g>
     </g>
    </g>
    <g id="ytick_6">
     <g id="line2d_31">
      <g>
       <use style="stroke:#000000;stroke-width:0.5;" x="270.0" xlink:href="#m641d58a75a" y="328.0"/>
      </g>
     </g>
     <g id="line2d_32">
      <g>
       <use style="stroke:#000000;stroke-width:0.5;" x="1944.0" xlink:href="#md44f39a052" y="328.0"/>
      </g>
     </g>
     <g id="text_15">
      <!-- 70 -->
      <g transform="translate(250.73 331.31125)scale(0.12 -0.12)">
       <use xlink:href="#BitstreamVeraSans-Roman-37"/>
       <use x="63.623046875" xlink:href="#BitstreamVeraSans-Roman-30"/>
      </g>
     </g>
    </g>
    <g id="ytick_7">
     <g id="line2d_33">
      <g>
       <use style="stroke:#000000;stroke-width:0.5;" x="270.0" xlink:href="#m641d58a75a" y="264.0"/>
      </g>
     </g>
     <g id="line2d_34">
      <g>
       <use style="stroke:#000000;stroke-width:0.5;" x="1944.0" xlink:href="#md44f39a052" y="264.0"/>
      </g>
     </g>
     <g id="text_16">
      <!-- 80 -->
      <defs>
       <path d="M 31.78125 34.625 
Q 24.75 34.625 20.71875 30.859375 
Q 16.703125 27.09375 16.703125 20.515625 
Q 16.703125 13.921875 20.71875 10.15625 
Q 24.75 6.390625 31.78125 6.390625 
Q 38.8125 6.390625 42.859375 10.171875 
Q 46.921875 13.96875 46.921875 20.515625 
Q 46.921875 27.09375 42.890625 30.859375 
Q 38.875 34.625 31.78125 34.625 
M 21.921875 38.8125 
Q 15.578125 40.375 12.03125 44.71875 
Q 8.5 49.078125 8.5 55.328125 
Q 8.5 64.0625 14.71875 69.140625 
Q 20.953125 74.21875 31.78125 74.21875 
Q 42.671875 74.21875 48.875 69.140625 
Q 55.078125 64.0625 55.078125 55.328125 
Q 55.078125 49.078125 51.53125 44.71875 
Q 48 40.375 41.703125 38.8125 
Q 48.828125 37.15625 52.796875 32.3125 
Q 56.78125 27.484375 56.78125 20.515625 
Q 56.78125 9.90625 50.3125 4.234375 
Q 43.84375 -1.421875 31.78125 -1.421875 
Q 19.734375 -1.421875 13.25 4.234375 
Q 6.78125 9.90625 6.78125 20.515625 
Q 6.78125 27.484375 10.78125 32.3125 
Q 14.796875 37.15625 21.921875 38.8125 
M 18.3125 54.390625 
Q 18.3125 48.734375 21.84375 45.5625 
Q 25.390625 42.390625 31.78125 42.390625 
Q 38.140625 42.390625 41.71875 45.5625 
Q 45.3125 48.734375 45.3125 54.390625 
Q 45.3125 60.0625 41.71875 63.234375 
Q 38.140625 66.40625 31.78125 66.40625 
Q 25.390625 66.40625 21.84375 63.234375 
Q 18.3125 60.0625 18.3125 54.390625 
" id="BitstreamVeraSans-Roman-38"/>
      </defs>
      <g transform="translate(250.73 267.31125)scale(0.12 -0.12)">
       <use xlink:href="#BitstreamVeraSans-Roman-38"/>
       <use x="63.623046875" xlink:href="#BitstreamVeraSans-Roman-30"/>
      </g>
     </g>
    </g>
    <g id="ytick_8">
     <g id="line2d_35">
      <g>
       <use style="stroke:#000000;stroke-width:0.5;" x="270.0" xlink:href="#m641d58a75a" y="200.0"/>
      </g>
     </g>
     <g id="line2d_36">
      <g>
       <use style="stroke:#000000;stroke-width:0.5;" x="1944.0" xlink:href="#md44f39a052" y="200.0"/>
      </g>
     </g>
     <g id="text_17">
      <!-- 90 -->
      <g transform="translate(250.73 203.31125)scale(0.12 -0.12)">
       <use xlink:href="#BitstreamVeraSans-Roman-39"/>
       <use x="63.623046875" xlink:href="#BitstreamVeraSans-Roman-30"/>
      </g>
     </g>
    </g>
    <g id="ytick_9">
     <g id="line2d_37">
      <g>
       <use style="stroke:#000000;stroke-width:0.5;" x="270.0" xlink:href="#m641d58a75a" y="136.0"/>
      </g>
     </g>
     <g id="line2d_38">
      <g>
       <use style="stroke:#000000;stroke-width:0.5;" x="1944.0" xlink:href="#md44f39a052" y="136.0"/>
      </g>
     </g>
     <g id="text_18">
      <!-- 100 -->
      <g transform="translate(243.095 139.31125)scale(0.12 -0.12)">
       <use xlink:href="#BitstreamVeraSans-Roman-31"/>
       <use x="63.623046875" xlink:href="#BitstreamVeraSans-Roman-30"/>
       <use x="127.24609375" xlink:href="#BitstreamVeraSans-Roman-30"/>
      </g>
     </g>
    </g>
    <g id="ytick_10">
     <g id="line2d_39">
      <g>
       <use style="stroke:#000000;stroke-width:0.5;" x="270.0" xlink:href="#m641d58a75a" y="72.0"/>
      </g>
     </g>
     <g id="line2d_40">
      <g>
       <use style="stroke:#000000;stroke-width:0.5;" x="1944.0" xlink:href="#md44f39a052" y="72.0"/>
      </g>
     </g>
     <g id="text_19">
      <!-- 110 -->
      <g transform="translate(243.095 75.31125)scale(0.12 -0.12)">
       <use xlink:href="#BitstreamVeraSans-Roman-31"/>
       <use x="63.623046875" xlink:href="#BitstreamVeraSans-Roman-31"/>
       <use x="127.24609375" xlink:href="#BitstreamVeraSans-Roman-30"/>
      </g>
     </g>
    </g>
   </g>
  </g>
 </g>
 <defs>
  <clipPath id="p405efa311f">
   <rect height="576.0" width="1674.0" x="270.0" y="72.0"/>
  </clipPath>
 </defs>
</svg>
