<?xml version="1.0" encoding="utf-8" standalone="no"?>
<!DOCTYPE svg PUBLIC "-//W3C//DTD SVG 1.1//EN"
  "http://www.w3.org/Graphics/SVG/1.1/DTD/svg11.dtd">
<!-- Created with matplotlib (http://matplotlib.org/) -->
<svg height="720pt" version="1.1" viewBox="0 0 2160 720" width="2160pt" xmlns="http://www.w3.org/2000/svg" xmlns:xlink="http://www.w3.org/1999/xlink">
 <defs>
  <style type="text/css">
*{stroke-linecap:butt;stroke-linejoin:round;stroke-miterlimit:100000;}
  </style>
 </defs>
 <g id="figure_1">
  <g id="patch_1">
   <path d="M 0 720 
L 2160 720 
L 2160 0 
L 0 0 
z
" style="fill:#ffffff;"/>
  </g>
  <g id="axes_1">
   <g id="patch_2">
    <path d="M 270 648 
L 1944 648 
L 1944 72 
L 270 72 
z
" style="fill:#ffffff;"/>
   </g>
   <g id="line2d_1">
    <path clip-path="url(#pcf7fe50026)" d="M 270 253.028571 
L 270.358704 211.885714 
L 270.717408 211.885714 
L 271.076112 203.657143 
L 272.152224 253.028571 
L 272.510928 211.885714 
L 272.869632 236.571429 
L 273.228336 236.571429 
L 273.58704 220.114286 
L 273.945744 220.114286 
L 274.304448 244.8 
L 274.663152 195.428571 
L 275.021857 236.571429 
L 275.739265 211.885714 
L 276.097969 294.171429 
L 276.456673 220.114286 
L 277.174081 236.571429 
L 277.532785 236.571429 
L 277.891489 228.342857 
L 278.250193 228.342857 
L 278.608897 244.8 
L 279.326305 211.885714 
L 280.043713 195.428571 
L 280.402417 244.8 
L 281.119825 220.114286 
L 281.478529 253.028571 
L 281.837233 261.257143 
L 282.195937 203.657143 
L 283.272049 253.028571 
L 283.630753 220.114286 
L 283.989457 211.885714 
L 284.706866 220.114286 
L 285.06557 211.885714 
L 285.424274 187.2 
L 285.782978 277.714286 
L 286.141682 244.8 
L 287.576498 244.8 
L 287.935202 211.885714 
L 288.293906 236.571429 
L 288.65261 211.885714 
L 289.370018 253.028571 
L 289.728722 170.742857 
L 290.087426 211.885714 
L 290.44613 236.571429 
L 290.804834 220.114286 
L 291.163538 244.8 
L 291.522242 195.428571 
L 291.880946 211.885714 
L 292.598354 195.428571 
L 292.957058 236.571429 
L 293.674466 211.885714 
L 294.391875 220.114286 
L 294.750579 211.885714 
L 295.109283 417.6 
L 295.467987 417.6 
L 295.826691 458.742857 
L 296.544099 244.8 
L 297.261507 170.742857 
L 297.620211 203.657143 
L 297.978915 195.428571 
L 298.265878 195.428571 
L 299.055027 228.342857 
L 299.413731 211.885714 
L 299.772435 187.2 
L 300.131139 187.2 
L 300.489843 236.571429 
L 300.848547 170.742857 
L 301.565955 211.885714 
L 301.924659 211.885714 
L 304.076883 187.2 
L 304.435588 211.885714 
L 305.152996 244.8 
L 306.229108 228.342857 
L 306.946516 178.971429 
L 308.022628 244.8 
L 309.457444 220.114286 
L 309.816148 244.8 
L 310.533556 236.571429 
L 310.89226 195.428571 
L 311.250964 236.571429 
L 311.609668 220.114286 
L 311.968372 195.428571 
L 312.327076 269.485714 
L 312.68578 187.2 
L 313.044484 187.2 
L 313.403188 236.571429 
L 313.761892 154.285714 
L 315.483672 211.885714 
L 316.272821 203.657143 
L 316.990229 253.028571 
L 317.348933 236.571429 
L 318.425045 236.571429 
L 318.783749 244.8 
L 319.142453 236.571429 
L 319.931602 269.485714 
L 320.218565 253.028571 
L 320.577269 220.114286 
L 320.935973 269.485714 
L 324.523014 113.142857 
L 324.881718 261.257143 
L 326.316534 244.8 
L 330.262278 220.114286 
L 330.979686 187.2 
L 334.925431 244.8 
L 335.642839 253.028571 
L 336.360247 228.342857 
L 337.436359 294.171429 
L 337.795063 294.171429 
L 340.664695 261.257143 
L 341.023399 269.485714 
L 341.740807 269.485714 
L 342.81692 203.657143 
L 343.175624 277.714286 
L 344.251736 178.971429 
L 344.61044 195.428571 
L 344.969144 170.742857 
L 345.327848 228.342857 
L 345.686552 211.885714 
L 346.40396 187.2 
L 346.762664 236.571429 
L 347.121368 220.114286 
L 347.838776 162.514286 
L 348.19748 203.657143 
L 348.914888 220.114286 
L 349.273592 211.885714 
L 349.632296 220.114286 
L 349.991 236.571429 
L 350.349704 228.342857 
L 350.708408 236.571429 
L 351.425816 277.714286 
L 351.78452 269.485714 
L 352.143224 253.028571 
L 352.860633 285.942857 
L 353.219337 442.285714 
L 353.578041 236.571429 
L 353.936745 253.028571 
L 354.295449 244.8 
L 354.654153 450.514286 
L 355.012857 475.2 
L 355.371561 302.4 
L 355.730265 261.257143 
L 356.088969 277.714286 
L 356.447673 302.4 
L 357.165081 269.485714 
L 357.523785 285.942857 
L 357.882489 269.485714 
L 358.241193 294.171429 
L 358.599897 343.542857 
L 358.958601 302.4 
L 359.317305 302.4 
L 359.676009 253.028571 
L 360.034713 302.4 
L 360.393417 277.714286 
L 360.752121 343.542857 
L 361.110825 294.171429 
L 361.469529 327.085714 
L 361.828233 327.085714 
L 362.186937 277.714286 
L 362.545642 310.628571 
L 362.904346 294.171429 
L 363.26305 294.171429 
L 363.621754 351.771429 
L 363.980458 302.4 
L 364.697866 228.342857 
L 365.05657 211.885714 
L 365.415274 220.114286 
L 365.773978 220.114286 
L 366.85009 178.971429 
L 367.208794 228.342857 
L 367.567498 211.885714 
L 367.926202 244.8 
L 368.284906 228.342857 
L 369.361018 228.342857 
L 369.719722 211.885714 
L 370.078426 211.885714 
L 370.43713 228.342857 
L 370.795834 211.885714 
L 371.154538 178.971429 
L 371.513242 244.8 
L 372.230651 220.114286 
L 373.306763 195.428571 
L 373.665467 253.028571 
L 374.382875 203.657143 
L 374.741579 220.114286 
L 375.100283 220.114286 
L 375.458987 261.257143 
L 375.817691 220.114286 
L 376.176395 228.342857 
L 376.893803 269.485714 
L 377.252507 220.114286 
L 377.611211 236.571429 
L 377.969915 203.657143 
L 378.328619 228.342857 
L 378.687323 203.657143 
L 379.404731 220.114286 
L 379.763435 195.428571 
L 380.122139 220.114286 
L 380.480843 302.4 
L 380.839547 236.571429 
L 381.198251 228.342857 
L 381.556956 236.571429 
L 381.91566 220.114286 
L 382.633068 220.114286 
L 382.991772 195.428571 
L 384.067884 261.257143 
L 384.426588 203.657143 
L 384.785292 211.885714 
L 385.143996 211.885714 
L 385.5027 228.342857 
L 385.861404 228.342857 
L 386.220108 203.657143 
L 386.578812 261.257143 
L 386.937516 220.114286 
L 387.29622 236.571429 
L 387.654924 228.342857 
L 388.013628 236.571429 
L 388.731036 195.428571 
L 389.08974 228.342857 
L 389.448444 220.114286 
L 389.807148 244.8 
L 390.165852 261.257143 
L 390.524556 236.571429 
L 390.88326 228.342857 
L 391.241965 228.342857 
L 391.600669 211.885714 
L 391.959373 228.342857 
L 392.318077 178.971429 
L 392.676781 236.571429 
L 393.035485 195.428571 
L 393.752893 211.885714 
L 394.111597 195.428571 
L 394.470301 220.114286 
L 394.829005 203.657143 
L 395.187709 236.571429 
L 395.546413 195.428571 
L 395.905117 244.8 
L 396.263821 236.571429 
L 396.622525 261.257143 
L 396.981229 261.257143 
L 397.339933 203.657143 
L 397.698637 236.571429 
L 398.057341 228.342857 
L 398.416045 203.657143 
L 398.774749 244.8 
L 399.133453 203.657143 
L 399.492157 211.885714 
L 399.850861 203.657143 
L 400.209565 203.657143 
L 400.568269 211.885714 
L 400.926974 187.2 
L 402.003086 228.342857 
L 402.36179 220.114286 
L 402.720494 203.657143 
L 404.15531 203.657143 
L 404.872718 187.2 
L 405.590126 178.971429 
L 405.94883 195.428571 
L 406.307534 203.657143 
L 406.666238 195.428571 
L 407.455387 195.428571 
L 408.531499 236.571429 
L 408.890203 195.428571 
L 409.607611 253.028571 
L 410.325019 244.8 
L 410.683723 228.342857 
L 411.042427 220.114286 
L 411.401131 285.942857 
L 411.759835 203.657143 
L 412.118539 228.342857 
L 412.835948 236.571429 
L 413.194652 195.428571 
L 413.553356 187.2 
L 414.270764 211.885714 
L 414.988172 195.428571 
L 416.064284 277.714286 
L 416.422988 187.2 
L 417.140396 228.342857 
L 418.216508 203.657143 
L 418.933916 220.114286 
L 419.29262 211.885714 
L 419.651324 261.257143 
L 420.727436 228.342857 
L 421.803548 236.571429 
L 422.520957 178.971429 
L 423.238365 203.657143 
L 423.955773 253.028571 
L 424.314477 203.657143 
L 425.031885 236.571429 
L 426.107997 253.028571 
L 428.260221 261.257143 
L 428.977629 178.971429 
L 429.336333 269.485714 
L 430.053741 277.714286 
L 431.488557 220.114286 
L 431.847262 360 
L 432.205966 236.571429 
L 432.923374 228.342857 
L 433.999486 211.885714 
L 435.793006 211.885714 
L 438.662638 236.571429 
L 439.380046 253.028571 
L 440.097454 187.2 
L 441.532271 253.028571 
L 442.608383 228.342857 
L 443.325791 178.971429 
L 443.684495 220.114286 
L 445.478015 228.342857 
L 446.912831 203.657143 
L 447.988943 162.514286 
L 449.065055 228.342857 
L 449.782463 203.657143 
L 451.217279 195.428571 
L 451.934688 178.971429 
L 452.652096 195.428571 
L 453.0108 170.742857 
L 453.369504 178.971429 
L 453.728208 203.657143 
L 454.086912 187.2 
L 454.445616 137.828571 
L 454.80432 253.028571 
L 455.163024 203.657143 
L 455.880432 220.114286 
L 456.239136 121.371429 
L 456.956544 195.428571 
L 458.032656 170.742857 
L 458.39136 228.342857 
L 458.750064 203.657143 
L 459.108768 244.8 
L 459.467472 178.971429 
L 459.826176 211.885714 
L 460.18488 211.885714 
L 460.543584 187.2 
L 460.902288 244.8 
L 461.619697 187.2 
L 461.978401 228.342857 
L 462.337105 228.342857 
L 464.130625 211.885714 
L 464.489329 269.485714 
L 464.848033 211.885714 
L 465.206737 228.342857 
L 465.565441 195.428571 
L 466.282849 220.114286 
L 467.000257 195.428571 
L 467.358961 203.657143 
L 467.717665 195.428571 
L 468.076369 220.114286 
L 468.435073 187.2 
L 468.793777 187.2 
L 469.511185 211.885714 
L 469.869889 236.571429 
L 470.228593 195.428571 
L 470.587297 187.2 
L 470.946002 236.571429 
L 471.304706 228.342857 
L 472.022114 187.2 
L 472.380818 178.971429 
L 473.815634 244.8 
L 474.174338 236.571429 
L 474.533042 236.571429 
L 475.25045 211.885714 
L 475.609154 211.885714 
L 475.967858 228.342857 
L 477.04397 228.342857 
L 477.402674 220.114286 
L 477.761378 228.342857 
L 478.120082 211.885714 
L 478.478786 211.885714 
L 479.196194 203.657143 
L 479.554898 211.885714 
L 479.913602 195.428571 
L 480.272307 195.428571 
L 480.631011 187.2 
L 480.989715 220.114286 
L 481.348419 211.885714 
L 482.065827 211.885714 
L 482.783235 228.342857 
L 483.141939 220.114286 
L 483.859347 178.971429 
L 484.218051 170.742857 
L 485.294163 203.657143 
L 485.652867 220.114286 
L 486.011571 211.885714 
L 486.370275 187.2 
L 486.728979 228.342857 
L 487.087683 220.114286 
L 487.805091 228.342857 
L 488.163795 211.885714 
L 488.522499 228.342857 
L 488.881203 195.428571 
L 489.239907 302.4 
L 489.598611 178.971429 
L 489.957316 162.514286 
L 490.674724 195.428571 
L 491.392132 211.885714 
L 491.750836 195.428571 
L 492.10954 187.2 
L 492.468244 261.257143 
L 492.826948 228.342857 
L 493.544356 211.885714 
L 493.90306 220.114286 
L 494.620468 228.342857 
L 495.69658 203.657143 
L 496.055284 220.114286 
L 496.413988 178.971429 
L 496.772692 211.885714 
L 497.4901 195.428571 
L 498.207508 162.514286 
L 498.924916 195.428571 
L 499.28362 236.571429 
L 499.642324 195.428571 
L 500.001029 220.114286 
L 500.718437 187.2 
L 501.077141 187.2 
L 501.435845 195.428571 
L 502.153253 203.657143 
L 502.511957 228.342857 
L 503.229365 203.657143 
L 503.588069 211.885714 
L 503.946773 178.971429 
L 504.305477 211.885714 
L 504.664181 187.2 
L 505.022885 187.2 
L 505.740293 203.657143 
L 506.098997 187.2 
L 506.457701 178.971429 
L 506.816405 211.885714 
L 507.175109 211.885714 
L 507.533813 203.657143 
L 508.251221 195.428571 
L 508.609925 178.971429 
L 508.968629 203.657143 
L 509.327333 162.514286 
L 509.686038 220.114286 
L 510.044742 220.114286 
L 510.403446 187.2 
L 510.76215 187.2 
L 511.479558 146.057143 
L 512.268707 162.514286 
L 512.627411 203.657143 
L 513.344819 211.885714 
L 513.703523 195.428571 
L 514.062227 211.885714 
L 514.779635 211.885714 
L 516.573155 220.114286 
L 516.931859 187.2 
L 517.649267 178.971429 
L 518.366675 236.571429 
L 518.725379 228.342857 
L 519.084083 162.514286 
L 519.442787 220.114286 
L 519.801491 220.114286 
L 520.160195 154.285714 
L 520.518899 195.428571 
L 520.877603 187.2 
L 521.236308 162.514286 
L 522.31242 236.571429 
L 523.029828 211.885714 
L 523.747236 203.657143 
L 526.616868 220.114286 
L 528.051684 220.114286 
L 529.127796 244.8 
L 529.4865 285.942857 
L 529.845204 228.342857 
L 530.921317 170.742857 
L 531.997429 211.885714 
L 532.714837 211.885714 
L 535.225765 228.342857 
L 536.301877 244.8 
L 537.736693 253.028571 
L 538.095397 244.8 
L 539.171509 178.971429 
L 539.530213 220.114286 
L 540.96503 154.285714 
L 547.780406 310.628571 
L 548.856518 203.657143 
L 549.215222 203.657143 
L 549.573926 236.571429 
L 549.93263 327.085714 
L 550.291335 228.342857 
L 550.650039 187.2 
L 551.726151 203.657143 
L 553.519671 170.742857 
L 553.878375 211.885714 
L 554.237079 170.742857 
L 555.313191 220.114286 
L 556.030599 203.657143 
L 556.389303 178.971429 
L 557.106711 211.885714 
L 557.465415 261.257143 
L 557.824119 211.885714 
L 558.182823 211.885714 
L 558.541527 228.342857 
L 558.900231 220.114286 
L 559.258935 220.114286 
L 559.617639 187.2 
L 559.976344 211.885714 
L 560.335048 220.114286 
L 560.693752 162.514286 
L 561.052456 195.428571 
L 561.41116 187.2 
L 561.769864 211.885714 
L 562.128568 195.428571 
L 562.487272 244.8 
L 563.20468 228.342857 
L 563.922088 203.657143 
L 564.280792 220.114286 
L 565.715608 203.657143 
L 566.074312 187.2 
L 566.433016 220.114286 
L 566.79172 203.657143 
L 567.150424 220.114286 
L 567.509128 203.657143 
L 567.867832 244.8 
L 568.226536 211.885714 
L 568.58524 244.8 
L 569.302648 195.428571 
L 569.661353 203.657143 
L 570.020057 220.114286 
L 571.096169 244.8 
L 571.454873 220.114286 
L 571.813577 236.571429 
L 572.530985 236.571429 
L 572.889689 178.971429 
L 573.248393 244.8 
L 573.607097 211.885714 
L 574.324505 236.571429 
L 574.683209 211.885714 
L 575.400617 211.885714 
L 575.759321 253.028571 
L 576.118025 228.342857 
L 576.835433 187.2 
L 577.552841 236.571429 
L 577.911545 220.114286 
L 578.270249 228.342857 
L 578.987657 228.342857 
L 579.346362 220.114286 
L 579.705066 203.657143 
L 580.06377 236.571429 
L 580.422474 220.114286 
L 580.781178 211.885714 
L 581.85729 211.885714 
L 582.215994 154.285714 
L 584.368218 211.885714 
L 585.085626 187.2 
L 585.803034 170.742857 
L 587.596554 220.114286 
L 587.955258 195.428571 
L 588.313962 211.885714 
L 588.672666 253.028571 
L 589.390075 228.342857 
L 590.107483 211.885714 
L 591.183595 162.514286 
L 591.901003 220.114286 
L 592.259707 203.657143 
L 592.618411 195.428571 
L 592.977115 220.114286 
L 593.694523 170.742857 
L 594.411931 195.428571 
L 594.770635 220.114286 
L 595.129339 236.571429 
L 595.846747 170.742857 
L 596.205451 211.885714 
L 596.564155 211.885714 
L 597.281563 195.428571 
L 597.640267 195.428571 
L 597.998971 187.2 
L 599.075084 195.428571 
L 599.433788 203.657143 
L 600.151196 187.2 
L 600.5099 187.2 
L 600.868604 236.571429 
L 601.227308 220.114286 
L 601.586012 170.742857 
L 602.30342 162.514286 
L 604.09694 178.971429 
L 604.455644 220.114286 
L 604.814348 195.428571 
L 605.173052 137.828571 
L 605.531756 203.657143 
L 606.249164 220.114286 
L 606.607868 170.742857 
L 606.966572 236.571429 
L 607.68398 162.514286 
L 608.401389 211.885714 
L 608.760093 203.657143 
L 609.477501 220.114286 
L 610.194909 178.971429 
L 610.553613 178.971429 
L 611.271021 195.428571 
L 612.347133 170.742857 
L 613.423245 211.885714 
L 614.140653 203.657143 
L 615.216765 146.057143 
L 615.934173 178.971429 
L 616.292877 178.971429 
L 616.651581 236.571429 
L 617.010285 203.657143 
L 617.727693 195.428571 
L 618.086398 195.428571 
L 618.158138 178.971429 
L 618.875546 211.885714 
L 619.23425 220.114286 
L 621.386475 170.742857 
L 622.103883 220.114286 
L 622.462587 220.114286 
L 622.821291 187.2 
L 623.179995 228.342857 
L 623.897403 203.657143 
L 624.256107 187.2 
L 624.614811 228.342857 
L 624.973515 228.342857 
L 625.690923 203.657143 
L 626.049627 302.4 
L 626.408331 211.885714 
L 627.125739 228.342857 
L 990.205966 195.428571 
L 990.923374 178.971429 
L 991.282078 211.885714 
L 991.640782 203.657143 
L 992.35819 211.885714 
L 992.716894 187.2 
L 993.075598 211.885714 
L 993.434302 170.742857 
L 993.793006 195.428571 
L 994.869118 187.2 
L 995.227822 178.971429 
L 995.586526 220.114286 
L 995.94523 195.428571 
L 996.303934 203.657143 
L 997.021342 203.657143 
L 997.380046 220.114286 
L 997.595269 187.2 
L 997.953973 211.885714 
L 998.240936 195.428571 
L 998.958344 203.657143 
L 999.675752 178.971429 
L 1000.034456 220.114286 
L 1000.39316 203.657143 
L 1001.110568 220.114286 
L 1001.469272 187.2 
L 1001.827976 220.114286 
L 1002.545384 187.2 
L 1002.904088 211.885714 
L 1003.621497 211.885714 
L 1003.980201 203.657143 
L 1004.267164 211.885714 
L 1005.056313 211.885714 
L 1005.773721 203.657143 
L 1006.132425 203.657143 
L 1006.491129 187.2 
L 1006.849833 203.657143 
L 1007.208537 187.2 
L 1007.567241 261.257143 
L 1007.925945 195.428571 
L 1008.284649 195.428571 
L 1008.643353 203.657143 
L 1009.002057 187.2 
L 1009.360761 220.114286 
L 1010.078169 170.742857 
L 1010.652096 187.2 
L 1013.952173 220.114286 
L 1015.817434 178.971429 
L 1016.176138 211.885714 
L 1016.534842 220.114286 
L 1016.893546 187.2 
L 1017.969658 253.028571 
L 1018.328362 203.657143 
L 1018.687066 170.742857 
L 1019.04577 170.742857 
L 1019.404474 211.885714 
L 1019.763178 187.2 
L 1020.121882 195.428571 
L 1020.480586 211.885714 
L 1020.83929 211.885714 
L 1021.197994 228.342857 
L 1021.269735 187.2 
L 1023.350219 187.2 
L 1023.708923 195.428571 
L 1024.067627 228.342857 
L 1024.785035 195.428571 
L 1025.143739 228.342857 
L 1025.861147 203.657143 
L 1026.219851 178.971429 
L 1026.578555 187.2 
L 1028.013371 203.657143 
L 1028.372075 220.114286 
L 1029.089483 228.342857 
L 1029.448187 211.885714 
L 1030.524299 187.2 
L 1031.241707 162.514286 
L 1031.959115 220.114286 
L 1032.676524 195.428571 
L 1033.752636 220.114286 
L 1034.470044 203.657143 
L 1034.828748 170.742857 
L 1035.187452 170.742857 
L 1036.263564 220.114286 
L 1036.622268 195.428571 
L 1036.980972 220.114286 
L 1037.339676 220.114286 
L 1037.69838 170.742857 
L 1038.415788 195.428571 
L 1038.774492 195.428571 
L 1039.133196 261.257143 
L 1039.563641 211.885714 
L 1040.568012 253.028571 
L 1041.28542 203.657143 
L 1042.361533 170.742857 
L 1042.720237 277.714286 
L 1043.078941 228.342857 
L 1043.437645 220.114286 
L 1043.796349 195.428571 
L 1047.383389 236.571429 
L 1048.100797 318.857143 
L 1049.894317 228.342857 
L 1051.687837 211.885714 
L 1052.405246 195.428571 
L 1055.274878 220.114286 
L 1056.35099 269.485714 
L 1058.14451 228.342857 
L 1059.220622 187.2 
L 1073.425302 187.2 
L 1079.881975 220.114286 
L 1089.495243 203.657143 
L 1090.930059 236.571429 
L 1091.288763 195.428571 
L 1091.647467 236.571429 
L 1092.006171 203.657143 
L 1092.723579 187.2 
L 1093.082283 236.571429 
L 1093.440987 211.885714 
L 1094.158395 195.428571 
L 1094.517099 253.028571 
L 1094.875804 228.342857 
L 1095.234508 236.571429 
L 1095.951916 178.971429 
L 1096.669324 195.428571 
L 1097.028028 211.885714 
L 1097.386732 220.114286 
L 1097.745436 187.2 
L 1098.10414 187.2 
L 1098.462844 228.342857 
L 1099.180252 211.885714 
L 1099.538956 236.571429 
L 1099.89766 244.8 
L 1100.256364 228.342857 
L 1100.615068 220.114286 
L 1100.973772 244.8 
L 1101.69118 195.428571 
L 1102.049884 211.885714 
L 1102.408588 244.8 
L 1102.767292 178.971429 
L 1103.125996 228.342857 
L 1103.843404 220.114286 
L 1104.202109 195.428571 
L 1104.560813 236.571429 
L 1104.919517 211.885714 
L 1105.278221 228.342857 
L 1105.636925 220.114286 
L 1105.995629 203.657143 
L 1106.354333 178.971429 
L 1107.430445 178.971429 
L 1107.789149 195.428571 
L 1108.147853 220.114286 
L 1108.506557 154.285714 
L 1108.865261 187.2 
L 1109.223965 195.428571 
L 1109.941373 170.742857 
L 1110.300077 220.114286 
L 1110.658781 137.828571 
L 1111.017485 211.885714 
L 1111.734893 195.428571 
L 1112.093597 178.971429 
L 1112.811005 211.885714 
L 1113.169709 211.885714 
L 1113.528413 203.657143 
L 1113.887118 211.885714 
L 1114.245822 228.342857 
L 1115.321934 211.885714 
L 1115.680638 195.428571 
L 1116.75675 187.2 
L 1117.115454 195.428571 
L 1117.474158 195.428571 
L 1118.191566 203.657143 
L 1118.55027 178.971429 
L 1119.267678 195.428571 
L 1119.626382 170.742857 
L 1119.985086 195.428571 
L 1120.34379 211.885714 
L 1121.061198 178.971429 
L 1121.778606 220.114286 
L 1122.13731 195.428571 
L 1122.496014 178.971429 
L 1122.854718 178.971429 
L 1123.213422 170.742857 
L 1123.572127 154.285714 
L 1124.648239 162.514286 
L 1125.006943 195.428571 
L 1125.365647 203.657143 
L 1126.441759 162.514286 
L 1126.800463 170.742857 
L 1127.159167 187.2 
L 1127.517871 178.971429 
L 1128.235279 195.428571 
L 1128.952687 195.428571 
L 1129.311391 178.971429 
L 1129.670095 178.971429 
L 1130.028799 220.114286 
L 1130.387503 203.657143 
L 1130.746207 162.514286 
L 1131.104911 211.885714 
L 1131.463615 178.971429 
L 1132.181023 203.657143 
L 1132.539727 178.971429 
L 1133.257136 220.114286 
L 1135.050656 137.828571 
L 1135.40936 228.342857 
L 1135.768064 228.342857 
L 1136.126768 261.257143 
L 1136.485472 318.857143 
L 1136.844176 244.8 
L 1137.920288 269.485714 
L 1138.637696 228.342857 
L 1138.9964 228.342857 
L 1139.713808 220.114286 
L 1140.78992 211.885714 
L 1141.148624 277.714286 
L 1141.507328 178.971429 
L 1141.866032 244.8 
L 1142.224736 244.8 
L 1142.58344 228.342857 
L 1142.942144 253.028571 
L 1143.659553 236.571429 
L 1144.018257 327.085714 
L 1145.309591 220.114286 
L 1147.605297 220.114286 
L 1147.964001 253.028571 
L 1148.322705 253.028571 
L 1148.681409 170.742857 
L 1149.040113 294.171429 
L 1149.757521 269.485714 
L 1150.833633 261.257143 
L 1151.551041 220.114286 
L 1151.909745 285.942857 
L 1152.268449 220.114286 
L 1158.366418 269.485714 
L 1158.725122 154.285714 
L 1159.801234 211.885714 
L 1163.029571 137.828571 
L 1167.262278 253.028571 
L 1170.275392 277.714286 
L 1174.149396 228.342857 
L 1174.5081 187.2 
L 1174.5081 220.114286 
L 1174.866804 187.2 
L 1185.053998 187.2 
L 1186.345333 211.885714 
L 1186.704037 236.571429 
L 1187.062741 211.885714 
L 1187.780149 220.114286 
L 1188.138853 220.114286 
L 1188.497557 211.885714 
L 1188.856261 195.428571 
L 1189.214965 195.428571 
L 1189.573669 228.342857 
L 1190.291077 203.657143 
L 1190.649781 203.657143 
L 1191.367189 236.571429 
L 1191.725894 195.428571 
L 1192.084598 178.971429 
L 1192.443302 211.885714 
L 1193.088969 211.885714 
L 1193.447673 170.742857 
L 1193.806377 228.342857 
L 1194.165081 195.428571 
L 1194.523785 195.428571 
L 1194.882489 187.2 
L 1195.599897 178.971429 
L 1195.958601 195.428571 
L 1196.317305 195.428571 
L 1196.676009 203.657143 
L 1197.034713 220.114286 
L 1197.393417 228.342857 
L 1197.752121 211.885714 
L 1198.110825 203.657143 
L 1198.469529 178.971429 
L 1198.828233 220.114286 
L 1199.186938 211.885714 
L 1199.545642 195.428571 
L 1199.904346 211.885714 
L 1200.26305 211.885714 
L 1200.621754 195.428571 
L 1200.980458 220.114286 
L 1201.697866 220.114286 
L 1202.05657 187.2 
L 1203.132682 236.571429 
L 1203.491386 195.428571 
L 1204.926202 195.428571 
L 1205.64361 211.885714 
L 1206.002314 244.8 
L 1206.361018 211.885714 
L 1206.719722 195.428571 
L 1207.078426 228.342857 
L 1207.43713 195.428571 
L 1207.795834 187.2 
L 1208.154538 220.114286 
L 1208.871947 195.428571 
L 1209.230651 211.885714 
L 1209.948059 220.114286 
L 1210.306763 220.114286 
L 1210.665467 178.971429 
L 1211.024171 154.285714 
L 1211.382875 203.657143 
L 1211.741579 187.2 
L 1212.100283 162.514286 
L 1212.817691 211.885714 
L 1213.176395 228.342857 
L 1213.535099 203.657143 
L 1214.252507 162.514286 
L 1214.611211 178.971429 
L 1214.969915 211.885714 
L 1215.328619 170.742857 
L 1215.687323 195.428571 
L 1216.404731 195.428571 
L 1216.763435 178.971429 
L 1217.122139 211.885714 
L 1217.480843 195.428571 
L 1218.198251 195.428571 
L 1218.91566 187.2 
L 1219.274364 203.657143 
L 1219.633068 195.428571 
L 1220.350476 187.2 
L 1220.70918 220.114286 
L 1221.067884 195.428571 
L 1221.426588 220.114286 
L 1221.785292 170.742857 
L 1222.143996 187.2 
L 1222.5027 170.742857 
L 1223.220108 195.428571 
L 1223.578812 187.2 
L 1223.937516 203.657143 
L 1224.29622 187.2 
L 1224.654924 203.657143 
L 1225.013628 195.428571 
L 1225.372332 146.057143 
L 1225.731036 203.657143 
L 1226.08974 187.2 
L 1226.448444 195.428571 
L 1227.165852 187.2 
L 1227.524556 203.657143 
L 1227.88326 195.428571 
L 1228.241965 162.514286 
L 1228.600669 187.2 
L 1228.959373 187.2 
L 1229.676781 203.657143 
L 1230.035485 195.428571 
L 1230.394189 211.885714 
L 1230.752893 178.971429 
L 1231.111597 203.657143 
L 1232.187709 178.971429 
L 1232.546413 187.2 
L 1232.905117 162.514286 
L 1233.263821 178.971429 
L 1233.981229 178.971429 
L 1234.339933 211.885714 
L 1234.698637 170.742857 
L 1235.416045 220.114286 
L 1235.774749 178.971429 
L 1236.133453 154.285714 
L 1236.492157 236.571429 
L 1236.850861 178.971429 
L 1237.209565 195.428571 
L 1237.568269 195.428571 
L 1237.926974 203.657143 
L 1238.285678 195.428571 
L 1238.716122 195.428571 
L 1239.003086 220.114286 
L 1239.43353 220.114286 
L 1240.437902 203.657143 
L 1240.796606 129.6 
L 1241.514014 195.428571 
L 1241.872718 203.657143 
L 1242.231422 170.742857 
L 1242.590126 195.428571 
L 1244.383646 195.428571 
L 1244.74235 220.114286 
L 1246.177166 162.514286 
L 1247.253278 220.114286 
L 1247.611983 195.428571 
L 1249.046799 187.2 
L 1250.840319 170.742857 
L 1251.199023 244.8 
L 1251.916431 228.342857 
L 1252.275135 211.885714 
L 1254.068655 236.571429 
L 1255.862175 203.657143 
L 1256.579583 261.257143 
L 1257.655696 195.428571 
L 1258.0144 211.885714 
L 1259.090512 220.114286 
L 1262.318848 220.114286 
L 1263.753664 228.342857 
L 1269.134225 220.114286 
L 1269.851633 195.428571 
L 1270.210337 170.742857 
L 1270.927745 228.342857 
L 1273.438673 178.971429 
L 1274.514785 236.571429 
L 1274.873489 244.8 
L 1275.232193 195.428571 
L 1275.590897 211.885714 
L 1275.949601 187.2 
L 1276.308305 253.028571 
L 1276.66701 187.2 
L 1277.384418 178.971429 
L 1277.743122 195.428571 
L 1278.101826 187.2 
L 1278.819234 178.971429 
L 1279.177938 195.428571 
L 1279.536642 170.742857 
L 1279.895346 187.2 
L 1280.25405 178.971429 
L 1280.612754 211.885714 
L 1280.971458 162.514286 
L 1281.330162 294.171429 
L 1281.688866 195.428571 
L 1282.406274 203.657143 
L 1283.123682 203.657143 
L 1283.482386 195.428571 
L 1283.84109 178.971429 
L 1284.199794 178.971429 
L 1284.558498 211.885714 
L 1284.917202 178.971429 
L 1285.275906 195.428571 
L 1286.352019 220.114286 
L 1286.710723 220.114286 
L 1287.069427 203.657143 
L 1288.145539 178.971429 
L 1288.504243 195.428571 
L 1288.862947 178.971429 
L 1289.221651 203.657143 
L 1289.939059 170.742857 
L 1290.297763 170.742857 
L 1290.656467 220.114286 
L 1291.373875 187.2 
L 1292.449987 187.2 
L 1292.808691 220.114286 
L 1293.884803 195.428571 
L 1294.243507 220.114286 
L 1294.602211 195.428571 
L 1294.960915 253.028571 
L 1295.319619 203.657143 
L 1296.037028 220.114286 
L 1296.395732 195.428571 
L 1297.471844 195.428571 
L 1297.830548 228.342857 
L 1298.189252 220.114286 
L 1298.547956 228.342857 
L 1298.90666 211.885714 
L 1299.050141 195.428571 
L 1299.408845 211.885714 
L 1299.767549 203.657143 
L 1300.126254 170.742857 
L 1300.484958 187.2 
L 1301.202366 195.428571 
L 1301.919774 187.2 
L 1302.278478 211.885714 
L 1302.637182 228.342857 
L 1302.995886 220.114286 
L 1303.35459 195.428571 
L 1303.713294 228.342857 
L 1304.071998 220.114286 
L 1304.430702 220.114286 
L 1305.14811 203.657143 
L 1305.506814 187.2 
L 1306.224222 220.114286 
L 1306.582926 220.114286 
L 1307.300334 195.428571 
L 1308.017742 187.2 
L 1308.376446 187.2 
L 1308.73515 211.885714 
L 1309.811263 211.885714 
L 1310.169967 178.971429 
L 1310.528671 236.571429 
L 1310.887375 228.342857 
L 1311.604783 220.114286 
L 1311.963487 187.2 
L 1312.322191 203.657143 
L 1312.680895 187.2 
L 1313.039599 178.971429 
L 1313.757007 178.971429 
L 1314.115711 236.571429 
L 1314.474415 154.285714 
L 1314.833119 211.885714 
L 1315.191823 244.8 
L 1315.909231 203.657143 
L 1316.267935 195.428571 
L 1316.626639 220.114286 
L 1316.985343 211.885714 
L 1317.344047 220.114286 
L 1318.061455 211.885714 
L 1318.420159 203.657143 
L 1318.778863 220.114286 
L 1319.137567 187.2 
L 1319.496272 195.428571 
L 1320.21368 195.428571 
L 1320.572384 236.571429 
L 1320.931088 203.657143 
L 1321.289792 203.657143 
L 1321.648496 170.742857 
L 1322.0072 203.657143 
L 1322.365904 211.885714 
L 1323.442016 170.742857 
L 1324.159424 195.428571 
L 1324.518128 170.742857 
L 1324.876832 187.2 
L 1325.235536 170.742857 
L 1325.952944 178.971429 
L 1326.311648 195.428571 
L 1327.029056 211.885714 
L 1327.38776 162.514286 
L 1327.746464 187.2 
L 1328.105168 170.742857 
L 1328.463872 170.742857 
L 1328.822576 203.657143 
L 1329.181281 170.742857 
L 1329.539985 195.428571 
L 1329.898689 178.971429 
L 1330.616097 178.971429 
L 1330.974801 170.742857 
L 1331.333505 154.285714 
L 1331.692209 187.2 
L 1332.553098 195.428571 
L 1332.911803 162.514286 
L 1333.270507 195.428571 
L 1333.987915 228.342857 
L 1334.346619 220.114286 
L 1334.705323 187.2 
L 1335.064027 187.2 
L 1335.422731 154.285714 
L 1335.781435 195.428571 
L 1336.498843 178.971429 
L 1336.857547 203.657143 
L 1337.216251 154.285714 
L 1337.574955 187.2 
L 1337.933659 187.2 
L 1338.651067 203.657143 
L 1339.368475 154.285714 
L 1339.727179 203.657143 
L 1340.085883 220.114286 
L 1341.161995 203.657143 
L 1341.520699 211.885714 
L 1341.879403 211.885714 
L 1342.238107 220.114286 
L 1343.31422 211.885714 
L 1343.672924 220.114286 
L 1344.390332 170.742857 
L 1345.825148 203.657143 
L 1346.90126 195.428571 
L 1347.618668 195.428571 
L 1347.977372 203.657143 
L 1349.053484 236.571429 
L 1349.770892 203.657143 
L 1350.129596 211.885714 
L 1350.847004 211.885714 
L 1351.564412 203.657143 
L 1351.923116 203.657143 
L 1352.281821 178.971429 
L 1352.999229 236.571429 
L 1353.357933 195.428571 
L 1353.716637 195.428571 
L 1354.075341 170.742857 
L 1357.662381 228.342857 
L 1358.021085 187.2 
L 1358.379789 211.885714 
L 1359.455901 244.8 
L 1359.814605 211.885714 
L 1360.532013 178.971429 
L 1362.325534 121.371429 
L 1362.684238 244.8 
L 1363.042942 211.885714 
L 1364.119054 211.885714 
L 1364.477758 178.971429 
L 1367.34739 203.657143 
L 1368.423502 187.2 
L 1369.14091 253.028571 
L 1372.010543 154.285714 
L 1372.727951 178.971429 
L 1373.804063 203.657143 
L 1374.521471 253.028571 
L 1377.391103 220.114286 
L 1378.467215 104.914286 
L 1380.978143 121.371429 
L 1381.695552 195.428571 
L 1382.054256 187.2 
L 1382.41296 113.142857 
L 1382.771664 137.828571 
L 1383.130368 220.114286 
L 1383.489072 211.885714 
L 1383.847776 195.428571 
L 1384.20648 129.6 
L 1384.565184 146.057143 
L 1384.923888 187.2 
L 1385.282592 154.285714 
L 1386 170.742857 
L 1386.358704 211.885714 
L 1386.717408 187.2 
L 1387.434816 170.742857 
L 1387.79352 129.6 
L 1388.152224 162.514286 
L 1388.510928 277.714286 
L 1389.228336 203.657143 
L 1390.663152 178.971429 
L 1391.021857 137.828571 
L 1391.380561 187.2 
L 1392.097969 170.742857 
L 1392.456673 170.742857 
L 1392.815377 195.428571 
L 1393.174081 195.428571 
L 1393.891489 187.2 
L 1394.608897 187.2 
L 1395.326305 178.971429 
L 1395.685009 203.657143 
L 1396.043713 195.428571 
L 1396.402417 154.285714 
L 1396.761121 195.428571 
L 1397.119825 187.2 
L 1397.478529 154.285714 
L 1397.837233 195.428571 
L 1398.195937 170.742857 
L 1398.554641 154.285714 
L 1398.913345 195.428571 
L 1399.630753 170.742857 
L 1399.989457 203.657143 
L 1400.348161 178.971429 
L 1400.706866 203.657143 
L 1401.06557 203.657143 
L 1401.424274 195.428571 
L 1401.782978 146.057143 
L 1402.141682 170.742857 
L 1402.500386 211.885714 
L 1402.85909 154.285714 
L 1403.217794 170.742857 
L 1403.576498 220.114286 
L 1403.935202 211.885714 
L 1404.293906 228.342857 
L 1405.370018 203.657143 
L 1406.44613 211.885714 
L 1406.804834 162.514286 
L 1407.163538 187.2 
L 1407.880946 203.657143 
L 1408.23965 203.657143 
L 1408.598354 178.971429 
L 1408.957058 195.428571 
L 1409.315762 220.114286 
L 1409.674466 220.114286 
L 1410.03317 211.885714 
L 1410.391875 220.114286 
L 1410.750579 211.885714 
L 1411.109283 187.2 
L 1411.467987 211.885714 
L 1412.185395 187.2 
L 1412.902803 187.2 
L 1413.620211 244.8 
L 1413.978915 195.428571 
L 1414.337619 170.742857 
L 1414.696323 195.428571 
L 1415.055027 187.2 
L 1415.413731 195.428571 
L 1415.772435 228.342857 
L 1416.131139 203.657143 
L 1416.489843 195.428571 
L 1417.924659 195.428571 
L 1418.642067 178.971429 
L 1419.000771 195.428571 
L 1419.359475 170.742857 
L 1419.718179 211.885714 
L 1420.076884 187.2 
L 1420.435588 203.657143 
L 1421.152996 220.114286 
L 1421.5117 195.428571 
L 1421.870404 195.428571 
L 1422.229108 187.2 
L 1422.587812 228.342857 
L 1422.946516 170.742857 
L 1423.30522 195.428571 
L 1424.381332 170.742857 
L 1425.09874 178.971429 
L 1425.457444 211.885714 
L 1426.174852 162.514286 
L 1426.533556 220.114286 
L 1426.89226 195.428571 
L 1427.250964 121.371429 
L 1427.609668 178.971429 
L 1427.968372 170.742857 
L 1428.327076 170.742857 
L 1428.68578 162.514286 
L 1429.044484 203.657143 
L 1429.403188 178.971429 
L 1429.761893 187.2 
L 1430.120597 162.514286 
L 1430.479301 178.971429 
L 1430.838005 187.2 
L 1431.196709 203.657143 
L 1431.555413 228.342857 
L 1431.914117 178.971429 
L 1432.272821 195.428571 
L 1432.631525 187.2 
L 1432.990229 261.257143 
L 1433.348933 187.2 
L 1433.707637 187.2 
L 1434.066341 170.742857 
L 1434.425045 203.657143 
L 1435.142453 187.2 
L 1435.501157 195.428571 
L 1435.859861 178.971429 
L 1436.218565 220.114286 
L 1436.577269 187.2 
L 1436.935973 187.2 
L 1438.012085 203.657143 
L 1438.729493 146.057143 
L 1439.088197 178.971429 
L 1440.523014 211.885714 
L 1441.240422 170.742857 
L 1441.599126 187.2 
L 1441.95783 236.571429 
L 1442.316534 228.342857 
L 1442.675238 178.971429 
L 1443.392646 187.2 
L 1444.110054 220.114286 
L 1444.827462 195.428571 
L 1445.186166 211.885714 
L 1445.54487 187.2 
L 1445.903574 203.657143 
L 1446.262278 203.657143 
L 1446.620982 170.742857 
L 1446.979686 203.657143 
L 1447.697094 187.2 
L 1448.055798 211.885714 
L 1448.773206 195.428571 
L 1449.131911 203.657143 
L 1449.490615 170.742857 
L 1450.566727 220.114286 
L 1450.925431 211.885714 
L 1451.284135 228.342857 
L 1451.642839 170.742857 
L 1452.001543 228.342857 
L 1452.360247 195.428571 
L 1453.077655 203.657143 
L 1453.795063 203.657143 
L 1454.512471 146.057143 
L 1454.871175 211.885714 
L 1455.229879 220.114286 
L 1455.588583 178.971429 
L 1455.947287 220.114286 
L 1456.305991 244.8 
L 1456.664695 178.971429 
L 1457.382103 228.342857 
L 1457.740807 228.342857 
L 1458.458215 104.914286 
L 1459.175624 211.885714 
L 1459.534328 244.8 
L 1459.893032 228.342857 
L 1460.251736 236.571429 
L 1460.61044 170.742857 
L 1461.327848 195.428571 
L 1461.686552 195.428571 
L 1462.40396 203.657143 
L 1462.762664 187.2 
L 1464.556184 236.571429 
L 1467.067112 236.571429 
L 1467.78452 244.8 
L 1469.219337 310.628571 
L 1469.936745 146.057143 
L 1473.165081 220.114286 
L 1473.523785 178.971429 
L 1474.241193 203.657143 
L 1482.491386 220.114286 
L 1482.85009 146.057143 
L 1483.926202 236.571429 
L 1486.078426 228.342857 
L 1486.43713 236.571429 
L 1486.795834 154.285714 
L 1487.871946 178.971429 
L 1488.230651 228.342857 
L 1488.948059 137.828571 
L 1489.665467 187.2 
L 1490.024171 187.2 
L 1490.382875 195.428571 
L 1490.741579 294.171429 
L 1491.458987 178.971429 
L 1491.817691 228.342857 
L 1492.176395 203.657143 
L 1492.535099 203.657143 
L 1492.893803 220.114286 
L 1493.252507 195.428571 
L 1493.969915 220.114286 
L 1494.687323 187.2 
L 1495.046027 187.2 
L 1495.404731 211.885714 
L 1496.122139 203.657143 
L 1497.198251 170.742857 
L 1497.556956 187.2 
L 1497.91566 154.285714 
L 1498.274364 203.657143 
L 1498.633068 220.114286 
L 1498.991772 195.428571 
L 1499.70918 195.428571 
L 1500.067884 211.885714 
L 1500.426588 178.971429 
L 1501.143996 195.428571 
L 1501.5027 187.2 
L 1501.861404 187.2 
L 1502.220108 154.285714 
L 1502.578812 211.885714 
L 1502.937516 187.2 
L 1503.29622 154.285714 
L 1504.372332 211.885714 
L 1504.731036 187.2 
L 1505.807148 220.114286 
L 1506.165852 203.657143 
L 1506.524556 162.514286 
L 1506.88326 170.742857 
L 1507.241965 203.657143 
L 1507.600669 187.2 
L 1508.318077 187.2 
L 1508.676781 203.657143 
L 1509.035485 178.971429 
L 1509.394189 187.2 
L 1510.111597 195.428571 
L 1510.470301 220.114286 
L 1510.829005 178.971429 
L 1511.187709 228.342857 
L 1511.546413 178.971429 
L 1511.905117 187.2 
L 1512.263821 220.114286 
L 1512.622525 211.885714 
L 1512.981229 187.2 
L 1513.339933 187.2 
L 1513.698637 211.885714 
L 1514.057341 187.2 
L 1515.133453 211.885714 
L 1515.635639 211.885714 
L 1515.994343 253.028571 
L 1516.353047 195.428571 
L 1516.711751 203.657143 
L 1517.070455 195.428571 
L 1517.429159 203.657143 
L 1517.787863 203.657143 
L 1518.146567 220.114286 
L 1518.505271 211.885714 
L 1518.863975 162.514286 
L 1519.581383 187.2 
L 1519.940087 228.342857 
L 1520.298791 178.971429 
L 1520.657495 211.885714 
L 1521.0162 178.971429 
L 1521.733608 244.8 
L 1522.092312 228.342857 
L 1522.451016 154.285714 
L 1522.80972 195.428571 
L 1523.527128 195.428571 
L 1523.885832 187.2 
L 1524.244536 211.885714 
L 1524.961944 178.971429 
L 1525.679352 211.885714 
L 1526.038056 170.742857 
L 1526.39676 170.742857 
L 1526.755464 203.657143 
L 1527.114168 162.514286 
L 1527.472872 203.657143 
L 1527.831576 195.428571 
L 1528.548984 203.657143 
L 1528.907688 211.885714 
L 1529.266392 203.657143 
L 1529.625096 228.342857 
L 1529.9838 220.114286 
L 1530.701209 187.2 
L 1531.059913 211.885714 
L 1531.418617 170.742857 
L 1531.777321 170.742857 
L 1532.136025 195.428571 
L 1532.494729 203.657143 
L 1533.929545 178.971429 
L 1534.288249 162.514286 
L 1534.646953 211.885714 
L 1535.005657 170.742857 
L 1535.364361 162.514286 
L 1535.723065 211.885714 
L 1536.081769 203.657143 
L 1536.440473 203.657143 
L 1537.157881 220.114286 
L 1537.516585 203.657143 
L 1537.875289 170.742857 
L 1538.592697 195.428571 
L 1538.951401 187.2 
L 1539.310105 187.2 
L 1539.668809 211.885714 
L 1540.027513 211.885714 
L 1540.744922 178.971429 
L 1541.46233 211.885714 
L 1541.821034 178.971429 
L 1542.179738 162.514286 
L 1542.538442 211.885714 
L 1542.897146 211.885714 
L 1543.614554 203.657143 
L 1544.331962 170.742857 
L 1544.690666 178.971429 
L 1545.04937 220.114286 
L 1545.766778 187.2 
L 1546.125482 187.2 
L 1546.484186 203.657143 
L 1547.560298 203.657143 
L 1547.919002 187.2 
L 1548.277706 211.885714 
L 1548.63641 154.285714 
L 1548.995114 195.428571 
L 1549.712522 203.657143 
L 1550.429931 228.342857 
L 1551.147339 220.114286 
L 1552.223451 154.285714 
L 1552.582155 195.428571 
L 1552.940859 170.742857 
L 1553.299563 170.742857 
L 1553.658267 228.342857 
L 1554.016971 195.428571 
L 1554.375675 220.114286 
L 1555.810491 211.885714 
L 1556.169195 187.2 
L 1556.527899 228.342857 
L 1557.604011 187.2 
L 1557.962715 154.285714 
L 1558.680123 253.028571 
L 1559.038827 96.685714 
L 1559.397531 187.2 
L 1561.549756 236.571429 
L 1562.267164 195.428571 
L 1562.625868 228.342857 
L 1562.984572 236.571429 
L 1563.343276 211.885714 
L 1565.136796 220.114286 
L 1566.930316 294.171429 
L 1567.647724 187.2 
L 1568.006428 187.2 
L 1568.723836 261.257143 
L 1570.158653 203.657143 
L 1572.669581 178.971429 
L 1574.463101 203.657143 
L 1575.539213 203.657143 
L 1575.897917 187.2 
L 1576.615325 195.428571 
L 1577.332733 261.257143 
L 1577.691437 211.885714 
L 1578.408845 228.342857 
L 1580.202366 129.6 
L 1581.995886 129.6 
L 1582.713294 244.8 
L 1583.071998 228.342857 
L 1584.14811 195.428571 
L 1584.506814 203.657143 
L 1584.865518 162.514286 
L 1585.224222 203.657143 
L 1585.94163 236.571429 
L 1586.659038 178.971429 
L 1587.017742 187.2 
L 1587.376446 146.057143 
L 1587.73515 178.971429 
L 1588.093854 195.428571 
L 1588.452558 178.971429 
L 1588.811263 220.114286 
L 1589.169967 162.514286 
L 1589.528671 178.971429 
L 1589.887375 187.2 
L 1590.246079 203.657143 
L 1590.604783 195.428571 
L 1590.963487 195.428571 
L 1591.322191 228.342857 
L 1591.680895 187.2 
L 1592.039599 203.657143 
L 1592.398303 203.657143 
L 1592.757007 211.885714 
L 1593.115711 162.514286 
L 1593.474415 203.657143 
L 1593.833119 187.2 
L 1594.191823 178.971429 
L 1594.550527 203.657143 
L 1594.909231 203.657143 
L 1595.267935 195.428571 
L 1595.626639 195.428571 
L 1595.985343 244.8 
L 1596.344047 170.742857 
L 1596.702751 187.2 
L 1597.061455 178.971429 
L 1597.420159 187.2 
L 1597.778863 187.2 
L 1598.137567 211.885714 
L 1598.496272 261.257143 
L 1598.854976 294.171429 
L 1599.21368 294.171429 
L 1599.572384 261.257143 
L 1599.931088 195.428571 
L 1601.0072 203.657143 
L 1601.365904 203.657143 
L 1601.724608 244.8 
L 1602.442016 170.742857 
L 1602.80072 203.657143 
L 1603.159424 220.114286 
L 1603.518128 228.342857 
L 1603.876832 187.2 
L 1604.235536 220.114286 
L 1604.59424 187.2 
L 1604.952944 228.342857 
L 1605.670352 187.2 
L 1606.029056 203.657143 
L 1606.38776 211.885714 
L 1606.746464 236.571429 
L 1607.105168 211.885714 
L 1607.463872 195.428571 
L 1608.181281 195.428571 
L 1608.539985 228.342857 
L 1608.898689 236.571429 
L 1609.257393 203.657143 
L 1609.616097 244.8 
L 1609.974801 203.657143 
L 1610.333505 203.657143 
L 1610.692209 187.2 
L 1611.050913 203.657143 
L 1611.409617 195.428571 
L 1611.768321 220.114286 
L 1612.127025 228.342857 
L 1612.485729 228.342857 
L 1613.203137 253.028571 
L 1613.561841 187.2 
L 1614.279249 236.571429 
L 1614.637953 228.342857 
L 1614.996657 236.571429 
L 1615.355361 211.885714 
L 1615.714065 211.885714 
L 1616.431473 228.342857 
L 1617.507585 203.657143 
L 1618.583698 228.342857 
L 1618.942402 203.657143 
L 1619.301106 236.571429 
L 1619.65981 211.885714 
L 1620.018514 195.428571 
L 1620.377218 228.342857 
L 1620.735922 203.657143 
L 1620.879403 203.657143 
L 1621.238107 253.028571 
L 1621.955516 220.114286 
L 1622.31422 220.114286 
L 1622.672924 236.571429 
L 1623.031628 228.342857 
L 1623.390332 195.428571 
L 1624.10774 195.428571 
L 1624.466444 261.257143 
L 1624.825148 195.428571 
L 1625.183852 187.2 
L 1625.90126 187.2 
L 1626.259964 170.742857 
L 1626.618668 195.428571 
L 1626.977372 244.8 
L 1627.336076 195.428571 
L 1628.770892 203.657143 
L 1629.129596 195.428571 
L 1629.4883 178.971429 
L 1629.847004 203.657143 
L 1630.564412 211.885714 
L 1630.923116 195.428571 
L 1631.640525 228.342857 
L 1631.999229 211.885714 
L 1632.357933 203.657143 
L 1633.075341 203.657143 
L 1633.434045 228.342857 
L 1633.792749 211.885714 
L 1634.151453 220.114286 
L 1634.868861 228.342857 
L 1635.227565 195.428571 
L 1635.586269 203.657143 
L 1635.944973 187.2 
L 1636.303677 220.114286 
L 1636.662381 195.428571 
L 1637.021085 220.114286 
L 1637.379789 211.885714 
L 1637.738493 228.342857 
L 1638.097197 195.428571 
L 1638.455901 187.2 
L 1638.814605 170.742857 
L 1639.173309 203.657143 
L 1639.532013 170.742857 
L 1639.890717 203.657143 
L 1640.249421 195.428571 
L 1640.608125 162.514286 
L 1641.325534 236.571429 
L 1641.684238 220.114286 
L 1642.042942 228.342857 
L 1642.76035 203.657143 
L 1643.119054 228.342857 
L 1643.477758 170.742857 
L 1643.836462 220.114286 
L 1644.195166 220.114286 
L 1644.912574 187.2 
L 1645.271278 195.428571 
L 1645.701723 220.114286 
L 1645.988686 228.342857 
L 1646.34739 187.2 
L 1646.706094 203.657143 
L 1647.064798 195.428571 
L 1647.423502 170.742857 
L 1647.782206 170.742857 
L 1648.499614 220.114286 
L 1648.858318 220.114286 
L 1649.575726 211.885714 
L 1649.93443 228.342857 
L 1650.293134 228.342857 
L 1650.651839 203.657143 
L 1651.010543 236.571429 
L 1651.369247 211.885714 
L 1652.086655 211.885714 
L 1652.445359 228.342857 
L 1653.162767 253.028571 
L 1653.521471 228.342857 
L 1653.880175 211.885714 
L 1654.597583 228.342857 
L 1654.956287 228.342857 
L 1655.314991 187.2 
L 1655.673695 220.114286 
L 1656.391103 269.485714 
L 1656.749807 203.657143 
L 1657.108511 178.971429 
L 1657.467215 203.657143 
L 1658.184623 236.571429 
L 1660.049884 154.285714 
L 1660.336848 228.342857 
L 1660.695552 211.885714 
L 1661.054256 269.485714 
L 1661.41296 228.342857 
L 1662.919517 170.742857 
L 1663.636925 195.428571 
L 1663.923888 244.8 
L 1664.354333 187.2 
L 1665.789149 220.114286 
L 1666.147853 154.285714 
L 1666.506557 244.8 
L 1668.300077 211.885714 
L 1671.169709 178.971429 
L 1673.250193 211.885714 
L 1673.608897 146.057143 
L 1674.326305 211.885714 
L 1675.832862 129.6 
L 1676.191566 294.171429 
L 1679.778606 253.028571 
L 1680.13731 285.942857 
L 1682.217794 195.428571 
L 1682.576498 285.942857 
L 1683.293906 137.828571 
L 1684.011314 203.657143 
L 1684.441759 154.285714 
L 1684.800463 195.428571 
L 1685.087426 244.8 
L 1685.517871 244.8 
L 1686.235279 187.2 
L 1686.593983 236.571429 
L 1686.880946 220.114286 
L 1687.311391 187.2 
L 1687.670095 211.885714 
L 1688.746207 187.2 
L 1689.03317 228.342857 
L 1689.391875 220.114286 
L 1689.750579 228.342857 
L 1690.109283 211.885714 
L 1690.539727 178.971429 
L 1690.898431 220.114286 
L 1691.257135 220.114286 
L 1691.61584 187.2 
L 1691.974544 187.2 
L 1692.333248 220.114286 
L 1692.620211 170.742857 
L 1692.978915 220.114286 
L 1693.696323 211.885714 
L 1694.126768 203.657143 
L 1694.413731 203.657143 
L 1694.772435 211.885714 
L 1695.131139 203.657143 
L 1695.489843 228.342857 
L 1695.920288 187.2 
L 1696.207251 187.2 
L 1696.565955 195.428571 
L 1696.924659 211.885714 
L 1697.283363 211.885714 
L 1698.072512 253.028571 
L 1698.431216 178.971429 
L 1698.78992 220.114286 
L 1699.148624 211.885714 
L 1699.507328 228.342857 
L 1700.224736 211.885714 
L 1700.58344 195.428571 
L 1700.942144 220.114286 
L 1701.300849 195.428571 
L 1702.018257 211.885714 
L 1702.735665 211.885714 
L 1703.094369 220.114286 
L 1703.453073 187.2 
L 1703.811777 228.342857 
L 1704.529185 211.885714 
L 1704.887889 178.971429 
L 1705.246593 178.971429 
L 1705.605297 203.657143 
L 1705.964001 261.257143 
L 1706.322705 203.657143 
L 1706.681409 228.342857 
L 1707.040113 203.657143 
L 1707.398817 203.657143 
L 1707.757521 228.342857 
L 1708.116225 236.571429 
L 1708.474929 211.885714 
L 1708.833633 220.114286 
L 1709.192337 211.885714 
L 1709.551041 220.114286 
L 1709.909745 211.885714 
L 1710.268449 228.342857 
L 1710.627154 236.571429 
L 1710.985858 228.342857 
L 1711.344562 187.2 
L 1711.703266 220.114286 
L 1712.06197 211.885714 
L 1712.420674 211.885714 
L 1712.779378 195.428571 
L 1713.138082 211.885714 
L 1713.496786 195.428571 
L 1714.214194 178.971429 
L 1714.572898 203.657143 
L 1714.931602 211.885714 
L 1715.290306 253.028571 
L 1715.64901 203.657143 
L 1716.007714 211.885714 
L 1716.366418 187.2 
L 1717.083826 220.114286 
L 1717.44253 211.885714 
L 1717.801234 220.114286 
L 1718.159938 203.657143 
L 1718.518642 178.971429 
L 1718.877346 203.657143 
L 1719.23605 220.114286 
L 1719.594754 228.342857 
L 1720.312163 228.342857 
L 1720.670867 203.657143 
L 1721.029571 187.2 
L 1721.388275 236.571429 
L 1721.746979 220.114286 
L 1722.105683 195.428571 
L 1722.464387 203.657143 
L 1722.823091 228.342857 
L 1723.181795 220.114286 
L 1723.540499 203.657143 
L 1724.257907 236.571429 
L 1724.616611 195.428571 
L 1724.975315 220.114286 
L 1725.334019 187.2 
L 1725.692723 211.885714 
L 1726.051427 195.428571 
L 1726.410131 211.885714 
L 1726.768835 220.114286 
L 1726.984058 220.114286 
L 1727.342762 228.342857 
L 1727.701466 211.885714 
L 1728.06017 203.657143 
L 1728.418874 178.971429 
L 1728.777578 170.742857 
L 1729.136282 187.2 
L 1729.494986 220.114286 
L 1730.212394 211.885714 
L 1730.571098 211.885714 
L 1730.929802 220.114286 
L 1731.288506 211.885714 
L 1732.005914 228.342857 
L 1732.364618 195.428571 
L 1732.723322 187.2 
L 1733.082026 195.428571 
L 1733.44073 211.885714 
L 1733.799434 211.885714 
L 1734.158138 220.114286 
L 1734.516842 195.428571 
L 1735.23425 195.428571 
L 1735.592954 236.571429 
L 1735.951659 211.885714 
L 1736.310363 211.885714 
L 1736.669067 203.657143 
L 1737.027771 211.885714 
L 1737.386475 211.885714 
L 1737.745179 220.114286 
L 1738.103883 211.885714 
L 1738.462587 220.114286 
L 1738.821291 220.114286 
L 1739.179995 187.2 
L 1739.538699 211.885714 
L 1739.897403 195.428571 
L 1740.256107 195.428571 
L 1740.614811 211.885714 
L 1740.973515 220.114286 
L 1741.332219 187.2 
L 1741.690923 203.657143 
L 1742.049627 236.571429 
L 1742.408331 220.114286 
L 1743.125739 195.428571 
L 1743.484443 211.885714 
L 1743.843147 211.885714 
L 1744.201851 187.2 
L 1744.919259 203.657143 
L 1745.277963 203.657143 
L 1745.636668 187.2 
L 1745.995372 211.885714 
L 1746.354076 220.114286 
L 1747.071484 220.114286 
L 1747.430188 203.657143 
L 1747.788892 228.342857 
L 1748.147596 195.428571 
L 1748.5063 203.657143 
L 1748.865004 170.742857 
L 1749.223708 178.971429 
L 1749.582412 170.742857 
L 1749.941116 195.428571 
L 1751.017228 187.2 
L 1751.375932 220.114286 
L 1751.734636 203.657143 
L 1752.09334 228.342857 
L 1752.452044 211.885714 
L 1752.810748 211.885714 
L 1753.169452 195.428571 
L 1753.88686 236.571429 
L 1754.245564 220.114286 
L 1754.604268 228.342857 
L 1754.962972 220.114286 
L 1755.321677 244.8 
L 1755.680381 203.657143 
L 1756.039085 187.2 
L 1756.397789 203.657143 
L 1756.756493 253.028571 
L 1757.115197 203.657143 
L 1757.473901 203.657143 
L 1757.832605 220.114286 
L 1758.191309 195.428571 
L 1758.550013 228.342857 
L 1758.908717 220.114286 
L 1759.267421 195.428571 
L 1759.626125 236.571429 
L 1760.343533 203.657143 
L 1761.060941 228.342857 
L 1761.419645 236.571429 
L 1761.778349 195.428571 
L 1762.137053 228.342857 
L 1762.854461 228.342857 
L 1763.571869 244.8 
L 1763.930573 211.885714 
L 1764.289277 236.571429 
L 1764.647981 195.428571 
L 1765.006686 187.2 
L 1766.082798 220.114286 
L 1766.441502 220.114286 
L 1767.15891 253.028571 
L 1767.517614 244.8 
L 1768.235022 211.885714 
L 1768.593726 236.571429 
L 1769.311134 211.885714 
L 1770.74595 170.742857 
L 1771.104654 277.714286 
L 1771.822062 195.428571 
L 1772.180766 187.2 
L 1772.898174 220.114286 
L 1773.615582 211.885714 
L 1774.691695 220.114286 
L 1775.767807 277.714286 
L 1776.126511 335.314286 
L 1776.843919 220.114286 
L 1777.561327 261.257143 
L 1780.072255 211.885714 
L 1781.507071 203.657143 
L 1782.583183 244.8 
L 1783.659295 302.4 
L 1784.376704 244.8 
L 1784.735408 195.428571 
L 1785.452816 318.857143 
L 1785.81152 170.742857 
L 1786.170224 244.8 
L 1786.887632 195.428571 
L 1787.60504 195.428571 
L 1787.963744 203.657143 
L 1788.681152 236.571429 
L 1789.39856 178.971429 
L 1789.757264 187.2 
L 1790.474672 178.971429 
L 1790.833376 220.114286 
L 1791.19208 228.342857 
L 1791.550784 211.885714 
L 1791.909488 211.885714 
L 1792.268192 228.342857 
L 1792.626896 203.657143 
L 1793.344304 203.657143 
L 1793.703008 195.428571 
L 1794.061713 178.971429 
L 1794.420417 211.885714 
L 1794.779121 203.657143 
L 1795.137825 187.2 
L 1795.496529 178.971429 
L 1795.855233 211.885714 
L 1796.572641 195.428571 
L 1796.931345 220.114286 
L 1797.290049 228.342857 
L 1797.648753 220.114286 
L 1798.366161 187.2 
L 1798.724865 211.885714 
L 1799.083569 195.428571 
L 1799.442273 187.2 
L 1799.800977 203.657143 
L 1800.159681 211.885714 
L 1800.518385 203.657143 
L 1800.877089 228.342857 
L 1801.235793 203.657143 
L 1801.594497 187.2 
L 1801.953201 195.428571 
L 1802.311905 211.885714 
L 1802.670609 220.114286 
L 1803.029313 203.657143 
L 1803.388017 228.342857 
L 1803.746722 228.342857 
L 1804.105426 195.428571 
L 1804.46413 524.571429 
L 1804.822834 573.942857 
L 1805.181538 606.857143 
L 1805.540242 590.4 
L 1805.898946 532.8 
L 1806.25765 524.571429 
L 1806.616354 573.942857 
L 1806.975058 409.371429 
L 1807.333762 557.485714 
L 1807.692466 549.257143 
L 1808.409874 195.428571 
L 1808.768578 228.342857 
L 1809.127282 236.571429 
L 1809.485986 195.428571 
L 1809.84469 220.114286 
L 1810.203394 228.342857 
L 1810.562098 211.885714 
L 1810.920802 203.657143 
L 1811.279506 236.571429 
L 1811.996914 203.657143 
L 1812.355618 211.885714 
L 1812.714322 195.428571 
L 1813.431731 228.342857 
L 1813.790435 220.114286 
L 1814.149139 228.342857 
L 1814.507843 203.657143 
L 1814.866547 211.885714 
L 1815.225251 269.485714 
L 1815.583955 203.657143 
L 1815.942659 195.428571 
L 1816.301363 195.428571 
L 1816.660067 187.2 
L 1817.018771 195.428571 
L 1817.736179 228.342857 
L 1818.094883 228.342857 
L 1818.453587 244.8 
L 1818.812291 220.114286 
L 1819.170995 261.257143 
L 1819.529699 236.571429 
L 1819.888403 220.114286 
L 1820.247107 220.114286 
L 1820.964515 187.2 
L 1821.323219 220.114286 
L 1821.681923 203.657143 
L 1822.399331 236.571429 
L 1822.758035 220.114286 
L 1823.11674 211.885714 
L 1823.475444 220.114286 
L 1823.834148 195.428571 
L 1824.192852 203.657143 
L 1824.91026 203.657143 
L 1825.268964 220.114286 
L 1825.627668 228.342857 
L 1825.986372 203.657143 
L 1826.345076 187.2 
L 1826.70378 220.114286 
L 1827.062484 203.657143 
L 1827.421188 211.885714 
L 1827.779892 236.571429 
L 1828.138596 203.657143 
L 1828.4973 187.2 
L 1828.856004 220.114286 
L 1829.214708 211.885714 
L 1829.573412 244.8 
L 1829.932116 244.8 
L 1830.29082 203.657143 
L 1830.649524 236.571429 
L 1831.008228 220.114286 
L 1831.366932 228.342857 
L 1831.725636 211.885714 
L 1832.08434 178.971429 
L 1832.443044 178.971429 
L 1832.801749 187.2 
L 1833.232193 228.342857 
L 1833.590897 187.2 
L 1833.949601 211.885714 
L 1834.308305 228.342857 
L 1834.66701 220.114286 
L 1835.025714 162.514286 
L 1835.384418 203.657143 
L 1835.743122 211.885714 
L 1836.101826 187.2 
L 1836.819234 236.571429 
L 1837.177938 236.571429 
L 1837.536642 220.114286 
L 1837.895346 269.485714 
L 1838.25405 228.342857 
L 1838.612754 228.342857 
L 1838.971458 187.2 
L 1839.330162 187.2 
L 1840.04757 203.657143 
L 1840.406274 203.657143 
L 1840.764978 220.114286 
L 1841.123682 162.514286 
L 1841.84109 195.428571 
L 1842.199794 170.742857 
L 1842.558498 203.657143 
L 1843.275906 170.742857 
L 1843.63461 236.571429 
L 1843.993314 195.428571 
L 1844.352019 211.885714 
L 1844.710723 187.2 
L 1845.069427 244.8 
L 1845.428131 187.2 
L 1845.786835 211.885714 
L 1846.145539 195.428571 
L 1846.504243 269.485714 
L 1846.862947 203.657143 
L 1847.221651 220.114286 
L 1847.580355 178.971429 
L 1847.939059 187.2 
L 1848.297763 203.657143 
L 1848.656467 203.657143 
L 1849.015171 211.885714 
L 1849.373875 187.2 
L 1849.732579 220.114286 
L 1850.091283 178.971429 
L 1850.449987 162.514286 
L 1850.808691 203.657143 
L 1851.167395 187.2 
L 1851.526099 211.885714 
L 1851.884803 195.428571 
L 1852.602211 211.885714 
L 1852.960915 285.942857 
L 1853.319619 211.885714 
L 1853.678323 203.657143 
L 1854.037028 113.142857 
L 1854.395732 220.114286 
L 1854.754436 228.342857 
L 1855.11314 203.657143 
L 1855.471844 195.428571 
L 1856.547956 220.114286 
L 1856.90666 220.114286 
L 1857.265364 203.657143 
L 1857.624068 261.257143 
L 1857.982772 195.428571 
L 1858.341476 236.571429 
L 1858.70018 220.114286 
L 1859.058884 211.885714 
L 1859.417588 162.514286 
L 1860.134996 302.4 
L 1860.852404 228.342857 
L 1861.211108 236.571429 
L 1861.569812 236.571429 
L 1861.928516 187.2 
L 1862.28722 203.657143 
L 1862.645924 211.885714 
L 1863.004628 195.428571 
L 1863.363332 170.742857 
L 1863.722037 220.114286 
L 1864.080741 285.942857 
L 1864.439445 211.885714 
L 1864.798149 178.971429 
L 1865.515557 220.114286 
L 1866.161224 129.6 
L 1866.591669 170.742857 
L 1867.309077 220.114286 
L 1867.667781 203.657143 
L 1868.026485 203.657143 
L 1868.385189 211.885714 
L 1868.743893 236.571429 
L 1869.102597 178.971429 
L 1869.461301 236.571429 
L 1869.820005 211.885714 
L 1870.178709 178.971429 
L 1870.537413 211.885714 
L 1871.254821 220.114286 
L 1872.330933 220.114286 
L 1872.689637 178.971429 
L 1873.407046 261.257143 
L 1873.76575 244.8 
L 1874.124454 261.257143 
L 1874.483158 244.8 
L 1875.200566 154.285714 
L 1875.55927 220.114286 
L 1875.917974 195.428571 
L 1877.35279 244.8 
L 1877.711494 203.657143 
L 1878.428902 187.2 
L 1878.787606 253.028571 
L 1879.505014 277.714286 
L 1880.222422 195.428571 
L 1881.298534 228.342857 
L 1883.450759 220.114286 
L 1887.037799 187.2 
L 1888.831319 261.257143 
L 1889.907431 236.571429 
L 1890.266135 236.571429 
L 1891.342247 195.428571 
L 1891.700951 368.228571 
L 1892.059655 302.4 
L 1892.418359 425.828571 
L 1893.135768 261.257143 
L 1893.494472 187.2 
L 1893.853176 236.571429 
L 1894.570584 236.571429 
L 1894.929288 203.657143 
L 1895.287992 236.571429 
L 1895.646696 253.028571 
L 1896.0054 211.885714 
L 1896.364104 203.657143 
L 1897.081512 220.114286 
L 1897.440216 195.428571 
L 1897.79892 211.885714 
L 1898.157624 220.114286 
L 1898.516328 203.657143 
L 1898.875032 220.114286 
L 1899.233736 162.514286 
L 1899.59244 228.342857 
L 1899.951144 211.885714 
L 1900.309848 228.342857 
L 1900.668552 228.342857 
L 1901.027256 253.028571 
L 1901.38596 244.8 
L 1901.744664 244.8 
L 1902.103368 162.514286 
L 1902.462073 228.342857 
L 1902.820777 236.571429 
L 1903.179481 261.257143 
L 1903.538185 294.171429 
L 1903.896889 228.342857 
L 1904.255593 195.428571 
L 1904.614297 228.342857 
L 1904.973001 236.571429 
L 1905.331705 220.114286 
L 1905.690409 236.571429 
L 1906.049113 220.114286 
L 1906.407817 277.714286 
L 1906.766521 236.571429 
L 1907.125225 516.342857 
L 1907.483929 450.514286 
L 1907.842633 606.857143 
L 1908.201337 541.028571 
L 1908.560041 442.285714 
L 1908.918745 417.6 
L 1909.277449 639.771429 
L 1909.636153 376.457143 
L 1909.994857 516.342857 
L 1910.712265 211.885714 
L 1911.070969 277.714286 
L 1911.429673 195.428571 
L 1912.147082 195.428571 
L 1912.505786 203.657143 
L 1912.86449 228.342857 
L 1913.223194 244.8 
L 1913.940602 178.971429 
L 1914.299306 220.114286 
L 1914.65801 236.571429 
L 1915.016714 220.114286 
L 1915.375418 211.885714 
L 1915.734122 211.885714 
L 1916.092826 195.428571 
L 1916.45153 220.114286 
L 1916.810234 195.428571 
L 1917.168938 220.114286 
L 1917.886346 220.114286 
L 1918.24505 195.428571 
L 1918.603754 195.428571 
L 1919.321162 228.342857 
L 1920.03857 285.942857 
L 1920.397274 261.257143 
L 1920.755978 220.114286 
L 1921.114682 236.571429 
L 1921.473386 203.657143 
L 1921.832091 244.8 
L 1922.190795 203.657143 
L 1922.549499 211.885714 
L 1922.908203 228.342857 
L 1923.625611 195.428571 
L 1923.984315 236.571429 
L 1924.343019 236.571429 
L 1924.701723 220.114286 
L 1925.060427 195.428571 
L 1925.419131 253.028571 
L 1925.777835 195.428571 
L 1926.136539 220.114286 
L 1926.495243 285.942857 
L 1926.853947 310.628571 
L 1927.212651 310.628571 
L 1927.571355 269.485714 
L 1927.930059 261.257143 
L 1928.288763 351.771429 
L 1928.647467 269.485714 
L 1929.364875 269.485714 
L 1929.723579 236.571429 
L 1930.082283 228.342857 
L 1930.799691 178.971429 
L 1931.158395 187.2 
L 1931.517099 228.342857 
L 1931.875804 220.114286 
L 1932.234508 244.8 
L 1932.951916 170.742857 
L 1933.31062 187.2 
L 1933.669324 211.885714 
L 1934.028028 187.2 
L 1934.386732 220.114286 
L 1934.745436 236.571429 
L 1935.10414 211.885714 
L 1935.462844 170.742857 
L 1935.821548 211.885714 
L 1936.180252 195.428571 
L 1936.467215 261.257143 
L 1936.825919 195.428571 
L 1937.184623 236.571429 
L 1937.543327 220.114286 
L 1938.188995 178.971429 
L 1938.619439 220.114286 
L 1938.906403 195.428571 
L 1939.265107 228.342857 
L 1939.623811 187.2 
L 1939.982515 211.885714 
L 1940.341219 162.514286 
L 1940.771664 203.657143 
L 1941.058627 203.657143 
L 1941.417331 220.114286 
L 1941.776035 170.742857 
L 1941.847776 195.428571 
L 1942.20648 162.514286 
L 1942.565184 228.342857 
L 1942.923888 187.2 
L 1943.282592 195.428571 
L 1943.641296 195.428571 
L 1944 236.571429 
L 1944 236.571429 
" style="fill:none;stroke:#0000ff;stroke-linecap:square;"/>
   </g>
   <g id="line2d_2">
    <defs>
     <path d="M 0 3 
C 0.795609 3 1.55874 2.683901 2.12132 2.12132 
C 2.683901 1.55874 3 0.795609 3 0 
C 3 -0.795609 2.683901 -1.55874 2.12132 -2.12132 
C 1.55874 -2.683901 0.795609 -3 0 -3 
C -0.795609 -3 -1.55874 -2.683901 -2.12132 -2.12132 
C -2.683901 -1.55874 -3 -0.795609 -3 0 
C -3 0.795609 -2.683901 1.55874 -2.12132 2.12132 
C -1.55874 2.683901 -0.795609 3 0 3 
z
" id="mddb52a97bd" style="stroke:#000000;stroke-width:0.5;"/>
    </defs>
    <g clip-path="url(#pcf7fe50026)">
     <use style="fill:#ff0000;stroke:#000000;stroke-width:0.5;" x="295.826690659" xlink:href="#mddb52a97bd" y="458.742857143"/>
     <use style="fill:#ff0000;stroke:#000000;stroke-width:0.5;" x="1804.4641296" xlink:href="#mddb52a97bd" y="524.571428571"/>
     <use style="fill:#ff0000;stroke:#000000;stroke-width:0.5;" x="1804.82283363" xlink:href="#mddb52a97bd" y="573.942857143"/>
     <use style="fill:#ff0000;stroke:#000000;stroke-width:0.5;" x="1805.18153766" xlink:href="#mddb52a97bd" y="606.857142857"/>
     <use style="fill:#ff0000;stroke:#000000;stroke-width:0.5;" x="1805.5402417" xlink:href="#mddb52a97bd" y="590.4"/>
     <use style="fill:#ff0000;stroke:#000000;stroke-width:0.5;" x="1806.25764976" xlink:href="#mddb52a97bd" y="524.571428571"/>
     <use style="fill:#ff0000;stroke:#000000;stroke-width:0.5;" x="1806.61635381" xlink:href="#mddb52a97bd" y="573.942857143"/>
     <use style="fill:#ff0000;stroke:#000000;stroke-width:0.5;" x="1806.97505786" xlink:href="#mddb52a97bd" y="409.371428571"/>
     <use style="fill:#ff0000;stroke:#000000;stroke-width:0.5;" x="1807.33376189" xlink:href="#mddb52a97bd" y="557.485714286"/>
     <use style="fill:#ff0000;stroke:#000000;stroke-width:0.5;" x="1807.69246593" xlink:href="#mddb52a97bd" y="549.257142857"/>
     <use style="fill:#ff0000;stroke:#000000;stroke-width:0.5;" x="1808.05116996" xlink:href="#mddb52a97bd" y="392.914285714"/>
     <use style="fill:#ff0000;stroke:#000000;stroke-width:0.5;" x="1892.41835946" xlink:href="#mddb52a97bd" y="425.828571429"/>
     <use style="fill:#ff0000;stroke:#000000;stroke-width:0.5;" x="1892.7770635" xlink:href="#mddb52a97bd" y="335.314285714"/>
     <use style="fill:#ff0000;stroke:#000000;stroke-width:0.5;" x="1907.12522499" xlink:href="#mddb52a97bd" y="516.342857143"/>
     <use style="fill:#ff0000;stroke:#000000;stroke-width:0.5;" x="1907.48392902" xlink:href="#mddb52a97bd" y="450.514285714"/>
     <use style="fill:#ff0000;stroke:#000000;stroke-width:0.5;" x="1907.84263307" xlink:href="#mddb52a97bd" y="606.857142857"/>
     <use style="fill:#ff0000;stroke:#000000;stroke-width:0.5;" x="1908.2013371" xlink:href="#mddb52a97bd" y="541.028571429"/>
     <use style="fill:#ff0000;stroke:#000000;stroke-width:0.5;" x="1909.27744921" xlink:href="#mddb52a97bd" y="639.771428571"/>
    </g>
   </g>
   <g id="patch_3">
    <path d="M 270 72 
L 1944 72 
" style="fill:none;stroke:#000000;stroke-linecap:square;stroke-linejoin:miter;"/>
   </g>
   <g id="patch_4">
    <path d="M 1944 648 
L 1944 72 
" style="fill:none;stroke:#000000;stroke-linecap:square;stroke-linejoin:miter;"/>
   </g>
   <g id="patch_5">
    <path d="M 270 648 
L 1944 648 
" style="fill:none;stroke:#000000;stroke-linecap:square;stroke-linejoin:miter;"/>
   </g>
   <g id="patch_6">
    <path d="M 270 648 
L 270 72 
" style="fill:none;stroke:#000000;stroke-linecap:square;stroke-linejoin:miter;"/>
   </g>
   <g id="matplotlib.axis_1">
    <g id="xtick_1">
     <g id="line2d_3">
      <defs>
       <path d="M 0 0 
L 0 -4 
" id="m27e3530fb1" style="stroke:#000000;stroke-width:0.5;"/>
      </defs>
      <g>
       <use style="stroke:#000000;stroke-width:0.5;" x="427.471072242" xlink:href="#m27e3530fb1" y="648.0"/>
      </g>
     </g>
     <g id="line2d_4">
      <defs>
       <path d="M 0 0 
L 0 4 
" id="m8086e7b36c" style="stroke:#000000;stroke-width:0.5;"/>
      </defs>
      <g>
       <use style="stroke:#000000;stroke-width:0.5;" x="427.471072242" xlink:href="#m8086e7b36c" y="72.0"/>
      </g>
     </g>
     <g id="text_1">
      <!-- Sep 03 2015 -->
      <defs>
       <path d="M 19.1875 8.296875 
L 53.609375 8.296875 
L 53.609375 0 
L 7.328125 0 
L 7.328125 8.296875 
Q 12.9375 14.109375 22.625 23.890625 
Q 32.328125 33.6875 34.8125 36.53125 
Q 39.546875 41.84375 41.421875 45.53125 
Q 43.3125 49.21875 43.3125 52.78125 
Q 43.3125 58.59375 39.234375 62.25 
Q 35.15625 65.921875 28.609375 65.921875 
Q 23.96875 65.921875 18.8125 64.3125 
Q 13.671875 62.703125 7.8125 59.421875 
L 7.8125 69.390625 
Q 13.765625 71.78125 18.9375 73 
Q 24.125 74.21875 28.421875 74.21875 
Q 39.75 74.21875 46.484375 68.546875 
Q 53.21875 62.890625 53.21875 53.421875 
Q 53.21875 48.921875 51.53125 44.890625 
Q 49.859375 40.875 45.40625 35.40625 
Q 44.1875 33.984375 37.640625 27.21875 
Q 31.109375 20.453125 19.1875 8.296875 
" id="BitstreamVeraSans-Roman-32"/>
       <path id="BitstreamVeraSans-Roman-20"/>
       <path d="M 31.78125 66.40625 
Q 24.171875 66.40625 20.328125 58.90625 
Q 16.5 51.421875 16.5 36.375 
Q 16.5 21.390625 20.328125 13.890625 
Q 24.171875 6.390625 31.78125 6.390625 
Q 39.453125 6.390625 43.28125 13.890625 
Q 47.125 21.390625 47.125 36.375 
Q 47.125 51.421875 43.28125 58.90625 
Q 39.453125 66.40625 31.78125 66.40625 
M 31.78125 74.21875 
Q 44.046875 74.21875 50.515625 64.515625 
Q 56.984375 54.828125 56.984375 36.375 
Q 56.984375 17.96875 50.515625 8.265625 
Q 44.046875 -1.421875 31.78125 -1.421875 
Q 19.53125 -1.421875 13.0625 8.265625 
Q 6.59375 17.96875 6.59375 36.375 
Q 6.59375 54.828125 13.0625 64.515625 
Q 19.53125 74.21875 31.78125 74.21875 
" id="BitstreamVeraSans-Roman-30"/>
       <path d="M 12.40625 8.296875 
L 28.515625 8.296875 
L 28.515625 63.921875 
L 10.984375 60.40625 
L 10.984375 69.390625 
L 28.421875 72.90625 
L 38.28125 72.90625 
L 38.28125 8.296875 
L 54.390625 8.296875 
L 54.390625 0 
L 12.40625 0 
z
" id="BitstreamVeraSans-Roman-31"/>
       <path d="M 40.578125 39.3125 
Q 47.65625 37.796875 51.625 33 
Q 55.609375 28.21875 55.609375 21.1875 
Q 55.609375 10.40625 48.1875 4.484375 
Q 40.765625 -1.421875 27.09375 -1.421875 
Q 22.515625 -1.421875 17.65625 -0.515625 
Q 12.796875 0.390625 7.625 2.203125 
L 7.625 11.71875 
Q 11.71875 9.328125 16.59375 8.109375 
Q 21.484375 6.890625 26.8125 6.890625 
Q 36.078125 6.890625 40.9375 10.546875 
Q 45.796875 14.203125 45.796875 21.1875 
Q 45.796875 27.640625 41.28125 31.265625 
Q 36.765625 34.90625 28.71875 34.90625 
L 20.21875 34.90625 
L 20.21875 43.015625 
L 29.109375 43.015625 
Q 36.375 43.015625 40.234375 45.921875 
Q 44.09375 48.828125 44.09375 54.296875 
Q 44.09375 59.90625 40.109375 62.90625 
Q 36.140625 65.921875 28.71875 65.921875 
Q 24.65625 65.921875 20.015625 65.03125 
Q 15.375 64.15625 9.8125 62.3125 
L 9.8125 71.09375 
Q 15.4375 72.65625 20.34375 73.4375 
Q 25.25 74.21875 29.59375 74.21875 
Q 40.828125 74.21875 47.359375 69.109375 
Q 53.90625 64.015625 53.90625 55.328125 
Q 53.90625 49.265625 50.4375 45.09375 
Q 46.96875 40.921875 40.578125 39.3125 
" id="BitstreamVeraSans-Roman-33"/>
       <path d="M 10.796875 72.90625 
L 49.515625 72.90625 
L 49.515625 64.59375 
L 19.828125 64.59375 
L 19.828125 46.734375 
Q 21.96875 47.46875 24.109375 47.828125 
Q 26.265625 48.1875 28.421875 48.1875 
Q 40.625 48.1875 47.75 41.5 
Q 54.890625 34.8125 54.890625 23.390625 
Q 54.890625 11.625 47.5625 5.09375 
Q 40.234375 -1.421875 26.90625 -1.421875 
Q 22.3125 -1.421875 17.546875 -0.640625 
Q 12.796875 0.140625 7.71875 1.703125 
L 7.71875 11.625 
Q 12.109375 9.234375 16.796875 8.0625 
Q 21.484375 6.890625 26.703125 6.890625 
Q 35.15625 6.890625 40.078125 11.328125 
Q 45.015625 15.765625 45.015625 23.390625 
Q 45.015625 31 40.078125 35.4375 
Q 35.15625 39.890625 26.703125 39.890625 
Q 22.75 39.890625 18.8125 39.015625 
Q 14.890625 38.140625 10.796875 36.28125 
z
" id="BitstreamVeraSans-Roman-35"/>
       <path d="M 53.515625 70.515625 
L 53.515625 60.890625 
Q 47.90625 63.578125 42.921875 64.890625 
Q 37.9375 66.21875 33.296875 66.21875 
Q 25.25 66.21875 20.875 63.09375 
Q 16.5 59.96875 16.5 54.203125 
Q 16.5 49.359375 19.40625 46.890625 
Q 22.3125 44.4375 30.421875 42.921875 
L 36.375 41.703125 
Q 47.40625 39.59375 52.65625 34.296875 
Q 57.90625 29 57.90625 20.125 
Q 57.90625 9.515625 50.796875 4.046875 
Q 43.703125 -1.421875 29.984375 -1.421875 
Q 24.8125 -1.421875 18.96875 -0.25 
Q 13.140625 0.921875 6.890625 3.21875 
L 6.890625 13.375 
Q 12.890625 10.015625 18.65625 8.296875 
Q 24.421875 6.59375 29.984375 6.59375 
Q 38.421875 6.59375 43.015625 9.90625 
Q 47.609375 13.234375 47.609375 19.390625 
Q 47.609375 24.75 44.3125 27.78125 
Q 41.015625 30.8125 33.5 32.328125 
L 27.484375 33.5 
Q 16.453125 35.6875 11.515625 40.375 
Q 6.59375 45.0625 6.59375 53.421875 
Q 6.59375 63.09375 13.40625 68.65625 
Q 20.21875 74.21875 32.171875 74.21875 
Q 37.3125 74.21875 42.625 73.28125 
Q 47.953125 72.359375 53.515625 70.515625 
" id="BitstreamVeraSans-Roman-53"/>
       <path d="M 56.203125 29.59375 
L 56.203125 25.203125 
L 14.890625 25.203125 
Q 15.484375 15.921875 20.484375 11.0625 
Q 25.484375 6.203125 34.421875 6.203125 
Q 39.59375 6.203125 44.453125 7.46875 
Q 49.3125 8.734375 54.109375 11.28125 
L 54.109375 2.78125 
Q 49.265625 0.734375 44.1875 -0.34375 
Q 39.109375 -1.421875 33.890625 -1.421875 
Q 20.796875 -1.421875 13.15625 6.1875 
Q 5.515625 13.8125 5.515625 26.8125 
Q 5.515625 40.234375 12.765625 48.109375 
Q 20.015625 56 32.328125 56 
Q 43.359375 56 49.78125 48.890625 
Q 56.203125 41.796875 56.203125 29.59375 
M 47.21875 32.234375 
Q 47.125 39.59375 43.09375 43.984375 
Q 39.0625 48.390625 32.421875 48.390625 
Q 24.90625 48.390625 20.390625 44.140625 
Q 15.875 39.890625 15.1875 32.171875 
z
" id="BitstreamVeraSans-Roman-65"/>
       <path d="M 18.109375 8.203125 
L 18.109375 -20.796875 
L 9.078125 -20.796875 
L 9.078125 54.6875 
L 18.109375 54.6875 
L 18.109375 46.390625 
Q 20.953125 51.265625 25.265625 53.625 
Q 29.59375 56 35.59375 56 
Q 45.5625 56 51.78125 48.09375 
Q 58.015625 40.1875 58.015625 27.296875 
Q 58.015625 14.40625 51.78125 6.484375 
Q 45.5625 -1.421875 35.59375 -1.421875 
Q 29.59375 -1.421875 25.265625 0.953125 
Q 20.953125 3.328125 18.109375 8.203125 
M 48.6875 27.296875 
Q 48.6875 37.203125 44.609375 42.84375 
Q 40.53125 48.484375 33.40625 48.484375 
Q 26.265625 48.484375 22.1875 42.84375 
Q 18.109375 37.203125 18.109375 27.296875 
Q 18.109375 17.390625 22.1875 11.75 
Q 26.265625 6.109375 33.40625 6.109375 
Q 40.53125 6.109375 44.609375 11.75 
Q 48.6875 17.390625 48.6875 27.296875 
" id="BitstreamVeraSans-Roman-70"/>
      </defs>
      <g transform="translate(389.442322242 661.118125)scale(0.12 -0.12)">
       <use xlink:href="#BitstreamVeraSans-Roman-53"/>
       <use x="63.4765625" xlink:href="#BitstreamVeraSans-Roman-65"/>
       <use x="125.0" xlink:href="#BitstreamVeraSans-Roman-70"/>
       <use x="188.4765625" xlink:href="#BitstreamVeraSans-Roman-20"/>
       <use x="220.263671875" xlink:href="#BitstreamVeraSans-Roman-30"/>
       <use x="283.88671875" xlink:href="#BitstreamVeraSans-Roman-33"/>
       <use x="347.509765625" xlink:href="#BitstreamVeraSans-Roman-20"/>
       <use x="379.296875" xlink:href="#BitstreamVeraSans-Roman-32"/>
       <use x="442.919921875" xlink:href="#BitstreamVeraSans-Roman-30"/>
       <use x="506.54296875" xlink:href="#BitstreamVeraSans-Roman-31"/>
       <use x="570.166015625" xlink:href="#BitstreamVeraSans-Roman-35"/>
      </g>
     </g>
    </g>
    <g id="xtick_2">
     <g id="line2d_5">
      <g>
       <use style="stroke:#000000;stroke-width:0.5;" x="634.084597573" xlink:href="#m27e3530fb1" y="648.0"/>
      </g>
     </g>
     <g id="line2d_6">
      <g>
       <use style="stroke:#000000;stroke-width:0.5;" x="634.084597573" xlink:href="#m8086e7b36c" y="72.0"/>
      </g>
     </g>
     <g id="text_2">
      <!-- Sep 05 2015 -->
      <g transform="translate(596.055847573 661.118125)scale(0.12 -0.12)">
       <use xlink:href="#BitstreamVeraSans-Roman-53"/>
       <use x="63.4765625" xlink:href="#BitstreamVeraSans-Roman-65"/>
       <use x="125.0" xlink:href="#BitstreamVeraSans-Roman-70"/>
       <use x="188.4765625" xlink:href="#BitstreamVeraSans-Roman-20"/>
       <use x="220.263671875" xlink:href="#BitstreamVeraSans-Roman-30"/>
       <use x="283.88671875" xlink:href="#BitstreamVeraSans-Roman-35"/>
       <use x="347.509765625" xlink:href="#BitstreamVeraSans-Roman-20"/>
       <use x="379.296875" xlink:href="#BitstreamVeraSans-Roman-32"/>
       <use x="442.919921875" xlink:href="#BitstreamVeraSans-Roman-30"/>
       <use x="506.54296875" xlink:href="#BitstreamVeraSans-Roman-31"/>
       <use x="570.166015625" xlink:href="#BitstreamVeraSans-Roman-35"/>
      </g>
     </g>
    </g>
    <g id="xtick_3">
     <g id="line2d_7">
      <g>
       <use style="stroke:#000000;stroke-width:0.5;" x="840.698122904" xlink:href="#m27e3530fb1" y="648.0"/>
      </g>
     </g>
     <g id="line2d_8">
      <g>
       <use style="stroke:#000000;stroke-width:0.5;" x="840.698122904" xlink:href="#m8086e7b36c" y="72.0"/>
      </g>
     </g>
     <g id="text_3">
      <!-- Sep 07 2015 -->
      <defs>
       <path d="M 8.203125 72.90625 
L 55.078125 72.90625 
L 55.078125 68.703125 
L 28.609375 0 
L 18.3125 0 
L 43.21875 64.59375 
L 8.203125 64.59375 
z
" id="BitstreamVeraSans-Roman-37"/>
      </defs>
      <g transform="translate(802.669372904 661.118125)scale(0.12 -0.12)">
       <use xlink:href="#BitstreamVeraSans-Roman-53"/>
       <use x="63.4765625" xlink:href="#BitstreamVeraSans-Roman-65"/>
       <use x="125.0" xlink:href="#BitstreamVeraSans-Roman-70"/>
       <use x="188.4765625" xlink:href="#BitstreamVeraSans-Roman-20"/>
       <use x="220.263671875" xlink:href="#BitstreamVeraSans-Roman-30"/>
       <use x="283.88671875" xlink:href="#BitstreamVeraSans-Roman-37"/>
       <use x="347.509765625" xlink:href="#BitstreamVeraSans-Roman-20"/>
       <use x="379.296875" xlink:href="#BitstreamVeraSans-Roman-32"/>
       <use x="442.919921875" xlink:href="#BitstreamVeraSans-Roman-30"/>
       <use x="506.54296875" xlink:href="#BitstreamVeraSans-Roman-31"/>
       <use x="570.166015625" xlink:href="#BitstreamVeraSans-Roman-35"/>
      </g>
     </g>
    </g>
    <g id="xtick_4">
     <g id="line2d_9">
      <g>
       <use style="stroke:#000000;stroke-width:0.5;" x="1047.31164823" xlink:href="#m27e3530fb1" y="648.0"/>
      </g>
     </g>
     <g id="line2d_10">
      <g>
       <use style="stroke:#000000;stroke-width:0.5;" x="1047.31164823" xlink:href="#m8086e7b36c" y="72.0"/>
      </g>
     </g>
     <g id="text_4">
      <!-- Sep 09 2015 -->
      <defs>
       <path d="M 10.984375 1.515625 
L 10.984375 10.5 
Q 14.703125 8.734375 18.5 7.8125 
Q 22.3125 6.890625 25.984375 6.890625 
Q 35.75 6.890625 40.890625 13.453125 
Q 46.046875 20.015625 46.78125 33.40625 
Q 43.953125 29.203125 39.59375 26.953125 
Q 35.25 24.703125 29.984375 24.703125 
Q 19.046875 24.703125 12.671875 31.3125 
Q 6.296875 37.9375 6.296875 49.421875 
Q 6.296875 60.640625 12.9375 67.421875 
Q 19.578125 74.21875 30.609375 74.21875 
Q 43.265625 74.21875 49.921875 64.515625 
Q 56.59375 54.828125 56.59375 36.375 
Q 56.59375 19.140625 48.40625 8.859375 
Q 40.234375 -1.421875 26.421875 -1.421875 
Q 22.703125 -1.421875 18.890625 -0.6875 
Q 15.09375 0.046875 10.984375 1.515625 
M 30.609375 32.421875 
Q 37.25 32.421875 41.125 36.953125 
Q 45.015625 41.5 45.015625 49.421875 
Q 45.015625 57.28125 41.125 61.84375 
Q 37.25 66.40625 30.609375 66.40625 
Q 23.96875 66.40625 20.09375 61.84375 
Q 16.21875 57.28125 16.21875 49.421875 
Q 16.21875 41.5 20.09375 36.953125 
Q 23.96875 32.421875 30.609375 32.421875 
" id="BitstreamVeraSans-Roman-39"/>
      </defs>
      <g transform="translate(1009.28289823 661.118125)scale(0.12 -0.12)">
       <use xlink:href="#BitstreamVeraSans-Roman-53"/>
       <use x="63.4765625" xlink:href="#BitstreamVeraSans-Roman-65"/>
       <use x="125.0" xlink:href="#BitstreamVeraSans-Roman-70"/>
       <use x="188.4765625" xlink:href="#BitstreamVeraSans-Roman-20"/>
       <use x="220.263671875" xlink:href="#BitstreamVeraSans-Roman-30"/>
       <use x="283.88671875" xlink:href="#BitstreamVeraSans-Roman-39"/>
       <use x="347.509765625" xlink:href="#BitstreamVeraSans-Roman-20"/>
       <use x="379.296875" xlink:href="#BitstreamVeraSans-Roman-32"/>
       <use x="442.919921875" xlink:href="#BitstreamVeraSans-Roman-30"/>
       <use x="506.54296875" xlink:href="#BitstreamVeraSans-Roman-31"/>
       <use x="570.166015625" xlink:href="#BitstreamVeraSans-Roman-35"/>
      </g>
     </g>
    </g>
    <g id="xtick_5">
     <g id="line2d_11">
      <g>
       <use style="stroke:#000000;stroke-width:0.5;" x="1253.92517357" xlink:href="#m27e3530fb1" y="648.0"/>
      </g>
     </g>
     <g id="line2d_12">
      <g>
       <use style="stroke:#000000;stroke-width:0.5;" x="1253.92517357" xlink:href="#m8086e7b36c" y="72.0"/>
      </g>
     </g>
     <g id="text_5">
      <!-- Sep 11 2015 -->
      <g transform="translate(1215.89642357 661.118125)scale(0.12 -0.12)">
       <use xlink:href="#BitstreamVeraSans-Roman-53"/>
       <use x="63.4765625" xlink:href="#BitstreamVeraSans-Roman-65"/>
       <use x="125.0" xlink:href="#BitstreamVeraSans-Roman-70"/>
       <use x="188.4765625" xlink:href="#BitstreamVeraSans-Roman-20"/>
       <use x="220.263671875" xlink:href="#BitstreamVeraSans-Roman-31"/>
       <use x="283.88671875" xlink:href="#BitstreamVeraSans-Roman-31"/>
       <use x="347.509765625" xlink:href="#BitstreamVeraSans-Roman-20"/>
       <use x="379.296875" xlink:href="#BitstreamVeraSans-Roman-32"/>
       <use x="442.919921875" xlink:href="#BitstreamVeraSans-Roman-30"/>
       <use x="506.54296875" xlink:href="#BitstreamVeraSans-Roman-31"/>
       <use x="570.166015625" xlink:href="#BitstreamVeraSans-Roman-35"/>
      </g>
     </g>
    </g>
    <g id="xtick_6">
     <g id="line2d_13">
      <g>
       <use style="stroke:#000000;stroke-width:0.5;" x="1460.53869888" xlink:href="#m27e3530fb1" y="648.0"/>
      </g>
     </g>
     <g id="line2d_14">
      <g>
       <use style="stroke:#000000;stroke-width:0.5;" x="1460.53869888" xlink:href="#m8086e7b36c" y="72.0"/>
      </g>
     </g>
     <g id="text_6">
      <!-- Sep 13 2015 -->
      <g transform="translate(1422.50994888 661.118125)scale(0.12 -0.12)">
       <use xlink:href="#BitstreamVeraSans-Roman-53"/>
       <use x="63.4765625" xlink:href="#BitstreamVeraSans-Roman-65"/>
       <use x="125.0" xlink:href="#BitstreamVeraSans-Roman-70"/>
       <use x="188.4765625" xlink:href="#BitstreamVeraSans-Roman-20"/>
       <use x="220.263671875" xlink:href="#BitstreamVeraSans-Roman-31"/>
       <use x="283.88671875" xlink:href="#BitstreamVeraSans-Roman-33"/>
       <use x="347.509765625" xlink:href="#BitstreamVeraSans-Roman-20"/>
       <use x="379.296875" xlink:href="#BitstreamVeraSans-Roman-32"/>
       <use x="442.919921875" xlink:href="#BitstreamVeraSans-Roman-30"/>
       <use x="506.54296875" xlink:href="#BitstreamVeraSans-Roman-31"/>
       <use x="570.166015625" xlink:href="#BitstreamVeraSans-Roman-35"/>
      </g>
     </g>
    </g>
    <g id="xtick_7">
     <g id="line2d_15">
      <g>
       <use style="stroke:#000000;stroke-width:0.5;" x="1667.15222421" xlink:href="#m27e3530fb1" y="648.0"/>
      </g>
     </g>
     <g id="line2d_16">
      <g>
       <use style="stroke:#000000;stroke-width:0.5;" x="1667.15222421" xlink:href="#m8086e7b36c" y="72.0"/>
      </g>
     </g>
     <g id="text_7">
      <!-- Sep 15 2015 -->
      <g transform="translate(1629.12347421 661.118125)scale(0.12 -0.12)">
       <use xlink:href="#BitstreamVeraSans-Roman-53"/>
       <use x="63.4765625" xlink:href="#BitstreamVeraSans-Roman-65"/>
       <use x="125.0" xlink:href="#BitstreamVeraSans-Roman-70"/>
       <use x="188.4765625" xlink:href="#BitstreamVeraSans-Roman-20"/>
       <use x="220.263671875" xlink:href="#BitstreamVeraSans-Roman-31"/>
       <use x="283.88671875" xlink:href="#BitstreamVeraSans-Roman-35"/>
       <use x="347.509765625" xlink:href="#BitstreamVeraSans-Roman-20"/>
       <use x="379.296875" xlink:href="#BitstreamVeraSans-Roman-32"/>
       <use x="442.919921875" xlink:href="#BitstreamVeraSans-Roman-30"/>
       <use x="506.54296875" xlink:href="#BitstreamVeraSans-Roman-31"/>
       <use x="570.166015625" xlink:href="#BitstreamVeraSans-Roman-35"/>
      </g>
     </g>
    </g>
    <g id="xtick_8">
     <g id="line2d_17">
      <g>
       <use style="stroke:#000000;stroke-width:0.5;" x="1873.76574954" xlink:href="#m27e3530fb1" y="648.0"/>
      </g>
     </g>
     <g id="line2d_18">
      <g>
       <use style="stroke:#000000;stroke-width:0.5;" x="1873.76574954" xlink:href="#m8086e7b36c" y="72.0"/>
      </g>
     </g>
     <g id="text_8">
      <!-- Sep 17 2015 -->
      <g transform="translate(1835.73699954 661.118125)scale(0.12 -0.12)">
       <use xlink:href="#BitstreamVeraSans-Roman-53"/>
       <use x="63.4765625" xlink:href="#BitstreamVeraSans-Roman-65"/>
       <use x="125.0" xlink:href="#BitstreamVeraSans-Roman-70"/>
       <use x="188.4765625" xlink:href="#BitstreamVeraSans-Roman-20"/>
       <use x="220.263671875" xlink:href="#BitstreamVeraSans-Roman-31"/>
       <use x="283.88671875" xlink:href="#BitstreamVeraSans-Roman-37"/>
       <use x="347.509765625" xlink:href="#BitstreamVeraSans-Roman-20"/>
       <use x="379.296875" xlink:href="#BitstreamVeraSans-Roman-32"/>
       <use x="442.919921875" xlink:href="#BitstreamVeraSans-Roman-30"/>
       <use x="506.54296875" xlink:href="#BitstreamVeraSans-Roman-31"/>
       <use x="570.166015625" xlink:href="#BitstreamVeraSans-Roman-35"/>
      </g>
     </g>
    </g>
   </g>
   <g id="matplotlib.axis_2">
    <g id="ytick_1">
     <g id="line2d_19">
      <defs>
       <path d="M 0 0 
L 4 0 
" id="med20f915fa" style="stroke:#000000;stroke-width:0.5;"/>
      </defs>
      <g>
       <use style="stroke:#000000;stroke-width:0.5;" x="270.0" xlink:href="#med20f915fa" y="648.0"/>
      </g>
     </g>
     <g id="line2d_20">
      <defs>
       <path d="M 0 0 
L -4 0 
" id="m54e92c14f1" style="stroke:#000000;stroke-width:0.5;"/>
      </defs>
      <g>
       <use style="stroke:#000000;stroke-width:0.5;" x="1944.0" xlink:href="#m54e92c14f1" y="648.0"/>
      </g>
     </g>
     <g id="text_9">
      <!-- 10 -->
      <g transform="translate(250.73 651.31125)scale(0.12 -0.12)">
       <use xlink:href="#BitstreamVeraSans-Roman-31"/>
       <use x="63.623046875" xlink:href="#BitstreamVeraSans-Roman-30"/>
      </g>
     </g>
    </g>
    <g id="ytick_2">
     <g id="line2d_21">
      <g>
       <use style="stroke:#000000;stroke-width:0.5;" x="270.0" xlink:href="#med20f915fa" y="565.714285714"/>
      </g>
     </g>
     <g id="line2d_22">
      <g>
       <use style="stroke:#000000;stroke-width:0.5;" x="1944.0" xlink:href="#m54e92c14f1" y="565.714285714"/>
      </g>
     </g>
     <g id="text_10">
      <!-- 20 -->
      <g transform="translate(250.73 569.025535714)scale(0.12 -0.12)">
       <use xlink:href="#BitstreamVeraSans-Roman-32"/>
       <use x="63.623046875" xlink:href="#BitstreamVeraSans-Roman-30"/>
      </g>
     </g>
    </g>
    <g id="ytick_3">
     <g id="line2d_23">
      <g>
       <use style="stroke:#000000;stroke-width:0.5;" x="270.0" xlink:href="#med20f915fa" y="483.428571429"/>
      </g>
     </g>
     <g id="line2d_24">
      <g>
       <use style="stroke:#000000;stroke-width:0.5;" x="1944.0" xlink:href="#m54e92c14f1" y="483.428571429"/>
      </g>
     </g>
     <g id="text_11">
      <!-- 30 -->
      <g transform="translate(250.73 486.739821429)scale(0.12 -0.12)">
       <use xlink:href="#BitstreamVeraSans-Roman-33"/>
       <use x="63.623046875" xlink:href="#BitstreamVeraSans-Roman-30"/>
      </g>
     </g>
    </g>
    <g id="ytick_4">
     <g id="line2d_25">
      <g>
       <use style="stroke:#000000;stroke-width:0.5;" x="270.0" xlink:href="#med20f915fa" y="401.142857143"/>
      </g>
     </g>
     <g id="line2d_26">
      <g>
       <use style="stroke:#000000;stroke-width:0.5;" x="1944.0" xlink:href="#m54e92c14f1" y="401.142857143"/>
      </g>
     </g>
     <g id="text_12">
      <!-- 40 -->
      <defs>
       <path d="M 37.796875 64.3125 
L 12.890625 25.390625 
L 37.796875 25.390625 
z
M 35.203125 72.90625 
L 47.609375 72.90625 
L 47.609375 25.390625 
L 58.015625 25.390625 
L 58.015625 17.1875 
L 47.609375 17.1875 
L 47.609375 0 
L 37.796875 0 
L 37.796875 17.1875 
L 4.890625 17.1875 
L 4.890625 26.703125 
z
" id="BitstreamVeraSans-Roman-34"/>
      </defs>
      <g transform="translate(250.73 404.454107143)scale(0.12 -0.12)">
       <use xlink:href="#BitstreamVeraSans-Roman-34"/>
       <use x="63.623046875" xlink:href="#BitstreamVeraSans-Roman-30"/>
      </g>
     </g>
    </g>
    <g id="ytick_5">
     <g id="line2d_27">
      <g>
       <use style="stroke:#000000;stroke-width:0.5;" x="270.0" xlink:href="#med20f915fa" y="318.857142857"/>
      </g>
     </g>
     <g id="line2d_28">
      <g>
       <use style="stroke:#000000;stroke-width:0.5;" x="1944.0" xlink:href="#m54e92c14f1" y="318.857142857"/>
      </g>
     </g>
     <g id="text_13">
      <!-- 50 -->
      <g transform="translate(250.73 322.168392857)scale(0.12 -0.12)">
       <use xlink:href="#BitstreamVeraSans-Roman-35"/>
       <use x="63.623046875" xlink:href="#BitstreamVeraSans-Roman-30"/>
      </g>
     </g>
    </g>
    <g id="ytick_6">
     <g id="line2d_29">
      <g>
       <use style="stroke:#000000;stroke-width:0.5;" x="270.0" xlink:href="#med20f915fa" y="236.571428571"/>
      </g>
     </g>
     <g id="line2d_30">
      <g>
       <use style="stroke:#000000;stroke-width:0.5;" x="1944.0" xlink:href="#m54e92c14f1" y="236.571428571"/>
      </g>
     </g>
     <g id="text_14">
      <!-- 60 -->
      <defs>
       <path d="M 33.015625 40.375 
Q 26.375 40.375 22.484375 35.828125 
Q 18.609375 31.296875 18.609375 23.390625 
Q 18.609375 15.53125 22.484375 10.953125 
Q 26.375 6.390625 33.015625 6.390625 
Q 39.65625 6.390625 43.53125 10.953125 
Q 47.40625 15.53125 47.40625 23.390625 
Q 47.40625 31.296875 43.53125 35.828125 
Q 39.65625 40.375 33.015625 40.375 
M 52.59375 71.296875 
L 52.59375 62.3125 
Q 48.875 64.0625 45.09375 64.984375 
Q 41.3125 65.921875 37.59375 65.921875 
Q 27.828125 65.921875 22.671875 59.328125 
Q 17.53125 52.734375 16.796875 39.40625 
Q 19.671875 43.65625 24.015625 45.921875 
Q 28.375 48.1875 33.59375 48.1875 
Q 44.578125 48.1875 50.953125 41.515625 
Q 57.328125 34.859375 57.328125 23.390625 
Q 57.328125 12.15625 50.6875 5.359375 
Q 44.046875 -1.421875 33.015625 -1.421875 
Q 20.359375 -1.421875 13.671875 8.265625 
Q 6.984375 17.96875 6.984375 36.375 
Q 6.984375 53.65625 15.1875 63.9375 
Q 23.390625 74.21875 37.203125 74.21875 
Q 40.921875 74.21875 44.703125 73.484375 
Q 48.484375 72.75 52.59375 71.296875 
" id="BitstreamVeraSans-Roman-36"/>
      </defs>
      <g transform="translate(250.73 239.882678571)scale(0.12 -0.12)">
       <use xlink:href="#BitstreamVeraSans-Roman-36"/>
       <use x="63.623046875" xlink:href="#BitstreamVeraSans-Roman-30"/>
      </g>
     </g>
    </g>
    <g id="ytick_7">
     <g id="line2d_31">
      <g>
       <use style="stroke:#000000;stroke-width:0.5;" x="270.0" xlink:href="#med20f915fa" y="154.285714286"/>
      </g>
     </g>
     <g id="line2d_32">
      <g>
       <use style="stroke:#000000;stroke-width:0.5;" x="1944.0" xlink:href="#m54e92c14f1" y="154.285714286"/>
      </g>
     </g>
     <g id="text_15">
      <!-- 70 -->
      <g transform="translate(250.73 157.596964286)scale(0.12 -0.12)">
       <use xlink:href="#BitstreamVeraSans-Roman-37"/>
       <use x="63.623046875" xlink:href="#BitstreamVeraSans-Roman-30"/>
      </g>
     </g>
    </g>
    <g id="ytick_8">
     <g id="line2d_33">
      <g>
       <use style="stroke:#000000;stroke-width:0.5;" x="270.0" xlink:href="#med20f915fa" y="72.0"/>
      </g>
     </g>
     <g id="line2d_34">
      <g>
       <use style="stroke:#000000;stroke-width:0.5;" x="1944.0" xlink:href="#m54e92c14f1" y="72.0"/>
      </g>
     </g>
     <g id="text_16">
      <!-- 80 -->
      <defs>
       <path d="M 31.78125 34.625 
Q 24.75 34.625 20.71875 30.859375 
Q 16.703125 27.09375 16.703125 20.515625 
Q 16.703125 13.921875 20.71875 10.15625 
Q 24.75 6.390625 31.78125 6.390625 
Q 38.8125 6.390625 42.859375 10.171875 
Q 46.921875 13.96875 46.921875 20.515625 
Q 46.921875 27.09375 42.890625 30.859375 
Q 38.875 34.625 31.78125 34.625 
M 21.921875 38.8125 
Q 15.578125 40.375 12.03125 44.71875 
Q 8.5 49.078125 8.5 55.328125 
Q 8.5 64.0625 14.71875 69.140625 
Q 20.953125 74.21875 31.78125 74.21875 
Q 42.671875 74.21875 48.875 69.140625 
Q 55.078125 64.0625 55.078125 55.328125 
Q 55.078125 49.078125 51.53125 44.71875 
Q 48 40.375 41.703125 38.8125 
Q 48.828125 37.15625 52.796875 32.3125 
Q 56.78125 27.484375 56.78125 20.515625 
Q 56.78125 9.90625 50.3125 4.234375 
Q 43.84375 -1.421875 31.78125 -1.421875 
Q 19.734375 -1.421875 13.25 4.234375 
Q 6.78125 9.90625 6.78125 20.515625 
Q 6.78125 27.484375 10.78125 32.3125 
Q 14.796875 37.15625 21.921875 38.8125 
M 18.3125 54.390625 
Q 18.3125 48.734375 21.84375 45.5625 
Q 25.390625 42.390625 31.78125 42.390625 
Q 38.140625 42.390625 41.71875 45.5625 
Q 45.3125 48.734375 45.3125 54.390625 
Q 45.3125 60.0625 41.71875 63.234375 
Q 38.140625 66.40625 31.78125 66.40625 
Q 25.390625 66.40625 21.84375 63.234375 
Q 18.3125 60.0625 18.3125 54.390625 
" id="BitstreamVeraSans-Roman-38"/>
      </defs>
      <g transform="translate(250.73 75.31125)scale(0.12 -0.12)">
       <use xlink:href="#BitstreamVeraSans-Roman-38"/>
       <use x="63.623046875" xlink:href="#BitstreamVeraSans-Roman-30"/>
      </g>
     </g>
    </g>
   </g>
  </g>
 </g>
 <defs>
  <clipPath id="pcf7fe50026">
   <rect height="576.0" width="1674.0" x="270.0" y="72.0"/>
  </clipPath>
 </defs>
</svg>
